<?xml version="1.0" encoding="utf-8" standalone="no"?>
<!DOCTYPE svg PUBLIC "-//W3C//DTD SVG 1.1//EN"
  "http://www.w3.org/Graphics/SVG/1.1/DTD/svg11.dtd">
<svg xmlns:xlink="http://www.w3.org/1999/xlink" width="576pt" height="288pt" viewBox="0 0 576 288" xmlns="http://www.w3.org/2000/svg" version="1.1">
 <metadata>
  <rdf:RDF xmlns:dc="http://purl.org/dc/elements/1.1/" xmlns:cc="http://creativecommons.org/ns#" xmlns:rdf="http://www.w3.org/1999/02/22-rdf-syntax-ns#">
   <cc:Work>
    <dc:type rdf:resource="http://purl.org/dc/dcmitype/StillImage"/>
    <dc:date>2022-11-29T11:39:38.450283</dc:date>
    <dc:format>image/svg+xml</dc:format>
    <dc:creator>
     <cc:Agent>
      <dc:title>Matplotlib v3.6.0, https://matplotlib.org/</dc:title>
     </cc:Agent>
    </dc:creator>
   </cc:Work>
  </rdf:RDF>
 </metadata>
 <defs>
  <style type="text/css">*{stroke-linejoin: round; stroke-linecap: butt}</style>
 </defs>
 <g id="figure_1">
  <g id="patch_1">
   <path d="M 0 288 
L 576 288 
L 576 0 
L 0 0 
z
" style="fill: #ffffff"/>
  </g>
  <g id="axes_1">
   <g id="patch_2">
    <path d="M 44.225 246.84375 
L 495.596875 246.84375 
L 495.596875 25.8 
L 44.225 25.8 
z
" style="fill: #ffffff"/>
   </g>
   <g id="matplotlib.axis_1">
    <g id="xtick_1">
     <g id="line2d_1">
      <path d="M 64.741903 246.84375 
L 64.741903 25.8 
" clip-path="url(#p9d53506fe6)" style="fill: none; stroke-dasharray: 2.96,1.28; stroke-dashoffset: 0; stroke: #a6a6a6; stroke-width: 0.8"/>
     </g>
     <g id="line2d_2">
      <defs>
       <path id="mb1ae058b36" d="M 0 0 
L 0 3.5 
" style="stroke: #000000; stroke-width: 0.8"/>
      </defs>
      <g>
       <use xlink:href="#mb1ae058b36" x="64.741903" y="246.84375" style="stroke: #000000; stroke-width: 0.8"/>
      </g>
     </g>
     <g id="text_1">
      <!-- 0.0 -->
      <g transform="translate(56.790341 261.442187) scale(0.1 -0.1)">
       <defs>
        <path id="DejaVuSans-30" d="M 2034 4250 
Q 1547 4250 1301 3770 
Q 1056 3291 1056 2328 
Q 1056 1369 1301 889 
Q 1547 409 2034 409 
Q 2525 409 2770 889 
Q 3016 1369 3016 2328 
Q 3016 3291 2770 3770 
Q 2525 4250 2034 4250 
z
M 2034 4750 
Q 2819 4750 3233 4129 
Q 3647 3509 3647 2328 
Q 3647 1150 3233 529 
Q 2819 -91 2034 -91 
Q 1250 -91 836 529 
Q 422 1150 422 2328 
Q 422 3509 836 4129 
Q 1250 4750 2034 4750 
z
" transform="scale(0.015625)"/>
        <path id="DejaVuSans-2e" d="M 684 794 
L 1344 794 
L 1344 0 
L 684 0 
L 684 794 
z
" transform="scale(0.015625)"/>
       </defs>
       <use xlink:href="#DejaVuSans-30"/>
       <use xlink:href="#DejaVuSans-2e" x="63.623047"/>
       <use xlink:href="#DejaVuSans-30" x="95.410156"/>
      </g>
     </g>
    </g>
    <g id="xtick_2">
     <g id="line2d_3">
      <path d="M 146.809517 246.84375 
L 146.809517 25.8 
" clip-path="url(#p9d53506fe6)" style="fill: none; stroke-dasharray: 2.96,1.28; stroke-dashoffset: 0; stroke: #a6a6a6; stroke-width: 0.8"/>
     </g>
     <g id="line2d_4">
      <g>
       <use xlink:href="#mb1ae058b36" x="146.809517" y="246.84375" style="stroke: #000000; stroke-width: 0.8"/>
      </g>
     </g>
     <g id="text_2">
      <!-- 0.2 -->
      <g transform="translate(138.857955 261.442187) scale(0.1 -0.1)">
       <defs>
        <path id="DejaVuSans-32" d="M 1228 531 
L 3431 531 
L 3431 0 
L 469 0 
L 469 531 
Q 828 903 1448 1529 
Q 2069 2156 2228 2338 
Q 2531 2678 2651 2914 
Q 2772 3150 2772 3378 
Q 2772 3750 2511 3984 
Q 2250 4219 1831 4219 
Q 1534 4219 1204 4116 
Q 875 4013 500 3803 
L 500 4441 
Q 881 4594 1212 4672 
Q 1544 4750 1819 4750 
Q 2544 4750 2975 4387 
Q 3406 4025 3406 3419 
Q 3406 3131 3298 2873 
Q 3191 2616 2906 2266 
Q 2828 2175 2409 1742 
Q 1991 1309 1228 531 
z
" transform="scale(0.015625)"/>
       </defs>
       <use xlink:href="#DejaVuSans-30"/>
       <use xlink:href="#DejaVuSans-2e" x="63.623047"/>
       <use xlink:href="#DejaVuSans-32" x="95.410156"/>
      </g>
     </g>
    </g>
    <g id="xtick_3">
     <g id="line2d_5">
      <path d="M 228.877131 246.84375 
L 228.877131 25.8 
" clip-path="url(#p9d53506fe6)" style="fill: none; stroke-dasharray: 2.96,1.28; stroke-dashoffset: 0; stroke: #a6a6a6; stroke-width: 0.8"/>
     </g>
     <g id="line2d_6">
      <g>
       <use xlink:href="#mb1ae058b36" x="228.877131" y="246.84375" style="stroke: #000000; stroke-width: 0.8"/>
      </g>
     </g>
     <g id="text_3">
      <!-- 0.4 -->
      <g transform="translate(220.925568 261.442187) scale(0.1 -0.1)">
       <defs>
        <path id="DejaVuSans-34" d="M 2419 4116 
L 825 1625 
L 2419 1625 
L 2419 4116 
z
M 2253 4666 
L 3047 4666 
L 3047 1625 
L 3713 1625 
L 3713 1100 
L 3047 1100 
L 3047 0 
L 2419 0 
L 2419 1100 
L 313 1100 
L 313 1709 
L 2253 4666 
z
" transform="scale(0.015625)"/>
       </defs>
       <use xlink:href="#DejaVuSans-30"/>
       <use xlink:href="#DejaVuSans-2e" x="63.623047"/>
       <use xlink:href="#DejaVuSans-34" x="95.410156"/>
      </g>
     </g>
    </g>
    <g id="xtick_4">
     <g id="line2d_7">
      <path d="M 310.944744 246.84375 
L 310.944744 25.8 
" clip-path="url(#p9d53506fe6)" style="fill: none; stroke-dasharray: 2.96,1.28; stroke-dashoffset: 0; stroke: #a6a6a6; stroke-width: 0.8"/>
     </g>
     <g id="line2d_8">
      <g>
       <use xlink:href="#mb1ae058b36" x="310.944744" y="246.84375" style="stroke: #000000; stroke-width: 0.8"/>
      </g>
     </g>
     <g id="text_4">
      <!-- 0.6 -->
      <g transform="translate(302.993182 261.442187) scale(0.1 -0.1)">
       <defs>
        <path id="DejaVuSans-36" d="M 2113 2584 
Q 1688 2584 1439 2293 
Q 1191 2003 1191 1497 
Q 1191 994 1439 701 
Q 1688 409 2113 409 
Q 2538 409 2786 701 
Q 3034 994 3034 1497 
Q 3034 2003 2786 2293 
Q 2538 2584 2113 2584 
z
M 3366 4563 
L 3366 3988 
Q 3128 4100 2886 4159 
Q 2644 4219 2406 4219 
Q 1781 4219 1451 3797 
Q 1122 3375 1075 2522 
Q 1259 2794 1537 2939 
Q 1816 3084 2150 3084 
Q 2853 3084 3261 2657 
Q 3669 2231 3669 1497 
Q 3669 778 3244 343 
Q 2819 -91 2113 -91 
Q 1303 -91 875 529 
Q 447 1150 447 2328 
Q 447 3434 972 4092 
Q 1497 4750 2381 4750 
Q 2619 4750 2861 4703 
Q 3103 4656 3366 4563 
z
" transform="scale(0.015625)"/>
       </defs>
       <use xlink:href="#DejaVuSans-30"/>
       <use xlink:href="#DejaVuSans-2e" x="63.623047"/>
       <use xlink:href="#DejaVuSans-36" x="95.410156"/>
      </g>
     </g>
    </g>
    <g id="xtick_5">
     <g id="line2d_9">
      <path d="M 393.012358 246.84375 
L 393.012358 25.8 
" clip-path="url(#p9d53506fe6)" style="fill: none; stroke-dasharray: 2.96,1.28; stroke-dashoffset: 0; stroke: #a6a6a6; stroke-width: 0.8"/>
     </g>
     <g id="line2d_10">
      <g>
       <use xlink:href="#mb1ae058b36" x="393.012358" y="246.84375" style="stroke: #000000; stroke-width: 0.8"/>
      </g>
     </g>
     <g id="text_5">
      <!-- 0.8 -->
      <g transform="translate(385.060795 261.442187) scale(0.1 -0.1)">
       <defs>
        <path id="DejaVuSans-38" d="M 2034 2216 
Q 1584 2216 1326 1975 
Q 1069 1734 1069 1313 
Q 1069 891 1326 650 
Q 1584 409 2034 409 
Q 2484 409 2743 651 
Q 3003 894 3003 1313 
Q 3003 1734 2745 1975 
Q 2488 2216 2034 2216 
z
M 1403 2484 
Q 997 2584 770 2862 
Q 544 3141 544 3541 
Q 544 4100 942 4425 
Q 1341 4750 2034 4750 
Q 2731 4750 3128 4425 
Q 3525 4100 3525 3541 
Q 3525 3141 3298 2862 
Q 3072 2584 2669 2484 
Q 3125 2378 3379 2068 
Q 3634 1759 3634 1313 
Q 3634 634 3220 271 
Q 2806 -91 2034 -91 
Q 1263 -91 848 271 
Q 434 634 434 1313 
Q 434 1759 690 2068 
Q 947 2378 1403 2484 
z
M 1172 3481 
Q 1172 3119 1398 2916 
Q 1625 2713 2034 2713 
Q 2441 2713 2670 2916 
Q 2900 3119 2900 3481 
Q 2900 3844 2670 4047 
Q 2441 4250 2034 4250 
Q 1625 4250 1398 4047 
Q 1172 3844 1172 3481 
z
" transform="scale(0.015625)"/>
       </defs>
       <use xlink:href="#DejaVuSans-30"/>
       <use xlink:href="#DejaVuSans-2e" x="63.623047"/>
       <use xlink:href="#DejaVuSans-38" x="95.410156"/>
      </g>
     </g>
    </g>
    <g id="xtick_6">
     <g id="line2d_11">
      <path d="M 475.079972 246.84375 
L 475.079972 25.8 
" clip-path="url(#p9d53506fe6)" style="fill: none; stroke-dasharray: 2.96,1.28; stroke-dashoffset: 0; stroke: #a6a6a6; stroke-width: 0.8"/>
     </g>
     <g id="line2d_12">
      <g>
       <use xlink:href="#mb1ae058b36" x="475.079972" y="246.84375" style="stroke: #000000; stroke-width: 0.8"/>
      </g>
     </g>
     <g id="text_6">
      <!-- 1.0 -->
      <g transform="translate(467.128409 261.442187) scale(0.1 -0.1)">
       <defs>
        <path id="DejaVuSans-31" d="M 794 531 
L 1825 531 
L 1825 4091 
L 703 3866 
L 703 4441 
L 1819 4666 
L 2450 4666 
L 2450 531 
L 3481 531 
L 3481 0 
L 794 0 
L 794 531 
z
" transform="scale(0.015625)"/>
       </defs>
       <use xlink:href="#DejaVuSans-31"/>
       <use xlink:href="#DejaVuSans-2e" x="63.623047"/>
       <use xlink:href="#DejaVuSans-30" x="95.410156"/>
      </g>
     </g>
    </g>
    <g id="text_7">
     <!-- $V_{GS} (V)$ -->
     <g transform="translate(254.060938 275.120313) scale(0.1 -0.1)">
      <defs>
       <path id="DejaVuSans-Oblique-56" d="M 1319 0 
L 500 4666 
L 1119 4666 
L 1797 653 
L 4063 4666 
L 4750 4666 
L 2053 0 
L 1319 0 
z
" transform="scale(0.015625)"/>
       <path id="DejaVuSans-Oblique-47" d="M 3494 697 
L 3738 1919 
L 2700 1919 
L 2797 2438 
L 4453 2438 
L 4050 384 
Q 3634 156 3143 32 
Q 2653 -91 2156 -91 
Q 1278 -91 783 396 
Q 288 884 288 1753 
Q 288 2475 589 3126 
Q 891 3778 1422 4213 
Q 1756 4484 2153 4617 
Q 2550 4750 3034 4750 
Q 3472 4750 3873 4639 
Q 4275 4528 4641 4306 
L 4513 3634 
Q 4231 3928 3853 4083 
Q 3475 4238 3047 4238 
Q 2550 4238 2172 4048 
Q 1794 3859 1497 3463 
Q 1244 3125 1098 2667 
Q 953 2209 953 1734 
Q 953 1081 1287 751 
Q 1622 422 2284 422 
Q 2616 422 2925 492 
Q 3234 563 3494 697 
z
" transform="scale(0.015625)"/>
       <path id="DejaVuSans-Oblique-53" d="M 3859 4513 
L 3738 3897 
Q 3422 4066 3111 4152 
Q 2800 4238 2509 4238 
Q 1944 4238 1609 3991 
Q 1275 3744 1275 3334 
Q 1275 3109 1398 2989 
Q 1522 2869 2034 2731 
L 2413 2638 
Q 3053 2472 3303 2217 
Q 3553 1963 3553 1503 
Q 3553 797 2998 353 
Q 2444 -91 1538 -91 
Q 1166 -91 791 -17 
Q 416 56 38 206 
L 166 856 
Q 513 641 861 531 
Q 1209 422 1556 422 
Q 2147 422 2503 684 
Q 2859 947 2859 1369 
Q 2859 1650 2717 1795 
Q 2575 1941 2106 2059 
L 1728 2156 
Q 1081 2325 845 2545 
Q 609 2766 609 3163 
Q 609 3859 1145 4304 
Q 1681 4750 2541 4750 
Q 2875 4750 3203 4690 
Q 3531 4631 3859 4513 
z
" transform="scale(0.015625)"/>
       <path id="DejaVuSans-28" d="M 1984 4856 
Q 1566 4138 1362 3434 
Q 1159 2731 1159 2009 
Q 1159 1288 1364 580 
Q 1569 -128 1984 -844 
L 1484 -844 
Q 1016 -109 783 600 
Q 550 1309 550 2009 
Q 550 2706 781 3412 
Q 1013 4119 1484 4856 
L 1984 4856 
z
" transform="scale(0.015625)"/>
       <path id="DejaVuSans-29" d="M 513 4856 
L 1013 4856 
Q 1481 4119 1714 3412 
Q 1947 2706 1947 2009 
Q 1947 1309 1714 600 
Q 1481 -109 1013 -844 
L 513 -844 
Q 928 -128 1133 580 
Q 1338 1288 1338 2009 
Q 1338 2731 1133 3434 
Q 928 4138 513 4856 
z
" transform="scale(0.015625)"/>
      </defs>
      <use xlink:href="#DejaVuSans-Oblique-56" transform="translate(0 0.125)"/>
      <use xlink:href="#DejaVuSans-Oblique-47" transform="translate(68.408203 -16.28125) scale(0.7)"/>
      <use xlink:href="#DejaVuSans-Oblique-53" transform="translate(122.651367 -16.28125) scale(0.7)"/>
      <use xlink:href="#DejaVuSans-28" transform="translate(169.819336 0.125)"/>
      <use xlink:href="#DejaVuSans-Oblique-56" transform="translate(208.833008 0.125)"/>
      <use xlink:href="#DejaVuSans-29" transform="translate(277.241211 0.125)"/>
     </g>
    </g>
   </g>
   <g id="matplotlib.axis_2">
    <g id="ytick_1">
     <g id="line2d_13">
      <path d="M 44.225 239.826763 
L 495.596875 239.826763 
" clip-path="url(#p9d53506fe6)" style="fill: none; stroke-dasharray: 2.96,1.28; stroke-dashoffset: 0; stroke: #a6a6a6; stroke-width: 0.8"/>
     </g>
     <g id="line2d_14">
      <defs>
       <path id="m2c09ed3c08" d="M 0 0 
L -3.5 0 
" style="stroke: #000000; stroke-width: 0.8"/>
      </defs>
      <g>
       <use xlink:href="#m2c09ed3c08" x="44.225" y="239.826763" style="stroke: #000000; stroke-width: 0.8"/>
      </g>
     </g>
     <g id="text_8">
      <!-- 0 -->
      <g transform="translate(30.8625 243.625982) scale(0.1 -0.1)">
       <use xlink:href="#DejaVuSans-30"/>
      </g>
     </g>
    </g>
    <g id="ytick_2">
     <g id="line2d_15">
      <path d="M 44.225 202.154098 
L 495.596875 202.154098 
" clip-path="url(#p9d53506fe6)" style="fill: none; stroke-dasharray: 2.96,1.28; stroke-dashoffset: 0; stroke: #a6a6a6; stroke-width: 0.8"/>
     </g>
     <g id="line2d_16">
      <g>
       <use xlink:href="#m2c09ed3c08" x="44.225" y="202.154098" style="stroke: #000000; stroke-width: 0.8"/>
      </g>
     </g>
     <g id="text_9">
      <!-- 10 -->
      <g transform="translate(24.5 205.953316) scale(0.1 -0.1)">
       <use xlink:href="#DejaVuSans-31"/>
       <use xlink:href="#DejaVuSans-30" x="63.623047"/>
      </g>
     </g>
    </g>
    <g id="ytick_3">
     <g id="line2d_17">
      <path d="M 44.225 164.481432 
L 495.596875 164.481432 
" clip-path="url(#p9d53506fe6)" style="fill: none; stroke-dasharray: 2.96,1.28; stroke-dashoffset: 0; stroke: #a6a6a6; stroke-width: 0.8"/>
     </g>
     <g id="line2d_18">
      <g>
       <use xlink:href="#m2c09ed3c08" x="44.225" y="164.481432" style="stroke: #000000; stroke-width: 0.8"/>
      </g>
     </g>
     <g id="text_10">
      <!-- 20 -->
      <g transform="translate(24.5 168.280651) scale(0.1 -0.1)">
       <use xlink:href="#DejaVuSans-32"/>
       <use xlink:href="#DejaVuSans-30" x="63.623047"/>
      </g>
     </g>
    </g>
    <g id="ytick_4">
     <g id="line2d_19">
      <path d="M 44.225 126.808767 
L 495.596875 126.808767 
" clip-path="url(#p9d53506fe6)" style="fill: none; stroke-dasharray: 2.96,1.28; stroke-dashoffset: 0; stroke: #a6a6a6; stroke-width: 0.8"/>
     </g>
     <g id="line2d_20">
      <g>
       <use xlink:href="#m2c09ed3c08" x="44.225" y="126.808767" style="stroke: #000000; stroke-width: 0.8"/>
      </g>
     </g>
     <g id="text_11">
      <!-- 30 -->
      <g transform="translate(24.5 130.607986) scale(0.1 -0.1)">
       <defs>
        <path id="DejaVuSans-33" d="M 2597 2516 
Q 3050 2419 3304 2112 
Q 3559 1806 3559 1356 
Q 3559 666 3084 287 
Q 2609 -91 1734 -91 
Q 1441 -91 1130 -33 
Q 819 25 488 141 
L 488 750 
Q 750 597 1062 519 
Q 1375 441 1716 441 
Q 2309 441 2620 675 
Q 2931 909 2931 1356 
Q 2931 1769 2642 2001 
Q 2353 2234 1838 2234 
L 1294 2234 
L 1294 2753 
L 1863 2753 
Q 2328 2753 2575 2939 
Q 2822 3125 2822 3475 
Q 2822 3834 2567 4026 
Q 2313 4219 1838 4219 
Q 1578 4219 1281 4162 
Q 984 4106 628 3988 
L 628 4550 
Q 988 4650 1302 4700 
Q 1616 4750 1894 4750 
Q 2613 4750 3031 4423 
Q 3450 4097 3450 3541 
Q 3450 3153 3228 2886 
Q 3006 2619 2597 2516 
z
" transform="scale(0.015625)"/>
       </defs>
       <use xlink:href="#DejaVuSans-33"/>
       <use xlink:href="#DejaVuSans-30" x="63.623047"/>
      </g>
     </g>
    </g>
    <g id="ytick_5">
     <g id="line2d_21">
      <path d="M 44.225 89.136102 
L 495.596875 89.136102 
" clip-path="url(#p9d53506fe6)" style="fill: none; stroke-dasharray: 2.96,1.28; stroke-dashoffset: 0; stroke: #a6a6a6; stroke-width: 0.8"/>
     </g>
     <g id="line2d_22">
      <g>
       <use xlink:href="#m2c09ed3c08" x="44.225" y="89.136102" style="stroke: #000000; stroke-width: 0.8"/>
      </g>
     </g>
     <g id="text_12">
      <!-- 40 -->
      <g transform="translate(24.5 92.93532) scale(0.1 -0.1)">
       <use xlink:href="#DejaVuSans-34"/>
       <use xlink:href="#DejaVuSans-30" x="63.623047"/>
      </g>
     </g>
    </g>
    <g id="ytick_6">
     <g id="line2d_23">
      <path d="M 44.225 51.463436 
L 495.596875 51.463436 
" clip-path="url(#p9d53506fe6)" style="fill: none; stroke-dasharray: 2.96,1.28; stroke-dashoffset: 0; stroke: #a6a6a6; stroke-width: 0.8"/>
     </g>
     <g id="line2d_24">
      <g>
       <use xlink:href="#m2c09ed3c08" x="44.225" y="51.463436" style="stroke: #000000; stroke-width: 0.8"/>
      </g>
     </g>
     <g id="text_13">
      <!-- 50 -->
      <g transform="translate(24.5 55.262655) scale(0.1 -0.1)">
       <defs>
        <path id="DejaVuSans-35" d="M 691 4666 
L 3169 4666 
L 3169 4134 
L 1269 4134 
L 1269 2991 
Q 1406 3038 1543 3061 
Q 1681 3084 1819 3084 
Q 2600 3084 3056 2656 
Q 3513 2228 3513 1497 
Q 3513 744 3044 326 
Q 2575 -91 1722 -91 
Q 1428 -91 1123 -41 
Q 819 9 494 109 
L 494 744 
Q 775 591 1075 516 
Q 1375 441 1709 441 
Q 2250 441 2565 725 
Q 2881 1009 2881 1497 
Q 2881 1984 2565 2268 
Q 2250 2553 1709 2553 
Q 1456 2553 1204 2497 
Q 953 2441 691 2322 
L 691 4666 
z
" transform="scale(0.015625)"/>
       </defs>
       <use xlink:href="#DejaVuSans-35"/>
       <use xlink:href="#DejaVuSans-30" x="63.623047"/>
      </g>
     </g>
    </g>
    <g id="text_14">
     <!-- $I_D / g_{ds} (A/S)$ -->
     <g transform="translate(18.4 161.871875) rotate(-90) scale(0.1 -0.1)">
      <defs>
       <path id="DejaVuSans-Oblique-49" d="M 1081 4666 
L 1716 4666 
L 806 0 
L 172 0 
L 1081 4666 
z
" transform="scale(0.015625)"/>
       <path id="DejaVuSans-Oblique-44" d="M 1081 4666 
L 2438 4666 
Q 3519 4666 4070 4208 
Q 4622 3750 4622 2847 
Q 4622 2250 4412 1698 
Q 4203 1147 3834 769 
Q 3463 381 2891 190 
Q 2319 0 1538 0 
L 172 0 
L 1081 4666 
z
M 1613 4147 
L 909 519 
L 1734 519 
Q 2794 519 3375 1128 
Q 3956 1738 3956 2847 
Q 3956 3519 3581 3833 
Q 3206 4147 2406 4147 
L 1613 4147 
z
" transform="scale(0.015625)"/>
       <path id="DejaVuSans-2f" d="M 1625 4666 
L 2156 4666 
L 531 -594 
L 0 -594 
L 1625 4666 
z
" transform="scale(0.015625)"/>
       <path id="DejaVuSans-Oblique-67" d="M 3816 3500 
L 3219 434 
Q 3047 -456 2561 -893 
Q 2075 -1331 1253 -1331 
Q 950 -1331 690 -1286 
Q 431 -1241 206 -1147 
L 313 -588 
Q 525 -725 762 -790 
Q 1000 -856 1269 -856 
Q 1816 -856 2167 -557 
Q 2519 -259 2631 300 
L 2681 563 
Q 2441 288 2122 144 
Q 1803 0 1434 0 
Q 903 0 598 351 
Q 294 703 294 1319 
Q 294 1803 478 2267 
Q 663 2731 997 3091 
Q 1219 3328 1514 3456 
Q 1809 3584 2131 3584 
Q 2484 3584 2746 3420 
Q 3009 3256 3138 2956 
L 3238 3500 
L 3816 3500 
z
M 2950 2216 
Q 2950 2641 2750 2872 
Q 2550 3103 2181 3103 
Q 1953 3103 1747 3012 
Q 1541 2922 1394 2759 
Q 1156 2491 1023 2127 
Q 891 1763 891 1375 
Q 891 944 1092 712 
Q 1294 481 1672 481 
Q 2219 481 2584 976 
Q 2950 1472 2950 2216 
z
" transform="scale(0.015625)"/>
       <path id="DejaVuSans-Oblique-64" d="M 2675 525 
Q 2444 222 2128 65 
Q 1813 -91 1428 -91 
Q 903 -91 598 267 
Q 294 625 294 1247 
Q 294 1766 478 2236 
Q 663 2706 1013 3078 
Q 1244 3325 1534 3454 
Q 1825 3584 2144 3584 
Q 2481 3584 2739 3421 
Q 2997 3259 3138 2956 
L 3513 4863 
L 4091 4863 
L 3144 0 
L 2566 0 
L 2675 525 
z
M 891 1350 
Q 891 897 1095 644 
Q 1300 391 1663 391 
Q 1931 391 2161 520 
Q 2391 650 2566 903 
Q 2750 1166 2856 1509 
Q 2963 1853 2963 2188 
Q 2963 2622 2758 2865 
Q 2553 3109 2194 3109 
Q 1922 3109 1687 2981 
Q 1453 2853 1288 2613 
Q 1106 2353 998 2009 
Q 891 1666 891 1350 
z
" transform="scale(0.015625)"/>
       <path id="DejaVuSans-Oblique-73" d="M 3200 3397 
L 3091 2853 
Q 2863 2978 2609 3040 
Q 2356 3103 2088 3103 
Q 1634 3103 1373 2948 
Q 1113 2794 1113 2528 
Q 1113 2219 1719 2053 
Q 1766 2041 1788 2034 
L 1972 1978 
Q 2547 1819 2739 1644 
Q 2931 1469 2931 1166 
Q 2931 609 2489 259 
Q 2047 -91 1331 -91 
Q 1053 -91 747 -37 
Q 441 16 72 128 
L 184 722 
Q 500 559 806 475 
Q 1113 391 1394 391 
Q 1816 391 2080 572 
Q 2344 753 2344 1031 
Q 2344 1331 1650 1516 
L 1591 1531 
L 1394 1581 
Q 956 1697 753 1886 
Q 550 2075 550 2369 
Q 550 2928 970 3256 
Q 1391 3584 2113 3584 
Q 2397 3584 2667 3537 
Q 2938 3491 3200 3397 
z
" transform="scale(0.015625)"/>
       <path id="DejaVuSans-Oblique-41" d="M 2356 4666 
L 3072 4666 
L 3938 0 
L 3278 0 
L 3084 1197 
L 984 1197 
L 325 0 
L -341 0 
L 2356 4666 
z
M 2584 4044 
L 1275 1722 
L 2988 1722 
L 2584 4044 
z
" transform="scale(0.015625)"/>
      </defs>
      <use xlink:href="#DejaVuSans-Oblique-49" transform="translate(0 0.125)"/>
      <use xlink:href="#DejaVuSans-Oblique-44" transform="translate(29.492188 -16.28125) scale(0.7)"/>
      <use xlink:href="#DejaVuSans-2f" transform="translate(86.12793 0.125)"/>
      <use xlink:href="#DejaVuSans-Oblique-67" transform="translate(119.819336 0.125)"/>
      <use xlink:href="#DejaVuSans-Oblique-64" transform="translate(183.295898 -16.28125) scale(0.7)"/>
      <use xlink:href="#DejaVuSans-Oblique-73" transform="translate(227.729492 -16.28125) scale(0.7)"/>
      <use xlink:href="#DejaVuSans-28" transform="translate(266.933594 0.125)"/>
      <use xlink:href="#DejaVuSans-Oblique-41" transform="translate(305.947266 0.125)"/>
      <use xlink:href="#DejaVuSans-2f" transform="translate(374.355469 0.125)"/>
      <use xlink:href="#DejaVuSans-Oblique-53" transform="translate(408.046875 0.125)"/>
      <use xlink:href="#DejaVuSans-29" transform="translate(471.523438 0.125)"/>
     </g>
    </g>
   </g>
   <g id="line2d_25">
    <path d="M 64.741903 236.796307 
L 68.845284 236.796028 
L 72.948665 236.795709 
L 77.052045 236.795345 
L 81.155426 236.79493 
L 85.258807 236.794455 
L 89.362188 236.793914 
L 93.465568 236.793295 
L 97.568949 236.792589 
L 101.67233 236.791782 
L 105.77571 236.790862 
L 109.879091 236.789812 
L 113.982472 236.788613 
L 118.085852 236.787246 
L 122.189233 236.785687 
L 126.292614 236.783908 
L 130.395994 236.781881 
L 134.499375 236.779571 
L 138.602756 236.776939 
L 142.706136 236.773942 
L 146.809517 236.770531 
L 150.912898 236.76665 
L 155.016278 236.762239 
L 159.119659 236.757229 
L 163.22304 236.751542 
L 167.32642 236.745093 
L 171.429801 236.737789 
L 175.533182 236.729527 
L 179.636563 236.720193 
L 183.739943 236.709668 
L 187.843324 236.69782 
L 191.946705 236.684512 
L 196.050085 236.6696 
L 200.153466 236.652936 
L 204.256847 236.634372 
L 208.360227 236.613763 
L 212.463608 236.590988 
L 216.566989 236.565935 
L 220.670369 236.538508 
L 224.77375 236.508642 
L 228.877131 236.476301 
L 232.980511 236.441488 
L 237.083892 236.404241 
L 241.187273 236.364627 
L 245.290653 236.322734 
L 249.394034 236.278643 
L 253.497415 236.232402 
L 257.600795 236.18399 
L 261.704176 236.133271 
L 265.807557 236.079959 
L 269.910938 236.023583 
L 274.014318 235.963471 
L 278.117699 235.898747 
L 282.22108 235.828358 
L 286.32446 235.751111 
L 290.427841 235.665731 
L 294.531222 235.570919 
L 298.634602 235.465419 
L 302.737983 235.348068 
L 306.841364 235.217848 
L 310.944744 235.073919 
L 315.048125 234.915645 
L 319.151506 234.742605 
L 323.254886 234.554608 
L 327.358267 234.351688 
L 331.461648 234.134101 
L 335.565028 233.902319 
L 339.668409 233.657016 
L 343.77179 233.399051 
L 347.87517 233.129456 
L 351.978551 232.849409 
L 356.081932 232.560213 
L 360.185313 232.263277 
L 364.288693 231.960087 
L 368.392074 231.652186 
L 372.495455 231.341148 
L 376.598835 231.02856 
L 380.702216 230.716004 
L 384.805597 230.405035 
L 388.908977 230.097173 
L 393.012358 229.793885 
L 397.115739 229.496582 
L 401.219119 229.206607 
L 405.3225 228.925233 
L 409.425881 228.65366 
L 413.529261 228.39301 
L 417.632642 228.144332 
L 421.736023 227.908599 
L 425.839403 227.686712 
L 429.942784 227.479498 
L 434.046165 227.287717 
L 438.149545 227.112059 
L 442.252926 226.95315 
L 446.356307 226.811552 
L 450.459688 226.687761 
L 454.563068 226.582213 
L 458.666449 226.495281 
L 462.76983 226.427275 
L 466.87321 226.378442 
L 470.976591 226.348962 
L 475.079972 226.338949 
" clip-path="url(#p9d53506fe6)" style="fill: none; stroke: #1f77b4; stroke-width: 1.5; stroke-linecap: square"/>
   </g>
   <g id="line2d_26">
    <path d="M 64.741903 227.539329 
L 68.845284 227.538593 
L 72.948665 227.537752 
L 77.052045 227.536791 
L 81.155426 227.535694 
L 85.258807 227.534441 
L 89.362188 227.533011 
L 93.465568 227.531377 
L 97.568949 227.529512 
L 101.67233 227.527383 
L 105.77571 227.524952 
L 109.879091 227.522177 
L 113.982472 227.519011 
L 118.085852 227.515397 
L 122.189233 227.511275 
L 126.292614 227.506574 
L 130.395994 227.501212 
L 134.499375 227.4951 
L 138.602756 227.488134 
L 142.706136 227.480198 
L 146.809517 227.471161 
L 150.912898 227.460876 
L 155.016278 227.449175 
L 159.119659 227.435873 
L 163.22304 227.420762 
L 167.32642 227.403609 
L 171.429801 227.384158 
L 175.533182 227.362123 
L 179.636563 227.337192 
L 183.739943 227.309024 
L 187.843324 227.277248 
L 191.946705 227.241467 
L 196.050085 227.201258 
L 200.153466 227.156177 
L 204.256847 227.105763 
L 208.360227 227.049552 
L 212.463608 226.987121 
L 216.566989 226.918053 
L 220.670369 226.841953 
L 224.77375 226.758479 
L 228.877131 226.667356 
L 232.980511 226.568394 
L 237.083892 226.461497 
L 241.187273 226.346662 
L 245.290653 226.223977 
L 249.394034 226.093581 
L 253.497415 225.955628 
L 257.600795 225.810206 
L 261.704176 225.657256 
L 265.807557 225.496467 
L 269.910938 225.327179 
L 274.014318 225.148294 
L 278.117699 224.958231 
L 282.22108 224.754923 
L 286.32446 224.535873 
L 290.427841 224.298266 
L 294.531222 224.039128 
L 298.634602 223.755514 
L 302.737983 223.444704 
L 306.841364 223.104383 
L 310.944744 222.732806 
L 315.048125 222.328915 
L 319.151506 221.892421 
L 323.254886 221.42385 
L 327.358267 220.924554 
L 331.461648 220.396684 
L 335.565028 219.843143 
L 339.668409 219.267519 
L 343.77179 218.673994 
L 347.87517 218.067243 
L 351.978551 217.452327 
L 356.081932 216.834572 
L 360.185313 216.219455 
L 364.288693 215.612492 
L 368.392074 215.019134 
L 372.495455 214.444666 
L 376.598835 213.894133 
L 380.702216 213.372265 
L 384.805597 212.88343 
L 388.908977 212.431591 
L 393.012358 212.020285 
L 397.115739 211.652607 
L 401.219119 211.331212 
L 405.3225 211.058317 
L 409.425881 210.835717 
L 413.529261 210.664801 
L 417.632642 210.546573 
L 421.736023 210.481674 
L 425.839403 210.470401 
L 429.942784 210.512732 
L 434.046165 210.608344 
L 438.149545 210.756631 
L 442.252926 210.956723 
L 446.356307 211.207494 
L 450.459688 211.507584 
L 454.563068 211.855398 
L 458.666449 212.249125 
L 462.76983 212.686744 
L 466.87321 213.166028 
L 470.976591 213.684558 
L 475.079972 214.239727 
" clip-path="url(#p9d53506fe6)" style="fill: none; stroke: #ff7f0e; stroke-width: 1.5; stroke-linecap: square"/>
   </g>
   <g id="line2d_27">
    <path d="M 64.741903 206.221287 
L 68.845284 206.220334 
L 72.948665 206.219245 
L 77.052045 206.218001 
L 81.155426 206.216581 
L 85.258807 206.214959 
L 89.362188 206.213106 
L 93.465568 206.21099 
L 97.568949 206.208574 
L 101.67233 206.205815 
L 105.77571 206.202665 
L 109.879091 206.199069 
L 113.982472 206.194963 
L 118.085852 206.190277 
L 122.189233 206.184928 
L 126.292614 206.178825 
L 130.395994 206.171862 
L 134.499375 206.163919 
L 138.602756 206.154861 
L 142.706136 206.144533 
L 146.809517 206.132761 
L 150.912898 206.119349 
L 155.016278 206.104072 
L 159.119659 206.086678 
L 163.22304 206.066885 
L 167.32642 206.044374 
L 171.429801 206.018786 
L 175.533182 205.989721 
L 179.636563 205.956731 
L 183.739943 205.919318 
L 187.843324 205.87693 
L 191.946705 205.828954 
L 196.050085 205.774715 
L 200.153466 205.713471 
L 204.256847 205.644411 
L 208.360227 205.566651 
L 212.463608 205.479286 
L 216.566989 205.381315 
L 220.670369 205.271644 
L 224.77375 205.149089 
L 228.877131 205.012375 
L 232.980511 204.860124 
L 237.083892 204.690836 
L 241.187273 204.502876 
L 245.290653 204.294443 
L 249.394034 204.06355 
L 253.497415 203.807993 
L 257.600795 203.525333 
L 261.704176 203.212884 
L 265.807557 202.867733 
L 269.910938 202.486783 
L 274.014318 202.066839 
L 278.117699 201.604739 
L 282.22108 201.097535 
L 286.32446 200.542697 
L 290.427841 199.938349 
L 294.531222 199.283499 
L 298.634602 198.578256 
L 302.737983 197.823992 
L 306.841364 197.02346 
L 310.944744 196.18084 
L 315.048125 195.301713 
L 319.151506 194.39298 
L 323.254886 193.462713 
L 327.358267 192.519967 
L 331.461648 191.574549 
L 335.565028 190.636776 
L 339.668409 189.717209 
L 343.77179 188.826399 
L 347.87517 187.974646 
L 351.978551 187.171776 
L 356.081932 186.426959 
L 360.185313 185.748556 
L 364.288693 185.144018 
L 368.392074 184.619811 
L 372.495455 184.181393 
L 376.598835 183.833215 
L 380.702216 183.578753 
L 384.805597 183.420562 
L 388.908977 183.360338 
L 393.012358 183.398997 
L 397.115739 183.536753 
L 401.219119 183.773187 
L 405.3225 184.107328 
L 409.425881 184.537705 
L 413.529261 185.062413 
L 417.632642 185.679149 
L 421.736023 186.385256 
L 425.839403 187.177742 
L 429.942784 188.053307 
L 434.046165 189.008347 
L 438.149545 190.038969 
L 442.252926 191.140983 
L 446.356307 192.309912 
L 450.459688 193.540981 
L 454.563068 194.829123 
L 458.666449 196.168972 
L 462.76983 197.554877 
L 466.87321 198.980901 
L 470.976591 200.440844 
L 475.079972 201.92826 
" clip-path="url(#p9d53506fe6)" style="fill: none; stroke: #2ca02c; stroke-width: 1.5; stroke-linecap: square"/>
   </g>
   <g id="line2d_28">
    <path d="M 64.741903 184.896471 
L 68.845284 184.896223 
L 72.948665 184.895939 
L 77.052045 184.895615 
L 81.155426 184.895244 
L 85.258807 184.89482 
L 89.362188 184.894334 
L 93.465568 184.893777 
L 97.568949 184.89314 
L 101.67233 184.89241 
L 105.77571 184.891573 
L 109.879091 184.890613 
L 113.982472 184.889511 
L 118.085852 184.888246 
L 122.189233 184.886793 
L 126.292614 184.885122 
L 130.395994 184.883198 
L 134.499375 184.880982 
L 138.602756 184.878425 
L 142.706136 184.875472 
L 146.809517 184.872057 
L 150.912898 184.868099 
L 155.016278 184.863506 
L 159.119659 184.858164 
L 163.22304 184.851938 
L 167.32642 184.844665 
L 171.429801 184.836148 
L 175.533182 184.826145 
L 179.636563 184.814366 
L 183.739943 184.800452 
L 187.843324 184.783967 
L 191.946705 184.764372 
L 196.050085 184.741009 
L 200.153466 184.713066 
L 204.256847 184.679545 
L 208.360227 184.639221 
L 212.463608 184.590624 
L 216.566989 184.53195 
L 220.670369 184.461 
L 224.77375 184.375115 
L 228.877131 184.271106 
L 232.980511 184.145176 
L 237.083892 183.992856 
L 241.187273 183.80894 
L 245.290653 183.587458 
L 249.394034 183.321677 
L 253.497415 183.004152 
L 257.600795 182.626855 
L 261.704176 182.181372 
L 265.807557 181.659207 
L 269.910938 181.052173 
L 274.014318 180.352878 
L 278.117699 179.555267 
L 282.22108 178.655211 
L 286.32446 177.651057 
L 290.427841 176.544119 
L 294.531222 175.339022 
L 298.634602 174.043869 
L 302.737983 172.670188 
L 306.841364 171.232655 
L 310.944744 169.748616 
L 315.048125 168.237439 
L 319.151506 166.719766 
L 323.254886 165.216734 
L 327.358267 163.749217 
L 331.461648 162.33716 
L 335.565028 160.999031 
L 339.668409 159.751425 
L 343.77179 158.608804 
L 347.87517 157.583393 
L 351.978551 156.685174 
L 356.081932 155.921995 
L 360.185313 155.29973 
L 364.288693 154.82249 
L 368.392074 154.492856 
L 372.495455 154.312107 
L 376.598835 154.280449 
L 380.702216 154.397213 
L 384.805597 154.661037 
L 388.908977 155.070011 
L 393.012358 155.621799 
L 397.115739 156.313728 
L 401.219119 157.142853 
L 405.3225 158.105993 
L 409.425881 159.199751 
L 413.529261 160.420511 
L 417.632642 161.764417 
L 421.736023 163.227344 
L 425.839403 164.804856 
L 429.942784 166.492152 
L 434.046165 168.284017 
L 438.149545 170.174762 
L 442.252926 172.158169 
L 446.356307 174.22744 
L 450.459688 176.375154 
L 454.563068 178.593231 
L 458.666449 180.872917 
L 462.76983 183.204781 
L 466.87321 185.578734 
L 470.976591 187.98407 
L 475.079972 190.409537 
" clip-path="url(#p9d53506fe6)" style="fill: none; stroke: #d62728; stroke-width: 1.5; stroke-linecap: square"/>
   </g>
   <g id="line2d_29">
    <path d="M 64.741903 174.97591 
L 68.845284 174.975901 
L 72.948665 174.975889 
L 77.052045 174.975875 
L 81.155426 174.975858 
L 85.258807 174.975837 
L 89.362188 174.975811 
L 93.465568 174.97578 
L 97.568949 174.975741 
L 101.67233 174.975692 
L 105.77571 174.975631 
L 109.879091 174.975555 
L 113.982472 174.975458 
L 118.085852 174.975336 
L 122.189233 174.975181 
L 126.292614 174.974983 
L 130.395994 174.974731 
L 134.499375 174.974408 
L 138.602756 174.973992 
L 142.706136 174.973458 
L 146.809517 174.972768 
L 150.912898 174.971878 
L 155.016278 174.970727 
L 159.119659 174.969237 
L 163.22304 174.967308 
L 167.32642 174.964806 
L 171.429801 174.961564 
L 175.533182 174.95736 
L 179.636563 174.951909 
L 183.739943 174.944846 
L 187.843324 174.935699 
L 191.946705 174.923863 
L 196.050085 174.908566 
L 200.153466 174.888822 
L 204.256847 174.863383 
L 208.360227 174.830674 
L 212.463608 174.788743 
L 216.566989 174.735158 
L 220.670369 174.666906 
L 224.77375 174.580295 
L 228.877131 174.470841 
L 232.980511 174.333155 
L 237.083892 174.160839 
L 241.187273 173.946394 
L 245.290653 173.68117 
L 249.394034 173.355354 
L 253.497415 172.958044 
L 257.600795 172.477402 
L 261.704176 171.900932 
L 265.807557 171.215877 
L 269.910938 170.409751 
L 274.014318 169.471003 
L 278.117699 168.389773 
L 282.22108 167.158707 
L 286.32446 165.773774 
L 290.427841 164.234993 
L 294.531222 162.547007 
L 298.634602 160.719425 
L 302.737983 158.766868 
L 306.841364 156.708705 
L 310.944744 154.568476 
L 315.048125 152.373049 
L 319.151506 150.151589 
L 323.254886 147.93443 
L 327.358267 145.751938 
L 331.461648 143.633485 
L 335.565028 141.606567 
L 339.668409 139.696145 
L 343.77179 137.924206 
L 347.87517 136.309541 
L 351.978551 134.867716 
L 356.081932 133.611205 
L 360.185313 132.549623 
L 364.288693 131.69004 
L 368.392074 131.037322 
L 372.495455 130.594487 
L 376.598835 130.363028 
L 380.702216 130.343215 
L 384.805597 130.534351 
L 388.908977 130.934974 
L 393.012358 131.543021 
L 397.115739 132.35594 
L 401.219119 133.370755 
L 405.3225 134.5841 
L 409.425881 135.992211 
L 413.529261 137.590889 
L 417.632642 139.37544 
L 421.736023 141.340589 
L 425.839403 143.480386 
L 429.942784 145.788093 
L 434.046165 148.256073 
L 438.149545 150.875672 
L 442.252926 153.63712 
L 446.356307 156.529432 
L 450.459688 159.540344 
L 454.563068 162.656266 
L 458.666449 165.862283 
L 462.76983 169.14219 
L 466.87321 172.47858 
L 470.976591 175.852986 
L 475.079972 179.246077 
" clip-path="url(#p9d53506fe6)" style="fill: none; stroke: #9467bd; stroke-width: 1.5; stroke-linecap: square"/>
   </g>
   <g id="line2d_30">
    <path d="M 64.741903 167.165621 
L 68.845284 167.165616 
L 72.948665 167.165609 
L 77.052045 167.165601 
L 81.155426 167.16559 
L 85.258807 167.165576 
L 89.362188 167.165557 
L 93.465568 167.165533 
L 97.568949 167.165502 
L 101.67233 167.165461 
L 105.77571 167.165408 
L 109.879091 167.165338 
L 113.982472 167.165247 
L 118.085852 167.165128 
L 122.189233 167.164972 
L 126.292614 167.164768 
L 130.395994 167.164501 
L 134.499375 167.164151 
L 138.602756 167.163694 
L 142.706136 167.163095 
L 146.809517 167.162312 
L 150.912898 167.161286 
L 155.016278 167.159945 
L 159.119659 167.15819 
L 163.22304 167.155897 
L 167.32642 167.152902 
L 171.429801 167.148991 
L 175.533182 167.14389 
L 179.636563 167.137241 
L 183.739943 167.128584 
L 187.843324 167.117327 
L 191.946705 167.102709 
L 196.050085 167.083756 
L 200.153466 167.059227 
L 204.256847 167.027547 
L 208.360227 166.986724 
L 212.463608 166.934292 
L 216.566989 166.867175 
L 220.670369 166.781553 
L 224.77375 166.672741 
L 228.877131 166.535042 
L 232.980511 166.361592 
L 237.083892 166.144222 
L 241.187273 165.873325 
L 245.290653 165.537771 
L 249.394034 165.124865 
L 253.497415 164.620399 
L 257.600795 164.008799 
L 261.704176 163.273416 
L 265.807557 162.396957 
L 269.910938 161.36209 
L 274.014318 160.152202 
L 278.117699 158.752304 
L 282.22108 157.150032 
L 286.32446 155.33668 
L 290.427841 153.308203 
L 294.531222 151.066072 
L 298.634602 148.617917 
L 302.737983 145.977858 
L 306.841364 143.166482 
L 310.944744 140.210448 
L 315.048125 137.141723 
L 319.151506 133.996523 
L 323.254886 130.81405 
L 327.358267 127.635111 
L 331.461648 124.500755 
L 335.565028 121.451012 
L 339.668409 118.523825 
L 343.77179 115.754211 
L 347.87517 113.173683 
L 351.978551 110.809923 
L 356.081932 108.686677 
L 360.185313 106.823832 
L 364.288693 105.237628 
L 368.392074 103.940965 
L 372.495455 102.943753 
L 376.598835 102.253274 
L 380.702216 101.874533 
L 384.805597 101.81057 
L 388.908977 102.062723 
L 393.012358 102.630837 
L 397.115739 103.513418 
L 401.219119 104.70772 
L 405.3225 106.209787 
L 409.425881 108.014438 
L 413.529261 110.115219 
L 417.632642 112.504308 
L 421.736023 115.172402 
L 425.839403 118.10859 
L 429.942784 121.300209 
L 434.046165 124.732716 
L 438.149545 128.389577 
L 442.252926 132.252175 
L 446.356307 136.299778 
L 450.459688 140.509548 
L 454.563068 144.856619 
L 458.666449 149.314255 
L 462.76983 153.854085 
L 466.87321 158.446416 
L 470.976591 163.060638 
L 475.079972 167.665692 
" clip-path="url(#p9d53506fe6)" style="fill: none; stroke: #8c564b; stroke-width: 1.5; stroke-linecap: square"/>
   </g>
   <g id="line2d_31">
    <path d="M 64.741903 159.701155 
L 68.845284 159.701149 
L 72.948665 159.701141 
L 77.052045 159.701132 
L 81.155426 159.701119 
L 85.258807 159.701102 
L 89.362188 159.701081 
L 93.465568 159.701052 
L 97.568949 159.701015 
L 101.67233 159.700966 
L 105.77571 159.700903 
L 109.879091 159.700819 
L 113.982472 159.70071 
L 118.085852 159.700566 
L 122.189233 159.700378 
L 126.292614 159.700132 
L 130.395994 159.69981 
L 134.499375 159.699387 
L 138.602756 159.698832 
L 142.706136 159.698106 
L 146.809517 159.697155 
L 150.912898 159.69591 
L 155.016278 159.69428 
L 159.119659 159.692147 
L 163.22304 159.689358 
L 167.32642 159.685714 
L 171.429801 159.680953 
L 175.533182 159.674741 
L 179.636563 159.666643 
L 183.739943 159.656097 
L 187.843324 159.64238 
L 191.946705 159.624564 
L 196.050085 159.60146 
L 200.153466 159.571553 
L 204.256847 159.532918 
L 208.360227 159.483125 
L 212.463608 159.419157 
L 216.566989 159.337251 
L 220.670369 159.232732 
L 224.77375 159.099859 
L 228.877131 158.93164 
L 232.980511 158.719637 
L 237.083892 158.453783 
L 241.187273 158.122207 
L 245.290653 157.711096 
L 249.394034 157.204622 
L 253.497415 156.584952 
L 257.600795 155.832373 
L 261.704176 154.925572 
L 265.807557 153.842081 
L 269.910938 152.55892 
L 274.014318 151.053426 
L 278.117699 149.304273 
L 282.22108 147.292629 
L 286.32446 145.00341 
L 290.427841 142.42654 
L 294.531222 139.558129 
L 298.634602 136.401474 
L 302.737983 132.967772 
L 306.841364 129.276484 
L 310.944744 125.355275 
L 315.048125 121.239537 
L 319.151506 116.971507 
L 323.254886 112.599042 
L 327.358267 108.174153 
L 331.461648 103.751412 
L 335.565028 99.386338 
L 339.668409 95.133881 
L 343.77179 91.047084 
L 347.87517 87.175983 
L 351.978551 83.566779 
L 356.081932 80.261263 
L 360.185313 77.296503 
L 364.288693 74.704729 
L 368.392074 72.513381 
L 372.495455 70.745277 
L 376.598835 69.418848 
L 380.702216 68.548403 
L 384.805597 68.144395 
L 388.908977 68.213659 
L 393.012358 68.75961 
L 397.115739 69.782393 
L 401.219119 71.278973 
L 405.3225 73.243179 
L 409.425881 75.665703 
L 413.529261 78.534064 
L 417.632642 81.83255 
L 421.736023 85.542154 
L 425.839403 89.640526 
L 429.942784 94.101944 
L 434.046165 98.897337 
L 438.149545 103.994371 
L 442.252926 109.357607 
L 446.356307 114.948755 
L 450.459688 120.727019 
L 454.563068 126.649545 
L 458.666449 132.671968 
L 462.76983 138.749048 
L 466.87321 144.835375 
L 470.976591 150.886132 
L 475.079972 156.857887 
" clip-path="url(#p9d53506fe6)" style="fill: none; stroke: #e377c2; stroke-width: 1.5; stroke-linecap: square"/>
   </g>
   <g id="line2d_32">
    <path d="M 64.741903 153.87989 
L 68.845284 153.879884 
L 72.948665 153.879876 
L 77.052045 153.879865 
L 81.155426 153.87985 
L 85.258807 153.879832 
L 89.362188 153.879807 
L 93.465568 153.879775 
L 97.568949 153.879733 
L 101.67233 153.879677 
L 105.77571 153.879604 
L 109.879091 153.879509 
L 113.982472 153.879384 
L 118.085852 153.87922 
L 122.189233 153.879005 
L 126.292614 153.878722 
L 130.395994 153.878352 
L 134.499375 153.877867 
L 138.602756 153.87723 
L 142.706136 153.876396 
L 146.809517 153.875303 
L 150.912898 153.873871 
L 155.016278 153.871996 
L 159.119659 153.869543 
L 163.22304 153.866333 
L 167.32642 153.862138 
L 171.429801 153.856657 
L 175.533182 153.849505 
L 179.636563 153.840179 
L 183.739943 153.828033 
L 187.843324 153.812233 
L 191.946705 153.791709 
L 196.050085 153.765091 
L 200.153466 153.730631 
L 204.256847 153.686108 
L 208.360227 153.628719 
L 212.463608 153.554983 
L 216.566989 153.460551 
L 220.670369 153.340025 
L 224.77375 153.186763 
L 228.877131 152.99267 
L 232.980511 152.747965 
L 237.083892 152.440957 
L 241.187273 152.057826 
L 245.290653 151.58245 
L 249.394034 150.996279 
L 253.497415 150.278313 
L 257.600795 149.405191 
L 261.704176 148.351444 
L 265.807557 147.08993 
L 269.910938 145.592481 
L 274.014318 143.83076 
L 278.117699 141.77734 
L 282.22108 139.406965 
L 286.32446 136.697936 
L 290.427841 133.63358 
L 294.531222 130.203678 
L 298.634602 126.40578 
L 302.737983 122.246281 
L 306.841364 117.741188 
L 310.944744 112.91647 
L 315.048125 107.80798 
L 319.151506 102.460906 
L 323.254886 96.928809 
L 327.358267 91.272289 
L 331.461648 85.557385 
L 335.565028 79.853822 
L 339.668409 74.233205 
L 343.77179 68.767282 
L 347.87517 63.526349 
L 351.978551 58.577861 
L 356.081932 53.985296 
L 360.185313 49.807256 
L 364.288693 46.09681 
L 368.392074 42.901055 
L 372.495455 40.26083 
L 376.598835 38.210581 
L 380.702216 36.778302 
L 384.805597 35.985542 
L 388.908977 35.847443 
L 393.012358 36.37278 
L 397.115739 37.564011 
L 401.219119 39.417317 
L 405.3225 41.922641 
L 409.425881 45.063747 
L 413.529261 48.818287 
L 417.632642 53.15792 
L 421.736023 58.048486 
L 425.839403 63.450258 
L 429.942784 69.318283 
L 434.046165 75.602835 
L 438.149545 82.249978 
L 442.252926 89.202244 
L 446.356307 96.399429 
L 450.459688 103.779478 
L 454.563068 111.27946 
L 458.666449 118.836588 
L 462.76983 126.389271 
L 466.87321 133.878152 
L 470.976591 141.247096 
L 475.079972 148.444109 
" clip-path="url(#p9d53506fe6)" style="fill: none; stroke: #7f7f7f; stroke-width: 1.5; stroke-linecap: square"/>
   </g>
   <g id="patch_3">
    <path d="M 44.225 246.84375 
L 44.225 25.8 
" style="fill: none; stroke: #000000; stroke-width: 0.8; stroke-linejoin: miter; stroke-linecap: square"/>
   </g>
   <g id="patch_4">
    <path d="M 495.596875 246.84375 
L 495.596875 25.8 
" style="fill: none; stroke: #000000; stroke-width: 0.8; stroke-linejoin: miter; stroke-linecap: square"/>
   </g>
   <g id="patch_5">
    <path d="M 44.225 246.84375 
L 495.596875 246.84375 
" style="fill: none; stroke: #000000; stroke-width: 0.8; stroke-linejoin: miter; stroke-linecap: square"/>
   </g>
   <g id="patch_6">
    <path d="M 44.225 25.8 
L 495.596875 25.8 
" style="fill: none; stroke: #000000; stroke-width: 0.8; stroke-linejoin: miter; stroke-linecap: square"/>
   </g>
   <g id="text_15">
    <!-- NMOS_VTH, $V_{SB}=0.00$, $V_{DS}=0.50$ -->
    <g transform="translate(167.310938 19.8) scale(0.12 -0.12)">
     <defs>
      <path id="DejaVuSans-4e" d="M 628 4666 
L 1478 4666 
L 3547 763 
L 3547 4666 
L 4159 4666 
L 4159 0 
L 3309 0 
L 1241 3903 
L 1241 0 
L 628 0 
L 628 4666 
z
" transform="scale(0.015625)"/>
      <path id="DejaVuSans-4d" d="M 628 4666 
L 1569 4666 
L 2759 1491 
L 3956 4666 
L 4897 4666 
L 4897 0 
L 4281 0 
L 4281 4097 
L 3078 897 
L 2444 897 
L 1241 4097 
L 1241 0 
L 628 0 
L 628 4666 
z
" transform="scale(0.015625)"/>
      <path id="DejaVuSans-4f" d="M 2522 4238 
Q 1834 4238 1429 3725 
Q 1025 3213 1025 2328 
Q 1025 1447 1429 934 
Q 1834 422 2522 422 
Q 3209 422 3611 934 
Q 4013 1447 4013 2328 
Q 4013 3213 3611 3725 
Q 3209 4238 2522 4238 
z
M 2522 4750 
Q 3503 4750 4090 4092 
Q 4678 3434 4678 2328 
Q 4678 1225 4090 567 
Q 3503 -91 2522 -91 
Q 1538 -91 948 565 
Q 359 1222 359 2328 
Q 359 3434 948 4092 
Q 1538 4750 2522 4750 
z
" transform="scale(0.015625)"/>
      <path id="DejaVuSans-53" d="M 3425 4513 
L 3425 3897 
Q 3066 4069 2747 4153 
Q 2428 4238 2131 4238 
Q 1616 4238 1336 4038 
Q 1056 3838 1056 3469 
Q 1056 3159 1242 3001 
Q 1428 2844 1947 2747 
L 2328 2669 
Q 3034 2534 3370 2195 
Q 3706 1856 3706 1288 
Q 3706 609 3251 259 
Q 2797 -91 1919 -91 
Q 1588 -91 1214 -16 
Q 841 59 441 206 
L 441 856 
Q 825 641 1194 531 
Q 1563 422 1919 422 
Q 2459 422 2753 634 
Q 3047 847 3047 1241 
Q 3047 1584 2836 1778 
Q 2625 1972 2144 2069 
L 1759 2144 
Q 1053 2284 737 2584 
Q 422 2884 422 3419 
Q 422 4038 858 4394 
Q 1294 4750 2059 4750 
Q 2388 4750 2728 4690 
Q 3069 4631 3425 4513 
z
" transform="scale(0.015625)"/>
      <path id="DejaVuSans-5f" d="M 3263 -1063 
L 3263 -1509 
L -63 -1509 
L -63 -1063 
L 3263 -1063 
z
" transform="scale(0.015625)"/>
      <path id="DejaVuSans-56" d="M 1831 0 
L 50 4666 
L 709 4666 
L 2188 738 
L 3669 4666 
L 4325 4666 
L 2547 0 
L 1831 0 
z
" transform="scale(0.015625)"/>
      <path id="DejaVuSans-54" d="M -19 4666 
L 3928 4666 
L 3928 4134 
L 2272 4134 
L 2272 0 
L 1638 0 
L 1638 4134 
L -19 4134 
L -19 4666 
z
" transform="scale(0.015625)"/>
      <path id="DejaVuSans-48" d="M 628 4666 
L 1259 4666 
L 1259 2753 
L 3553 2753 
L 3553 4666 
L 4184 4666 
L 4184 0 
L 3553 0 
L 3553 2222 
L 1259 2222 
L 1259 0 
L 628 0 
L 628 4666 
z
" transform="scale(0.015625)"/>
      <path id="DejaVuSans-2c" d="M 750 794 
L 1409 794 
L 1409 256 
L 897 -744 
L 494 -744 
L 750 256 
L 750 794 
z
" transform="scale(0.015625)"/>
      <path id="DejaVuSans-20" transform="scale(0.015625)"/>
      <path id="DejaVuSans-Oblique-42" d="M 1081 4666 
L 2694 4666 
Q 3350 4666 3675 4422 
Q 4000 4178 4000 3688 
Q 4000 3238 3720 2911 
Q 3441 2584 2988 2516 
Q 3375 2428 3569 2181 
Q 3763 1934 3763 1522 
Q 3763 819 3242 409 
Q 2722 0 1819 0 
L 172 0 
L 1081 4666 
z
M 1234 2228 
L 903 519 
L 1919 519 
Q 2491 519 2800 781 
Q 3109 1044 3109 1522 
Q 3109 1891 2904 2059 
Q 2700 2228 2247 2228 
L 1234 2228 
z
M 1606 4147 
L 1331 2741 
L 2272 2741 
Q 2775 2741 3058 2959 
Q 3341 3178 3341 3566 
Q 3341 3869 3150 4008 
Q 2959 4147 2541 4147 
L 1606 4147 
z
" transform="scale(0.015625)"/>
      <path id="DejaVuSans-3d" d="M 678 2906 
L 4684 2906 
L 4684 2381 
L 678 2381 
L 678 2906 
z
M 678 1631 
L 4684 1631 
L 4684 1100 
L 678 1100 
L 678 1631 
z
" transform="scale(0.015625)"/>
     </defs>
     <use xlink:href="#DejaVuSans-4e" transform="translate(0 0.78125)"/>
     <use xlink:href="#DejaVuSans-4d" transform="translate(74.804688 0.78125)"/>
     <use xlink:href="#DejaVuSans-4f" transform="translate(161.083984 0.78125)"/>
     <use xlink:href="#DejaVuSans-53" transform="translate(239.794922 0.78125)"/>
     <use xlink:href="#DejaVuSans-5f" transform="translate(303.271484 0.78125)"/>
     <use xlink:href="#DejaVuSans-56" transform="translate(353.271484 0.78125)"/>
     <use xlink:href="#DejaVuSans-54" transform="translate(421.679688 0.78125)"/>
     <use xlink:href="#DejaVuSans-48" transform="translate(482.763672 0.78125)"/>
     <use xlink:href="#DejaVuSans-2c" transform="translate(557.958984 0.78125)"/>
     <use xlink:href="#DejaVuSans-20" transform="translate(589.746094 0.78125)"/>
     <use xlink:href="#DejaVuSans-Oblique-56" transform="translate(621.533203 0.78125)"/>
     <use xlink:href="#DejaVuSans-Oblique-53" transform="translate(689.941406 -15.625) scale(0.7)"/>
     <use xlink:href="#DejaVuSans-Oblique-42" transform="translate(734.375 -15.625) scale(0.7)"/>
     <use xlink:href="#DejaVuSans-3d" transform="translate(804.614258 0.78125)"/>
     <use xlink:href="#DejaVuSans-30" transform="translate(907.885742 0.78125)"/>
     <use xlink:href="#DejaVuSans-2e" transform="translate(971.508789 0.78125)"/>
     <use xlink:href="#DejaVuSans-30" transform="translate(1003.295898 0.78125)"/>
     <use xlink:href="#DejaVuSans-30" transform="translate(1066.918945 0.78125)"/>
     <use xlink:href="#DejaVuSans-2c" transform="translate(1130.541992 0.78125)"/>
     <use xlink:href="#DejaVuSans-20" transform="translate(1162.329102 0.78125)"/>
     <use xlink:href="#DejaVuSans-Oblique-56" transform="translate(1194.116211 0.78125)"/>
     <use xlink:href="#DejaVuSans-Oblique-44" transform="translate(1262.524414 -15.625) scale(0.7)"/>
     <use xlink:href="#DejaVuSans-Oblique-53" transform="translate(1316.425781 -15.625) scale(0.7)"/>
     <use xlink:href="#DejaVuSans-3d" transform="translate(1383.076172 0.78125)"/>
     <use xlink:href="#DejaVuSans-30" transform="translate(1486.347656 0.78125)"/>
     <use xlink:href="#DejaVuSans-2e" transform="translate(1549.970703 0.78125)"/>
     <use xlink:href="#DejaVuSans-35" transform="translate(1581.757812 0.78125)"/>
     <use xlink:href="#DejaVuSans-30" transform="translate(1645.380859 0.78125)"/>
    </g>
   </g>
   <g id="legend_1">
    <g id="patch_7">
     <path d="M 502.596875 196.534375 
L 563.2 196.534375 
Q 565.2 196.534375 565.2 194.534375 
L 565.2 78.109375 
Q 565.2 76.109375 563.2 76.109375 
L 502.596875 76.109375 
Q 500.596875 76.109375 500.596875 78.109375 
L 500.596875 194.534375 
Q 500.596875 196.534375 502.596875 196.534375 
z
" style="fill: #ffffff; opacity: 0.8; stroke: #cccccc; stroke-linejoin: miter"/>
    </g>
    <g id="line2d_33">
     <path d="M 504.596875 84.207812 
L 514.596875 84.207812 
L 524.596875 84.207812 
" style="fill: none; stroke: #1f77b4; stroke-width: 1.5; stroke-linecap: square"/>
    </g>
    <g id="text_16">
     <!-- 50 n -->
     <g transform="translate(532.596875 87.707812) scale(0.1 -0.1)">
      <defs>
       <path id="DejaVuSans-6e" d="M 3513 2113 
L 3513 0 
L 2938 0 
L 2938 2094 
Q 2938 2591 2744 2837 
Q 2550 3084 2163 3084 
Q 1697 3084 1428 2787 
Q 1159 2491 1159 1978 
L 1159 0 
L 581 0 
L 581 3500 
L 1159 3500 
L 1159 2956 
Q 1366 3272 1645 3428 
Q 1925 3584 2291 3584 
Q 2894 3584 3203 3211 
Q 3513 2838 3513 2113 
z
" transform="scale(0.015625)"/>
      </defs>
      <use xlink:href="#DejaVuSans-35"/>
      <use xlink:href="#DejaVuSans-30" x="63.623047"/>
      <use xlink:href="#DejaVuSans-20" x="127.246094"/>
      <use xlink:href="#DejaVuSans-6e" x="159.033203"/>
     </g>
    </g>
    <g id="line2d_34">
     <path d="M 504.596875 98.885938 
L 514.596875 98.885938 
L 524.596875 98.885938 
" style="fill: none; stroke: #ff7f0e; stroke-width: 1.5; stroke-linecap: square"/>
    </g>
    <g id="text_17">
     <!-- 100 n -->
     <g transform="translate(532.596875 102.385938) scale(0.1 -0.1)">
      <use xlink:href="#DejaVuSans-31"/>
      <use xlink:href="#DejaVuSans-30" x="63.623047"/>
      <use xlink:href="#DejaVuSans-30" x="127.246094"/>
      <use xlink:href="#DejaVuSans-20" x="190.869141"/>
      <use xlink:href="#DejaVuSans-6e" x="222.65625"/>
     </g>
    </g>
    <g id="line2d_35">
     <path d="M 504.596875 113.564062 
L 514.596875 113.564062 
L 524.596875 113.564062 
" style="fill: none; stroke: #2ca02c; stroke-width: 1.5; stroke-linecap: square"/>
    </g>
    <g id="text_18">
     <!-- 200 n -->
     <g transform="translate(532.596875 117.064062) scale(0.1 -0.1)">
      <use xlink:href="#DejaVuSans-32"/>
      <use xlink:href="#DejaVuSans-30" x="63.623047"/>
      <use xlink:href="#DejaVuSans-30" x="127.246094"/>
      <use xlink:href="#DejaVuSans-20" x="190.869141"/>
      <use xlink:href="#DejaVuSans-6e" x="222.65625"/>
     </g>
    </g>
    <g id="line2d_36">
     <path d="M 504.596875 128.242188 
L 514.596875 128.242188 
L 524.596875 128.242188 
" style="fill: none; stroke: #d62728; stroke-width: 1.5; stroke-linecap: square"/>
    </g>
    <g id="text_19">
     <!-- 400 n -->
     <g transform="translate(532.596875 131.742188) scale(0.1 -0.1)">
      <use xlink:href="#DejaVuSans-34"/>
      <use xlink:href="#DejaVuSans-30" x="63.623047"/>
      <use xlink:href="#DejaVuSans-30" x="127.246094"/>
      <use xlink:href="#DejaVuSans-20" x="190.869141"/>
      <use xlink:href="#DejaVuSans-6e" x="222.65625"/>
     </g>
    </g>
    <g id="line2d_37">
     <path d="M 504.596875 142.920312 
L 514.596875 142.920312 
L 524.596875 142.920312 
" style="fill: none; stroke: #9467bd; stroke-width: 1.5; stroke-linecap: square"/>
    </g>
    <g id="text_20">
     <!-- 800 n -->
     <g transform="translate(532.596875 146.420312) scale(0.1 -0.1)">
      <use xlink:href="#DejaVuSans-38"/>
      <use xlink:href="#DejaVuSans-30" x="63.623047"/>
      <use xlink:href="#DejaVuSans-30" x="127.246094"/>
      <use xlink:href="#DejaVuSans-20" x="190.869141"/>
      <use xlink:href="#DejaVuSans-6e" x="222.65625"/>
     </g>
    </g>
    <g id="line2d_38">
     <path d="M 504.596875 157.598437 
L 514.596875 157.598437 
L 524.596875 157.598437 
" style="fill: none; stroke: #8c564b; stroke-width: 1.5; stroke-linecap: square"/>
    </g>
    <g id="text_21">
     <!-- 1.6  -->
     <g transform="translate(532.596875 161.098437) scale(0.1 -0.1)">
      <defs>
       <path id="DejaVuSans-b5" d="M 544 -1331 
L 544 3500 
L 1119 3500 
L 1119 1325 
Q 1119 872 1334 640 
Q 1550 409 1972 409 
Q 2434 409 2667 671 
Q 2900 934 2900 1459 
L 2900 3500 
L 3475 3500 
L 3475 806 
Q 3475 619 3529 530 
Q 3584 441 3700 441 
Q 3728 441 3778 458 
Q 3828 475 3916 513 
L 3916 50 
Q 3788 -22 3673 -56 
Q 3559 -91 3450 -91 
Q 3234 -91 3106 31 
Q 2978 153 2931 403 
Q 2775 156 2548 32 
Q 2322 -91 2016 -91 
Q 1697 -91 1473 31 
Q 1250 153 1119 397 
L 1119 -1331 
L 544 -1331 
z
" transform="scale(0.015625)"/>
      </defs>
      <use xlink:href="#DejaVuSans-31"/>
      <use xlink:href="#DejaVuSans-2e" x="63.623047"/>
      <use xlink:href="#DejaVuSans-36" x="95.410156"/>
      <use xlink:href="#DejaVuSans-20" x="159.033203"/>
      <use xlink:href="#DejaVuSans-b5" x="190.820312"/>
     </g>
    </g>
    <g id="line2d_39">
     <path d="M 504.596875 172.276562 
L 514.596875 172.276562 
L 524.596875 172.276562 
" style="fill: none; stroke: #e377c2; stroke-width: 1.5; stroke-linecap: square"/>
    </g>
    <g id="text_22">
     <!-- 3.2  -->
     <g transform="translate(532.596875 175.776562) scale(0.1 -0.1)">
      <use xlink:href="#DejaVuSans-33"/>
      <use xlink:href="#DejaVuSans-2e" x="63.623047"/>
      <use xlink:href="#DejaVuSans-32" x="95.410156"/>
      <use xlink:href="#DejaVuSans-20" x="159.033203"/>
      <use xlink:href="#DejaVuSans-b5" x="190.820312"/>
     </g>
    </g>
    <g id="line2d_40">
     <path d="M 504.596875 186.954687 
L 514.596875 186.954687 
L 524.596875 186.954687 
" style="fill: none; stroke: #7f7f7f; stroke-width: 1.5; stroke-linecap: square"/>
    </g>
    <g id="text_23">
     <!-- 6.4  -->
     <g transform="translate(532.596875 190.454687) scale(0.1 -0.1)">
      <use xlink:href="#DejaVuSans-36"/>
      <use xlink:href="#DejaVuSans-2e" x="63.623047"/>
      <use xlink:href="#DejaVuSans-34" x="95.410156"/>
      <use xlink:href="#DejaVuSans-20" x="159.033203"/>
      <use xlink:href="#DejaVuSans-b5" x="190.820312"/>
     </g>
    </g>
   </g>
  </g>
 </g>
 <defs>
  <clipPath id="p9d53506fe6">
   <rect x="44.225" y="25.8" width="451.371875" height="221.04375"/>
  </clipPath>
 </defs>
</svg>
