<?xml version="1.0" encoding="utf-8" standalone="no"?>
<!DOCTYPE svg PUBLIC "-//W3C//DTD SVG 1.1//EN"
  "http://www.w3.org/Graphics/SVG/1.1/DTD/svg11.dtd">
<svg xmlns:xlink="http://www.w3.org/1999/xlink" width="552.96pt" height="264.96pt" viewBox="0 0 552.96 264.96" xmlns="http://www.w3.org/2000/svg" version="1.1">
 <metadata>
  <rdf:RDF xmlns:dc="http://purl.org/dc/elements/1.1/" xmlns:cc="http://creativecommons.org/ns#" xmlns:rdf="http://www.w3.org/1999/02/22-rdf-syntax-ns#">
   <cc:Work>
    <dc:type rdf:resource="http://purl.org/dc/dcmitype/StillImage"/>
    <dc:date>2023-11-02T13:50:46.360651</dc:date>
    <dc:format>image/svg+xml</dc:format>
    <dc:creator>
     <cc:Agent>
      <dc:title>Matplotlib v3.8.0, https://matplotlib.org/</dc:title>
     </cc:Agent>
    </dc:creator>
   </cc:Work>
  </rdf:RDF>
 </metadata>
 <defs>
  <style type="text/css">*{stroke-linejoin: round; stroke-linecap: butt}</style>
 </defs>
 <g id="figure_1">
  <g id="patch_1">
   <path d="M 0 264.96 
L 552.96 264.96 
L 552.96 0 
L 0 0 
L 0 264.96 
z
" style="fill: none"/>
  </g>
  <g id="axes_1">
   <g id="patch_2">
    <path d="M 38.704673 227.514399 
L 459.916163 227.514399 
L 459.916163 21.223055 
L 38.704673 21.223055 
L 38.704673 227.514399 
z
" style="fill: none"/>
   </g>
   <g id="matplotlib.axis_1">
    <g id="xtick_1">
     <g id="line2d_1">
      <path d="M 57.85065 227.514399 
L 57.85065 21.223055 
" clip-path="url(#p5d401756d5)" style="fill: none; stroke-dasharray: 1.85,0.8; stroke-dashoffset: 0; stroke: #e6e6e6; stroke-width: 0.5"/>
     </g>
     <g id="line2d_2">
      <defs>
       <path id="me0b9806d31" d="M 0 0 
L 0 -3 
" style="stroke: #000000; stroke-width: 0.5"/>
      </defs>
      <g>
       <use xlink:href="#me0b9806d31" x="57.85065" y="227.514399" style="stroke: #000000; stroke-width: 0.5"/>
      </g>
     </g>
     <g id="line2d_3">
      <defs>
       <path id="mfb4fc9cb7b" d="M 0 0 
L 0 3 
" style="stroke: #000000; stroke-width: 0.5"/>
      </defs>
      <g>
       <use xlink:href="#mfb4fc9cb7b" x="57.85065" y="21.223055" style="stroke: #000000; stroke-width: 0.5"/>
      </g>
     </g>
     <g id="text_1">
      <!-- $\mathdefault{0.0}$ -->
      <g transform="translate(49.125359 240.700275) scale(0.14 -0.14)">
       <defs>
        <path id="CMR17-30" d="M 2688 2025 
C 2688 2416 2682 3080 2413 3591 
C 2176 4039 1798 4198 1466 4198 
C 1158 4198 768 4058 525 3597 
C 269 3118 243 2524 243 2025 
C 243 1661 250 1106 448 619 
C 723 -39 1216 -128 1466 -128 
C 1760 -128 2208 -7 2470 600 
C 2662 1042 2688 1559 2688 2025 
z
M 1466 -26 
C 1056 -26 813 325 723 812 
C 653 1188 653 1738 653 2096 
C 653 2588 653 2997 736 3387 
C 858 3929 1216 4096 1466 4096 
C 1728 4096 2067 3923 2189 3400 
C 2272 3036 2278 2607 2278 2096 
C 2278 1680 2278 1169 2202 792 
C 2067 95 1690 -26 1466 -26 
z
" transform="scale(0.015625)"/>
        <path id="CMMI12-3a" d="M 1178 307 
C 1178 492 1024 619 870 619 
C 685 619 557 466 557 313 
C 557 128 710 0 864 0 
C 1050 0 1178 153 1178 307 
z
" transform="scale(0.015625)"/>
       </defs>
       <use xlink:href="#CMR17-30" transform="scale(0.996264)"/>
       <use xlink:href="#CMMI12-3a" transform="translate(45.690477 0) scale(0.996264)"/>
       <use xlink:href="#CMR17-30" transform="translate(72.787654 0) scale(0.996264)"/>
      </g>
     </g>
    </g>
    <g id="xtick_2">
     <g id="line2d_4">
      <path d="M 134.434557 227.514399 
L 134.434557 21.223055 
" clip-path="url(#p5d401756d5)" style="fill: none; stroke-dasharray: 1.85,0.8; stroke-dashoffset: 0; stroke: #e6e6e6; stroke-width: 0.5"/>
     </g>
     <g id="line2d_5">
      <g>
       <use xlink:href="#me0b9806d31" x="134.434557" y="227.514399" style="stroke: #000000; stroke-width: 0.5"/>
      </g>
     </g>
     <g id="line2d_6">
      <g>
       <use xlink:href="#mfb4fc9cb7b" x="134.434557" y="21.223055" style="stroke: #000000; stroke-width: 0.5"/>
      </g>
     </g>
     <g id="text_2">
      <!-- $\mathdefault{0.2}$ -->
      <g transform="translate(125.709266 240.700275) scale(0.14 -0.14)">
       <defs>
        <path id="CMR17-32" d="M 2669 989 
L 2554 989 
C 2490 536 2438 459 2413 420 
C 2381 369 1920 369 1830 369 
L 602 369 
C 832 619 1280 1072 1824 1597 
C 2214 1967 2669 2402 2669 3035 
C 2669 3790 2067 4224 1395 4224 
C 691 4224 262 3604 262 3030 
C 262 2780 448 2748 525 2748 
C 589 2748 781 2787 781 3010 
C 781 3207 614 3264 525 3264 
C 486 3264 448 3258 422 3245 
C 544 3790 915 4058 1306 4058 
C 1862 4058 2227 3617 2227 3035 
C 2227 2479 1901 2000 1536 1584 
L 262 146 
L 262 0 
L 2515 0 
L 2669 989 
z
" transform="scale(0.015625)"/>
       </defs>
       <use xlink:href="#CMR17-30" transform="scale(0.996264)"/>
       <use xlink:href="#CMMI12-3a" transform="translate(45.690477 0) scale(0.996264)"/>
       <use xlink:href="#CMR17-32" transform="translate(72.787654 0) scale(0.996264)"/>
      </g>
     </g>
    </g>
    <g id="xtick_3">
     <g id="line2d_7">
      <path d="M 211.018465 227.514399 
L 211.018465 21.223055 
" clip-path="url(#p5d401756d5)" style="fill: none; stroke-dasharray: 1.85,0.8; stroke-dashoffset: 0; stroke: #e6e6e6; stroke-width: 0.5"/>
     </g>
     <g id="line2d_8">
      <g>
       <use xlink:href="#me0b9806d31" x="211.018465" y="227.514399" style="stroke: #000000; stroke-width: 0.5"/>
      </g>
     </g>
     <g id="line2d_9">
      <g>
       <use xlink:href="#mfb4fc9cb7b" x="211.018465" y="21.223055" style="stroke: #000000; stroke-width: 0.5"/>
      </g>
     </g>
     <g id="text_3">
      <!-- $\mathdefault{0.4}$ -->
      <g transform="translate(202.293174 240.700275) scale(0.14 -0.14)">
       <defs>
        <path id="CMR17-34" d="M 2150 4122 
C 2150 4256 2144 4256 2029 4256 
L 128 1254 
L 128 1088 
L 1779 1088 
L 1779 457 
C 1779 224 1766 160 1318 160 
L 1197 160 
L 1197 0 
C 1402 0 1747 0 1965 0 
C 2182 0 2528 0 2733 0 
L 2733 160 
L 2611 160 
C 2163 160 2150 224 2150 457 
L 2150 1088 
L 2803 1088 
L 2803 1254 
L 2150 1254 
L 2150 4122 
z
M 1798 3703 
L 1798 1254 
L 256 1254 
L 1798 3703 
z
" transform="scale(0.015625)"/>
       </defs>
       <use xlink:href="#CMR17-30" transform="scale(0.996264)"/>
       <use xlink:href="#CMMI12-3a" transform="translate(45.690477 0) scale(0.996264)"/>
       <use xlink:href="#CMR17-34" transform="translate(72.787654 0) scale(0.996264)"/>
      </g>
     </g>
    </g>
    <g id="xtick_4">
     <g id="line2d_10">
      <path d="M 287.602372 227.514399 
L 287.602372 21.223055 
" clip-path="url(#p5d401756d5)" style="fill: none; stroke-dasharray: 1.85,0.8; stroke-dashoffset: 0; stroke: #e6e6e6; stroke-width: 0.5"/>
     </g>
     <g id="line2d_11">
      <g>
       <use xlink:href="#me0b9806d31" x="287.602372" y="227.514399" style="stroke: #000000; stroke-width: 0.5"/>
      </g>
     </g>
     <g id="line2d_12">
      <g>
       <use xlink:href="#mfb4fc9cb7b" x="287.602372" y="21.223055" style="stroke: #000000; stroke-width: 0.5"/>
      </g>
     </g>
     <g id="text_4">
      <!-- $\mathdefault{0.6}$ -->
      <g transform="translate(278.877081 240.700275) scale(0.14 -0.14)">
       <defs>
        <path id="CMR17-36" d="M 678 2176 
C 678 3690 1395 4032 1811 4032 
C 1946 4032 2272 4009 2400 3776 
C 2298 3776 2106 3776 2106 3553 
C 2106 3381 2246 3323 2336 3323 
C 2394 3323 2566 3348 2566 3560 
C 2566 3954 2246 4179 1805 4179 
C 1043 4179 243 3390 243 1984 
C 243 253 966 -128 1478 -128 
C 2099 -128 2688 427 2688 1283 
C 2688 2081 2170 2662 1517 2662 
C 1126 2662 838 2407 678 1960 
L 678 2176 
z
M 1478 25 
C 691 25 691 1200 691 1436 
C 691 1896 909 2560 1504 2560 
C 1613 2560 1926 2560 2138 2120 
C 2253 1870 2253 1609 2253 1289 
C 2253 944 2253 690 2118 434 
C 1978 171 1773 25 1478 25 
z
" transform="scale(0.015625)"/>
       </defs>
       <use xlink:href="#CMR17-30" transform="scale(0.996264)"/>
       <use xlink:href="#CMMI12-3a" transform="translate(45.690477 0) scale(0.996264)"/>
       <use xlink:href="#CMR17-36" transform="translate(72.787654 0) scale(0.996264)"/>
      </g>
     </g>
    </g>
    <g id="xtick_5">
     <g id="line2d_13">
      <path d="M 364.186279 227.514399 
L 364.186279 21.223055 
" clip-path="url(#p5d401756d5)" style="fill: none; stroke-dasharray: 1.85,0.8; stroke-dashoffset: 0; stroke: #e6e6e6; stroke-width: 0.5"/>
     </g>
     <g id="line2d_14">
      <g>
       <use xlink:href="#me0b9806d31" x="364.186279" y="227.514399" style="stroke: #000000; stroke-width: 0.5"/>
      </g>
     </g>
     <g id="line2d_15">
      <g>
       <use xlink:href="#mfb4fc9cb7b" x="364.186279" y="21.223055" style="stroke: #000000; stroke-width: 0.5"/>
      </g>
     </g>
     <g id="text_5">
      <!-- $\mathdefault{0.8}$ -->
      <g transform="translate(355.460988 240.700275) scale(0.14 -0.14)">
       <defs>
        <path id="CMR17-38" d="M 1741 2264 
C 2144 2467 2554 2773 2554 3263 
C 2554 3841 1990 4179 1472 4179 
C 890 4179 378 3759 378 3180 
C 378 3021 416 2747 666 2505 
C 730 2442 998 2251 1171 2130 
C 883 1983 211 1634 211 934 
C 211 279 838 -128 1459 -128 
C 2144 -128 2720 362 2720 1010 
C 2720 1590 2330 1857 2074 2029 
L 1741 2264 
z
M 902 2822 
C 851 2854 595 3051 595 3351 
C 595 3739 998 4032 1459 4032 
C 1965 4032 2336 3676 2336 3262 
C 2336 2669 1670 2331 1638 2331 
C 1632 2331 1626 2331 1574 2370 
L 902 2822 
z
M 2080 1519 
C 2176 1449 2483 1240 2483 851 
C 2483 381 2010 25 1472 25 
C 890 25 448 438 448 940 
C 448 1443 838 1862 1280 2060 
L 2080 1519 
z
" transform="scale(0.015625)"/>
       </defs>
       <use xlink:href="#CMR17-30" transform="scale(0.996264)"/>
       <use xlink:href="#CMMI12-3a" transform="translate(45.690477 0) scale(0.996264)"/>
       <use xlink:href="#CMR17-38" transform="translate(72.787654 0) scale(0.996264)"/>
      </g>
     </g>
    </g>
    <g id="xtick_6">
     <g id="line2d_16">
      <path d="M 440.770186 227.514399 
L 440.770186 21.223055 
" clip-path="url(#p5d401756d5)" style="fill: none; stroke-dasharray: 1.85,0.8; stroke-dashoffset: 0; stroke: #e6e6e6; stroke-width: 0.5"/>
     </g>
     <g id="line2d_17">
      <g>
       <use xlink:href="#me0b9806d31" x="440.770186" y="227.514399" style="stroke: #000000; stroke-width: 0.5"/>
      </g>
     </g>
     <g id="line2d_18">
      <g>
       <use xlink:href="#mfb4fc9cb7b" x="440.770186" y="21.223055" style="stroke: #000000; stroke-width: 0.5"/>
      </g>
     </g>
     <g id="text_6">
      <!-- $\mathdefault{1.0}$ -->
      <g transform="translate(432.044895 240.700275) scale(0.14 -0.14)">
       <defs>
        <path id="CMR17-31" d="M 1702 4058 
C 1702 4192 1696 4192 1606 4192 
C 1357 3916 979 3827 621 3827 
C 602 3827 570 3827 563 3808 
C 557 3795 557 3782 557 3648 
C 755 3648 1088 3686 1344 3839 
L 1344 461 
C 1344 236 1331 160 781 160 
L 589 160 
L 589 0 
C 896 0 1216 0 1523 0 
C 1830 0 2150 0 2458 0 
L 2458 160 
L 2266 160 
C 1715 160 1702 230 1702 458 
L 1702 4058 
z
" transform="scale(0.015625)"/>
       </defs>
       <use xlink:href="#CMR17-31" transform="scale(0.996264)"/>
       <use xlink:href="#CMMI12-3a" transform="translate(45.690477 0) scale(0.996264)"/>
       <use xlink:href="#CMR17-30" transform="translate(72.787654 0) scale(0.996264)"/>
      </g>
     </g>
    </g>
    <g id="xtick_7">
     <g id="line2d_19">
      <path d="M 38.704673 227.514399 
L 38.704673 21.223055 
" clip-path="url(#p5d401756d5)" style="fill: none; stroke-dasharray: 1.85,0.8; stroke-dashoffset: 0; stroke: #e6e6e6; stroke-width: 0.5"/>
     </g>
     <g id="line2d_20">
      <defs>
       <path id="m6d491a90e6" d="M 0 0 
L 0 -1.5 
" style="stroke: #000000; stroke-width: 0.5"/>
      </defs>
      <g>
       <use xlink:href="#m6d491a90e6" x="38.704673" y="227.514399" style="stroke: #000000; stroke-width: 0.5"/>
      </g>
     </g>
     <g id="line2d_21">
      <defs>
       <path id="m5c29d4643d" d="M 0 0 
L 0 1.5 
" style="stroke: #000000; stroke-width: 0.5"/>
      </defs>
      <g>
       <use xlink:href="#m5c29d4643d" x="38.704673" y="21.223055" style="stroke: #000000; stroke-width: 0.5"/>
      </g>
     </g>
    </g>
    <g id="xtick_8">
     <g id="line2d_22">
      <path d="M 76.996627 227.514399 
L 76.996627 21.223055 
" clip-path="url(#p5d401756d5)" style="fill: none; stroke-dasharray: 1.85,0.8; stroke-dashoffset: 0; stroke: #e6e6e6; stroke-width: 0.5"/>
     </g>
     <g id="line2d_23">
      <g>
       <use xlink:href="#m6d491a90e6" x="76.996627" y="227.514399" style="stroke: #000000; stroke-width: 0.5"/>
      </g>
     </g>
     <g id="line2d_24">
      <g>
       <use xlink:href="#m5c29d4643d" x="76.996627" y="21.223055" style="stroke: #000000; stroke-width: 0.5"/>
      </g>
     </g>
    </g>
    <g id="xtick_9">
     <g id="line2d_25">
      <path d="M 96.142604 227.514399 
L 96.142604 21.223055 
" clip-path="url(#p5d401756d5)" style="fill: none; stroke-dasharray: 1.85,0.8; stroke-dashoffset: 0; stroke: #e6e6e6; stroke-width: 0.5"/>
     </g>
     <g id="line2d_26">
      <g>
       <use xlink:href="#m6d491a90e6" x="96.142604" y="227.514399" style="stroke: #000000; stroke-width: 0.5"/>
      </g>
     </g>
     <g id="line2d_27">
      <g>
       <use xlink:href="#m5c29d4643d" x="96.142604" y="21.223055" style="stroke: #000000; stroke-width: 0.5"/>
      </g>
     </g>
    </g>
    <g id="xtick_10">
     <g id="line2d_28">
      <path d="M 115.288581 227.514399 
L 115.288581 21.223055 
" clip-path="url(#p5d401756d5)" style="fill: none; stroke-dasharray: 1.85,0.8; stroke-dashoffset: 0; stroke: #e6e6e6; stroke-width: 0.5"/>
     </g>
     <g id="line2d_29">
      <g>
       <use xlink:href="#m6d491a90e6" x="115.288581" y="227.514399" style="stroke: #000000; stroke-width: 0.5"/>
      </g>
     </g>
     <g id="line2d_30">
      <g>
       <use xlink:href="#m5c29d4643d" x="115.288581" y="21.223055" style="stroke: #000000; stroke-width: 0.5"/>
      </g>
     </g>
    </g>
    <g id="xtick_11">
     <g id="line2d_31">
      <path d="M 153.580534 227.514399 
L 153.580534 21.223055 
" clip-path="url(#p5d401756d5)" style="fill: none; stroke-dasharray: 1.85,0.8; stroke-dashoffset: 0; stroke: #e6e6e6; stroke-width: 0.5"/>
     </g>
     <g id="line2d_32">
      <g>
       <use xlink:href="#m6d491a90e6" x="153.580534" y="227.514399" style="stroke: #000000; stroke-width: 0.5"/>
      </g>
     </g>
     <g id="line2d_33">
      <g>
       <use xlink:href="#m5c29d4643d" x="153.580534" y="21.223055" style="stroke: #000000; stroke-width: 0.5"/>
      </g>
     </g>
    </g>
    <g id="xtick_12">
     <g id="line2d_34">
      <path d="M 172.726511 227.514399 
L 172.726511 21.223055 
" clip-path="url(#p5d401756d5)" style="fill: none; stroke-dasharray: 1.85,0.8; stroke-dashoffset: 0; stroke: #e6e6e6; stroke-width: 0.5"/>
     </g>
     <g id="line2d_35">
      <g>
       <use xlink:href="#m6d491a90e6" x="172.726511" y="227.514399" style="stroke: #000000; stroke-width: 0.5"/>
      </g>
     </g>
     <g id="line2d_36">
      <g>
       <use xlink:href="#m5c29d4643d" x="172.726511" y="21.223055" style="stroke: #000000; stroke-width: 0.5"/>
      </g>
     </g>
    </g>
    <g id="xtick_13">
     <g id="line2d_37">
      <path d="M 191.872488 227.514399 
L 191.872488 21.223055 
" clip-path="url(#p5d401756d5)" style="fill: none; stroke-dasharray: 1.85,0.8; stroke-dashoffset: 0; stroke: #e6e6e6; stroke-width: 0.5"/>
     </g>
     <g id="line2d_38">
      <g>
       <use xlink:href="#m6d491a90e6" x="191.872488" y="227.514399" style="stroke: #000000; stroke-width: 0.5"/>
      </g>
     </g>
     <g id="line2d_39">
      <g>
       <use xlink:href="#m5c29d4643d" x="191.872488" y="21.223055" style="stroke: #000000; stroke-width: 0.5"/>
      </g>
     </g>
    </g>
    <g id="xtick_14">
     <g id="line2d_40">
      <path d="M 230.164441 227.514399 
L 230.164441 21.223055 
" clip-path="url(#p5d401756d5)" style="fill: none; stroke-dasharray: 1.85,0.8; stroke-dashoffset: 0; stroke: #e6e6e6; stroke-width: 0.5"/>
     </g>
     <g id="line2d_41">
      <g>
       <use xlink:href="#m6d491a90e6" x="230.164441" y="227.514399" style="stroke: #000000; stroke-width: 0.5"/>
      </g>
     </g>
     <g id="line2d_42">
      <g>
       <use xlink:href="#m5c29d4643d" x="230.164441" y="21.223055" style="stroke: #000000; stroke-width: 0.5"/>
      </g>
     </g>
    </g>
    <g id="xtick_15">
     <g id="line2d_43">
      <path d="M 249.310418 227.514399 
L 249.310418 21.223055 
" clip-path="url(#p5d401756d5)" style="fill: none; stroke-dasharray: 1.85,0.8; stroke-dashoffset: 0; stroke: #e6e6e6; stroke-width: 0.5"/>
     </g>
     <g id="line2d_44">
      <g>
       <use xlink:href="#m6d491a90e6" x="249.310418" y="227.514399" style="stroke: #000000; stroke-width: 0.5"/>
      </g>
     </g>
     <g id="line2d_45">
      <g>
       <use xlink:href="#m5c29d4643d" x="249.310418" y="21.223055" style="stroke: #000000; stroke-width: 0.5"/>
      </g>
     </g>
    </g>
    <g id="xtick_16">
     <g id="line2d_46">
      <path d="M 268.456395 227.514399 
L 268.456395 21.223055 
" clip-path="url(#p5d401756d5)" style="fill: none; stroke-dasharray: 1.85,0.8; stroke-dashoffset: 0; stroke: #e6e6e6; stroke-width: 0.5"/>
     </g>
     <g id="line2d_47">
      <g>
       <use xlink:href="#m6d491a90e6" x="268.456395" y="227.514399" style="stroke: #000000; stroke-width: 0.5"/>
      </g>
     </g>
     <g id="line2d_48">
      <g>
       <use xlink:href="#m5c29d4643d" x="268.456395" y="21.223055" style="stroke: #000000; stroke-width: 0.5"/>
      </g>
     </g>
    </g>
    <g id="xtick_17">
     <g id="line2d_49">
      <path d="M 306.748349 227.514399 
L 306.748349 21.223055 
" clip-path="url(#p5d401756d5)" style="fill: none; stroke-dasharray: 1.85,0.8; stroke-dashoffset: 0; stroke: #e6e6e6; stroke-width: 0.5"/>
     </g>
     <g id="line2d_50">
      <g>
       <use xlink:href="#m6d491a90e6" x="306.748349" y="227.514399" style="stroke: #000000; stroke-width: 0.5"/>
      </g>
     </g>
     <g id="line2d_51">
      <g>
       <use xlink:href="#m5c29d4643d" x="306.748349" y="21.223055" style="stroke: #000000; stroke-width: 0.5"/>
      </g>
     </g>
    </g>
    <g id="xtick_18">
     <g id="line2d_52">
      <path d="M 325.894325 227.514399 
L 325.894325 21.223055 
" clip-path="url(#p5d401756d5)" style="fill: none; stroke-dasharray: 1.85,0.8; stroke-dashoffset: 0; stroke: #e6e6e6; stroke-width: 0.5"/>
     </g>
     <g id="line2d_53">
      <g>
       <use xlink:href="#m6d491a90e6" x="325.894325" y="227.514399" style="stroke: #000000; stroke-width: 0.5"/>
      </g>
     </g>
     <g id="line2d_54">
      <g>
       <use xlink:href="#m5c29d4643d" x="325.894325" y="21.223055" style="stroke: #000000; stroke-width: 0.5"/>
      </g>
     </g>
    </g>
    <g id="xtick_19">
     <g id="line2d_55">
      <path d="M 345.040302 227.514399 
L 345.040302 21.223055 
" clip-path="url(#p5d401756d5)" style="fill: none; stroke-dasharray: 1.85,0.8; stroke-dashoffset: 0; stroke: #e6e6e6; stroke-width: 0.5"/>
     </g>
     <g id="line2d_56">
      <g>
       <use xlink:href="#m6d491a90e6" x="345.040302" y="227.514399" style="stroke: #000000; stroke-width: 0.5"/>
      </g>
     </g>
     <g id="line2d_57">
      <g>
       <use xlink:href="#m5c29d4643d" x="345.040302" y="21.223055" style="stroke: #000000; stroke-width: 0.5"/>
      </g>
     </g>
    </g>
    <g id="xtick_20">
     <g id="line2d_58">
      <path d="M 383.332256 227.514399 
L 383.332256 21.223055 
" clip-path="url(#p5d401756d5)" style="fill: none; stroke-dasharray: 1.85,0.8; stroke-dashoffset: 0; stroke: #e6e6e6; stroke-width: 0.5"/>
     </g>
     <g id="line2d_59">
      <g>
       <use xlink:href="#m6d491a90e6" x="383.332256" y="227.514399" style="stroke: #000000; stroke-width: 0.5"/>
      </g>
     </g>
     <g id="line2d_60">
      <g>
       <use xlink:href="#m5c29d4643d" x="383.332256" y="21.223055" style="stroke: #000000; stroke-width: 0.5"/>
      </g>
     </g>
    </g>
    <g id="xtick_21">
     <g id="line2d_61">
      <path d="M 402.478233 227.514399 
L 402.478233 21.223055 
" clip-path="url(#p5d401756d5)" style="fill: none; stroke-dasharray: 1.85,0.8; stroke-dashoffset: 0; stroke: #e6e6e6; stroke-width: 0.5"/>
     </g>
     <g id="line2d_62">
      <g>
       <use xlink:href="#m6d491a90e6" x="402.478233" y="227.514399" style="stroke: #000000; stroke-width: 0.5"/>
      </g>
     </g>
     <g id="line2d_63">
      <g>
       <use xlink:href="#m5c29d4643d" x="402.478233" y="21.223055" style="stroke: #000000; stroke-width: 0.5"/>
      </g>
     </g>
    </g>
    <g id="xtick_22">
     <g id="line2d_64">
      <path d="M 421.624209 227.514399 
L 421.624209 21.223055 
" clip-path="url(#p5d401756d5)" style="fill: none; stroke-dasharray: 1.85,0.8; stroke-dashoffset: 0; stroke: #e6e6e6; stroke-width: 0.5"/>
     </g>
     <g id="line2d_65">
      <g>
       <use xlink:href="#m6d491a90e6" x="421.624209" y="227.514399" style="stroke: #000000; stroke-width: 0.5"/>
      </g>
     </g>
     <g id="line2d_66">
      <g>
       <use xlink:href="#m5c29d4643d" x="421.624209" y="21.223055" style="stroke: #000000; stroke-width: 0.5"/>
      </g>
     </g>
    </g>
    <g id="xtick_23">
     <g id="line2d_67">
      <path d="M 459.916163 227.514399 
L 459.916163 21.223055 
" clip-path="url(#p5d401756d5)" style="fill: none; stroke-dasharray: 1.85,0.8; stroke-dashoffset: 0; stroke: #e6e6e6; stroke-width: 0.5"/>
     </g>
     <g id="line2d_68">
      <g>
       <use xlink:href="#m6d491a90e6" x="459.916163" y="227.514399" style="stroke: #000000; stroke-width: 0.5"/>
      </g>
     </g>
     <g id="line2d_69">
      <g>
       <use xlink:href="#m5c29d4643d" x="459.916163" y="21.223055" style="stroke: #000000; stroke-width: 0.5"/>
      </g>
     </g>
    </g>
    <g id="text_7">
     <!-- $V_{\mathrm{GS}} (V)$ -->
     <g transform="translate(227.546824 257.873076) scale(0.14 -0.14)">
      <defs>
       <path id="CMMI12-56" d="M 3962 3640 
C 4179 3984 4378 4136 4704 4162 
C 4768 4168 4819 4168 4819 4282 
C 4819 4308 4806 4346 4749 4346 
C 4634 4346 4358 4346 4243 4346 
C 4058 4346 3866 4346 3686 4346 
C 3635 4346 3571 4346 3571 4226 
C 3571 4168 3629 4162 3654 4162 
C 3891 4143 3917 4029 3917 3952 
C 3917 3857 3827 3710 3821 3704 
L 1811 540 
L 1363 3969 
C 1363 4160 1696 4160 1766 4160 
C 1862 4160 1920 4160 1920 4282 
C 1920 4346 1850 4346 1830 4346 
C 1722 4346 1594 4346 1485 4346 
L 1126 4346 
C 659 4346 467 4346 461 4346 
C 422 4346 346 4346 346 4230 
C 346 4160 390 4160 493 4160 
C 819 4160 838 4102 858 3944 
L 1370 24 
C 1389 -109 1389 -128 1478 -128 
C 1555 -128 1587 -109 1651 -8 
L 3962 3640 
z
" transform="scale(0.015625)"/>
       <path id="CMR17-47" d="M 3974 1233 
C 3974 1473 3994 1505 4390 1505 
L 4390 1670 
C 4237 1664 3891 1664 3718 1664 
C 3539 1664 3040 1664 2797 1664 
L 2797 1505 
L 2989 1505 
C 3539 1505 3552 1434 3552 1201 
L 3552 774 
C 3552 63 2720 63 2522 63 
C 1862 63 781 511 781 2160 
C 781 3808 1843 4250 2464 4250 
C 3187 4250 3712 3626 3834 2741 
C 3846 2664 3846 2651 3904 2651 
C 3974 2651 3974 2664 3974 2779 
L 3974 4288 
C 3974 4402 3968 4409 3930 4409 
C 3904 4409 3898 4402 3853 4326 
L 3571 3791 
C 3258 4187 2874 4416 2381 4416 
C 1286 4416 294 3456 294 2148 
C 294 845 1267 -128 2394 -128 
C 2912 -128 3418 56 3616 417 
C 3725 158 3904 -20 3936 -20 
C 3968 -20 3974 -13 3974 100 
L 3974 1233 
z
" transform="scale(0.015625)"/>
       <path id="CMR17-53" d="M 2803 4290 
C 2803 4404 2797 4411 2758 4411 
C 2720 4411 2707 4385 2682 4328 
L 2490 3907 
C 2246 4257 1875 4416 1472 4416 
C 819 4416 294 3901 294 3253 
C 294 3056 339 2776 557 2510 
C 794 2218 1018 2167 1530 2033 
C 1722 1982 2042 1899 2106 1874 
C 2470 1722 2662 1341 2662 985 
C 2662 527 2336 38 1779 38 
C 1094 38 454 419 410 1311 
C 403 1413 397 1419 352 1419 
C 301 1419 294 1413 294 1285 
L 294 -1 
C 294 -115 301 -122 339 -122 
C 384 -122 397 -90 486 108 
C 493 127 493 140 614 381 
C 934 -39 1472 -128 1779 -128 
C 2477 -128 2970 451 2970 1124 
C 2970 1454 2848 1708 2778 1823 
C 2509 2230 2221 2306 1914 2382 
C 1869 2402 1856 2402 1498 2490 
C 1152 2579 1005 2624 845 2796 
C 666 2992 602 3196 602 3399 
C 602 3812 934 4263 1478 4263 
C 2157 4263 2579 3786 2675 2993 
C 2694 2878 2701 2872 2746 2872 
C 2803 2872 2803 2891 2803 2999 
L 2803 4290 
z
" transform="scale(0.015625)"/>
       <path id="CMR17-28" d="M 1958 -1561 
C 1958 -1555 1958 -1542 1939 -1523 
C 1645 -1224 858 -407 858 1581 
C 858 3569 1632 4379 1946 4697 
C 1946 4704 1958 4717 1958 4736 
C 1958 4755 1939 4768 1914 4768 
C 1843 4768 1299 4296 986 3594 
C 666 2887 576 2199 576 1588 
C 576 1128 621 351 1005 -471 
C 1312 -1135 1837 -1600 1914 -1600 
C 1946 -1600 1958 -1587 1958 -1561 
z
" transform="scale(0.015625)"/>
       <path id="CMR17-29" d="M 1683 1581 
C 1683 2040 1638 2817 1254 3639 
C 947 4303 422 4768 346 4768 
C 326 4768 301 4761 301 4729 
C 301 4717 307 4710 314 4697 
C 621 4378 1402 3568 1402 1584 
C 1402 -407 627 -1217 314 -1537 
C 307 -1549 301 -1556 301 -1568 
C 301 -1600 326 -1600 346 -1600 
C 416 -1600 960 -1128 1274 -426 
C 1594 281 1683 969 1683 1581 
z
" transform="scale(0.015625)"/>
      </defs>
      <use xlink:href="#CMMI12-56" transform="scale(0.996264)"/>
      <use xlink:href="#CMR17-47" transform="translate(56.869579 -14.943915) scale(0.697382)"/>
      <use xlink:href="#CMR17-53" transform="translate(107.518102 -14.943915) scale(0.697382)"/>
      <use xlink:href="#CMR17-28" transform="translate(143.642843 0) scale(0.996264)"/>
      <use xlink:href="#CMMI12-56" transform="translate(178.92361 0) scale(0.996264)"/>
      <use xlink:href="#CMR17-29" transform="translate(257.470931 0) scale(0.996264)"/>
     </g>
    </g>
   </g>
   <g id="matplotlib.axis_2">
    <g id="ytick_1">
     <g id="line2d_70">
      <path d="M 38.704673 220.356318 
L 459.916163 220.356318 
" clip-path="url(#p5d401756d5)" style="fill: none; stroke-dasharray: 1.85,0.8; stroke-dashoffset: 0; stroke: #e6e6e6; stroke-width: 0.5"/>
     </g>
     <g id="line2d_71">
      <defs>
       <path id="ma7680e708d" d="M 0 0 
L 3 0 
" style="stroke: #000000; stroke-width: 0.5"/>
      </defs>
      <g>
       <use xlink:href="#ma7680e708d" x="38.704673" y="220.356318" style="stroke: #000000; stroke-width: 0.5"/>
      </g>
     </g>
     <g id="line2d_72">
      <defs>
       <path id="m9887a28bd5" d="M 0 0 
L -3 0 
" style="stroke: #000000; stroke-width: 0.5"/>
      </defs>
      <g>
       <use xlink:href="#m9887a28bd5" x="459.916163" y="220.356318" style="stroke: #000000; stroke-width: 0.5"/>
      </g>
     </g>
     <g id="text_8">
      <!-- $\mathdefault{0}$ -->
      <g transform="translate(28.376185 225.199256) scale(0.14 -0.14)">
       <use xlink:href="#CMR17-30" transform="scale(0.996264)"/>
      </g>
     </g>
    </g>
    <g id="ytick_2">
     <g id="line2d_73">
      <path d="M 38.704673 185.310467 
L 459.916163 185.310467 
" clip-path="url(#p5d401756d5)" style="fill: none; stroke-dasharray: 1.85,0.8; stroke-dashoffset: 0; stroke: #e6e6e6; stroke-width: 0.5"/>
     </g>
     <g id="line2d_74">
      <g>
       <use xlink:href="#ma7680e708d" x="38.704673" y="185.310467" style="stroke: #000000; stroke-width: 0.5"/>
      </g>
     </g>
     <g id="line2d_75">
      <g>
       <use xlink:href="#m9887a28bd5" x="459.916163" y="185.310467" style="stroke: #000000; stroke-width: 0.5"/>
      </g>
     </g>
     <g id="text_9">
      <!-- $\mathdefault{10}$ -->
      <g transform="translate(21.547696 190.153406) scale(0.14 -0.14)">
       <use xlink:href="#CMR17-31" transform="scale(0.996264)"/>
       <use xlink:href="#CMR17-30" transform="translate(45.690477 0) scale(0.996264)"/>
      </g>
     </g>
    </g>
    <g id="ytick_3">
     <g id="line2d_76">
      <path d="M 38.704673 150.264617 
L 459.916163 150.264617 
" clip-path="url(#p5d401756d5)" style="fill: none; stroke-dasharray: 1.85,0.8; stroke-dashoffset: 0; stroke: #e6e6e6; stroke-width: 0.5"/>
     </g>
     <g id="line2d_77">
      <g>
       <use xlink:href="#ma7680e708d" x="38.704673" y="150.264617" style="stroke: #000000; stroke-width: 0.5"/>
      </g>
     </g>
     <g id="line2d_78">
      <g>
       <use xlink:href="#m9887a28bd5" x="459.916163" y="150.264617" style="stroke: #000000; stroke-width: 0.5"/>
      </g>
     </g>
     <g id="text_10">
      <!-- $\mathdefault{20}$ -->
      <g transform="translate(21.547696 155.107555) scale(0.14 -0.14)">
       <use xlink:href="#CMR17-32" transform="scale(0.996264)"/>
       <use xlink:href="#CMR17-30" transform="translate(45.690477 0) scale(0.996264)"/>
      </g>
     </g>
    </g>
    <g id="ytick_4">
     <g id="line2d_79">
      <path d="M 38.704673 115.218766 
L 459.916163 115.218766 
" clip-path="url(#p5d401756d5)" style="fill: none; stroke-dasharray: 1.85,0.8; stroke-dashoffset: 0; stroke: #e6e6e6; stroke-width: 0.5"/>
     </g>
     <g id="line2d_80">
      <g>
       <use xlink:href="#ma7680e708d" x="38.704673" y="115.218766" style="stroke: #000000; stroke-width: 0.5"/>
      </g>
     </g>
     <g id="line2d_81">
      <g>
       <use xlink:href="#m9887a28bd5" x="459.916163" y="115.218766" style="stroke: #000000; stroke-width: 0.5"/>
      </g>
     </g>
     <g id="text_11">
      <!-- $\mathdefault{30}$ -->
      <g transform="translate(21.547696 120.061705) scale(0.14 -0.14)">
       <defs>
        <path id="CMR17-33" d="M 1414 2157 
C 1984 2157 2234 1662 2234 1090 
C 2234 320 1824 25 1453 25 
C 1114 25 563 194 390 693 
C 422 680 454 680 486 680 
C 640 680 755 782 755 948 
C 755 1133 614 1216 486 1216 
C 378 1216 211 1165 211 926 
C 211 335 787 -128 1466 -128 
C 2176 -128 2720 430 2720 1085 
C 2720 1707 2208 2157 1600 2227 
C 2086 2328 2554 2756 2554 3329 
C 2554 3820 2048 4179 1472 4179 
C 890 4179 378 3829 378 3329 
C 378 3110 544 3072 627 3072 
C 762 3072 877 3155 877 3321 
C 877 3486 762 3569 627 3569 
C 602 3569 570 3569 544 3557 
C 730 3959 1235 4032 1459 4032 
C 1683 4032 2106 3925 2106 3320 
C 2106 3143 2080 2828 1862 2550 
C 1670 2304 1453 2304 1242 2284 
C 1210 2284 1062 2269 1037 2269 
C 992 2263 966 2257 966 2208 
C 966 2163 973 2157 1101 2157 
L 1414 2157 
z
" transform="scale(0.015625)"/>
       </defs>
       <use xlink:href="#CMR17-33" transform="scale(0.996264)"/>
       <use xlink:href="#CMR17-30" transform="translate(45.690477 0) scale(0.996264)"/>
      </g>
     </g>
    </g>
    <g id="ytick_5">
     <g id="line2d_82">
      <path d="M 38.704673 80.172916 
L 459.916163 80.172916 
" clip-path="url(#p5d401756d5)" style="fill: none; stroke-dasharray: 1.85,0.8; stroke-dashoffset: 0; stroke: #e6e6e6; stroke-width: 0.5"/>
     </g>
     <g id="line2d_83">
      <g>
       <use xlink:href="#ma7680e708d" x="38.704673" y="80.172916" style="stroke: #000000; stroke-width: 0.5"/>
      </g>
     </g>
     <g id="line2d_84">
      <g>
       <use xlink:href="#m9887a28bd5" x="459.916163" y="80.172916" style="stroke: #000000; stroke-width: 0.5"/>
      </g>
     </g>
     <g id="text_12">
      <!-- $\mathdefault{40}$ -->
      <g transform="translate(21.547696 85.015854) scale(0.14 -0.14)">
       <use xlink:href="#CMR17-34" transform="scale(0.996264)"/>
       <use xlink:href="#CMR17-30" transform="translate(45.690477 0) scale(0.996264)"/>
      </g>
     </g>
    </g>
    <g id="ytick_6">
     <g id="line2d_85">
      <path d="M 38.704673 45.127065 
L 459.916163 45.127065 
" clip-path="url(#p5d401756d5)" style="fill: none; stroke-dasharray: 1.85,0.8; stroke-dashoffset: 0; stroke: #e6e6e6; stroke-width: 0.5"/>
     </g>
     <g id="line2d_86">
      <g>
       <use xlink:href="#ma7680e708d" x="38.704673" y="45.127065" style="stroke: #000000; stroke-width: 0.5"/>
      </g>
     </g>
     <g id="line2d_87">
      <g>
       <use xlink:href="#m9887a28bd5" x="459.916163" y="45.127065" style="stroke: #000000; stroke-width: 0.5"/>
      </g>
     </g>
     <g id="text_13">
      <!-- $\mathdefault{50}$ -->
      <g transform="translate(21.547696 49.970004) scale(0.14 -0.14)">
       <defs>
        <path id="CMR17-35" d="M 730 3692 
C 794 3666 1056 3584 1325 3584 
C 1920 3584 2246 3911 2432 4100 
C 2432 4157 2432 4192 2394 4192 
C 2387 4192 2374 4192 2323 4163 
C 2099 4058 1837 3973 1517 3973 
C 1325 3973 1037 3999 723 4139 
C 653 4171 640 4171 634 4171 
C 602 4171 595 4164 595 4037 
L 595 2203 
C 595 2089 595 2057 659 2057 
C 691 2057 704 2070 736 2114 
C 941 2401 1222 2522 1542 2522 
C 1766 2522 2246 2382 2246 1289 
C 2246 1085 2246 715 2054 421 
C 1894 159 1645 25 1370 25 
C 947 25 518 320 403 814 
C 429 807 480 795 506 795 
C 589 795 749 840 749 1038 
C 749 1210 627 1280 506 1280 
C 358 1280 262 1190 262 1011 
C 262 454 704 -128 1382 -128 
C 2042 -128 2669 440 2669 1264 
C 2669 2030 2170 2624 1549 2624 
C 1222 2624 947 2503 730 2274 
L 730 3692 
z
" transform="scale(0.015625)"/>
       </defs>
       <use xlink:href="#CMR17-35" transform="scale(0.996264)"/>
       <use xlink:href="#CMR17-30" transform="translate(45.690477 0) scale(0.996264)"/>
      </g>
     </g>
    </g>
    <g id="ytick_7">
     <g id="line2d_88">
      <path d="M 38.704673 227.365488 
L 459.916163 227.365488 
" clip-path="url(#p5d401756d5)" style="fill: none; stroke-dasharray: 1.85,0.8; stroke-dashoffset: 0; stroke: #e6e6e6; stroke-width: 0.5"/>
     </g>
     <g id="line2d_89">
      <defs>
       <path id="m25860640b7" d="M 0 0 
L 1.5 0 
" style="stroke: #000000; stroke-width: 0.5"/>
      </defs>
      <g>
       <use xlink:href="#m25860640b7" x="38.704673" y="227.365488" style="stroke: #000000; stroke-width: 0.5"/>
      </g>
     </g>
     <g id="line2d_90">
      <defs>
       <path id="mff235a604c" d="M 0 0 
L -1.5 0 
" style="stroke: #000000; stroke-width: 0.5"/>
      </defs>
      <g>
       <use xlink:href="#mff235a604c" x="459.916163" y="227.365488" style="stroke: #000000; stroke-width: 0.5"/>
      </g>
     </g>
    </g>
    <g id="ytick_8">
     <g id="line2d_91">
      <path d="M 38.704673 213.347148 
L 459.916163 213.347148 
" clip-path="url(#p5d401756d5)" style="fill: none; stroke-dasharray: 1.85,0.8; stroke-dashoffset: 0; stroke: #e6e6e6; stroke-width: 0.5"/>
     </g>
     <g id="line2d_92">
      <g>
       <use xlink:href="#m25860640b7" x="38.704673" y="213.347148" style="stroke: #000000; stroke-width: 0.5"/>
      </g>
     </g>
     <g id="line2d_93">
      <g>
       <use xlink:href="#mff235a604c" x="459.916163" y="213.347148" style="stroke: #000000; stroke-width: 0.5"/>
      </g>
     </g>
    </g>
    <g id="ytick_9">
     <g id="line2d_94">
      <path d="M 38.704673 206.337978 
L 459.916163 206.337978 
" clip-path="url(#p5d401756d5)" style="fill: none; stroke-dasharray: 1.85,0.8; stroke-dashoffset: 0; stroke: #e6e6e6; stroke-width: 0.5"/>
     </g>
     <g id="line2d_95">
      <g>
       <use xlink:href="#m25860640b7" x="38.704673" y="206.337978" style="stroke: #000000; stroke-width: 0.5"/>
      </g>
     </g>
     <g id="line2d_96">
      <g>
       <use xlink:href="#mff235a604c" x="459.916163" y="206.337978" style="stroke: #000000; stroke-width: 0.5"/>
      </g>
     </g>
    </g>
    <g id="ytick_10">
     <g id="line2d_97">
      <path d="M 38.704673 199.328808 
L 459.916163 199.328808 
" clip-path="url(#p5d401756d5)" style="fill: none; stroke-dasharray: 1.85,0.8; stroke-dashoffset: 0; stroke: #e6e6e6; stroke-width: 0.5"/>
     </g>
     <g id="line2d_98">
      <g>
       <use xlink:href="#m25860640b7" x="38.704673" y="199.328808" style="stroke: #000000; stroke-width: 0.5"/>
      </g>
     </g>
     <g id="line2d_99">
      <g>
       <use xlink:href="#mff235a604c" x="459.916163" y="199.328808" style="stroke: #000000; stroke-width: 0.5"/>
      </g>
     </g>
    </g>
    <g id="ytick_11">
     <g id="line2d_100">
      <path d="M 38.704673 192.319638 
L 459.916163 192.319638 
" clip-path="url(#p5d401756d5)" style="fill: none; stroke-dasharray: 1.85,0.8; stroke-dashoffset: 0; stroke: #e6e6e6; stroke-width: 0.5"/>
     </g>
     <g id="line2d_101">
      <g>
       <use xlink:href="#m25860640b7" x="38.704673" y="192.319638" style="stroke: #000000; stroke-width: 0.5"/>
      </g>
     </g>
     <g id="line2d_102">
      <g>
       <use xlink:href="#mff235a604c" x="459.916163" y="192.319638" style="stroke: #000000; stroke-width: 0.5"/>
      </g>
     </g>
    </g>
    <g id="ytick_12">
     <g id="line2d_103">
      <path d="M 38.704673 178.301297 
L 459.916163 178.301297 
" clip-path="url(#p5d401756d5)" style="fill: none; stroke-dasharray: 1.85,0.8; stroke-dashoffset: 0; stroke: #e6e6e6; stroke-width: 0.5"/>
     </g>
     <g id="line2d_104">
      <g>
       <use xlink:href="#m25860640b7" x="38.704673" y="178.301297" style="stroke: #000000; stroke-width: 0.5"/>
      </g>
     </g>
     <g id="line2d_105">
      <g>
       <use xlink:href="#mff235a604c" x="459.916163" y="178.301297" style="stroke: #000000; stroke-width: 0.5"/>
      </g>
     </g>
    </g>
    <g id="ytick_13">
     <g id="line2d_106">
      <path d="M 38.704673 171.292127 
L 459.916163 171.292127 
" clip-path="url(#p5d401756d5)" style="fill: none; stroke-dasharray: 1.85,0.8; stroke-dashoffset: 0; stroke: #e6e6e6; stroke-width: 0.5"/>
     </g>
     <g id="line2d_107">
      <g>
       <use xlink:href="#m25860640b7" x="38.704673" y="171.292127" style="stroke: #000000; stroke-width: 0.5"/>
      </g>
     </g>
     <g id="line2d_108">
      <g>
       <use xlink:href="#mff235a604c" x="459.916163" y="171.292127" style="stroke: #000000; stroke-width: 0.5"/>
      </g>
     </g>
    </g>
    <g id="ytick_14">
     <g id="line2d_109">
      <path d="M 38.704673 164.282957 
L 459.916163 164.282957 
" clip-path="url(#p5d401756d5)" style="fill: none; stroke-dasharray: 1.85,0.8; stroke-dashoffset: 0; stroke: #e6e6e6; stroke-width: 0.5"/>
     </g>
     <g id="line2d_110">
      <g>
       <use xlink:href="#m25860640b7" x="38.704673" y="164.282957" style="stroke: #000000; stroke-width: 0.5"/>
      </g>
     </g>
     <g id="line2d_111">
      <g>
       <use xlink:href="#mff235a604c" x="459.916163" y="164.282957" style="stroke: #000000; stroke-width: 0.5"/>
      </g>
     </g>
    </g>
    <g id="ytick_15">
     <g id="line2d_112">
      <path d="M 38.704673 157.273787 
L 459.916163 157.273787 
" clip-path="url(#p5d401756d5)" style="fill: none; stroke-dasharray: 1.85,0.8; stroke-dashoffset: 0; stroke: #e6e6e6; stroke-width: 0.5"/>
     </g>
     <g id="line2d_113">
      <g>
       <use xlink:href="#m25860640b7" x="38.704673" y="157.273787" style="stroke: #000000; stroke-width: 0.5"/>
      </g>
     </g>
     <g id="line2d_114">
      <g>
       <use xlink:href="#mff235a604c" x="459.916163" y="157.273787" style="stroke: #000000; stroke-width: 0.5"/>
      </g>
     </g>
    </g>
    <g id="ytick_16">
     <g id="line2d_115">
      <path d="M 38.704673 143.255447 
L 459.916163 143.255447 
" clip-path="url(#p5d401756d5)" style="fill: none; stroke-dasharray: 1.85,0.8; stroke-dashoffset: 0; stroke: #e6e6e6; stroke-width: 0.5"/>
     </g>
     <g id="line2d_116">
      <g>
       <use xlink:href="#m25860640b7" x="38.704673" y="143.255447" style="stroke: #000000; stroke-width: 0.5"/>
      </g>
     </g>
     <g id="line2d_117">
      <g>
       <use xlink:href="#mff235a604c" x="459.916163" y="143.255447" style="stroke: #000000; stroke-width: 0.5"/>
      </g>
     </g>
    </g>
    <g id="ytick_17">
     <g id="line2d_118">
      <path d="M 38.704673 136.246277 
L 459.916163 136.246277 
" clip-path="url(#p5d401756d5)" style="fill: none; stroke-dasharray: 1.85,0.8; stroke-dashoffset: 0; stroke: #e6e6e6; stroke-width: 0.5"/>
     </g>
     <g id="line2d_119">
      <g>
       <use xlink:href="#m25860640b7" x="38.704673" y="136.246277" style="stroke: #000000; stroke-width: 0.5"/>
      </g>
     </g>
     <g id="line2d_120">
      <g>
       <use xlink:href="#mff235a604c" x="459.916163" y="136.246277" style="stroke: #000000; stroke-width: 0.5"/>
      </g>
     </g>
    </g>
    <g id="ytick_18">
     <g id="line2d_121">
      <path d="M 38.704673 129.237107 
L 459.916163 129.237107 
" clip-path="url(#p5d401756d5)" style="fill: none; stroke-dasharray: 1.85,0.8; stroke-dashoffset: 0; stroke: #e6e6e6; stroke-width: 0.5"/>
     </g>
     <g id="line2d_122">
      <g>
       <use xlink:href="#m25860640b7" x="38.704673" y="129.237107" style="stroke: #000000; stroke-width: 0.5"/>
      </g>
     </g>
     <g id="line2d_123">
      <g>
       <use xlink:href="#mff235a604c" x="459.916163" y="129.237107" style="stroke: #000000; stroke-width: 0.5"/>
      </g>
     </g>
    </g>
    <g id="ytick_19">
     <g id="line2d_124">
      <path d="M 38.704673 122.227936 
L 459.916163 122.227936 
" clip-path="url(#p5d401756d5)" style="fill: none; stroke-dasharray: 1.85,0.8; stroke-dashoffset: 0; stroke: #e6e6e6; stroke-width: 0.5"/>
     </g>
     <g id="line2d_125">
      <g>
       <use xlink:href="#m25860640b7" x="38.704673" y="122.227936" style="stroke: #000000; stroke-width: 0.5"/>
      </g>
     </g>
     <g id="line2d_126">
      <g>
       <use xlink:href="#mff235a604c" x="459.916163" y="122.227936" style="stroke: #000000; stroke-width: 0.5"/>
      </g>
     </g>
    </g>
    <g id="ytick_20">
     <g id="line2d_127">
      <path d="M 38.704673 108.209596 
L 459.916163 108.209596 
" clip-path="url(#p5d401756d5)" style="fill: none; stroke-dasharray: 1.85,0.8; stroke-dashoffset: 0; stroke: #e6e6e6; stroke-width: 0.5"/>
     </g>
     <g id="line2d_128">
      <g>
       <use xlink:href="#m25860640b7" x="38.704673" y="108.209596" style="stroke: #000000; stroke-width: 0.5"/>
      </g>
     </g>
     <g id="line2d_129">
      <g>
       <use xlink:href="#mff235a604c" x="459.916163" y="108.209596" style="stroke: #000000; stroke-width: 0.5"/>
      </g>
     </g>
    </g>
    <g id="ytick_21">
     <g id="line2d_130">
      <path d="M 38.704673 101.200426 
L 459.916163 101.200426 
" clip-path="url(#p5d401756d5)" style="fill: none; stroke-dasharray: 1.85,0.8; stroke-dashoffset: 0; stroke: #e6e6e6; stroke-width: 0.5"/>
     </g>
     <g id="line2d_131">
      <g>
       <use xlink:href="#m25860640b7" x="38.704673" y="101.200426" style="stroke: #000000; stroke-width: 0.5"/>
      </g>
     </g>
     <g id="line2d_132">
      <g>
       <use xlink:href="#mff235a604c" x="459.916163" y="101.200426" style="stroke: #000000; stroke-width: 0.5"/>
      </g>
     </g>
    </g>
    <g id="ytick_22">
     <g id="line2d_133">
      <path d="M 38.704673 94.191256 
L 459.916163 94.191256 
" clip-path="url(#p5d401756d5)" style="fill: none; stroke-dasharray: 1.85,0.8; stroke-dashoffset: 0; stroke: #e6e6e6; stroke-width: 0.5"/>
     </g>
     <g id="line2d_134">
      <g>
       <use xlink:href="#m25860640b7" x="38.704673" y="94.191256" style="stroke: #000000; stroke-width: 0.5"/>
      </g>
     </g>
     <g id="line2d_135">
      <g>
       <use xlink:href="#mff235a604c" x="459.916163" y="94.191256" style="stroke: #000000; stroke-width: 0.5"/>
      </g>
     </g>
    </g>
    <g id="ytick_23">
     <g id="line2d_136">
      <path d="M 38.704673 87.182086 
L 459.916163 87.182086 
" clip-path="url(#p5d401756d5)" style="fill: none; stroke-dasharray: 1.85,0.8; stroke-dashoffset: 0; stroke: #e6e6e6; stroke-width: 0.5"/>
     </g>
     <g id="line2d_137">
      <g>
       <use xlink:href="#m25860640b7" x="38.704673" y="87.182086" style="stroke: #000000; stroke-width: 0.5"/>
      </g>
     </g>
     <g id="line2d_138">
      <g>
       <use xlink:href="#mff235a604c" x="459.916163" y="87.182086" style="stroke: #000000; stroke-width: 0.5"/>
      </g>
     </g>
    </g>
    <g id="ytick_24">
     <g id="line2d_139">
      <path d="M 38.704673 73.163746 
L 459.916163 73.163746 
" clip-path="url(#p5d401756d5)" style="fill: none; stroke-dasharray: 1.85,0.8; stroke-dashoffset: 0; stroke: #e6e6e6; stroke-width: 0.5"/>
     </g>
     <g id="line2d_140">
      <g>
       <use xlink:href="#m25860640b7" x="38.704673" y="73.163746" style="stroke: #000000; stroke-width: 0.5"/>
      </g>
     </g>
     <g id="line2d_141">
      <g>
       <use xlink:href="#mff235a604c" x="459.916163" y="73.163746" style="stroke: #000000; stroke-width: 0.5"/>
      </g>
     </g>
    </g>
    <g id="ytick_25">
     <g id="line2d_142">
      <path d="M 38.704673 66.154576 
L 459.916163 66.154576 
" clip-path="url(#p5d401756d5)" style="fill: none; stroke-dasharray: 1.85,0.8; stroke-dashoffset: 0; stroke: #e6e6e6; stroke-width: 0.5"/>
     </g>
     <g id="line2d_143">
      <g>
       <use xlink:href="#m25860640b7" x="38.704673" y="66.154576" style="stroke: #000000; stroke-width: 0.5"/>
      </g>
     </g>
     <g id="line2d_144">
      <g>
       <use xlink:href="#mff235a604c" x="459.916163" y="66.154576" style="stroke: #000000; stroke-width: 0.5"/>
      </g>
     </g>
    </g>
    <g id="ytick_26">
     <g id="line2d_145">
      <path d="M 38.704673 59.145406 
L 459.916163 59.145406 
" clip-path="url(#p5d401756d5)" style="fill: none; stroke-dasharray: 1.85,0.8; stroke-dashoffset: 0; stroke: #e6e6e6; stroke-width: 0.5"/>
     </g>
     <g id="line2d_146">
      <g>
       <use xlink:href="#m25860640b7" x="38.704673" y="59.145406" style="stroke: #000000; stroke-width: 0.5"/>
      </g>
     </g>
     <g id="line2d_147">
      <g>
       <use xlink:href="#mff235a604c" x="459.916163" y="59.145406" style="stroke: #000000; stroke-width: 0.5"/>
      </g>
     </g>
    </g>
    <g id="ytick_27">
     <g id="line2d_148">
      <path d="M 38.704673 52.136235 
L 459.916163 52.136235 
" clip-path="url(#p5d401756d5)" style="fill: none; stroke-dasharray: 1.85,0.8; stroke-dashoffset: 0; stroke: #e6e6e6; stroke-width: 0.5"/>
     </g>
     <g id="line2d_149">
      <g>
       <use xlink:href="#m25860640b7" x="38.704673" y="52.136235" style="stroke: #000000; stroke-width: 0.5"/>
      </g>
     </g>
     <g id="line2d_150">
      <g>
       <use xlink:href="#mff235a604c" x="459.916163" y="52.136235" style="stroke: #000000; stroke-width: 0.5"/>
      </g>
     </g>
    </g>
    <g id="ytick_28">
     <g id="line2d_151">
      <path d="M 38.704673 38.117895 
L 459.916163 38.117895 
" clip-path="url(#p5d401756d5)" style="fill: none; stroke-dasharray: 1.85,0.8; stroke-dashoffset: 0; stroke: #e6e6e6; stroke-width: 0.5"/>
     </g>
     <g id="line2d_152">
      <g>
       <use xlink:href="#m25860640b7" x="38.704673" y="38.117895" style="stroke: #000000; stroke-width: 0.5"/>
      </g>
     </g>
     <g id="line2d_153">
      <g>
       <use xlink:href="#mff235a604c" x="459.916163" y="38.117895" style="stroke: #000000; stroke-width: 0.5"/>
      </g>
     </g>
    </g>
    <g id="ytick_29">
     <g id="line2d_154">
      <path d="M 38.704673 31.108725 
L 459.916163 31.108725 
" clip-path="url(#p5d401756d5)" style="fill: none; stroke-dasharray: 1.85,0.8; stroke-dashoffset: 0; stroke: #e6e6e6; stroke-width: 0.5"/>
     </g>
     <g id="line2d_155">
      <g>
       <use xlink:href="#m25860640b7" x="38.704673" y="31.108725" style="stroke: #000000; stroke-width: 0.5"/>
      </g>
     </g>
     <g id="line2d_156">
      <g>
       <use xlink:href="#mff235a604c" x="459.916163" y="31.108725" style="stroke: #000000; stroke-width: 0.5"/>
      </g>
     </g>
    </g>
    <g id="ytick_30">
     <g id="line2d_157">
      <path d="M 38.704673 24.099555 
L 459.916163 24.099555 
" clip-path="url(#p5d401756d5)" style="fill: none; stroke-dasharray: 1.85,0.8; stroke-dashoffset: 0; stroke: #e6e6e6; stroke-width: 0.5"/>
     </g>
     <g id="line2d_158">
      <g>
       <use xlink:href="#m25860640b7" x="38.704673" y="24.099555" style="stroke: #000000; stroke-width: 0.5"/>
      </g>
     </g>
     <g id="line2d_159">
      <g>
       <use xlink:href="#mff235a604c" x="459.916163" y="24.099555" style="stroke: #000000; stroke-width: 0.5"/>
      </g>
     </g>
    </g>
    <g id="text_14">
     <!-- $I_D / g_{ds} (A/S)$ -->
     <g transform="translate(14.060772 162.225855) rotate(-90) scale(0.14 -0.14)">
      <defs>
       <path id="CMMI12-49" d="M 2355 3880 
C 2413 4103 2426 4167 2893 4167 
C 3034 4167 3085 4167 3085 4288 
C 3085 4352 3014 4352 2995 4352 
C 2880 4352 2739 4352 2624 4352 
L 1837 4352 
C 1709 4352 1562 4352 1434 4352 
C 1382 4352 1312 4352 1312 4231 
C 1312 4167 1363 4167 1491 4167 
C 1888 4167 1888 4116 1888 4046 
C 1888 4002 1875 3963 1862 3906 
L 998 472 
C 941 249 928 185 461 185 
C 320 185 262 185 262 64 
C 262 0 326 0 358 0 
C 474 0 614 0 730 0 
L 1517 0 
C 1645 0 1786 0 1914 0 
C 1965 0 2042 0 2042 115 
C 2042 185 2003 185 1862 185 
C 1466 185 1466 236 1466 312 
C 1466 325 1466 357 1491 459 
L 2355 3880 
z
" transform="scale(0.015625)"/>
       <path id="CMMI12-44" d="M 1005 472 
C 947 249 934 185 486 185 
C 365 185 301 185 301 70 
C 301 0 339 0 467 0 
L 2496 0 
C 3789 0 5050 1332 5050 2753 
C 5050 3671 4499 4352 3584 4352 
L 1530 4352 
C 1408 4352 1350 4352 1350 4231 
C 1350 4167 1408 4167 1504 4167 
C 1894 4167 1894 4116 1894 4046 
C 1894 4034 1894 3995 1869 3899 
L 1005 472 
z
M 2355 3931 
C 2413 4167 2438 4167 2688 4167 
L 3392 4167 
C 3994 4167 4544 3842 4544 2963 
C 4544 2644 4416 1536 3795 835 
C 3616 625 3130 185 2394 185 
L 1664 185 
C 1574 185 1562 185 1523 192 
C 1453 198 1446 211 1446 262 
C 1446 307 1459 345 1472 402 
L 2355 3931 
z
" transform="scale(0.015625)"/>
       <path id="CMMI12-3d" d="M 2746 4562 
C 2746 4569 2784 4666 2784 4678 
C 2784 4755 2720 4800 2669 4800 
C 2637 4800 2579 4800 2528 4659 
L 384 -1363 
C 384 -1370 346 -1465 346 -1478 
C 346 -1555 410 -1600 461 -1600 
C 499 -1600 557 -1593 602 -1459 
L 2746 4562 
z
" transform="scale(0.015625)"/>
       <path id="CMMI12-67" d="M 2163 811 
C 2138 709 2125 683 2042 588 
C 1779 249 1510 128 1312 128 
C 1101 128 902 294 902 734 
C 902 1073 1094 1788 1235 2076 
C 1421 2433 1709 2689 1978 2689 
C 2400 2689 2483 2165 2483 2127 
L 2464 2037 
L 2163 811 
z
M 2560 2395 
C 2477 2580 2298 2816 1978 2816 
C 1280 2816 486 1941 486 990 
C 486 326 890 0 1299 0 
C 1638 0 1939 268 2054 396 
L 1914 -171 
C 1824 -516 1786 -674 1555 -894 
C 1293 -1152 1050 -1152 909 -1152 
C 717 -1152 557 -1139 397 -1089 
C 602 -1033 653 -858 653 -789 
C 653 -689 576 -588 435 -588 
C 282 -588 115 -714 115 -922 
C 115 -1180 378 -1280 922 -1280 
C 1747 -1280 2176 -753 2259 -410 
L 2970 2435 
C 2989 2511 2989 2524 2989 2536 
C 2989 2625 2918 2695 2822 2695 
C 2669 2695 2579 2567 2560 2395 
z
" transform="scale(0.015625)"/>
       <path id="CMMI12-64" d="M 3219 4257 
C 3226 4282 3238 4320 3238 4352 
C 3238 4416 3174 4416 3162 4416 
C 3155 4416 2842 4388 2810 4380 
C 2701 4373 2605 4358 2490 4358 
C 2330 4345 2285 4339 2285 4224 
C 2285 4160 2336 4160 2426 4160 
C 2739 4160 2746 4103 2746 4040 
C 2746 4002 2733 3952 2726 3933 
L 2336 2395 
C 2266 2561 2093 2816 1760 2816 
C 1037 2816 256 1884 256 939 
C 256 307 627 -64 1062 -64 
C 1414 -64 1715 211 1894 422 
C 1958 45 2259 -64 2451 -64 
C 2643 -64 2797 51 2912 281 
C 3014 498 3104 888 3104 913 
C 3104 945 3078 971 3040 971 
C 2982 971 2976 939 2950 843 
C 2854 466 2733 64 2470 64 
C 2285 64 2272 229 2272 357 
C 2272 382 2272 515 2317 694 
L 3219 4257 
z
M 1926 760 
C 1894 651 1894 639 1805 517 
C 1664 338 1382 64 1082 64 
C 819 64 672 300 672 677 
C 672 1028 870 1743 992 2012 
C 1210 2459 1510 2689 1760 2689 
C 2182 2689 2266 2165 2266 2114 
C 2266 2108 2246 2024 2240 2012 
L 1926 760 
z
" transform="scale(0.015625)"/>
       <path id="CMMI12-73" d="M 1459 1280 
C 1568 1261 1741 1223 1779 1216 
C 1862 1192 2150 1090 2150 783 
C 2150 586 1971 70 1229 70 
C 1094 70 614 70 486 436 
C 742 404 870 603 870 745 
C 870 880 781 950 653 950 
C 512 950 326 841 326 552 
C 326 173 710 -64 1222 -64 
C 2195 -64 2483 651 2483 984 
C 2483 1079 2483 1258 2278 1462 
C 2118 1616 1965 1648 1619 1718 
C 1446 1756 1171 1814 1171 2101 
C 1171 2229 1286 2689 1894 2689 
C 2163 2689 2426 2589 2490 2368 
C 2208 2368 2195 2125 2195 2119 
C 2195 1984 2317 1946 2374 1946 
C 2464 1946 2643 2015 2643 2281 
C 2643 2545 2400 2816 1901 2816 
C 1062 2816 838 2160 838 1899 
C 838 1414 1312 1312 1459 1280 
z
" transform="scale(0.015625)"/>
       <path id="CMMI12-41" d="M 1088 691 
C 864 314 646 186 339 186 
C 269 180 218 180 218 58 
C 218 24 250 0 294 0 
C 410 0 698 0 813 0 
C 998 0 1203 0 1382 0 
C 1421 0 1498 0 1498 122 
C 1498 180 1446 186 1408 186 
C 1261 186 1139 236 1139 388 
C 1139 476 1178 546 1261 685 
L 1747 1479 
L 3379 1479 
C 3386 1423 3386 1373 3392 1316 
C 3411 1152 3488 495 3488 376 
C 3488 186 3162 186 3059 186 
C 2989 186 2918 186 2918 70 
C 2918 0 2976 0 3014 0 
C 3123 0 3251 0 3360 0 
L 3725 0 
C 4115 0 4397 0 4403 0 
C 4448 0 4518 0 4518 122 
C 4518 186 4461 186 4365 186 
C 4013 186 4006 244 3987 434 
L 3597 4404 
C 3584 4531 3558 4544 3488 4544 
C 3424 4544 3386 4531 3328 4435 
L 1088 691 
z
M 1856 1664 
L 3142 3819 
L 3360 1664 
L 1856 1664 
z
" transform="scale(0.015625)"/>
       <path id="CMMI12-53" d="M 4064 4423 
C 4064 4480 4019 4480 4006 4480 
C 3981 4480 3974 4474 3898 4378 
C 3859 4333 3597 4001 3590 3995 
C 3379 4410 2957 4480 2688 4480 
C 1875 4480 1139 3743 1139 3025 
C 1139 2549 1427 2269 1741 2161 
C 1811 2135 2189 2033 2381 1989 
C 2707 1900 2790 1875 2925 1735 
C 2950 1703 3078 1557 3078 1258 
C 3078 667 2528 57 1888 57 
C 1363 57 781 280 781 991 
C 781 1112 806 1265 826 1328 
C 826 1348 832 1378 832 1391 
C 832 1417 819 1449 768 1449 
C 710 1449 704 1436 678 1328 
L 352 24 
C 352 18 326 -64 326 -71 
C 326 -128 378 -128 390 -128 
C 416 -128 422 -122 499 -26 
L 794 356 
C 947 126 1280 -128 1875 -128 
C 2701 -128 3456 666 3456 1460 
C 3456 1728 3392 1963 3149 2197 
C 3014 2331 2899 2363 2310 2516 
C 1882 2630 1824 2649 1709 2751 
C 1600 2858 1517 3011 1517 3227 
C 1517 3761 2061 4308 2669 4308 
C 3296 4308 3590 3926 3590 3323 
C 3590 3158 3558 2986 3558 2961 
C 3558 2903 3610 2903 3629 2903 
C 3686 2903 3693 2922 3718 3024 
L 4064 4423 
z
" transform="scale(0.015625)"/>
      </defs>
      <use xlink:href="#CMMI12-49" transform="scale(0.996264)"/>
      <use xlink:href="#CMMI12-44" transform="translate(43.024176 -14.943915) scale(0.697382)"/>
      <use xlink:href="#CMMI12-3d" transform="translate(102.114811 0) scale(0.996264)"/>
      <use xlink:href="#CMMI12-67" transform="translate(150.88973 0) scale(0.996264)"/>
      <use xlink:href="#CMMI12-64" transform="translate(197.600627 -14.943915) scale(0.697382)"/>
      <use xlink:href="#CMMI12-73" transform="translate(233.082833 -14.943915) scale(0.697382)"/>
      <use xlink:href="#CMR17-28" transform="translate(265.745854 0) scale(0.996264)"/>
      <use xlink:href="#CMMI12-41" transform="translate(301.026622 0) scale(0.996264)"/>
      <use xlink:href="#CMMI12-3d" transform="translate(374.154507 0) scale(0.996264)"/>
      <use xlink:href="#CMMI12-53" transform="translate(422.929426 0) scale(0.996264)"/>
      <use xlink:href="#CMR17-29" transform="translate(488.723865 0) scale(0.996264)"/>
     </g>
    </g>
   </g>
   <g id="line2d_160">
    <path d="M 57.85065 218.13752 
L 61.679846 218.137296 
L 65.509041 218.13704 
L 69.338236 218.136748 
L 73.167432 218.136414 
L 76.996627 218.136033 
L 80.825822 218.135598 
L 84.655018 218.135102 
L 88.484213 218.134535 
L 92.313408 218.133888 
L 96.142604 218.133149 
L 99.971799 218.132306 
L 103.800995 218.131344 
L 107.63019 218.130247 
L 111.459385 218.128996 
L 115.288581 218.127569 
L 119.117776 218.125943 
L 122.946971 218.12409 
L 126.776167 218.12198 
L 130.605362 218.119577 
L 134.434557 218.116843 
L 138.263753 218.113733 
L 142.092948 218.1102 
L 145.922143 218.106188 
L 149.751339 218.101636 
L 153.580534 218.096477 
L 157.40973 218.090636 
L 161.238925 218.084034 
L 165.06812 218.076581 
L 168.897316 218.068183 
L 172.726511 218.058738 
L 176.555706 218.04814 
L 180.384902 218.036278 
L 184.214097 218.02304 
L 188.043292 218.008314 
L 191.872488 217.991993 
L 195.701683 217.973989 
L 199.530878 217.954223 
L 203.360074 217.93263 
L 207.189269 217.909168 
L 211.018465 217.883821 
L 214.84766 217.856598 
L 218.676855 217.827532 
L 222.506051 217.796674 
L 226.335246 217.764079 
L 230.164441 217.729785 
L 233.993637 217.69379 
L 237.822832 217.65602 
L 241.652027 217.6163 
L 245.481223 217.574324 
L 249.310418 217.529638 
L 253.139614 217.481635 
L 256.968809 217.42956 
L 260.798004 217.37254 
L 264.6272 217.309614 
L 268.456395 217.239783 
L 272.28559 217.162055 
L 276.114786 217.075486 
L 279.943981 216.979222 
L 283.773176 216.872525 
L 287.602372 216.7548 
L 291.431567 216.625606 
L 295.260762 216.484665 
L 299.089958 216.331869 
L 302.919153 216.167272 
L 306.748349 215.991095 
L 310.577544 215.803709 
L 314.406739 215.605637 
L 318.235935 215.39753 
L 322.06513 215.180164 
L 325.894325 214.954419 
L 329.723521 214.721262 
L 333.552716 214.481734 
L 337.381911 214.23693 
L 341.211107 213.987984 
L 345.040302 213.736051 
L 348.869498 213.482296 
L 352.698693 213.227877 
L 356.527888 212.973936 
L 360.357084 212.721589 
L 364.186279 212.471916 
L 368.015474 212.225961 
L 371.84467 211.984719 
L 375.673865 211.749139 
L 379.50306 211.520122 
L 383.332256 211.298517 
L 387.161451 211.085125 
L 390.990646 210.880694 
L 394.819842 210.68593 
L 398.649037 210.501487 
L 402.478233 210.327977 
L 406.307428 210.16597 
L 410.136623 210.01599 
L 413.965819 209.878525 
L 417.795014 209.75402 
L 421.624209 209.642882 
L 425.453405 209.545479 
L 429.2826 209.462139 
L 433.111795 209.393151 
L 436.940991 209.338762 
L 440.770186 209.299174 
" clip-path="url(#p5d401756d5)" style="fill: none; stroke: #0c5da5; stroke-width: 1.5; stroke-linecap: square"/>
   </g>
   <g id="line2d_161">
    <path d="M 57.85065 208.925654 
L 61.679846 208.924969 
L 65.509041 208.924187 
L 69.338236 208.923293 
L 73.167432 208.922273 
L 76.996627 208.921107 
L 80.825822 208.919776 
L 84.655018 208.918257 
L 88.484213 208.916522 
L 92.313408 208.914541 
L 96.142604 208.912279 
L 99.971799 208.909698 
L 103.800995 208.906753 
L 107.63019 208.903391 
L 111.459385 208.899557 
L 115.288581 208.895183 
L 119.117776 208.890195 
L 122.946971 208.884509 
L 126.776167 208.878029 
L 130.605362 208.870646 
L 134.434557 208.86224 
L 138.263753 208.852671 
L 142.092948 208.841786 
L 145.922143 208.829412 
L 149.751339 208.815354 
L 153.580534 208.799398 
L 157.40973 208.781302 
L 161.238925 208.760804 
L 165.06812 208.737611 
L 168.897316 208.711407 
L 172.726511 208.681847 
L 176.555706 208.648561 
L 180.384902 208.611156 
L 184.214097 208.569218 
L 188.043292 208.522319 
L 191.872488 208.470028 
L 195.701683 208.41195 
L 199.530878 208.347698 
L 203.360074 208.276904 
L 207.189269 208.199251 
L 211.018465 208.114482 
L 214.84766 208.02242 
L 218.676855 207.922976 
L 222.506051 207.816149 
L 226.335246 207.702018 
L 230.164441 207.580715 
L 233.993637 207.45238 
L 237.822832 207.317098 
L 241.652027 207.174813 
L 245.481223 207.025236 
L 249.310418 206.867751 
L 253.139614 206.701339 
L 256.968809 206.524529 
L 260.798004 206.335397 
L 264.6272 206.131621 
L 268.456395 205.910581 
L 272.28559 205.669513 
L 276.114786 205.405675 
L 279.943981 205.116536 
L 283.773176 204.799945 
L 287.602372 204.454278 
L 291.431567 204.078548 
L 295.260762 203.67249 
L 299.089958 203.236592 
L 302.919153 202.77211 
L 306.748349 202.281047 
L 310.577544 201.766103 
L 314.406739 201.230615 
L 318.235935 200.678475 
L 322.06513 200.114032 
L 325.894325 199.541992 
L 329.723521 198.967311 
L 333.552716 198.395084 
L 337.381911 197.830444 
L 341.211107 197.278459 
L 345.040302 196.744047 
L 348.869498 196.231901 
L 352.698693 195.746422 
L 356.527888 195.291672 
L 360.357084 194.871339 
L 364.186279 194.488712 
L 368.015474 194.146671 
L 371.84467 193.847686 
L 375.673865 193.593819 
L 379.50306 193.38674 
L 383.332256 193.227742 
L 387.161451 193.117758 
L 390.990646 193.057384 
L 394.819842 193.046897 
L 398.649037 193.086276 
L 402.478233 193.175221 
L 406.307428 193.313169 
L 410.136623 193.499309 
L 413.965819 193.732595 
L 417.795014 194.01176 
L 421.624209 194.335322 
L 425.453405 194.701596 
L 429.2826 195.1087 
L 433.111795 195.554565 
L 436.940991 196.03694 
L 440.770186 196.553398 
" clip-path="url(#p5d401756d5)" style="fill: none; stroke: #00b945; stroke-width: 1.5; stroke-linecap: square"/>
   </g>
   <g id="line2d_162">
    <path d="M 57.85065 189.094062 
L 61.679846 189.093176 
L 65.509041 189.092163 
L 69.338236 189.091006 
L 73.167432 189.089685 
L 76.996627 189.088176 
L 80.825822 189.086452 
L 84.655018 189.084484 
L 88.484213 189.082236 
L 92.313408 189.07967 
L 96.142604 189.076739 
L 99.971799 189.073393 
L 103.800995 189.069574 
L 107.63019 189.065214 
L 111.459385 189.060239 
L 115.288581 189.054561 
L 119.117776 189.048084 
L 122.946971 189.040695 
L 126.776167 189.032268 
L 130.605362 189.02266 
L 134.434557 189.01171 
L 138.263753 188.999232 
L 142.092948 188.98502 
L 145.922143 188.96884 
L 149.751339 188.950427 
L 153.580534 188.929485 
L 157.40973 188.905681 
L 161.238925 188.878643 
L 165.06812 188.847953 
L 168.897316 188.813149 
L 172.726511 188.773717 
L 176.555706 188.729086 
L 180.384902 188.678628 
L 184.214097 188.621655 
L 188.043292 188.55741 
L 191.872488 188.485073 
L 195.701683 188.403799 
L 199.530878 188.31266 
L 203.360074 188.210635 
L 207.189269 188.096626 
L 211.018465 187.969445 
L 214.84766 187.827809 
L 218.676855 187.670326 
L 222.506051 187.495472 
L 226.335246 187.301572 
L 230.164441 187.086779 
L 233.993637 186.849041 
L 237.822832 186.58609 
L 241.652027 186.295427 
L 245.481223 185.974343 
L 249.310418 185.619956 
L 253.139614 185.229293 
L 256.968809 184.799415 
L 260.798004 184.327576 
L 264.6272 183.811426 
L 268.456395 183.249217 
L 272.28559 182.640028 
L 276.114786 181.98396 
L 279.943981 181.282288 
L 283.773176 180.537576 
L 287.602372 179.753709 
L 291.431567 178.935881 
L 295.260762 178.090512 
L 299.089958 177.22511 
L 302.919153 176.348099 
L 306.748349 175.468603 
L 310.577544 174.596218 
L 314.406739 173.74077 
L 318.235935 172.912074 
L 322.06513 172.119711 
L 325.894325 171.372823 
L 329.723521 170.67994 
L 333.552716 170.048841 
L 337.381911 169.486456 
L 341.211107 168.9988 
L 345.040302 168.590952 
L 348.869498 168.267051 
L 352.698693 168.030333 
L 356.527888 167.883171 
L 360.357084 167.827146 
L 364.186279 167.86311 
L 368.015474 167.99126 
L 371.84467 168.211209 
L 375.673865 168.522051 
L 379.50306 168.922419 
L 383.332256 169.41054 
L 387.161451 169.984274 
L 390.990646 170.641145 
L 394.819842 171.378374 
L 398.649037 172.192887 
L 402.478233 173.081335 
L 406.307428 174.040094 
L 410.136623 175.065268 
L 413.965819 176.152691 
L 417.795014 177.297921 
L 421.624209 178.496243 
L 425.453405 179.742669 
L 429.2826 181.031938 
L 433.111795 182.35853 
L 436.940991 183.716674 
L 440.770186 185.100376 
" clip-path="url(#p5d401756d5)" style="fill: none; stroke: #ff9500; stroke-width: 1.5; stroke-linecap: square"/>
   </g>
   <g id="line2d_163">
    <path d="M 57.85065 169.256169 
L 61.679846 169.255938 
L 65.509041 169.255675 
L 69.338236 169.255373 
L 73.167432 169.255028 
L 76.996627 169.254633 
L 80.825822 169.254181 
L 84.655018 169.253663 
L 88.484213 169.25307 
L 92.313408 169.252391 
L 96.142604 169.251613 
L 99.971799 169.25072 
L 103.800995 169.249695 
L 107.63019 169.248518 
L 111.459385 169.247166 
L 115.288581 169.245612 
L 119.117776 169.243822 
L 122.946971 169.24176 
L 126.776167 169.239382 
L 130.605362 169.236635 
L 134.434557 169.233457 
L 138.263753 169.229776 
L 142.092948 169.225503 
L 145.922143 169.220533 
L 149.751339 169.214741 
L 153.580534 169.207976 
L 157.40973 169.200052 
L 161.238925 169.190747 
L 165.06812 169.179789 
L 168.897316 169.166845 
L 172.726511 169.151509 
L 176.555706 169.133281 
L 180.384902 169.111547 
L 184.214097 169.085553 
L 188.043292 169.054369 
L 191.872488 169.016857 
L 195.701683 168.971648 
L 199.530878 168.917066 
L 203.360074 168.851063 
L 207.189269 168.771166 
L 211.018465 168.674409 
L 214.84766 168.557261 
L 218.676855 168.415561 
L 222.506051 168.244468 
L 226.335246 168.03843 
L 230.164441 167.791181 
L 233.993637 167.495797 
L 237.822832 167.144807 
L 241.652027 166.730387 
L 245.481223 166.244631 
L 249.310418 165.679924 
L 253.139614 165.029389 
L 256.968809 164.287394 
L 260.798004 163.450096 
L 264.6272 162.515959 
L 268.456395 161.486205 
L 272.28559 160.365136 
L 276.114786 159.160291 
L 279.943981 157.882393 
L 283.773176 156.545095 
L 287.602372 155.164534 
L 291.431567 153.758727 
L 295.260762 152.346877 
L 299.089958 150.948648 
L 302.919153 149.583457 
L 306.748349 148.269859 
L 310.577544 147.025035 
L 314.406739 145.86442 
L 318.235935 144.801472 
L 322.06513 143.847559 
L 325.894325 143.011971 
L 329.723521 142.302007 
L 333.552716 141.72313 
L 337.381911 141.279167 
L 341.211107 140.972517 
L 345.040302 140.804372 
L 348.869498 140.774921 
L 352.698693 140.883544 
L 356.527888 141.128972 
L 360.357084 141.509429 
L 364.186279 142.022742 
L 368.015474 142.666425 
L 371.84467 143.437737 
L 375.673865 144.33372 
L 379.50306 145.351214 
L 383.332256 146.486853 
L 387.161451 147.737052 
L 390.990646 149.097973 
L 394.819842 150.565489 
L 398.649037 152.135134 
L 402.478233 153.802057 
L 406.307428 155.560966 
L 410.136623 157.406075 
L 413.965819 159.331062 
L 417.795014 161.329021 
L 421.624209 163.392437 
L 425.453405 165.513167 
L 429.2826 167.682437 
L 433.111795 169.89086 
L 436.940991 172.128478 
L 440.770186 174.384824 
" clip-path="url(#p5d401756d5)" style="fill: none; stroke: #ff2c00; stroke-width: 1.5; stroke-linecap: square"/>
   </g>
   <g id="line2d_164">
    <path d="M 57.85065 160.027343 
L 61.679846 160.027334 
L 65.509041 160.027323 
L 69.338236 160.02731 
L 73.167432 160.027294 
L 76.996627 160.027275 
L 80.825822 160.027251 
L 84.655018 160.027222 
L 88.484213 160.027185 
L 92.313408 160.02714 
L 96.142604 160.027083 
L 99.971799 160.027012 
L 103.800995 160.026922 
L 107.63019 160.026809 
L 111.459385 160.026664 
L 115.288581 160.026481 
L 119.117776 160.026246 
L 122.946971 160.025945 
L 126.776167 160.025559 
L 130.605362 160.025061 
L 134.434557 160.02442 
L 138.263753 160.023592 
L 142.092948 160.022521 
L 145.922143 160.021135 
L 149.751339 160.01934 
L 153.580534 160.017013 
L 157.40973 160.013997 
L 161.238925 160.010086 
L 165.06812 160.005015 
L 168.897316 159.998445 
L 172.726511 159.989936 
L 176.555706 159.978925 
L 180.384902 159.964694 
L 184.214097 159.946327 
L 188.043292 159.922662 
L 191.872488 159.892233 
L 195.701683 159.853226 
L 199.530878 159.803378 
L 203.360074 159.739885 
L 207.189269 159.659313 
L 211.018465 159.557491 
L 214.84766 159.429405 
L 218.676855 159.269104 
L 222.506051 159.069612 
L 226.335246 158.822881 
L 230.164441 158.519784 
L 233.993637 158.150177 
L 237.822832 157.703049 
L 241.652027 157.166775 
L 245.481223 156.529486 
L 249.310418 155.77957 
L 253.139614 154.906278 
L 256.968809 153.900439 
L 260.798004 152.755213 
L 264.6272 151.466847 
L 268.456395 150.035361 
L 272.28559 148.465074 
L 276.114786 146.764925 
L 279.943981 144.948514 
L 283.773176 143.033861 
L 287.602372 141.042864 
L 291.431567 139.000519 
L 295.260762 136.933956 
L 299.089958 134.871393 
L 302.919153 132.841081 
L 306.748349 130.870342 
L 310.577544 128.984755 
L 314.406739 127.207542 
L 318.235935 125.559156 
L 322.06513 124.057076 
L 325.894325 122.715787 
L 329.723521 121.546889 
L 333.552716 120.559328 
L 337.381911 119.759681 
L 341.211107 119.152476 
L 345.040302 118.740518 
L 348.869498 118.525198 
L 352.698693 118.506767 
L 356.527888 118.684575 
L 360.357084 119.057264 
L 364.186279 119.622914 
L 368.015474 120.37915 
L 371.84467 121.323204 
L 375.673865 122.451946 
L 379.50306 123.761874 
L 383.332256 125.24908 
L 387.161451 126.909199 
L 390.990646 128.737323 
L 394.819842 130.727918 
L 398.649037 132.874715 
L 402.478233 135.170608 
L 406.307428 137.60755 
L 410.136623 140.17645 
L 413.965819 142.867089 
L 417.795014 145.668058 
L 421.624209 148.566715 
L 425.453405 151.549185 
L 429.2826 154.600392 
L 433.111795 157.704144 
L 436.940991 160.843262 
L 440.770186 163.999763 
" clip-path="url(#p5d401756d5)" style="fill: none; stroke: #845b97; stroke-width: 1.5; stroke-linecap: square"/>
   </g>
   <g id="line2d_165">
    <path d="M 57.85065 152.761644 
L 61.679846 152.761639 
L 65.509041 152.761633 
L 69.338236 152.761626 
L 73.167432 152.761615 
L 76.996627 152.761602 
L 80.825822 152.761585 
L 84.655018 152.761563 
L 88.484213 152.761533 
L 92.313408 152.761495 
L 96.142604 152.761446 
L 99.971799 152.761381 
L 103.800995 152.761296 
L 107.63019 152.761185 
L 111.459385 152.76104 
L 115.288581 152.760851 
L 119.117776 152.760602 
L 122.946971 152.760277 
L 126.776167 152.759852 
L 130.605362 152.759295 
L 134.434557 152.758566 
L 138.263753 152.757612 
L 142.092948 152.756364 
L 145.922143 152.754732 
L 149.751339 152.752599 
L 153.580534 152.749812 
L 157.40973 152.746174 
L 161.238925 152.741428 
L 165.06812 152.735243 
L 168.897316 152.72719 
L 172.726511 152.716718 
L 176.555706 152.703119 
L 180.384902 152.685488 
L 184.214097 152.662669 
L 188.043292 152.633197 
L 191.872488 152.595221 
L 195.701683 152.546446 
L 199.530878 152.484008 
L 203.360074 152.404356 
L 207.189269 152.303132 
L 211.018465 152.175033 
L 214.84766 152.013678 
L 218.676855 151.811464 
L 222.506051 151.559457 
L 226.335246 151.2473 
L 230.164441 150.863185 
L 233.993637 150.393894 
L 237.822832 149.824939 
L 241.652027 149.140832 
L 245.481223 148.325487 
L 249.310418 147.362778 
L 253.139614 146.237252 
L 256.968809 144.934966 
L 260.798004 143.444415 
L 264.6272 141.757504 
L 268.456395 139.870467 
L 272.28559 137.784674 
L 276.114786 135.507222 
L 279.943981 133.051247 
L 283.773176 130.435902 
L 287.602372 127.685984 
L 291.431567 124.831233 
L 295.260762 121.90534 
L 299.089958 118.944772 
L 302.919153 115.987492 
L 306.748349 113.071686 
L 310.577544 110.234594 
L 314.406739 107.511512 
L 318.235935 104.935015 
L 322.06513 102.53442 
L 325.894325 100.335479 
L 329.723521 98.360282 
L 333.552716 96.627328 
L 337.381911 95.151725 
L 341.211107 93.945475 
L 345.040302 93.017796 
L 348.869498 92.375463 
L 352.698693 92.023131 
L 356.527888 91.963627 
L 360.357084 92.198198 
L 364.186279 92.726699 
L 368.015474 93.54774 
L 371.84467 94.658767 
L 375.673865 96.056098 
L 379.50306 97.734916 
L 383.332256 99.689215 
L 387.161451 101.911719 
L 390.990646 104.393775 
L 394.819842 107.12523 
L 398.649037 110.094305 
L 402.478233 113.287473 
L 406.307428 116.68935 
L 410.136623 120.28262 
L 413.965819 124.047995 
L 417.795014 127.964228 
L 421.624209 132.008189 
L 425.453405 136.155007 
L 429.2826 140.378286 
L 433.111795 144.650406 
L 436.940991 148.942891 
L 440.770186 153.226846 
" clip-path="url(#p5d401756d5)" style="fill: none; stroke: #474747; stroke-width: 1.5; stroke-linecap: square"/>
   </g>
   <g id="line2d_166">
    <path d="M 57.85065 145.817655 
L 61.679846 145.81765 
L 65.509041 145.817643 
L 69.338236 145.817634 
L 73.167432 145.817622 
L 76.996627 145.817607 
L 80.825822 145.817586 
L 84.655018 145.81756 
L 88.484213 145.817525 
L 92.313408 145.81748 
L 96.142604 145.817421 
L 99.971799 145.817343 
L 103.800995 145.817241 
L 107.63019 145.817108 
L 111.459385 145.816933 
L 115.288581 145.816704 
L 119.117776 145.816404 
L 122.946971 145.816011 
L 126.776167 145.815495 
L 130.605362 145.81482 
L 134.434557 145.813935 
L 138.263753 145.812777 
L 142.092948 145.81126 
L 145.922143 145.809276 
L 149.751339 145.806682 
L 153.580534 145.803291 
L 157.40973 145.798863 
L 161.238925 145.793084 
L 165.06812 145.78555 
L 168.897316 145.77574 
L 172.726511 145.762979 
L 176.555706 145.746405 
L 180.384902 145.724912 
L 184.214097 145.697091 
L 188.043292 145.66115 
L 191.872488 145.614828 
L 195.701683 145.555321 
L 199.530878 145.479125 
L 203.360074 145.381895 
L 207.189269 145.258287 
L 211.018465 145.101797 
L 214.84766 144.904576 
L 218.676855 144.65726 
L 222.506051 144.348803 
L 226.335246 143.966358 
L 230.164441 143.4952 
L 233.993637 142.918737 
L 237.822832 142.218633 
L 241.652027 141.375061 
L 245.481223 140.367119 
L 249.310418 139.173429 
L 253.139614 137.77291 
L 256.968809 136.14572 
L 260.798004 134.274343 
L 264.6272 132.144746 
L 268.456395 129.747553 
L 272.28559 127.079149 
L 276.114786 124.142599 
L 279.943981 120.948321 
L 283.773176 117.514416 
L 287.602372 113.866623 
L 291.431567 110.037864 
L 295.260762 106.067433 
L 299.089958 101.999847 
L 302.919153 97.883494 
L 306.748349 93.76914 
L 310.577544 89.708431 
L 314.406739 85.752486 
L 318.235935 81.95065 
L 322.06513 78.349472 
L 325.894325 74.991927 
L 329.723521 71.916896 
L 333.552716 69.158861 
L 337.381911 66.747805 
L 341.211107 64.709253 
L 345.040302 63.064435 
L 348.869498 61.830494 
L 352.698693 61.020743 
L 356.527888 60.644905 
L 360.357084 60.70934 
L 364.186279 61.217223 
L 368.015474 62.16869 
L 371.84467 63.560918 
L 375.673865 65.388165 
L 379.50306 67.641773 
L 383.332256 70.31013 
L 387.161451 73.378621 
L 390.990646 76.829565 
L 394.819842 80.642168 
L 398.649037 84.792503 
L 402.478233 89.253526 
L 406.307428 93.995158 
L 410.136623 98.98443 
L 413.965819 104.185722 
L 417.795014 109.561083 
L 421.624209 115.070646 
L 425.453405 120.673142 
L 429.2826 126.326483 
L 433.111795 131.988427 
L 436.940991 137.617281 
L 440.770186 143.172642 
" clip-path="url(#p5d401756d5)" style="fill: none; stroke: #9e9e9e; stroke-width: 1.5; stroke-linecap: square"/>
   </g>
   <g id="line2d_167">
    <path d="M 57.85065 140.402292 
L 61.679846 140.402286 
L 65.509041 140.402279 
L 69.338236 140.402269 
L 73.167432 140.402255 
L 76.996627 140.402238 
L 80.825822 140.402215 
L 84.655018 140.402185 
L 88.484213 140.402146 
L 92.313408 140.402094 
L 96.142604 140.402026 
L 99.971799 140.401938 
L 103.800995 140.401821 
L 107.63019 140.401669 
L 111.459385 140.401468 
L 115.288581 140.401206 
L 119.117776 140.400862 
L 122.946971 140.40041 
L 126.776167 140.399818 
L 130.605362 140.399042 
L 134.434557 140.398025 
L 138.263753 140.396693 
L 142.092948 140.394949 
L 145.922143 140.392666 
L 149.751339 140.38968 
L 153.580534 140.385777 
L 157.40973 140.380679 
L 161.238925 140.374026 
L 165.06812 140.36535 
L 168.897316 140.354051 
L 172.726511 140.339353 
L 176.555706 140.32026 
L 180.384902 140.295498 
L 184.214097 140.26344 
L 188.043292 140.222022 
L 191.872488 140.168634 
L 195.701683 140.100039 
L 199.530878 140.012193 
L 203.360074 139.90007 
L 207.189269 139.757495 
L 211.018465 139.576935 
L 214.84766 139.349293 
L 218.676855 139.063692 
L 222.506051 138.707276 
L 226.335246 138.265046 
L 230.164441 137.719748 
L 233.993637 137.051843 
L 237.822832 136.239602 
L 241.652027 135.25933 
L 245.481223 134.085778 
L 249.310418 132.692742 
L 253.139614 131.053861 
L 256.968809 129.143621 
L 260.798004 126.938525 
L 264.6272 124.41839 
L 268.456395 121.567703 
L 272.28559 118.376959 
L 276.114786 114.843878 
L 279.943981 110.974411 
L 283.773176 106.783446 
L 287.602372 102.295143 
L 291.431567 97.542854 
L 295.260762 92.568617 
L 299.089958 87.422259 
L 302.919153 82.160153 
L 306.748349 76.843734 
L 310.577544 71.537865 
L 314.406739 66.309159 
L 318.235935 61.22436 
L 322.06513 56.348863 
L 325.894325 51.745421 
L 329.723521 47.473083 
L 333.552716 43.586366 
L 337.381911 40.13464 
L 341.211107 37.161716 
L 345.040302 34.705587 
L 348.869498 32.798296 
L 352.698693 31.465886 
L 356.527888 30.728404 
L 360.357084 30.599934 
L 364.186279 31.088641 
L 368.015474 32.196811 
L 371.84467 33.92089 
L 375.673865 36.251525 
L 379.50306 39.17361 
L 383.332256 42.666355 
L 387.161451 46.703397 
L 390.990646 51.252957 
L 394.819842 56.278078 
L 398.649037 61.736941 
L 402.478233 67.583288 
L 406.307428 73.766943 
L 410.136623 80.234446 
L 413.965819 86.929791 
L 417.795014 93.795249 
L 421.624209 100.772277 
L 425.453405 107.802466 
L 429.2826 114.828521 
L 433.111795 121.795222 
L 436.940991 128.65035 
L 440.770186 135.345534 
" clip-path="url(#p5d401756d5)" style="fill: none; stroke: #0c5da5; stroke-width: 1.5; stroke-linecap: square"/>
   </g>
   <g id="patch_3">
    <path d="M 38.704673 227.514399 
L 38.704673 21.223055 
" style="fill: none; stroke: #000000; stroke-width: 0.5; stroke-linejoin: miter; stroke-linecap: square"/>
   </g>
   <g id="patch_4">
    <path d="M 459.916163 227.514399 
L 459.916163 21.223055 
" style="fill: none; stroke: #000000; stroke-width: 0.5; stroke-linejoin: miter; stroke-linecap: square"/>
   </g>
   <g id="patch_5">
    <path d="M 38.704673 227.514399 
L 459.916163 227.514399 
" style="fill: none; stroke: #000000; stroke-width: 0.5; stroke-linejoin: miter; stroke-linecap: square"/>
   </g>
   <g id="patch_6">
    <path d="M 38.704673 21.223055 
L 459.916163 21.223055 
" style="fill: none; stroke: #000000; stroke-width: 0.5; stroke-linejoin: miter; stroke-linecap: square"/>
   </g>
   <g id="text_15">
    <!-- NMOS_VTH, $V_{ \mathrm{ SB } }=0.00$, $V_{ \mathrm{ DS } }=0.50$ -->
    <g transform="translate(119.784095 15.223055) scale(0.168 -0.168)">
     <defs>
      <path id="CMSS17-4e" d="M 1466 4180 
L 1350 4416 
L 563 4416 
L 563 0 
L 1062 0 
L 1062 3926 
L 1069 3932 
C 1114 3817 1139 3760 1402 3194 
L 2771 236 
L 2886 0 
L 3674 0 
L 3674 4416 
L 3174 4416 
L 3174 490 
L 3168 483 
C 3123 598 3098 655 2835 1221 
L 1466 4180 
z
" transform="scale(0.015625)"/>
      <path id="CMSS17-4d" d="M 3194 2371 
L 2886 1473 
C 2835 1307 2662 791 2624 587 
L 2618 587 
C 2598 715 2560 849 2458 1174 
C 2400 1365 2336 1562 2272 1741 
L 1325 4416 
L 576 4416 
L 576 0 
L 1075 0 
L 1075 3900 
L 1082 3900 
C 1082 3894 1139 3613 1530 2499 
L 2374 96 
L 2848 96 
L 3610 2231 
C 3661 2378 3821 2843 3891 3066 
C 3955 3257 4115 3728 4154 3913 
L 4160 3913 
L 4160 0 
L 4666 0 
L 4666 4416 
L 3923 4416 
L 3194 2371 
z
" transform="scale(0.015625)"/>
      <path id="CMSS17-4f" d="M 4096 2178 
C 4096 3503 3219 4497 2214 4497 
C 1210 4497 333 3497 333 2178 
C 333 847 1222 -128 2214 -128 
C 3206 -128 4096 847 4096 2178 
z
M 2214 273 
C 1510 273 870 1057 870 2261 
C 870 3433 1549 4096 2214 4096 
C 2880 4096 3558 3433 3558 2261 
C 3558 1051 2912 273 2214 273 
z
" transform="scale(0.015625)"/>
      <path id="CMSS17-53" d="M 2797 4169 
C 2515 4334 2208 4480 1690 4480 
C 864 4480 333 3879 333 3266 
C 333 3025 403 2753 653 2475 
C 902 2196 1184 2121 1542 2033 
C 1690 1994 1939 1924 1984 1906 
C 2342 1767 2515 1444 2515 1140 
C 2515 742 2202 318 1645 318 
C 1453 318 890 318 358 819 
L 269 318 
C 794 -64 1363 -128 1651 -128 
C 2438 -128 3002 488 3002 1186 
C 3002 1440 2925 1763 2656 2061 
C 2394 2347 2163 2410 1638 2549 
C 1338 2626 1146 2677 986 2873 
C 877 3013 819 3146 819 3317 
C 819 3673 1126 4060 1690 4060 
C 1971 4060 2336 4002 2707 3660 
L 2797 4169 
z
" transform="scale(0.015625)"/>
      <path id="CMSS17-56" d="M 3910 4416 
L 3411 4416 
L 2304 1362 
C 2272 1273 2074 688 2035 484 
L 2029 484 
C 1978 726 1773 1292 1664 1604 
L 922 3672 
L 646 4416 
L 83 4416 
L 1715 0 
L 2278 0 
L 3910 4416 
z
" transform="scale(0.015625)"/>
      <path id="CMSS17-54" d="M 2317 3968 
L 2848 3968 
C 2925 3968 3002 3968 3078 3968 
L 3878 3968 
L 3878 4376 
L 218 4376 
L 218 3968 
L 1018 3968 
C 1094 3968 1171 3968 1248 3968 
L 1779 3968 
L 1779 -32 
L 2317 -32 
L 2317 3968 
z
" transform="scale(0.015625)"/>
      <path id="CMSS17-48" d="M 3674 4416 
L 3136 4416 
L 3136 2501 
L 1101 2501 
L 1101 4416 
L 563 4416 
L 563 0 
L 1101 0 
L 1101 2112 
L 3136 2112 
L 3136 0 
L 3674 0 
L 3674 4416 
z
" transform="scale(0.015625)"/>
      <path id="CMSS17-2c" d="M 1088 6 
L 1088 510 
L 576 510 
L 576 0 
L 736 0 
L 570 -800 
L 826 -800 
L 1088 6 
z
" transform="scale(0.015625)"/>
      <path id="CMR17-42" d="M 333 4352 
L 333 4186 
C 774 4186 845 4186 845 3900 
L 845 452 
C 845 166 774 166 333 166 
L 333 0 
L 2534 0 
C 3354 0 3885 583 3885 1164 
C 3885 1741 3360 2233 2675 2233 
C 3290 2356 3718 2771 3718 3264 
C 3718 3802 3194 4352 2368 4352 
L 333 4352 
z
M 1248 2304 
L 1248 3937 
C 1248 4155 1261 4186 1517 4186 
L 2336 4186 
C 2970 4186 3251 3674 3251 3277 
C 3251 2791 2861 2304 2170 2304 
L 1248 2304 
z
M 1517 166 
C 1261 166 1248 197 1248 413 
L 1248 2202 
L 2432 2202 
C 3091 2202 3411 1625 3411 1162 
C 3411 699 3046 166 2349 166 
L 1517 166 
z
" transform="scale(0.015625)"/>
      <path id="CMR17-3d" d="M 4115 2017 
C 4211 2017 4307 2017 4307 2125 
C 4307 2240 4198 2240 4090 2240 
L 512 2240 
C 403 2240 294 2240 294 2125 
C 294 2017 390 2017 486 2017 
L 4115 2017 
z
M 4090 896 
C 4198 896 4307 896 4307 1011 
C 4307 1119 4211 1119 4115 1119 
L 486 1119 
C 390 1119 294 1119 294 1011 
C 294 896 403 896 512 896 
L 4090 896 
z
" transform="scale(0.015625)"/>
      <path id="CMR17-44" d="M 333 4352 
L 333 4186 
C 774 4186 845 4186 845 3900 
L 845 452 
C 845 166 774 166 333 166 
L 333 0 
L 2368 0 
C 3398 0 4224 943 4224 2141 
C 4224 3346 3411 4352 2368 4352 
L 333 4352 
z
M 1523 166 
C 1267 166 1254 197 1254 414 
L 1254 3938 
C 1254 4155 1267 4186 1523 4186 
L 2240 4186 
C 2771 4186 3750 3874 3750 2141 
C 3750 1242 3488 879 3366 707 
C 3213 510 2848 166 2240 166 
L 1523 166 
z
" transform="scale(0.015625)"/>
     </defs>
     <use xlink:href="#CMSS17-4e" transform="scale(0.996264)"/>
     <use xlink:href="#CMSS17-4d" transform="translate(66.061519 0) scale(0.996264)"/>
     <use xlink:href="#CMSS17-4f" transform="translate(147.737549 0) scale(0.996264)"/>
     <use xlink:href="#CMSS17-53" transform="translate(216.761804 0) scale(0.996264)"/>
     <use xlink:href="#CMSS17-56" transform="translate(302.537816 0) scale(0.996264)"/>
     <use xlink:href="#CMSS17-54" transform="translate(364.755671 0) scale(0.996264)"/>
     <use xlink:href="#CMSS17-48" transform="translate(428.575125 0) scale(0.996264)"/>
     <use xlink:href="#CMSS17-2c" transform="translate(494.636644 0) scale(0.996264)"/>
     <use xlink:href="#CMMI12-56" transform="translate(551.889962 0) scale(0.996264)"/>
     <use xlink:href="#CMR17-53" transform="translate(608.759541 -14.943915) scale(0.697382)"/>
     <use xlink:href="#CMR17-42" transform="translate(644.386149 -14.943915) scale(0.697382)"/>
     <use xlink:href="#CMR17-3d" transform="translate(718.19021 0) scale(0.996264)"/>
     <use xlink:href="#CMR17-30" transform="translate(817.579007 0) scale(0.996264)"/>
     <use xlink:href="#CMMI12-3a" transform="translate(863.269484 0) scale(0.996264)"/>
     <use xlink:href="#CMR17-30" transform="translate(890.366661 0) scale(0.996264)"/>
     <use xlink:href="#CMR17-30" transform="translate(936.057138 0) scale(0.996264)"/>
     <use xlink:href="#CMSS17-2c" transform="translate(981.747615 0) scale(0.996264)"/>
     <use xlink:href="#CMMI12-56" transform="translate(1039.000933 0) scale(0.996264)"/>
     <use xlink:href="#CMR17-44" transform="translate(1095.870512 -14.943915) scale(0.697382)"/>
     <use xlink:href="#CMR17-53" transform="translate(1145.145782 -14.943915) scale(0.697382)"/>
     <use xlink:href="#CMR17-3d" transform="translate(1208.944531 0) scale(0.996264)"/>
     <use xlink:href="#CMR17-30" transform="translate(1308.333328 0) scale(0.996264)"/>
     <use xlink:href="#CMMI12-3a" transform="translate(1354.023805 0) scale(0.996264)"/>
     <use xlink:href="#CMR17-35" transform="translate(1381.120982 0) scale(0.996264)"/>
     <use xlink:href="#CMR17-30" transform="translate(1426.81146 0) scale(0.996264)"/>
     <path d="M 274.431332 0 
L 302.537816 0 
L 302.537816 0.3985 
L 274.431332 0.3985 
L 274.431332 0 
z
"/>
    </g>
   </g>
   <g id="legend_1">
    <g id="line2d_168">
     <path d="M 472.516163 54.720613 
L 486.516163 54.720613 
L 500.516163 54.720613 
" style="fill: none; stroke: #0c5da5; stroke-width: 1.5; stroke-linecap: square"/>
    </g>
    <g id="text_16">
     <!-- $45$ n -->
     <g transform="translate(511.716163 59.620613) scale(0.14 -0.14)">
      <defs>
       <path id="CMSS17-6e" d="M 2618 1877 
C 2618 2283 2522 2816 1798 2816 
C 1389 2816 1120 2606 941 2389 
L 941 2758 
L 474 2758 
L 474 0 
L 960 0 
L 960 1559 
C 960 1964 1114 2428 1549 2428 
C 2112 2428 2131 2048 2131 1829 
L 2131 0 
L 2618 0 
L 2618 1877 
z
" transform="scale(0.015625)"/>
      </defs>
      <use xlink:href="#CMR17-34" transform="scale(0.996264)"/>
      <use xlink:href="#CMR17-35" transform="translate(45.690477 0) scale(0.996264)"/>
      <use xlink:href="#CMSS17-6e" transform="translate(122.610067 0) scale(0.996264)"/>
     </g>
    </g>
    <g id="line2d_169">
     <path d="M 472.516163 74.232642 
L 486.516163 74.232642 
L 500.516163 74.232642 
" style="fill: none; stroke: #00b945; stroke-width: 1.5; stroke-linecap: square"/>
    </g>
    <g id="text_17">
     <!-- $100$ n -->
     <g transform="translate(511.716163 79.132642) scale(0.14 -0.14)">
      <use xlink:href="#CMR17-31" transform="scale(0.996264)"/>
      <use xlink:href="#CMR17-30" transform="translate(45.690477 0) scale(0.996264)"/>
      <use xlink:href="#CMR17-30" transform="translate(91.380954 0) scale(0.996264)"/>
      <use xlink:href="#CMSS17-6e" transform="translate(168.300544 0) scale(0.996264)"/>
     </g>
    </g>
    <g id="line2d_170">
     <path d="M 472.516163 93.74467 
L 486.516163 93.74467 
L 500.516163 93.74467 
" style="fill: none; stroke: #ff9500; stroke-width: 1.5; stroke-linecap: square"/>
    </g>
    <g id="text_18">
     <!-- $200$ n -->
     <g transform="translate(511.716163 98.64467) scale(0.14 -0.14)">
      <use xlink:href="#CMR17-32" transform="scale(0.996264)"/>
      <use xlink:href="#CMR17-30" transform="translate(45.690477 0) scale(0.996264)"/>
      <use xlink:href="#CMR17-30" transform="translate(91.380954 0) scale(0.996264)"/>
      <use xlink:href="#CMSS17-6e" transform="translate(168.300544 0) scale(0.996264)"/>
     </g>
    </g>
    <g id="line2d_171">
     <path d="M 472.516163 113.256699 
L 486.516163 113.256699 
L 500.516163 113.256699 
" style="fill: none; stroke: #ff2c00; stroke-width: 1.5; stroke-linecap: square"/>
    </g>
    <g id="text_19">
     <!-- $400$ n -->
     <g transform="translate(511.716163 118.156699) scale(0.14 -0.14)">
      <use xlink:href="#CMR17-34" transform="scale(0.996264)"/>
      <use xlink:href="#CMR17-30" transform="translate(45.690477 0) scale(0.996264)"/>
      <use xlink:href="#CMR17-30" transform="translate(91.380954 0) scale(0.996264)"/>
      <use xlink:href="#CMSS17-6e" transform="translate(168.300544 0) scale(0.996264)"/>
     </g>
    </g>
    <g id="line2d_172">
     <path d="M 472.516163 132.768727 
L 486.516163 132.768727 
L 500.516163 132.768727 
" style="fill: none; stroke: #845b97; stroke-width: 1.5; stroke-linecap: square"/>
    </g>
    <g id="text_20">
     <!-- $800$ n -->
     <g transform="translate(511.716163 137.668727) scale(0.14 -0.14)">
      <use xlink:href="#CMR17-38" transform="scale(0.996264)"/>
      <use xlink:href="#CMR17-30" transform="translate(45.690477 0) scale(0.996264)"/>
      <use xlink:href="#CMR17-30" transform="translate(91.380954 0) scale(0.996264)"/>
      <use xlink:href="#CMSS17-6e" transform="translate(168.300544 0) scale(0.996264)"/>
     </g>
    </g>
    <g id="line2d_173">
     <path d="M 472.516163 152.280755 
L 486.516163 152.280755 
L 500.516163 152.280755 
" style="fill: none; stroke: #474747; stroke-width: 1.5; stroke-linecap: square"/>
    </g>
    <g id="text_21">
     <!-- $1.6$  -->
     <g transform="translate(511.716163 157.180755) scale(0.14 -0.14)">
      <defs>
       <path id="SFSS3583-b5" d="M 544 2701 
L 544 -1216 
L 819 -1216 
L 819 65 
C 934 18 1056 0 1184 0 
C 1523 0 1971 160 2125 422 
L 2131 32 
L 2400 32 
L 2400 2701 
L 2125 2701 
L 2125 1341 
C 2125 1259 2131 1169 2131 1080 
C 2131 530 1786 243 1350 243 
C 1050 243 819 346 819 754 
L 819 2701 
L 544 2701 
z
" transform="scale(0.015625)"/>
      </defs>
      <use xlink:href="#CMR17-31" transform="scale(0.996264)"/>
      <use xlink:href="#CMMI12-3a" transform="translate(45.690477 0) scale(0.996264)"/>
      <use xlink:href="#CMR17-36" transform="translate(72.787654 0) scale(0.996264)"/>
      <use xlink:href="#SFSS3583-b5" transform="translate(149.707244 0) scale(0.996264)"/>
     </g>
    </g>
    <g id="line2d_174">
     <path d="M 472.516163 171.792784 
L 486.516163 171.792784 
L 500.516163 171.792784 
" style="fill: none; stroke: #9e9e9e; stroke-width: 1.5; stroke-linecap: square"/>
    </g>
    <g id="text_22">
     <!-- $3.2$  -->
     <g transform="translate(511.716163 176.692784) scale(0.14 -0.14)">
      <use xlink:href="#CMR17-33" transform="scale(0.996264)"/>
      <use xlink:href="#CMMI12-3a" transform="translate(45.690477 0) scale(0.996264)"/>
      <use xlink:href="#CMR17-32" transform="translate(72.787654 0) scale(0.996264)"/>
      <use xlink:href="#SFSS3583-b5" transform="translate(149.707244 0) scale(0.996264)"/>
     </g>
    </g>
    <g id="line2d_175">
     <path d="M 472.516163 191.304812 
L 486.516163 191.304812 
L 500.516163 191.304812 
" style="fill: none; stroke: #0c5da5; stroke-width: 1.5; stroke-linecap: square"/>
    </g>
    <g id="text_23">
     <!-- $6.4$  -->
     <g transform="translate(511.716163 196.204812) scale(0.14 -0.14)">
      <use xlink:href="#CMR17-36" transform="scale(0.996264)"/>
      <use xlink:href="#CMMI12-3a" transform="translate(45.690477 0) scale(0.996264)"/>
      <use xlink:href="#CMR17-34" transform="translate(72.787654 0) scale(0.996264)"/>
      <use xlink:href="#SFSS3583-b5" transform="translate(149.707244 0) scale(0.996264)"/>
     </g>
    </g>
   </g>
  </g>
 </g>
 <defs>
  <clipPath id="p5d401756d5">
   <rect x="38.704673" y="21.223055" width="421.21149" height="206.291344"/>
  </clipPath>
 </defs>
</svg>
