<?xml version="1.0" encoding="utf-8" standalone="no"?>
<!DOCTYPE svg PUBLIC "-//W3C//DTD SVG 1.1//EN"
  "http://www.w3.org/Graphics/SVG/1.1/DTD/svg11.dtd">
<svg xmlns:xlink="http://www.w3.org/1999/xlink" width="576pt" height="288pt" viewBox="0 0 576 288" xmlns="http://www.w3.org/2000/svg" version="1.1">
 <metadata>
  <rdf:RDF xmlns:dc="http://purl.org/dc/elements/1.1/" xmlns:cc="http://creativecommons.org/ns#" xmlns:rdf="http://www.w3.org/1999/02/22-rdf-syntax-ns#">
   <cc:Work>
    <dc:type rdf:resource="http://purl.org/dc/dcmitype/StillImage"/>
    <dc:date>2022-11-29T11:42:52.429403</dc:date>
    <dc:format>image/svg+xml</dc:format>
    <dc:creator>
     <cc:Agent>
      <dc:title>Matplotlib v3.6.0, https://matplotlib.org/</dc:title>
     </cc:Agent>
    </dc:creator>
   </cc:Work>
  </rdf:RDF>
 </metadata>
 <defs>
  <style type="text/css">*{stroke-linejoin: round; stroke-linecap: butt}</style>
 </defs>
 <g id="figure_1">
  <g id="patch_1">
   <path d="M 0 288 
L 576 288 
L 576 0 
L 0 0 
z
" style="fill: #ffffff"/>
  </g>
  <g id="axes_1">
   <g id="patch_2">
    <path d="M 50.565625 246.821875 
L 495.596875 246.821875 
L 495.596875 25.8 
L 50.565625 25.8 
z
" style="fill: #ffffff"/>
   </g>
   <g id="matplotlib.axis_1">
    <g id="xtick_1">
     <g id="line2d_1">
      <path d="M 104.507291 246.821875 
L 104.507291 25.8 
" clip-path="url(#p47b96cbf75)" style="fill: none; stroke-dasharray: 2.96,1.28; stroke-dashoffset: 0; stroke: #a6a6a6; stroke-width: 0.8"/>
     </g>
     <g id="line2d_2">
      <defs>
       <path id="mdd85811904" d="M 0 0 
L 0 3.5 
" style="stroke: #000000; stroke-width: 0.8"/>
      </defs>
      <g>
       <use xlink:href="#mdd85811904" x="104.507291" y="246.821875" style="stroke: #000000; stroke-width: 0.8"/>
      </g>
     </g>
     <g id="text_1">
      <!-- 5 -->
      <g transform="translate(101.326041 261.420313) scale(0.1 -0.1)">
       <defs>
        <path id="DejaVuSans-35" d="M 691 4666 
L 3169 4666 
L 3169 4134 
L 1269 4134 
L 1269 2991 
Q 1406 3038 1543 3061 
Q 1681 3084 1819 3084 
Q 2600 3084 3056 2656 
Q 3513 2228 3513 1497 
Q 3513 744 3044 326 
Q 2575 -91 1722 -91 
Q 1428 -91 1123 -41 
Q 819 9 494 109 
L 494 744 
Q 775 591 1075 516 
Q 1375 441 1709 441 
Q 2250 441 2565 725 
Q 2881 1009 2881 1497 
Q 2881 1984 2565 2268 
Q 2250 2553 1709 2553 
Q 1456 2553 1204 2497 
Q 953 2441 691 2322 
L 691 4666 
z
" transform="scale(0.015625)"/>
       </defs>
       <use xlink:href="#DejaVuSans-35"/>
      </g>
     </g>
    </g>
    <g id="xtick_2">
     <g id="line2d_3">
      <path d="M 187.515964 246.821875 
L 187.515964 25.8 
" clip-path="url(#p47b96cbf75)" style="fill: none; stroke-dasharray: 2.96,1.28; stroke-dashoffset: 0; stroke: #a6a6a6; stroke-width: 0.8"/>
     </g>
     <g id="line2d_4">
      <g>
       <use xlink:href="#mdd85811904" x="187.515964" y="246.821875" style="stroke: #000000; stroke-width: 0.8"/>
      </g>
     </g>
     <g id="text_2">
      <!-- 10 -->
      <g transform="translate(181.153464 261.420313) scale(0.1 -0.1)">
       <defs>
        <path id="DejaVuSans-31" d="M 794 531 
L 1825 531 
L 1825 4091 
L 703 3866 
L 703 4441 
L 1819 4666 
L 2450 4666 
L 2450 531 
L 3481 531 
L 3481 0 
L 794 0 
L 794 531 
z
" transform="scale(0.015625)"/>
        <path id="DejaVuSans-30" d="M 2034 4250 
Q 1547 4250 1301 3770 
Q 1056 3291 1056 2328 
Q 1056 1369 1301 889 
Q 1547 409 2034 409 
Q 2525 409 2770 889 
Q 3016 1369 3016 2328 
Q 3016 3291 2770 3770 
Q 2525 4250 2034 4250 
z
M 2034 4750 
Q 2819 4750 3233 4129 
Q 3647 3509 3647 2328 
Q 3647 1150 3233 529 
Q 2819 -91 2034 -91 
Q 1250 -91 836 529 
Q 422 1150 422 2328 
Q 422 3509 836 4129 
Q 1250 4750 2034 4750 
z
" transform="scale(0.015625)"/>
       </defs>
       <use xlink:href="#DejaVuSans-31"/>
       <use xlink:href="#DejaVuSans-30" x="63.623047"/>
      </g>
     </g>
    </g>
    <g id="xtick_3">
     <g id="line2d_5">
      <path d="M 270.524636 246.821875 
L 270.524636 25.8 
" clip-path="url(#p47b96cbf75)" style="fill: none; stroke-dasharray: 2.96,1.28; stroke-dashoffset: 0; stroke: #a6a6a6; stroke-width: 0.8"/>
     </g>
     <g id="line2d_6">
      <g>
       <use xlink:href="#mdd85811904" x="270.524636" y="246.821875" style="stroke: #000000; stroke-width: 0.8"/>
      </g>
     </g>
     <g id="text_3">
      <!-- 15 -->
      <g transform="translate(264.162136 261.420313) scale(0.1 -0.1)">
       <use xlink:href="#DejaVuSans-31"/>
       <use xlink:href="#DejaVuSans-35" x="63.623047"/>
      </g>
     </g>
    </g>
    <g id="xtick_4">
     <g id="line2d_7">
      <path d="M 353.533309 246.821875 
L 353.533309 25.8 
" clip-path="url(#p47b96cbf75)" style="fill: none; stroke-dasharray: 2.96,1.28; stroke-dashoffset: 0; stroke: #a6a6a6; stroke-width: 0.8"/>
     </g>
     <g id="line2d_8">
      <g>
       <use xlink:href="#mdd85811904" x="353.533309" y="246.821875" style="stroke: #000000; stroke-width: 0.8"/>
      </g>
     </g>
     <g id="text_4">
      <!-- 20 -->
      <g transform="translate(347.170809 261.420313) scale(0.1 -0.1)">
       <defs>
        <path id="DejaVuSans-32" d="M 1228 531 
L 3431 531 
L 3431 0 
L 469 0 
L 469 531 
Q 828 903 1448 1529 
Q 2069 2156 2228 2338 
Q 2531 2678 2651 2914 
Q 2772 3150 2772 3378 
Q 2772 3750 2511 3984 
Q 2250 4219 1831 4219 
Q 1534 4219 1204 4116 
Q 875 4013 500 3803 
L 500 4441 
Q 881 4594 1212 4672 
Q 1544 4750 1819 4750 
Q 2544 4750 2975 4387 
Q 3406 4025 3406 3419 
Q 3406 3131 3298 2873 
Q 3191 2616 2906 2266 
Q 2828 2175 2409 1742 
Q 1991 1309 1228 531 
z
" transform="scale(0.015625)"/>
       </defs>
       <use xlink:href="#DejaVuSans-32"/>
       <use xlink:href="#DejaVuSans-30" x="63.623047"/>
      </g>
     </g>
    </g>
    <g id="xtick_5">
     <g id="line2d_9">
      <path d="M 436.541982 246.821875 
L 436.541982 25.8 
" clip-path="url(#p47b96cbf75)" style="fill: none; stroke-dasharray: 2.96,1.28; stroke-dashoffset: 0; stroke: #a6a6a6; stroke-width: 0.8"/>
     </g>
     <g id="line2d_10">
      <g>
       <use xlink:href="#mdd85811904" x="436.541982" y="246.821875" style="stroke: #000000; stroke-width: 0.8"/>
      </g>
     </g>
     <g id="text_5">
      <!-- 25 -->
      <g transform="translate(430.179482 261.420313) scale(0.1 -0.1)">
       <use xlink:href="#DejaVuSans-32"/>
       <use xlink:href="#DejaVuSans-35" x="63.623047"/>
      </g>
     </g>
    </g>
    <g id="text_6">
     <!-- $g_m/I_D (S/A)$ -->
     <g transform="translate(248.18125 275.1) scale(0.1 -0.1)">
      <defs>
       <path id="DejaVuSans-Oblique-67" d="M 3816 3500 
L 3219 434 
Q 3047 -456 2561 -893 
Q 2075 -1331 1253 -1331 
Q 950 -1331 690 -1286 
Q 431 -1241 206 -1147 
L 313 -588 
Q 525 -725 762 -790 
Q 1000 -856 1269 -856 
Q 1816 -856 2167 -557 
Q 2519 -259 2631 300 
L 2681 563 
Q 2441 288 2122 144 
Q 1803 0 1434 0 
Q 903 0 598 351 
Q 294 703 294 1319 
Q 294 1803 478 2267 
Q 663 2731 997 3091 
Q 1219 3328 1514 3456 
Q 1809 3584 2131 3584 
Q 2484 3584 2746 3420 
Q 3009 3256 3138 2956 
L 3238 3500 
L 3816 3500 
z
M 2950 2216 
Q 2950 2641 2750 2872 
Q 2550 3103 2181 3103 
Q 1953 3103 1747 3012 
Q 1541 2922 1394 2759 
Q 1156 2491 1023 2127 
Q 891 1763 891 1375 
Q 891 944 1092 712 
Q 1294 481 1672 481 
Q 2219 481 2584 976 
Q 2950 1472 2950 2216 
z
" transform="scale(0.015625)"/>
       <path id="DejaVuSans-Oblique-6d" d="M 5747 2113 
L 5338 0 
L 4763 0 
L 5166 2094 
Q 5191 2228 5203 2325 
Q 5216 2422 5216 2491 
Q 5216 2772 5059 2928 
Q 4903 3084 4622 3084 
Q 4203 3084 3875 2770 
Q 3547 2456 3450 1953 
L 3066 0 
L 2491 0 
L 2900 2094 
Q 2925 2209 2937 2307 
Q 2950 2406 2950 2484 
Q 2950 2769 2794 2926 
Q 2638 3084 2363 3084 
Q 1938 3084 1609 2770 
Q 1281 2456 1184 1953 
L 800 0 
L 225 0 
L 909 3500 
L 1484 3500 
L 1375 2956 
Q 1609 3263 1923 3423 
Q 2238 3584 2597 3584 
Q 2978 3584 3223 3384 
Q 3469 3184 3519 2828 
Q 3781 3197 4126 3390 
Q 4472 3584 4856 3584 
Q 5306 3584 5551 3325 
Q 5797 3066 5797 2591 
Q 5797 2488 5784 2364 
Q 5772 2241 5747 2113 
z
" transform="scale(0.015625)"/>
       <path id="DejaVuSans-2f" d="M 1625 4666 
L 2156 4666 
L 531 -594 
L 0 -594 
L 1625 4666 
z
" transform="scale(0.015625)"/>
       <path id="DejaVuSans-Oblique-49" d="M 1081 4666 
L 1716 4666 
L 806 0 
L 172 0 
L 1081 4666 
z
" transform="scale(0.015625)"/>
       <path id="DejaVuSans-Oblique-44" d="M 1081 4666 
L 2438 4666 
Q 3519 4666 4070 4208 
Q 4622 3750 4622 2847 
Q 4622 2250 4412 1698 
Q 4203 1147 3834 769 
Q 3463 381 2891 190 
Q 2319 0 1538 0 
L 172 0 
L 1081 4666 
z
M 1613 4147 
L 909 519 
L 1734 519 
Q 2794 519 3375 1128 
Q 3956 1738 3956 2847 
Q 3956 3519 3581 3833 
Q 3206 4147 2406 4147 
L 1613 4147 
z
" transform="scale(0.015625)"/>
       <path id="DejaVuSans-28" d="M 1984 4856 
Q 1566 4138 1362 3434 
Q 1159 2731 1159 2009 
Q 1159 1288 1364 580 
Q 1569 -128 1984 -844 
L 1484 -844 
Q 1016 -109 783 600 
Q 550 1309 550 2009 
Q 550 2706 781 3412 
Q 1013 4119 1484 4856 
L 1984 4856 
z
" transform="scale(0.015625)"/>
       <path id="DejaVuSans-Oblique-53" d="M 3859 4513 
L 3738 3897 
Q 3422 4066 3111 4152 
Q 2800 4238 2509 4238 
Q 1944 4238 1609 3991 
Q 1275 3744 1275 3334 
Q 1275 3109 1398 2989 
Q 1522 2869 2034 2731 
L 2413 2638 
Q 3053 2472 3303 2217 
Q 3553 1963 3553 1503 
Q 3553 797 2998 353 
Q 2444 -91 1538 -91 
Q 1166 -91 791 -17 
Q 416 56 38 206 
L 166 856 
Q 513 641 861 531 
Q 1209 422 1556 422 
Q 2147 422 2503 684 
Q 2859 947 2859 1369 
Q 2859 1650 2717 1795 
Q 2575 1941 2106 2059 
L 1728 2156 
Q 1081 2325 845 2545 
Q 609 2766 609 3163 
Q 609 3859 1145 4304 
Q 1681 4750 2541 4750 
Q 2875 4750 3203 4690 
Q 3531 4631 3859 4513 
z
" transform="scale(0.015625)"/>
       <path id="DejaVuSans-Oblique-41" d="M 2356 4666 
L 3072 4666 
L 3938 0 
L 3278 0 
L 3084 1197 
L 984 1197 
L 325 0 
L -341 0 
L 2356 4666 
z
M 2584 4044 
L 1275 1722 
L 2988 1722 
L 2584 4044 
z
" transform="scale(0.015625)"/>
       <path id="DejaVuSans-29" d="M 513 4856 
L 1013 4856 
Q 1481 4119 1714 3412 
Q 1947 2706 1947 2009 
Q 1947 1309 1714 600 
Q 1481 -109 1013 -844 
L 513 -844 
Q 928 -128 1133 580 
Q 1338 1288 1338 2009 
Q 1338 2731 1133 3434 
Q 928 4138 513 4856 
z
" transform="scale(0.015625)"/>
      </defs>
      <use xlink:href="#DejaVuSans-Oblique-67" transform="translate(0 0.125)"/>
      <use xlink:href="#DejaVuSans-Oblique-6d" transform="translate(63.476562 -16.28125) scale(0.7)"/>
      <use xlink:href="#DejaVuSans-2f" transform="translate(134.399414 0.125)"/>
      <use xlink:href="#DejaVuSans-Oblique-49" transform="translate(168.09082 0.125)"/>
      <use xlink:href="#DejaVuSans-Oblique-44" transform="translate(197.583008 -16.28125) scale(0.7)"/>
      <use xlink:href="#DejaVuSans-28" transform="translate(254.21875 0.125)"/>
      <use xlink:href="#DejaVuSans-Oblique-53" transform="translate(293.232422 0.125)"/>
      <use xlink:href="#DejaVuSans-2f" transform="translate(356.708984 0.125)"/>
      <use xlink:href="#DejaVuSans-Oblique-41" transform="translate(390.400391 0.125)"/>
      <use xlink:href="#DejaVuSans-29" transform="translate(458.808594 0.125)"/>
     </g>
    </g>
   </g>
   <g id="matplotlib.axis_2">
    <g id="ytick_1">
     <g id="line2d_11">
      <path d="M 50.565625 240.098684 
L 495.596875 240.098684 
" clip-path="url(#p47b96cbf75)" style="fill: none; stroke-dasharray: 2.96,1.28; stroke-dashoffset: 0; stroke: #a6a6a6; stroke-width: 0.8"/>
     </g>
     <g id="line2d_12">
      <defs>
       <path id="mfa31c862ab" d="M 0 0 
L -3.5 0 
" style="stroke: #000000; stroke-width: 0.8"/>
      </defs>
      <g>
       <use xlink:href="#mfa31c862ab" x="50.565625" y="240.098684" style="stroke: #000000; stroke-width: 0.8"/>
      </g>
     </g>
     <g id="text_7">
      <!-- 0 -->
      <g transform="translate(37.203125 243.897903) scale(0.1 -0.1)">
       <use xlink:href="#DejaVuSans-30"/>
      </g>
     </g>
    </g>
    <g id="ytick_2">
     <g id="line2d_13">
      <path d="M 50.565625 208.838375 
L 495.596875 208.838375 
" clip-path="url(#p47b96cbf75)" style="fill: none; stroke-dasharray: 2.96,1.28; stroke-dashoffset: 0; stroke: #a6a6a6; stroke-width: 0.8"/>
     </g>
     <g id="line2d_14">
      <g>
       <use xlink:href="#mfa31c862ab" x="50.565625" y="208.838375" style="stroke: #000000; stroke-width: 0.8"/>
      </g>
     </g>
     <g id="text_8">
      <!-- 100 -->
      <g transform="translate(24.478125 212.637594) scale(0.1 -0.1)">
       <use xlink:href="#DejaVuSans-31"/>
       <use xlink:href="#DejaVuSans-30" x="63.623047"/>
       <use xlink:href="#DejaVuSans-30" x="127.246094"/>
      </g>
     </g>
    </g>
    <g id="ytick_3">
     <g id="line2d_15">
      <path d="M 50.565625 177.578066 
L 495.596875 177.578066 
" clip-path="url(#p47b96cbf75)" style="fill: none; stroke-dasharray: 2.96,1.28; stroke-dashoffset: 0; stroke: #a6a6a6; stroke-width: 0.8"/>
     </g>
     <g id="line2d_16">
      <g>
       <use xlink:href="#mfa31c862ab" x="50.565625" y="177.578066" style="stroke: #000000; stroke-width: 0.8"/>
      </g>
     </g>
     <g id="text_9">
      <!-- 200 -->
      <g transform="translate(24.478125 181.377285) scale(0.1 -0.1)">
       <use xlink:href="#DejaVuSans-32"/>
       <use xlink:href="#DejaVuSans-30" x="63.623047"/>
       <use xlink:href="#DejaVuSans-30" x="127.246094"/>
      </g>
     </g>
    </g>
    <g id="ytick_4">
     <g id="line2d_17">
      <path d="M 50.565625 146.317757 
L 495.596875 146.317757 
" clip-path="url(#p47b96cbf75)" style="fill: none; stroke-dasharray: 2.96,1.28; stroke-dashoffset: 0; stroke: #a6a6a6; stroke-width: 0.8"/>
     </g>
     <g id="line2d_18">
      <g>
       <use xlink:href="#mfa31c862ab" x="50.565625" y="146.317757" style="stroke: #000000; stroke-width: 0.8"/>
      </g>
     </g>
     <g id="text_10">
      <!-- 300 -->
      <g transform="translate(24.478125 150.116975) scale(0.1 -0.1)">
       <defs>
        <path id="DejaVuSans-33" d="M 2597 2516 
Q 3050 2419 3304 2112 
Q 3559 1806 3559 1356 
Q 3559 666 3084 287 
Q 2609 -91 1734 -91 
Q 1441 -91 1130 -33 
Q 819 25 488 141 
L 488 750 
Q 750 597 1062 519 
Q 1375 441 1716 441 
Q 2309 441 2620 675 
Q 2931 909 2931 1356 
Q 2931 1769 2642 2001 
Q 2353 2234 1838 2234 
L 1294 2234 
L 1294 2753 
L 1863 2753 
Q 2328 2753 2575 2939 
Q 2822 3125 2822 3475 
Q 2822 3834 2567 4026 
Q 2313 4219 1838 4219 
Q 1578 4219 1281 4162 
Q 984 4106 628 3988 
L 628 4550 
Q 988 4650 1302 4700 
Q 1616 4750 1894 4750 
Q 2613 4750 3031 4423 
Q 3450 4097 3450 3541 
Q 3450 3153 3228 2886 
Q 3006 2619 2597 2516 
z
" transform="scale(0.015625)"/>
       </defs>
       <use xlink:href="#DejaVuSans-33"/>
       <use xlink:href="#DejaVuSans-30" x="63.623047"/>
       <use xlink:href="#DejaVuSans-30" x="127.246094"/>
      </g>
     </g>
    </g>
    <g id="ytick_5">
     <g id="line2d_19">
      <path d="M 50.565625 115.057448 
L 495.596875 115.057448 
" clip-path="url(#p47b96cbf75)" style="fill: none; stroke-dasharray: 2.96,1.28; stroke-dashoffset: 0; stroke: #a6a6a6; stroke-width: 0.8"/>
     </g>
     <g id="line2d_20">
      <g>
       <use xlink:href="#mfa31c862ab" x="50.565625" y="115.057448" style="stroke: #000000; stroke-width: 0.8"/>
      </g>
     </g>
     <g id="text_11">
      <!-- 400 -->
      <g transform="translate(24.478125 118.856666) scale(0.1 -0.1)">
       <defs>
        <path id="DejaVuSans-34" d="M 2419 4116 
L 825 1625 
L 2419 1625 
L 2419 4116 
z
M 2253 4666 
L 3047 4666 
L 3047 1625 
L 3713 1625 
L 3713 1100 
L 3047 1100 
L 3047 0 
L 2419 0 
L 2419 1100 
L 313 1100 
L 313 1709 
L 2253 4666 
z
" transform="scale(0.015625)"/>
       </defs>
       <use xlink:href="#DejaVuSans-34"/>
       <use xlink:href="#DejaVuSans-30" x="63.623047"/>
       <use xlink:href="#DejaVuSans-30" x="127.246094"/>
      </g>
     </g>
    </g>
    <g id="ytick_6">
     <g id="line2d_21">
      <path d="M 50.565625 83.797139 
L 495.596875 83.797139 
" clip-path="url(#p47b96cbf75)" style="fill: none; stroke-dasharray: 2.96,1.28; stroke-dashoffset: 0; stroke: #a6a6a6; stroke-width: 0.8"/>
     </g>
     <g id="line2d_22">
      <g>
       <use xlink:href="#mfa31c862ab" x="50.565625" y="83.797139" style="stroke: #000000; stroke-width: 0.8"/>
      </g>
     </g>
     <g id="text_12">
      <!-- 500 -->
      <g transform="translate(24.478125 87.596357) scale(0.1 -0.1)">
       <use xlink:href="#DejaVuSans-35"/>
       <use xlink:href="#DejaVuSans-30" x="63.623047"/>
       <use xlink:href="#DejaVuSans-30" x="127.246094"/>
      </g>
     </g>
    </g>
    <g id="ytick_7">
     <g id="line2d_23">
      <path d="M 50.565625 52.536829 
L 495.596875 52.536829 
" clip-path="url(#p47b96cbf75)" style="fill: none; stroke-dasharray: 2.96,1.28; stroke-dashoffset: 0; stroke: #a6a6a6; stroke-width: 0.8"/>
     </g>
     <g id="line2d_24">
      <g>
       <use xlink:href="#mfa31c862ab" x="50.565625" y="52.536829" style="stroke: #000000; stroke-width: 0.8"/>
      </g>
     </g>
     <g id="text_13">
      <!-- 600 -->
      <g transform="translate(24.478125 56.336048) scale(0.1 -0.1)">
       <defs>
        <path id="DejaVuSans-36" d="M 2113 2584 
Q 1688 2584 1439 2293 
Q 1191 2003 1191 1497 
Q 1191 994 1439 701 
Q 1688 409 2113 409 
Q 2538 409 2786 701 
Q 3034 994 3034 1497 
Q 3034 2003 2786 2293 
Q 2538 2584 2113 2584 
z
M 3366 4563 
L 3366 3988 
Q 3128 4100 2886 4159 
Q 2644 4219 2406 4219 
Q 1781 4219 1451 3797 
Q 1122 3375 1075 2522 
Q 1259 2794 1537 2939 
Q 1816 3084 2150 3084 
Q 2853 3084 3261 2657 
Q 3669 2231 3669 1497 
Q 3669 778 3244 343 
Q 2819 -91 2113 -91 
Q 1303 -91 875 529 
Q 447 1150 447 2328 
Q 447 3434 972 4092 
Q 1497 4750 2381 4750 
Q 2619 4750 2861 4703 
Q 3103 4656 3366 4563 
z
" transform="scale(0.015625)"/>
       </defs>
       <use xlink:href="#DejaVuSans-36"/>
       <use xlink:href="#DejaVuSans-30" x="63.623047"/>
       <use xlink:href="#DejaVuSans-30" x="127.246094"/>
      </g>
     </g>
    </g>
    <g id="text_14">
     <!-- $g_{m}/g_{ds}$ -->
     <g transform="translate(18.378125 152.110937) rotate(-90) scale(0.1 -0.1)">
      <defs>
       <path id="DejaVuSans-Oblique-64" d="M 2675 525 
Q 2444 222 2128 65 
Q 1813 -91 1428 -91 
Q 903 -91 598 267 
Q 294 625 294 1247 
Q 294 1766 478 2236 
Q 663 2706 1013 3078 
Q 1244 3325 1534 3454 
Q 1825 3584 2144 3584 
Q 2481 3584 2739 3421 
Q 2997 3259 3138 2956 
L 3513 4863 
L 4091 4863 
L 3144 0 
L 2566 0 
L 2675 525 
z
M 891 1350 
Q 891 897 1095 644 
Q 1300 391 1663 391 
Q 1931 391 2161 520 
Q 2391 650 2566 903 
Q 2750 1166 2856 1509 
Q 2963 1853 2963 2188 
Q 2963 2622 2758 2865 
Q 2553 3109 2194 3109 
Q 1922 3109 1687 2981 
Q 1453 2853 1288 2613 
Q 1106 2353 998 2009 
Q 891 1666 891 1350 
z
" transform="scale(0.015625)"/>
       <path id="DejaVuSans-Oblique-73" d="M 3200 3397 
L 3091 2853 
Q 2863 2978 2609 3040 
Q 2356 3103 2088 3103 
Q 1634 3103 1373 2948 
Q 1113 2794 1113 2528 
Q 1113 2219 1719 2053 
Q 1766 2041 1788 2034 
L 1972 1978 
Q 2547 1819 2739 1644 
Q 2931 1469 2931 1166 
Q 2931 609 2489 259 
Q 2047 -91 1331 -91 
Q 1053 -91 747 -37 
Q 441 16 72 128 
L 184 722 
Q 500 559 806 475 
Q 1113 391 1394 391 
Q 1816 391 2080 572 
Q 2344 753 2344 1031 
Q 2344 1331 1650 1516 
L 1591 1531 
L 1394 1581 
Q 956 1697 753 1886 
Q 550 2075 550 2369 
Q 550 2928 970 3256 
Q 1391 3584 2113 3584 
Q 2397 3584 2667 3537 
Q 2938 3491 3200 3397 
z
" transform="scale(0.015625)"/>
      </defs>
      <use xlink:href="#DejaVuSans-Oblique-67" transform="translate(0 0.09375)"/>
      <use xlink:href="#DejaVuSans-Oblique-6d" transform="translate(63.476562 -16.3125) scale(0.7)"/>
      <use xlink:href="#DejaVuSans-2f" transform="translate(134.399414 0.09375)"/>
      <use xlink:href="#DejaVuSans-Oblique-67" transform="translate(168.09082 0.09375)"/>
      <use xlink:href="#DejaVuSans-Oblique-64" transform="translate(231.567383 -16.3125) scale(0.7)"/>
      <use xlink:href="#DejaVuSans-Oblique-73" transform="translate(276.000977 -16.3125) scale(0.7)"/>
     </g>
    </g>
   </g>
   <g id="line2d_25">
    <path d="M 475.290708 233.225177 
L 475.243616 233.225258 
L 475.189842 233.22535 
L 475.128443 233.225455 
L 475.058342 233.225575 
L 474.978316 233.225713 
L 474.886968 233.225869 
L 474.78271 233.226048 
L 474.663736 233.226252 
L 474.527991 233.226485 
L 474.373143 233.226751 
L 474.196542 233.227054 
L 473.995185 233.2274 
L 473.765669 233.227795 
L 473.504145 233.228245 
L 473.206267 233.228758 
L 472.867129 233.229342 
L 472.481216 233.230007 
L 472.042329 233.230765 
L 471.543531 233.231627 
L 470.977071 233.232607 
L 470.33433 233.23372 
L 469.605755 233.234984 
L 468.780812 233.236418 
L 467.847951 233.238042 
L 466.794592 233.239881 
L 465.607138 233.241958 
L 464.271033 233.244301 
L 462.77087 233.24694 
L 461.09056 233.249904 
L 459.213592 233.253227 
L 457.123378 233.25694 
L 454.803716 233.261075 
L 452.239363 233.265665 
L 449.416744 233.270736 
L 446.223404 233.27794 
L 442.494611 233.289897 
L 438.496269 233.302345 
L 434.231558 233.315275 
L 429.709514 233.328659 
L 424.945391 233.342455 
L 419.96057 233.356598 
L 414.781827 233.371007 
L 409.439835 233.385579 
L 403.966807 233.400201 
L 398.393305 233.414756 
L 392.744401 233.429132 
L 387.035558 233.443243 
L 381.268767 233.457037 
L 375.429647 233.470523 
L 369.486185 233.483772 
L 363.389695 233.496938 
L 357.07827 233.510248 
L 350.482546 233.523999 
L 343.533166 233.538546 
L 336.168936 233.554277 
L 328.344479 233.571597 
L 320.036277 233.590903 
L 311.246264 233.612566 
L 302.002627 233.636918 
L 292.357899 233.664245 
L 282.384864 233.694777 
L 272.171019 233.728691 
L 261.812398 233.76611 
L 251.407534 233.80711 
L 241.052098 233.851718 
L 230.83461 233.899923 
L 220.833364 233.951675 
L 211.114564 234.006897 
L 201.731537 234.065484 
L 192.72483 234.127307 
L 184.122957 234.192224 
L 175.943583 234.260078 
L 168.19496 234.330701 
L 160.877445 234.403922 
L 153.985004 234.479567 
L 147.506612 234.557463 
L 141.42751 234.637437 
L 135.730289 234.719325 
L 130.395803 234.802968 
L 125.403918 234.888217 
L 120.734103 234.974929 
L 116.365897 235.062973 
L 112.279251 235.152229 
L 108.454785 235.242584 
L 104.873959 235.333937 
L 101.519186 235.426195 
L 98.373898 235.519274 
L 95.42257 235.613099 
L 92.65072 235.707598 
L 90.044888 235.802709 
L 87.592596 235.898372 
L 85.282307 235.994531 
L 83.103367 236.091135 
L 81.045957 236.188131 
L 79.101029 236.285469 
L 77.260257 236.383097 
L 75.515976 236.480964 
L 73.861134 236.579013 
L 72.28924 236.677188 
L 70.794318 236.775426 
" clip-path="url(#p47b96cbf75)" style="fill: none; stroke: #1f77b4; stroke-width: 1.5; stroke-linecap: square"/>
   </g>
   <g id="line2d_26">
    <path d="M 475.35453 212.225111 
L 475.316501 212.225776 
L 475.273073 212.226536 
L 475.223482 212.227404 
L 475.166857 212.228395 
L 475.102205 212.229526 
L 475.028396 212.230818 
L 474.944141 212.232293 
L 474.847975 212.233976 
L 474.738228 212.235898 
L 474.613003 212.238091 
L 474.470144 212.240593 
L 474.307202 212.243447 
L 474.121402 212.246703 
L 473.909594 212.250416 
L 473.668218 212.254647 
L 473.393247 212.25947 
L 473.080139 212.264963 
L 472.723777 212.271217 
L 472.318413 212.278335 
L 471.8576 212.28643 
L 471.334135 212.295632 
L 470.739993 212.306081 
L 470.066268 212.317939 
L 469.303126 212.331379 
L 468.439763 212.346597 
L 467.464385 212.363803 
L 466.364215 212.383228 
L 465.125535 212.405119 
L 463.733775 212.429738 
L 462.173662 212.457359 
L 460.429448 212.488267 
L 458.485224 212.522744 
L 456.325342 212.561065 
L 453.93496 212.603483 
L 451.19815 212.65677 
L 447.94406 212.731516 
L 444.436688 212.810597 
L 440.673551 212.893958 
L 436.657226 212.981408 
L 432.396151 213.07259 
L 427.905198 213.166953 
L 423.205865 213.263737 
L 418.325908 213.361965 
L 413.298247 213.460455 
L 408.159016 213.557866 
L 402.944704 213.652767 
L 397.688465 213.743753 
L 392.415848 213.829583 
L 387.140404 213.909352 
L 381.859776 213.982665 
L 376.553019 214.0498 
L 371.179825 214.111821 
L 365.682177 214.170634 
L 359.988561 214.228948 
L 354.020451 214.290167 
L 347.700277 214.358201 
L 340.959825 214.437233 
L 333.747841 214.531476 
L 326.035804 214.644929 
L 317.821169 214.781188 
L 309.127819 214.943293 
L 300.003954 215.133635 
L 290.517944 215.35391 
L 280.752912 215.605121 
L 270.800801 215.887607 
L 260.756608 216.201096 
L 250.713298 216.544773 
L 240.757712 216.917357 
L 230.967592 217.317176 
L 221.409725 217.742253 
L 212.139066 218.190375 
L 203.198687 218.659166 
L 194.62033 219.146158 
L 186.425391 219.648846 
L 178.62615 220.16474 
L 171.227113 220.691412 
L 164.226367 221.226533 
L 157.616858 221.767898 
L 151.387562 222.313447 
L 145.524514 222.861282 
L 140.011685 223.409673 
L 134.83172 223.957058 
L 129.96653 224.502041 
L 125.397772 225.043386 
L 121.107211 225.580009 
L 117.077002 226.110961 
L 113.28989 226.635423 
L 109.729347 227.152685 
L 106.379665 227.66214 
L 103.226009 228.163261 
L 100.254435 228.6556 
L 97.451891 229.138765 
L 94.806199 229.612418 
L 92.306025 230.076259 
L 89.940842 230.530022 
L 87.700885 230.973463 
L 85.577109 231.406361 
L 83.561135 231.828504 
L 81.645211 232.239695 
L 79.822158 232.639741 
" clip-path="url(#p47b96cbf75)" style="fill: none; stroke: #ff7f0e; stroke-width: 1.5; stroke-linecap: square"/>
   </g>
   <g id="line2d_27">
    <path d="M 475.365826 163.864051 
L 475.329403 163.868007 
L 475.287808 163.872524 
L 475.240308 163.877683 
L 475.186071 163.883573 
L 475.124144 163.890298 
L 475.053444 163.897976 
L 474.972737 163.906739 
L 474.880617 163.916742 
L 474.775485 163.928157 
L 474.65552 163.941181 
L 474.518656 163.956039 
L 474.362545 163.972985 
L 474.184523 163.992307 
L 473.981568 164.014332 
L 473.750264 164.03943 
L 473.486743 164.068017 
L 473.186644 164.100566 
L 472.845051 164.137606 
L 472.456435 164.179731 
L 472.014596 164.227608 
L 471.512602 164.28198 
L 470.942721 164.343672 
L 470.296368 164.413601 
L 469.564052 164.492771 
L 468.735334 164.582286 
L 467.798804 164.683341 
L 466.742079 164.797224 
L 465.551841 164.925302 
L 464.213913 165.069013 
L 462.713394 165.229837 
L 461.034869 165.409264 
L 459.162705 165.608747 
L 457.081449 165.829639 
L 454.776344 166.073114 
L 452.131191 166.35767 
L 448.974415 166.711567 
L 445.570128 167.088342 
L 441.915299 167.48712 
L 438.011832 167.906164 
L 433.867416 168.342718 
L 429.496209 168.792869 
L 424.919163 169.251453 
L 420.163848 169.712033 
L 415.263591 170.166982 
L 410.255766 170.607715 
L 405.179176 171.025079 
L 400.070529 171.409939 
L 394.960218 171.753936 
L 389.867789 172.050382 
L 384.797663 172.295234 
L 379.735838 172.488008 
L 374.648287 172.632533 
L 369.481671 172.737396 
L 364.166635 172.815977 
L 358.623564 172.886019 
L 352.770182 172.968735 
L 346.530011 173.087545 
L 339.840483 173.266577 
L 332.659604 173.529095 
L 324.970302 173.896043 
L 316.782054 174.384827 
L 308.129832 175.008449 
L 299.070805 175.775022 
L 289.679463 176.687663 
L 280.041938 177.744727 
L 270.250214 178.940295 
L 260.396807 180.264847 
L 250.570298 181.706042 
L 240.851901 183.24952 
L 231.313137 184.879689 
L 222.014503 186.580434 
L 213.005028 188.33573 
L 204.322499 190.130141 
L 195.994184 191.949202 
L 188.037886 193.779688 
L 180.463163 195.60978 
L 173.272615 197.429142 
L 166.463137 199.22893 
L 160.027097 201.00174 
L 153.95339 202.741518 
L 148.228362 204.443446 
L 142.836587 206.103805 
L 137.761524 207.71984 
L 132.986036 209.28962 
L 128.492812 210.811906 
L 124.264683 212.286026 
L 120.284872 213.711766 
L 116.537161 215.08927 
L 113.006018 216.41895 
L 109.676672 217.701414 
L 106.535158 218.937405 
L 103.568331 220.127745 
L 100.763867 221.273296 
L 98.110244 222.374929 
L 95.596713 223.433495 
L 93.213261 224.449812 
L 90.950576 225.424648 
L 88.799998 226.358724 
L 86.753481 227.252702 
L 84.803543 228.107198 
" clip-path="url(#p47b96cbf75)" style="fill: none; stroke: #2ca02c; stroke-width: 1.5; stroke-linecap: square"/>
   </g>
   <g id="line2d_28">
    <path d="M 475.367979 115.487727 
L 475.331862 115.497081 
L 475.290616 115.507762 
L 475.243516 115.519959 
L 475.189734 115.533883 
L 475.128327 115.549781 
L 475.058221 115.567927 
L 474.978192 115.588639 
L 474.886845 115.612276 
L 474.782594 115.639246 
L 474.663636 115.670012 
L 474.52792 115.705103 
L 474.373118 115.745116 
L 474.196586 115.790727 
L 473.995331 115.842704 
L 473.765962 115.901911 
L 473.504645 115.969325 
L 473.207053 116.046046 
L 472.86831 116.133307 
L 472.482934 116.232491 
L 472.044775 116.345143 
L 471.546956 116.472979 
L 470.981808 116.617902 
L 470.340815 116.78201 
L 469.614561 116.967599 
L 468.792691 117.177169 
L 467.863883 117.413413 
L 466.815853 117.679205 
L 465.635387 117.977571 
L 464.308417 118.311644 
L 462.82016 118.684599 
L 461.155322 119.099562 
L 459.298394 119.559489 
L 457.23405 120.067007 
L 454.947664 120.624213 
L 452.323119 121.260803 
L 449.188859 122.021467 
L 445.809222 122.830087 
L 442.181316 123.683564 
L 438.307193 124.576723 
L 434.194731 125.501982 
L 429.858324 126.449077 
L 425.319245 127.404897 
L 420.605497 128.353479 
L 415.750992 129.276242 
L 410.79388 130.152511 
L 405.773961 130.960391 
L 400.729176 131.678008 
L 395.691382 132.285113 
L 390.68176 132.764976 
L 385.706445 133.10643 
L 380.75308 133.305893 
L 375.789025 133.3691 
L 370.761851 133.312314 
L 365.602434 133.16275 
L 360.230541 132.958054 
L 354.562343 132.744753 
L 348.518873 132.575757 
L 342.034252 132.507098 
L 335.062556 132.594251 
L 327.582421 132.888409 
L 319.598964 133.433129 
L 311.143004 134.261685 
L 302.268007 135.395372 
L 293.045382 136.842854 
L 283.558909 138.600538 
L 273.898988 140.653794 
L 264.157303 142.978817 
L 254.422285 145.54485 
L 244.775586 148.316523 
L 235.289637 151.25609 
L 226.026206 154.325409 
L 217.035833 157.487565 
L 208.357958 160.708096 
L 200.021561 163.955835 
L 192.04614 167.203402 
L 184.442885 170.427396 
L 177.215922 173.60836 
L 170.36355 176.73058 
L 163.879398 179.781768 
L 157.753479 182.752681 
L 151.973116 185.636713 
L 146.523726 188.429488 
L 141.389486 191.128469 
L 136.55386 193.732599 
L 132.00004 196.241977 
L 127.711269 198.657582 
L 123.671099 200.981024 
L 119.863578 203.214348 
L 116.273378 205.359858 
L 112.885881 207.419987 
L 109.687233 209.397186 
L 106.664362 211.293838 
L 103.804987 213.112203 
L 101.097598 214.854369 
L 98.531437 216.522226 
L 96.096461 218.117461 
L 93.783305 219.641549 
L 91.583243 221.095771 
L 89.488141 222.481236 
L 87.49042 223.798902 
" clip-path="url(#p47b96cbf75)" style="fill: none; stroke: #d62728; stroke-width: 1.5; stroke-linecap: square"/>
   </g>
   <g id="line2d_29">
    <path d="M 475.368182 92.982584 
L 475.332093 92.994259 
L 475.290881 93.007592 
L 475.243818 93.022814 
L 475.19008 93.040194 
L 475.128722 93.060035 
L 475.058673 93.082682 
L 474.978708 93.10853 
L 474.887436 93.138027 
L 474.78327 93.17168 
L 474.664409 93.21007 
L 474.528804 93.253851 
L 474.374129 93.303769 
L 474.197744 93.360667 
L 473.996656 93.425496 
L 473.76748 93.499336 
L 473.506383 93.583397 
L 473.209045 93.679047 
L 472.870595 93.787817 
L 472.485555 93.911422 
L 472.047783 94.051773 
L 471.550411 94.210995 
L 470.985779 94.391439 
L 470.345383 94.59569 
L 469.619821 94.826574 
L 468.798753 95.087156 
L 467.870879 95.380732 
L 466.823937 95.710802 
L 465.644741 96.081033 
L 464.319259 96.495198 
L 462.832746 96.957086 
L 461.169959 97.470382 
L 459.315449 98.038505 
L 457.253963 98.664402 
L 454.970962 99.350287 
L 452.35043 100.130733 
L 449.220918 101.057755 
L 445.846929 102.040895 
L 442.225747 103.075489 
L 438.359634 104.154153 
L 434.256717 105.266365 
L 429.931677 106.398114 
L 425.406119 107.531682 
L 420.708423 108.645631 
L 415.872921 109.715081 
L 410.938228 110.712335 
L 405.944637 111.607945 
L 400.930606 112.372225 
L 395.928503 112.977211 
L 390.959997 113.399001 
L 386.03165 113.620315 
L 381.131433 113.63308 
L 376.226893 113.440747 
L 371.265607 113.060051 
L 366.178238 112.5219 
L 360.884103 111.871167 
L 355.29867 111.165237 
L 349.342028 110.471322 
L 342.947149 109.862718 
L 336.066792 109.414322 
L 328.678182 109.197861 
L 320.784987 109.277326 
L 312.416623 109.705082 
L 303.625252 110.519028 
L 294.48114 111.741047 
L 285.06712 113.37678 
L 275.472875 115.41663 
L 265.789599 117.837729 
L 256.105461 120.606579 
L 246.502066 123.681996 
L 237.051978 127.018078 
L 227.817251 130.56693 
L 218.848833 134.281002 
L 210.186654 138.114923 
L 201.860242 142.026841 
L 193.889672 145.979282 
L 186.286714 149.939587 
L 179.056064 153.880028 
L 172.196563 157.777654 
L 165.702348 161.61397 
L 159.563901 165.374498 
L 153.768965 169.048285 
L 148.303339 172.627388 
L 143.15153 176.106373 
L 138.297299 179.481845 
L 133.724087 182.752015 
L 129.415355 185.916323 
L 125.354842 188.975105 
L 121.526747 191.929311 
L 117.915873 194.780271 
L 114.507706 197.5295 
L 111.288475 200.178548 
L 108.245177 202.728883 
L 105.365576 205.181804 
L 102.6382 207.538391 
L 100.052307 209.799472 
L 97.597863 211.965622 
L 95.265497 214.037178 
L 93.046465 216.01428 
L 90.932604 217.896917 
L 88.91629 219.685 
" clip-path="url(#p47b96cbf75)" style="fill: none; stroke: #9467bd; stroke-width: 1.5; stroke-linecap: square"/>
   </g>
   <g id="line2d_30">
    <path d="M 475.368171 75.264712 
L 475.332081 75.277807 
L 475.290866 75.292761 
L 475.243802 75.309834 
L 475.190061 75.329327 
L 475.128702 75.351579 
L 475.05865 75.376978 
L 474.978682 75.405966 
L 474.887406 75.439044 
L 474.783237 75.476783 
L 474.664373 75.519831 
L 474.528764 75.568922 
L 474.374085 75.624892 
L 474.197695 75.688683 
L 473.996604 75.761362 
L 473.767424 75.844134 
L 473.506325 75.938357 
L 473.208985 76.045556 
L 472.870535 76.167443 
L 472.485498 76.305933 
L 472.047734 76.463158 
L 471.550375 76.641488 
L 470.985764 76.843539 
L 470.345399 77.072186 
L 469.619884 77.330566 
L 468.798882 77.622076 
L 467.871101 77.950357 
L 466.824287 78.319265 
L 465.645266 78.732823 
L 464.32002 79.195147 
L 462.833823 79.71034 
L 461.171456 80.282347 
L 459.3175 80.914766 
L 457.256741 81.610601 
L 454.974688 82.371959 
L 452.355382 83.23712 
L 449.227445 84.263813 
L 445.85547 85.34997 
L 442.236844 86.489504 
L 438.373958 87.6731 
L 434.275083 88.887712 
L 429.955072 90.116141 
L 425.435721 91.336756 
L 420.745625 92.523447 
L 415.91935 93.645892 
L 410.995758 94.670239 
L 406.015394 95.560252 
L 401.016967 96.278994 
L 396.03308 96.791018 
L 391.085608 97.065008 
L 386.181277 97.07672 
L 381.308159 96.812008 
L 376.433832 96.269638 
L 371.505818 95.463574 
L 366.45463 94.424394 
L 361.199335 93.199561 
L 355.655054 91.852351 
L 349.741438 90.45939 
L 343.39094 89.106911 
L 336.555737 87.886014 
L 329.212432 86.887342 
L 321.364057 86.195698 
L 313.039401 85.885129 
L 304.290035 86.014939 
L 295.185697 86.626989 
L 285.808769 87.74444 
L 276.248572 89.371941 
L 266.596043 91.497072 
L 256.939189 94.092762 
L 247.359549 97.12032 
L 237.929708 100.532726 
L 228.711816 104.277869 
L 219.756976 108.301487 
L 211.105321 112.549659 
L 202.786612 116.970757 
L 194.821176 121.516869 
L 187.221046 126.144705 
L 179.991179 130.816073 
L 173.130668 135.498005 
L 166.633893 140.162605 
L 160.491559 144.786721 
L 154.691616 149.351486 
L 149.220048 153.841796 
L 144.061531 158.245765 
L 139.199973 162.554196 
L 134.618945 166.760064 
L 130.302021 170.858066 
L 126.233035 174.844202 
L 122.396273 178.715424 
L 118.776603 182.469339 
L 115.359574 186.103965 
L 112.13146 189.61754 
L 109.079296 193.008385 
L 106.190877 196.274813 
L 103.45475 199.415078 
L 100.86019 202.427366 
L 98.397167 205.309824 
L 96.056312 208.060612 
L 93.82887 210.677986 
L 91.706666 213.160397 
L 89.682053 215.506602 
" clip-path="url(#p47b96cbf75)" style="fill: none; stroke: #8c564b; stroke-width: 1.5; stroke-linecap: square"/>
   </g>
   <g id="line2d_31">
    <path d="M 475.368163 58.33135 
L 475.332072 58.345791 
L 475.290857 58.36228 
L 475.243791 58.381107 
L 475.190049 58.402601 
L 475.128688 58.427137 
L 475.058634 58.455144 
L 474.978665 58.487106 
L 474.887387 58.523577 
L 474.783215 58.565186 
L 474.664348 58.612646 
L 474.528736 58.666767 
L 474.374054 58.728467 
L 474.197662 58.798786 
L 473.996567 58.878896 
L 473.767384 58.970125 
L 473.506282 59.073964 
L 473.20894 59.192092 
L 472.870488 59.32639 
L 472.485451 59.478959 
L 472.047688 59.652141 
L 471.550332 59.848532 
L 470.985728 60.070999 
L 470.345377 60.322687 
L 469.619881 60.607022 
L 468.79891 60.927707 
L 467.871171 61.288702 
L 466.824418 61.694189 
L 465.645481 62.148512 
L 464.32035 62.656093 
L 462.834309 63.221305 
L 461.17215 63.848308 
L 459.318472 64.540827 
L 457.25808 65.301869 
L 454.976506 66.133374 
L 452.357825 67.077083 
L 449.230692 68.196101 
L 445.859746 69.377134 
L 442.242432 70.61259 
L 438.381204 71.891127 
L 434.284409 73.197071 
L 429.966989 74.509906 
L 425.450841 75.803937 
L 420.76467 77.048191 
L 415.943164 78.206667 
L 411.02531 79.239034 
L 406.051788 80.101857 
L 401.061435 80.750398 
L 396.086976 81.141004 
L 391.150392 81.234009 
L 386.258492 80.997008 
L 381.399404 80.408289 
L 376.540721 79.460123 
L 371.629935 78.161577 
L 366.597486 76.540494 
L 361.362313 74.644337 
L 355.83936 72.539647 
L 349.948056 70.310008 
L 343.620589 68.052569 
L 336.808841 65.873333 
L 329.489097 63.881574 
L 321.664063 62.183892 
L 313.362208 60.878419 
L 304.634802 60.04974 
L 295.551307 59.764942 
L 286.193872 60.071092 
L 276.651632 60.994269 
L 267.015385 62.540058 
L 257.373052 64.69531 
L 247.806134 67.430843 
L 238.387222 70.704707 
L 229.178511 74.46567 
L 220.231179 78.656616 
L 211.585458 83.217616 
L 203.271227 88.088539 
L 195.308941 93.211104 
L 187.710763 98.530399 
L 180.481784 103.995875 
L 173.621225 109.5619 
L 167.123589 115.187952 
L 160.979695 120.838528 
L 155.1776 126.482855 
L 149.703385 132.094473 
L 144.541809 137.650741 
L 139.676858 143.132318 
L 135.09217 148.522647 
L 130.771378 153.807476 
L 126.698366 158.974422 
L 122.857463 164.012598 
L 119.233575 168.912305 
L 115.812278 173.664786 
L 112.579875 178.262053 
L 109.523419 182.696772 
L 106.63072 186.962205 
L 103.890338 191.052203 
L 101.291553 194.961245 
L 98.82434 198.684506 
L 96.479328 202.217947 
L 94.247759 205.558427 
L 92.121448 208.703808 
L 90.092735 211.653056 
" clip-path="url(#p47b96cbf75)" style="fill: none; stroke: #e377c2; stroke-width: 1.5; stroke-linecap: square"/>
   </g>
   <g id="line2d_32">
    <path d="M 475.36816 45.12564 
L 475.332068 45.14113 
L 475.290852 45.158816 
L 475.243786 45.17901 
L 475.190043 45.202065 
L 475.128681 45.228382 
L 475.058627 45.25842 
L 474.978656 45.292701 
L 474.887377 45.331817 
L 474.783204 45.376442 
L 474.664336 45.427341 
L 474.528723 45.485381 
L 474.374039 45.551548 
L 474.197645 45.626952 
L 473.996549 45.712853 
L 473.767364 45.810669 
L 473.506261 45.921999 
L 473.208918 46.048637 
L 472.870465 46.192597 
L 472.485428 46.356126 
L 472.047666 46.541726 
L 471.550312 46.752169 
L 470.985713 46.990514 
L 470.345368 47.260114 
L 469.619883 47.564616 
L 468.798928 47.907957 
L 467.871212 48.294341 
L 466.824491 48.728192 
L 465.645598 49.214097 
L 464.320527 49.756701 
L 462.834567 50.360571 
L 461.172518 51.030012 
L 459.318984 51.768819 
L 457.258782 52.579967 
L 454.977458 53.465216 
L 452.3591 54.468955 
L 449.232385 55.658413 
L 445.861973 56.911453 
L 442.245339 58.219201 
L 438.384969 59.568604 
L 434.289253 60.941774 
L 429.973175 62.315414 
L 425.458685 63.660415 
L 420.774546 64.941715 
L 415.955508 66.118523 
L 411.040625 67.145015 
L 406.070644 67.971597 
L 401.084468 68.546787 
L 396.114887 68.819722 
L 391.183936 68.743236 
L 386.298469 68.277371 
L 381.44664 67.393093 
L 376.59605 66.075934 
L 371.694179 64.329216 
L 366.671427 62.176496 
L 361.446668 59.662909 
L 355.934757 56.855143 
L 350.055007 53.839893 
L 343.739472 50.720787 
L 336.939881 47.613942 
L 329.632356 44.642438 
L 321.819438 41.930184 
L 313.52943 39.595659 
L 304.813445 37.746094 
L 295.740806 36.472578 
L 286.393541 35.846449 
L 276.860687 35.917192 
L 267.23297 36.711883 
L 257.598267 38.236046 
L 248.038057 40.475671 
L 238.624932 43.400071 
L 229.421111 46.96521 
L 220.477807 51.117181 
L 211.835304 55.795545 
L 203.52354 60.936345 
L 195.563033 66.474645 
L 187.966015 72.346559 
L 180.737643 78.490754 
L 173.877206 84.84947 
L 167.379268 91.369128 
L 161.234708 98.000596 
L 155.431636 104.699196 
L 149.956182 111.424529 
L 144.793152 118.140172 
L 139.926569 124.813324 
L 135.340105 131.414423 
L 131.017425 137.916779 
L 126.942439 144.296244 
L 123.099496 150.530937 
L 119.473523 156.601027 
L 116.050111 162.488577 
L 112.815576 168.177451 
L 109.75698 173.653273 
L 106.862144 178.903432 
L 104.119631 183.917117 
L 101.518725 188.685376 
L 99.049403 193.201177 
L 96.702292 197.459476 
L 94.468633 201.457257 
L 92.340235 205.193554 
L 90.309431 208.669442 
" clip-path="url(#p47b96cbf75)" style="fill: none; stroke: #7f7f7f; stroke-width: 1.5; stroke-linecap: square"/>
   </g>
   <g id="patch_3">
    <path d="M 50.565625 246.821875 
L 50.565625 25.8 
" style="fill: none; stroke: #000000; stroke-width: 0.8; stroke-linejoin: miter; stroke-linecap: square"/>
   </g>
   <g id="patch_4">
    <path d="M 495.596875 246.821875 
L 495.596875 25.8 
" style="fill: none; stroke: #000000; stroke-width: 0.8; stroke-linejoin: miter; stroke-linecap: square"/>
   </g>
   <g id="patch_5">
    <path d="M 50.565625 246.821875 
L 495.596875 246.821875 
" style="fill: none; stroke: #000000; stroke-width: 0.8; stroke-linejoin: miter; stroke-linecap: square"/>
   </g>
   <g id="patch_6">
    <path d="M 50.565625 25.8 
L 495.596875 25.8 
" style="fill: none; stroke: #000000; stroke-width: 0.8; stroke-linejoin: miter; stroke-linecap: square"/>
   </g>
   <g id="text_15">
    <!-- NMOS_VTH, $V_{SB}=0.00$, $V_{DS}=0.50$ -->
    <g transform="translate(170.48125 19.8) scale(0.12 -0.12)">
     <defs>
      <path id="DejaVuSans-4e" d="M 628 4666 
L 1478 4666 
L 3547 763 
L 3547 4666 
L 4159 4666 
L 4159 0 
L 3309 0 
L 1241 3903 
L 1241 0 
L 628 0 
L 628 4666 
z
" transform="scale(0.015625)"/>
      <path id="DejaVuSans-4d" d="M 628 4666 
L 1569 4666 
L 2759 1491 
L 3956 4666 
L 4897 4666 
L 4897 0 
L 4281 0 
L 4281 4097 
L 3078 897 
L 2444 897 
L 1241 4097 
L 1241 0 
L 628 0 
L 628 4666 
z
" transform="scale(0.015625)"/>
      <path id="DejaVuSans-4f" d="M 2522 4238 
Q 1834 4238 1429 3725 
Q 1025 3213 1025 2328 
Q 1025 1447 1429 934 
Q 1834 422 2522 422 
Q 3209 422 3611 934 
Q 4013 1447 4013 2328 
Q 4013 3213 3611 3725 
Q 3209 4238 2522 4238 
z
M 2522 4750 
Q 3503 4750 4090 4092 
Q 4678 3434 4678 2328 
Q 4678 1225 4090 567 
Q 3503 -91 2522 -91 
Q 1538 -91 948 565 
Q 359 1222 359 2328 
Q 359 3434 948 4092 
Q 1538 4750 2522 4750 
z
" transform="scale(0.015625)"/>
      <path id="DejaVuSans-53" d="M 3425 4513 
L 3425 3897 
Q 3066 4069 2747 4153 
Q 2428 4238 2131 4238 
Q 1616 4238 1336 4038 
Q 1056 3838 1056 3469 
Q 1056 3159 1242 3001 
Q 1428 2844 1947 2747 
L 2328 2669 
Q 3034 2534 3370 2195 
Q 3706 1856 3706 1288 
Q 3706 609 3251 259 
Q 2797 -91 1919 -91 
Q 1588 -91 1214 -16 
Q 841 59 441 206 
L 441 856 
Q 825 641 1194 531 
Q 1563 422 1919 422 
Q 2459 422 2753 634 
Q 3047 847 3047 1241 
Q 3047 1584 2836 1778 
Q 2625 1972 2144 2069 
L 1759 2144 
Q 1053 2284 737 2584 
Q 422 2884 422 3419 
Q 422 4038 858 4394 
Q 1294 4750 2059 4750 
Q 2388 4750 2728 4690 
Q 3069 4631 3425 4513 
z
" transform="scale(0.015625)"/>
      <path id="DejaVuSans-5f" d="M 3263 -1063 
L 3263 -1509 
L -63 -1509 
L -63 -1063 
L 3263 -1063 
z
" transform="scale(0.015625)"/>
      <path id="DejaVuSans-56" d="M 1831 0 
L 50 4666 
L 709 4666 
L 2188 738 
L 3669 4666 
L 4325 4666 
L 2547 0 
L 1831 0 
z
" transform="scale(0.015625)"/>
      <path id="DejaVuSans-54" d="M -19 4666 
L 3928 4666 
L 3928 4134 
L 2272 4134 
L 2272 0 
L 1638 0 
L 1638 4134 
L -19 4134 
L -19 4666 
z
" transform="scale(0.015625)"/>
      <path id="DejaVuSans-48" d="M 628 4666 
L 1259 4666 
L 1259 2753 
L 3553 2753 
L 3553 4666 
L 4184 4666 
L 4184 0 
L 3553 0 
L 3553 2222 
L 1259 2222 
L 1259 0 
L 628 0 
L 628 4666 
z
" transform="scale(0.015625)"/>
      <path id="DejaVuSans-2c" d="M 750 794 
L 1409 794 
L 1409 256 
L 897 -744 
L 494 -744 
L 750 256 
L 750 794 
z
" transform="scale(0.015625)"/>
      <path id="DejaVuSans-20" transform="scale(0.015625)"/>
      <path id="DejaVuSans-Oblique-56" d="M 1319 0 
L 500 4666 
L 1119 4666 
L 1797 653 
L 4063 4666 
L 4750 4666 
L 2053 0 
L 1319 0 
z
" transform="scale(0.015625)"/>
      <path id="DejaVuSans-Oblique-42" d="M 1081 4666 
L 2694 4666 
Q 3350 4666 3675 4422 
Q 4000 4178 4000 3688 
Q 4000 3238 3720 2911 
Q 3441 2584 2988 2516 
Q 3375 2428 3569 2181 
Q 3763 1934 3763 1522 
Q 3763 819 3242 409 
Q 2722 0 1819 0 
L 172 0 
L 1081 4666 
z
M 1234 2228 
L 903 519 
L 1919 519 
Q 2491 519 2800 781 
Q 3109 1044 3109 1522 
Q 3109 1891 2904 2059 
Q 2700 2228 2247 2228 
L 1234 2228 
z
M 1606 4147 
L 1331 2741 
L 2272 2741 
Q 2775 2741 3058 2959 
Q 3341 3178 3341 3566 
Q 3341 3869 3150 4008 
Q 2959 4147 2541 4147 
L 1606 4147 
z
" transform="scale(0.015625)"/>
      <path id="DejaVuSans-3d" d="M 678 2906 
L 4684 2906 
L 4684 2381 
L 678 2381 
L 678 2906 
z
M 678 1631 
L 4684 1631 
L 4684 1100 
L 678 1100 
L 678 1631 
z
" transform="scale(0.015625)"/>
      <path id="DejaVuSans-2e" d="M 684 794 
L 1344 794 
L 1344 0 
L 684 0 
L 684 794 
z
" transform="scale(0.015625)"/>
     </defs>
     <use xlink:href="#DejaVuSans-4e" transform="translate(0 0.78125)"/>
     <use xlink:href="#DejaVuSans-4d" transform="translate(74.804688 0.78125)"/>
     <use xlink:href="#DejaVuSans-4f" transform="translate(161.083984 0.78125)"/>
     <use xlink:href="#DejaVuSans-53" transform="translate(239.794922 0.78125)"/>
     <use xlink:href="#DejaVuSans-5f" transform="translate(303.271484 0.78125)"/>
     <use xlink:href="#DejaVuSans-56" transform="translate(353.271484 0.78125)"/>
     <use xlink:href="#DejaVuSans-54" transform="translate(421.679688 0.78125)"/>
     <use xlink:href="#DejaVuSans-48" transform="translate(482.763672 0.78125)"/>
     <use xlink:href="#DejaVuSans-2c" transform="translate(557.958984 0.78125)"/>
     <use xlink:href="#DejaVuSans-20" transform="translate(589.746094 0.78125)"/>
     <use xlink:href="#DejaVuSans-Oblique-56" transform="translate(621.533203 0.78125)"/>
     <use xlink:href="#DejaVuSans-Oblique-53" transform="translate(689.941406 -15.625) scale(0.7)"/>
     <use xlink:href="#DejaVuSans-Oblique-42" transform="translate(734.375 -15.625) scale(0.7)"/>
     <use xlink:href="#DejaVuSans-3d" transform="translate(804.614258 0.78125)"/>
     <use xlink:href="#DejaVuSans-30" transform="translate(907.885742 0.78125)"/>
     <use xlink:href="#DejaVuSans-2e" transform="translate(971.508789 0.78125)"/>
     <use xlink:href="#DejaVuSans-30" transform="translate(1003.295898 0.78125)"/>
     <use xlink:href="#DejaVuSans-30" transform="translate(1066.918945 0.78125)"/>
     <use xlink:href="#DejaVuSans-2c" transform="translate(1130.541992 0.78125)"/>
     <use xlink:href="#DejaVuSans-20" transform="translate(1162.329102 0.78125)"/>
     <use xlink:href="#DejaVuSans-Oblique-56" transform="translate(1194.116211 0.78125)"/>
     <use xlink:href="#DejaVuSans-Oblique-44" transform="translate(1262.524414 -15.625) scale(0.7)"/>
     <use xlink:href="#DejaVuSans-Oblique-53" transform="translate(1316.425781 -15.625) scale(0.7)"/>
     <use xlink:href="#DejaVuSans-3d" transform="translate(1383.076172 0.78125)"/>
     <use xlink:href="#DejaVuSans-30" transform="translate(1486.347656 0.78125)"/>
     <use xlink:href="#DejaVuSans-2e" transform="translate(1549.970703 0.78125)"/>
     <use xlink:href="#DejaVuSans-35" transform="translate(1581.757812 0.78125)"/>
     <use xlink:href="#DejaVuSans-30" transform="translate(1645.380859 0.78125)"/>
    </g>
   </g>
   <g id="legend_1">
    <g id="patch_7">
     <path d="M 502.596875 196.523437 
L 563.2 196.523437 
Q 565.2 196.523437 565.2 194.523437 
L 565.2 78.098437 
Q 565.2 76.098437 563.2 76.098437 
L 502.596875 76.098437 
Q 500.596875 76.098437 500.596875 78.098437 
L 500.596875 194.523437 
Q 500.596875 196.523437 502.596875 196.523437 
z
" style="fill: #ffffff; opacity: 0.8; stroke: #cccccc; stroke-linejoin: miter"/>
    </g>
    <g id="line2d_33">
     <path d="M 504.596875 84.196875 
L 514.596875 84.196875 
L 524.596875 84.196875 
" style="fill: none; stroke: #1f77b4; stroke-width: 1.5; stroke-linecap: square"/>
    </g>
    <g id="text_16">
     <!-- 50 n -->
     <g transform="translate(532.596875 87.696875) scale(0.1 -0.1)">
      <defs>
       <path id="DejaVuSans-6e" d="M 3513 2113 
L 3513 0 
L 2938 0 
L 2938 2094 
Q 2938 2591 2744 2837 
Q 2550 3084 2163 3084 
Q 1697 3084 1428 2787 
Q 1159 2491 1159 1978 
L 1159 0 
L 581 0 
L 581 3500 
L 1159 3500 
L 1159 2956 
Q 1366 3272 1645 3428 
Q 1925 3584 2291 3584 
Q 2894 3584 3203 3211 
Q 3513 2838 3513 2113 
z
" transform="scale(0.015625)"/>
      </defs>
      <use xlink:href="#DejaVuSans-35"/>
      <use xlink:href="#DejaVuSans-30" x="63.623047"/>
      <use xlink:href="#DejaVuSans-20" x="127.246094"/>
      <use xlink:href="#DejaVuSans-6e" x="159.033203"/>
     </g>
    </g>
    <g id="line2d_34">
     <path d="M 504.596875 98.875 
L 514.596875 98.875 
L 524.596875 98.875 
" style="fill: none; stroke: #ff7f0e; stroke-width: 1.5; stroke-linecap: square"/>
    </g>
    <g id="text_17">
     <!-- 100 n -->
     <g transform="translate(532.596875 102.375) scale(0.1 -0.1)">
      <use xlink:href="#DejaVuSans-31"/>
      <use xlink:href="#DejaVuSans-30" x="63.623047"/>
      <use xlink:href="#DejaVuSans-30" x="127.246094"/>
      <use xlink:href="#DejaVuSans-20" x="190.869141"/>
      <use xlink:href="#DejaVuSans-6e" x="222.65625"/>
     </g>
    </g>
    <g id="line2d_35">
     <path d="M 504.596875 113.553125 
L 514.596875 113.553125 
L 524.596875 113.553125 
" style="fill: none; stroke: #2ca02c; stroke-width: 1.5; stroke-linecap: square"/>
    </g>
    <g id="text_18">
     <!-- 200 n -->
     <g transform="translate(532.596875 117.053125) scale(0.1 -0.1)">
      <use xlink:href="#DejaVuSans-32"/>
      <use xlink:href="#DejaVuSans-30" x="63.623047"/>
      <use xlink:href="#DejaVuSans-30" x="127.246094"/>
      <use xlink:href="#DejaVuSans-20" x="190.869141"/>
      <use xlink:href="#DejaVuSans-6e" x="222.65625"/>
     </g>
    </g>
    <g id="line2d_36">
     <path d="M 504.596875 128.23125 
L 514.596875 128.23125 
L 524.596875 128.23125 
" style="fill: none; stroke: #d62728; stroke-width: 1.5; stroke-linecap: square"/>
    </g>
    <g id="text_19">
     <!-- 400 n -->
     <g transform="translate(532.596875 131.73125) scale(0.1 -0.1)">
      <use xlink:href="#DejaVuSans-34"/>
      <use xlink:href="#DejaVuSans-30" x="63.623047"/>
      <use xlink:href="#DejaVuSans-30" x="127.246094"/>
      <use xlink:href="#DejaVuSans-20" x="190.869141"/>
      <use xlink:href="#DejaVuSans-6e" x="222.65625"/>
     </g>
    </g>
    <g id="line2d_37">
     <path d="M 504.596875 142.909375 
L 514.596875 142.909375 
L 524.596875 142.909375 
" style="fill: none; stroke: #9467bd; stroke-width: 1.5; stroke-linecap: square"/>
    </g>
    <g id="text_20">
     <!-- 800 n -->
     <g transform="translate(532.596875 146.409375) scale(0.1 -0.1)">
      <defs>
       <path id="DejaVuSans-38" d="M 2034 2216 
Q 1584 2216 1326 1975 
Q 1069 1734 1069 1313 
Q 1069 891 1326 650 
Q 1584 409 2034 409 
Q 2484 409 2743 651 
Q 3003 894 3003 1313 
Q 3003 1734 2745 1975 
Q 2488 2216 2034 2216 
z
M 1403 2484 
Q 997 2584 770 2862 
Q 544 3141 544 3541 
Q 544 4100 942 4425 
Q 1341 4750 2034 4750 
Q 2731 4750 3128 4425 
Q 3525 4100 3525 3541 
Q 3525 3141 3298 2862 
Q 3072 2584 2669 2484 
Q 3125 2378 3379 2068 
Q 3634 1759 3634 1313 
Q 3634 634 3220 271 
Q 2806 -91 2034 -91 
Q 1263 -91 848 271 
Q 434 634 434 1313 
Q 434 1759 690 2068 
Q 947 2378 1403 2484 
z
M 1172 3481 
Q 1172 3119 1398 2916 
Q 1625 2713 2034 2713 
Q 2441 2713 2670 2916 
Q 2900 3119 2900 3481 
Q 2900 3844 2670 4047 
Q 2441 4250 2034 4250 
Q 1625 4250 1398 4047 
Q 1172 3844 1172 3481 
z
" transform="scale(0.015625)"/>
      </defs>
      <use xlink:href="#DejaVuSans-38"/>
      <use xlink:href="#DejaVuSans-30" x="63.623047"/>
      <use xlink:href="#DejaVuSans-30" x="127.246094"/>
      <use xlink:href="#DejaVuSans-20" x="190.869141"/>
      <use xlink:href="#DejaVuSans-6e" x="222.65625"/>
     </g>
    </g>
    <g id="line2d_38">
     <path d="M 504.596875 157.5875 
L 514.596875 157.5875 
L 524.596875 157.5875 
" style="fill: none; stroke: #8c564b; stroke-width: 1.5; stroke-linecap: square"/>
    </g>
    <g id="text_21">
     <!-- 1.6  -->
     <g transform="translate(532.596875 161.0875) scale(0.1 -0.1)">
      <defs>
       <path id="DejaVuSans-b5" d="M 544 -1331 
L 544 3500 
L 1119 3500 
L 1119 1325 
Q 1119 872 1334 640 
Q 1550 409 1972 409 
Q 2434 409 2667 671 
Q 2900 934 2900 1459 
L 2900 3500 
L 3475 3500 
L 3475 806 
Q 3475 619 3529 530 
Q 3584 441 3700 441 
Q 3728 441 3778 458 
Q 3828 475 3916 513 
L 3916 50 
Q 3788 -22 3673 -56 
Q 3559 -91 3450 -91 
Q 3234 -91 3106 31 
Q 2978 153 2931 403 
Q 2775 156 2548 32 
Q 2322 -91 2016 -91 
Q 1697 -91 1473 31 
Q 1250 153 1119 397 
L 1119 -1331 
L 544 -1331 
z
" transform="scale(0.015625)"/>
      </defs>
      <use xlink:href="#DejaVuSans-31"/>
      <use xlink:href="#DejaVuSans-2e" x="63.623047"/>
      <use xlink:href="#DejaVuSans-36" x="95.410156"/>
      <use xlink:href="#DejaVuSans-20" x="159.033203"/>
      <use xlink:href="#DejaVuSans-b5" x="190.820312"/>
     </g>
    </g>
    <g id="line2d_39">
     <path d="M 504.596875 172.265625 
L 514.596875 172.265625 
L 524.596875 172.265625 
" style="fill: none; stroke: #e377c2; stroke-width: 1.5; stroke-linecap: square"/>
    </g>
    <g id="text_22">
     <!-- 3.2  -->
     <g transform="translate(532.596875 175.765625) scale(0.1 -0.1)">
      <use xlink:href="#DejaVuSans-33"/>
      <use xlink:href="#DejaVuSans-2e" x="63.623047"/>
      <use xlink:href="#DejaVuSans-32" x="95.410156"/>
      <use xlink:href="#DejaVuSans-20" x="159.033203"/>
      <use xlink:href="#DejaVuSans-b5" x="190.820312"/>
     </g>
    </g>
    <g id="line2d_40">
     <path d="M 504.596875 186.94375 
L 514.596875 186.94375 
L 524.596875 186.94375 
" style="fill: none; stroke: #7f7f7f; stroke-width: 1.5; stroke-linecap: square"/>
    </g>
    <g id="text_23">
     <!-- 6.4  -->
     <g transform="translate(532.596875 190.44375) scale(0.1 -0.1)">
      <use xlink:href="#DejaVuSans-36"/>
      <use xlink:href="#DejaVuSans-2e" x="63.623047"/>
      <use xlink:href="#DejaVuSans-34" x="95.410156"/>
      <use xlink:href="#DejaVuSans-20" x="159.033203"/>
      <use xlink:href="#DejaVuSans-b5" x="190.820312"/>
     </g>
    </g>
   </g>
  </g>
 </g>
 <defs>
  <clipPath id="p47b96cbf75">
   <rect x="50.565625" y="25.8" width="445.03125" height="221.021875"/>
  </clipPath>
 </defs>
</svg>
