<?xml version="1.0" encoding="utf-8" standalone="no"?>
<!DOCTYPE svg PUBLIC "-//W3C//DTD SVG 1.1//EN"
  "http://www.w3.org/Graphics/SVG/1.1/DTD/svg11.dtd">
<svg xmlns:xlink="http://www.w3.org/1999/xlink" width="552.96pt" height="264.96pt" viewBox="0 0 552.96 264.96" xmlns="http://www.w3.org/2000/svg" version="1.1">
 <metadata>
  <rdf:RDF xmlns:dc="http://purl.org/dc/elements/1.1/" xmlns:cc="http://creativecommons.org/ns#" xmlns:rdf="http://www.w3.org/1999/02/22-rdf-syntax-ns#">
   <cc:Work>
    <dc:type rdf:resource="http://purl.org/dc/dcmitype/StillImage"/>
    <dc:date>2023-11-02T15:13:26.224233</dc:date>
    <dc:format>image/svg+xml</dc:format>
    <dc:creator>
     <cc:Agent>
      <dc:title>Matplotlib v3.8.0, https://matplotlib.org/</dc:title>
     </cc:Agent>
    </dc:creator>
   </cc:Work>
  </rdf:RDF>
 </metadata>
 <defs>
  <style type="text/css">*{stroke-linejoin: round; stroke-linecap: butt}</style>
 </defs>
 <g id="figure_1">
  <g id="patch_1">
   <path d="M 0 264.96 
L 552.96 264.96 
L 552.96 0 
L 0 0 
L 0 264.96 
z
" style="fill: none"/>
  </g>
  <g id="axes_1">
   <g id="patch_2">
    <path d="M 45.533162 227.514399 
L 459.916163 227.514399 
L 459.916163 21.223055 
L 45.533162 21.223055 
L 45.533162 227.514399 
z
" style="fill: none"/>
   </g>
   <g id="matplotlib.axis_1">
    <g id="xtick_1">
     <g id="line2d_1">
      <path d="M 97.395681 227.514399 
L 97.395681 21.223055 
" clip-path="url(#pc3b5e64283)" style="fill: none; stroke-dasharray: 1.85,0.8; stroke-dashoffset: 0; stroke: #e6e6e6; stroke-width: 0.5"/>
     </g>
     <g id="line2d_2">
      <defs>
       <path id="m6b1f1e27f4" d="M 0 0 
L 0 -3 
" style="stroke: #000000; stroke-width: 0.5"/>
      </defs>
      <g>
       <use xlink:href="#m6b1f1e27f4" x="97.395681" y="227.514399" style="stroke: #000000; stroke-width: 0.5"/>
      </g>
     </g>
     <g id="line2d_3">
      <defs>
       <path id="mfe2e331de7" d="M 0 0 
L 0 3 
" style="stroke: #000000; stroke-width: 0.5"/>
      </defs>
      <g>
       <use xlink:href="#mfe2e331de7" x="97.395681" y="21.223055" style="stroke: #000000; stroke-width: 0.5"/>
      </g>
     </g>
     <g id="text_1">
      <!-- $\mathdefault{5}$ -->
      <g transform="translate(93.981436 240.700275) scale(0.14 -0.14)">
       <defs>
        <path id="CMR17-35" d="M 730 3692 
C 794 3666 1056 3584 1325 3584 
C 1920 3584 2246 3911 2432 4100 
C 2432 4157 2432 4192 2394 4192 
C 2387 4192 2374 4192 2323 4163 
C 2099 4058 1837 3973 1517 3973 
C 1325 3973 1037 3999 723 4139 
C 653 4171 640 4171 634 4171 
C 602 4171 595 4164 595 4037 
L 595 2203 
C 595 2089 595 2057 659 2057 
C 691 2057 704 2070 736 2114 
C 941 2401 1222 2522 1542 2522 
C 1766 2522 2246 2382 2246 1289 
C 2246 1085 2246 715 2054 421 
C 1894 159 1645 25 1370 25 
C 947 25 518 320 403 814 
C 429 807 480 795 506 795 
C 589 795 749 840 749 1038 
C 749 1210 627 1280 506 1280 
C 358 1280 262 1190 262 1011 
C 262 454 704 -128 1382 -128 
C 2042 -128 2669 440 2669 1264 
C 2669 2030 2170 2624 1549 2624 
C 1222 2624 947 2503 730 2274 
L 730 3692 
z
" transform="scale(0.015625)"/>
       </defs>
       <use xlink:href="#CMR17-35" transform="scale(0.996264)"/>
      </g>
     </g>
    </g>
    <g id="xtick_2">
     <g id="line2d_4">
      <path d="M 174.321631 227.514399 
L 174.321631 21.223055 
" clip-path="url(#pc3b5e64283)" style="fill: none; stroke-dasharray: 1.85,0.8; stroke-dashoffset: 0; stroke: #e6e6e6; stroke-width: 0.5"/>
     </g>
     <g id="line2d_5">
      <g>
       <use xlink:href="#m6b1f1e27f4" x="174.321631" y="227.514399" style="stroke: #000000; stroke-width: 0.5"/>
      </g>
     </g>
     <g id="line2d_6">
      <g>
       <use xlink:href="#mfe2e331de7" x="174.321631" y="21.223055" style="stroke: #000000; stroke-width: 0.5"/>
      </g>
     </g>
     <g id="text_2">
      <!-- $\mathdefault{10}$ -->
      <g transform="translate(167.493143 240.700275) scale(0.14 -0.14)">
       <defs>
        <path id="CMR17-31" d="M 1702 4058 
C 1702 4192 1696 4192 1606 4192 
C 1357 3916 979 3827 621 3827 
C 602 3827 570 3827 563 3808 
C 557 3795 557 3782 557 3648 
C 755 3648 1088 3686 1344 3839 
L 1344 461 
C 1344 236 1331 160 781 160 
L 589 160 
L 589 0 
C 896 0 1216 0 1523 0 
C 1830 0 2150 0 2458 0 
L 2458 160 
L 2266 160 
C 1715 160 1702 230 1702 458 
L 1702 4058 
z
" transform="scale(0.015625)"/>
        <path id="CMR17-30" d="M 2688 2025 
C 2688 2416 2682 3080 2413 3591 
C 2176 4039 1798 4198 1466 4198 
C 1158 4198 768 4058 525 3597 
C 269 3118 243 2524 243 2025 
C 243 1661 250 1106 448 619 
C 723 -39 1216 -128 1466 -128 
C 1760 -128 2208 -7 2470 600 
C 2662 1042 2688 1559 2688 2025 
z
M 1466 -26 
C 1056 -26 813 325 723 812 
C 653 1188 653 1738 653 2096 
C 653 2588 653 2997 736 3387 
C 858 3929 1216 4096 1466 4096 
C 1728 4096 2067 3923 2189 3400 
C 2272 3036 2278 2607 2278 2096 
C 2278 1680 2278 1169 2202 792 
C 2067 95 1690 -26 1466 -26 
z
" transform="scale(0.015625)"/>
       </defs>
       <use xlink:href="#CMR17-31" transform="scale(0.996264)"/>
       <use xlink:href="#CMR17-30" transform="translate(45.690477 0) scale(0.996264)"/>
      </g>
     </g>
    </g>
    <g id="xtick_3">
     <g id="line2d_7">
      <path d="M 251.247582 227.514399 
L 251.247582 21.223055 
" clip-path="url(#pc3b5e64283)" style="fill: none; stroke-dasharray: 1.85,0.8; stroke-dashoffset: 0; stroke: #e6e6e6; stroke-width: 0.5"/>
     </g>
     <g id="line2d_8">
      <g>
       <use xlink:href="#m6b1f1e27f4" x="251.247582" y="227.514399" style="stroke: #000000; stroke-width: 0.5"/>
      </g>
     </g>
     <g id="line2d_9">
      <g>
       <use xlink:href="#mfe2e331de7" x="251.247582" y="21.223055" style="stroke: #000000; stroke-width: 0.5"/>
      </g>
     </g>
     <g id="text_3">
      <!-- $\mathdefault{15}$ -->
      <g transform="translate(244.419094 240.700275) scale(0.14 -0.14)">
       <use xlink:href="#CMR17-31" transform="scale(0.996264)"/>
       <use xlink:href="#CMR17-35" transform="translate(45.690477 0) scale(0.996264)"/>
      </g>
     </g>
    </g>
    <g id="xtick_4">
     <g id="line2d_10">
      <path d="M 328.173533 227.514399 
L 328.173533 21.223055 
" clip-path="url(#pc3b5e64283)" style="fill: none; stroke-dasharray: 1.85,0.8; stroke-dashoffset: 0; stroke: #e6e6e6; stroke-width: 0.5"/>
     </g>
     <g id="line2d_11">
      <g>
       <use xlink:href="#m6b1f1e27f4" x="328.173533" y="227.514399" style="stroke: #000000; stroke-width: 0.5"/>
      </g>
     </g>
     <g id="line2d_12">
      <g>
       <use xlink:href="#mfe2e331de7" x="328.173533" y="21.223055" style="stroke: #000000; stroke-width: 0.5"/>
      </g>
     </g>
     <g id="text_4">
      <!-- $\mathdefault{20}$ -->
      <g transform="translate(321.345044 240.700275) scale(0.14 -0.14)">
       <defs>
        <path id="CMR17-32" d="M 2669 989 
L 2554 989 
C 2490 536 2438 459 2413 420 
C 2381 369 1920 369 1830 369 
L 602 369 
C 832 619 1280 1072 1824 1597 
C 2214 1967 2669 2402 2669 3035 
C 2669 3790 2067 4224 1395 4224 
C 691 4224 262 3604 262 3030 
C 262 2780 448 2748 525 2748 
C 589 2748 781 2787 781 3010 
C 781 3207 614 3264 525 3264 
C 486 3264 448 3258 422 3245 
C 544 3790 915 4058 1306 4058 
C 1862 4058 2227 3617 2227 3035 
C 2227 2479 1901 2000 1536 1584 
L 262 146 
L 262 0 
L 2515 0 
L 2669 989 
z
" transform="scale(0.015625)"/>
       </defs>
       <use xlink:href="#CMR17-32" transform="scale(0.996264)"/>
       <use xlink:href="#CMR17-30" transform="translate(45.690477 0) scale(0.996264)"/>
      </g>
     </g>
    </g>
    <g id="xtick_5">
     <g id="line2d_13">
      <path d="M 405.099484 227.514399 
L 405.099484 21.223055 
" clip-path="url(#pc3b5e64283)" style="fill: none; stroke-dasharray: 1.85,0.8; stroke-dashoffset: 0; stroke: #e6e6e6; stroke-width: 0.5"/>
     </g>
     <g id="line2d_14">
      <g>
       <use xlink:href="#m6b1f1e27f4" x="405.099484" y="227.514399" style="stroke: #000000; stroke-width: 0.5"/>
      </g>
     </g>
     <g id="line2d_15">
      <g>
       <use xlink:href="#mfe2e331de7" x="405.099484" y="21.223055" style="stroke: #000000; stroke-width: 0.5"/>
      </g>
     </g>
     <g id="text_5">
      <!-- $\mathdefault{25}$ -->
      <g transform="translate(398.270995 240.700275) scale(0.14 -0.14)">
       <use xlink:href="#CMR17-32" transform="scale(0.996264)"/>
       <use xlink:href="#CMR17-35" transform="translate(45.690477 0) scale(0.996264)"/>
      </g>
     </g>
    </g>
    <g id="xtick_6">
     <g id="line2d_16">
      <path d="M 51.24011 227.514399 
L 51.24011 21.223055 
" clip-path="url(#pc3b5e64283)" style="fill: none; stroke-dasharray: 1.85,0.8; stroke-dashoffset: 0; stroke: #e6e6e6; stroke-width: 0.5"/>
     </g>
     <g id="line2d_17">
      <defs>
       <path id="m1a9ae76554" d="M 0 0 
L 0 -1.5 
" style="stroke: #000000; stroke-width: 0.5"/>
      </defs>
      <g>
       <use xlink:href="#m1a9ae76554" x="51.24011" y="227.514399" style="stroke: #000000; stroke-width: 0.5"/>
      </g>
     </g>
     <g id="line2d_18">
      <defs>
       <path id="mfb690f00cd" d="M 0 0 
L 0 1.5 
" style="stroke: #000000; stroke-width: 0.5"/>
      </defs>
      <g>
       <use xlink:href="#mfb690f00cd" x="51.24011" y="21.223055" style="stroke: #000000; stroke-width: 0.5"/>
      </g>
     </g>
    </g>
    <g id="xtick_7">
     <g id="line2d_19">
      <path d="M 66.6253 227.514399 
L 66.6253 21.223055 
" clip-path="url(#pc3b5e64283)" style="fill: none; stroke-dasharray: 1.85,0.8; stroke-dashoffset: 0; stroke: #e6e6e6; stroke-width: 0.5"/>
     </g>
     <g id="line2d_20">
      <g>
       <use xlink:href="#m1a9ae76554" x="66.6253" y="227.514399" style="stroke: #000000; stroke-width: 0.5"/>
      </g>
     </g>
     <g id="line2d_21">
      <g>
       <use xlink:href="#mfb690f00cd" x="66.6253" y="21.223055" style="stroke: #000000; stroke-width: 0.5"/>
      </g>
     </g>
    </g>
    <g id="xtick_8">
     <g id="line2d_22">
      <path d="M 82.01049 227.514399 
L 82.01049 21.223055 
" clip-path="url(#pc3b5e64283)" style="fill: none; stroke-dasharray: 1.85,0.8; stroke-dashoffset: 0; stroke: #e6e6e6; stroke-width: 0.5"/>
     </g>
     <g id="line2d_23">
      <g>
       <use xlink:href="#m1a9ae76554" x="82.01049" y="227.514399" style="stroke: #000000; stroke-width: 0.5"/>
      </g>
     </g>
     <g id="line2d_24">
      <g>
       <use xlink:href="#mfb690f00cd" x="82.01049" y="21.223055" style="stroke: #000000; stroke-width: 0.5"/>
      </g>
     </g>
    </g>
    <g id="xtick_9">
     <g id="line2d_25">
      <path d="M 112.780871 227.514399 
L 112.780871 21.223055 
" clip-path="url(#pc3b5e64283)" style="fill: none; stroke-dasharray: 1.85,0.8; stroke-dashoffset: 0; stroke: #e6e6e6; stroke-width: 0.5"/>
     </g>
     <g id="line2d_26">
      <g>
       <use xlink:href="#m1a9ae76554" x="112.780871" y="227.514399" style="stroke: #000000; stroke-width: 0.5"/>
      </g>
     </g>
     <g id="line2d_27">
      <g>
       <use xlink:href="#mfb690f00cd" x="112.780871" y="21.223055" style="stroke: #000000; stroke-width: 0.5"/>
      </g>
     </g>
    </g>
    <g id="xtick_10">
     <g id="line2d_28">
      <path d="M 128.166061 227.514399 
L 128.166061 21.223055 
" clip-path="url(#pc3b5e64283)" style="fill: none; stroke-dasharray: 1.85,0.8; stroke-dashoffset: 0; stroke: #e6e6e6; stroke-width: 0.5"/>
     </g>
     <g id="line2d_29">
      <g>
       <use xlink:href="#m1a9ae76554" x="128.166061" y="227.514399" style="stroke: #000000; stroke-width: 0.5"/>
      </g>
     </g>
     <g id="line2d_30">
      <g>
       <use xlink:href="#mfb690f00cd" x="128.166061" y="21.223055" style="stroke: #000000; stroke-width: 0.5"/>
      </g>
     </g>
    </g>
    <g id="xtick_11">
     <g id="line2d_31">
      <path d="M 143.551251 227.514399 
L 143.551251 21.223055 
" clip-path="url(#pc3b5e64283)" style="fill: none; stroke-dasharray: 1.85,0.8; stroke-dashoffset: 0; stroke: #e6e6e6; stroke-width: 0.5"/>
     </g>
     <g id="line2d_32">
      <g>
       <use xlink:href="#m1a9ae76554" x="143.551251" y="227.514399" style="stroke: #000000; stroke-width: 0.5"/>
      </g>
     </g>
     <g id="line2d_33">
      <g>
       <use xlink:href="#mfb690f00cd" x="143.551251" y="21.223055" style="stroke: #000000; stroke-width: 0.5"/>
      </g>
     </g>
    </g>
    <g id="xtick_12">
     <g id="line2d_34">
      <path d="M 158.936441 227.514399 
L 158.936441 21.223055 
" clip-path="url(#pc3b5e64283)" style="fill: none; stroke-dasharray: 1.85,0.8; stroke-dashoffset: 0; stroke: #e6e6e6; stroke-width: 0.5"/>
     </g>
     <g id="line2d_35">
      <g>
       <use xlink:href="#m1a9ae76554" x="158.936441" y="227.514399" style="stroke: #000000; stroke-width: 0.5"/>
      </g>
     </g>
     <g id="line2d_36">
      <g>
       <use xlink:href="#mfb690f00cd" x="158.936441" y="21.223055" style="stroke: #000000; stroke-width: 0.5"/>
      </g>
     </g>
    </g>
    <g id="xtick_13">
     <g id="line2d_37">
      <path d="M 189.706822 227.514399 
L 189.706822 21.223055 
" clip-path="url(#pc3b5e64283)" style="fill: none; stroke-dasharray: 1.85,0.8; stroke-dashoffset: 0; stroke: #e6e6e6; stroke-width: 0.5"/>
     </g>
     <g id="line2d_38">
      <g>
       <use xlink:href="#m1a9ae76554" x="189.706822" y="227.514399" style="stroke: #000000; stroke-width: 0.5"/>
      </g>
     </g>
     <g id="line2d_39">
      <g>
       <use xlink:href="#mfb690f00cd" x="189.706822" y="21.223055" style="stroke: #000000; stroke-width: 0.5"/>
      </g>
     </g>
    </g>
    <g id="xtick_14">
     <g id="line2d_40">
      <path d="M 205.092012 227.514399 
L 205.092012 21.223055 
" clip-path="url(#pc3b5e64283)" style="fill: none; stroke-dasharray: 1.85,0.8; stroke-dashoffset: 0; stroke: #e6e6e6; stroke-width: 0.5"/>
     </g>
     <g id="line2d_41">
      <g>
       <use xlink:href="#m1a9ae76554" x="205.092012" y="227.514399" style="stroke: #000000; stroke-width: 0.5"/>
      </g>
     </g>
     <g id="line2d_42">
      <g>
       <use xlink:href="#mfb690f00cd" x="205.092012" y="21.223055" style="stroke: #000000; stroke-width: 0.5"/>
      </g>
     </g>
    </g>
    <g id="xtick_15">
     <g id="line2d_43">
      <path d="M 220.477202 227.514399 
L 220.477202 21.223055 
" clip-path="url(#pc3b5e64283)" style="fill: none; stroke-dasharray: 1.85,0.8; stroke-dashoffset: 0; stroke: #e6e6e6; stroke-width: 0.5"/>
     </g>
     <g id="line2d_44">
      <g>
       <use xlink:href="#m1a9ae76554" x="220.477202" y="227.514399" style="stroke: #000000; stroke-width: 0.5"/>
      </g>
     </g>
     <g id="line2d_45">
      <g>
       <use xlink:href="#mfb690f00cd" x="220.477202" y="21.223055" style="stroke: #000000; stroke-width: 0.5"/>
      </g>
     </g>
    </g>
    <g id="xtick_16">
     <g id="line2d_46">
      <path d="M 235.862392 227.514399 
L 235.862392 21.223055 
" clip-path="url(#pc3b5e64283)" style="fill: none; stroke-dasharray: 1.85,0.8; stroke-dashoffset: 0; stroke: #e6e6e6; stroke-width: 0.5"/>
     </g>
     <g id="line2d_47">
      <g>
       <use xlink:href="#m1a9ae76554" x="235.862392" y="227.514399" style="stroke: #000000; stroke-width: 0.5"/>
      </g>
     </g>
     <g id="line2d_48">
      <g>
       <use xlink:href="#mfb690f00cd" x="235.862392" y="21.223055" style="stroke: #000000; stroke-width: 0.5"/>
      </g>
     </g>
    </g>
    <g id="xtick_17">
     <g id="line2d_49">
      <path d="M 266.632772 227.514399 
L 266.632772 21.223055 
" clip-path="url(#pc3b5e64283)" style="fill: none; stroke-dasharray: 1.85,0.8; stroke-dashoffset: 0; stroke: #e6e6e6; stroke-width: 0.5"/>
     </g>
     <g id="line2d_50">
      <g>
       <use xlink:href="#m1a9ae76554" x="266.632772" y="227.514399" style="stroke: #000000; stroke-width: 0.5"/>
      </g>
     </g>
     <g id="line2d_51">
      <g>
       <use xlink:href="#mfb690f00cd" x="266.632772" y="21.223055" style="stroke: #000000; stroke-width: 0.5"/>
      </g>
     </g>
    </g>
    <g id="xtick_18">
     <g id="line2d_52">
      <path d="M 282.017963 227.514399 
L 282.017963 21.223055 
" clip-path="url(#pc3b5e64283)" style="fill: none; stroke-dasharray: 1.85,0.8; stroke-dashoffset: 0; stroke: #e6e6e6; stroke-width: 0.5"/>
     </g>
     <g id="line2d_53">
      <g>
       <use xlink:href="#m1a9ae76554" x="282.017963" y="227.514399" style="stroke: #000000; stroke-width: 0.5"/>
      </g>
     </g>
     <g id="line2d_54">
      <g>
       <use xlink:href="#mfb690f00cd" x="282.017963" y="21.223055" style="stroke: #000000; stroke-width: 0.5"/>
      </g>
     </g>
    </g>
    <g id="xtick_19">
     <g id="line2d_55">
      <path d="M 297.403153 227.514399 
L 297.403153 21.223055 
" clip-path="url(#pc3b5e64283)" style="fill: none; stroke-dasharray: 1.85,0.8; stroke-dashoffset: 0; stroke: #e6e6e6; stroke-width: 0.5"/>
     </g>
     <g id="line2d_56">
      <g>
       <use xlink:href="#m1a9ae76554" x="297.403153" y="227.514399" style="stroke: #000000; stroke-width: 0.5"/>
      </g>
     </g>
     <g id="line2d_57">
      <g>
       <use xlink:href="#mfb690f00cd" x="297.403153" y="21.223055" style="stroke: #000000; stroke-width: 0.5"/>
      </g>
     </g>
    </g>
    <g id="xtick_20">
     <g id="line2d_58">
      <path d="M 312.788343 227.514399 
L 312.788343 21.223055 
" clip-path="url(#pc3b5e64283)" style="fill: none; stroke-dasharray: 1.85,0.8; stroke-dashoffset: 0; stroke: #e6e6e6; stroke-width: 0.5"/>
     </g>
     <g id="line2d_59">
      <g>
       <use xlink:href="#m1a9ae76554" x="312.788343" y="227.514399" style="stroke: #000000; stroke-width: 0.5"/>
      </g>
     </g>
     <g id="line2d_60">
      <g>
       <use xlink:href="#mfb690f00cd" x="312.788343" y="21.223055" style="stroke: #000000; stroke-width: 0.5"/>
      </g>
     </g>
    </g>
    <g id="xtick_21">
     <g id="line2d_61">
      <path d="M 343.558723 227.514399 
L 343.558723 21.223055 
" clip-path="url(#pc3b5e64283)" style="fill: none; stroke-dasharray: 1.85,0.8; stroke-dashoffset: 0; stroke: #e6e6e6; stroke-width: 0.5"/>
     </g>
     <g id="line2d_62">
      <g>
       <use xlink:href="#m1a9ae76554" x="343.558723" y="227.514399" style="stroke: #000000; stroke-width: 0.5"/>
      </g>
     </g>
     <g id="line2d_63">
      <g>
       <use xlink:href="#mfb690f00cd" x="343.558723" y="21.223055" style="stroke: #000000; stroke-width: 0.5"/>
      </g>
     </g>
    </g>
    <g id="xtick_22">
     <g id="line2d_64">
      <path d="M 358.943913 227.514399 
L 358.943913 21.223055 
" clip-path="url(#pc3b5e64283)" style="fill: none; stroke-dasharray: 1.85,0.8; stroke-dashoffset: 0; stroke: #e6e6e6; stroke-width: 0.5"/>
     </g>
     <g id="line2d_65">
      <g>
       <use xlink:href="#m1a9ae76554" x="358.943913" y="227.514399" style="stroke: #000000; stroke-width: 0.5"/>
      </g>
     </g>
     <g id="line2d_66">
      <g>
       <use xlink:href="#mfb690f00cd" x="358.943913" y="21.223055" style="stroke: #000000; stroke-width: 0.5"/>
      </g>
     </g>
    </g>
    <g id="xtick_23">
     <g id="line2d_67">
      <path d="M 374.329104 227.514399 
L 374.329104 21.223055 
" clip-path="url(#pc3b5e64283)" style="fill: none; stroke-dasharray: 1.85,0.8; stroke-dashoffset: 0; stroke: #e6e6e6; stroke-width: 0.5"/>
     </g>
     <g id="line2d_68">
      <g>
       <use xlink:href="#m1a9ae76554" x="374.329104" y="227.514399" style="stroke: #000000; stroke-width: 0.5"/>
      </g>
     </g>
     <g id="line2d_69">
      <g>
       <use xlink:href="#mfb690f00cd" x="374.329104" y="21.223055" style="stroke: #000000; stroke-width: 0.5"/>
      </g>
     </g>
    </g>
    <g id="xtick_24">
     <g id="line2d_70">
      <path d="M 389.714294 227.514399 
L 389.714294 21.223055 
" clip-path="url(#pc3b5e64283)" style="fill: none; stroke-dasharray: 1.85,0.8; stroke-dashoffset: 0; stroke: #e6e6e6; stroke-width: 0.5"/>
     </g>
     <g id="line2d_71">
      <g>
       <use xlink:href="#m1a9ae76554" x="389.714294" y="227.514399" style="stroke: #000000; stroke-width: 0.5"/>
      </g>
     </g>
     <g id="line2d_72">
      <g>
       <use xlink:href="#mfb690f00cd" x="389.714294" y="21.223055" style="stroke: #000000; stroke-width: 0.5"/>
      </g>
     </g>
    </g>
    <g id="xtick_25">
     <g id="line2d_73">
      <path d="M 420.484674 227.514399 
L 420.484674 21.223055 
" clip-path="url(#pc3b5e64283)" style="fill: none; stroke-dasharray: 1.85,0.8; stroke-dashoffset: 0; stroke: #e6e6e6; stroke-width: 0.5"/>
     </g>
     <g id="line2d_74">
      <g>
       <use xlink:href="#m1a9ae76554" x="420.484674" y="227.514399" style="stroke: #000000; stroke-width: 0.5"/>
      </g>
     </g>
     <g id="line2d_75">
      <g>
       <use xlink:href="#mfb690f00cd" x="420.484674" y="21.223055" style="stroke: #000000; stroke-width: 0.5"/>
      </g>
     </g>
    </g>
    <g id="xtick_26">
     <g id="line2d_76">
      <path d="M 435.869864 227.514399 
L 435.869864 21.223055 
" clip-path="url(#pc3b5e64283)" style="fill: none; stroke-dasharray: 1.85,0.8; stroke-dashoffset: 0; stroke: #e6e6e6; stroke-width: 0.5"/>
     </g>
     <g id="line2d_77">
      <g>
       <use xlink:href="#m1a9ae76554" x="435.869864" y="227.514399" style="stroke: #000000; stroke-width: 0.5"/>
      </g>
     </g>
     <g id="line2d_78">
      <g>
       <use xlink:href="#mfb690f00cd" x="435.869864" y="21.223055" style="stroke: #000000; stroke-width: 0.5"/>
      </g>
     </g>
    </g>
    <g id="xtick_27">
     <g id="line2d_79">
      <path d="M 451.255055 227.514399 
L 451.255055 21.223055 
" clip-path="url(#pc3b5e64283)" style="fill: none; stroke-dasharray: 1.85,0.8; stroke-dashoffset: 0; stroke: #e6e6e6; stroke-width: 0.5"/>
     </g>
     <g id="line2d_80">
      <g>
       <use xlink:href="#m1a9ae76554" x="451.255055" y="227.514399" style="stroke: #000000; stroke-width: 0.5"/>
      </g>
     </g>
     <g id="line2d_81">
      <g>
       <use xlink:href="#mfb690f00cd" x="451.255055" y="21.223055" style="stroke: #000000; stroke-width: 0.5"/>
      </g>
     </g>
    </g>
    <g id="text_6">
     <!-- $g_m/I_D (S/A)$ -->
     <g transform="translate(216.142865 257.873076) scale(0.14 -0.14)">
      <defs>
       <path id="CMMI12-67" d="M 2163 811 
C 2138 709 2125 683 2042 588 
C 1779 249 1510 128 1312 128 
C 1101 128 902 294 902 734 
C 902 1073 1094 1788 1235 2076 
C 1421 2433 1709 2689 1978 2689 
C 2400 2689 2483 2165 2483 2127 
L 2464 2037 
L 2163 811 
z
M 2560 2395 
C 2477 2580 2298 2816 1978 2816 
C 1280 2816 486 1941 486 990 
C 486 326 890 0 1299 0 
C 1638 0 1939 268 2054 396 
L 1914 -171 
C 1824 -516 1786 -674 1555 -894 
C 1293 -1152 1050 -1152 909 -1152 
C 717 -1152 557 -1139 397 -1089 
C 602 -1033 653 -858 653 -789 
C 653 -689 576 -588 435 -588 
C 282 -588 115 -714 115 -922 
C 115 -1180 378 -1280 922 -1280 
C 1747 -1280 2176 -753 2259 -410 
L 2970 2435 
C 2989 2511 2989 2524 2989 2536 
C 2989 2625 2918 2695 2822 2695 
C 2669 2695 2579 2567 2560 2395 
z
" transform="scale(0.015625)"/>
       <path id="CMMI12-6d" d="M 1318 1871 
C 1331 1910 1491 2229 1728 2433 
C 1894 2586 2112 2689 2362 2689 
C 2618 2689 2707 2497 2707 2242 
C 2707 2203 2707 2076 2630 1775 
L 2470 1118 
C 2419 926 2298 453 2285 383 
C 2259 287 2221 121 2221 96 
C 2221 6 2291 -64 2387 -64 
C 2579 -64 2611 83 2669 313 
L 3053 1839 
C 3066 1890 3398 2689 4102 2689 
C 4358 2689 4448 2497 4448 2242 
C 4448 1884 4198 1188 4058 805 
C 4000 651 3968 568 3968 453 
C 3968 166 4166 -64 4474 -64 
C 5069 -64 5293 875 5293 913 
C 5293 945 5267 971 5229 971 
C 5171 971 5165 952 5133 843 
C 4986 332 4749 64 4493 64 
C 4429 64 4326 64 4326 269 
C 4326 436 4403 640 4429 710 
C 4544 1018 4832 1773 4832 2145 
C 4832 2528 4608 2816 4122 2816 
C 3693 2816 3347 2574 3091 2197 
C 3072 2542 2861 2816 2381 2816 
C 1811 2816 1510 2415 1395 2255 
C 1376 2618 1114 2816 832 2816 
C 646 2816 499 2727 378 2484 
C 262 2254 173 1865 173 1839 
C 173 1814 198 1782 243 1782 
C 294 1782 301 1788 339 1935 
C 435 2312 557 2689 813 2689 
C 960 2689 1011 2586 1011 2395 
C 1011 2254 947 2005 902 1807 
L 723 1118 
C 698 996 627 709 595 594 
C 550 428 480 128 480 96 
C 480 6 550 -64 646 -64 
C 723 -64 813 -26 864 70 
C 877 102 934 326 966 453 
L 1107 1028 
L 1318 1871 
z
" transform="scale(0.015625)"/>
       <path id="CMMI12-3d" d="M 2746 4562 
C 2746 4569 2784 4666 2784 4678 
C 2784 4755 2720 4800 2669 4800 
C 2637 4800 2579 4800 2528 4659 
L 384 -1363 
C 384 -1370 346 -1465 346 -1478 
C 346 -1555 410 -1600 461 -1600 
C 499 -1600 557 -1593 602 -1459 
L 2746 4562 
z
" transform="scale(0.015625)"/>
       <path id="CMMI12-49" d="M 2355 3880 
C 2413 4103 2426 4167 2893 4167 
C 3034 4167 3085 4167 3085 4288 
C 3085 4352 3014 4352 2995 4352 
C 2880 4352 2739 4352 2624 4352 
L 1837 4352 
C 1709 4352 1562 4352 1434 4352 
C 1382 4352 1312 4352 1312 4231 
C 1312 4167 1363 4167 1491 4167 
C 1888 4167 1888 4116 1888 4046 
C 1888 4002 1875 3963 1862 3906 
L 998 472 
C 941 249 928 185 461 185 
C 320 185 262 185 262 64 
C 262 0 326 0 358 0 
C 474 0 614 0 730 0 
L 1517 0 
C 1645 0 1786 0 1914 0 
C 1965 0 2042 0 2042 115 
C 2042 185 2003 185 1862 185 
C 1466 185 1466 236 1466 312 
C 1466 325 1466 357 1491 459 
L 2355 3880 
z
" transform="scale(0.015625)"/>
       <path id="CMMI12-44" d="M 1005 472 
C 947 249 934 185 486 185 
C 365 185 301 185 301 70 
C 301 0 339 0 467 0 
L 2496 0 
C 3789 0 5050 1332 5050 2753 
C 5050 3671 4499 4352 3584 4352 
L 1530 4352 
C 1408 4352 1350 4352 1350 4231 
C 1350 4167 1408 4167 1504 4167 
C 1894 4167 1894 4116 1894 4046 
C 1894 4034 1894 3995 1869 3899 
L 1005 472 
z
M 2355 3931 
C 2413 4167 2438 4167 2688 4167 
L 3392 4167 
C 3994 4167 4544 3842 4544 2963 
C 4544 2644 4416 1536 3795 835 
C 3616 625 3130 185 2394 185 
L 1664 185 
C 1574 185 1562 185 1523 192 
C 1453 198 1446 211 1446 262 
C 1446 307 1459 345 1472 402 
L 2355 3931 
z
" transform="scale(0.015625)"/>
       <path id="CMR17-28" d="M 1958 -1561 
C 1958 -1555 1958 -1542 1939 -1523 
C 1645 -1224 858 -407 858 1581 
C 858 3569 1632 4379 1946 4697 
C 1946 4704 1958 4717 1958 4736 
C 1958 4755 1939 4768 1914 4768 
C 1843 4768 1299 4296 986 3594 
C 666 2887 576 2199 576 1588 
C 576 1128 621 351 1005 -471 
C 1312 -1135 1837 -1600 1914 -1600 
C 1946 -1600 1958 -1587 1958 -1561 
z
" transform="scale(0.015625)"/>
       <path id="CMMI12-53" d="M 4064 4423 
C 4064 4480 4019 4480 4006 4480 
C 3981 4480 3974 4474 3898 4378 
C 3859 4333 3597 4001 3590 3995 
C 3379 4410 2957 4480 2688 4480 
C 1875 4480 1139 3743 1139 3025 
C 1139 2549 1427 2269 1741 2161 
C 1811 2135 2189 2033 2381 1989 
C 2707 1900 2790 1875 2925 1735 
C 2950 1703 3078 1557 3078 1258 
C 3078 667 2528 57 1888 57 
C 1363 57 781 280 781 991 
C 781 1112 806 1265 826 1328 
C 826 1348 832 1378 832 1391 
C 832 1417 819 1449 768 1449 
C 710 1449 704 1436 678 1328 
L 352 24 
C 352 18 326 -64 326 -71 
C 326 -128 378 -128 390 -128 
C 416 -128 422 -122 499 -26 
L 794 356 
C 947 126 1280 -128 1875 -128 
C 2701 -128 3456 666 3456 1460 
C 3456 1728 3392 1963 3149 2197 
C 3014 2331 2899 2363 2310 2516 
C 1882 2630 1824 2649 1709 2751 
C 1600 2858 1517 3011 1517 3227 
C 1517 3761 2061 4308 2669 4308 
C 3296 4308 3590 3926 3590 3323 
C 3590 3158 3558 2986 3558 2961 
C 3558 2903 3610 2903 3629 2903 
C 3686 2903 3693 2922 3718 3024 
L 4064 4423 
z
" transform="scale(0.015625)"/>
       <path id="CMMI12-41" d="M 1088 691 
C 864 314 646 186 339 186 
C 269 180 218 180 218 58 
C 218 24 250 0 294 0 
C 410 0 698 0 813 0 
C 998 0 1203 0 1382 0 
C 1421 0 1498 0 1498 122 
C 1498 180 1446 186 1408 186 
C 1261 186 1139 236 1139 388 
C 1139 476 1178 546 1261 685 
L 1747 1479 
L 3379 1479 
C 3386 1423 3386 1373 3392 1316 
C 3411 1152 3488 495 3488 376 
C 3488 186 3162 186 3059 186 
C 2989 186 2918 186 2918 70 
C 2918 0 2976 0 3014 0 
C 3123 0 3251 0 3360 0 
L 3725 0 
C 4115 0 4397 0 4403 0 
C 4448 0 4518 0 4518 122 
C 4518 186 4461 186 4365 186 
C 4013 186 4006 244 3987 434 
L 3597 4404 
C 3584 4531 3558 4544 3488 4544 
C 3424 4544 3386 4531 3328 4435 
L 1088 691 
z
M 1856 1664 
L 3142 3819 
L 3360 1664 
L 1856 1664 
z
" transform="scale(0.015625)"/>
       <path id="CMR17-29" d="M 1683 1581 
C 1683 2040 1638 2817 1254 3639 
C 947 4303 422 4768 346 4768 
C 326 4768 301 4761 301 4729 
C 301 4717 307 4710 314 4697 
C 621 4378 1402 3568 1402 1584 
C 1402 -407 627 -1217 314 -1537 
C 307 -1549 301 -1556 301 -1568 
C 301 -1600 326 -1600 346 -1600 
C 416 -1600 960 -1128 1274 -426 
C 1594 281 1683 969 1683 1581 
z
" transform="scale(0.015625)"/>
      </defs>
      <use xlink:href="#CMMI12-67" transform="scale(0.996264)"/>
      <use xlink:href="#CMMI12-6d" transform="translate(46.710897 -14.943915) scale(0.697382)"/>
      <use xlink:href="#CMMI12-3d" transform="translate(106.93782 0) scale(0.996264)"/>
      <use xlink:href="#CMMI12-49" transform="translate(155.712739 0) scale(0.996264)"/>
      <use xlink:href="#CMMI12-44" transform="translate(198.736914 -14.943915) scale(0.697382)"/>
      <use xlink:href="#CMR17-28" transform="translate(257.82755 0) scale(0.996264)"/>
      <use xlink:href="#CMMI12-53" transform="translate(293.108318 0) scale(0.996264)"/>
      <use xlink:href="#CMMI12-3d" transform="translate(353.483321 0) scale(0.996264)"/>
      <use xlink:href="#CMMI12-41" transform="translate(396.838805 0) scale(0.996264)"/>
      <use xlink:href="#CMR17-29" transform="translate(469.96669 0) scale(0.996264)"/>
     </g>
    </g>
   </g>
   <g id="matplotlib.axis_2">
    <g id="ytick_1">
     <g id="line2d_82">
      <path d="M 45.533162 220.757502 
L 459.916163 220.757502 
" clip-path="url(#pc3b5e64283)" style="fill: none; stroke-dasharray: 1.85,0.8; stroke-dashoffset: 0; stroke: #e6e6e6; stroke-width: 0.5"/>
     </g>
     <g id="line2d_83">
      <defs>
       <path id="m7e500fc7d0" d="M 0 0 
L 3 0 
" style="stroke: #000000; stroke-width: 0.5"/>
      </defs>
      <g>
       <use xlink:href="#m7e500fc7d0" x="45.533162" y="220.757502" style="stroke: #000000; stroke-width: 0.5"/>
      </g>
     </g>
     <g id="line2d_84">
      <defs>
       <path id="m95f3f74017" d="M 0 0 
L -3 0 
" style="stroke: #000000; stroke-width: 0.5"/>
      </defs>
      <g>
       <use xlink:href="#m95f3f74017" x="459.916163" y="220.757502" style="stroke: #000000; stroke-width: 0.5"/>
      </g>
     </g>
     <g id="text_7">
      <!-- $\mathdefault{0}$ -->
      <g transform="translate(35.204673 225.600441) scale(0.14 -0.14)">
       <use xlink:href="#CMR17-30" transform="scale(0.996264)"/>
      </g>
     </g>
    </g>
    <g id="ytick_2">
     <g id="line2d_85">
      <path d="M 45.533162 162.551193 
L 459.916163 162.551193 
" clip-path="url(#pc3b5e64283)" style="fill: none; stroke-dasharray: 1.85,0.8; stroke-dashoffset: 0; stroke: #e6e6e6; stroke-width: 0.5"/>
     </g>
     <g id="line2d_86">
      <g>
       <use xlink:href="#m7e500fc7d0" x="45.533162" y="162.551193" style="stroke: #000000; stroke-width: 0.5"/>
      </g>
     </g>
     <g id="line2d_87">
      <g>
       <use xlink:href="#m95f3f74017" x="459.916163" y="162.551193" style="stroke: #000000; stroke-width: 0.5"/>
      </g>
     </g>
     <g id="text_8">
      <!-- $\mathdefault{200}$ -->
      <g transform="translate(21.547696 167.394131) scale(0.14 -0.14)">
       <use xlink:href="#CMR17-32" transform="scale(0.996264)"/>
       <use xlink:href="#CMR17-30" transform="translate(45.690477 0) scale(0.996264)"/>
       <use xlink:href="#CMR17-30" transform="translate(91.380954 0) scale(0.996264)"/>
      </g>
     </g>
    </g>
    <g id="ytick_3">
     <g id="line2d_88">
      <path d="M 45.533162 104.344884 
L 459.916163 104.344884 
" clip-path="url(#pc3b5e64283)" style="fill: none; stroke-dasharray: 1.85,0.8; stroke-dashoffset: 0; stroke: #e6e6e6; stroke-width: 0.5"/>
     </g>
     <g id="line2d_89">
      <g>
       <use xlink:href="#m7e500fc7d0" x="45.533162" y="104.344884" style="stroke: #000000; stroke-width: 0.5"/>
      </g>
     </g>
     <g id="line2d_90">
      <g>
       <use xlink:href="#m95f3f74017" x="459.916163" y="104.344884" style="stroke: #000000; stroke-width: 0.5"/>
      </g>
     </g>
     <g id="text_9">
      <!-- $\mathdefault{400}$ -->
      <g transform="translate(21.547696 109.187822) scale(0.14 -0.14)">
       <defs>
        <path id="CMR17-34" d="M 2150 4122 
C 2150 4256 2144 4256 2029 4256 
L 128 1254 
L 128 1088 
L 1779 1088 
L 1779 457 
C 1779 224 1766 160 1318 160 
L 1197 160 
L 1197 0 
C 1402 0 1747 0 1965 0 
C 2182 0 2528 0 2733 0 
L 2733 160 
L 2611 160 
C 2163 160 2150 224 2150 457 
L 2150 1088 
L 2803 1088 
L 2803 1254 
L 2150 1254 
L 2150 4122 
z
M 1798 3703 
L 1798 1254 
L 256 1254 
L 1798 3703 
z
" transform="scale(0.015625)"/>
       </defs>
       <use xlink:href="#CMR17-34" transform="scale(0.996264)"/>
       <use xlink:href="#CMR17-30" transform="translate(45.690477 0) scale(0.996264)"/>
       <use xlink:href="#CMR17-30" transform="translate(91.380954 0) scale(0.996264)"/>
      </g>
     </g>
    </g>
    <g id="ytick_4">
     <g id="line2d_91">
      <path d="M 45.533162 46.138575 
L 459.916163 46.138575 
" clip-path="url(#pc3b5e64283)" style="fill: none; stroke-dasharray: 1.85,0.8; stroke-dashoffset: 0; stroke: #e6e6e6; stroke-width: 0.5"/>
     </g>
     <g id="line2d_92">
      <g>
       <use xlink:href="#m7e500fc7d0" x="45.533162" y="46.138575" style="stroke: #000000; stroke-width: 0.5"/>
      </g>
     </g>
     <g id="line2d_93">
      <g>
       <use xlink:href="#m95f3f74017" x="459.916163" y="46.138575" style="stroke: #000000; stroke-width: 0.5"/>
      </g>
     </g>
     <g id="text_10">
      <!-- $\mathdefault{600}$ -->
      <g transform="translate(21.547696 50.981513) scale(0.14 -0.14)">
       <defs>
        <path id="CMR17-36" d="M 678 2176 
C 678 3690 1395 4032 1811 4032 
C 1946 4032 2272 4009 2400 3776 
C 2298 3776 2106 3776 2106 3553 
C 2106 3381 2246 3323 2336 3323 
C 2394 3323 2566 3348 2566 3560 
C 2566 3954 2246 4179 1805 4179 
C 1043 4179 243 3390 243 1984 
C 243 253 966 -128 1478 -128 
C 2099 -128 2688 427 2688 1283 
C 2688 2081 2170 2662 1517 2662 
C 1126 2662 838 2407 678 1960 
L 678 2176 
z
M 1478 25 
C 691 25 691 1200 691 1436 
C 691 1896 909 2560 1504 2560 
C 1613 2560 1926 2560 2138 2120 
C 2253 1870 2253 1609 2253 1289 
C 2253 944 2253 690 2118 434 
C 1978 171 1773 25 1478 25 
z
" transform="scale(0.015625)"/>
       </defs>
       <use xlink:href="#CMR17-36" transform="scale(0.996264)"/>
       <use xlink:href="#CMR17-30" transform="translate(45.690477 0) scale(0.996264)"/>
       <use xlink:href="#CMR17-30" transform="translate(91.380954 0) scale(0.996264)"/>
      </g>
     </g>
    </g>
    <g id="ytick_5">
     <g id="line2d_94">
      <path d="M 45.533162 206.205925 
L 459.916163 206.205925 
" clip-path="url(#pc3b5e64283)" style="fill: none; stroke-dasharray: 1.85,0.8; stroke-dashoffset: 0; stroke: #e6e6e6; stroke-width: 0.5"/>
     </g>
     <g id="line2d_95">
      <defs>
       <path id="mb40b431d5d" d="M 0 0 
L 1.5 0 
" style="stroke: #000000; stroke-width: 0.5"/>
      </defs>
      <g>
       <use xlink:href="#mb40b431d5d" x="45.533162" y="206.205925" style="stroke: #000000; stroke-width: 0.5"/>
      </g>
     </g>
     <g id="line2d_96">
      <defs>
       <path id="m1c2b524702" d="M 0 0 
L -1.5 0 
" style="stroke: #000000; stroke-width: 0.5"/>
      </defs>
      <g>
       <use xlink:href="#m1c2b524702" x="459.916163" y="206.205925" style="stroke: #000000; stroke-width: 0.5"/>
      </g>
     </g>
    </g>
    <g id="ytick_6">
     <g id="line2d_97">
      <path d="M 45.533162 191.654348 
L 459.916163 191.654348 
" clip-path="url(#pc3b5e64283)" style="fill: none; stroke-dasharray: 1.85,0.8; stroke-dashoffset: 0; stroke: #e6e6e6; stroke-width: 0.5"/>
     </g>
     <g id="line2d_98">
      <g>
       <use xlink:href="#mb40b431d5d" x="45.533162" y="191.654348" style="stroke: #000000; stroke-width: 0.5"/>
      </g>
     </g>
     <g id="line2d_99">
      <g>
       <use xlink:href="#m1c2b524702" x="459.916163" y="191.654348" style="stroke: #000000; stroke-width: 0.5"/>
      </g>
     </g>
    </g>
    <g id="ytick_7">
     <g id="line2d_100">
      <path d="M 45.533162 177.102771 
L 459.916163 177.102771 
" clip-path="url(#pc3b5e64283)" style="fill: none; stroke-dasharray: 1.85,0.8; stroke-dashoffset: 0; stroke: #e6e6e6; stroke-width: 0.5"/>
     </g>
     <g id="line2d_101">
      <g>
       <use xlink:href="#mb40b431d5d" x="45.533162" y="177.102771" style="stroke: #000000; stroke-width: 0.5"/>
      </g>
     </g>
     <g id="line2d_102">
      <g>
       <use xlink:href="#m1c2b524702" x="459.916163" y="177.102771" style="stroke: #000000; stroke-width: 0.5"/>
      </g>
     </g>
    </g>
    <g id="ytick_8">
     <g id="line2d_103">
      <path d="M 45.533162 147.999616 
L 459.916163 147.999616 
" clip-path="url(#pc3b5e64283)" style="fill: none; stroke-dasharray: 1.85,0.8; stroke-dashoffset: 0; stroke: #e6e6e6; stroke-width: 0.5"/>
     </g>
     <g id="line2d_104">
      <g>
       <use xlink:href="#mb40b431d5d" x="45.533162" y="147.999616" style="stroke: #000000; stroke-width: 0.5"/>
      </g>
     </g>
     <g id="line2d_105">
      <g>
       <use xlink:href="#m1c2b524702" x="459.916163" y="147.999616" style="stroke: #000000; stroke-width: 0.5"/>
      </g>
     </g>
    </g>
    <g id="ytick_9">
     <g id="line2d_106">
      <path d="M 45.533162 133.448039 
L 459.916163 133.448039 
" clip-path="url(#pc3b5e64283)" style="fill: none; stroke-dasharray: 1.85,0.8; stroke-dashoffset: 0; stroke: #e6e6e6; stroke-width: 0.5"/>
     </g>
     <g id="line2d_107">
      <g>
       <use xlink:href="#mb40b431d5d" x="45.533162" y="133.448039" style="stroke: #000000; stroke-width: 0.5"/>
      </g>
     </g>
     <g id="line2d_108">
      <g>
       <use xlink:href="#m1c2b524702" x="459.916163" y="133.448039" style="stroke: #000000; stroke-width: 0.5"/>
      </g>
     </g>
    </g>
    <g id="ytick_10">
     <g id="line2d_109">
      <path d="M 45.533162 118.896461 
L 459.916163 118.896461 
" clip-path="url(#pc3b5e64283)" style="fill: none; stroke-dasharray: 1.85,0.8; stroke-dashoffset: 0; stroke: #e6e6e6; stroke-width: 0.5"/>
     </g>
     <g id="line2d_110">
      <g>
       <use xlink:href="#mb40b431d5d" x="45.533162" y="118.896461" style="stroke: #000000; stroke-width: 0.5"/>
      </g>
     </g>
     <g id="line2d_111">
      <g>
       <use xlink:href="#m1c2b524702" x="459.916163" y="118.896461" style="stroke: #000000; stroke-width: 0.5"/>
      </g>
     </g>
    </g>
    <g id="ytick_11">
     <g id="line2d_112">
      <path d="M 45.533162 89.793307 
L 459.916163 89.793307 
" clip-path="url(#pc3b5e64283)" style="fill: none; stroke-dasharray: 1.85,0.8; stroke-dashoffset: 0; stroke: #e6e6e6; stroke-width: 0.5"/>
     </g>
     <g id="line2d_113">
      <g>
       <use xlink:href="#mb40b431d5d" x="45.533162" y="89.793307" style="stroke: #000000; stroke-width: 0.5"/>
      </g>
     </g>
     <g id="line2d_114">
      <g>
       <use xlink:href="#m1c2b524702" x="459.916163" y="89.793307" style="stroke: #000000; stroke-width: 0.5"/>
      </g>
     </g>
    </g>
    <g id="ytick_12">
     <g id="line2d_115">
      <path d="M 45.533162 75.24173 
L 459.916163 75.24173 
" clip-path="url(#pc3b5e64283)" style="fill: none; stroke-dasharray: 1.85,0.8; stroke-dashoffset: 0; stroke: #e6e6e6; stroke-width: 0.5"/>
     </g>
     <g id="line2d_116">
      <g>
       <use xlink:href="#mb40b431d5d" x="45.533162" y="75.24173" style="stroke: #000000; stroke-width: 0.5"/>
      </g>
     </g>
     <g id="line2d_117">
      <g>
       <use xlink:href="#m1c2b524702" x="459.916163" y="75.24173" style="stroke: #000000; stroke-width: 0.5"/>
      </g>
     </g>
    </g>
    <g id="ytick_13">
     <g id="line2d_118">
      <path d="M 45.533162 60.690152 
L 459.916163 60.690152 
" clip-path="url(#pc3b5e64283)" style="fill: none; stroke-dasharray: 1.85,0.8; stroke-dashoffset: 0; stroke: #e6e6e6; stroke-width: 0.5"/>
     </g>
     <g id="line2d_119">
      <g>
       <use xlink:href="#mb40b431d5d" x="45.533162" y="60.690152" style="stroke: #000000; stroke-width: 0.5"/>
      </g>
     </g>
     <g id="line2d_120">
      <g>
       <use xlink:href="#m1c2b524702" x="459.916163" y="60.690152" style="stroke: #000000; stroke-width: 0.5"/>
      </g>
     </g>
    </g>
    <g id="ytick_14">
     <g id="line2d_121">
      <path d="M 45.533162 31.586998 
L 459.916163 31.586998 
" clip-path="url(#pc3b5e64283)" style="fill: none; stroke-dasharray: 1.85,0.8; stroke-dashoffset: 0; stroke: #e6e6e6; stroke-width: 0.5"/>
     </g>
     <g id="line2d_122">
      <g>
       <use xlink:href="#mb40b431d5d" x="45.533162" y="31.586998" style="stroke: #000000; stroke-width: 0.5"/>
      </g>
     </g>
     <g id="line2d_123">
      <g>
       <use xlink:href="#m1c2b524702" x="459.916163" y="31.586998" style="stroke: #000000; stroke-width: 0.5"/>
      </g>
     </g>
    </g>
    <g id="text_11">
     <!-- $g_{m}/g_{\mathrm{ds}}$ -->
     <g transform="translate(14.060772 143.758152) rotate(-90) scale(0.14 -0.14)">
      <defs>
       <path id="CMR17-64" d="M 1869 4326 
L 1869 4160 
C 2246 4160 2304 4122 2304 3820 
L 2304 2345 
C 2278 2377 2016 2790 1498 2790 
C 845 2790 211 2208 211 1364 
C 211 525 806 -64 1434 -64 
C 1978 -64 2259 337 2291 380 
L 2291 -63 
L 3066 -63 
L 3066 128 
C 2688 128 2630 166 2630 473 
L 2630 4396 
L 1869 4326 
z
M 2291 755 
C 2291 563 2176 390 2029 262 
C 1811 70 1594 38 1472 38 
C 1286 38 621 134 621 1356 
C 621 2612 1363 2688 1530 2688 
C 1824 2688 2061 2522 2208 2291 
C 2291 2157 2291 2138 2291 2023 
L 2291 755 
z
" transform="scale(0.015625)"/>
       <path id="CMR17-73" d="M 1978 2697 
C 1978 2813 1971 2819 1933 2819 
C 1907 2819 1901 2813 1824 2717 
C 1805 2691 1747 2626 1728 2601 
C 1523 2819 1235 2819 1126 2819 
C 416 2819 160 2447 160 2076 
C 160 1498 813 1365 998 1325 
C 1402 1243 1542 1217 1677 1101 
C 1760 1025 1901 884 1901 654 
C 1901 384 1747 38 1158 38 
C 602 38 403 460 288 1021 
C 269 1110 269 1117 218 1117 
C 166 1117 160 1110 160 983 
L 160 63 
C 160 -51 166 -58 205 -58 
C 237 -58 243 -51 275 0 
C 314 57 410 211 448 276 
C 576 103 800 -64 1158 -64 
C 1792 -64 2131 283 2131 784 
C 2131 1112 1958 1285 1875 1362 
C 1683 1561 1459 1606 1190 1657 
C 838 1735 390 1825 390 2217 
C 390 2383 480 2737 1126 2737 
C 1811 2737 1850 2094 1862 1888 
C 1869 1856 1901 1849 1920 1849 
C 1978 1849 1978 1869 1978 1978 
L 1978 2697 
z
" transform="scale(0.015625)"/>
      </defs>
      <use xlink:href="#CMMI12-67" transform="scale(0.996264)"/>
      <use xlink:href="#CMMI12-6d" transform="translate(46.710897 -14.943915) scale(0.697382)"/>
      <use xlink:href="#CMMI12-3d" transform="translate(106.93782 0) scale(0.996264)"/>
      <use xlink:href="#CMMI12-67" transform="translate(155.712739 0) scale(0.996264)"/>
      <use xlink:href="#CMR17-64" transform="translate(202.423635 -14.943915) scale(0.697382)"/>
      <use xlink:href="#CMR17-73" transform="translate(238.050244 -14.943915) scale(0.697382)"/>
     </g>
    </g>
   </g>
   <g id="line2d_124">
    <path d="M 440.9839 215.721348 
L 440.936729 215.721405 
L 440.882865 215.721469 
L 440.821367 215.721543 
L 440.751156 215.721628 
L 440.671009 215.721724 
L 440.579528 215.721834 
L 440.475128 215.72196 
L 440.356001 215.722103 
L 440.220095 215.722266 
L 440.065081 215.722453 
L 439.888313 215.722666 
L 439.686796 215.722909 
L 439.457138 215.723186 
L 439.195503 215.723501 
L 438.897563 215.723861 
L 438.558443 215.724271 
L 438.172662 215.724737 
L 437.734073 215.725268 
L 437.235801 215.725872 
L 436.670184 215.726559 
L 436.028716 215.727339 
L 435.301991 215.728224 
L 434.479668 215.729228 
L 433.550443 215.730364 
L 432.50205 215.731649 
L 431.321293 215.7331 
L 429.99412 215.734736 
L 428.505753 215.736576 
L 426.840881 215.738641 
L 424.983947 215.740953 
L 422.919514 215.743533 
L 420.632752 215.746403 
L 418.110029 215.749582 
L 415.339609 215.753087 
L 412.218977 215.758125 
L 408.59813 215.766615 
L 404.724542 215.775429 
L 400.603536 215.784556 
L 396.246017 215.793975 
L 391.668583 215.803651 
L 386.89313 215.81354 
L 381.945789 215.823581 
L 376.855113 215.833707 
L 371.649473 215.843842 
L 366.35377 215.853914 
L 360.985747 215.863858 
L 355.552314 215.873632 
L 350.04649 215.883221 
L 344.445619 215.892652 
L 338.711432 215.901999 
L 332.792342 215.911385 
L 326.627973 215.920979 
L 320.155517 215.930992 
L 313.317105 215.941661 
L 306.067126 215.953239 
L 298.378414 215.965982 
L 290.246403 215.980132 
L 281.690762 215.99591 
L 272.754427 216.013511 
L 263.500396 216.033096 
L 254.006923 216.05479 
L 244.361865 216.078688 
L 234.656929 216.104851 
L 224.982419 216.13331 
L 215.422886 216.16407 
L 206.053918 216.197113 
L 196.940075 216.232402 
L 188.133896 216.269879 
L 179.675796 216.309476 
L 171.594645 216.35111 
L 163.908807 216.394692 
L 156.627462 216.440125 
L 149.752041 216.487307 
L 143.27767 216.536138 
L 137.194518 216.586512 
L 131.489029 216.63833 
L 126.144983 216.691492 
L 121.144393 216.745905 
L 116.468248 216.80148 
L 112.097096 216.858132 
L 108.011507 216.915784 
L 104.192415 216.974364 
L 100.621371 217.03381 
L 97.280718 217.094061 
L 94.153705 217.155065 
L 91.224549 217.216777 
L 88.478466 217.279154 
L 85.901668 217.34216 
L 83.481349 217.405762 
L 81.205644 217.469931 
L 79.063587 217.53464 
L 77.045066 217.599867 
L 75.140762 217.665586 
L 73.3421 217.731778 
L 71.641195 217.798419 
L 70.030795 217.865487 
L 68.504236 217.932958 
L 67.055391 218.000806 
L 65.678625 218.069004 
L 64.368753 218.13752 
" clip-path="url(#pc3b5e64283)" style="fill: none; stroke: #0c5da5; stroke-width: 1.5; stroke-linecap: square"/>
   </g>
   <g id="line2d_125">
    <path d="M 441.06792 194.807378 
L 441.032679 194.807997 
L 440.992433 194.808705 
L 440.946475 194.809513 
L 440.894 194.810435 
L 440.834085 194.811489 
L 440.765685 194.812691 
L 440.687604 194.814064 
L 440.598485 194.815632 
L 440.49678 194.817421 
L 440.380731 194.819462 
L 440.24834 194.821792 
L 440.097339 194.824449 
L 439.925153 194.82748 
L 439.728867 194.830936 
L 439.505178 194.834876 
L 439.250357 194.839366 
L 438.960192 194.84448 
L 438.629945 194.850303 
L 438.254285 194.856929 
L 437.827239 194.864466 
L 437.342133 194.873032 
L 436.791528 194.882761 
L 436.167172 194.8938 
L 435.459952 194.906313 
L 434.659855 194.920481 
L 433.75595 194.9365 
L 432.736399 194.954584 
L 431.588487 194.974964 
L 430.298713 194.997884 
L 428.852922 195.0236 
L 427.236521 195.052375 
L 425.434766 195.084472 
L 423.433156 195.120149 
L 421.217937 195.15964 
L 418.681675 195.20925 
L 415.666039 195.278838 
L 412.41568 195.352462 
L 408.928299 195.430071 
L 405.206283 195.511486 
L 401.257452 195.596375 
L 397.095587 195.684227 
L 392.740613 195.774333 
L 388.21825 195.865782 
L 383.559007 195.957475 
L 378.796369 196.048164 
L 373.964153 196.136517 
L 369.093081 196.221225 
L 364.206832 196.301132 
L 359.317962 196.375396 
L 354.424289 196.44365 
L 349.506401 196.506152 
L 344.526945 196.563894 
L 339.432154 196.618648 
L 334.155756 196.672938 
L 328.624978 196.729932 
L 322.767935 196.793271 
L 316.521411 196.86685 
L 309.837907 196.954589 
L 302.690994 197.060213 
L 295.078312 197.18707 
L 287.021996 197.337989 
L 278.56671 197.515196 
L 269.775817 197.72027 
L 260.726349 197.954147 
L 251.50351 198.21714 
L 242.195337 198.508996 
L 232.887982 198.828957 
L 223.661923 199.17583 
L 214.589205 199.548059 
L 205.73172 199.943803 
L 197.140398 200.361002 
L 188.855154 200.797444 
L 180.905403 201.25083 
L 173.310974 201.718829 
L 166.083247 202.199123 
L 159.226398 202.689452 
L 152.738653 203.187647 
L 146.613477 203.691653 
L 140.840652 204.199556 
L 135.407237 204.709587 
L 130.298379 205.220136 
L 125.497992 205.729748 
L 120.989314 206.237124 
L 116.755346 206.741113 
L 112.779189 207.240705 
L 109.044307 207.735019 
L 105.534707 208.223289 
L 102.235074 208.704858 
L 99.130851 209.179156 
L 96.208289 209.645697 
L 93.454466 210.104062 
L 90.857287 210.553886 
L 88.405466 210.994853 
L 86.088501 211.426687 
L 83.896634 211.849137 
L 81.820817 212.261978 
L 79.852667 212.665003 
L 77.98442 213.058016 
L 76.208891 213.440832 
L 74.519428 213.813272 
" clip-path="url(#pc3b5e64283)" style="fill: none; stroke: #00b945; stroke-width: 1.5; stroke-linecap: square"/>
   </g>
   <g id="line2d_126">
    <path d="M 441.078389 149.78353 
L 441.044635 149.787213 
L 441.006087 149.791419 
L 440.962069 149.796221 
L 440.911806 149.801705 
L 440.854417 149.807966 
L 440.788898 149.815114 
L 440.714105 149.823273 
L 440.628735 149.832585 
L 440.531307 149.843212 
L 440.420133 149.855338 
L 440.293298 149.869171 
L 440.148627 149.884947 
L 439.983649 149.902936 
L 439.795567 149.923441 
L 439.581212 149.946807 
L 439.337002 149.973422 
L 439.058894 150.003724 
L 438.742331 150.038208 
L 438.382192 150.077426 
L 437.972731 150.121999 
L 437.507522 150.172619 
L 436.9794 150.230055 
L 436.380411 150.295158 
L 435.701758 150.368865 
L 434.933767 150.452203 
L 434.065864 150.546284 
L 433.086574 150.652308 
L 431.983555 150.771548 
L 430.743667 150.905343 
L 429.353103 151.055069 
L 427.797578 151.222114 
L 426.062602 151.407831 
L 424.133857 151.61348 
L 421.997666 151.840154 
L 419.546345 152.105074 
L 416.620892 152.43455 
L 413.466064 152.785325 
L 410.079055 153.156585 
L 406.461626 153.546712 
L 402.620906 153.953141 
L 398.570012 154.37223 
L 394.328364 154.799169 
L 389.92151 155.227965 
L 385.380334 155.65152 
L 380.739473 156.06184 
L 376.034887 156.450403 
L 371.300592 156.808706 
L 366.564755 157.128964 
L 361.84549 157.404954 
L 357.146893 157.63291 
L 352.455989 157.812381 
L 347.741245 157.946933 
L 342.953229 158.044559 
L 338.027669 158.117718 
L 332.890783 158.182926 
L 327.466327 158.259934 
L 321.683423 158.370546 
L 315.484092 158.537224 
L 308.829414 158.781627 
L 301.70357 159.123253 
L 294.115342 159.578308 
L 286.097139 160.158896 
L 277.701941 160.87257 
L 268.998779 161.722233 
L 260.067474 162.706354 
L 250.993269 163.81942 
L 241.861902 165.05257 
L 232.755461 166.394313 
L 223.74921 167.831282 
L 214.909429 169.348959 
L 206.292182 170.932343 
L 197.942905 172.566512 
L 189.896615 174.237098 
L 182.178583 175.930632 
L 174.805308 177.634803 
L 167.785647 179.338607 
L 161.122009 181.032422 
L 154.811517 182.708014 
L 148.847098 184.358489 
L 143.218461 185.978212 
L 137.912952 187.562696 
L 132.916277 189.10848 
L 128.213105 190.612999 
L 123.787556 192.074454 
L 119.623587 193.491693 
L 115.705288 194.864089 
L 112.017109 196.191445 
L 108.544024 197.473892 
L 105.271637 198.711816 
L 102.186259 199.905782 
L 99.274949 201.056482 
L 96.525526 202.164681 
L 93.926568 203.231183 
L 91.467398 204.256796 
L 89.138053 205.242315 
L 86.929256 206.188499 
L 84.832376 207.096066 
L 82.839389 207.965684 
L 80.942837 208.797972 
L 79.135787 209.593503 
" clip-path="url(#pc3b5e64283)" style="fill: none; stroke: #ff9500; stroke-width: 1.5; stroke-linecap: square"/>
   </g>
   <g id="line2d_127">
    <path d="M 441.080384 104.745472 
L 441.046914 104.75418 
L 441.00869 104.764124 
L 440.965041 104.775479 
L 440.9152 104.788443 
L 440.858294 104.803243 
L 440.793325 104.820138 
L 440.71916 104.83942 
L 440.634507 104.861426 
L 440.537895 104.886534 
L 440.427654 104.915178 
L 440.301883 104.947848 
L 440.158424 104.985099 
L 439.994829 105.027563 
L 439.808321 105.075953 
L 439.59576 105.131074 
L 439.353591 105.193837 
L 439.077806 105.265263 
L 438.763886 105.346503 
L 438.40675 105.438842 
L 438.000699 105.54372 
L 437.539359 105.662735 
L 437.015623 105.797658 
L 436.421601 105.950441 
L 435.748566 106.123224 
L 434.986921 106.318332 
L 434.126174 106.538274 
L 433.154942 106.785724 
L 432.060978 107.063501 
L 430.831246 107.374521 
L 429.452046 107.72174 
L 427.909204 108.108068 
L 426.188348 108.536257 
L 424.275276 109.008753 
L 422.156432 109.527509 
L 419.724209 110.12017 
L 416.819621 110.828343 
L 413.687638 111.581163 
L 410.325578 112.375745 
L 406.735344 113.20727 
L 402.924235 114.068681 
L 398.905593 114.950421 
L 394.699129 115.840283 
L 390.330796 116.723407 
L 385.832019 117.582494 
L 381.238155 118.398295 
L 376.586086 119.150426 
L 371.910975 119.818523 
L 367.242341 120.383734 
L 362.599814 120.830483 
L 357.989081 121.148376 
L 353.39869 121.334074 
L 348.798392 121.392919 
L 344.1396 121.340052 
L 339.358255 121.200809 
L 334.380004 121.010238 
L 329.127162 120.811656 
L 323.526545 120.654322 
L 317.517106 120.590401 
L 311.056283 120.671539 
L 304.124278 120.945399 
L 296.725834 121.45253 
L 288.889511 122.223911 
L 280.664858 123.279366 
L 272.11805 124.626963 
L 263.326727 126.263356 
L 254.374667 128.174925 
L 245.346836 130.339507 
L 236.325181 132.728467 
L 227.385375 135.308878 
L 218.594538 138.045596 
L 210.009915 140.903114 
L 201.67834 143.847061 
L 193.636363 146.845355 
L 185.910842 149.868981 
L 178.519845 152.892445 
L 171.473742 155.893964 
L 164.776358 158.855422 
L 158.426115 161.76219 
L 152.417109 164.602827 
L 146.740087 167.368728 
L 141.383298 170.053744 
L 136.333229 172.653801 
L 131.575216 175.166535 
L 127.093937 177.590964 
L 122.873812 179.927179 
L 118.899314 182.176092 
L 115.1552 184.339203 
L 111.626687 186.418413 
L 108.299571 188.41587 
L 105.160303 190.333837 
L 102.196046 192.174597 
L 99.394686 193.940369 
L 96.74484 195.633256 
L 94.235844 197.255201 
L 91.857726 198.807966 
L 89.60118 200.293119 
L 87.457528 201.712036 
L 85.418683 203.065908 
L 83.477107 204.355767 
L 81.625774 205.582506 
" clip-path="url(#pc3b5e64283)" style="fill: none; stroke: #ff2c00; stroke-width: 1.5; stroke-linecap: square"/>
   </g>
   <g id="line2d_128">
    <path d="M 441.080572 83.793322 
L 441.047128 83.804192 
L 441.008935 83.816604 
L 440.965321 83.830777 
L 440.915521 83.846957 
L 440.85866 83.865429 
L 440.793744 83.886514 
L 440.719639 83.910578 
L 440.635054 83.938039 
L 440.538521 83.96937 
L 440.42837 84.00511 
L 440.302703 84.045871 
L 440.159362 84.092344 
L 439.995902 84.145315 
L 439.809549 84.205671 
L 439.597166 84.274415 
L 439.355203 84.352676 
L 439.079653 84.441726 
L 438.766003 84.54299 
L 438.409178 84.658065 
L 438.003486 84.788731 
L 437.54256 84.936966 
L 437.019303 85.104958 
L 436.425835 85.295114 
L 435.75344 85.510066 
L 434.992539 85.752666 
L 434.132658 86.025983 
L 433.162434 86.333277 
L 432.069647 86.67796 
L 430.841293 87.063545 
L 429.463709 87.49356 
L 427.922768 87.971435 
L 426.204154 88.500354 
L 424.29373 89.08306 
L 422.178023 89.721614 
L 419.749518 90.448205 
L 416.849331 91.311257 
L 413.722582 92.226555 
L 410.366753 93.189755 
L 406.783942 94.193984 
L 402.981679 95.229447 
L 398.97357 96.283098 
L 394.779636 97.338443 
L 390.426179 98.375523 
L 385.945014 99.371174 
L 381.371926 100.299611 
L 376.744256 101.133419 
L 372.097644 101.844958 
L 367.462086 102.408197 
L 362.857662 102.80088 
L 358.290456 103.006922 
L 353.749317 103.018806 
L 349.204173 102.839746 
L 344.606441 102.48532 
L 339.891865 101.984305 
L 334.985675 101.378477 
L 329.809532 100.72126 
L 324.289382 100.07523 
L 318.363107 99.508623 
L 311.986931 99.091169 
L 305.139743 98.889645 
L 297.824947 98.963627 
L 290.069802 99.361865 
L 281.922647 100.119644 
L 273.448598 101.257336 
L 264.72442 102.780193 
L 255.833223 104.679281 
L 246.859519 106.933309 
L 237.885018 109.511092 
L 228.985342 112.374286 
L 220.227738 115.480157 
L 211.669715 118.784117 
L 203.358486 122.241895 
L 195.331055 125.811251 
L 187.614788 129.453223 
L 180.228286 133.13292 
L 173.182459 136.81994 
L 166.481658 140.488467 
L 160.124808 144.117132 
L 154.106477 147.688719 
L 148.417844 151.189747 
L 143.047551 154.61002 
L 137.982435 157.942143 
L 133.208142 161.181057 
L 128.709619 164.3236 
L 124.471524 167.368108 
L 120.478528 170.314059 
L 116.715561 173.161766 
L 113.167983 175.912114 
L 109.821706 178.56634 
L 106.663284 181.125855 
L 103.679952 183.592102 
L 100.859661 185.966448 
L 98.191073 188.250103 
L 95.663553 190.444071 
L 93.26715 192.549123 
L 90.992562 194.565795 
L 88.831108 196.494402 
L 86.774683 198.335071 
L 84.815721 200.087794 
L 82.947159 201.752489 
" clip-path="url(#pc3b5e64283)" style="fill: none; stroke: #845b97; stroke-width: 1.5; stroke-linecap: square"/>
   </g>
   <g id="line2d_129">
    <path d="M 441.080562 67.298093 
L 441.047116 67.310285 
L 441.008922 67.324206 
L 440.965306 67.340102 
L 440.915504 67.358249 
L 440.858641 67.378966 
L 440.793722 67.402612 
L 440.719614 67.429599 
L 440.635027 67.460395 
L 440.538491 67.49553 
L 440.428337 67.535607 
L 440.302665 67.581311 
L 440.159321 67.633419 
L 439.995857 67.692808 
L 439.809501 67.760472 
L 439.597115 67.837532 
L 439.355149 67.925253 
L 439.079598 68.025054 
L 438.765948 68.13853 
L 438.409126 68.267463 
L 438.003441 68.41384 
L 437.542527 68.579864 
L 437.019289 68.767972 
L 436.42585 68.980841 
L 435.753499 69.221391 
L 434.992659 69.492785 
L 434.132863 69.798412 
L 433.162758 70.141863 
L 432.070134 70.526883 
L 430.841999 70.957304 
L 429.464707 71.436946 
L 427.924156 71.969481 
L 426.206054 72.558258 
L 424.296304 73.206076 
L 422.181475 73.914896 
L 419.754108 74.720356 
L 416.85538 75.676201 
L 413.730497 76.687407 
L 410.377037 77.748306 
L 406.797216 78.850226 
L 402.998699 79.981022 
L 398.995251 81.124682 
L 394.807069 82.261067 
L 390.460655 83.365869 
L 385.988041 84.410859 
L 381.42524 85.364519 
L 376.809828 86.193116 
L 372.177676 86.86226 
L 367.559 87.338951 
L 362.974069 87.594034 
L 358.429118 87.604938 
L 353.913093 87.358492 
L 349.395948 86.853549 
L 344.82905 86.103109 
L 340.148003 85.135639 
L 335.277807 83.995327 
L 330.139801 82.741083 
L 324.659524 81.444244 
L 318.774378 80.185095 
L 312.440047 79.048448 
L 305.634845 78.11869 
L 298.361584 77.474774 
L 290.646944 77.185635 
L 282.538716 77.306488 
L 274.101526 77.876303 
L 265.411722 78.916643 
L 256.552079 80.431836 
L 247.606869 82.41032 
L 238.657651 84.826891 
L 229.779989 87.645529 
L 221.04115 90.822458 
L 212.498728 94.309163 
L 204.200082 98.055127 
L 196.182405 102.010148 
L 188.473275 106.126164 
L 181.091531 110.358566 
L 174.048325 114.667052 
L 167.348249 119.016067 
L 160.990464 123.374916 
L 154.96976 127.71763 
L 149.277525 132.022654 
L 143.902591 136.272422 
L 138.83197 140.452872 
L 134.051459 144.552941 
L 129.546147 148.564063 
L 125.300808 152.4797 
L 121.30022 156.294915 
L 117.529403 160.005982 
L 113.973791 163.610067 
L 110.619364 167.104939 
L 107.452728 170.488753 
L 104.461164 173.759869 
L 101.632657 176.916725 
L 98.955896 179.957749 
L 96.420268 182.881316 
L 94.015832 185.685738 
L 91.733296 188.369289 
L 89.563973 190.930255 
L 87.499755 193.367014 
L 85.533062 195.678124 
L 83.656808 197.862426 
" clip-path="url(#pc3b5e64283)" style="fill: none; stroke: #474747; stroke-width: 1.5; stroke-linecap: square"/>
   </g>
   <g id="line2d_130">
    <path d="M 441.080555 51.533238 
L 441.047109 51.546682 
L 441.008913 51.562034 
L 440.965296 51.579562 
L 440.915492 51.599572 
L 440.858628 51.622416 
L 440.793708 51.648489 
L 440.719598 51.678246 
L 440.635009 51.7122 
L 440.538471 51.750938 
L 440.428314 51.795123 
L 440.30264 51.845509 
L 440.159292 51.902952 
L 439.995826 51.968418 
L 439.809467 52.043 
L 439.597078 52.127934 
L 439.355109 52.224607 
L 439.079555 52.334584 
L 438.765904 52.459614 
L 438.409082 52.601655 
L 438.003398 52.762886 
L 437.542487 52.945725 
L 437.019257 53.152841 
L 436.425829 53.387161 
L 435.753496 53.651875 
L 434.992684 53.950431 
L 434.132929 54.286515 
L 433.16288 54.664021 
L 432.070333 55.086993 
L 430.842304 55.559547 
L 429.465158 56.085756 
L 427.924799 56.669492 
L 426.206956 57.314222 
L 424.297545 58.022748 
L 422.183161 58.796874 
L 419.756371 59.675461 
L 416.858389 60.71726 
L 413.73446 61.816794 
L 410.382216 62.966996 
L 406.803931 64.157307 
L 403.007342 65.373132 
L 399.006295 66.595374 
L 394.821081 67.800109 
L 390.478304 68.958501 
L 386.010109 70.037035 
L 381.452627 70.998162 
L 376.843555 71.801445 
L 372.218886 72.405233 
L 367.608946 72.768885 
L 363.034106 72.855472 
L 358.500675 72.634825 
L 353.997652 72.086731 
L 349.495004 71.203995 
L 344.944072 69.995056 
L 340.280391 68.485838 
L 335.428842 66.720528 
L 330.310601 64.761075 
L 324.851001 62.685294 
L 318.987199 60.583633 
L 312.674603 58.554777 
L 305.891236 56.700463 
L 298.639606 55.11993 
L 290.946096 53.904543 
L 282.858218 53.133049 
L 274.440344 52.867903 
L 265.768605 53.152927 
L 256.925603 54.012399 
L 247.995482 55.451519 
L 239.059721 57.458045 
L 230.193849 60.00481 
L 221.465138 63.052757 
L 212.931224 66.55419 
L 204.639536 70.455935 
L 196.627358 74.702198 
L 188.922379 79.236997 
L 181.543554 84.006073 
L 174.502156 88.958304 
L 167.802903 94.046628 
L 161.445073 99.228564 
L 155.423572 104.466383 
L 149.729891 109.727034 
L 144.352964 114.981868 
L 139.279888 120.20625 
L 134.496543 125.379101 
L 129.988087 130.482415 
L 125.739356 135.500778 
L 121.735184 140.420921 
L 117.960635 145.231316 
L 114.401186 149.921827 
L 111.04285 154.483423 
L 107.872259 158.907954 
L 104.876721 163.187981 
L 102.044236 167.316677 
L 99.363509 171.287769 
L 96.823937 175.095532 
L 94.415586 178.734826 
L 92.129166 182.201158 
L 89.955992 185.49077 
L 87.887948 188.600737 
L 85.917449 191.529067 
L 84.037396 194.274799 
" clip-path="url(#pc3b5e64283)" style="fill: none; stroke: #9e9e9e; stroke-width: 1.5; stroke-linecap: square"/>
   </g>
   <g id="line2d_131">
    <path d="M 441.080551 39.238804 
L 441.047105 39.253225 
L 441.008909 39.269691 
L 440.965291 39.288491 
L 440.915487 39.309955 
L 440.858621 39.334456 
L 440.7937 39.362421 
L 440.71959 39.394336 
L 440.635 39.430753 
L 440.53846 39.472298 
L 440.428302 39.519685 
L 440.302627 39.573721 
L 440.159278 39.635321 
L 439.99581 39.705522 
L 439.80945 39.785495 
L 439.597059 39.876561 
L 439.35509 39.980208 
L 439.079535 40.098108 
L 438.765883 40.232134 
L 438.409061 40.384379 
L 438.003377 40.557171 
L 437.542469 40.753092 
L 437.019242 40.97499 
L 436.425821 41.225985 
L 435.753498 41.509475 
L 434.992701 41.829124 
L 434.132966 42.188844 
L 433.162947 42.592758 
L 432.070441 43.045132 
L 430.842468 43.550293 
L 429.465397 44.112492 
L 427.92514 44.735737 
L 426.20743 45.423562 
L 424.298196 46.178736 
L 422.184043 47.002898 
L 419.757553 47.937372 
L 416.859958 49.04475 
L 413.736524 50.211322 
L 410.38491 51.428828 
L 406.807421 52.685114 
L 403.011831 53.963527 
L 399.012028 55.242377 
L 394.828351 56.494565 
L 390.487457 57.687447 
L 386.021549 58.783048 
L 381.466819 59.738705 
L 376.861029 60.508249 
L 372.240232 61.043747 
L 367.634812 61.297847 
L 363.065192 61.22664 
L 358.537723 60.792922 
L 354.041427 59.969664 
L 349.546279 58.743398 
L 345.003608 57.117215 
L 340.348914 55.113046 
L 335.507016 52.772912 
L 330.399008 50.158899 
L 324.950115 47.351719 
L 319.09737 44.447851 
L 312.796041 41.555397 
L 306.023998 38.788946 
L 298.783596 36.263854 
L 291.101064 34.090425 
L 283.023771 32.368492 
L 274.615958 31.182856 
L 265.953643 30.599934 
L 257.119339 30.665796 
L 248.197123 31.405648 
L 239.268433 32.824634 
L 230.408777 34.909711 
L 221.685429 37.632309 
L 213.156047 40.951432 
L 204.868092 44.816891 
L 196.858896 49.17242 
L 189.156202 53.958472 
L 181.779026 59.114595 
L 174.738704 64.581311 
L 168.040014 70.301519 
L 161.682297 76.221444 
L 155.660515 82.291205 
L 149.966217 88.46506 
L 144.588384 94.701416 
L 139.514161 100.962659 
L 134.729468 107.214881 
L 130.219499 113.427545 
L 125.969124 119.573127 
L 121.963201 125.62678 
L 118.186823 131.566023 
L 114.625484 137.370484 
L 111.265215 143.0217 
L 108.092665 148.502972 
L 105.09515 153.799279 
L 102.260683 158.897235 
L 99.577975 163.785101 
L 97.036427 168.452811 
L 94.626111 172.89203 
L 92.337736 177.096213 
L 90.162618 181.060663 
L 88.092637 184.782572 
L 86.120204 188.261042 
L 84.238214 191.497072 
" clip-path="url(#pc3b5e64283)" style="fill: none; stroke: #0c5da5; stroke-width: 1.5; stroke-linecap: square"/>
   </g>
   <g id="patch_3">
    <path d="M 45.533162 227.514399 
L 45.533162 21.223055 
" style="fill: none; stroke: #000000; stroke-width: 0.5; stroke-linejoin: miter; stroke-linecap: square"/>
   </g>
   <g id="patch_4">
    <path d="M 459.916163 227.514399 
L 459.916163 21.223055 
" style="fill: none; stroke: #000000; stroke-width: 0.5; stroke-linejoin: miter; stroke-linecap: square"/>
   </g>
   <g id="patch_5">
    <path d="M 45.533162 227.514399 
L 459.916163 227.514399 
" style="fill: none; stroke: #000000; stroke-width: 0.5; stroke-linejoin: miter; stroke-linecap: square"/>
   </g>
   <g id="patch_6">
    <path d="M 45.533162 21.223055 
L 459.916163 21.223055 
" style="fill: none; stroke: #000000; stroke-width: 0.5; stroke-linejoin: miter; stroke-linecap: square"/>
   </g>
   <g id="text_12">
    <!-- NMOS_VTH, $V_{ \mathrm{ SB } }=0.00$, $V_{ \mathrm{ DS } }=0.50$ -->
    <g transform="translate(123.198339 15.223055) scale(0.168 -0.168)">
     <defs>
      <path id="CMSS17-4e" d="M 1466 4180 
L 1350 4416 
L 563 4416 
L 563 0 
L 1062 0 
L 1062 3926 
L 1069 3932 
C 1114 3817 1139 3760 1402 3194 
L 2771 236 
L 2886 0 
L 3674 0 
L 3674 4416 
L 3174 4416 
L 3174 490 
L 3168 483 
C 3123 598 3098 655 2835 1221 
L 1466 4180 
z
" transform="scale(0.015625)"/>
      <path id="CMSS17-4d" d="M 3194 2371 
L 2886 1473 
C 2835 1307 2662 791 2624 587 
L 2618 587 
C 2598 715 2560 849 2458 1174 
C 2400 1365 2336 1562 2272 1741 
L 1325 4416 
L 576 4416 
L 576 0 
L 1075 0 
L 1075 3900 
L 1082 3900 
C 1082 3894 1139 3613 1530 2499 
L 2374 96 
L 2848 96 
L 3610 2231 
C 3661 2378 3821 2843 3891 3066 
C 3955 3257 4115 3728 4154 3913 
L 4160 3913 
L 4160 0 
L 4666 0 
L 4666 4416 
L 3923 4416 
L 3194 2371 
z
" transform="scale(0.015625)"/>
      <path id="CMSS17-4f" d="M 4096 2178 
C 4096 3503 3219 4497 2214 4497 
C 1210 4497 333 3497 333 2178 
C 333 847 1222 -128 2214 -128 
C 3206 -128 4096 847 4096 2178 
z
M 2214 273 
C 1510 273 870 1057 870 2261 
C 870 3433 1549 4096 2214 4096 
C 2880 4096 3558 3433 3558 2261 
C 3558 1051 2912 273 2214 273 
z
" transform="scale(0.015625)"/>
      <path id="CMSS17-53" d="M 2797 4169 
C 2515 4334 2208 4480 1690 4480 
C 864 4480 333 3879 333 3266 
C 333 3025 403 2753 653 2475 
C 902 2196 1184 2121 1542 2033 
C 1690 1994 1939 1924 1984 1906 
C 2342 1767 2515 1444 2515 1140 
C 2515 742 2202 318 1645 318 
C 1453 318 890 318 358 819 
L 269 318 
C 794 -64 1363 -128 1651 -128 
C 2438 -128 3002 488 3002 1186 
C 3002 1440 2925 1763 2656 2061 
C 2394 2347 2163 2410 1638 2549 
C 1338 2626 1146 2677 986 2873 
C 877 3013 819 3146 819 3317 
C 819 3673 1126 4060 1690 4060 
C 1971 4060 2336 4002 2707 3660 
L 2797 4169 
z
" transform="scale(0.015625)"/>
      <path id="CMSS17-56" d="M 3910 4416 
L 3411 4416 
L 2304 1362 
C 2272 1273 2074 688 2035 484 
L 2029 484 
C 1978 726 1773 1292 1664 1604 
L 922 3672 
L 646 4416 
L 83 4416 
L 1715 0 
L 2278 0 
L 3910 4416 
z
" transform="scale(0.015625)"/>
      <path id="CMSS17-54" d="M 2317 3968 
L 2848 3968 
C 2925 3968 3002 3968 3078 3968 
L 3878 3968 
L 3878 4376 
L 218 4376 
L 218 3968 
L 1018 3968 
C 1094 3968 1171 3968 1248 3968 
L 1779 3968 
L 1779 -32 
L 2317 -32 
L 2317 3968 
z
" transform="scale(0.015625)"/>
      <path id="CMSS17-48" d="M 3674 4416 
L 3136 4416 
L 3136 2501 
L 1101 2501 
L 1101 4416 
L 563 4416 
L 563 0 
L 1101 0 
L 1101 2112 
L 3136 2112 
L 3136 0 
L 3674 0 
L 3674 4416 
z
" transform="scale(0.015625)"/>
      <path id="CMSS17-2c" d="M 1088 6 
L 1088 510 
L 576 510 
L 576 0 
L 736 0 
L 570 -800 
L 826 -800 
L 1088 6 
z
" transform="scale(0.015625)"/>
      <path id="CMMI12-56" d="M 3962 3640 
C 4179 3984 4378 4136 4704 4162 
C 4768 4168 4819 4168 4819 4282 
C 4819 4308 4806 4346 4749 4346 
C 4634 4346 4358 4346 4243 4346 
C 4058 4346 3866 4346 3686 4346 
C 3635 4346 3571 4346 3571 4226 
C 3571 4168 3629 4162 3654 4162 
C 3891 4143 3917 4029 3917 3952 
C 3917 3857 3827 3710 3821 3704 
L 1811 540 
L 1363 3969 
C 1363 4160 1696 4160 1766 4160 
C 1862 4160 1920 4160 1920 4282 
C 1920 4346 1850 4346 1830 4346 
C 1722 4346 1594 4346 1485 4346 
L 1126 4346 
C 659 4346 467 4346 461 4346 
C 422 4346 346 4346 346 4230 
C 346 4160 390 4160 493 4160 
C 819 4160 838 4102 858 3944 
L 1370 24 
C 1389 -109 1389 -128 1478 -128 
C 1555 -128 1587 -109 1651 -8 
L 3962 3640 
z
" transform="scale(0.015625)"/>
      <path id="CMR17-53" d="M 2803 4290 
C 2803 4404 2797 4411 2758 4411 
C 2720 4411 2707 4385 2682 4328 
L 2490 3907 
C 2246 4257 1875 4416 1472 4416 
C 819 4416 294 3901 294 3253 
C 294 3056 339 2776 557 2510 
C 794 2218 1018 2167 1530 2033 
C 1722 1982 2042 1899 2106 1874 
C 2470 1722 2662 1341 2662 985 
C 2662 527 2336 38 1779 38 
C 1094 38 454 419 410 1311 
C 403 1413 397 1419 352 1419 
C 301 1419 294 1413 294 1285 
L 294 -1 
C 294 -115 301 -122 339 -122 
C 384 -122 397 -90 486 108 
C 493 127 493 140 614 381 
C 934 -39 1472 -128 1779 -128 
C 2477 -128 2970 451 2970 1124 
C 2970 1454 2848 1708 2778 1823 
C 2509 2230 2221 2306 1914 2382 
C 1869 2402 1856 2402 1498 2490 
C 1152 2579 1005 2624 845 2796 
C 666 2992 602 3196 602 3399 
C 602 3812 934 4263 1478 4263 
C 2157 4263 2579 3786 2675 2993 
C 2694 2878 2701 2872 2746 2872 
C 2803 2872 2803 2891 2803 2999 
L 2803 4290 
z
" transform="scale(0.015625)"/>
      <path id="CMR17-42" d="M 333 4352 
L 333 4186 
C 774 4186 845 4186 845 3900 
L 845 452 
C 845 166 774 166 333 166 
L 333 0 
L 2534 0 
C 3354 0 3885 583 3885 1164 
C 3885 1741 3360 2233 2675 2233 
C 3290 2356 3718 2771 3718 3264 
C 3718 3802 3194 4352 2368 4352 
L 333 4352 
z
M 1248 2304 
L 1248 3937 
C 1248 4155 1261 4186 1517 4186 
L 2336 4186 
C 2970 4186 3251 3674 3251 3277 
C 3251 2791 2861 2304 2170 2304 
L 1248 2304 
z
M 1517 166 
C 1261 166 1248 197 1248 413 
L 1248 2202 
L 2432 2202 
C 3091 2202 3411 1625 3411 1162 
C 3411 699 3046 166 2349 166 
L 1517 166 
z
" transform="scale(0.015625)"/>
      <path id="CMR17-3d" d="M 4115 2017 
C 4211 2017 4307 2017 4307 2125 
C 4307 2240 4198 2240 4090 2240 
L 512 2240 
C 403 2240 294 2240 294 2125 
C 294 2017 390 2017 486 2017 
L 4115 2017 
z
M 4090 896 
C 4198 896 4307 896 4307 1011 
C 4307 1119 4211 1119 4115 1119 
L 486 1119 
C 390 1119 294 1119 294 1011 
C 294 896 403 896 512 896 
L 4090 896 
z
" transform="scale(0.015625)"/>
      <path id="CMMI12-3a" d="M 1178 307 
C 1178 492 1024 619 870 619 
C 685 619 557 466 557 313 
C 557 128 710 0 864 0 
C 1050 0 1178 153 1178 307 
z
" transform="scale(0.015625)"/>
      <path id="CMR17-44" d="M 333 4352 
L 333 4186 
C 774 4186 845 4186 845 3900 
L 845 452 
C 845 166 774 166 333 166 
L 333 0 
L 2368 0 
C 3398 0 4224 943 4224 2141 
C 4224 3346 3411 4352 2368 4352 
L 333 4352 
z
M 1523 166 
C 1267 166 1254 197 1254 414 
L 1254 3938 
C 1254 4155 1267 4186 1523 4186 
L 2240 4186 
C 2771 4186 3750 3874 3750 2141 
C 3750 1242 3488 879 3366 707 
C 3213 510 2848 166 2240 166 
L 1523 166 
z
" transform="scale(0.015625)"/>
     </defs>
     <use xlink:href="#CMSS17-4e" transform="scale(0.996264)"/>
     <use xlink:href="#CMSS17-4d" transform="translate(66.061519 0) scale(0.996264)"/>
     <use xlink:href="#CMSS17-4f" transform="translate(147.737549 0) scale(0.996264)"/>
     <use xlink:href="#CMSS17-53" transform="translate(216.761804 0) scale(0.996264)"/>
     <use xlink:href="#CMSS17-56" transform="translate(302.537816 0) scale(0.996264)"/>
     <use xlink:href="#CMSS17-54" transform="translate(364.755671 0) scale(0.996264)"/>
     <use xlink:href="#CMSS17-48" transform="translate(428.575125 0) scale(0.996264)"/>
     <use xlink:href="#CMSS17-2c" transform="translate(494.636644 0) scale(0.996264)"/>
     <use xlink:href="#CMMI12-56" transform="translate(551.889962 0) scale(0.996264)"/>
     <use xlink:href="#CMR17-53" transform="translate(608.759541 -14.943915) scale(0.697382)"/>
     <use xlink:href="#CMR17-42" transform="translate(644.386149 -14.943915) scale(0.697382)"/>
     <use xlink:href="#CMR17-3d" transform="translate(718.19021 0) scale(0.996264)"/>
     <use xlink:href="#CMR17-30" transform="translate(817.579007 0) scale(0.996264)"/>
     <use xlink:href="#CMMI12-3a" transform="translate(863.269484 0) scale(0.996264)"/>
     <use xlink:href="#CMR17-30" transform="translate(890.366661 0) scale(0.996264)"/>
     <use xlink:href="#CMR17-30" transform="translate(936.057138 0) scale(0.996264)"/>
     <use xlink:href="#CMSS17-2c" transform="translate(981.747615 0) scale(0.996264)"/>
     <use xlink:href="#CMMI12-56" transform="translate(1039.000933 0) scale(0.996264)"/>
     <use xlink:href="#CMR17-44" transform="translate(1095.870512 -14.943915) scale(0.697382)"/>
     <use xlink:href="#CMR17-53" transform="translate(1145.145782 -14.943915) scale(0.697382)"/>
     <use xlink:href="#CMR17-3d" transform="translate(1208.944531 0) scale(0.996264)"/>
     <use xlink:href="#CMR17-30" transform="translate(1308.333328 0) scale(0.996264)"/>
     <use xlink:href="#CMMI12-3a" transform="translate(1354.023805 0) scale(0.996264)"/>
     <use xlink:href="#CMR17-35" transform="translate(1381.120982 0) scale(0.996264)"/>
     <use xlink:href="#CMR17-30" transform="translate(1426.81146 0) scale(0.996264)"/>
     <path d="M 274.431332 0 
L 302.537816 0 
L 302.537816 0.3985 
L 274.431332 0.3985 
L 274.431332 0 
z
"/>
    </g>
   </g>
   <g id="legend_1">
    <g id="line2d_132">
     <path d="M 472.516163 54.720613 
L 486.516163 54.720613 
L 500.516163 54.720613 
" style="fill: none; stroke: #0c5da5; stroke-width: 1.5; stroke-linecap: square"/>
    </g>
    <g id="text_13">
     <!-- $45$ n -->
     <g transform="translate(511.716163 59.620613) scale(0.14 -0.14)">
      <defs>
       <path id="CMSS17-6e" d="M 2618 1877 
C 2618 2283 2522 2816 1798 2816 
C 1389 2816 1120 2606 941 2389 
L 941 2758 
L 474 2758 
L 474 0 
L 960 0 
L 960 1559 
C 960 1964 1114 2428 1549 2428 
C 2112 2428 2131 2048 2131 1829 
L 2131 0 
L 2618 0 
L 2618 1877 
z
" transform="scale(0.015625)"/>
      </defs>
      <use xlink:href="#CMR17-34" transform="scale(0.996264)"/>
      <use xlink:href="#CMR17-35" transform="translate(45.690477 0) scale(0.996264)"/>
      <use xlink:href="#CMSS17-6e" transform="translate(122.610067 0) scale(0.996264)"/>
     </g>
    </g>
    <g id="line2d_133">
     <path d="M 472.516163 74.232642 
L 486.516163 74.232642 
L 500.516163 74.232642 
" style="fill: none; stroke: #00b945; stroke-width: 1.5; stroke-linecap: square"/>
    </g>
    <g id="text_14">
     <!-- $100$ n -->
     <g transform="translate(511.716163 79.132642) scale(0.14 -0.14)">
      <use xlink:href="#CMR17-31" transform="scale(0.996264)"/>
      <use xlink:href="#CMR17-30" transform="translate(45.690477 0) scale(0.996264)"/>
      <use xlink:href="#CMR17-30" transform="translate(91.380954 0) scale(0.996264)"/>
      <use xlink:href="#CMSS17-6e" transform="translate(168.300544 0) scale(0.996264)"/>
     </g>
    </g>
    <g id="line2d_134">
     <path d="M 472.516163 93.74467 
L 486.516163 93.74467 
L 500.516163 93.74467 
" style="fill: none; stroke: #ff9500; stroke-width: 1.5; stroke-linecap: square"/>
    </g>
    <g id="text_15">
     <!-- $200$ n -->
     <g transform="translate(511.716163 98.64467) scale(0.14 -0.14)">
      <use xlink:href="#CMR17-32" transform="scale(0.996264)"/>
      <use xlink:href="#CMR17-30" transform="translate(45.690477 0) scale(0.996264)"/>
      <use xlink:href="#CMR17-30" transform="translate(91.380954 0) scale(0.996264)"/>
      <use xlink:href="#CMSS17-6e" transform="translate(168.300544 0) scale(0.996264)"/>
     </g>
    </g>
    <g id="line2d_135">
     <path d="M 472.516163 113.256699 
L 486.516163 113.256699 
L 500.516163 113.256699 
" style="fill: none; stroke: #ff2c00; stroke-width: 1.5; stroke-linecap: square"/>
    </g>
    <g id="text_16">
     <!-- $400$ n -->
     <g transform="translate(511.716163 118.156699) scale(0.14 -0.14)">
      <use xlink:href="#CMR17-34" transform="scale(0.996264)"/>
      <use xlink:href="#CMR17-30" transform="translate(45.690477 0) scale(0.996264)"/>
      <use xlink:href="#CMR17-30" transform="translate(91.380954 0) scale(0.996264)"/>
      <use xlink:href="#CMSS17-6e" transform="translate(168.300544 0) scale(0.996264)"/>
     </g>
    </g>
    <g id="line2d_136">
     <path d="M 472.516163 132.768727 
L 486.516163 132.768727 
L 500.516163 132.768727 
" style="fill: none; stroke: #845b97; stroke-width: 1.5; stroke-linecap: square"/>
    </g>
    <g id="text_17">
     <!-- $800$ n -->
     <g transform="translate(511.716163 137.668727) scale(0.14 -0.14)">
      <defs>
       <path id="CMR17-38" d="M 1741 2264 
C 2144 2467 2554 2773 2554 3263 
C 2554 3841 1990 4179 1472 4179 
C 890 4179 378 3759 378 3180 
C 378 3021 416 2747 666 2505 
C 730 2442 998 2251 1171 2130 
C 883 1983 211 1634 211 934 
C 211 279 838 -128 1459 -128 
C 2144 -128 2720 362 2720 1010 
C 2720 1590 2330 1857 2074 2029 
L 1741 2264 
z
M 902 2822 
C 851 2854 595 3051 595 3351 
C 595 3739 998 4032 1459 4032 
C 1965 4032 2336 3676 2336 3262 
C 2336 2669 1670 2331 1638 2331 
C 1632 2331 1626 2331 1574 2370 
L 902 2822 
z
M 2080 1519 
C 2176 1449 2483 1240 2483 851 
C 2483 381 2010 25 1472 25 
C 890 25 448 438 448 940 
C 448 1443 838 1862 1280 2060 
L 2080 1519 
z
" transform="scale(0.015625)"/>
      </defs>
      <use xlink:href="#CMR17-38" transform="scale(0.996264)"/>
      <use xlink:href="#CMR17-30" transform="translate(45.690477 0) scale(0.996264)"/>
      <use xlink:href="#CMR17-30" transform="translate(91.380954 0) scale(0.996264)"/>
      <use xlink:href="#CMSS17-6e" transform="translate(168.300544 0) scale(0.996264)"/>
     </g>
    </g>
    <g id="line2d_137">
     <path d="M 472.516163 152.280755 
L 486.516163 152.280755 
L 500.516163 152.280755 
" style="fill: none; stroke: #474747; stroke-width: 1.5; stroke-linecap: square"/>
    </g>
    <g id="text_18">
     <!-- $1.6$  -->
     <g transform="translate(511.716163 157.180755) scale(0.14 -0.14)">
      <defs>
       <path id="SFSS3583-b5" d="M 544 2701 
L 544 -1216 
L 819 -1216 
L 819 65 
C 934 18 1056 0 1184 0 
C 1523 0 1971 160 2125 422 
L 2131 32 
L 2400 32 
L 2400 2701 
L 2125 2701 
L 2125 1341 
C 2125 1259 2131 1169 2131 1080 
C 2131 530 1786 243 1350 243 
C 1050 243 819 346 819 754 
L 819 2701 
L 544 2701 
z
" transform="scale(0.015625)"/>
      </defs>
      <use xlink:href="#CMR17-31" transform="scale(0.996264)"/>
      <use xlink:href="#CMMI12-3a" transform="translate(45.690477 0) scale(0.996264)"/>
      <use xlink:href="#CMR17-36" transform="translate(72.787654 0) scale(0.996264)"/>
      <use xlink:href="#SFSS3583-b5" transform="translate(149.707244 0) scale(0.996264)"/>
     </g>
    </g>
    <g id="line2d_138">
     <path d="M 472.516163 171.792784 
L 486.516163 171.792784 
L 500.516163 171.792784 
" style="fill: none; stroke: #9e9e9e; stroke-width: 1.5; stroke-linecap: square"/>
    </g>
    <g id="text_19">
     <!-- $3.2$  -->
     <g transform="translate(511.716163 176.692784) scale(0.14 -0.14)">
      <defs>
       <path id="CMR17-33" d="M 1414 2157 
C 1984 2157 2234 1662 2234 1090 
C 2234 320 1824 25 1453 25 
C 1114 25 563 194 390 693 
C 422 680 454 680 486 680 
C 640 680 755 782 755 948 
C 755 1133 614 1216 486 1216 
C 378 1216 211 1165 211 926 
C 211 335 787 -128 1466 -128 
C 2176 -128 2720 430 2720 1085 
C 2720 1707 2208 2157 1600 2227 
C 2086 2328 2554 2756 2554 3329 
C 2554 3820 2048 4179 1472 4179 
C 890 4179 378 3829 378 3329 
C 378 3110 544 3072 627 3072 
C 762 3072 877 3155 877 3321 
C 877 3486 762 3569 627 3569 
C 602 3569 570 3569 544 3557 
C 730 3959 1235 4032 1459 4032 
C 1683 4032 2106 3925 2106 3320 
C 2106 3143 2080 2828 1862 2550 
C 1670 2304 1453 2304 1242 2284 
C 1210 2284 1062 2269 1037 2269 
C 992 2263 966 2257 966 2208 
C 966 2163 973 2157 1101 2157 
L 1414 2157 
z
" transform="scale(0.015625)"/>
      </defs>
      <use xlink:href="#CMR17-33" transform="scale(0.996264)"/>
      <use xlink:href="#CMMI12-3a" transform="translate(45.690477 0) scale(0.996264)"/>
      <use xlink:href="#CMR17-32" transform="translate(72.787654 0) scale(0.996264)"/>
      <use xlink:href="#SFSS3583-b5" transform="translate(149.707244 0) scale(0.996264)"/>
     </g>
    </g>
    <g id="line2d_139">
     <path d="M 472.516163 191.304812 
L 486.516163 191.304812 
L 500.516163 191.304812 
" style="fill: none; stroke: #0c5da5; stroke-width: 1.5; stroke-linecap: square"/>
    </g>
    <g id="text_20">
     <!-- $6.4$  -->
     <g transform="translate(511.716163 196.204812) scale(0.14 -0.14)">
      <use xlink:href="#CMR17-36" transform="scale(0.996264)"/>
      <use xlink:href="#CMMI12-3a" transform="translate(45.690477 0) scale(0.996264)"/>
      <use xlink:href="#CMR17-34" transform="translate(72.787654 0) scale(0.996264)"/>
      <use xlink:href="#SFSS3583-b5" transform="translate(149.707244 0) scale(0.996264)"/>
     </g>
    </g>
   </g>
  </g>
 </g>
 <defs>
  <clipPath id="pc3b5e64283">
   <rect x="45.533162" y="21.223055" width="414.383001" height="206.291344"/>
  </clipPath>
 </defs>
</svg>
