<?xml version="1.0" encoding="utf-8" standalone="no"?>
<!DOCTYPE svg PUBLIC "-//W3C//DTD SVG 1.1//EN"
  "http://www.w3.org/Graphics/SVG/1.1/DTD/svg11.dtd">
<svg xmlns:xlink="http://www.w3.org/1999/xlink" width="576pt" height="288pt" viewBox="0 0 576 288" xmlns="http://www.w3.org/2000/svg" version="1.1">
 <metadata>
  <rdf:RDF xmlns:dc="http://purl.org/dc/elements/1.1/" xmlns:cc="http://creativecommons.org/ns#" xmlns:rdf="http://www.w3.org/1999/02/22-rdf-syntax-ns#">
   <cc:Work>
    <dc:type rdf:resource="http://purl.org/dc/dcmitype/StillImage"/>
    <dc:date>2022-11-29T11:11:59.243354</dc:date>
    <dc:format>image/svg+xml</dc:format>
    <dc:creator>
     <cc:Agent>
      <dc:title>Matplotlib v3.6.0, https://matplotlib.org/</dc:title>
     </cc:Agent>
    </dc:creator>
   </cc:Work>
  </rdf:RDF>
 </metadata>
 <defs>
  <style type="text/css">*{stroke-linejoin: round; stroke-linecap: butt}</style>
 </defs>
 <g id="figure_1">
  <g id="patch_1">
   <path d="M 0 288 
L 576 288 
L 576 0 
L 0 0 
z
" style="fill: #ffffff"/>
  </g>
  <g id="axes_1">
   <g id="patch_2">
    <path d="M 54.978125 246.821875 
L 495.596875 246.821875 
L 495.596875 25.8 
L 54.978125 25.8 
z
" style="fill: #ffffff"/>
   </g>
   <g id="matplotlib.axis_1">
    <g id="xtick_1">
     <g id="line2d_1">
      <path d="M 108.384957 246.821875 
L 108.384957 25.8 
" clip-path="url(#pfc1ac17b2e)" style="fill: none; stroke-dasharray: 2.96,1.28; stroke-dashoffset: 0; stroke: #a6a6a6; stroke-width: 0.8"/>
     </g>
     <g id="line2d_2">
      <defs>
       <path id="m02f8c6d229" d="M 0 0 
L 0 3.5 
" style="stroke: #000000; stroke-width: 0.8"/>
      </defs>
      <g>
       <use xlink:href="#m02f8c6d229" x="108.384957" y="246.821875" style="stroke: #000000; stroke-width: 0.8"/>
      </g>
     </g>
     <g id="text_1">
      <!-- 5 -->
      <g transform="translate(105.203707 261.420313) scale(0.1 -0.1)">
       <defs>
        <path id="DejaVuSans-35" d="M 691 4666 
L 3169 4666 
L 3169 4134 
L 1269 4134 
L 1269 2991 
Q 1406 3038 1543 3061 
Q 1681 3084 1819 3084 
Q 2600 3084 3056 2656 
Q 3513 2228 3513 1497 
Q 3513 744 3044 326 
Q 2575 -91 1722 -91 
Q 1428 -91 1123 -41 
Q 819 9 494 109 
L 494 744 
Q 775 591 1075 516 
Q 1375 441 1709 441 
Q 2250 441 2565 725 
Q 2881 1009 2881 1497 
Q 2881 1984 2565 2268 
Q 2250 2553 1709 2553 
Q 1456 2553 1204 2497 
Q 953 2441 691 2322 
L 691 4666 
z
" transform="scale(0.015625)"/>
       </defs>
       <use xlink:href="#DejaVuSans-35"/>
      </g>
     </g>
    </g>
    <g id="xtick_2">
     <g id="line2d_3">
      <path d="M 190.570596 246.821875 
L 190.570596 25.8 
" clip-path="url(#pfc1ac17b2e)" style="fill: none; stroke-dasharray: 2.96,1.28; stroke-dashoffset: 0; stroke: #a6a6a6; stroke-width: 0.8"/>
     </g>
     <g id="line2d_4">
      <g>
       <use xlink:href="#m02f8c6d229" x="190.570596" y="246.821875" style="stroke: #000000; stroke-width: 0.8"/>
      </g>
     </g>
     <g id="text_2">
      <!-- 10 -->
      <g transform="translate(184.208096 261.420313) scale(0.1 -0.1)">
       <defs>
        <path id="DejaVuSans-31" d="M 794 531 
L 1825 531 
L 1825 4091 
L 703 3866 
L 703 4441 
L 1819 4666 
L 2450 4666 
L 2450 531 
L 3481 531 
L 3481 0 
L 794 0 
L 794 531 
z
" transform="scale(0.015625)"/>
        <path id="DejaVuSans-30" d="M 2034 4250 
Q 1547 4250 1301 3770 
Q 1056 3291 1056 2328 
Q 1056 1369 1301 889 
Q 1547 409 2034 409 
Q 2525 409 2770 889 
Q 3016 1369 3016 2328 
Q 3016 3291 2770 3770 
Q 2525 4250 2034 4250 
z
M 2034 4750 
Q 2819 4750 3233 4129 
Q 3647 3509 3647 2328 
Q 3647 1150 3233 529 
Q 2819 -91 2034 -91 
Q 1250 -91 836 529 
Q 422 1150 422 2328 
Q 422 3509 836 4129 
Q 1250 4750 2034 4750 
z
" transform="scale(0.015625)"/>
       </defs>
       <use xlink:href="#DejaVuSans-31"/>
       <use xlink:href="#DejaVuSans-30" x="63.623047"/>
      </g>
     </g>
    </g>
    <g id="xtick_3">
     <g id="line2d_5">
      <path d="M 272.756235 246.821875 
L 272.756235 25.8 
" clip-path="url(#pfc1ac17b2e)" style="fill: none; stroke-dasharray: 2.96,1.28; stroke-dashoffset: 0; stroke: #a6a6a6; stroke-width: 0.8"/>
     </g>
     <g id="line2d_6">
      <g>
       <use xlink:href="#m02f8c6d229" x="272.756235" y="246.821875" style="stroke: #000000; stroke-width: 0.8"/>
      </g>
     </g>
     <g id="text_3">
      <!-- 15 -->
      <g transform="translate(266.393735 261.420313) scale(0.1 -0.1)">
       <use xlink:href="#DejaVuSans-31"/>
       <use xlink:href="#DejaVuSans-35" x="63.623047"/>
      </g>
     </g>
    </g>
    <g id="xtick_4">
     <g id="line2d_7">
      <path d="M 354.941874 246.821875 
L 354.941874 25.8 
" clip-path="url(#pfc1ac17b2e)" style="fill: none; stroke-dasharray: 2.96,1.28; stroke-dashoffset: 0; stroke: #a6a6a6; stroke-width: 0.8"/>
     </g>
     <g id="line2d_8">
      <g>
       <use xlink:href="#m02f8c6d229" x="354.941874" y="246.821875" style="stroke: #000000; stroke-width: 0.8"/>
      </g>
     </g>
     <g id="text_4">
      <!-- 20 -->
      <g transform="translate(348.579374 261.420313) scale(0.1 -0.1)">
       <defs>
        <path id="DejaVuSans-32" d="M 1228 531 
L 3431 531 
L 3431 0 
L 469 0 
L 469 531 
Q 828 903 1448 1529 
Q 2069 2156 2228 2338 
Q 2531 2678 2651 2914 
Q 2772 3150 2772 3378 
Q 2772 3750 2511 3984 
Q 2250 4219 1831 4219 
Q 1534 4219 1204 4116 
Q 875 4013 500 3803 
L 500 4441 
Q 881 4594 1212 4672 
Q 1544 4750 1819 4750 
Q 2544 4750 2975 4387 
Q 3406 4025 3406 3419 
Q 3406 3131 3298 2873 
Q 3191 2616 2906 2266 
Q 2828 2175 2409 1742 
Q 1991 1309 1228 531 
z
" transform="scale(0.015625)"/>
       </defs>
       <use xlink:href="#DejaVuSans-32"/>
       <use xlink:href="#DejaVuSans-30" x="63.623047"/>
      </g>
     </g>
    </g>
    <g id="xtick_5">
     <g id="line2d_9">
      <path d="M 437.127513 246.821875 
L 437.127513 25.8 
" clip-path="url(#pfc1ac17b2e)" style="fill: none; stroke-dasharray: 2.96,1.28; stroke-dashoffset: 0; stroke: #a6a6a6; stroke-width: 0.8"/>
     </g>
     <g id="line2d_10">
      <g>
       <use xlink:href="#m02f8c6d229" x="437.127513" y="246.821875" style="stroke: #000000; stroke-width: 0.8"/>
      </g>
     </g>
     <g id="text_5">
      <!-- 25 -->
      <g transform="translate(430.765013 261.420313) scale(0.1 -0.1)">
       <use xlink:href="#DejaVuSans-32"/>
       <use xlink:href="#DejaVuSans-35" x="63.623047"/>
      </g>
     </g>
    </g>
    <g id="text_6">
     <!-- $g_m/I_D (S/A)$ -->
     <g transform="translate(250.3875 275.1) scale(0.1 -0.1)">
      <defs>
       <path id="DejaVuSans-Oblique-67" d="M 3816 3500 
L 3219 434 
Q 3047 -456 2561 -893 
Q 2075 -1331 1253 -1331 
Q 950 -1331 690 -1286 
Q 431 -1241 206 -1147 
L 313 -588 
Q 525 -725 762 -790 
Q 1000 -856 1269 -856 
Q 1816 -856 2167 -557 
Q 2519 -259 2631 300 
L 2681 563 
Q 2441 288 2122 144 
Q 1803 0 1434 0 
Q 903 0 598 351 
Q 294 703 294 1319 
Q 294 1803 478 2267 
Q 663 2731 997 3091 
Q 1219 3328 1514 3456 
Q 1809 3584 2131 3584 
Q 2484 3584 2746 3420 
Q 3009 3256 3138 2956 
L 3238 3500 
L 3816 3500 
z
M 2950 2216 
Q 2950 2641 2750 2872 
Q 2550 3103 2181 3103 
Q 1953 3103 1747 3012 
Q 1541 2922 1394 2759 
Q 1156 2491 1023 2127 
Q 891 1763 891 1375 
Q 891 944 1092 712 
Q 1294 481 1672 481 
Q 2219 481 2584 976 
Q 2950 1472 2950 2216 
z
" transform="scale(0.015625)"/>
       <path id="DejaVuSans-Oblique-6d" d="M 5747 2113 
L 5338 0 
L 4763 0 
L 5166 2094 
Q 5191 2228 5203 2325 
Q 5216 2422 5216 2491 
Q 5216 2772 5059 2928 
Q 4903 3084 4622 3084 
Q 4203 3084 3875 2770 
Q 3547 2456 3450 1953 
L 3066 0 
L 2491 0 
L 2900 2094 
Q 2925 2209 2937 2307 
Q 2950 2406 2950 2484 
Q 2950 2769 2794 2926 
Q 2638 3084 2363 3084 
Q 1938 3084 1609 2770 
Q 1281 2456 1184 1953 
L 800 0 
L 225 0 
L 909 3500 
L 1484 3500 
L 1375 2956 
Q 1609 3263 1923 3423 
Q 2238 3584 2597 3584 
Q 2978 3584 3223 3384 
Q 3469 3184 3519 2828 
Q 3781 3197 4126 3390 
Q 4472 3584 4856 3584 
Q 5306 3584 5551 3325 
Q 5797 3066 5797 2591 
Q 5797 2488 5784 2364 
Q 5772 2241 5747 2113 
z
" transform="scale(0.015625)"/>
       <path id="DejaVuSans-2f" d="M 1625 4666 
L 2156 4666 
L 531 -594 
L 0 -594 
L 1625 4666 
z
" transform="scale(0.015625)"/>
       <path id="DejaVuSans-Oblique-49" d="M 1081 4666 
L 1716 4666 
L 806 0 
L 172 0 
L 1081 4666 
z
" transform="scale(0.015625)"/>
       <path id="DejaVuSans-Oblique-44" d="M 1081 4666 
L 2438 4666 
Q 3519 4666 4070 4208 
Q 4622 3750 4622 2847 
Q 4622 2250 4412 1698 
Q 4203 1147 3834 769 
Q 3463 381 2891 190 
Q 2319 0 1538 0 
L 172 0 
L 1081 4666 
z
M 1613 4147 
L 909 519 
L 1734 519 
Q 2794 519 3375 1128 
Q 3956 1738 3956 2847 
Q 3956 3519 3581 3833 
Q 3206 4147 2406 4147 
L 1613 4147 
z
" transform="scale(0.015625)"/>
       <path id="DejaVuSans-28" d="M 1984 4856 
Q 1566 4138 1362 3434 
Q 1159 2731 1159 2009 
Q 1159 1288 1364 580 
Q 1569 -128 1984 -844 
L 1484 -844 
Q 1016 -109 783 600 
Q 550 1309 550 2009 
Q 550 2706 781 3412 
Q 1013 4119 1484 4856 
L 1984 4856 
z
" transform="scale(0.015625)"/>
       <path id="DejaVuSans-Oblique-53" d="M 3859 4513 
L 3738 3897 
Q 3422 4066 3111 4152 
Q 2800 4238 2509 4238 
Q 1944 4238 1609 3991 
Q 1275 3744 1275 3334 
Q 1275 3109 1398 2989 
Q 1522 2869 2034 2731 
L 2413 2638 
Q 3053 2472 3303 2217 
Q 3553 1963 3553 1503 
Q 3553 797 2998 353 
Q 2444 -91 1538 -91 
Q 1166 -91 791 -17 
Q 416 56 38 206 
L 166 856 
Q 513 641 861 531 
Q 1209 422 1556 422 
Q 2147 422 2503 684 
Q 2859 947 2859 1369 
Q 2859 1650 2717 1795 
Q 2575 1941 2106 2059 
L 1728 2156 
Q 1081 2325 845 2545 
Q 609 2766 609 3163 
Q 609 3859 1145 4304 
Q 1681 4750 2541 4750 
Q 2875 4750 3203 4690 
Q 3531 4631 3859 4513 
z
" transform="scale(0.015625)"/>
       <path id="DejaVuSans-Oblique-41" d="M 2356 4666 
L 3072 4666 
L 3938 0 
L 3278 0 
L 3084 1197 
L 984 1197 
L 325 0 
L -341 0 
L 2356 4666 
z
M 2584 4044 
L 1275 1722 
L 2988 1722 
L 2584 4044 
z
" transform="scale(0.015625)"/>
       <path id="DejaVuSans-29" d="M 513 4856 
L 1013 4856 
Q 1481 4119 1714 3412 
Q 1947 2706 1947 2009 
Q 1947 1309 1714 600 
Q 1481 -109 1013 -844 
L 513 -844 
Q 928 -128 1133 580 
Q 1338 1288 1338 2009 
Q 1338 2731 1133 3434 
Q 928 4138 513 4856 
z
" transform="scale(0.015625)"/>
      </defs>
      <use xlink:href="#DejaVuSans-Oblique-67" transform="translate(0 0.125)"/>
      <use xlink:href="#DejaVuSans-Oblique-6d" transform="translate(63.476562 -16.28125) scale(0.7)"/>
      <use xlink:href="#DejaVuSans-2f" transform="translate(134.399414 0.125)"/>
      <use xlink:href="#DejaVuSans-Oblique-49" transform="translate(168.09082 0.125)"/>
      <use xlink:href="#DejaVuSans-Oblique-44" transform="translate(197.583008 -16.28125) scale(0.7)"/>
      <use xlink:href="#DejaVuSans-28" transform="translate(254.21875 0.125)"/>
      <use xlink:href="#DejaVuSans-Oblique-53" transform="translate(293.232422 0.125)"/>
      <use xlink:href="#DejaVuSans-2f" transform="translate(356.708984 0.125)"/>
      <use xlink:href="#DejaVuSans-Oblique-41" transform="translate(390.400391 0.125)"/>
      <use xlink:href="#DejaVuSans-29" transform="translate(458.808594 0.125)"/>
     </g>
    </g>
   </g>
   <g id="matplotlib.axis_2">
    <g id="ytick_1">
     <g id="line2d_11">
      <path d="M 54.978125 207.634391 
L 495.596875 207.634391 
" clip-path="url(#pfc1ac17b2e)" style="fill: none; stroke-dasharray: 2.96,1.28; stroke-dashoffset: 0; stroke: #a6a6a6; stroke-width: 0.8"/>
     </g>
     <g id="line2d_12">
      <defs>
       <path id="m436eb303ec" d="M 0 0 
L -3.5 0 
" style="stroke: #000000; stroke-width: 0.8"/>
      </defs>
      <g>
       <use xlink:href="#m436eb303ec" x="54.978125" y="207.634391" style="stroke: #000000; stroke-width: 0.8"/>
      </g>
     </g>
     <g id="text_7">
      <!-- $\mathdefault{10^{-6}}$ -->
      <g transform="translate(24.478125 211.43361) scale(0.1 -0.1)">
       <defs>
        <path id="DejaVuSans-2212" d="M 678 2272 
L 4684 2272 
L 4684 1741 
L 678 1741 
L 678 2272 
z
" transform="scale(0.015625)"/>
        <path id="DejaVuSans-36" d="M 2113 2584 
Q 1688 2584 1439 2293 
Q 1191 2003 1191 1497 
Q 1191 994 1439 701 
Q 1688 409 2113 409 
Q 2538 409 2786 701 
Q 3034 994 3034 1497 
Q 3034 2003 2786 2293 
Q 2538 2584 2113 2584 
z
M 3366 4563 
L 3366 3988 
Q 3128 4100 2886 4159 
Q 2644 4219 2406 4219 
Q 1781 4219 1451 3797 
Q 1122 3375 1075 2522 
Q 1259 2794 1537 2939 
Q 1816 3084 2150 3084 
Q 2853 3084 3261 2657 
Q 3669 2231 3669 1497 
Q 3669 778 3244 343 
Q 2819 -91 2113 -91 
Q 1303 -91 875 529 
Q 447 1150 447 2328 
Q 447 3434 972 4092 
Q 1497 4750 2381 4750 
Q 2619 4750 2861 4703 
Q 3103 4656 3366 4563 
z
" transform="scale(0.015625)"/>
       </defs>
       <use xlink:href="#DejaVuSans-31" transform="translate(0 0.765625)"/>
       <use xlink:href="#DejaVuSans-30" transform="translate(63.623047 0.765625)"/>
       <use xlink:href="#DejaVuSans-2212" transform="translate(128.203125 39.046875) scale(0.7)"/>
       <use xlink:href="#DejaVuSans-36" transform="translate(186.855469 39.046875) scale(0.7)"/>
      </g>
     </g>
    </g>
    <g id="ytick_2">
     <g id="line2d_13">
      <path d="M 54.978125 168.196415 
L 495.596875 168.196415 
" clip-path="url(#pfc1ac17b2e)" style="fill: none; stroke-dasharray: 2.96,1.28; stroke-dashoffset: 0; stroke: #a6a6a6; stroke-width: 0.8"/>
     </g>
     <g id="line2d_14">
      <g>
       <use xlink:href="#m436eb303ec" x="54.978125" y="168.196415" style="stroke: #000000; stroke-width: 0.8"/>
      </g>
     </g>
     <g id="text_8">
      <!-- $\mathdefault{10^{-4}}$ -->
      <g transform="translate(24.478125 171.995634) scale(0.1 -0.1)">
       <defs>
        <path id="DejaVuSans-34" d="M 2419 4116 
L 825 1625 
L 2419 1625 
L 2419 4116 
z
M 2253 4666 
L 3047 4666 
L 3047 1625 
L 3713 1625 
L 3713 1100 
L 3047 1100 
L 3047 0 
L 2419 0 
L 2419 1100 
L 313 1100 
L 313 1709 
L 2253 4666 
z
" transform="scale(0.015625)"/>
       </defs>
       <use xlink:href="#DejaVuSans-31" transform="translate(0 0.684375)"/>
       <use xlink:href="#DejaVuSans-30" transform="translate(63.623047 0.684375)"/>
       <use xlink:href="#DejaVuSans-2212" transform="translate(128.203125 38.965625) scale(0.7)"/>
       <use xlink:href="#DejaVuSans-34" transform="translate(186.855469 38.965625) scale(0.7)"/>
      </g>
     </g>
    </g>
    <g id="ytick_3">
     <g id="line2d_15">
      <path d="M 54.978125 128.758439 
L 495.596875 128.758439 
" clip-path="url(#pfc1ac17b2e)" style="fill: none; stroke-dasharray: 2.96,1.28; stroke-dashoffset: 0; stroke: #a6a6a6; stroke-width: 0.8"/>
     </g>
     <g id="line2d_16">
      <g>
       <use xlink:href="#m436eb303ec" x="54.978125" y="128.758439" style="stroke: #000000; stroke-width: 0.8"/>
      </g>
     </g>
     <g id="text_9">
      <!-- $\mathdefault{10^{-2}}$ -->
      <g transform="translate(24.478125 132.557658) scale(0.1 -0.1)">
       <use xlink:href="#DejaVuSans-31" transform="translate(0 0.765625)"/>
       <use xlink:href="#DejaVuSans-30" transform="translate(63.623047 0.765625)"/>
       <use xlink:href="#DejaVuSans-2212" transform="translate(128.203125 39.046875) scale(0.7)"/>
       <use xlink:href="#DejaVuSans-32" transform="translate(186.855469 39.046875) scale(0.7)"/>
      </g>
     </g>
    </g>
    <g id="ytick_4">
     <g id="line2d_17">
      <path d="M 54.978125 89.320463 
L 495.596875 89.320463 
" clip-path="url(#pfc1ac17b2e)" style="fill: none; stroke-dasharray: 2.96,1.28; stroke-dashoffset: 0; stroke: #a6a6a6; stroke-width: 0.8"/>
     </g>
     <g id="line2d_18">
      <g>
       <use xlink:href="#m436eb303ec" x="54.978125" y="89.320463" style="stroke: #000000; stroke-width: 0.8"/>
      </g>
     </g>
     <g id="text_10">
      <!-- $\mathdefault{10^{0}}$ -->
      <g transform="translate(30.378125 93.119682) scale(0.1 -0.1)">
       <use xlink:href="#DejaVuSans-31" transform="translate(0 0.765625)"/>
       <use xlink:href="#DejaVuSans-30" transform="translate(63.623047 0.765625)"/>
       <use xlink:href="#DejaVuSans-30" transform="translate(128.203125 39.046875) scale(0.7)"/>
      </g>
     </g>
    </g>
    <g id="ytick_5">
     <g id="line2d_19">
      <path d="M 54.978125 49.882487 
L 495.596875 49.882487 
" clip-path="url(#pfc1ac17b2e)" style="fill: none; stroke-dasharray: 2.96,1.28; stroke-dashoffset: 0; stroke: #a6a6a6; stroke-width: 0.8"/>
     </g>
     <g id="line2d_20">
      <g>
       <use xlink:href="#m436eb303ec" x="54.978125" y="49.882487" style="stroke: #000000; stroke-width: 0.8"/>
      </g>
     </g>
     <g id="text_11">
      <!-- $\mathdefault{10^{2}}$ -->
      <g transform="translate(30.378125 53.681706) scale(0.1 -0.1)">
       <use xlink:href="#DejaVuSans-31" transform="translate(0 0.765625)"/>
       <use xlink:href="#DejaVuSans-30" transform="translate(63.623047 0.765625)"/>
       <use xlink:href="#DejaVuSans-32" transform="translate(128.203125 39.046875) scale(0.7)"/>
      </g>
     </g>
    </g>
    <g id="text_12">
     <!-- $I_{D}/W (A/m)$ -->
     <g transform="translate(18.398438 161.160937) rotate(-90) scale(0.1 -0.1)">
      <defs>
       <path id="DejaVuSans-Oblique-57" d="M 616 4666 
L 1228 4666 
L 1453 697 
L 3213 4666 
L 3916 4666 
L 4147 697 
L 5888 4666 
L 6528 4666 
L 4453 0 
L 3659 0 
L 3444 3891 
L 1697 0 
L 903 0 
L 616 4666 
z
" transform="scale(0.015625)"/>
      </defs>
      <use xlink:href="#DejaVuSans-Oblique-49" transform="translate(0 0.125)"/>
      <use xlink:href="#DejaVuSans-Oblique-44" transform="translate(29.492188 -16.28125) scale(0.7)"/>
      <use xlink:href="#DejaVuSans-2f" transform="translate(86.12793 0.125)"/>
      <use xlink:href="#DejaVuSans-Oblique-57" transform="translate(119.819336 0.125)"/>
      <use xlink:href="#DejaVuSans-28" transform="translate(218.696289 0.125)"/>
      <use xlink:href="#DejaVuSans-Oblique-41" transform="translate(257.709961 0.125)"/>
      <use xlink:href="#DejaVuSans-2f" transform="translate(326.118164 0.125)"/>
      <use xlink:href="#DejaVuSans-Oblique-6d" transform="translate(359.80957 0.125)"/>
      <use xlink:href="#DejaVuSans-29" transform="translate(457.22168 0.125)"/>
     </g>
    </g>
   </g>
   <g id="line2d_21">
    <path d="M 475.492044 188.479997 
L 475.445419 186.139272 
L 475.392178 183.798807 
L 475.331388 181.458639 
L 475.261982 179.118809 
L 475.182749 176.779366 
L 475.092307 174.440365 
L 474.989083 172.101867 
L 474.871289 169.763944 
L 474.73689 167.426677 
L 474.583577 165.090159 
L 474.408727 162.754494 
L 474.209366 160.419802 
L 473.982126 158.086221 
L 473.723196 155.753904 
L 473.42827 153.423028 
L 473.092496 151.093792 
L 472.710408 148.766425 
L 472.275874 146.441181 
L 471.78202 144.118354 
L 471.221178 141.79827 
L 470.584809 139.481301 
L 469.863458 137.167864 
L 469.046694 134.85843 
L 468.123083 132.553524 
L 467.080167 130.253735 
L 465.904487 127.95972 
L 464.58163 125.672207 
L 463.096341 123.392003 
L 461.432691 121.119995 
L 459.574333 118.857154 
L 457.504844 116.604539 
L 455.208181 114.363291 
L 452.669254 112.134633 
L 449.874621 109.919864 
L 446.712943 107.720419 
L 443.021122 105.539018 
L 439.062424 103.377547 
L 434.839998 101.23739 
L 430.362789 99.119902 
L 425.645903 97.026372 
L 420.710506 94.957998 
L 415.583111 92.915849 
L 410.294085 90.90085 
L 404.875322 88.913759 
L 399.357081 86.955171 
L 393.764187 85.025537 
L 388.111947 83.1252 
L 382.402334 81.25446 
L 376.621109 79.413643 
L 370.736576 77.603199 
L 364.700534 75.823784 
L 358.451687 74.076343 
L 351.92136 72.362161 
L 345.040883 70.682886 
L 337.749669 69.040506 
L 330.002793 67.437285 
L 321.776966 65.875669 
L 313.074106 64.358159 
L 303.92212 62.887178 
L 294.37302 61.464943 
L 284.498869 60.09334 
L 274.386294 58.773843 
L 264.130379 57.50745 
L 253.82868 56.294651 
L 243.575918 55.135438 
L 233.459737 54.029322 
L 223.557653 52.975386 
L 213.935216 51.972337 
L 204.645222 51.018576 
L 195.727817 50.11226 
L 187.211232 49.251371 
L 179.112957 48.433769 
L 171.441161 47.657251 
L 164.196199 46.919589 
L 157.372097 46.218575 
L 150.957939 45.55204 
L 144.939112 44.917888 
L 139.298379 44.3141 
L 134.016784 43.738758 
L 129.074393 43.19004 
L 124.45088 42.666233 
L 120.125985 42.165728 
L 116.079858 41.687021 
L 112.293312 41.228711 
L 108.74799 40.789492 
L 105.426479 40.368155 
L 102.312377 39.963575 
L 99.390312 39.574714 
L 96.645945 39.200608 
L 94.06595 38.840366 
L 91.637973 38.493165 
L 89.35059 38.158243 
L 87.193254 37.834896 
L 85.156243 37.52247 
L 83.2306 37.220364 
L 81.408079 36.928018 
L 79.681092 36.644916 
L 78.042658 36.370578 
L 76.486349 36.10456 
L 75.00625 35.846449 
" clip-path="url(#pfc1ac17b2e)" style="fill: none; stroke: #1f77b4; stroke-width: 1.5; stroke-linecap: square"/>
   </g>
   <g id="line2d_22">
    <path d="M 475.555233 199.163591 
L 475.517582 196.822514 
L 475.474584 194.481647 
L 475.425485 192.14102 
L 475.369421 189.800666 
L 475.30541 187.460624 
L 475.232333 185.120939 
L 475.148914 182.781661 
L 475.053701 180.442848 
L 474.945042 178.104565 
L 474.821058 175.766887 
L 474.679616 173.4299 
L 474.51829 171.0937 
L 474.334332 168.758399 
L 474.124624 166.424121 
L 473.885641 164.091011 
L 473.613397 161.759231 
L 473.303393 159.428965 
L 472.950565 157.100424 
L 472.54922 154.773845 
L 472.092976 152.449497 
L 471.574701 150.127684 
L 470.986449 147.808751 
L 470.319405 145.493083 
L 469.563829 143.181117 
L 468.709026 140.873341 
L 467.743319 138.570302 
L 466.654058 136.272611 
L 465.427659 133.980946 
L 464.049699 131.696059 
L 462.505055 129.418779 
L 460.778134 127.150015 
L 458.853187 124.890757 
L 456.71472 122.642078 
L 454.348039 120.405128 
L 451.638365 118.181207 
L 448.41654 115.972927 
L 444.943943 113.782085 
L 441.218117 111.609996 
L 437.241615 109.457973 
L 433.022788 107.327304 
L 428.576363 105.219216 
L 423.923624 103.134843 
L 419.092052 101.07519 
L 414.11424 99.041105 
L 409.025965 97.033259 
L 403.863353 95.052132 
L 398.65923 93.098024 
L 393.438891 91.17108 
L 388.215753 89.271345 
L 382.987483 87.398831 
L 377.733343 85.553611 
L 372.413424 83.735915 
L 366.970285 81.946229 
L 361.333122 80.185375 
L 355.424186 78.454564 
L 349.166677 76.755416 
L 342.493057 75.089927 
L 335.352579 73.460407 
L 327.717008 71.869373 
L 319.583821 70.319421 
L 310.976666 68.813094 
L 301.943265 67.352746 
L 292.551309 65.94043 
L 282.883097 64.577805 
L 273.029662 63.266075 
L 263.085057 62.00596 
L 253.141327 60.797694 
L 243.284451 59.641045 
L 233.591401 58.535354 
L 224.1283 57.479593 
L 214.94956 56.472415 
L 206.097825 55.512223 
L 197.604523 54.597227 
L 189.490837 53.7255 
L 181.768925 52.895028 
L 174.44325 52.103757 
L 167.511917 51.349623 
L 160.967941 50.630589 
L 154.800409 49.944663 
L 148.995493 49.289919 
L 143.537325 48.664509 
L 138.408719 48.06667 
L 133.591768 47.494732 
L 129.068308 46.947118 
L 124.820289 46.422346 
L 120.83004 45.919028 
L 117.080477 45.435865 
L 113.555236 44.971645 
L 110.238767 44.525243 
L 107.116379 44.095607 
L 104.174269 43.681764 
L 101.399512 43.282808 
L 98.780052 42.897899 
L 96.304667 42.526258 
L 93.962935 42.167161 
L 91.745188 41.819937 
L 89.642469 41.483965 
L 87.646484 41.158667 
L 85.749555 40.843506 
L 83.944578 40.537986 
" clip-path="url(#pfc1ac17b2e)" style="fill: none; stroke: #ff7f0e; stroke-width: 1.5; stroke-linecap: square"/>
   </g>
   <g id="line2d_23">
    <path d="M 475.566418 206.348131 
L 475.530356 204.006991 
L 475.489173 201.666053 
L 475.442144 199.325344 
L 475.388445 196.984898 
L 475.327132 194.64475 
L 475.257133 192.304944 
L 475.177226 189.965528 
L 475.08602 187.626557 
L 474.981929 185.288094 
L 474.863154 182.950211 
L 474.727648 180.612989 
L 474.573084 178.276522 
L 474.396827 175.940915 
L 474.195885 173.60629 
L 473.966874 171.272783 
L 473.705966 168.940551 
L 473.408843 166.60977 
L 473.070636 164.280642 
L 472.685873 161.953395 
L 472.248415 159.628287 
L 471.751398 157.305611 
L 471.187167 154.985695 
L 470.547223 152.668912 
L 469.822168 150.355681 
L 469.001667 148.046472 
L 468.074422 145.74181 
L 467.028175 143.442284 
L 465.849739 141.148547 
L 464.525076 138.861325 
L 463.039435 136.581417 
L 461.377552 134.309701 
L 459.523951 132.047137 
L 457.46333 129.794763 
L 455.181081 127.553697 
L 452.562155 125.325201 
L 449.436679 123.11186 
L 446.066144 120.91544 
L 442.447554 118.737226 
L 438.582789 116.578508 
L 434.479466 114.440553 
L 430.151599 112.324568 
L 425.619935 110.231673 
L 420.911769 108.162861 
L 416.060098 106.118969 
L 411.101926 104.100648 
L 406.075671 102.108353 
L 401.017676 100.142343 
L 395.958034 98.2027 
L 390.916097 96.289378 
L 385.896241 94.402266 
L 380.884604 92.541276 
L 375.847496 90.706444 
L 370.732108 88.898032 
L 365.46977 87.116623 
L 359.981659 85.363183 
L 354.186314 83.639103 
L 348.008014 81.946183 
L 341.384812 80.286589 
L 334.275132 78.662757 
L 326.66207 77.077276 
L 318.555009 75.532756 
L 309.988575 74.031692 
L 301.019368 72.576337 
L 291.721142 71.168604 
L 282.179173 69.80999 
L 272.484534 68.501527 
L 262.728824 67.243773 
L 252.999745 66.036813 
L 243.377707 64.880297 
L 233.933519 63.773478 
L 224.727081 62.715267 
L 215.806936 61.704296 
L 207.210494 60.738969 
L 198.964755 59.817527 
L 191.087343 58.938092 
L 183.587725 58.098717 
L 176.468471 57.297424 
L 169.726509 56.532238 
L 163.354283 55.80121 
L 157.340797 55.102443 
L 151.672532 54.4341 
L 146.334218 53.794423 
L 141.309474 53.181735 
L 136.581335 52.594446 
L 132.132661 52.031055 
L 127.946454 51.490152 
L 124.006103 50.970411 
L 120.295551 50.470594 
L 116.799419 49.989544 
L 113.503084 49.526183 
L 110.392718 49.079505 
L 107.455307 48.648577 
L 104.67865 48.232529 
L 102.051338 47.830553 
L 99.562728 47.4419 
L 97.202908 47.065874 
L 94.962657 46.701827 
L 92.833403 46.349159 
L 90.807177 46.007313 
L 88.876573 45.675771 
" clip-path="url(#pfc1ac17b2e)" style="fill: none; stroke: #2ca02c; stroke-width: 1.5; stroke-linecap: square"/>
   </g>
   <g id="line2d_24">
    <path d="M 475.568549 212.6974 
L 475.53279 210.356249 
L 475.491953 208.015297 
L 475.44532 205.674573 
L 475.392071 203.334108 
L 475.331274 200.993941 
L 475.261863 198.654111 
L 475.182627 196.314669 
L 475.092186 193.975668 
L 474.988969 191.637171 
L 474.87119 189.299248 
L 474.73682 186.961982 
L 474.583552 184.625464 
L 474.408771 182.289799 
L 474.209511 179.955107 
L 473.982416 177.621524 
L 473.72369 175.289205 
L 473.429049 172.958326 
L 473.093664 170.629085 
L 472.71211 168.30171 
L 472.278295 165.976456 
L 471.785412 163.653613 
L 471.225867 161.333509 
L 470.59123 159.016511 
L 469.872177 156.703035 
L 469.058455 154.393548 
L 468.138856 152.088571 
L 467.101218 149.788687 
L 465.932456 147.494545 
L 464.618643 145.206864 
L 463.145142 142.926437 
L 461.496811 140.654136 
L 459.658295 138.390912 
L 457.614419 136.137796 
L 455.350702 133.895894 
L 452.75218 131.666462 
L 449.648996 129.452074 
L 446.302868 127.254485 
L 442.710933 125.074969 
L 438.875222 122.914805 
L 434.803535 120.775244 
L 430.510124 118.657483 
L 426.01605 116.562624 
L 421.34904 114.491643 
L 416.542666 112.445356 
L 411.634704 110.424392 
L 406.664558 108.429178 
L 401.669793 106.459938 
L 396.681949 104.516716 
L 391.721997 102.599413 
L 386.796013 100.707863 
L 381.89176 98.841911 
L 376.976924 97.00152 
L 371.999595 95.186872 
L 366.891333 93.398464 
L 361.572703 91.637183 
L 355.960705 89.904341 
L 349.977156 88.201673 
L 343.556831 86.531294 
L 336.65426 84.895607 
L 329.24829 83.29719 
L 321.343989 81.738665 
L 312.971871 80.222559 
L 304.18487 78.751181 
L 295.053687 77.326513 
L 285.661272 75.950138 
L 276.09713 74.623185 
L 266.452035 73.346312 
L 256.813539 72.11971 
L 247.262488 70.94313 
L 237.870592 69.815927 
L 228.699009 68.737106 
L 219.797776 67.705385 
L 211.205942 66.719248 
L 202.9522 65.777005 
L 195.055856 64.87684 
L 187.527987 64.016858 
L 180.37268 63.195127 
L 173.58825 62.409708 
L 167.168388 61.658683 
L 161.103208 60.940177 
L 155.380157 60.252373 
L 149.984799 59.593527 
L 144.901464 58.961971 
L 140.113784 58.356122 
L 135.605115 57.774484 
L 131.358867 57.215645 
L 127.358756 56.678281 
L 123.588987 56.161151 
L 120.034383 55.663095 
L 116.680474 55.183029 
L 113.51354 54.719945 
L 110.520641 54.272902 
L 107.689617 53.841026 
L 105.009072 53.423502 
L 102.468354 53.019576 
L 100.057521 52.628544 
L 97.7673 52.249755 
L 95.589052 51.882603 
L 93.514723 51.526525 
L 91.536809 51.181 
" clip-path="url(#pfc1ac17b2e)" style="fill: none; stroke: #d62728; stroke-width: 1.5; stroke-linecap: square"/>
   </g>
   <g id="line2d_25">
    <path d="M 475.56875 218.79764 
L 475.533019 216.456488 
L 475.492215 214.115534 
L 475.445619 211.774809 
L 475.392414 209.434343 
L 475.331665 207.094173 
L 475.26231 204.754342 
L 475.183138 202.414897 
L 475.09277 200.075893 
L 474.989638 197.737392 
L 474.871955 195.399466 
L 474.737695 193.062195 
L 474.584553 190.725672 
L 474.409917 188.390002 
L 474.210823 186.055303 
L 473.983919 183.721713 
L 473.725411 181.389386 
L 473.431021 179.058497 
L 473.095926 176.729246 
L 472.714704 174.401858 
L 472.281274 172.07659 
L 471.788832 169.75373 
L 471.229799 167.433606 
L 470.595752 165.116586 
L 469.877384 162.803085 
L 469.064458 160.493569 
L 468.145783 158.188558 
L 467.109222 155.888635 
L 465.941718 153.594448 
L 464.629377 151.306715 
L 463.157603 149.026228 
L 461.511303 146.753858 
L 459.675181 144.490552 
L 457.634135 142.23734 
L 455.37377 139.995328 
L 452.77922 137.765765 
L 449.680737 135.551225 
L 446.340201 133.353456 
L 442.754923 131.173729 
L 438.927143 129.013315 
L 434.864907 126.87346 
L 430.58275 124.75535 
L 426.102062 122.660079 
L 421.450944 120.58861 
L 416.663387 118.541744 
L 411.777621 116.520095 
L 406.833542 114.524071 
L 401.869226 112.553873 
L 396.916719 110.609521 
L 391.997475 108.690892 
L 387.117993 106.797788 
L 382.266362 104.930024 
L 377.41045 103.087531 
L 372.498355 101.270457 
L 367.461428 99.479267 
L 362.219785 97.714817 
L 356.689732 95.978392 
L 350.79215 94.271705 
L 344.460676 92.596849 
L 337.648539 90.956217 
L 330.333186 89.352384 
L 322.518253 87.787973 
L 314.232862 86.265522 
L 305.528658 84.787355 
L 296.475209 83.355482 
L 287.15453 81.971511 
L 277.655412 80.636606 
L 268.068146 79.35146 
L 258.480027 78.116303 
L 248.97185 76.930926 
L 239.615459 75.794721 
L 230.472295 74.706732 
L 221.592799 73.665713 
L 213.016506 72.670181 
L 204.772651 71.718476 
L 196.881109 70.808812 
L 189.353535 69.939318 
L 182.194577 69.108084 
L 175.403088 68.313189 
L 168.973263 67.552734 
L 162.895679 66.824855 
L 157.158201 66.12775 
L 151.746766 65.459681 
L 146.646038 64.81899 
L 141.839936 64.2041 
L 137.312068 63.613517 
L 133.046058 63.045836 
L 129.025804 62.499734 
L 125.235665 61.973972 
L 121.660593 61.46739 
L 118.286218 60.978905 
L 115.098906 60.507508 
L 112.085782 60.052258 
L 109.234733 59.612279 
L 106.534398 59.186757 
L 103.974145 58.774935 
L 101.544036 58.376108 
L 99.234796 57.989624 
L 97.037766 57.614875 
L 94.944864 57.251298 
L 92.948542 56.89837 
" clip-path="url(#pfc1ac17b2e)" style="fill: none; stroke: #9467bd; stroke-width: 1.5; stroke-linecap: square"/>
   </g>
   <g id="line2d_26">
    <path d="M 475.568739 224.821801 
L 475.533007 222.480649 
L 475.492201 220.139696 
L 475.445603 217.79897 
L 475.392395 215.458504 
L 475.331644 213.118335 
L 475.262287 210.778504 
L 475.183112 208.439059 
L 475.092741 206.100055 
L 474.989605 203.761555 
L 474.871919 201.423629 
L 474.737655 199.086358 
L 474.584509 196.749835 
L 474.409869 194.414165 
L 474.210772 192.079467 
L 473.983864 189.745877 
L 473.725354 187.41355 
L 473.430962 185.082661 
L 473.095867 182.75341 
L 472.714648 180.426023 
L 472.281225 178.100755 
L 471.788797 175.777895 
L 471.229784 173.457772 
L 470.595769 171.140752 
L 469.877447 168.827251 
L 469.064585 166.517734 
L 468.146003 164.212722 
L 467.109569 161.912798 
L 465.942238 159.618609 
L 464.630131 157.330872 
L 463.158669 155.050381 
L 461.512785 152.778003 
L 459.677211 150.514689 
L 457.636885 148.261465 
L 455.377458 146.019435 
L 452.784123 143.789851 
L 449.6872 141.575281 
L 446.348657 139.377473 
L 442.765911 137.197696 
L 438.941325 135.037217 
L 434.883091 132.897278 
L 430.605913 130.779061 
L 426.131371 128.683653 
L 421.487778 126.612012 
L 416.709356 124.564932 
L 411.83458 122.543016 
L 406.903597 120.546661 
L 401.95473 118.57606 
L 397.020258 116.631216 
L 392.121841 114.711995 
L 387.266136 112.818182 
L 382.441335 110.949578 
L 377.615338 109.106096 
L 372.736185 107.28787 
L 367.73508 105.495349 
L 362.531891 103.729375 
L 357.042582 101.991218 
L 351.1876 100.282582 
L 344.900067 98.605552 
L 338.132636 96.962515 
L 330.862139 95.356042 
L 323.091581 93.78876 
L 314.849464 92.263208 
L 306.186849 90.78172 
L 297.172781 89.346313 
L 287.888825 87.958611 
L 278.423418 86.619791 
L 268.866594 85.330563 
L 259.305488 84.091175 
L 249.82083 82.901434 
L 240.484486 81.760752 
L 231.357991 80.668191 
L 222.491938 79.62252 
L 213.926065 78.622275 
L 205.689836 77.665811 
L 197.803377 76.751353 
L 190.278603 75.877046 
L 183.12042 75.04099 
L 176.327932 74.241274 
L 169.895572 73.476005 
L 163.814139 72.743331 
L 158.071703 72.041453 
L 152.654386 71.36864 
L 147.547016 70.723237 
L 142.73366 70.103671 
L 138.198053 69.508452 
L 133.923932 68.936176 
L 129.89529 68.385522 
L 126.096569 67.855252 
L 122.512789 67.344207 
L 119.129639 66.851305 
L 115.933532 66.375537 
L 112.911631 65.915961 
L 110.051851 65.471703 
L 107.342853 65.041946 
L 104.774018 64.625934 
L 102.335416 64.222962 
L 100.01777 63.832376 
L 97.812414 63.45357 
L 95.711251 63.085978 
L 93.706712 62.729079 
" clip-path="url(#pfc1ac17b2e)" style="fill: none; stroke: #8c564b; stroke-width: 1.5; stroke-linecap: square"/>
   </g>
   <g id="line2d_27">
    <path d="M 475.568732 230.809843 
L 475.532999 228.468691 
L 475.492192 226.127738 
L 475.445593 223.787012 
L 475.392383 221.446546 
L 475.331631 219.106377 
L 475.262272 216.766546 
L 475.183095 214.427101 
L 475.092722 212.088097 
L 474.989583 209.749597 
L 474.871895 207.411671 
L 474.737628 205.074401 
L 474.584479 202.737878 
L 474.409836 200.402208 
L 474.210735 198.06751 
L 473.983824 195.733921 
L 473.725311 193.401594 
L 473.430917 191.070705 
L 473.095821 188.741455 
L 472.714601 186.414067 
L 472.281179 184.088799 
L 471.788754 181.76594 
L 471.229749 179.445817 
L 470.595746 177.128797 
L 469.877444 174.815296 
L 469.064612 172.505779 
L 468.146073 170.200767 
L 467.109698 167.900842 
L 465.94245 165.606652 
L 464.630457 163.318915 
L 463.159151 161.038421 
L 461.513473 158.766041 
L 459.678174 156.502722 
L 457.63821 154.249491 
L 455.379259 152.007454 
L 452.786541 149.777859 
L 449.690414 147.563274 
L 446.352891 145.365447 
L 442.771443 143.185644 
L 438.948499 141.025133 
L 434.892324 138.885151 
L 430.617712 136.76688 
L 426.146341 134.671402 
L 421.506634 132.599674 
L 416.732933 130.552483 
L 411.86384 128.53043 
L 406.939631 126.533906 
L 401.998757 124.563096 
L 397.07362 122.618 
L 392.185982 120.698473 
L 387.342586 118.804295 
L 382.531676 116.935257 
L 377.721166 115.091264 
L 372.859072 113.272443 
L 367.876519 111.479234 
L 362.693253 109.712472 
L 357.225061 107.97342 
L 351.392169 106.263776 
L 345.127439 104.585621 
L 338.38323 102.941338 
L 331.136061 101.3335 
L 323.388613 99.764729 
L 315.169071 98.237571 
L 306.528197 96.754361 
L 297.534765 95.317122 
L 288.27011 93.927483 
L 278.822481 92.586629 
L 269.281778 91.295279 
L 259.735049 90.053689 
L 250.262987 88.861677 
L 240.937464 87.718662 
L 231.820058 86.623717 
L 222.961439 85.575618 
L 214.401441 84.572911 
L 206.169646 83.613958 
L 198.286306 82.696992 
L 190.763464 81.820164 
L 183.60616 80.981578 
L 176.813624 80.179331 
L 170.380412 79.411534 
L 164.297436 78.676338 
L 158.552869 77.971947 
L 153.13293 77.296633 
L 148.022532 76.648745 
L 143.205817 76.02671 
L 138.666586 75.429041 
L 134.388635 74.854334 
L 130.356008 74.301269 
L 126.553187 73.768609 
L 122.96523 73.255196 
L 119.577855 72.759948 
L 116.377502 72.281855 
L 113.35135 71.819978 
L 110.487333 71.373439 
L 107.774122 70.941424 
L 105.201104 70.523176 
L 102.758354 70.11799 
L 100.436592 69.725212 
L 98.227149 69.344233 
L 96.12192 68.974492 
L 94.113322 68.615464 
" clip-path="url(#pfc1ac17b2e)" style="fill: none; stroke: #e377c2; stroke-width: 1.5; stroke-linecap: square"/>
   </g>
   <g id="line2d_28">
    <path d="M 475.568728 236.775426 
L 475.532995 234.434274 
L 475.492187 232.093321 
L 475.445587 229.752596 
L 475.392377 227.41213 
L 475.331624 225.07196 
L 475.262264 222.732129 
L 475.183086 220.392684 
L 475.092712 218.053681 
L 474.989573 215.715181 
L 474.871883 213.377255 
L 474.737614 211.039984 
L 474.584464 208.703462 
L 474.409819 206.367792 
L 474.210717 204.033094 
L 473.983805 201.699504 
L 473.72529 199.367178 
L 473.430895 197.036289 
L 473.095798 194.707039 
L 472.714578 192.379652 
L 472.281157 190.054384 
L 471.788735 187.731525 
L 471.229733 185.411401 
L 470.595738 183.094382 
L 469.877446 180.780881 
L 469.06463 178.471364 
L 468.146113 176.166352 
L 467.10977 173.866427 
L 465.942566 171.572236 
L 464.630633 169.284498 
L 463.159406 167.004003 
L 461.513836 164.731621 
L 459.678681 162.4683 
L 457.638906 160.215066 
L 455.380201 157.973025 
L 452.787804 155.743424 
L 449.69209 153.528831 
L 446.355096 151.330995 
L 442.774321 149.151179 
L 438.952227 146.99065 
L 434.89712 144.850646 
L 430.623837 142.732346 
L 426.154108 140.636833 
L 421.516412 138.565059 
L 416.745155 136.517811 
L 411.879003 134.495687 
L 406.958299 132.499075 
L 402.021562 130.528157 
L 397.101255 128.58293 
L 392.219194 126.663245 
L 387.382167 124.768877 
L 382.578443 122.899615 
L 377.775947 121.055358 
L 372.922679 119.236229 
L 367.949727 117.442664 
L 362.776772 115.675494 
L 357.319512 113.935979 
L 351.49806 112.225812 
L 345.245143 110.547075 
L 338.51297 108.902148 
L 331.2779 107.293602 
L 323.542447 105.724061 
L 315.334635 104.196071 
L 306.705069 102.711968 
L 297.722386 101.273779 
L 288.467799 99.883136 
L 279.029464 98.541228 
L 269.497206 97.248777 
L 259.958031 96.006045 
L 250.492611 94.812854 
L 241.172818 93.668627 
L 232.060252 92.572442 
L 223.205622 91.523082 
L 214.64881 90.519094 
L 206.419457 89.558845 
L 198.537878 88.640573 
L 191.016185 87.762431 
L 183.859483 86.922527 
L 177.067067 86.118959 
L 170.633556 85.349842 
L 164.54992 84.613328 
L 158.804386 83.907624 
L 153.383222 83.231004 
L 148.271383 82.581815 
L 143.453052 81.958488 
L 138.912064 81.359535 
L 134.632243 80.783554 
L 130.59766 80.229225 
L 126.79282 79.695311 
L 123.202799 79.180655 
L 119.81333 78.684174 
L 116.610866 78.204861 
L 113.582596 77.741773 
L 110.716462 77.294035 
L 108.001141 76.860832 
L 105.426023 76.441406 
L 102.981184 76.035053 
L 100.657345 75.64112 
L 98.445833 75.258997 
L 96.338538 74.888121 
L 94.32787 74.52797 
" clip-path="url(#pfc1ac17b2e)" style="fill: none; stroke: #7f7f7f; stroke-width: 1.5; stroke-linecap: square"/>
   </g>
   <g id="patch_3">
    <path d="M 54.978125 246.821875 
L 54.978125 25.8 
" style="fill: none; stroke: #000000; stroke-width: 0.8; stroke-linejoin: miter; stroke-linecap: square"/>
   </g>
   <g id="patch_4">
    <path d="M 495.596875 246.821875 
L 495.596875 25.8 
" style="fill: none; stroke: #000000; stroke-width: 0.8; stroke-linejoin: miter; stroke-linecap: square"/>
   </g>
   <g id="patch_5">
    <path d="M 54.978125 246.821875 
L 495.596875 246.821875 
" style="fill: none; stroke: #000000; stroke-width: 0.8; stroke-linejoin: miter; stroke-linecap: square"/>
   </g>
   <g id="patch_6">
    <path d="M 54.978125 25.8 
L 495.596875 25.8 
" style="fill: none; stroke: #000000; stroke-width: 0.8; stroke-linejoin: miter; stroke-linecap: square"/>
   </g>
   <g id="text_13">
    <!-- NMOS_VTH, $V_{SB}=0.00$, $V_{DS}=0.50$ -->
    <g transform="translate(172.6875 19.8) scale(0.12 -0.12)">
     <defs>
      <path id="DejaVuSans-4e" d="M 628 4666 
L 1478 4666 
L 3547 763 
L 3547 4666 
L 4159 4666 
L 4159 0 
L 3309 0 
L 1241 3903 
L 1241 0 
L 628 0 
L 628 4666 
z
" transform="scale(0.015625)"/>
      <path id="DejaVuSans-4d" d="M 628 4666 
L 1569 4666 
L 2759 1491 
L 3956 4666 
L 4897 4666 
L 4897 0 
L 4281 0 
L 4281 4097 
L 3078 897 
L 2444 897 
L 1241 4097 
L 1241 0 
L 628 0 
L 628 4666 
z
" transform="scale(0.015625)"/>
      <path id="DejaVuSans-4f" d="M 2522 4238 
Q 1834 4238 1429 3725 
Q 1025 3213 1025 2328 
Q 1025 1447 1429 934 
Q 1834 422 2522 422 
Q 3209 422 3611 934 
Q 4013 1447 4013 2328 
Q 4013 3213 3611 3725 
Q 3209 4238 2522 4238 
z
M 2522 4750 
Q 3503 4750 4090 4092 
Q 4678 3434 4678 2328 
Q 4678 1225 4090 567 
Q 3503 -91 2522 -91 
Q 1538 -91 948 565 
Q 359 1222 359 2328 
Q 359 3434 948 4092 
Q 1538 4750 2522 4750 
z
" transform="scale(0.015625)"/>
      <path id="DejaVuSans-53" d="M 3425 4513 
L 3425 3897 
Q 3066 4069 2747 4153 
Q 2428 4238 2131 4238 
Q 1616 4238 1336 4038 
Q 1056 3838 1056 3469 
Q 1056 3159 1242 3001 
Q 1428 2844 1947 2747 
L 2328 2669 
Q 3034 2534 3370 2195 
Q 3706 1856 3706 1288 
Q 3706 609 3251 259 
Q 2797 -91 1919 -91 
Q 1588 -91 1214 -16 
Q 841 59 441 206 
L 441 856 
Q 825 641 1194 531 
Q 1563 422 1919 422 
Q 2459 422 2753 634 
Q 3047 847 3047 1241 
Q 3047 1584 2836 1778 
Q 2625 1972 2144 2069 
L 1759 2144 
Q 1053 2284 737 2584 
Q 422 2884 422 3419 
Q 422 4038 858 4394 
Q 1294 4750 2059 4750 
Q 2388 4750 2728 4690 
Q 3069 4631 3425 4513 
z
" transform="scale(0.015625)"/>
      <path id="DejaVuSans-5f" d="M 3263 -1063 
L 3263 -1509 
L -63 -1509 
L -63 -1063 
L 3263 -1063 
z
" transform="scale(0.015625)"/>
      <path id="DejaVuSans-56" d="M 1831 0 
L 50 4666 
L 709 4666 
L 2188 738 
L 3669 4666 
L 4325 4666 
L 2547 0 
L 1831 0 
z
" transform="scale(0.015625)"/>
      <path id="DejaVuSans-54" d="M -19 4666 
L 3928 4666 
L 3928 4134 
L 2272 4134 
L 2272 0 
L 1638 0 
L 1638 4134 
L -19 4134 
L -19 4666 
z
" transform="scale(0.015625)"/>
      <path id="DejaVuSans-48" d="M 628 4666 
L 1259 4666 
L 1259 2753 
L 3553 2753 
L 3553 4666 
L 4184 4666 
L 4184 0 
L 3553 0 
L 3553 2222 
L 1259 2222 
L 1259 0 
L 628 0 
L 628 4666 
z
" transform="scale(0.015625)"/>
      <path id="DejaVuSans-2c" d="M 750 794 
L 1409 794 
L 1409 256 
L 897 -744 
L 494 -744 
L 750 256 
L 750 794 
z
" transform="scale(0.015625)"/>
      <path id="DejaVuSans-20" transform="scale(0.015625)"/>
      <path id="DejaVuSans-Oblique-56" d="M 1319 0 
L 500 4666 
L 1119 4666 
L 1797 653 
L 4063 4666 
L 4750 4666 
L 2053 0 
L 1319 0 
z
" transform="scale(0.015625)"/>
      <path id="DejaVuSans-Oblique-42" d="M 1081 4666 
L 2694 4666 
Q 3350 4666 3675 4422 
Q 4000 4178 4000 3688 
Q 4000 3238 3720 2911 
Q 3441 2584 2988 2516 
Q 3375 2428 3569 2181 
Q 3763 1934 3763 1522 
Q 3763 819 3242 409 
Q 2722 0 1819 0 
L 172 0 
L 1081 4666 
z
M 1234 2228 
L 903 519 
L 1919 519 
Q 2491 519 2800 781 
Q 3109 1044 3109 1522 
Q 3109 1891 2904 2059 
Q 2700 2228 2247 2228 
L 1234 2228 
z
M 1606 4147 
L 1331 2741 
L 2272 2741 
Q 2775 2741 3058 2959 
Q 3341 3178 3341 3566 
Q 3341 3869 3150 4008 
Q 2959 4147 2541 4147 
L 1606 4147 
z
" transform="scale(0.015625)"/>
      <path id="DejaVuSans-3d" d="M 678 2906 
L 4684 2906 
L 4684 2381 
L 678 2381 
L 678 2906 
z
M 678 1631 
L 4684 1631 
L 4684 1100 
L 678 1100 
L 678 1631 
z
" transform="scale(0.015625)"/>
      <path id="DejaVuSans-2e" d="M 684 794 
L 1344 794 
L 1344 0 
L 684 0 
L 684 794 
z
" transform="scale(0.015625)"/>
     </defs>
     <use xlink:href="#DejaVuSans-4e" transform="translate(0 0.78125)"/>
     <use xlink:href="#DejaVuSans-4d" transform="translate(74.804688 0.78125)"/>
     <use xlink:href="#DejaVuSans-4f" transform="translate(161.083984 0.78125)"/>
     <use xlink:href="#DejaVuSans-53" transform="translate(239.794922 0.78125)"/>
     <use xlink:href="#DejaVuSans-5f" transform="translate(303.271484 0.78125)"/>
     <use xlink:href="#DejaVuSans-56" transform="translate(353.271484 0.78125)"/>
     <use xlink:href="#DejaVuSans-54" transform="translate(421.679688 0.78125)"/>
     <use xlink:href="#DejaVuSans-48" transform="translate(482.763672 0.78125)"/>
     <use xlink:href="#DejaVuSans-2c" transform="translate(557.958984 0.78125)"/>
     <use xlink:href="#DejaVuSans-20" transform="translate(589.746094 0.78125)"/>
     <use xlink:href="#DejaVuSans-Oblique-56" transform="translate(621.533203 0.78125)"/>
     <use xlink:href="#DejaVuSans-Oblique-53" transform="translate(689.941406 -15.625) scale(0.7)"/>
     <use xlink:href="#DejaVuSans-Oblique-42" transform="translate(734.375 -15.625) scale(0.7)"/>
     <use xlink:href="#DejaVuSans-3d" transform="translate(804.614258 0.78125)"/>
     <use xlink:href="#DejaVuSans-30" transform="translate(907.885742 0.78125)"/>
     <use xlink:href="#DejaVuSans-2e" transform="translate(971.508789 0.78125)"/>
     <use xlink:href="#DejaVuSans-30" transform="translate(1003.295898 0.78125)"/>
     <use xlink:href="#DejaVuSans-30" transform="translate(1066.918945 0.78125)"/>
     <use xlink:href="#DejaVuSans-2c" transform="translate(1130.541992 0.78125)"/>
     <use xlink:href="#DejaVuSans-20" transform="translate(1162.329102 0.78125)"/>
     <use xlink:href="#DejaVuSans-Oblique-56" transform="translate(1194.116211 0.78125)"/>
     <use xlink:href="#DejaVuSans-Oblique-44" transform="translate(1262.524414 -15.625) scale(0.7)"/>
     <use xlink:href="#DejaVuSans-Oblique-53" transform="translate(1316.425781 -15.625) scale(0.7)"/>
     <use xlink:href="#DejaVuSans-3d" transform="translate(1383.076172 0.78125)"/>
     <use xlink:href="#DejaVuSans-30" transform="translate(1486.347656 0.78125)"/>
     <use xlink:href="#DejaVuSans-2e" transform="translate(1549.970703 0.78125)"/>
     <use xlink:href="#DejaVuSans-35" transform="translate(1581.757812 0.78125)"/>
     <use xlink:href="#DejaVuSans-30" transform="translate(1645.380859 0.78125)"/>
    </g>
   </g>
   <g id="legend_1">
    <g id="patch_7">
     <path d="M 502.596875 196.523437 
L 563.2 196.523437 
Q 565.2 196.523437 565.2 194.523437 
L 565.2 78.098437 
Q 565.2 76.098437 563.2 76.098437 
L 502.596875 76.098437 
Q 500.596875 76.098437 500.596875 78.098437 
L 500.596875 194.523437 
Q 500.596875 196.523437 502.596875 196.523437 
z
" style="fill: #ffffff; opacity: 0.8; stroke: #cccccc; stroke-linejoin: miter"/>
    </g>
    <g id="line2d_29">
     <path d="M 504.596875 84.196875 
L 514.596875 84.196875 
L 524.596875 84.196875 
" style="fill: none; stroke: #1f77b4; stroke-width: 1.5; stroke-linecap: square"/>
    </g>
    <g id="text_14">
     <!-- 50 n -->
     <g transform="translate(532.596875 87.696875) scale(0.1 -0.1)">
      <defs>
       <path id="DejaVuSans-6e" d="M 3513 2113 
L 3513 0 
L 2938 0 
L 2938 2094 
Q 2938 2591 2744 2837 
Q 2550 3084 2163 3084 
Q 1697 3084 1428 2787 
Q 1159 2491 1159 1978 
L 1159 0 
L 581 0 
L 581 3500 
L 1159 3500 
L 1159 2956 
Q 1366 3272 1645 3428 
Q 1925 3584 2291 3584 
Q 2894 3584 3203 3211 
Q 3513 2838 3513 2113 
z
" transform="scale(0.015625)"/>
      </defs>
      <use xlink:href="#DejaVuSans-35"/>
      <use xlink:href="#DejaVuSans-30" x="63.623047"/>
      <use xlink:href="#DejaVuSans-20" x="127.246094"/>
      <use xlink:href="#DejaVuSans-6e" x="159.033203"/>
     </g>
    </g>
    <g id="line2d_30">
     <path d="M 504.596875 98.875 
L 514.596875 98.875 
L 524.596875 98.875 
" style="fill: none; stroke: #ff7f0e; stroke-width: 1.5; stroke-linecap: square"/>
    </g>
    <g id="text_15">
     <!-- 100 n -->
     <g transform="translate(532.596875 102.375) scale(0.1 -0.1)">
      <use xlink:href="#DejaVuSans-31"/>
      <use xlink:href="#DejaVuSans-30" x="63.623047"/>
      <use xlink:href="#DejaVuSans-30" x="127.246094"/>
      <use xlink:href="#DejaVuSans-20" x="190.869141"/>
      <use xlink:href="#DejaVuSans-6e" x="222.65625"/>
     </g>
    </g>
    <g id="line2d_31">
     <path d="M 504.596875 113.553125 
L 514.596875 113.553125 
L 524.596875 113.553125 
" style="fill: none; stroke: #2ca02c; stroke-width: 1.5; stroke-linecap: square"/>
    </g>
    <g id="text_16">
     <!-- 200 n -->
     <g transform="translate(532.596875 117.053125) scale(0.1 -0.1)">
      <use xlink:href="#DejaVuSans-32"/>
      <use xlink:href="#DejaVuSans-30" x="63.623047"/>
      <use xlink:href="#DejaVuSans-30" x="127.246094"/>
      <use xlink:href="#DejaVuSans-20" x="190.869141"/>
      <use xlink:href="#DejaVuSans-6e" x="222.65625"/>
     </g>
    </g>
    <g id="line2d_32">
     <path d="M 504.596875 128.23125 
L 514.596875 128.23125 
L 524.596875 128.23125 
" style="fill: none; stroke: #d62728; stroke-width: 1.5; stroke-linecap: square"/>
    </g>
    <g id="text_17">
     <!-- 400 n -->
     <g transform="translate(532.596875 131.73125) scale(0.1 -0.1)">
      <use xlink:href="#DejaVuSans-34"/>
      <use xlink:href="#DejaVuSans-30" x="63.623047"/>
      <use xlink:href="#DejaVuSans-30" x="127.246094"/>
      <use xlink:href="#DejaVuSans-20" x="190.869141"/>
      <use xlink:href="#DejaVuSans-6e" x="222.65625"/>
     </g>
    </g>
    <g id="line2d_33">
     <path d="M 504.596875 142.909375 
L 514.596875 142.909375 
L 524.596875 142.909375 
" style="fill: none; stroke: #9467bd; stroke-width: 1.5; stroke-linecap: square"/>
    </g>
    <g id="text_18">
     <!-- 800 n -->
     <g transform="translate(532.596875 146.409375) scale(0.1 -0.1)">
      <defs>
       <path id="DejaVuSans-38" d="M 2034 2216 
Q 1584 2216 1326 1975 
Q 1069 1734 1069 1313 
Q 1069 891 1326 650 
Q 1584 409 2034 409 
Q 2484 409 2743 651 
Q 3003 894 3003 1313 
Q 3003 1734 2745 1975 
Q 2488 2216 2034 2216 
z
M 1403 2484 
Q 997 2584 770 2862 
Q 544 3141 544 3541 
Q 544 4100 942 4425 
Q 1341 4750 2034 4750 
Q 2731 4750 3128 4425 
Q 3525 4100 3525 3541 
Q 3525 3141 3298 2862 
Q 3072 2584 2669 2484 
Q 3125 2378 3379 2068 
Q 3634 1759 3634 1313 
Q 3634 634 3220 271 
Q 2806 -91 2034 -91 
Q 1263 -91 848 271 
Q 434 634 434 1313 
Q 434 1759 690 2068 
Q 947 2378 1403 2484 
z
M 1172 3481 
Q 1172 3119 1398 2916 
Q 1625 2713 2034 2713 
Q 2441 2713 2670 2916 
Q 2900 3119 2900 3481 
Q 2900 3844 2670 4047 
Q 2441 4250 2034 4250 
Q 1625 4250 1398 4047 
Q 1172 3844 1172 3481 
z
" transform="scale(0.015625)"/>
      </defs>
      <use xlink:href="#DejaVuSans-38"/>
      <use xlink:href="#DejaVuSans-30" x="63.623047"/>
      <use xlink:href="#DejaVuSans-30" x="127.246094"/>
      <use xlink:href="#DejaVuSans-20" x="190.869141"/>
      <use xlink:href="#DejaVuSans-6e" x="222.65625"/>
     </g>
    </g>
    <g id="line2d_34">
     <path d="M 504.596875 157.5875 
L 514.596875 157.5875 
L 524.596875 157.5875 
" style="fill: none; stroke: #8c564b; stroke-width: 1.5; stroke-linecap: square"/>
    </g>
    <g id="text_19">
     <!-- 1.6  -->
     <g transform="translate(532.596875 161.0875) scale(0.1 -0.1)">
      <defs>
       <path id="DejaVuSans-b5" d="M 544 -1331 
L 544 3500 
L 1119 3500 
L 1119 1325 
Q 1119 872 1334 640 
Q 1550 409 1972 409 
Q 2434 409 2667 671 
Q 2900 934 2900 1459 
L 2900 3500 
L 3475 3500 
L 3475 806 
Q 3475 619 3529 530 
Q 3584 441 3700 441 
Q 3728 441 3778 458 
Q 3828 475 3916 513 
L 3916 50 
Q 3788 -22 3673 -56 
Q 3559 -91 3450 -91 
Q 3234 -91 3106 31 
Q 2978 153 2931 403 
Q 2775 156 2548 32 
Q 2322 -91 2016 -91 
Q 1697 -91 1473 31 
Q 1250 153 1119 397 
L 1119 -1331 
L 544 -1331 
z
" transform="scale(0.015625)"/>
      </defs>
      <use xlink:href="#DejaVuSans-31"/>
      <use xlink:href="#DejaVuSans-2e" x="63.623047"/>
      <use xlink:href="#DejaVuSans-36" x="95.410156"/>
      <use xlink:href="#DejaVuSans-20" x="159.033203"/>
      <use xlink:href="#DejaVuSans-b5" x="190.820312"/>
     </g>
    </g>
    <g id="line2d_35">
     <path d="M 504.596875 172.265625 
L 514.596875 172.265625 
L 524.596875 172.265625 
" style="fill: none; stroke: #e377c2; stroke-width: 1.5; stroke-linecap: square"/>
    </g>
    <g id="text_20">
     <!-- 3.2  -->
     <g transform="translate(532.596875 175.765625) scale(0.1 -0.1)">
      <defs>
       <path id="DejaVuSans-33" d="M 2597 2516 
Q 3050 2419 3304 2112 
Q 3559 1806 3559 1356 
Q 3559 666 3084 287 
Q 2609 -91 1734 -91 
Q 1441 -91 1130 -33 
Q 819 25 488 141 
L 488 750 
Q 750 597 1062 519 
Q 1375 441 1716 441 
Q 2309 441 2620 675 
Q 2931 909 2931 1356 
Q 2931 1769 2642 2001 
Q 2353 2234 1838 2234 
L 1294 2234 
L 1294 2753 
L 1863 2753 
Q 2328 2753 2575 2939 
Q 2822 3125 2822 3475 
Q 2822 3834 2567 4026 
Q 2313 4219 1838 4219 
Q 1578 4219 1281 4162 
Q 984 4106 628 3988 
L 628 4550 
Q 988 4650 1302 4700 
Q 1616 4750 1894 4750 
Q 2613 4750 3031 4423 
Q 3450 4097 3450 3541 
Q 3450 3153 3228 2886 
Q 3006 2619 2597 2516 
z
" transform="scale(0.015625)"/>
      </defs>
      <use xlink:href="#DejaVuSans-33"/>
      <use xlink:href="#DejaVuSans-2e" x="63.623047"/>
      <use xlink:href="#DejaVuSans-32" x="95.410156"/>
      <use xlink:href="#DejaVuSans-20" x="159.033203"/>
      <use xlink:href="#DejaVuSans-b5" x="190.820312"/>
     </g>
    </g>
    <g id="line2d_36">
     <path d="M 504.596875 186.94375 
L 514.596875 186.94375 
L 524.596875 186.94375 
" style="fill: none; stroke: #7f7f7f; stroke-width: 1.5; stroke-linecap: square"/>
    </g>
    <g id="text_21">
     <!-- 6.4  -->
     <g transform="translate(532.596875 190.44375) scale(0.1 -0.1)">
      <use xlink:href="#DejaVuSans-36"/>
      <use xlink:href="#DejaVuSans-2e" x="63.623047"/>
      <use xlink:href="#DejaVuSans-34" x="95.410156"/>
      <use xlink:href="#DejaVuSans-20" x="159.033203"/>
      <use xlink:href="#DejaVuSans-b5" x="190.820312"/>
     </g>
    </g>
   </g>
  </g>
 </g>
 <defs>
  <clipPath id="pfc1ac17b2e">
   <rect x="54.978125" y="25.8" width="440.61875" height="221.021875"/>
  </clipPath>
 </defs>
</svg>
