<?xml version="1.0" encoding="utf-8" standalone="no"?>
<!DOCTYPE svg PUBLIC "-//W3C//DTD SVG 1.1//EN"
  "http://www.w3.org/Graphics/SVG/1.1/DTD/svg11.dtd">
<svg xmlns:xlink="http://www.w3.org/1999/xlink" width="552.96pt" height="264.96pt" viewBox="0 0 552.96 264.96" xmlns="http://www.w3.org/2000/svg" version="1.1">
 <metadata>
  <rdf:RDF xmlns:dc="http://purl.org/dc/elements/1.1/" xmlns:cc="http://creativecommons.org/ns#" xmlns:rdf="http://www.w3.org/1999/02/22-rdf-syntax-ns#">
   <cc:Work>
    <dc:type rdf:resource="http://purl.org/dc/dcmitype/StillImage"/>
    <dc:date>2023-11-02T13:37:45.239585</dc:date>
    <dc:format>image/svg+xml</dc:format>
    <dc:creator>
     <cc:Agent>
      <dc:title>Matplotlib v3.8.0, https://matplotlib.org/</dc:title>
     </cc:Agent>
    </dc:creator>
   </cc:Work>
  </rdf:RDF>
 </metadata>
 <defs>
  <style type="text/css">*{stroke-linejoin: round; stroke-linecap: butt}</style>
 </defs>
 <g id="figure_1">
  <g id="patch_1">
   <path d="M 0 264.96 
L 552.96 264.96 
L 552.96 0 
L 0 0 
L 0 264.96 
z
" style="fill: none"/>
  </g>
  <g id="axes_1">
   <g id="patch_2">
    <path d="M 51.526495 227.514399 
L 459.916163 227.514399 
L 459.916163 21.223055 
L 51.526495 21.223055 
L 51.526495 227.514399 
z
" style="fill: none"/>
   </g>
   <g id="matplotlib.axis_1">
    <g id="xtick_1">
     <g id="line2d_1">
      <path d="M 102.638912 227.514399 
L 102.638912 21.223055 
" clip-path="url(#p4579b9f7b5)" style="fill: none; stroke-dasharray: 1.85,0.8; stroke-dashoffset: 0; stroke: #e6e6e6; stroke-width: 0.5"/>
     </g>
     <g id="line2d_2">
      <defs>
       <path id="m73c834dddf" d="M 0 0 
L 0 -3 
" style="stroke: #000000; stroke-width: 0.5"/>
      </defs>
      <g>
       <use xlink:href="#m73c834dddf" x="102.638912" y="227.514399" style="stroke: #000000; stroke-width: 0.5"/>
      </g>
     </g>
     <g id="line2d_3">
      <defs>
       <path id="m9cc0f9ad67" d="M 0 0 
L 0 3 
" style="stroke: #000000; stroke-width: 0.5"/>
      </defs>
      <g>
       <use xlink:href="#m9cc0f9ad67" x="102.638912" y="21.223055" style="stroke: #000000; stroke-width: 0.5"/>
      </g>
     </g>
     <g id="text_1">
      <!-- $\mathdefault{5}$ -->
      <g transform="translate(99.224668 240.700275) scale(0.14 -0.14)">
       <defs>
        <path id="CMR17-35" d="M 730 3692 
C 794 3666 1056 3584 1325 3584 
C 1920 3584 2246 3911 2432 4100 
C 2432 4157 2432 4192 2394 4192 
C 2387 4192 2374 4192 2323 4163 
C 2099 4058 1837 3973 1517 3973 
C 1325 3973 1037 3999 723 4139 
C 653 4171 640 4171 634 4171 
C 602 4171 595 4164 595 4037 
L 595 2203 
C 595 2089 595 2057 659 2057 
C 691 2057 704 2070 736 2114 
C 941 2401 1222 2522 1542 2522 
C 1766 2522 2246 2382 2246 1289 
C 2246 1085 2246 715 2054 421 
C 1894 159 1645 25 1370 25 
C 947 25 518 320 403 814 
C 429 807 480 795 506 795 
C 589 795 749 840 749 1038 
C 749 1210 627 1280 506 1280 
C 358 1280 262 1190 262 1011 
C 262 454 704 -128 1382 -128 
C 2042 -128 2669 440 2669 1264 
C 2669 2030 2170 2624 1549 2624 
C 1222 2624 947 2503 730 2274 
L 730 3692 
z
" transform="scale(0.015625)"/>
       </defs>
       <use xlink:href="#CMR17-35" transform="scale(0.996264)"/>
      </g>
     </g>
    </g>
    <g id="xtick_2">
     <g id="line2d_4">
      <path d="M 178.452262 227.514399 
L 178.452262 21.223055 
" clip-path="url(#p4579b9f7b5)" style="fill: none; stroke-dasharray: 1.85,0.8; stroke-dashoffset: 0; stroke: #e6e6e6; stroke-width: 0.5"/>
     </g>
     <g id="line2d_5">
      <g>
       <use xlink:href="#m73c834dddf" x="178.452262" y="227.514399" style="stroke: #000000; stroke-width: 0.5"/>
      </g>
     </g>
     <g id="line2d_6">
      <g>
       <use xlink:href="#m9cc0f9ad67" x="178.452262" y="21.223055" style="stroke: #000000; stroke-width: 0.5"/>
      </g>
     </g>
     <g id="text_2">
      <!-- $\mathdefault{10}$ -->
      <g transform="translate(171.623773 240.700275) scale(0.14 -0.14)">
       <defs>
        <path id="CMR17-31" d="M 1702 4058 
C 1702 4192 1696 4192 1606 4192 
C 1357 3916 979 3827 621 3827 
C 602 3827 570 3827 563 3808 
C 557 3795 557 3782 557 3648 
C 755 3648 1088 3686 1344 3839 
L 1344 461 
C 1344 236 1331 160 781 160 
L 589 160 
L 589 0 
C 896 0 1216 0 1523 0 
C 1830 0 2150 0 2458 0 
L 2458 160 
L 2266 160 
C 1715 160 1702 230 1702 458 
L 1702 4058 
z
" transform="scale(0.015625)"/>
        <path id="CMR17-30" d="M 2688 2025 
C 2688 2416 2682 3080 2413 3591 
C 2176 4039 1798 4198 1466 4198 
C 1158 4198 768 4058 525 3597 
C 269 3118 243 2524 243 2025 
C 243 1661 250 1106 448 619 
C 723 -39 1216 -128 1466 -128 
C 1760 -128 2208 -7 2470 600 
C 2662 1042 2688 1559 2688 2025 
z
M 1466 -26 
C 1056 -26 813 325 723 812 
C 653 1188 653 1738 653 2096 
C 653 2588 653 2997 736 3387 
C 858 3929 1216 4096 1466 4096 
C 1728 4096 2067 3923 2189 3400 
C 2272 3036 2278 2607 2278 2096 
C 2278 1680 2278 1169 2202 792 
C 2067 95 1690 -26 1466 -26 
z
" transform="scale(0.015625)"/>
       </defs>
       <use xlink:href="#CMR17-31" transform="scale(0.996264)"/>
       <use xlink:href="#CMR17-30" transform="translate(45.690477 0) scale(0.996264)"/>
      </g>
     </g>
    </g>
    <g id="xtick_3">
     <g id="line2d_7">
      <path d="M 254.265612 227.514399 
L 254.265612 21.223055 
" clip-path="url(#p4579b9f7b5)" style="fill: none; stroke-dasharray: 1.85,0.8; stroke-dashoffset: 0; stroke: #e6e6e6; stroke-width: 0.5"/>
     </g>
     <g id="line2d_8">
      <g>
       <use xlink:href="#m73c834dddf" x="254.265612" y="227.514399" style="stroke: #000000; stroke-width: 0.5"/>
      </g>
     </g>
     <g id="line2d_9">
      <g>
       <use xlink:href="#m9cc0f9ad67" x="254.265612" y="21.223055" style="stroke: #000000; stroke-width: 0.5"/>
      </g>
     </g>
     <g id="text_3">
      <!-- $\mathdefault{15}$ -->
      <g transform="translate(247.437124 240.700275) scale(0.14 -0.14)">
       <use xlink:href="#CMR17-31" transform="scale(0.996264)"/>
       <use xlink:href="#CMR17-35" transform="translate(45.690477 0) scale(0.996264)"/>
      </g>
     </g>
    </g>
    <g id="xtick_4">
     <g id="line2d_10">
      <path d="M 330.078962 227.514399 
L 330.078962 21.223055 
" clip-path="url(#p4579b9f7b5)" style="fill: none; stroke-dasharray: 1.85,0.8; stroke-dashoffset: 0; stroke: #e6e6e6; stroke-width: 0.5"/>
     </g>
     <g id="line2d_11">
      <g>
       <use xlink:href="#m73c834dddf" x="330.078962" y="227.514399" style="stroke: #000000; stroke-width: 0.5"/>
      </g>
     </g>
     <g id="line2d_12">
      <g>
       <use xlink:href="#m9cc0f9ad67" x="330.078962" y="21.223055" style="stroke: #000000; stroke-width: 0.5"/>
      </g>
     </g>
     <g id="text_4">
      <!-- $\mathdefault{20}$ -->
      <g transform="translate(323.250474 240.700275) scale(0.14 -0.14)">
       <defs>
        <path id="CMR17-32" d="M 2669 989 
L 2554 989 
C 2490 536 2438 459 2413 420 
C 2381 369 1920 369 1830 369 
L 602 369 
C 832 619 1280 1072 1824 1597 
C 2214 1967 2669 2402 2669 3035 
C 2669 3790 2067 4224 1395 4224 
C 691 4224 262 3604 262 3030 
C 262 2780 448 2748 525 2748 
C 589 2748 781 2787 781 3010 
C 781 3207 614 3264 525 3264 
C 486 3264 448 3258 422 3245 
C 544 3790 915 4058 1306 4058 
C 1862 4058 2227 3617 2227 3035 
C 2227 2479 1901 2000 1536 1584 
L 262 146 
L 262 0 
L 2515 0 
L 2669 989 
z
" transform="scale(0.015625)"/>
       </defs>
       <use xlink:href="#CMR17-32" transform="scale(0.996264)"/>
       <use xlink:href="#CMR17-30" transform="translate(45.690477 0) scale(0.996264)"/>
      </g>
     </g>
    </g>
    <g id="xtick_5">
     <g id="line2d_13">
      <path d="M 405.892312 227.514399 
L 405.892312 21.223055 
" clip-path="url(#p4579b9f7b5)" style="fill: none; stroke-dasharray: 1.85,0.8; stroke-dashoffset: 0; stroke: #e6e6e6; stroke-width: 0.5"/>
     </g>
     <g id="line2d_14">
      <g>
       <use xlink:href="#m73c834dddf" x="405.892312" y="227.514399" style="stroke: #000000; stroke-width: 0.5"/>
      </g>
     </g>
     <g id="line2d_15">
      <g>
       <use xlink:href="#m9cc0f9ad67" x="405.892312" y="21.223055" style="stroke: #000000; stroke-width: 0.5"/>
      </g>
     </g>
     <g id="text_5">
      <!-- $\mathdefault{25}$ -->
      <g transform="translate(399.063824 240.700275) scale(0.14 -0.14)">
       <use xlink:href="#CMR17-32" transform="scale(0.996264)"/>
       <use xlink:href="#CMR17-35" transform="translate(45.690477 0) scale(0.996264)"/>
      </g>
     </g>
    </g>
    <g id="xtick_6">
     <g id="line2d_16">
      <path d="M 57.150902 227.514399 
L 57.150902 21.223055 
" clip-path="url(#p4579b9f7b5)" style="fill: none; stroke-dasharray: 1.85,0.8; stroke-dashoffset: 0; stroke: #e6e6e6; stroke-width: 0.5"/>
     </g>
     <g id="line2d_17">
      <defs>
       <path id="m8f924f8cfc" d="M 0 0 
L 0 -1.5 
" style="stroke: #000000; stroke-width: 0.5"/>
      </defs>
      <g>
       <use xlink:href="#m8f924f8cfc" x="57.150902" y="227.514399" style="stroke: #000000; stroke-width: 0.5"/>
      </g>
     </g>
     <g id="line2d_18">
      <defs>
       <path id="m91c3d2ba62" d="M 0 0 
L 0 1.5 
" style="stroke: #000000; stroke-width: 0.5"/>
      </defs>
      <g>
       <use xlink:href="#m91c3d2ba62" x="57.150902" y="21.223055" style="stroke: #000000; stroke-width: 0.5"/>
      </g>
     </g>
    </g>
    <g id="xtick_7">
     <g id="line2d_19">
      <path d="M 72.313572 227.514399 
L 72.313572 21.223055 
" clip-path="url(#p4579b9f7b5)" style="fill: none; stroke-dasharray: 1.85,0.8; stroke-dashoffset: 0; stroke: #e6e6e6; stroke-width: 0.5"/>
     </g>
     <g id="line2d_20">
      <g>
       <use xlink:href="#m8f924f8cfc" x="72.313572" y="227.514399" style="stroke: #000000; stroke-width: 0.5"/>
      </g>
     </g>
     <g id="line2d_21">
      <g>
       <use xlink:href="#m91c3d2ba62" x="72.313572" y="21.223055" style="stroke: #000000; stroke-width: 0.5"/>
      </g>
     </g>
    </g>
    <g id="xtick_8">
     <g id="line2d_22">
      <path d="M 87.476242 227.514399 
L 87.476242 21.223055 
" clip-path="url(#p4579b9f7b5)" style="fill: none; stroke-dasharray: 1.85,0.8; stroke-dashoffset: 0; stroke: #e6e6e6; stroke-width: 0.5"/>
     </g>
     <g id="line2d_23">
      <g>
       <use xlink:href="#m8f924f8cfc" x="87.476242" y="227.514399" style="stroke: #000000; stroke-width: 0.5"/>
      </g>
     </g>
     <g id="line2d_24">
      <g>
       <use xlink:href="#m91c3d2ba62" x="87.476242" y="21.223055" style="stroke: #000000; stroke-width: 0.5"/>
      </g>
     </g>
    </g>
    <g id="xtick_9">
     <g id="line2d_25">
      <path d="M 117.801582 227.514399 
L 117.801582 21.223055 
" clip-path="url(#p4579b9f7b5)" style="fill: none; stroke-dasharray: 1.85,0.8; stroke-dashoffset: 0; stroke: #e6e6e6; stroke-width: 0.5"/>
     </g>
     <g id="line2d_26">
      <g>
       <use xlink:href="#m8f924f8cfc" x="117.801582" y="227.514399" style="stroke: #000000; stroke-width: 0.5"/>
      </g>
     </g>
     <g id="line2d_27">
      <g>
       <use xlink:href="#m91c3d2ba62" x="117.801582" y="21.223055" style="stroke: #000000; stroke-width: 0.5"/>
      </g>
     </g>
    </g>
    <g id="xtick_10">
     <g id="line2d_28">
      <path d="M 132.964252 227.514399 
L 132.964252 21.223055 
" clip-path="url(#p4579b9f7b5)" style="fill: none; stroke-dasharray: 1.85,0.8; stroke-dashoffset: 0; stroke: #e6e6e6; stroke-width: 0.5"/>
     </g>
     <g id="line2d_29">
      <g>
       <use xlink:href="#m8f924f8cfc" x="132.964252" y="227.514399" style="stroke: #000000; stroke-width: 0.5"/>
      </g>
     </g>
     <g id="line2d_30">
      <g>
       <use xlink:href="#m91c3d2ba62" x="132.964252" y="21.223055" style="stroke: #000000; stroke-width: 0.5"/>
      </g>
     </g>
    </g>
    <g id="xtick_11">
     <g id="line2d_31">
      <path d="M 148.126922 227.514399 
L 148.126922 21.223055 
" clip-path="url(#p4579b9f7b5)" style="fill: none; stroke-dasharray: 1.85,0.8; stroke-dashoffset: 0; stroke: #e6e6e6; stroke-width: 0.5"/>
     </g>
     <g id="line2d_32">
      <g>
       <use xlink:href="#m8f924f8cfc" x="148.126922" y="227.514399" style="stroke: #000000; stroke-width: 0.5"/>
      </g>
     </g>
     <g id="line2d_33">
      <g>
       <use xlink:href="#m91c3d2ba62" x="148.126922" y="21.223055" style="stroke: #000000; stroke-width: 0.5"/>
      </g>
     </g>
    </g>
    <g id="xtick_12">
     <g id="line2d_34">
      <path d="M 163.289592 227.514399 
L 163.289592 21.223055 
" clip-path="url(#p4579b9f7b5)" style="fill: none; stroke-dasharray: 1.85,0.8; stroke-dashoffset: 0; stroke: #e6e6e6; stroke-width: 0.5"/>
     </g>
     <g id="line2d_35">
      <g>
       <use xlink:href="#m8f924f8cfc" x="163.289592" y="227.514399" style="stroke: #000000; stroke-width: 0.5"/>
      </g>
     </g>
     <g id="line2d_36">
      <g>
       <use xlink:href="#m91c3d2ba62" x="163.289592" y="21.223055" style="stroke: #000000; stroke-width: 0.5"/>
      </g>
     </g>
    </g>
    <g id="xtick_13">
     <g id="line2d_37">
      <path d="M 193.614932 227.514399 
L 193.614932 21.223055 
" clip-path="url(#p4579b9f7b5)" style="fill: none; stroke-dasharray: 1.85,0.8; stroke-dashoffset: 0; stroke: #e6e6e6; stroke-width: 0.5"/>
     </g>
     <g id="line2d_38">
      <g>
       <use xlink:href="#m8f924f8cfc" x="193.614932" y="227.514399" style="stroke: #000000; stroke-width: 0.5"/>
      </g>
     </g>
     <g id="line2d_39">
      <g>
       <use xlink:href="#m91c3d2ba62" x="193.614932" y="21.223055" style="stroke: #000000; stroke-width: 0.5"/>
      </g>
     </g>
    </g>
    <g id="xtick_14">
     <g id="line2d_40">
      <path d="M 208.777602 227.514399 
L 208.777602 21.223055 
" clip-path="url(#p4579b9f7b5)" style="fill: none; stroke-dasharray: 1.85,0.8; stroke-dashoffset: 0; stroke: #e6e6e6; stroke-width: 0.5"/>
     </g>
     <g id="line2d_41">
      <g>
       <use xlink:href="#m8f924f8cfc" x="208.777602" y="227.514399" style="stroke: #000000; stroke-width: 0.5"/>
      </g>
     </g>
     <g id="line2d_42">
      <g>
       <use xlink:href="#m91c3d2ba62" x="208.777602" y="21.223055" style="stroke: #000000; stroke-width: 0.5"/>
      </g>
     </g>
    </g>
    <g id="xtick_15">
     <g id="line2d_43">
      <path d="M 223.940272 227.514399 
L 223.940272 21.223055 
" clip-path="url(#p4579b9f7b5)" style="fill: none; stroke-dasharray: 1.85,0.8; stroke-dashoffset: 0; stroke: #e6e6e6; stroke-width: 0.5"/>
     </g>
     <g id="line2d_44">
      <g>
       <use xlink:href="#m8f924f8cfc" x="223.940272" y="227.514399" style="stroke: #000000; stroke-width: 0.5"/>
      </g>
     </g>
     <g id="line2d_45">
      <g>
       <use xlink:href="#m91c3d2ba62" x="223.940272" y="21.223055" style="stroke: #000000; stroke-width: 0.5"/>
      </g>
     </g>
    </g>
    <g id="xtick_16">
     <g id="line2d_46">
      <path d="M 239.102942 227.514399 
L 239.102942 21.223055 
" clip-path="url(#p4579b9f7b5)" style="fill: none; stroke-dasharray: 1.85,0.8; stroke-dashoffset: 0; stroke: #e6e6e6; stroke-width: 0.5"/>
     </g>
     <g id="line2d_47">
      <g>
       <use xlink:href="#m8f924f8cfc" x="239.102942" y="227.514399" style="stroke: #000000; stroke-width: 0.5"/>
      </g>
     </g>
     <g id="line2d_48">
      <g>
       <use xlink:href="#m91c3d2ba62" x="239.102942" y="21.223055" style="stroke: #000000; stroke-width: 0.5"/>
      </g>
     </g>
    </g>
    <g id="xtick_17">
     <g id="line2d_49">
      <path d="M 269.428282 227.514399 
L 269.428282 21.223055 
" clip-path="url(#p4579b9f7b5)" style="fill: none; stroke-dasharray: 1.85,0.8; stroke-dashoffset: 0; stroke: #e6e6e6; stroke-width: 0.5"/>
     </g>
     <g id="line2d_50">
      <g>
       <use xlink:href="#m8f924f8cfc" x="269.428282" y="227.514399" style="stroke: #000000; stroke-width: 0.5"/>
      </g>
     </g>
     <g id="line2d_51">
      <g>
       <use xlink:href="#m91c3d2ba62" x="269.428282" y="21.223055" style="stroke: #000000; stroke-width: 0.5"/>
      </g>
     </g>
    </g>
    <g id="xtick_18">
     <g id="line2d_52">
      <path d="M 284.590952 227.514399 
L 284.590952 21.223055 
" clip-path="url(#p4579b9f7b5)" style="fill: none; stroke-dasharray: 1.85,0.8; stroke-dashoffset: 0; stroke: #e6e6e6; stroke-width: 0.5"/>
     </g>
     <g id="line2d_53">
      <g>
       <use xlink:href="#m8f924f8cfc" x="284.590952" y="227.514399" style="stroke: #000000; stroke-width: 0.5"/>
      </g>
     </g>
     <g id="line2d_54">
      <g>
       <use xlink:href="#m91c3d2ba62" x="284.590952" y="21.223055" style="stroke: #000000; stroke-width: 0.5"/>
      </g>
     </g>
    </g>
    <g id="xtick_19">
     <g id="line2d_55">
      <path d="M 299.753622 227.514399 
L 299.753622 21.223055 
" clip-path="url(#p4579b9f7b5)" style="fill: none; stroke-dasharray: 1.85,0.8; stroke-dashoffset: 0; stroke: #e6e6e6; stroke-width: 0.5"/>
     </g>
     <g id="line2d_56">
      <g>
       <use xlink:href="#m8f924f8cfc" x="299.753622" y="227.514399" style="stroke: #000000; stroke-width: 0.5"/>
      </g>
     </g>
     <g id="line2d_57">
      <g>
       <use xlink:href="#m91c3d2ba62" x="299.753622" y="21.223055" style="stroke: #000000; stroke-width: 0.5"/>
      </g>
     </g>
    </g>
    <g id="xtick_20">
     <g id="line2d_58">
      <path d="M 314.916292 227.514399 
L 314.916292 21.223055 
" clip-path="url(#p4579b9f7b5)" style="fill: none; stroke-dasharray: 1.85,0.8; stroke-dashoffset: 0; stroke: #e6e6e6; stroke-width: 0.5"/>
     </g>
     <g id="line2d_59">
      <g>
       <use xlink:href="#m8f924f8cfc" x="314.916292" y="227.514399" style="stroke: #000000; stroke-width: 0.5"/>
      </g>
     </g>
     <g id="line2d_60">
      <g>
       <use xlink:href="#m91c3d2ba62" x="314.916292" y="21.223055" style="stroke: #000000; stroke-width: 0.5"/>
      </g>
     </g>
    </g>
    <g id="xtick_21">
     <g id="line2d_61">
      <path d="M 345.241632 227.514399 
L 345.241632 21.223055 
" clip-path="url(#p4579b9f7b5)" style="fill: none; stroke-dasharray: 1.85,0.8; stroke-dashoffset: 0; stroke: #e6e6e6; stroke-width: 0.5"/>
     </g>
     <g id="line2d_62">
      <g>
       <use xlink:href="#m8f924f8cfc" x="345.241632" y="227.514399" style="stroke: #000000; stroke-width: 0.5"/>
      </g>
     </g>
     <g id="line2d_63">
      <g>
       <use xlink:href="#m91c3d2ba62" x="345.241632" y="21.223055" style="stroke: #000000; stroke-width: 0.5"/>
      </g>
     </g>
    </g>
    <g id="xtick_22">
     <g id="line2d_64">
      <path d="M 360.404302 227.514399 
L 360.404302 21.223055 
" clip-path="url(#p4579b9f7b5)" style="fill: none; stroke-dasharray: 1.85,0.8; stroke-dashoffset: 0; stroke: #e6e6e6; stroke-width: 0.5"/>
     </g>
     <g id="line2d_65">
      <g>
       <use xlink:href="#m8f924f8cfc" x="360.404302" y="227.514399" style="stroke: #000000; stroke-width: 0.5"/>
      </g>
     </g>
     <g id="line2d_66">
      <g>
       <use xlink:href="#m91c3d2ba62" x="360.404302" y="21.223055" style="stroke: #000000; stroke-width: 0.5"/>
      </g>
     </g>
    </g>
    <g id="xtick_23">
     <g id="line2d_67">
      <path d="M 375.566972 227.514399 
L 375.566972 21.223055 
" clip-path="url(#p4579b9f7b5)" style="fill: none; stroke-dasharray: 1.85,0.8; stroke-dashoffset: 0; stroke: #e6e6e6; stroke-width: 0.5"/>
     </g>
     <g id="line2d_68">
      <g>
       <use xlink:href="#m8f924f8cfc" x="375.566972" y="227.514399" style="stroke: #000000; stroke-width: 0.5"/>
      </g>
     </g>
     <g id="line2d_69">
      <g>
       <use xlink:href="#m91c3d2ba62" x="375.566972" y="21.223055" style="stroke: #000000; stroke-width: 0.5"/>
      </g>
     </g>
    </g>
    <g id="xtick_24">
     <g id="line2d_70">
      <path d="M 390.729642 227.514399 
L 390.729642 21.223055 
" clip-path="url(#p4579b9f7b5)" style="fill: none; stroke-dasharray: 1.85,0.8; stroke-dashoffset: 0; stroke: #e6e6e6; stroke-width: 0.5"/>
     </g>
     <g id="line2d_71">
      <g>
       <use xlink:href="#m8f924f8cfc" x="390.729642" y="227.514399" style="stroke: #000000; stroke-width: 0.5"/>
      </g>
     </g>
     <g id="line2d_72">
      <g>
       <use xlink:href="#m91c3d2ba62" x="390.729642" y="21.223055" style="stroke: #000000; stroke-width: 0.5"/>
      </g>
     </g>
    </g>
    <g id="xtick_25">
     <g id="line2d_73">
      <path d="M 421.054982 227.514399 
L 421.054982 21.223055 
" clip-path="url(#p4579b9f7b5)" style="fill: none; stroke-dasharray: 1.85,0.8; stroke-dashoffset: 0; stroke: #e6e6e6; stroke-width: 0.5"/>
     </g>
     <g id="line2d_74">
      <g>
       <use xlink:href="#m8f924f8cfc" x="421.054982" y="227.514399" style="stroke: #000000; stroke-width: 0.5"/>
      </g>
     </g>
     <g id="line2d_75">
      <g>
       <use xlink:href="#m91c3d2ba62" x="421.054982" y="21.223055" style="stroke: #000000; stroke-width: 0.5"/>
      </g>
     </g>
    </g>
    <g id="xtick_26">
     <g id="line2d_76">
      <path d="M 436.217652 227.514399 
L 436.217652 21.223055 
" clip-path="url(#p4579b9f7b5)" style="fill: none; stroke-dasharray: 1.85,0.8; stroke-dashoffset: 0; stroke: #e6e6e6; stroke-width: 0.5"/>
     </g>
     <g id="line2d_77">
      <g>
       <use xlink:href="#m8f924f8cfc" x="436.217652" y="227.514399" style="stroke: #000000; stroke-width: 0.5"/>
      </g>
     </g>
     <g id="line2d_78">
      <g>
       <use xlink:href="#m91c3d2ba62" x="436.217652" y="21.223055" style="stroke: #000000; stroke-width: 0.5"/>
      </g>
     </g>
    </g>
    <g id="xtick_27">
     <g id="line2d_79">
      <path d="M 451.380322 227.514399 
L 451.380322 21.223055 
" clip-path="url(#p4579b9f7b5)" style="fill: none; stroke-dasharray: 1.85,0.8; stroke-dashoffset: 0; stroke: #e6e6e6; stroke-width: 0.5"/>
     </g>
     <g id="line2d_80">
      <g>
       <use xlink:href="#m8f924f8cfc" x="451.380322" y="227.514399" style="stroke: #000000; stroke-width: 0.5"/>
      </g>
     </g>
     <g id="line2d_81">
      <g>
       <use xlink:href="#m91c3d2ba62" x="451.380322" y="21.223055" style="stroke: #000000; stroke-width: 0.5"/>
      </g>
     </g>
    </g>
    <g id="text_6">
     <!-- $g_m/I_D (S/A)$ -->
     <g transform="translate(219.139532 257.873076) scale(0.14 -0.14)">
      <defs>
       <path id="CMMI12-67" d="M 2163 811 
C 2138 709 2125 683 2042 588 
C 1779 249 1510 128 1312 128 
C 1101 128 902 294 902 734 
C 902 1073 1094 1788 1235 2076 
C 1421 2433 1709 2689 1978 2689 
C 2400 2689 2483 2165 2483 2127 
L 2464 2037 
L 2163 811 
z
M 2560 2395 
C 2477 2580 2298 2816 1978 2816 
C 1280 2816 486 1941 486 990 
C 486 326 890 0 1299 0 
C 1638 0 1939 268 2054 396 
L 1914 -171 
C 1824 -516 1786 -674 1555 -894 
C 1293 -1152 1050 -1152 909 -1152 
C 717 -1152 557 -1139 397 -1089 
C 602 -1033 653 -858 653 -789 
C 653 -689 576 -588 435 -588 
C 282 -588 115 -714 115 -922 
C 115 -1180 378 -1280 922 -1280 
C 1747 -1280 2176 -753 2259 -410 
L 2970 2435 
C 2989 2511 2989 2524 2989 2536 
C 2989 2625 2918 2695 2822 2695 
C 2669 2695 2579 2567 2560 2395 
z
" transform="scale(0.015625)"/>
       <path id="CMMI12-6d" d="M 1318 1871 
C 1331 1910 1491 2229 1728 2433 
C 1894 2586 2112 2689 2362 2689 
C 2618 2689 2707 2497 2707 2242 
C 2707 2203 2707 2076 2630 1775 
L 2470 1118 
C 2419 926 2298 453 2285 383 
C 2259 287 2221 121 2221 96 
C 2221 6 2291 -64 2387 -64 
C 2579 -64 2611 83 2669 313 
L 3053 1839 
C 3066 1890 3398 2689 4102 2689 
C 4358 2689 4448 2497 4448 2242 
C 4448 1884 4198 1188 4058 805 
C 4000 651 3968 568 3968 453 
C 3968 166 4166 -64 4474 -64 
C 5069 -64 5293 875 5293 913 
C 5293 945 5267 971 5229 971 
C 5171 971 5165 952 5133 843 
C 4986 332 4749 64 4493 64 
C 4429 64 4326 64 4326 269 
C 4326 436 4403 640 4429 710 
C 4544 1018 4832 1773 4832 2145 
C 4832 2528 4608 2816 4122 2816 
C 3693 2816 3347 2574 3091 2197 
C 3072 2542 2861 2816 2381 2816 
C 1811 2816 1510 2415 1395 2255 
C 1376 2618 1114 2816 832 2816 
C 646 2816 499 2727 378 2484 
C 262 2254 173 1865 173 1839 
C 173 1814 198 1782 243 1782 
C 294 1782 301 1788 339 1935 
C 435 2312 557 2689 813 2689 
C 960 2689 1011 2586 1011 2395 
C 1011 2254 947 2005 902 1807 
L 723 1118 
C 698 996 627 709 595 594 
C 550 428 480 128 480 96 
C 480 6 550 -64 646 -64 
C 723 -64 813 -26 864 70 
C 877 102 934 326 966 453 
L 1107 1028 
L 1318 1871 
z
" transform="scale(0.015625)"/>
       <path id="CMMI12-3d" d="M 2746 4562 
C 2746 4569 2784 4666 2784 4678 
C 2784 4755 2720 4800 2669 4800 
C 2637 4800 2579 4800 2528 4659 
L 384 -1363 
C 384 -1370 346 -1465 346 -1478 
C 346 -1555 410 -1600 461 -1600 
C 499 -1600 557 -1593 602 -1459 
L 2746 4562 
z
" transform="scale(0.015625)"/>
       <path id="CMMI12-49" d="M 2355 3880 
C 2413 4103 2426 4167 2893 4167 
C 3034 4167 3085 4167 3085 4288 
C 3085 4352 3014 4352 2995 4352 
C 2880 4352 2739 4352 2624 4352 
L 1837 4352 
C 1709 4352 1562 4352 1434 4352 
C 1382 4352 1312 4352 1312 4231 
C 1312 4167 1363 4167 1491 4167 
C 1888 4167 1888 4116 1888 4046 
C 1888 4002 1875 3963 1862 3906 
L 998 472 
C 941 249 928 185 461 185 
C 320 185 262 185 262 64 
C 262 0 326 0 358 0 
C 474 0 614 0 730 0 
L 1517 0 
C 1645 0 1786 0 1914 0 
C 1965 0 2042 0 2042 115 
C 2042 185 2003 185 1862 185 
C 1466 185 1466 236 1466 312 
C 1466 325 1466 357 1491 459 
L 2355 3880 
z
" transform="scale(0.015625)"/>
       <path id="CMMI12-44" d="M 1005 472 
C 947 249 934 185 486 185 
C 365 185 301 185 301 70 
C 301 0 339 0 467 0 
L 2496 0 
C 3789 0 5050 1332 5050 2753 
C 5050 3671 4499 4352 3584 4352 
L 1530 4352 
C 1408 4352 1350 4352 1350 4231 
C 1350 4167 1408 4167 1504 4167 
C 1894 4167 1894 4116 1894 4046 
C 1894 4034 1894 3995 1869 3899 
L 1005 472 
z
M 2355 3931 
C 2413 4167 2438 4167 2688 4167 
L 3392 4167 
C 3994 4167 4544 3842 4544 2963 
C 4544 2644 4416 1536 3795 835 
C 3616 625 3130 185 2394 185 
L 1664 185 
C 1574 185 1562 185 1523 192 
C 1453 198 1446 211 1446 262 
C 1446 307 1459 345 1472 402 
L 2355 3931 
z
" transform="scale(0.015625)"/>
       <path id="CMR17-28" d="M 1958 -1561 
C 1958 -1555 1958 -1542 1939 -1523 
C 1645 -1224 858 -407 858 1581 
C 858 3569 1632 4379 1946 4697 
C 1946 4704 1958 4717 1958 4736 
C 1958 4755 1939 4768 1914 4768 
C 1843 4768 1299 4296 986 3594 
C 666 2887 576 2199 576 1588 
C 576 1128 621 351 1005 -471 
C 1312 -1135 1837 -1600 1914 -1600 
C 1946 -1600 1958 -1587 1958 -1561 
z
" transform="scale(0.015625)"/>
       <path id="CMMI12-53" d="M 4064 4423 
C 4064 4480 4019 4480 4006 4480 
C 3981 4480 3974 4474 3898 4378 
C 3859 4333 3597 4001 3590 3995 
C 3379 4410 2957 4480 2688 4480 
C 1875 4480 1139 3743 1139 3025 
C 1139 2549 1427 2269 1741 2161 
C 1811 2135 2189 2033 2381 1989 
C 2707 1900 2790 1875 2925 1735 
C 2950 1703 3078 1557 3078 1258 
C 3078 667 2528 57 1888 57 
C 1363 57 781 280 781 991 
C 781 1112 806 1265 826 1328 
C 826 1348 832 1378 832 1391 
C 832 1417 819 1449 768 1449 
C 710 1449 704 1436 678 1328 
L 352 24 
C 352 18 326 -64 326 -71 
C 326 -128 378 -128 390 -128 
C 416 -128 422 -122 499 -26 
L 794 356 
C 947 126 1280 -128 1875 -128 
C 2701 -128 3456 666 3456 1460 
C 3456 1728 3392 1963 3149 2197 
C 3014 2331 2899 2363 2310 2516 
C 1882 2630 1824 2649 1709 2751 
C 1600 2858 1517 3011 1517 3227 
C 1517 3761 2061 4308 2669 4308 
C 3296 4308 3590 3926 3590 3323 
C 3590 3158 3558 2986 3558 2961 
C 3558 2903 3610 2903 3629 2903 
C 3686 2903 3693 2922 3718 3024 
L 4064 4423 
z
" transform="scale(0.015625)"/>
       <path id="CMMI12-41" d="M 1088 691 
C 864 314 646 186 339 186 
C 269 180 218 180 218 58 
C 218 24 250 0 294 0 
C 410 0 698 0 813 0 
C 998 0 1203 0 1382 0 
C 1421 0 1498 0 1498 122 
C 1498 180 1446 186 1408 186 
C 1261 186 1139 236 1139 388 
C 1139 476 1178 546 1261 685 
L 1747 1479 
L 3379 1479 
C 3386 1423 3386 1373 3392 1316 
C 3411 1152 3488 495 3488 376 
C 3488 186 3162 186 3059 186 
C 2989 186 2918 186 2918 70 
C 2918 0 2976 0 3014 0 
C 3123 0 3251 0 3360 0 
L 3725 0 
C 4115 0 4397 0 4403 0 
C 4448 0 4518 0 4518 122 
C 4518 186 4461 186 4365 186 
C 4013 186 4006 244 3987 434 
L 3597 4404 
C 3584 4531 3558 4544 3488 4544 
C 3424 4544 3386 4531 3328 4435 
L 1088 691 
z
M 1856 1664 
L 3142 3819 
L 3360 1664 
L 1856 1664 
z
" transform="scale(0.015625)"/>
       <path id="CMR17-29" d="M 1683 1581 
C 1683 2040 1638 2817 1254 3639 
C 947 4303 422 4768 346 4768 
C 326 4768 301 4761 301 4729 
C 301 4717 307 4710 314 4697 
C 621 4378 1402 3568 1402 1584 
C 1402 -407 627 -1217 314 -1537 
C 307 -1549 301 -1556 301 -1568 
C 301 -1600 326 -1600 346 -1600 
C 416 -1600 960 -1128 1274 -426 
C 1594 281 1683 969 1683 1581 
z
" transform="scale(0.015625)"/>
      </defs>
      <use xlink:href="#CMMI12-67" transform="scale(0.996264)"/>
      <use xlink:href="#CMMI12-6d" transform="translate(46.710897 -14.943915) scale(0.697382)"/>
      <use xlink:href="#CMMI12-3d" transform="translate(106.93782 0) scale(0.996264)"/>
      <use xlink:href="#CMMI12-49" transform="translate(155.712739 0) scale(0.996264)"/>
      <use xlink:href="#CMMI12-44" transform="translate(198.736914 -14.943915) scale(0.697382)"/>
      <use xlink:href="#CMR17-28" transform="translate(257.82755 0) scale(0.996264)"/>
      <use xlink:href="#CMMI12-53" transform="translate(293.108318 0) scale(0.996264)"/>
      <use xlink:href="#CMMI12-3d" transform="translate(353.483321 0) scale(0.996264)"/>
      <use xlink:href="#CMMI12-41" transform="translate(396.838805 0) scale(0.996264)"/>
      <use xlink:href="#CMR17-29" transform="translate(469.96669 0) scale(0.996264)"/>
     </g>
    </g>
   </g>
   <g id="matplotlib.axis_2">
    <g id="ytick_1">
     <g id="line2d_82">
      <path d="M 51.526495 191.033144 
L 459.916163 191.033144 
" clip-path="url(#p4579b9f7b5)" style="fill: none; stroke-dasharray: 1.85,0.8; stroke-dashoffset: 0; stroke: #e6e6e6; stroke-width: 0.5"/>
     </g>
     <g id="line2d_83">
      <defs>
       <path id="ma414059879" d="M 0 0 
L 3 0 
" style="stroke: #000000; stroke-width: 0.5"/>
      </defs>
      <g>
       <use xlink:href="#ma414059879" x="51.526495" y="191.033144" style="stroke: #000000; stroke-width: 0.5"/>
      </g>
     </g>
     <g id="line2d_84">
      <defs>
       <path id="m1345fec1c4" d="M 0 0 
L -3 0 
" style="stroke: #000000; stroke-width: 0.5"/>
      </defs>
      <g>
       <use xlink:href="#m1345fec1c4" x="459.916163" y="191.033144" style="stroke: #000000; stroke-width: 0.5"/>
      </g>
     </g>
     <g id="text_7">
      <!-- $\mathdefault{10^{-6}}$ -->
      <g transform="translate(21.547696 195.876082) scale(0.14 -0.14)">
       <defs>
        <path id="CMSY10-0" d="M 4218 1472 
C 4326 1472 4442 1472 4442 1600 
C 4442 1728 4326 1728 4218 1728 
L 755 1728 
C 646 1728 531 1728 531 1600 
C 531 1472 646 1472 755 1472 
L 4218 1472 
z
" transform="scale(0.015625)"/>
        <path id="CMR17-36" d="M 678 2176 
C 678 3690 1395 4032 1811 4032 
C 1946 4032 2272 4009 2400 3776 
C 2298 3776 2106 3776 2106 3553 
C 2106 3381 2246 3323 2336 3323 
C 2394 3323 2566 3348 2566 3560 
C 2566 3954 2246 4179 1805 4179 
C 1043 4179 243 3390 243 1984 
C 243 253 966 -128 1478 -128 
C 2099 -128 2688 427 2688 1283 
C 2688 2081 2170 2662 1517 2662 
C 1126 2662 838 2407 678 1960 
L 678 2176 
z
M 1478 25 
C 691 25 691 1200 691 1436 
C 691 1896 909 2560 1504 2560 
C 1613 2560 1926 2560 2138 2120 
C 2253 1870 2253 1609 2253 1289 
C 2253 944 2253 690 2118 434 
C 1978 171 1773 25 1478 25 
z
" transform="scale(0.015625)"/>
       </defs>
       <use xlink:href="#CMR17-31" transform="scale(0.996264)"/>
       <use xlink:href="#CMR17-30" transform="translate(45.690477 0) scale(0.996264)"/>
       <use xlink:href="#CMSY10-0" transform="translate(91.380954 36.153639) scale(0.697382)"/>
       <use xlink:href="#CMR17-36" transform="translate(145.621947 36.153639) scale(0.697382)"/>
      </g>
     </g>
    </g>
    <g id="ytick_2">
     <g id="line2d_85">
      <path d="M 51.526495 154.351478 
L 459.916163 154.351478 
" clip-path="url(#p4579b9f7b5)" style="fill: none; stroke-dasharray: 1.85,0.8; stroke-dashoffset: 0; stroke: #e6e6e6; stroke-width: 0.5"/>
     </g>
     <g id="line2d_86">
      <g>
       <use xlink:href="#ma414059879" x="51.526495" y="154.351478" style="stroke: #000000; stroke-width: 0.5"/>
      </g>
     </g>
     <g id="line2d_87">
      <g>
       <use xlink:href="#m1345fec1c4" x="459.916163" y="154.351478" style="stroke: #000000; stroke-width: 0.5"/>
      </g>
     </g>
     <g id="text_8">
      <!-- $\mathdefault{10^{-4}}$ -->
      <g transform="translate(21.547696 159.194417) scale(0.14 -0.14)">
       <defs>
        <path id="CMR17-34" d="M 2150 4122 
C 2150 4256 2144 4256 2029 4256 
L 128 1254 
L 128 1088 
L 1779 1088 
L 1779 457 
C 1779 224 1766 160 1318 160 
L 1197 160 
L 1197 0 
C 1402 0 1747 0 1965 0 
C 2182 0 2528 0 2733 0 
L 2733 160 
L 2611 160 
C 2163 160 2150 224 2150 457 
L 2150 1088 
L 2803 1088 
L 2803 1254 
L 2150 1254 
L 2150 4122 
z
M 1798 3703 
L 1798 1254 
L 256 1254 
L 1798 3703 
z
" transform="scale(0.015625)"/>
       </defs>
       <use xlink:href="#CMR17-31" transform="scale(0.996264)"/>
       <use xlink:href="#CMR17-30" transform="translate(45.690477 0) scale(0.996264)"/>
       <use xlink:href="#CMSY10-0" transform="translate(91.380954 36.153639) scale(0.697382)"/>
       <use xlink:href="#CMR17-34" transform="translate(145.621947 36.153639) scale(0.697382)"/>
      </g>
     </g>
    </g>
    <g id="ytick_3">
     <g id="line2d_88">
      <path d="M 51.526495 117.669813 
L 459.916163 117.669813 
" clip-path="url(#p4579b9f7b5)" style="fill: none; stroke-dasharray: 1.85,0.8; stroke-dashoffset: 0; stroke: #e6e6e6; stroke-width: 0.5"/>
     </g>
     <g id="line2d_89">
      <g>
       <use xlink:href="#ma414059879" x="51.526495" y="117.669813" style="stroke: #000000; stroke-width: 0.5"/>
      </g>
     </g>
     <g id="line2d_90">
      <g>
       <use xlink:href="#m1345fec1c4" x="459.916163" y="117.669813" style="stroke: #000000; stroke-width: 0.5"/>
      </g>
     </g>
     <g id="text_9">
      <!-- $\mathdefault{10^{-2}}$ -->
      <g transform="translate(21.547696 122.512751) scale(0.14 -0.14)">
       <use xlink:href="#CMR17-31" transform="scale(0.996264)"/>
       <use xlink:href="#CMR17-30" transform="translate(45.690477 0) scale(0.996264)"/>
       <use xlink:href="#CMSY10-0" transform="translate(91.380954 36.153639) scale(0.697382)"/>
       <use xlink:href="#CMR17-32" transform="translate(145.621947 36.153639) scale(0.697382)"/>
      </g>
     </g>
    </g>
    <g id="ytick_4">
     <g id="line2d_91">
      <path d="M 51.526495 80.988147 
L 459.916163 80.988147 
" clip-path="url(#p4579b9f7b5)" style="fill: none; stroke-dasharray: 1.85,0.8; stroke-dashoffset: 0; stroke: #e6e6e6; stroke-width: 0.5"/>
     </g>
     <g id="line2d_92">
      <g>
       <use xlink:href="#ma414059879" x="51.526495" y="80.988147" style="stroke: #000000; stroke-width: 0.5"/>
      </g>
     </g>
     <g id="line2d_93">
      <g>
       <use xlink:href="#m1345fec1c4" x="459.916163" y="80.988147" style="stroke: #000000; stroke-width: 0.5"/>
      </g>
     </g>
     <g id="text_10">
      <!-- $\mathdefault{10^{0}}$ -->
      <g transform="translate(29.352291 85.831085) scale(0.14 -0.14)">
       <use xlink:href="#CMR17-31" transform="scale(0.996264)"/>
       <use xlink:href="#CMR17-30" transform="translate(45.690477 0) scale(0.996264)"/>
       <use xlink:href="#CMR17-30" transform="translate(91.380954 36.153639) scale(0.697382)"/>
      </g>
     </g>
    </g>
    <g id="ytick_5">
     <g id="line2d_94">
      <path d="M 51.526495 44.306481 
L 459.916163 44.306481 
" clip-path="url(#p4579b9f7b5)" style="fill: none; stroke-dasharray: 1.85,0.8; stroke-dashoffset: 0; stroke: #e6e6e6; stroke-width: 0.5"/>
     </g>
     <g id="line2d_95">
      <g>
       <use xlink:href="#ma414059879" x="51.526495" y="44.306481" style="stroke: #000000; stroke-width: 0.5"/>
      </g>
     </g>
     <g id="line2d_96">
      <g>
       <use xlink:href="#m1345fec1c4" x="459.916163" y="44.306481" style="stroke: #000000; stroke-width: 0.5"/>
      </g>
     </g>
     <g id="text_11">
      <!-- $\mathdefault{10^{2}}$ -->
      <g transform="translate(29.352291 49.14942) scale(0.14 -0.14)">
       <use xlink:href="#CMR17-31" transform="scale(0.996264)"/>
       <use xlink:href="#CMR17-30" transform="translate(45.690477 0) scale(0.996264)"/>
       <use xlink:href="#CMR17-32" transform="translate(91.380954 36.153639) scale(0.697382)"/>
      </g>
     </g>
    </g>
    <g id="text_12">
     <!-- $I_{D}/W (A/m)$ -->
     <g transform="translate(14.060772 162.532604) rotate(-90) scale(0.14 -0.14)">
      <defs>
       <path id="CMMI12-57" d="M 5779 3646 
C 5926 3894 6067 4129 6451 4168 
C 6509 4174 6566 4180 6566 4282 
C 6566 4352 6509 4352 6490 4352 
C 6477 4352 6432 4352 6010 4352 
C 5818 4352 5619 4352 5434 4352 
C 5395 4352 5318 4352 5318 4226 
C 5318 4166 5370 4160 5408 4160 
C 5536 4160 5741 4122 5741 3925 
C 5741 3842 5715 3797 5651 3690 
L 3904 648 
L 3674 3963 
C 3674 4039 3744 4160 4102 4160 
C 4186 4160 4250 4160 4250 4286 
C 4250 4352 4186 4352 4154 4352 
C 3930 4352 3693 4352 3462 4352 
L 3130 4352 
C 3034 4352 2918 4352 2822 4352 
C 2784 4352 2707 4352 2707 4226 
C 2707 4160 2752 4160 2861 4160 
C 3155 4160 3155 4153 3181 3772 
L 3200 3543 
L 1542 648 
L 1306 3931 
C 1306 4002 1306 4160 1741 4160 
C 1811 4160 1882 4160 1882 4279 
C 1882 4352 1824 4352 1786 4352 
C 1562 4352 1325 4352 1094 4352 
L 762 4352 
C 666 4352 550 4352 454 4352 
C 416 4352 339 4352 339 4226 
C 339 4160 390 4160 480 4160 
C 781 4160 787 4121 800 3918 
L 1082 18 
C 1088 -90 1094 -128 1171 -128 
C 1235 -128 1248 -103 1306 -7 
L 3213 3307 
L 3450 18 
C 3456 -90 3462 -128 3539 -128 
C 3603 -128 3622 -96 3674 -7 
L 5779 3646 
z
" transform="scale(0.015625)"/>
      </defs>
      <use xlink:href="#CMMI12-49" transform="scale(0.996264)"/>
      <use xlink:href="#CMMI12-44" transform="translate(43.024176 -14.943915) scale(0.697382)"/>
      <use xlink:href="#CMMI12-3d" transform="translate(102.114811 0) scale(0.996264)"/>
      <use xlink:href="#CMMI12-57" transform="translate(150.88973 0) scale(0.996264)"/>
      <use xlink:href="#CMR17-28" transform="translate(256.534228 0) scale(0.996264)"/>
      <use xlink:href="#CMMI12-41" transform="translate(291.814996 0) scale(0.996264)"/>
      <use xlink:href="#CMMI12-3d" transform="translate(364.942881 0) scale(0.996264)"/>
      <use xlink:href="#CMMI12-6d" transform="translate(413.7178 0) scale(0.996264)"/>
      <use xlink:href="#CMR17-29" transform="translate(499.045024 0) scale(0.996264)"/>
     </g>
    </g>
   </g>
   <g id="line2d_97">
    <path d="M 441.257723 170.886207 
L 441.211233 168.709213 
L 441.158149 166.53248 
L 441.09754 164.356045 
L 441.028345 162.17995 
L 440.949357 160.004245 
L 440.859199 157.828982 
L 440.756309 155.654226 
L 440.638905 153.480048 
L 440.504965 151.306529 
L 440.352192 149.133762 
L 440.177982 146.961853 
L 439.979379 144.790922 
L 439.753042 142.621105 
L 439.495191 140.452558 
L 439.201561 138.285458 
L 438.867346 136.120005 
L 438.487145 133.956426 
L 438.054899 131.794978 
L 437.563833 129.635951 
L 437.006397 127.479676 
L 436.374207 125.326521 
L 435.657992 123.176904 
L 434.847563 121.031292 
L 433.931777 118.890209 
L 432.898548 116.75424 
L 431.734868 114.624036 
L 430.426891 112.500317 
L 428.96005 110.38388 
L 427.319258 108.275599 
L 425.489181 106.176428 
L 423.454607 104.087402 
L 421.200919 102.009633 
L 418.714682 99.944308 
L 415.984332 97.892681 
L 412.908834 95.856126 
L 409.340357 93.837199 
L 405.522793 91.837674 
L 401.461391 89.858848 
L 397.166895 87.901975 
L 392.655666 85.96824 
L 387.949281 84.058726 
L 383.073495 82.174394 
L 378.056448 80.316058 
L 372.926098 78.484388 
L 367.706988 76.679911 
L 362.416605 74.903045 
L 357.061756 73.154139 
L 351.635564 71.433545 
L 346.1157 69.741689 
L 340.464449 68.079156 
L 334.630968 66.446764 
L 328.555756 64.845624 
L 322.176913 63.27717 
L 315.437407 61.743151 
L 308.292286 60.245584 
L 300.714778 58.786682 
L 292.700383 57.368736 
L 284.268484 55.994003 
L 275.461398 54.664573 
L 266.34121 53.382262 
L 256.985043 52.148518 
L 247.479485 50.964356 
L 237.914914 49.830323 
L 228.380329 48.746495 
L 218.959058 47.712491 
L 209.725597 46.727516 
L 200.743569 45.790413 
L 192.064756 44.899717 
L 183.728988 44.053727 
L 175.764717 43.250562 
L 168.190041 42.488217 
L 161.014008 41.764619 
L 154.238029 41.077667 
L 147.857298 40.425269 
L 141.862128 39.805373 
L 136.239159 39.215987 
L 130.972405 38.655196 
L 126.04414 38.121176 
L 121.435628 37.612198 
L 117.127697 37.12663 
L 113.101199 36.662946 
L 109.337343 36.219717 
L 105.817948 35.795609 
L 102.525613 35.389387 
L 99.443826 34.999899 
L 96.557036 34.626082 
L 93.850669 34.266951 
L 91.311141 33.921592 
L 88.925827 33.589164 
L 86.683036 33.268887 
L 84.571961 32.960041 
L 82.582634 32.661962 
L 80.705872 32.374034 
L 78.933225 32.095687 
L 77.25692 31.826397 
L 75.669812 31.565675 
L 74.165333 31.313071 
L 72.737442 31.068166 
L 71.380589 30.830574 
L 70.089662 30.599934 
" clip-path="url(#p4579b9f7b5)" style="fill: none; stroke: #0c5da5; stroke-width: 1.5; stroke-linecap: square"/>
   </g>
   <g id="line2d_98">
    <path d="M 441.340528 183.154366 
L 441.305795 180.976907 
L 441.266132 178.799642 
L 441.220839 176.622601 
L 441.169122 174.445813 
L 441.110075 172.269317 
L 441.042663 170.093152 
L 440.965712 167.917365 
L 440.877881 165.742011 
L 440.777647 163.56715 
L 440.663277 161.392852 
L 440.532801 159.219196 
L 440.383984 157.046273 
L 440.214289 154.874185 
L 440.020841 152.70305 
L 439.800388 150.533 
L 439.549252 148.364188 
L 439.263284 146.196784 
L 438.937813 144.030984 
L 438.567586 141.867009 
L 438.146717 139.705109 
L 437.668627 137.545567 
L 437.125986 135.388703 
L 436.510661 133.234877 
L 435.813669 131.084493 
L 435.025143 128.938007 
L 434.134313 126.795927 
L 433.129507 124.658821 
L 431.998198 122.52732 
L 430.727078 120.402123 
L 429.302198 118.284002 
L 427.709176 116.173801 
L 425.933479 114.072442 
L 423.96082 111.980922 
L 421.77764 109.900313 
L 419.278061 107.83182 
L 416.306041 105.777877 
L 413.102693 103.740153 
L 409.66575 101.71987 
L 405.997567 99.718251 
L 402.105848 97.736494 
L 398.004178 95.77574 
L 393.712191 93.837043 
L 389.255236 91.921339 
L 384.663381 90.029416 
L 379.969627 88.161897 
L 375.2073 86.319231 
L 370.406679 84.501695 
L 365.591101 82.709425 
L 360.772941 80.942461 
L 355.950047 79.200817 
L 351.103287 77.484559 
L 346.195851 75.793901 
L 341.174747 74.129296 
L 335.974663 72.491508 
L 330.523878 70.881663 
L 324.751547 69.301268 
L 318.595368 67.75218 
L 312.00853 66.236546 
L 304.964984 64.756709 
L 297.462406 63.315083 
L 289.522611 61.914032 
L 281.189616 60.555748 
L 272.525868 59.242139 
L 263.607285 57.974747 
L 254.517838 56.754693 
L 245.344292 55.582648 
L 236.171552 54.458827 
L 227.078932 53.383015 
L 218.137435 52.354602 
L 209.408059 51.372627 
L 200.940995 50.435841 
L 192.775582 49.542756 
L 184.940811 48.691709 
L 177.456222 47.880907 
L 170.333031 47.108476 
L 163.575355 46.372507 
L 157.181444 45.671079 
L 151.144858 45.002298 
L 145.455527 44.364312 
L 140.100697 43.755328 
L 135.06573 43.173627 
L 130.334772 42.617571 
L 125.891305 42.085606 
L 121.718573 41.576264 
L 117.799925 41.088169 
L 114.119061 40.620027 
L 110.660222 40.170632 
L 107.408312 39.738857 
L 104.348986 39.323653 
L 101.468694 38.924045 
L 98.7547 38.539125 
L 96.195085 38.168052 
L 93.778726 37.810044 
L 91.495271 37.464377 
L 89.335106 37.130377 
L 87.289312 36.807421 
L 85.349628 36.49493 
L 83.508402 36.192366 
L 81.758553 35.899232 
L 80.093525 35.615065 
" clip-path="url(#p4579b9f7b5)" style="fill: none; stroke: #00b945; stroke-width: 1.5; stroke-linecap: square"/>
   </g>
   <g id="line2d_99">
    <path d="M 441.350845 189.83678 
L 441.317579 187.659263 
L 441.279589 185.481932 
L 441.236207 183.304815 
L 441.186671 181.127941 
L 441.130112 178.951346 
L 441.065541 176.775068 
L 440.99183 174.599154 
L 440.907695 172.423653 
L 440.811675 170.248624 
L 440.702109 168.074135 
L 440.577109 165.900261 
L 440.43453 163.727089 
L 440.271938 161.554718 
L 440.086577 159.383259 
L 439.875322 157.21284 
L 439.634644 155.043607 
L 439.360558 152.875724 
L 439.048574 150.709378 
L 438.693644 148.544782 
L 438.290105 146.382175 
L 437.831624 144.22183 
L 437.311141 142.064052 
L 436.720815 139.909189 
L 436.051977 137.757629 
L 435.295094 135.60981 
L 434.439744 133.46622 
L 433.474617 131.327407 
L 432.387551 129.193979 
L 431.165597 127.06661 
L 429.795145 124.946044 
L 428.262118 122.833099 
L 426.552236 120.728665 
L 424.651386 118.633709 
L 422.546091 116.54927 
L 420.130225 114.476523 
L 417.247083 112.417872 
L 414.137884 110.374959 
L 410.799862 108.348979 
L 407.234753 106.341134 
L 403.449582 104.3526 
L 399.457278 102.384501 
L 395.276978 100.437878 
L 390.933861 98.513655 
L 386.458366 96.612609 
L 381.884627 94.735348 
L 377.248084 92.882294 
L 372.582262 91.053688 
L 367.914922 89.249607 
L 363.263912 87.470007 
L 358.633273 85.714784 
L 354.010214 83.983858 
L 349.363661 82.277261 
L 344.644895 80.59524 
L 339.790575 78.938332 
L 334.727986 77.30744 
L 329.381984 75.703855 
L 323.682721 74.129253 
L 317.573052 72.585648 
L 311.014623 71.075305 
L 303.991842 69.600633 
L 296.513364 68.164059 
L 288.611131 66.767904 
L 280.337354 65.414263 
L 271.760069 64.104917 
L 262.95794 62.841256 
L 254.014977 61.624241 
L 245.015679 60.454391 
L 236.040947 59.331785 
L 227.164957 58.256098 
L 218.453027 57.226634 
L 209.960414 56.242381 
L 201.731895 55.302066 
L 193.80198 54.404206 
L 186.195577 53.547163 
L 178.928943 52.729192 
L 172.01081 51.94848 
L 165.443549 51.20319 
L 159.224328 50.491482 
L 153.346174 49.811546 
L 147.798946 49.161615 
L 142.570171 48.539983 
L 137.645765 47.945013 
L 133.010616 47.375145 
L 128.649075 46.828902 
L 124.54533 46.304886 
L 120.683702 45.801786 
L 117.048867 45.31837 
L 113.626014 44.853485 
L 110.400956 44.406056 
L 107.360203 43.975079 
L 104.491 43.559619 
L 101.781343 43.158808 
L 99.219974 42.771838 
L 96.796372 42.397956 
L 94.500717 42.036466 
L 92.323866 41.68672 
L 90.257314 41.348116 
L 88.293152 41.020096 
L 86.42403 40.702142 
L 84.643117 40.393771 
" clip-path="url(#p4579b9f7b5)" style="fill: none; stroke: #ff9500; stroke-width: 1.5; stroke-linecap: square"/>
   </g>
   <g id="line2d_100">
    <path d="M 441.352811 195.742301 
L 441.319825 193.564772 
L 441.282154 191.387429 
L 441.239136 189.210297 
L 441.190016 187.033407 
L 441.133933 184.856793 
L 441.069904 182.680494 
L 440.996811 180.504555 
L 440.913382 178.329026 
L 440.818169 176.153966 
L 440.709522 173.97944 
L 440.58557 171.805524 
L 440.444186 169.632305 
L 440.282956 167.459879 
L 440.099146 165.288358 
L 439.889659 163.117869 
L 439.650993 160.948555 
L 439.379197 158.78058 
L 439.069817 156.61413 
L 438.717846 154.449415 
L 438.317668 152.286672 
L 437.863 150.126172 
L 437.34684 147.968219 
L 436.761409 145.813155 
L 436.098108 143.661368 
L 435.347479 141.51329 
L 434.499182 139.369407 
L 433.541997 137.230262 
L 432.463855 135.096457 
L 431.251909 132.968661 
L 429.892657 130.847613 
L 428.372129 128.734123 
L 426.676163 126.629075 
L 424.79076 124.533428 
L 422.702561 122.448212 
L 420.305516 120.374595 
L 417.442938 118.31497 
L 414.356254 116.27097 
L 411.04282 114.24378 
L 407.504512 112.234589 
L 403.748525 110.244562 
L 399.788005 108.27481 
L 395.64238 106.32636 
L 391.337228 104.400119 
L 386.903518 102.496847 
L 382.376097 100.617128 
L 377.791312 98.761359 
L 373.183818 96.929749 
L 368.582707 95.122337 
L 364.007327 93.339035 
L 359.46328 91.579684 
L 354.939281 89.844143 
L 350.405518 88.132377 
L 345.814107 86.444554 
L 341.101916 84.781137 
L 336.195668 83.142952 
L 331.018798 81.531217 
L 325.499185 79.947549 
L 319.576662 78.393912 
L 313.209284 76.872543 
L 306.377538 75.385839 
L 299.086099 73.936239 
L 291.363116 72.526093 
L 283.257418 71.157549 
L 274.834225 69.832451 
L 266.170053 68.552271 
L 257.34747 67.318058 
L 248.45021 66.130425 
L 239.559038 64.98955 
L 230.74853 63.895201 
L 222.084838 62.846778 
L 213.624376 61.843355 
L 205.413303 60.883741 
L 197.48764 59.966525 
L 189.873855 59.090135 
L 182.589756 58.252882 
L 175.645563 57.453004 
L 169.045045 56.688704 
L 162.786647 55.958178 
L 156.864551 55.259641 
L 151.269637 54.591351 
L 145.990324 53.951618 
L 141.013297 53.338819 
L 136.3241 52.751402 
L 131.907634 52.187896 
L 127.748546 51.646908 
L 123.831532 51.127126 
L 120.141571 50.627318 
L 116.664092 50.146331 
L 113.385096 49.683084 
L 110.291233 49.23657 
L 107.369848 48.805851 
L 104.609005 48.390051 
L 101.997485 47.988358 
L 99.524777 47.600016 
L 97.181055 47.224319 
L 94.957146 46.860617 
L 92.844498 46.508301 
L 90.835141 46.166809 
L 88.921646 45.835618 
L 87.09709 45.514242 
" clip-path="url(#p4579b9f7b5)" style="fill: none; stroke: #ff2c00; stroke-width: 1.5; stroke-linecap: square"/>
   </g>
   <g id="line2d_101">
    <path d="M 441.352996 201.416196 
L 441.320036 199.238667 
L 441.282396 197.061322 
L 441.239413 194.884189 
L 441.190332 192.707298 
L 441.134294 190.530682 
L 441.070316 188.354381 
L 440.997283 186.178439 
L 440.913922 184.002908 
L 440.818786 181.827844 
L 440.710228 179.653315 
L 440.586377 177.479396 
L 440.44511 175.306171 
L 440.284014 173.13374 
L 440.100357 170.962214 
L 439.891045 168.791718 
L 439.652581 166.622396 
L 439.381017 164.454412 
L 439.071904 162.287952 
L 438.72024 160.123224 
L 438.320415 157.960468 
L 437.866156 155.799953 
L 437.350467 153.641982 
L 436.765581 151.486898 
L 436.102912 149.335087 
L 435.353016 147.186982 
L 434.505571 145.043068 
L 433.54938 142.903886 
L 432.472399 140.77004 
L 431.261811 138.642196 
L 429.904151 136.521091 
L 428.385498 134.407536 
L 426.69174 132.302412 
L 424.808947 130.206677 
L 422.72384 128.121358 
L 420.330459 126.047619 
L 417.472219 123.987852 
L 414.390692 121.943685 
L 411.083399 119.916298 
L 407.552408 117.906876 
L 403.805138 115.916575 
L 399.854999 113.946499 
L 395.721723 111.997665 
L 391.431231 110.07097 
L 387.014879 108.16716 
L 382.507932 106.286804 
L 377.947194 104.430281 
L 373.367787 102.59778 
L 368.799274 100.789318 
L 364.261446 99.004782 
L 359.760296 97.243986 
L 355.284837 95.50676 
L 350.80543 93.793038 
L 346.274196 92.102958 
L 341.627809 90.436955 
L 336.792578 88.795822 
L 331.691299 87.180755 
L 326.250988 85.593347 
L 320.410427 84.035547 
L 314.126471 82.509579 
L 307.378316 81.017837 
L 300.169316 79.562762 
L 292.526336 78.146714 
L 284.497015 76.771857 
L 276.145528 75.440057 
L 267.547531 74.152811 
L 258.784929 72.911202 
L 249.941015 71.715875 
L 241.096314 70.567043 
L 232.325356 69.464512 
L 223.694417 68.407716 
L 215.260171 67.395766 
L 207.069149 66.427503 
L 199.157821 65.501548 
L 191.553156 64.616358 
L 184.273487 63.77027 
L 177.329566 62.961545 
L 170.72568 62.188406 
L 164.460771 61.449066 
L 158.529485 60.741759 
L 152.923128 60.064751 
L 147.630507 59.416366 
L 142.63865 58.794989 
L 137.933408 58.199076 
L 133.499949 57.62716 
L 129.32315 57.077853 
L 125.387906 56.549847 
L 121.679364 56.041912 
L 118.183095 55.552895 
L 114.885217 55.081718 
L 111.772475 54.627373 
L 108.832293 54.188922 
L 106.052792 53.765489 
L 103.4228 53.356261 
L 100.931837 52.960478 
L 98.570093 52.577438 
L 96.328404 52.206485 
L 94.198211 51.847012 
L 92.171528 51.498454 
L 90.2409 51.160287 
L 88.399364 50.832026 
" clip-path="url(#p4579b9f7b5)" style="fill: none; stroke: #845b97; stroke-width: 1.5; stroke-linecap: square"/>
   </g>
   <g id="line2d_102">
    <path d="M 441.352986 207.019331 
L 441.320024 204.841801 
L 441.282382 202.664457 
L 441.239398 200.487324 
L 441.190315 198.310432 
L 441.134275 196.133816 
L 441.070295 193.957516 
L 440.997259 191.781574 
L 440.913895 189.606043 
L 440.818756 187.430979 
L 440.710194 185.25645 
L 440.58634 183.082531 
L 440.445069 180.909307 
L 440.283969 178.736876 
L 440.100309 176.56535 
L 439.890994 174.394854 
L 439.652528 172.225533 
L 439.380962 170.057549 
L 439.071849 167.891089 
L 438.720188 165.726362 
L 438.32037 163.563606 
L 437.866123 161.403091 
L 437.350453 159.24512 
L 436.765596 157.090036 
L 436.10297 154.938225 
L 435.353134 152.79012 
L 434.505774 150.646205 
L 433.5497 148.507022 
L 432.472878 146.373173 
L 431.262506 144.245326 
L 429.905135 142.124217 
L 428.386865 140.010656 
L 426.693613 137.905524 
L 424.811484 135.809777 
L 422.727242 133.724442 
L 420.334982 131.650683 
L 417.47818 129.590888 
L 414.398493 127.546685 
L 411.093535 125.519252 
L 407.56549 123.509768 
L 403.821912 121.519389 
L 399.876366 119.549214 
L 395.748759 117.600254 
L 391.465209 115.673399 
L 387.057283 113.769389 
L 382.560475 111.888784 
L 378.011817 110.031954 
L 373.446662 108.199077 
L 368.894786 106.390159 
L 364.376169 104.605071 
L 359.896953 102.843616 
L 355.446244 101.105608 
L 350.994432 99.390967 
L 346.493586 97.699816 
L 341.880243 96.032574 
L 337.080485 94.390023 
L 332.016791 92.773346 
L 326.615777 91.184126 
L 320.81575 89.624303 
L 314.573033 88.096097 
L 307.866257 86.601901 
L 300.698192 85.144155 
L 293.09513 83.725224 
L 285.104173 82.347277 
L 276.789013 81.012191 
L 268.224892 79.721475 
L 259.493388 78.476224 
L 250.677555 77.2771 
L 241.857773 76.124332 
L 233.108511 75.017742 
L 224.496063 73.956782 
L 216.077194 72.94058 
L 207.898573 71.967991 
L 199.996857 71.037653 
L 192.399226 70.148035 
L 185.124247 69.297489 
L 178.182908 68.484287 
L 171.579738 67.706662 
L 165.313907 66.962838 
L 159.380282 66.251054 
L 153.770375 65.569586 
L 148.473181 64.916762 
L 143.475897 64.290972 
L 138.764529 63.690676 
L 134.324378 63.114412 
L 130.14044 62.560792 
L 126.197714 62.028513 
L 122.481435 61.516344 
L 118.977249 61.023134 
L 115.671338 60.547806 
L 112.550502 60.089353 
L 109.602206 59.646836 
L 106.814608 59.21938 
L 104.176562 58.80617 
L 101.677607 58.406449 
L 99.307948 58.019512 
L 97.058424 57.644704 
L 94.920477 57.281416 
L 92.886114 56.929084 
L 90.947866 56.587183 
L 89.098749 56.255228 
" clip-path="url(#p4579b9f7b5)" style="fill: none; stroke: #474747; stroke-width: 1.5; stroke-linecap: square"/>
   </g>
   <g id="line2d_103">
    <path d="M 441.352979 212.58887 
L 441.320017 210.41134 
L 441.282374 208.233996 
L 441.239388 206.056863 
L 441.190304 203.879972 
L 441.134262 201.703356 
L 441.070281 199.527055 
L 440.997243 197.351113 
L 440.913877 195.175582 
L 440.818735 193.000519 
L 440.710172 190.82599 
L 440.586315 188.652071 
L 440.445041 186.478847 
L 440.283939 184.306417 
L 440.100276 182.13489 
L 439.890958 179.964395 
L 439.652489 177.795074 
L 439.380921 175.62709 
L 439.071806 173.46063 
L 438.720145 171.295904 
L 438.320328 169.133148 
L 437.866084 166.972633 
L 437.350421 164.814662 
L 436.765576 162.659578 
L 436.102967 160.507767 
L 435.353159 158.359662 
L 434.505838 156.215747 
L 433.54982 154.076563 
L 432.473075 151.942714 
L 431.262808 149.814865 
L 429.905579 147.693755 
L 428.387499 145.58019 
L 426.694501 143.475054 
L 424.812707 141.379302 
L 422.728903 139.29396 
L 420.337213 137.22019 
L 417.481145 135.160382 
L 414.402398 133.116161 
L 411.098639 131.088704 
L 407.572108 129.07919 
L 403.83043 127.088771 
L 399.887251 125.118545 
L 395.762569 123.16952 
L 391.482603 121.242584 
L 387.079032 119.338471 
L 382.587466 117.457739 
L 378.045057 115.600751 
L 373.487275 113.767681 
L 368.94401 111.958527 
L 364.435337 110.173155 
L 359.967475 108.411361 
L 355.52958 106.672949 
L 351.092055 104.957833 
L 346.606944 103.266129 
L 342.010716 101.598247 
L 337.229336 99.954963 
L 332.185122 98.337453 
L 326.804485 96.747296 
L 321.025493 95.186426 
L 314.804198 93.657063 
L 308.11894 92.161595 
L 300.972193 90.702466 
L 293.389956 89.28204 
L 285.419055 87.902491 
L 277.122931 86.565701 
L 268.576614 85.273183 
L 259.86151 84.026041 
L 251.060548 82.824943 
L 242.254028 81.670128 
L 233.516385 80.561425 
L 224.913919 79.498296 
L 216.503434 78.479875 
L 208.331671 77.505029 
L 200.435375 76.5724 
L 192.841835 75.680468 
L 185.569732 74.827589 
L 178.630176 74.012042 
L 172.027816 73.232065 
L 165.761941 72.485886 
L 159.82753 71.77175 
L 154.216199 71.087937 
L 148.917039 70.432775 
L 143.917337 69.80466 
L 139.203175 69.202052 
L 134.759926 68.623491 
L 130.572646 68.067593 
L 126.626387 67.533052 
L 122.90643 67.01864 
L 119.398462 66.523208 
L 116.088699 66.045677 
L 112.963965 65.585042 
L 110.011752 65.140363 
L 107.220234 64.710766 
L 104.578279 64.295436 
L 102.075438 63.893615 
L 99.70192 63.504598 
L 97.448569 63.12773 
L 95.306826 62.762403 
L 93.268693 62.408051 
L 91.326693 62.06415 
L 89.473832 61.730215 
" clip-path="url(#p4579b9f7b5)" style="fill: none; stroke: #9e9e9e; stroke-width: 1.5; stroke-linecap: square"/>
   </g>
   <g id="line2d_104">
    <path d="M 441.352976 218.13752 
L 441.320013 215.95999 
L 441.282369 213.782646 
L 441.239383 211.605513 
L 441.190299 209.428622 
L 441.134256 207.252006 
L 441.070274 205.075705 
L 440.997235 202.899764 
L 440.913868 200.724232 
L 440.818725 198.549169 
L 440.710161 196.374641 
L 440.586303 194.200722 
L 440.445028 192.027498 
L 440.283924 189.855067 
L 440.100259 187.683541 
L 439.89094 185.513045 
L 439.65247 183.343724 
L 439.380901 181.175741 
L 439.071785 179.009281 
L 438.720124 176.844555 
L 438.320308 174.681799 
L 437.866066 172.521284 
L 437.350406 170.363314 
L 436.765568 168.20823 
L 436.102969 166.056419 
L 435.353175 163.908313 
L 434.505875 161.764398 
L 433.549886 159.625214 
L 432.473181 157.491364 
L 431.262969 155.363515 
L 429.905815 153.242404 
L 428.387835 151.128838 
L 426.694968 149.0237 
L 424.813348 146.927944 
L 422.729773 144.842598 
L 420.338378 142.768823 
L 417.482691 140.709009 
L 414.404432 138.664778 
L 411.101293 136.637309 
L 407.575547 134.627779 
L 403.834854 132.637339 
L 399.892901 130.667087 
L 395.769733 128.718029 
L 391.491623 126.79105 
L 387.090306 124.886884 
L 382.601453 123.006085 
L 378.062278 121.149016 
L 373.508312 119.315846 
L 368.969502 117.50657 
L 364.465974 115.721051 
L 360.003987 113.95908 
L 355.572721 112.22046 
L 351.142588 110.505098 
L 346.66562 108.813107 
L 342.078247 107.144894 
L 337.306379 105.501231 
L 332.272249 103.88329 
L 326.902165 102.292647 
L 321.13407 100.731236 
L 314.923879 99.201273 
L 308.249782 97.705148 
L 301.1141 96.245302 
L 293.542683 94.824102 
L 285.582213 93.443723 
L 277.296005 92.106049 
L 268.758975 90.812598 
L 260.052444 89.564475 
L 251.259273 88.362353 
L 242.459721 87.206475 
L 233.728205 86.096676 
L 225.131025 85.032419 
L 216.725005 84.012846 
L 208.556921 83.036825 
L 200.663564 82.103006 
L 193.072276 81.209869 
L 185.801799 80.355774 
L 178.863302 79.539005 
L 172.261497 78.757802 
L 165.995734 78.010395 
L 160.061047 77.295032 
L 154.449107 76.609993 
L 149.149055 75.95361 
L 144.148222 75.324278 
L 139.432731 74.720461 
L 134.987991 74.140698 
L 130.79909 73.583606 
L 126.851106 73.04788 
L 123.129346 72.532293 
L 119.619516 72.035694 
L 116.307848 71.557007 
L 113.181183 71.095226 
L 110.227022 70.649411 
L 107.43355 70.218688 
L 104.789643 69.802242 
L 102.284855 69.399316 
L 99.9094 69.009204 
L 97.654122 68.631251 
L 95.510463 68.264849 
L 93.470421 67.909433 
L 91.526516 67.564478 
L 89.671746 67.229497 
" clip-path="url(#p4579b9f7b5)" style="fill: none; stroke: #0c5da5; stroke-width: 1.5; stroke-linecap: square"/>
   </g>
   <g id="patch_3">
    <path d="M 51.526495 227.514399 
L 51.526495 21.223055 
" style="fill: none; stroke: #000000; stroke-width: 0.5; stroke-linejoin: miter; stroke-linecap: square"/>
   </g>
   <g id="patch_4">
    <path d="M 459.916163 227.514399 
L 459.916163 21.223055 
" style="fill: none; stroke: #000000; stroke-width: 0.5; stroke-linejoin: miter; stroke-linecap: square"/>
   </g>
   <g id="patch_5">
    <path d="M 51.526495 227.514399 
L 459.916163 227.514399 
" style="fill: none; stroke: #000000; stroke-width: 0.5; stroke-linejoin: miter; stroke-linecap: square"/>
   </g>
   <g id="patch_6">
    <path d="M 51.526495 21.223055 
L 459.916163 21.223055 
" style="fill: none; stroke: #000000; stroke-width: 0.5; stroke-linejoin: miter; stroke-linecap: square"/>
   </g>
   <g id="text_13">
    <!-- NMOS_VTH, $V_{ \mathrm{ SB } }=0.00$, $V_{ \mathrm{ DS } }=0.50$ -->
    <g transform="translate(126.195006 15.223055) scale(0.168 -0.168)">
     <defs>
      <path id="CMSS17-4e" d="M 1466 4180 
L 1350 4416 
L 563 4416 
L 563 0 
L 1062 0 
L 1062 3926 
L 1069 3932 
C 1114 3817 1139 3760 1402 3194 
L 2771 236 
L 2886 0 
L 3674 0 
L 3674 4416 
L 3174 4416 
L 3174 490 
L 3168 483 
C 3123 598 3098 655 2835 1221 
L 1466 4180 
z
" transform="scale(0.015625)"/>
      <path id="CMSS17-4d" d="M 3194 2371 
L 2886 1473 
C 2835 1307 2662 791 2624 587 
L 2618 587 
C 2598 715 2560 849 2458 1174 
C 2400 1365 2336 1562 2272 1741 
L 1325 4416 
L 576 4416 
L 576 0 
L 1075 0 
L 1075 3900 
L 1082 3900 
C 1082 3894 1139 3613 1530 2499 
L 2374 96 
L 2848 96 
L 3610 2231 
C 3661 2378 3821 2843 3891 3066 
C 3955 3257 4115 3728 4154 3913 
L 4160 3913 
L 4160 0 
L 4666 0 
L 4666 4416 
L 3923 4416 
L 3194 2371 
z
" transform="scale(0.015625)"/>
      <path id="CMSS17-4f" d="M 4096 2178 
C 4096 3503 3219 4497 2214 4497 
C 1210 4497 333 3497 333 2178 
C 333 847 1222 -128 2214 -128 
C 3206 -128 4096 847 4096 2178 
z
M 2214 273 
C 1510 273 870 1057 870 2261 
C 870 3433 1549 4096 2214 4096 
C 2880 4096 3558 3433 3558 2261 
C 3558 1051 2912 273 2214 273 
z
" transform="scale(0.015625)"/>
      <path id="CMSS17-53" d="M 2797 4169 
C 2515 4334 2208 4480 1690 4480 
C 864 4480 333 3879 333 3266 
C 333 3025 403 2753 653 2475 
C 902 2196 1184 2121 1542 2033 
C 1690 1994 1939 1924 1984 1906 
C 2342 1767 2515 1444 2515 1140 
C 2515 742 2202 318 1645 318 
C 1453 318 890 318 358 819 
L 269 318 
C 794 -64 1363 -128 1651 -128 
C 2438 -128 3002 488 3002 1186 
C 3002 1440 2925 1763 2656 2061 
C 2394 2347 2163 2410 1638 2549 
C 1338 2626 1146 2677 986 2873 
C 877 3013 819 3146 819 3317 
C 819 3673 1126 4060 1690 4060 
C 1971 4060 2336 4002 2707 3660 
L 2797 4169 
z
" transform="scale(0.015625)"/>
      <path id="CMSS17-56" d="M 3910 4416 
L 3411 4416 
L 2304 1362 
C 2272 1273 2074 688 2035 484 
L 2029 484 
C 1978 726 1773 1292 1664 1604 
L 922 3672 
L 646 4416 
L 83 4416 
L 1715 0 
L 2278 0 
L 3910 4416 
z
" transform="scale(0.015625)"/>
      <path id="CMSS17-54" d="M 2317 3968 
L 2848 3968 
C 2925 3968 3002 3968 3078 3968 
L 3878 3968 
L 3878 4376 
L 218 4376 
L 218 3968 
L 1018 3968 
C 1094 3968 1171 3968 1248 3968 
L 1779 3968 
L 1779 -32 
L 2317 -32 
L 2317 3968 
z
" transform="scale(0.015625)"/>
      <path id="CMSS17-48" d="M 3674 4416 
L 3136 4416 
L 3136 2501 
L 1101 2501 
L 1101 4416 
L 563 4416 
L 563 0 
L 1101 0 
L 1101 2112 
L 3136 2112 
L 3136 0 
L 3674 0 
L 3674 4416 
z
" transform="scale(0.015625)"/>
      <path id="CMSS17-2c" d="M 1088 6 
L 1088 510 
L 576 510 
L 576 0 
L 736 0 
L 570 -800 
L 826 -800 
L 1088 6 
z
" transform="scale(0.015625)"/>
      <path id="CMMI12-56" d="M 3962 3640 
C 4179 3984 4378 4136 4704 4162 
C 4768 4168 4819 4168 4819 4282 
C 4819 4308 4806 4346 4749 4346 
C 4634 4346 4358 4346 4243 4346 
C 4058 4346 3866 4346 3686 4346 
C 3635 4346 3571 4346 3571 4226 
C 3571 4168 3629 4162 3654 4162 
C 3891 4143 3917 4029 3917 3952 
C 3917 3857 3827 3710 3821 3704 
L 1811 540 
L 1363 3969 
C 1363 4160 1696 4160 1766 4160 
C 1862 4160 1920 4160 1920 4282 
C 1920 4346 1850 4346 1830 4346 
C 1722 4346 1594 4346 1485 4346 
L 1126 4346 
C 659 4346 467 4346 461 4346 
C 422 4346 346 4346 346 4230 
C 346 4160 390 4160 493 4160 
C 819 4160 838 4102 858 3944 
L 1370 24 
C 1389 -109 1389 -128 1478 -128 
C 1555 -128 1587 -109 1651 -8 
L 3962 3640 
z
" transform="scale(0.015625)"/>
      <path id="CMR17-53" d="M 2803 4290 
C 2803 4404 2797 4411 2758 4411 
C 2720 4411 2707 4385 2682 4328 
L 2490 3907 
C 2246 4257 1875 4416 1472 4416 
C 819 4416 294 3901 294 3253 
C 294 3056 339 2776 557 2510 
C 794 2218 1018 2167 1530 2033 
C 1722 1982 2042 1899 2106 1874 
C 2470 1722 2662 1341 2662 985 
C 2662 527 2336 38 1779 38 
C 1094 38 454 419 410 1311 
C 403 1413 397 1419 352 1419 
C 301 1419 294 1413 294 1285 
L 294 -1 
C 294 -115 301 -122 339 -122 
C 384 -122 397 -90 486 108 
C 493 127 493 140 614 381 
C 934 -39 1472 -128 1779 -128 
C 2477 -128 2970 451 2970 1124 
C 2970 1454 2848 1708 2778 1823 
C 2509 2230 2221 2306 1914 2382 
C 1869 2402 1856 2402 1498 2490 
C 1152 2579 1005 2624 845 2796 
C 666 2992 602 3196 602 3399 
C 602 3812 934 4263 1478 4263 
C 2157 4263 2579 3786 2675 2993 
C 2694 2878 2701 2872 2746 2872 
C 2803 2872 2803 2891 2803 2999 
L 2803 4290 
z
" transform="scale(0.015625)"/>
      <path id="CMR17-42" d="M 333 4352 
L 333 4186 
C 774 4186 845 4186 845 3900 
L 845 452 
C 845 166 774 166 333 166 
L 333 0 
L 2534 0 
C 3354 0 3885 583 3885 1164 
C 3885 1741 3360 2233 2675 2233 
C 3290 2356 3718 2771 3718 3264 
C 3718 3802 3194 4352 2368 4352 
L 333 4352 
z
M 1248 2304 
L 1248 3937 
C 1248 4155 1261 4186 1517 4186 
L 2336 4186 
C 2970 4186 3251 3674 3251 3277 
C 3251 2791 2861 2304 2170 2304 
L 1248 2304 
z
M 1517 166 
C 1261 166 1248 197 1248 413 
L 1248 2202 
L 2432 2202 
C 3091 2202 3411 1625 3411 1162 
C 3411 699 3046 166 2349 166 
L 1517 166 
z
" transform="scale(0.015625)"/>
      <path id="CMR17-3d" d="M 4115 2017 
C 4211 2017 4307 2017 4307 2125 
C 4307 2240 4198 2240 4090 2240 
L 512 2240 
C 403 2240 294 2240 294 2125 
C 294 2017 390 2017 486 2017 
L 4115 2017 
z
M 4090 896 
C 4198 896 4307 896 4307 1011 
C 4307 1119 4211 1119 4115 1119 
L 486 1119 
C 390 1119 294 1119 294 1011 
C 294 896 403 896 512 896 
L 4090 896 
z
" transform="scale(0.015625)"/>
      <path id="CMMI12-3a" d="M 1178 307 
C 1178 492 1024 619 870 619 
C 685 619 557 466 557 313 
C 557 128 710 0 864 0 
C 1050 0 1178 153 1178 307 
z
" transform="scale(0.015625)"/>
      <path id="CMR17-44" d="M 333 4352 
L 333 4186 
C 774 4186 845 4186 845 3900 
L 845 452 
C 845 166 774 166 333 166 
L 333 0 
L 2368 0 
C 3398 0 4224 943 4224 2141 
C 4224 3346 3411 4352 2368 4352 
L 333 4352 
z
M 1523 166 
C 1267 166 1254 197 1254 414 
L 1254 3938 
C 1254 4155 1267 4186 1523 4186 
L 2240 4186 
C 2771 4186 3750 3874 3750 2141 
C 3750 1242 3488 879 3366 707 
C 3213 510 2848 166 2240 166 
L 1523 166 
z
" transform="scale(0.015625)"/>
     </defs>
     <use xlink:href="#CMSS17-4e" transform="scale(0.996264)"/>
     <use xlink:href="#CMSS17-4d" transform="translate(66.061519 0) scale(0.996264)"/>
     <use xlink:href="#CMSS17-4f" transform="translate(147.737549 0) scale(0.996264)"/>
     <use xlink:href="#CMSS17-53" transform="translate(216.761804 0) scale(0.996264)"/>
     <use xlink:href="#CMSS17-56" transform="translate(302.537816 0) scale(0.996264)"/>
     <use xlink:href="#CMSS17-54" transform="translate(364.755671 0) scale(0.996264)"/>
     <use xlink:href="#CMSS17-48" transform="translate(428.575125 0) scale(0.996264)"/>
     <use xlink:href="#CMSS17-2c" transform="translate(494.636644 0) scale(0.996264)"/>
     <use xlink:href="#CMMI12-56" transform="translate(551.889962 0) scale(0.996264)"/>
     <use xlink:href="#CMR17-53" transform="translate(608.759541 -14.943915) scale(0.697382)"/>
     <use xlink:href="#CMR17-42" transform="translate(644.386149 -14.943915) scale(0.697382)"/>
     <use xlink:href="#CMR17-3d" transform="translate(718.19021 0) scale(0.996264)"/>
     <use xlink:href="#CMR17-30" transform="translate(817.579007 0) scale(0.996264)"/>
     <use xlink:href="#CMMI12-3a" transform="translate(863.269484 0) scale(0.996264)"/>
     <use xlink:href="#CMR17-30" transform="translate(890.366661 0) scale(0.996264)"/>
     <use xlink:href="#CMR17-30" transform="translate(936.057138 0) scale(0.996264)"/>
     <use xlink:href="#CMSS17-2c" transform="translate(981.747615 0) scale(0.996264)"/>
     <use xlink:href="#CMMI12-56" transform="translate(1039.000933 0) scale(0.996264)"/>
     <use xlink:href="#CMR17-44" transform="translate(1095.870512 -14.943915) scale(0.697382)"/>
     <use xlink:href="#CMR17-53" transform="translate(1145.145782 -14.943915) scale(0.697382)"/>
     <use xlink:href="#CMR17-3d" transform="translate(1208.944531 0) scale(0.996264)"/>
     <use xlink:href="#CMR17-30" transform="translate(1308.333328 0) scale(0.996264)"/>
     <use xlink:href="#CMMI12-3a" transform="translate(1354.023805 0) scale(0.996264)"/>
     <use xlink:href="#CMR17-35" transform="translate(1381.120982 0) scale(0.996264)"/>
     <use xlink:href="#CMR17-30" transform="translate(1426.81146 0) scale(0.996264)"/>
     <path d="M 274.431332 0 
L 302.537816 0 
L 302.537816 0.3985 
L 274.431332 0.3985 
L 274.431332 0 
z
"/>
    </g>
   </g>
   <g id="legend_1">
    <g id="line2d_105">
     <path d="M 472.516163 54.720613 
L 486.516163 54.720613 
L 500.516163 54.720613 
" style="fill: none; stroke: #0c5da5; stroke-width: 1.5; stroke-linecap: square"/>
    </g>
    <g id="text_14">
     <!-- $45$ n -->
     <g transform="translate(511.716163 59.620613) scale(0.14 -0.14)">
      <defs>
       <path id="CMSS17-6e" d="M 2618 1877 
C 2618 2283 2522 2816 1798 2816 
C 1389 2816 1120 2606 941 2389 
L 941 2758 
L 474 2758 
L 474 0 
L 960 0 
L 960 1559 
C 960 1964 1114 2428 1549 2428 
C 2112 2428 2131 2048 2131 1829 
L 2131 0 
L 2618 0 
L 2618 1877 
z
" transform="scale(0.015625)"/>
      </defs>
      <use xlink:href="#CMR17-34" transform="scale(0.996264)"/>
      <use xlink:href="#CMR17-35" transform="translate(45.690477 0) scale(0.996264)"/>
      <use xlink:href="#CMSS17-6e" transform="translate(122.610067 0) scale(0.996264)"/>
     </g>
    </g>
    <g id="line2d_106">
     <path d="M 472.516163 74.232642 
L 486.516163 74.232642 
L 500.516163 74.232642 
" style="fill: none; stroke: #00b945; stroke-width: 1.5; stroke-linecap: square"/>
    </g>
    <g id="text_15">
     <!-- $100$ n -->
     <g transform="translate(511.716163 79.132642) scale(0.14 -0.14)">
      <use xlink:href="#CMR17-31" transform="scale(0.996264)"/>
      <use xlink:href="#CMR17-30" transform="translate(45.690477 0) scale(0.996264)"/>
      <use xlink:href="#CMR17-30" transform="translate(91.380954 0) scale(0.996264)"/>
      <use xlink:href="#CMSS17-6e" transform="translate(168.300544 0) scale(0.996264)"/>
     </g>
    </g>
    <g id="line2d_107">
     <path d="M 472.516163 93.74467 
L 486.516163 93.74467 
L 500.516163 93.74467 
" style="fill: none; stroke: #ff9500; stroke-width: 1.5; stroke-linecap: square"/>
    </g>
    <g id="text_16">
     <!-- $200$ n -->
     <g transform="translate(511.716163 98.64467) scale(0.14 -0.14)">
      <use xlink:href="#CMR17-32" transform="scale(0.996264)"/>
      <use xlink:href="#CMR17-30" transform="translate(45.690477 0) scale(0.996264)"/>
      <use xlink:href="#CMR17-30" transform="translate(91.380954 0) scale(0.996264)"/>
      <use xlink:href="#CMSS17-6e" transform="translate(168.300544 0) scale(0.996264)"/>
     </g>
    </g>
    <g id="line2d_108">
     <path d="M 472.516163 113.256699 
L 486.516163 113.256699 
L 500.516163 113.256699 
" style="fill: none; stroke: #ff2c00; stroke-width: 1.5; stroke-linecap: square"/>
    </g>
    <g id="text_17">
     <!-- $400$ n -->
     <g transform="translate(511.716163 118.156699) scale(0.14 -0.14)">
      <use xlink:href="#CMR17-34" transform="scale(0.996264)"/>
      <use xlink:href="#CMR17-30" transform="translate(45.690477 0) scale(0.996264)"/>
      <use xlink:href="#CMR17-30" transform="translate(91.380954 0) scale(0.996264)"/>
      <use xlink:href="#CMSS17-6e" transform="translate(168.300544 0) scale(0.996264)"/>
     </g>
    </g>
    <g id="line2d_109">
     <path d="M 472.516163 132.768727 
L 486.516163 132.768727 
L 500.516163 132.768727 
" style="fill: none; stroke: #845b97; stroke-width: 1.5; stroke-linecap: square"/>
    </g>
    <g id="text_18">
     <!-- $800$ n -->
     <g transform="translate(511.716163 137.668727) scale(0.14 -0.14)">
      <defs>
       <path id="CMR17-38" d="M 1741 2264 
C 2144 2467 2554 2773 2554 3263 
C 2554 3841 1990 4179 1472 4179 
C 890 4179 378 3759 378 3180 
C 378 3021 416 2747 666 2505 
C 730 2442 998 2251 1171 2130 
C 883 1983 211 1634 211 934 
C 211 279 838 -128 1459 -128 
C 2144 -128 2720 362 2720 1010 
C 2720 1590 2330 1857 2074 2029 
L 1741 2264 
z
M 902 2822 
C 851 2854 595 3051 595 3351 
C 595 3739 998 4032 1459 4032 
C 1965 4032 2336 3676 2336 3262 
C 2336 2669 1670 2331 1638 2331 
C 1632 2331 1626 2331 1574 2370 
L 902 2822 
z
M 2080 1519 
C 2176 1449 2483 1240 2483 851 
C 2483 381 2010 25 1472 25 
C 890 25 448 438 448 940 
C 448 1443 838 1862 1280 2060 
L 2080 1519 
z
" transform="scale(0.015625)"/>
      </defs>
      <use xlink:href="#CMR17-38" transform="scale(0.996264)"/>
      <use xlink:href="#CMR17-30" transform="translate(45.690477 0) scale(0.996264)"/>
      <use xlink:href="#CMR17-30" transform="translate(91.380954 0) scale(0.996264)"/>
      <use xlink:href="#CMSS17-6e" transform="translate(168.300544 0) scale(0.996264)"/>
     </g>
    </g>
    <g id="line2d_110">
     <path d="M 472.516163 152.280755 
L 486.516163 152.280755 
L 500.516163 152.280755 
" style="fill: none; stroke: #474747; stroke-width: 1.5; stroke-linecap: square"/>
    </g>
    <g id="text_19">
     <!-- $1.6$  -->
     <g transform="translate(511.716163 157.180755) scale(0.14 -0.14)">
      <defs>
       <path id="SFSS3583-b5" d="M 544 2701 
L 544 -1216 
L 819 -1216 
L 819 65 
C 934 18 1056 0 1184 0 
C 1523 0 1971 160 2125 422 
L 2131 32 
L 2400 32 
L 2400 2701 
L 2125 2701 
L 2125 1341 
C 2125 1259 2131 1169 2131 1080 
C 2131 530 1786 243 1350 243 
C 1050 243 819 346 819 754 
L 819 2701 
L 544 2701 
z
" transform="scale(0.015625)"/>
      </defs>
      <use xlink:href="#CMR17-31" transform="scale(0.996264)"/>
      <use xlink:href="#CMMI12-3a" transform="translate(45.690477 0) scale(0.996264)"/>
      <use xlink:href="#CMR17-36" transform="translate(72.787654 0) scale(0.996264)"/>
      <use xlink:href="#SFSS3583-b5" transform="translate(149.707244 0) scale(0.996264)"/>
     </g>
    </g>
    <g id="line2d_111">
     <path d="M 472.516163 171.792784 
L 486.516163 171.792784 
L 500.516163 171.792784 
" style="fill: none; stroke: #9e9e9e; stroke-width: 1.5; stroke-linecap: square"/>
    </g>
    <g id="text_20">
     <!-- $3.2$  -->
     <g transform="translate(511.716163 176.692784) scale(0.14 -0.14)">
      <defs>
       <path id="CMR17-33" d="M 1414 2157 
C 1984 2157 2234 1662 2234 1090 
C 2234 320 1824 25 1453 25 
C 1114 25 563 194 390 693 
C 422 680 454 680 486 680 
C 640 680 755 782 755 948 
C 755 1133 614 1216 486 1216 
C 378 1216 211 1165 211 926 
C 211 335 787 -128 1466 -128 
C 2176 -128 2720 430 2720 1085 
C 2720 1707 2208 2157 1600 2227 
C 2086 2328 2554 2756 2554 3329 
C 2554 3820 2048 4179 1472 4179 
C 890 4179 378 3829 378 3329 
C 378 3110 544 3072 627 3072 
C 762 3072 877 3155 877 3321 
C 877 3486 762 3569 627 3569 
C 602 3569 570 3569 544 3557 
C 730 3959 1235 4032 1459 4032 
C 1683 4032 2106 3925 2106 3320 
C 2106 3143 2080 2828 1862 2550 
C 1670 2304 1453 2304 1242 2284 
C 1210 2284 1062 2269 1037 2269 
C 992 2263 966 2257 966 2208 
C 966 2163 973 2157 1101 2157 
L 1414 2157 
z
" transform="scale(0.015625)"/>
      </defs>
      <use xlink:href="#CMR17-33" transform="scale(0.996264)"/>
      <use xlink:href="#CMMI12-3a" transform="translate(45.690477 0) scale(0.996264)"/>
      <use xlink:href="#CMR17-32" transform="translate(72.787654 0) scale(0.996264)"/>
      <use xlink:href="#SFSS3583-b5" transform="translate(149.707244 0) scale(0.996264)"/>
     </g>
    </g>
    <g id="line2d_112">
     <path d="M 472.516163 191.304812 
L 486.516163 191.304812 
L 500.516163 191.304812 
" style="fill: none; stroke: #0c5da5; stroke-width: 1.5; stroke-linecap: square"/>
    </g>
    <g id="text_21">
     <!-- $6.4$  -->
     <g transform="translate(511.716163 196.204812) scale(0.14 -0.14)">
      <use xlink:href="#CMR17-36" transform="scale(0.996264)"/>
      <use xlink:href="#CMMI12-3a" transform="translate(45.690477 0) scale(0.996264)"/>
      <use xlink:href="#CMR17-34" transform="translate(72.787654 0) scale(0.996264)"/>
      <use xlink:href="#SFSS3583-b5" transform="translate(149.707244 0) scale(0.996264)"/>
     </g>
    </g>
   </g>
  </g>
 </g>
 <defs>
  <clipPath id="p4579b9f7b5">
   <rect x="51.526495" y="21.223055" width="408.389668" height="206.291344"/>
  </clipPath>
 </defs>
</svg>
