<?xml version="1.0" encoding="utf-8" standalone="no"?>
<!DOCTYPE svg PUBLIC "-//W3C//DTD SVG 1.1//EN"
  "http://www.w3.org/Graphics/SVG/1.1/DTD/svg11.dtd">
<svg xmlns:xlink="http://www.w3.org/1999/xlink" width="552.96pt" height="264.96pt" viewBox="0 0 552.96 264.96" xmlns="http://www.w3.org/2000/svg" version="1.1">
 <metadata>
  <rdf:RDF xmlns:dc="http://purl.org/dc/elements/1.1/" xmlns:cc="http://creativecommons.org/ns#" xmlns:rdf="http://www.w3.org/1999/02/22-rdf-syntax-ns#">
   <cc:Work>
    <dc:type rdf:resource="http://purl.org/dc/dcmitype/StillImage"/>
    <dc:date>2023-11-07T10:57:11.324023</dc:date>
    <dc:format>image/svg+xml</dc:format>
    <dc:creator>
     <cc:Agent>
      <dc:title>Matplotlib v3.8.0, https://matplotlib.org/</dc:title>
     </cc:Agent>
    </dc:creator>
   </cc:Work>
  </rdf:RDF>
 </metadata>
 <defs>
  <style type="text/css">*{stroke-linejoin: round; stroke-linecap: butt}</style>
 </defs>
 <g id="figure_1">
  <g id="patch_1">
   <path d="M 0 264.96 
L 552.96 264.96 
L 552.96 0 
L 0 0 
L 0 264.96 
z
" style="fill: none"/>
  </g>
  <g id="axes_1">
   <g id="patch_2">
    <path d="M 51.526495 227.514399 
L 459.916163 227.514399 
L 459.916163 21.223055 
L 51.526495 21.223055 
L 51.526495 227.514399 
z
" style="fill: none"/>
   </g>
   <g id="matplotlib.axis_1">
    <g id="xtick_1">
     <g id="line2d_1">
      <path d="M 102.029886 227.514399 
L 102.029886 21.223055 
" clip-path="url(#p0771f646c6)" style="fill: none; stroke-dasharray: 1.85,0.8; stroke-dashoffset: 0; stroke: #e6e6e6; stroke-width: 0.5"/>
     </g>
     <g id="line2d_2">
      <defs>
       <path id="m4dcad3ca48" d="M 0 0 
L 0 -3 
" style="stroke: #000000; stroke-width: 0.5"/>
      </defs>
      <g>
       <use xlink:href="#m4dcad3ca48" x="102.029886" y="227.514399" style="stroke: #000000; stroke-width: 0.5"/>
      </g>
     </g>
     <g id="line2d_3">
      <defs>
       <path id="ma7c84bfeb8" d="M 0 0 
L 0 3 
" style="stroke: #000000; stroke-width: 0.5"/>
      </defs>
      <g>
       <use xlink:href="#ma7c84bfeb8" x="102.029886" y="21.223055" style="stroke: #000000; stroke-width: 0.5"/>
      </g>
     </g>
     <g id="text_1">
      <!-- $\mathdefault{5}$ -->
      <g transform="translate(98.615641 240.700275) scale(0.14 -0.14)">
       <defs>
        <path id="CMR17-35" d="M 730 3692 
C 794 3666 1056 3584 1325 3584 
C 1920 3584 2246 3911 2432 4100 
C 2432 4157 2432 4192 2394 4192 
C 2387 4192 2374 4192 2323 4163 
C 2099 4058 1837 3973 1517 3973 
C 1325 3973 1037 3999 723 4139 
C 653 4171 640 4171 634 4171 
C 602 4171 595 4164 595 4037 
L 595 2203 
C 595 2089 595 2057 659 2057 
C 691 2057 704 2070 736 2114 
C 941 2401 1222 2522 1542 2522 
C 1766 2522 2246 2382 2246 1289 
C 2246 1085 2246 715 2054 421 
C 1894 159 1645 25 1370 25 
C 947 25 518 320 403 814 
C 429 807 480 795 506 795 
C 589 795 749 840 749 1038 
C 749 1210 627 1280 506 1280 
C 358 1280 262 1190 262 1011 
C 262 454 704 -128 1382 -128 
C 2042 -128 2669 440 2669 1264 
C 2669 2030 2170 2624 1549 2624 
C 1222 2624 947 2503 730 2274 
L 730 3692 
z
" transform="scale(0.015625)"/>
       </defs>
       <use xlink:href="#CMR17-35" transform="scale(0.996264)"/>
      </g>
     </g>
    </g>
    <g id="xtick_2">
     <g id="line2d_4">
      <path d="M 180.66984 227.514399 
L 180.66984 21.223055 
" clip-path="url(#p0771f646c6)" style="fill: none; stroke-dasharray: 1.85,0.8; stroke-dashoffset: 0; stroke: #e6e6e6; stroke-width: 0.5"/>
     </g>
     <g id="line2d_5">
      <g>
       <use xlink:href="#m4dcad3ca48" x="180.66984" y="227.514399" style="stroke: #000000; stroke-width: 0.5"/>
      </g>
     </g>
     <g id="line2d_6">
      <g>
       <use xlink:href="#ma7c84bfeb8" x="180.66984" y="21.223055" style="stroke: #000000; stroke-width: 0.5"/>
      </g>
     </g>
     <g id="text_2">
      <!-- $\mathdefault{10}$ -->
      <g transform="translate(173.841351 240.700275) scale(0.14 -0.14)">
       <defs>
        <path id="CMR17-31" d="M 1702 4058 
C 1702 4192 1696 4192 1606 4192 
C 1357 3916 979 3827 621 3827 
C 602 3827 570 3827 563 3808 
C 557 3795 557 3782 557 3648 
C 755 3648 1088 3686 1344 3839 
L 1344 461 
C 1344 236 1331 160 781 160 
L 589 160 
L 589 0 
C 896 0 1216 0 1523 0 
C 1830 0 2150 0 2458 0 
L 2458 160 
L 2266 160 
C 1715 160 1702 230 1702 458 
L 1702 4058 
z
" transform="scale(0.015625)"/>
        <path id="CMR17-30" d="M 2688 2025 
C 2688 2416 2682 3080 2413 3591 
C 2176 4039 1798 4198 1466 4198 
C 1158 4198 768 4058 525 3597 
C 269 3118 243 2524 243 2025 
C 243 1661 250 1106 448 619 
C 723 -39 1216 -128 1466 -128 
C 1760 -128 2208 -7 2470 600 
C 2662 1042 2688 1559 2688 2025 
z
M 1466 -26 
C 1056 -26 813 325 723 812 
C 653 1188 653 1738 653 2096 
C 653 2588 653 2997 736 3387 
C 858 3929 1216 4096 1466 4096 
C 1728 4096 2067 3923 2189 3400 
C 2272 3036 2278 2607 2278 2096 
C 2278 1680 2278 1169 2202 792 
C 2067 95 1690 -26 1466 -26 
z
" transform="scale(0.015625)"/>
       </defs>
       <use xlink:href="#CMR17-31" transform="scale(0.996264)"/>
       <use xlink:href="#CMR17-30" transform="translate(45.690477 0) scale(0.996264)"/>
      </g>
     </g>
    </g>
    <g id="xtick_3">
     <g id="line2d_7">
      <path d="M 259.309793 227.514399 
L 259.309793 21.223055 
" clip-path="url(#p0771f646c6)" style="fill: none; stroke-dasharray: 1.85,0.8; stroke-dashoffset: 0; stroke: #e6e6e6; stroke-width: 0.5"/>
     </g>
     <g id="line2d_8">
      <g>
       <use xlink:href="#m4dcad3ca48" x="259.309793" y="227.514399" style="stroke: #000000; stroke-width: 0.5"/>
      </g>
     </g>
     <g id="line2d_9">
      <g>
       <use xlink:href="#ma7c84bfeb8" x="259.309793" y="21.223055" style="stroke: #000000; stroke-width: 0.5"/>
      </g>
     </g>
     <g id="text_3">
      <!-- $\mathdefault{15}$ -->
      <g transform="translate(252.481305 240.700275) scale(0.14 -0.14)">
       <use xlink:href="#CMR17-31" transform="scale(0.996264)"/>
       <use xlink:href="#CMR17-35" transform="translate(45.690477 0) scale(0.996264)"/>
      </g>
     </g>
    </g>
    <g id="xtick_4">
     <g id="line2d_10">
      <path d="M 337.949747 227.514399 
L 337.949747 21.223055 
" clip-path="url(#p0771f646c6)" style="fill: none; stroke-dasharray: 1.85,0.8; stroke-dashoffset: 0; stroke: #e6e6e6; stroke-width: 0.5"/>
     </g>
     <g id="line2d_11">
      <g>
       <use xlink:href="#m4dcad3ca48" x="337.949747" y="227.514399" style="stroke: #000000; stroke-width: 0.5"/>
      </g>
     </g>
     <g id="line2d_12">
      <g>
       <use xlink:href="#ma7c84bfeb8" x="337.949747" y="21.223055" style="stroke: #000000; stroke-width: 0.5"/>
      </g>
     </g>
     <g id="text_4">
      <!-- $\mathdefault{20}$ -->
      <g transform="translate(331.121259 240.700275) scale(0.14 -0.14)">
       <defs>
        <path id="CMR17-32" d="M 2669 989 
L 2554 989 
C 2490 536 2438 459 2413 420 
C 2381 369 1920 369 1830 369 
L 602 369 
C 832 619 1280 1072 1824 1597 
C 2214 1967 2669 2402 2669 3035 
C 2669 3790 2067 4224 1395 4224 
C 691 4224 262 3604 262 3030 
C 262 2780 448 2748 525 2748 
C 589 2748 781 2787 781 3010 
C 781 3207 614 3264 525 3264 
C 486 3264 448 3258 422 3245 
C 544 3790 915 4058 1306 4058 
C 1862 4058 2227 3617 2227 3035 
C 2227 2479 1901 2000 1536 1584 
L 262 146 
L 262 0 
L 2515 0 
L 2669 989 
z
" transform="scale(0.015625)"/>
       </defs>
       <use xlink:href="#CMR17-32" transform="scale(0.996264)"/>
       <use xlink:href="#CMR17-30" transform="translate(45.690477 0) scale(0.996264)"/>
      </g>
     </g>
    </g>
    <g id="xtick_5">
     <g id="line2d_13">
      <path d="M 416.589701 227.514399 
L 416.589701 21.223055 
" clip-path="url(#p0771f646c6)" style="fill: none; stroke-dasharray: 1.85,0.8; stroke-dashoffset: 0; stroke: #e6e6e6; stroke-width: 0.5"/>
     </g>
     <g id="line2d_14">
      <g>
       <use xlink:href="#m4dcad3ca48" x="416.589701" y="227.514399" style="stroke: #000000; stroke-width: 0.5"/>
      </g>
     </g>
     <g id="line2d_15">
      <g>
       <use xlink:href="#ma7c84bfeb8" x="416.589701" y="21.223055" style="stroke: #000000; stroke-width: 0.5"/>
      </g>
     </g>
     <g id="text_5">
      <!-- $\mathdefault{25}$ -->
      <g transform="translate(409.761212 240.700275) scale(0.14 -0.14)">
       <use xlink:href="#CMR17-32" transform="scale(0.996264)"/>
       <use xlink:href="#CMR17-35" transform="translate(45.690477 0) scale(0.996264)"/>
      </g>
     </g>
    </g>
    <g id="xtick_6">
     <g id="line2d_16">
      <path d="M 54.845913 227.514399 
L 54.845913 21.223055 
" clip-path="url(#p0771f646c6)" style="fill: none; stroke-dasharray: 1.85,0.8; stroke-dashoffset: 0; stroke: #e6e6e6; stroke-width: 0.5"/>
     </g>
     <g id="line2d_17">
      <defs>
       <path id="m53c679c5fb" d="M 0 0 
L 0 -1.5 
" style="stroke: #000000; stroke-width: 0.5"/>
      </defs>
      <g>
       <use xlink:href="#m53c679c5fb" x="54.845913" y="227.514399" style="stroke: #000000; stroke-width: 0.5"/>
      </g>
     </g>
     <g id="line2d_18">
      <defs>
       <path id="mca7b3d47bc" d="M 0 0 
L 0 1.5 
" style="stroke: #000000; stroke-width: 0.5"/>
      </defs>
      <g>
       <use xlink:href="#mca7b3d47bc" x="54.845913" y="21.223055" style="stroke: #000000; stroke-width: 0.5"/>
      </g>
     </g>
    </g>
    <g id="xtick_7">
     <g id="line2d_19">
      <path d="M 70.573904 227.514399 
L 70.573904 21.223055 
" clip-path="url(#p0771f646c6)" style="fill: none; stroke-dasharray: 1.85,0.8; stroke-dashoffset: 0; stroke: #e6e6e6; stroke-width: 0.5"/>
     </g>
     <g id="line2d_20">
      <g>
       <use xlink:href="#m53c679c5fb" x="70.573904" y="227.514399" style="stroke: #000000; stroke-width: 0.5"/>
      </g>
     </g>
     <g id="line2d_21">
      <g>
       <use xlink:href="#mca7b3d47bc" x="70.573904" y="21.223055" style="stroke: #000000; stroke-width: 0.5"/>
      </g>
     </g>
    </g>
    <g id="xtick_8">
     <g id="line2d_22">
      <path d="M 86.301895 227.514399 
L 86.301895 21.223055 
" clip-path="url(#p0771f646c6)" style="fill: none; stroke-dasharray: 1.85,0.8; stroke-dashoffset: 0; stroke: #e6e6e6; stroke-width: 0.5"/>
     </g>
     <g id="line2d_23">
      <g>
       <use xlink:href="#m53c679c5fb" x="86.301895" y="227.514399" style="stroke: #000000; stroke-width: 0.5"/>
      </g>
     </g>
     <g id="line2d_24">
      <g>
       <use xlink:href="#mca7b3d47bc" x="86.301895" y="21.223055" style="stroke: #000000; stroke-width: 0.5"/>
      </g>
     </g>
    </g>
    <g id="xtick_9">
     <g id="line2d_25">
      <path d="M 117.757877 227.514399 
L 117.757877 21.223055 
" clip-path="url(#p0771f646c6)" style="fill: none; stroke-dasharray: 1.85,0.8; stroke-dashoffset: 0; stroke: #e6e6e6; stroke-width: 0.5"/>
     </g>
     <g id="line2d_26">
      <g>
       <use xlink:href="#m53c679c5fb" x="117.757877" y="227.514399" style="stroke: #000000; stroke-width: 0.5"/>
      </g>
     </g>
     <g id="line2d_27">
      <g>
       <use xlink:href="#mca7b3d47bc" x="117.757877" y="21.223055" style="stroke: #000000; stroke-width: 0.5"/>
      </g>
     </g>
    </g>
    <g id="xtick_10">
     <g id="line2d_28">
      <path d="M 133.485867 227.514399 
L 133.485867 21.223055 
" clip-path="url(#p0771f646c6)" style="fill: none; stroke-dasharray: 1.85,0.8; stroke-dashoffset: 0; stroke: #e6e6e6; stroke-width: 0.5"/>
     </g>
     <g id="line2d_29">
      <g>
       <use xlink:href="#m53c679c5fb" x="133.485867" y="227.514399" style="stroke: #000000; stroke-width: 0.5"/>
      </g>
     </g>
     <g id="line2d_30">
      <g>
       <use xlink:href="#mca7b3d47bc" x="133.485867" y="21.223055" style="stroke: #000000; stroke-width: 0.5"/>
      </g>
     </g>
    </g>
    <g id="xtick_11">
     <g id="line2d_31">
      <path d="M 149.213858 227.514399 
L 149.213858 21.223055 
" clip-path="url(#p0771f646c6)" style="fill: none; stroke-dasharray: 1.85,0.8; stroke-dashoffset: 0; stroke: #e6e6e6; stroke-width: 0.5"/>
     </g>
     <g id="line2d_32">
      <g>
       <use xlink:href="#m53c679c5fb" x="149.213858" y="227.514399" style="stroke: #000000; stroke-width: 0.5"/>
      </g>
     </g>
     <g id="line2d_33">
      <g>
       <use xlink:href="#mca7b3d47bc" x="149.213858" y="21.223055" style="stroke: #000000; stroke-width: 0.5"/>
      </g>
     </g>
    </g>
    <g id="xtick_12">
     <g id="line2d_34">
      <path d="M 164.941849 227.514399 
L 164.941849 21.223055 
" clip-path="url(#p0771f646c6)" style="fill: none; stroke-dasharray: 1.85,0.8; stroke-dashoffset: 0; stroke: #e6e6e6; stroke-width: 0.5"/>
     </g>
     <g id="line2d_35">
      <g>
       <use xlink:href="#m53c679c5fb" x="164.941849" y="227.514399" style="stroke: #000000; stroke-width: 0.5"/>
      </g>
     </g>
     <g id="line2d_36">
      <g>
       <use xlink:href="#mca7b3d47bc" x="164.941849" y="21.223055" style="stroke: #000000; stroke-width: 0.5"/>
      </g>
     </g>
    </g>
    <g id="xtick_13">
     <g id="line2d_37">
      <path d="M 196.39783 227.514399 
L 196.39783 21.223055 
" clip-path="url(#p0771f646c6)" style="fill: none; stroke-dasharray: 1.85,0.8; stroke-dashoffset: 0; stroke: #e6e6e6; stroke-width: 0.5"/>
     </g>
     <g id="line2d_38">
      <g>
       <use xlink:href="#m53c679c5fb" x="196.39783" y="227.514399" style="stroke: #000000; stroke-width: 0.5"/>
      </g>
     </g>
     <g id="line2d_39">
      <g>
       <use xlink:href="#mca7b3d47bc" x="196.39783" y="21.223055" style="stroke: #000000; stroke-width: 0.5"/>
      </g>
     </g>
    </g>
    <g id="xtick_14">
     <g id="line2d_40">
      <path d="M 212.125821 227.514399 
L 212.125821 21.223055 
" clip-path="url(#p0771f646c6)" style="fill: none; stroke-dasharray: 1.85,0.8; stroke-dashoffset: 0; stroke: #e6e6e6; stroke-width: 0.5"/>
     </g>
     <g id="line2d_41">
      <g>
       <use xlink:href="#m53c679c5fb" x="212.125821" y="227.514399" style="stroke: #000000; stroke-width: 0.5"/>
      </g>
     </g>
     <g id="line2d_42">
      <g>
       <use xlink:href="#mca7b3d47bc" x="212.125821" y="21.223055" style="stroke: #000000; stroke-width: 0.5"/>
      </g>
     </g>
    </g>
    <g id="xtick_15">
     <g id="line2d_43">
      <path d="M 227.853812 227.514399 
L 227.853812 21.223055 
" clip-path="url(#p0771f646c6)" style="fill: none; stroke-dasharray: 1.85,0.8; stroke-dashoffset: 0; stroke: #e6e6e6; stroke-width: 0.5"/>
     </g>
     <g id="line2d_44">
      <g>
       <use xlink:href="#m53c679c5fb" x="227.853812" y="227.514399" style="stroke: #000000; stroke-width: 0.5"/>
      </g>
     </g>
     <g id="line2d_45">
      <g>
       <use xlink:href="#mca7b3d47bc" x="227.853812" y="21.223055" style="stroke: #000000; stroke-width: 0.5"/>
      </g>
     </g>
    </g>
    <g id="xtick_16">
     <g id="line2d_46">
      <path d="M 243.581803 227.514399 
L 243.581803 21.223055 
" clip-path="url(#p0771f646c6)" style="fill: none; stroke-dasharray: 1.85,0.8; stroke-dashoffset: 0; stroke: #e6e6e6; stroke-width: 0.5"/>
     </g>
     <g id="line2d_47">
      <g>
       <use xlink:href="#m53c679c5fb" x="243.581803" y="227.514399" style="stroke: #000000; stroke-width: 0.5"/>
      </g>
     </g>
     <g id="line2d_48">
      <g>
       <use xlink:href="#mca7b3d47bc" x="243.581803" y="21.223055" style="stroke: #000000; stroke-width: 0.5"/>
      </g>
     </g>
    </g>
    <g id="xtick_17">
     <g id="line2d_49">
      <path d="M 275.037784 227.514399 
L 275.037784 21.223055 
" clip-path="url(#p0771f646c6)" style="fill: none; stroke-dasharray: 1.85,0.8; stroke-dashoffset: 0; stroke: #e6e6e6; stroke-width: 0.5"/>
     </g>
     <g id="line2d_50">
      <g>
       <use xlink:href="#m53c679c5fb" x="275.037784" y="227.514399" style="stroke: #000000; stroke-width: 0.5"/>
      </g>
     </g>
     <g id="line2d_51">
      <g>
       <use xlink:href="#mca7b3d47bc" x="275.037784" y="21.223055" style="stroke: #000000; stroke-width: 0.5"/>
      </g>
     </g>
    </g>
    <g id="xtick_18">
     <g id="line2d_52">
      <path d="M 290.765775 227.514399 
L 290.765775 21.223055 
" clip-path="url(#p0771f646c6)" style="fill: none; stroke-dasharray: 1.85,0.8; stroke-dashoffset: 0; stroke: #e6e6e6; stroke-width: 0.5"/>
     </g>
     <g id="line2d_53">
      <g>
       <use xlink:href="#m53c679c5fb" x="290.765775" y="227.514399" style="stroke: #000000; stroke-width: 0.5"/>
      </g>
     </g>
     <g id="line2d_54">
      <g>
       <use xlink:href="#mca7b3d47bc" x="290.765775" y="21.223055" style="stroke: #000000; stroke-width: 0.5"/>
      </g>
     </g>
    </g>
    <g id="xtick_19">
     <g id="line2d_55">
      <path d="M 306.493766 227.514399 
L 306.493766 21.223055 
" clip-path="url(#p0771f646c6)" style="fill: none; stroke-dasharray: 1.85,0.8; stroke-dashoffset: 0; stroke: #e6e6e6; stroke-width: 0.5"/>
     </g>
     <g id="line2d_56">
      <g>
       <use xlink:href="#m53c679c5fb" x="306.493766" y="227.514399" style="stroke: #000000; stroke-width: 0.5"/>
      </g>
     </g>
     <g id="line2d_57">
      <g>
       <use xlink:href="#mca7b3d47bc" x="306.493766" y="21.223055" style="stroke: #000000; stroke-width: 0.5"/>
      </g>
     </g>
    </g>
    <g id="xtick_20">
     <g id="line2d_58">
      <path d="M 322.221756 227.514399 
L 322.221756 21.223055 
" clip-path="url(#p0771f646c6)" style="fill: none; stroke-dasharray: 1.85,0.8; stroke-dashoffset: 0; stroke: #e6e6e6; stroke-width: 0.5"/>
     </g>
     <g id="line2d_59">
      <g>
       <use xlink:href="#m53c679c5fb" x="322.221756" y="227.514399" style="stroke: #000000; stroke-width: 0.5"/>
      </g>
     </g>
     <g id="line2d_60">
      <g>
       <use xlink:href="#mca7b3d47bc" x="322.221756" y="21.223055" style="stroke: #000000; stroke-width: 0.5"/>
      </g>
     </g>
    </g>
    <g id="xtick_21">
     <g id="line2d_61">
      <path d="M 353.677738 227.514399 
L 353.677738 21.223055 
" clip-path="url(#p0771f646c6)" style="fill: none; stroke-dasharray: 1.85,0.8; stroke-dashoffset: 0; stroke: #e6e6e6; stroke-width: 0.5"/>
     </g>
     <g id="line2d_62">
      <g>
       <use xlink:href="#m53c679c5fb" x="353.677738" y="227.514399" style="stroke: #000000; stroke-width: 0.5"/>
      </g>
     </g>
     <g id="line2d_63">
      <g>
       <use xlink:href="#mca7b3d47bc" x="353.677738" y="21.223055" style="stroke: #000000; stroke-width: 0.5"/>
      </g>
     </g>
    </g>
    <g id="xtick_22">
     <g id="line2d_64">
      <path d="M 369.405729 227.514399 
L 369.405729 21.223055 
" clip-path="url(#p0771f646c6)" style="fill: none; stroke-dasharray: 1.85,0.8; stroke-dashoffset: 0; stroke: #e6e6e6; stroke-width: 0.5"/>
     </g>
     <g id="line2d_65">
      <g>
       <use xlink:href="#m53c679c5fb" x="369.405729" y="227.514399" style="stroke: #000000; stroke-width: 0.5"/>
      </g>
     </g>
     <g id="line2d_66">
      <g>
       <use xlink:href="#mca7b3d47bc" x="369.405729" y="21.223055" style="stroke: #000000; stroke-width: 0.5"/>
      </g>
     </g>
    </g>
    <g id="xtick_23">
     <g id="line2d_67">
      <path d="M 385.13372 227.514399 
L 385.13372 21.223055 
" clip-path="url(#p0771f646c6)" style="fill: none; stroke-dasharray: 1.85,0.8; stroke-dashoffset: 0; stroke: #e6e6e6; stroke-width: 0.5"/>
     </g>
     <g id="line2d_68">
      <g>
       <use xlink:href="#m53c679c5fb" x="385.13372" y="227.514399" style="stroke: #000000; stroke-width: 0.5"/>
      </g>
     </g>
     <g id="line2d_69">
      <g>
       <use xlink:href="#mca7b3d47bc" x="385.13372" y="21.223055" style="stroke: #000000; stroke-width: 0.5"/>
      </g>
     </g>
    </g>
    <g id="xtick_24">
     <g id="line2d_70">
      <path d="M 400.86171 227.514399 
L 400.86171 21.223055 
" clip-path="url(#p0771f646c6)" style="fill: none; stroke-dasharray: 1.85,0.8; stroke-dashoffset: 0; stroke: #e6e6e6; stroke-width: 0.5"/>
     </g>
     <g id="line2d_71">
      <g>
       <use xlink:href="#m53c679c5fb" x="400.86171" y="227.514399" style="stroke: #000000; stroke-width: 0.5"/>
      </g>
     </g>
     <g id="line2d_72">
      <g>
       <use xlink:href="#mca7b3d47bc" x="400.86171" y="21.223055" style="stroke: #000000; stroke-width: 0.5"/>
      </g>
     </g>
    </g>
    <g id="xtick_25">
     <g id="line2d_73">
      <path d="M 432.317692 227.514399 
L 432.317692 21.223055 
" clip-path="url(#p0771f646c6)" style="fill: none; stroke-dasharray: 1.85,0.8; stroke-dashoffset: 0; stroke: #e6e6e6; stroke-width: 0.5"/>
     </g>
     <g id="line2d_74">
      <g>
       <use xlink:href="#m53c679c5fb" x="432.317692" y="227.514399" style="stroke: #000000; stroke-width: 0.5"/>
      </g>
     </g>
     <g id="line2d_75">
      <g>
       <use xlink:href="#mca7b3d47bc" x="432.317692" y="21.223055" style="stroke: #000000; stroke-width: 0.5"/>
      </g>
     </g>
    </g>
    <g id="xtick_26">
     <g id="line2d_76">
      <path d="M 448.045683 227.514399 
L 448.045683 21.223055 
" clip-path="url(#p0771f646c6)" style="fill: none; stroke-dasharray: 1.85,0.8; stroke-dashoffset: 0; stroke: #e6e6e6; stroke-width: 0.5"/>
     </g>
     <g id="line2d_77">
      <g>
       <use xlink:href="#m53c679c5fb" x="448.045683" y="227.514399" style="stroke: #000000; stroke-width: 0.5"/>
      </g>
     </g>
     <g id="line2d_78">
      <g>
       <use xlink:href="#mca7b3d47bc" x="448.045683" y="21.223055" style="stroke: #000000; stroke-width: 0.5"/>
      </g>
     </g>
    </g>
    <g id="text_6">
     <!-- $g_m/I_D (S/A)$ -->
     <g transform="translate(219.139532 257.873076) scale(0.14 -0.14)">
      <defs>
       <path id="CMMI12-67" d="M 2163 811 
C 2138 709 2125 683 2042 588 
C 1779 249 1510 128 1312 128 
C 1101 128 902 294 902 734 
C 902 1073 1094 1788 1235 2076 
C 1421 2433 1709 2689 1978 2689 
C 2400 2689 2483 2165 2483 2127 
L 2464 2037 
L 2163 811 
z
M 2560 2395 
C 2477 2580 2298 2816 1978 2816 
C 1280 2816 486 1941 486 990 
C 486 326 890 0 1299 0 
C 1638 0 1939 268 2054 396 
L 1914 -171 
C 1824 -516 1786 -674 1555 -894 
C 1293 -1152 1050 -1152 909 -1152 
C 717 -1152 557 -1139 397 -1089 
C 602 -1033 653 -858 653 -789 
C 653 -689 576 -588 435 -588 
C 282 -588 115 -714 115 -922 
C 115 -1180 378 -1280 922 -1280 
C 1747 -1280 2176 -753 2259 -410 
L 2970 2435 
C 2989 2511 2989 2524 2989 2536 
C 2989 2625 2918 2695 2822 2695 
C 2669 2695 2579 2567 2560 2395 
z
" transform="scale(0.015625)"/>
       <path id="CMMI12-6d" d="M 1318 1871 
C 1331 1910 1491 2229 1728 2433 
C 1894 2586 2112 2689 2362 2689 
C 2618 2689 2707 2497 2707 2242 
C 2707 2203 2707 2076 2630 1775 
L 2470 1118 
C 2419 926 2298 453 2285 383 
C 2259 287 2221 121 2221 96 
C 2221 6 2291 -64 2387 -64 
C 2579 -64 2611 83 2669 313 
L 3053 1839 
C 3066 1890 3398 2689 4102 2689 
C 4358 2689 4448 2497 4448 2242 
C 4448 1884 4198 1188 4058 805 
C 4000 651 3968 568 3968 453 
C 3968 166 4166 -64 4474 -64 
C 5069 -64 5293 875 5293 913 
C 5293 945 5267 971 5229 971 
C 5171 971 5165 952 5133 843 
C 4986 332 4749 64 4493 64 
C 4429 64 4326 64 4326 269 
C 4326 436 4403 640 4429 710 
C 4544 1018 4832 1773 4832 2145 
C 4832 2528 4608 2816 4122 2816 
C 3693 2816 3347 2574 3091 2197 
C 3072 2542 2861 2816 2381 2816 
C 1811 2816 1510 2415 1395 2255 
C 1376 2618 1114 2816 832 2816 
C 646 2816 499 2727 378 2484 
C 262 2254 173 1865 173 1839 
C 173 1814 198 1782 243 1782 
C 294 1782 301 1788 339 1935 
C 435 2312 557 2689 813 2689 
C 960 2689 1011 2586 1011 2395 
C 1011 2254 947 2005 902 1807 
L 723 1118 
C 698 996 627 709 595 594 
C 550 428 480 128 480 96 
C 480 6 550 -64 646 -64 
C 723 -64 813 -26 864 70 
C 877 102 934 326 966 453 
L 1107 1028 
L 1318 1871 
z
" transform="scale(0.015625)"/>
       <path id="CMMI12-3d" d="M 2746 4562 
C 2746 4569 2784 4666 2784 4678 
C 2784 4755 2720 4800 2669 4800 
C 2637 4800 2579 4800 2528 4659 
L 384 -1363 
C 384 -1370 346 -1465 346 -1478 
C 346 -1555 410 -1600 461 -1600 
C 499 -1600 557 -1593 602 -1459 
L 2746 4562 
z
" transform="scale(0.015625)"/>
       <path id="CMMI12-49" d="M 2355 3880 
C 2413 4103 2426 4167 2893 4167 
C 3034 4167 3085 4167 3085 4288 
C 3085 4352 3014 4352 2995 4352 
C 2880 4352 2739 4352 2624 4352 
L 1837 4352 
C 1709 4352 1562 4352 1434 4352 
C 1382 4352 1312 4352 1312 4231 
C 1312 4167 1363 4167 1491 4167 
C 1888 4167 1888 4116 1888 4046 
C 1888 4002 1875 3963 1862 3906 
L 998 472 
C 941 249 928 185 461 185 
C 320 185 262 185 262 64 
C 262 0 326 0 358 0 
C 474 0 614 0 730 0 
L 1517 0 
C 1645 0 1786 0 1914 0 
C 1965 0 2042 0 2042 115 
C 2042 185 2003 185 1862 185 
C 1466 185 1466 236 1466 312 
C 1466 325 1466 357 1491 459 
L 2355 3880 
z
" transform="scale(0.015625)"/>
       <path id="CMMI12-44" d="M 1005 472 
C 947 249 934 185 486 185 
C 365 185 301 185 301 70 
C 301 0 339 0 467 0 
L 2496 0 
C 3789 0 5050 1332 5050 2753 
C 5050 3671 4499 4352 3584 4352 
L 1530 4352 
C 1408 4352 1350 4352 1350 4231 
C 1350 4167 1408 4167 1504 4167 
C 1894 4167 1894 4116 1894 4046 
C 1894 4034 1894 3995 1869 3899 
L 1005 472 
z
M 2355 3931 
C 2413 4167 2438 4167 2688 4167 
L 3392 4167 
C 3994 4167 4544 3842 4544 2963 
C 4544 2644 4416 1536 3795 835 
C 3616 625 3130 185 2394 185 
L 1664 185 
C 1574 185 1562 185 1523 192 
C 1453 198 1446 211 1446 262 
C 1446 307 1459 345 1472 402 
L 2355 3931 
z
" transform="scale(0.015625)"/>
       <path id="CMR17-28" d="M 1958 -1561 
C 1958 -1555 1958 -1542 1939 -1523 
C 1645 -1224 858 -407 858 1581 
C 858 3569 1632 4379 1946 4697 
C 1946 4704 1958 4717 1958 4736 
C 1958 4755 1939 4768 1914 4768 
C 1843 4768 1299 4296 986 3594 
C 666 2887 576 2199 576 1588 
C 576 1128 621 351 1005 -471 
C 1312 -1135 1837 -1600 1914 -1600 
C 1946 -1600 1958 -1587 1958 -1561 
z
" transform="scale(0.015625)"/>
       <path id="CMMI12-53" d="M 4064 4423 
C 4064 4480 4019 4480 4006 4480 
C 3981 4480 3974 4474 3898 4378 
C 3859 4333 3597 4001 3590 3995 
C 3379 4410 2957 4480 2688 4480 
C 1875 4480 1139 3743 1139 3025 
C 1139 2549 1427 2269 1741 2161 
C 1811 2135 2189 2033 2381 1989 
C 2707 1900 2790 1875 2925 1735 
C 2950 1703 3078 1557 3078 1258 
C 3078 667 2528 57 1888 57 
C 1363 57 781 280 781 991 
C 781 1112 806 1265 826 1328 
C 826 1348 832 1378 832 1391 
C 832 1417 819 1449 768 1449 
C 710 1449 704 1436 678 1328 
L 352 24 
C 352 18 326 -64 326 -71 
C 326 -128 378 -128 390 -128 
C 416 -128 422 -122 499 -26 
L 794 356 
C 947 126 1280 -128 1875 -128 
C 2701 -128 3456 666 3456 1460 
C 3456 1728 3392 1963 3149 2197 
C 3014 2331 2899 2363 2310 2516 
C 1882 2630 1824 2649 1709 2751 
C 1600 2858 1517 3011 1517 3227 
C 1517 3761 2061 4308 2669 4308 
C 3296 4308 3590 3926 3590 3323 
C 3590 3158 3558 2986 3558 2961 
C 3558 2903 3610 2903 3629 2903 
C 3686 2903 3693 2922 3718 3024 
L 4064 4423 
z
" transform="scale(0.015625)"/>
       <path id="CMMI12-41" d="M 1088 691 
C 864 314 646 186 339 186 
C 269 180 218 180 218 58 
C 218 24 250 0 294 0 
C 410 0 698 0 813 0 
C 998 0 1203 0 1382 0 
C 1421 0 1498 0 1498 122 
C 1498 180 1446 186 1408 186 
C 1261 186 1139 236 1139 388 
C 1139 476 1178 546 1261 685 
L 1747 1479 
L 3379 1479 
C 3386 1423 3386 1373 3392 1316 
C 3411 1152 3488 495 3488 376 
C 3488 186 3162 186 3059 186 
C 2989 186 2918 186 2918 70 
C 2918 0 2976 0 3014 0 
C 3123 0 3251 0 3360 0 
L 3725 0 
C 4115 0 4397 0 4403 0 
C 4448 0 4518 0 4518 122 
C 4518 186 4461 186 4365 186 
C 4013 186 4006 244 3987 434 
L 3597 4404 
C 3584 4531 3558 4544 3488 4544 
C 3424 4544 3386 4531 3328 4435 
L 1088 691 
z
M 1856 1664 
L 3142 3819 
L 3360 1664 
L 1856 1664 
z
" transform="scale(0.015625)"/>
       <path id="CMR17-29" d="M 1683 1581 
C 1683 2040 1638 2817 1254 3639 
C 947 4303 422 4768 346 4768 
C 326 4768 301 4761 301 4729 
C 301 4717 307 4710 314 4697 
C 621 4378 1402 3568 1402 1584 
C 1402 -407 627 -1217 314 -1537 
C 307 -1549 301 -1556 301 -1568 
C 301 -1600 326 -1600 346 -1600 
C 416 -1600 960 -1128 1274 -426 
C 1594 281 1683 969 1683 1581 
z
" transform="scale(0.015625)"/>
      </defs>
      <use xlink:href="#CMMI12-67" transform="scale(0.996264)"/>
      <use xlink:href="#CMMI12-6d" transform="translate(46.710897 -14.943915) scale(0.697382)"/>
      <use xlink:href="#CMMI12-3d" transform="translate(106.93782 0) scale(0.996264)"/>
      <use xlink:href="#CMMI12-49" transform="translate(155.712739 0) scale(0.996264)"/>
      <use xlink:href="#CMMI12-44" transform="translate(198.736914 -14.943915) scale(0.697382)"/>
      <use xlink:href="#CMR17-28" transform="translate(257.82755 0) scale(0.996264)"/>
      <use xlink:href="#CMMI12-53" transform="translate(293.108318 0) scale(0.996264)"/>
      <use xlink:href="#CMMI12-3d" transform="translate(353.483321 0) scale(0.996264)"/>
      <use xlink:href="#CMMI12-41" transform="translate(396.838805 0) scale(0.996264)"/>
      <use xlink:href="#CMR17-29" transform="translate(469.96669 0) scale(0.996264)"/>
     </g>
    </g>
   </g>
   <g id="matplotlib.axis_2">
    <g id="ytick_1">
     <g id="line2d_79">
      <path d="M 51.526495 191.701893 
L 459.916163 191.701893 
" clip-path="url(#p0771f646c6)" style="fill: none; stroke-dasharray: 1.85,0.8; stroke-dashoffset: 0; stroke: #e6e6e6; stroke-width: 0.5"/>
     </g>
     <g id="line2d_80">
      <defs>
       <path id="mdcdae70948" d="M 0 0 
L 3 0 
" style="stroke: #000000; stroke-width: 0.5"/>
      </defs>
      <g>
       <use xlink:href="#mdcdae70948" x="51.526495" y="191.701893" style="stroke: #000000; stroke-width: 0.5"/>
      </g>
     </g>
     <g id="line2d_81">
      <defs>
       <path id="m138e89e01f" d="M 0 0 
L -3 0 
" style="stroke: #000000; stroke-width: 0.5"/>
      </defs>
      <g>
       <use xlink:href="#m138e89e01f" x="459.916163" y="191.701893" style="stroke: #000000; stroke-width: 0.5"/>
      </g>
     </g>
     <g id="text_7">
      <!-- $\mathdefault{10^{-3}}$ -->
      <g transform="translate(21.547696 196.544831) scale(0.14 -0.14)">
       <defs>
        <path id="CMSY10-0" d="M 4218 1472 
C 4326 1472 4442 1472 4442 1600 
C 4442 1728 4326 1728 4218 1728 
L 755 1728 
C 646 1728 531 1728 531 1600 
C 531 1472 646 1472 755 1472 
L 4218 1472 
z
" transform="scale(0.015625)"/>
        <path id="CMR17-33" d="M 1414 2157 
C 1984 2157 2234 1662 2234 1090 
C 2234 320 1824 25 1453 25 
C 1114 25 563 194 390 693 
C 422 680 454 680 486 680 
C 640 680 755 782 755 948 
C 755 1133 614 1216 486 1216 
C 378 1216 211 1165 211 926 
C 211 335 787 -128 1466 -128 
C 2176 -128 2720 430 2720 1085 
C 2720 1707 2208 2157 1600 2227 
C 2086 2328 2554 2756 2554 3329 
C 2554 3820 2048 4179 1472 4179 
C 890 4179 378 3829 378 3329 
C 378 3110 544 3072 627 3072 
C 762 3072 877 3155 877 3321 
C 877 3486 762 3569 627 3569 
C 602 3569 570 3569 544 3557 
C 730 3959 1235 4032 1459 4032 
C 1683 4032 2106 3925 2106 3320 
C 2106 3143 2080 2828 1862 2550 
C 1670 2304 1453 2304 1242 2284 
C 1210 2284 1062 2269 1037 2269 
C 992 2263 966 2257 966 2208 
C 966 2163 973 2157 1101 2157 
L 1414 2157 
z
" transform="scale(0.015625)"/>
       </defs>
       <use xlink:href="#CMR17-31" transform="scale(0.996264)"/>
       <use xlink:href="#CMR17-30" transform="translate(45.690477 0) scale(0.996264)"/>
       <use xlink:href="#CMSY10-0" transform="translate(91.380954 36.153639) scale(0.697382)"/>
       <use xlink:href="#CMR17-33" transform="translate(145.621947 36.153639) scale(0.697382)"/>
      </g>
     </g>
    </g>
    <g id="ytick_2">
     <g id="line2d_82">
      <path d="M 51.526495 135.291843 
L 459.916163 135.291843 
" clip-path="url(#p0771f646c6)" style="fill: none; stroke-dasharray: 1.85,0.8; stroke-dashoffset: 0; stroke: #e6e6e6; stroke-width: 0.5"/>
     </g>
     <g id="line2d_83">
      <g>
       <use xlink:href="#mdcdae70948" x="51.526495" y="135.291843" style="stroke: #000000; stroke-width: 0.5"/>
      </g>
     </g>
     <g id="line2d_84">
      <g>
       <use xlink:href="#m138e89e01f" x="459.916163" y="135.291843" style="stroke: #000000; stroke-width: 0.5"/>
      </g>
     </g>
     <g id="text_8">
      <!-- $\mathdefault{10^{-1}}$ -->
      <g transform="translate(21.547696 140.134781) scale(0.14 -0.14)">
       <use xlink:href="#CMR17-31" transform="scale(0.996264)"/>
       <use xlink:href="#CMR17-30" transform="translate(45.690477 0) scale(0.996264)"/>
       <use xlink:href="#CMSY10-0" transform="translate(91.380954 36.153639) scale(0.697382)"/>
       <use xlink:href="#CMR17-31" transform="translate(145.621947 36.153639) scale(0.697382)"/>
      </g>
     </g>
    </g>
    <g id="ytick_3">
     <g id="line2d_85">
      <path d="M 51.526495 78.881793 
L 459.916163 78.881793 
" clip-path="url(#p0771f646c6)" style="fill: none; stroke-dasharray: 1.85,0.8; stroke-dashoffset: 0; stroke: #e6e6e6; stroke-width: 0.5"/>
     </g>
     <g id="line2d_86">
      <g>
       <use xlink:href="#mdcdae70948" x="51.526495" y="78.881793" style="stroke: #000000; stroke-width: 0.5"/>
      </g>
     </g>
     <g id="line2d_87">
      <g>
       <use xlink:href="#m138e89e01f" x="459.916163" y="78.881793" style="stroke: #000000; stroke-width: 0.5"/>
      </g>
     </g>
     <g id="text_9">
      <!-- $\mathdefault{10^{1}}$ -->
      <g transform="translate(29.352291 83.724731) scale(0.14 -0.14)">
       <use xlink:href="#CMR17-31" transform="scale(0.996264)"/>
       <use xlink:href="#CMR17-30" transform="translate(45.690477 0) scale(0.996264)"/>
       <use xlink:href="#CMR17-31" transform="translate(91.380954 36.153639) scale(0.697382)"/>
      </g>
     </g>
    </g>
    <g id="ytick_4">
     <g id="line2d_88">
      <path d="M 51.526495 22.471744 
L 459.916163 22.471744 
" clip-path="url(#p0771f646c6)" style="fill: none; stroke-dasharray: 1.85,0.8; stroke-dashoffset: 0; stroke: #e6e6e6; stroke-width: 0.5"/>
     </g>
     <g id="line2d_89">
      <g>
       <use xlink:href="#mdcdae70948" x="51.526495" y="22.471744" style="stroke: #000000; stroke-width: 0.5"/>
      </g>
     </g>
     <g id="line2d_90">
      <g>
       <use xlink:href="#m138e89e01f" x="459.916163" y="22.471744" style="stroke: #000000; stroke-width: 0.5"/>
      </g>
     </g>
     <g id="text_10">
      <!-- $\mathdefault{10^{3}}$ -->
      <g transform="translate(29.352291 27.314682) scale(0.14 -0.14)">
       <use xlink:href="#CMR17-31" transform="scale(0.996264)"/>
       <use xlink:href="#CMR17-30" transform="translate(45.690477 0) scale(0.996264)"/>
       <use xlink:href="#CMR17-33" transform="translate(91.380954 36.153639) scale(0.697382)"/>
      </g>
     </g>
    </g>
    <g id="text_11">
     <!-- $I_{D}/W (A/m)$ -->
     <g transform="translate(14.060772 162.532604) rotate(-90) scale(0.14 -0.14)">
      <defs>
       <path id="CMMI12-57" d="M 5779 3646 
C 5926 3894 6067 4129 6451 4168 
C 6509 4174 6566 4180 6566 4282 
C 6566 4352 6509 4352 6490 4352 
C 6477 4352 6432 4352 6010 4352 
C 5818 4352 5619 4352 5434 4352 
C 5395 4352 5318 4352 5318 4226 
C 5318 4166 5370 4160 5408 4160 
C 5536 4160 5741 4122 5741 3925 
C 5741 3842 5715 3797 5651 3690 
L 3904 648 
L 3674 3963 
C 3674 4039 3744 4160 4102 4160 
C 4186 4160 4250 4160 4250 4286 
C 4250 4352 4186 4352 4154 4352 
C 3930 4352 3693 4352 3462 4352 
L 3130 4352 
C 3034 4352 2918 4352 2822 4352 
C 2784 4352 2707 4352 2707 4226 
C 2707 4160 2752 4160 2861 4160 
C 3155 4160 3155 4153 3181 3772 
L 3200 3543 
L 1542 648 
L 1306 3931 
C 1306 4002 1306 4160 1741 4160 
C 1811 4160 1882 4160 1882 4279 
C 1882 4352 1824 4352 1786 4352 
C 1562 4352 1325 4352 1094 4352 
L 762 4352 
C 666 4352 550 4352 454 4352 
C 416 4352 339 4352 339 4226 
C 339 4160 390 4160 480 4160 
C 781 4160 787 4121 800 3918 
L 1082 18 
C 1088 -90 1094 -128 1171 -128 
C 1235 -128 1248 -103 1306 -7 
L 3213 3307 
L 3450 18 
C 3456 -90 3462 -128 3539 -128 
C 3603 -128 3622 -96 3674 -7 
L 5779 3646 
z
" transform="scale(0.015625)"/>
      </defs>
      <use xlink:href="#CMMI12-49" transform="scale(0.996264)"/>
      <use xlink:href="#CMMI12-44" transform="translate(43.024176 -14.943915) scale(0.697382)"/>
      <use xlink:href="#CMMI12-3d" transform="translate(102.114811 0) scale(0.996264)"/>
      <use xlink:href="#CMMI12-57" transform="translate(150.88973 0) scale(0.996264)"/>
      <use xlink:href="#CMR17-28" transform="translate(256.534228 0) scale(0.996264)"/>
      <use xlink:href="#CMMI12-41" transform="translate(291.814996 0) scale(0.996264)"/>
      <use xlink:href="#CMMI12-3d" transform="translate(364.942881 0) scale(0.996264)"/>
      <use xlink:href="#CMMI12-6d" transform="translate(413.7178 0) scale(0.996264)"/>
      <use xlink:href="#CMR17-29" transform="translate(499.045024 0) scale(0.996264)"/>
     </g>
    </g>
   </g>
   <g id="line2d_91">
    <path d="M 438.088579 149.335184 
L 436.110472 146.113225 
L 433.914144 142.9075 
L 431.485409 139.719766 
L 428.811579 136.551887 
L 425.786234 133.405917 
L 422.253386 130.28575 
L 418.465017 127.194087 
L 414.424184 124.132907 
L 410.139478 121.104148 
L 405.625373 118.109656 
L 400.902143 115.151144 
L 395.995171 112.230144 
L 390.933526 109.347975 
L 385.747735 106.505724 
L 380.466759 103.704242 
L 375.114356 100.944175 
L 369.705175 98.226013 
L 364.241103 95.550183 
L 358.708512 92.917155 
L 353.077068 90.327568 
L 347.300643 87.782364 
L 341.320582 85.282892 
L 335.071167 82.830993 
L 328.48669 80.429021 
L 321.509179 78.079819 
L 314.095652 75.786628 
L 306.223834 73.552945 
L 297.895571 71.382349 
L 289.137577 69.278307 
L 279.999634 67.243986 
L 270.550707 65.282088 
L 260.873695 63.394721 
L 251.059586 61.58331 
L 241.201731 59.848561 
L 231.390766 58.190458 
L 221.710551 56.608305 
L 212.235258 55.100788 
L 203.0276 53.66606 
L 194.138094 52.301831 
L 185.605146 51.005468 
L 177.455765 49.77408 
L 169.70668 48.604611 
L 162.365703 47.493905 
L 155.433169 46.43878 
L 148.903358 45.436072 
L 142.765821 44.482685 
L 137.006574 43.575614 
L 131.60912 42.711977 
L 126.555319 41.889025 
L 121.826095 41.104157 
L 117.401997 40.35492 
L 113.263638 39.639012 
L 109.392025 38.954284 
L 105.768796 38.298729 
L 102.376386 37.670481 
L 99.198133 37.06781 
L 96.218341 36.489108 
L 93.422301 35.932887 
L 90.796293 35.397771 
L 88.327565 34.882485 
L 86.004296 34.385851 
L 83.815554 33.90678 
L 81.751248 33.444263 
L 79.802074 32.997367 
L 77.959461 32.56523 
L 76.215519 32.147053 
L 74.562988 31.742096 
L 72.995187 31.349674 
L 71.505965 30.969149 
L 70.089662 30.599934 
" clip-path="url(#p0771f646c6)" style="fill: none; stroke: #0c5da5; stroke-width: 1.5; stroke-linecap: square"/>
   </g>
   <g id="line2d_92">
    <path d="M 440.846339 164.44062 
L 439.202663 161.19575 
L 437.366704 157.964398 
L 435.324523 154.748121 
L 433.062665 151.548584 
L 430.471719 148.367655 
L 427.390112 145.209082 
L 424.068139 142.075439 
L 420.503584 138.96861 
L 416.698979 135.890478 
L 412.662377 132.842886 
L 408.40791 129.82759 
L 403.955974 126.846212 
L 399.332882 123.900191 
L 394.569834 120.990742 
L 389.701071 118.118822 
L 384.761168 115.28512 
L 379.781537 112.490063 
L 374.786386 109.733861 
L 369.788553 107.016577 
L 364.785807 104.338228 
L 359.758304 101.698919 
L 354.667861 99.09898 
L 349.459512 96.539104 
L 344.065508 94.020467 
L 338.411454 91.544804 
L 332.423865 89.114428 
L 326.038116 86.732197 
L 319.20565 84.401414 
L 311.899449 82.125678 
L 304.1171 79.908704 
L 295.881233 77.754129 
L 287.237507 75.665321 
L 278.250697 73.645215 
L 268.999551 71.696184 
L 259.571171 69.81995 
L 250.055558 68.017543 
L 240.540782 66.289299 
L 231.109115 64.634884 
L 221.834208 63.053358 
L 212.779331 61.543248 
L 203.996549 60.102629 
L 195.526665 58.729215 
L 187.399753 57.420448 
L 179.636079 56.17357 
L 172.247279 54.985701 
L 165.237622 53.853902 
L 158.605293 52.775222 
L 152.343611 51.746747 
L 146.442131 50.765628 
L 140.887624 49.82911 
L 135.664903 48.934549 
L 130.757525 48.079423 
L 126.148356 47.261344 
L 121.820015 46.478056 
L 117.755229 45.72744 
L 113.937091 45.007509 
L 110.349253 44.316406 
L 106.976058 43.652399 
L 103.802624 43.013875 
L 100.814896 42.399332 
L 97.999663 41.807377 
L 95.344562 41.236714 
L 92.838053 40.686143 
L 90.469401 40.154546 
L 88.22863 39.640891 
L 86.106491 39.144218 
L 84.094412 38.663636 
L 82.184458 38.198318 
L 80.369281 37.747499 
L 78.642082 37.310467 
" clip-path="url(#p0771f646c6)" style="fill: none; stroke: #00b945; stroke-width: 1.5; stroke-linecap: square"/>
   </g>
   <g id="line2d_93">
    <path d="M 441.32069 174.684605 
L 439.750748 171.435849 
L 437.990892 168.199995 
L 436.028524 164.978589 
L 433.851069 161.773269 
L 431.349409 158.585869 
L 428.361656 155.420106 
L 425.138469 152.278516 
L 421.677288 149.16295 
L 417.980123 146.075258 
L 414.054402 143.017253 
L 409.913633 139.990669 
L 405.57773 136.997108 
L 401.072856 134.037992 
L 396.430611 131.114516 
L 391.686423 128.227616 
L 386.877065 125.377942 
L 382.037321 122.565863 
L 377.195991 119.791499 
L 372.371596 117.054783 
L 367.568326 114.355555 
L 362.772919 111.69369 
L 357.953141 109.069241 
L 353.05846 106.482584 
L 348.023172 103.934548 
L 342.771852 101.426519 
L 337.226557 98.960483 
L 331.314831 96.53902 
L 324.9774 94.165223 
L 318.174481 91.842578 
L 310.889896 89.574789 
L 303.132624 87.365589 
L 294.935792 85.218544 
L 286.353558 83.136881 
L 277.456493 81.123333 
L 268.326193 79.180041 
L 259.049801 77.308483 
L 249.714967 75.509455 
L 240.405609 73.783082 
L 231.198669 72.12886 
L 222.161903 70.545721 
L 213.352628 69.032109 
L 204.817292 67.586065 
L 196.591692 66.20531 
L 188.701664 64.887323 
L 181.164073 63.629421 
L 173.987975 62.428819 
L 167.175832 61.282688 
L 160.724702 60.188201 
L 154.627356 59.142572 
L 148.873273 58.143086 
L 143.449516 57.187118 
L 138.341472 56.272152 
L 133.53347 55.395788 
L 129.009275 54.555753 
L 124.752486 53.7499 
L 120.746839 52.976211 
L 116.976437 52.232791 
L 113.425917 51.517869 
L 110.080565 50.829789 
L 106.926385 50.167008 
L 103.950146 49.52809 
L 101.139397 48.911697 
L 98.482461 48.316586 
L 95.968422 47.741603 
L 93.587094 47.185674 
L 91.328994 46.647802 
L 89.185297 46.127062 
L 87.147799 45.622596 
L 85.208877 45.133606 
L 83.361442 44.659351 
" clip-path="url(#p0771f646c6)" style="fill: none; stroke: #ff9500; stroke-width: 1.5; stroke-linecap: square"/>
   </g>
   <g id="line2d_94">
    <path d="M 441.352996 183.758178 
L 439.818246 180.509231 
L 438.087954 177.272875 
L 436.151881 174.050706 
L 433.999115 170.844396 
L 431.521678 167.655796 
L 428.558425 164.488628 
L 425.360719 161.345431 
L 421.926467 158.228045 
L 418.258055 155.138312 
L 414.363243 152.078031 
L 410.25587 149.048919 
L 405.956222 146.052557 
L 401.490922 143.090343 
L 396.892155 140.163448 
L 392.196106 137.272771 
L 387.440508 134.418923 
L 382.661323 131.602227 
L 377.888743 128.822744 
L 373.142844 126.080336 
L 368.429443 123.374762 
L 363.73684 120.705803 
L 359.034117 118.073405 
L 354.271608 115.477828 
L 349.383826 112.919786 
L 344.294766 110.400544 
L 338.92501 107.921981 
L 333.199748 105.48658 
L 327.056567 103.097362 
L 320.451954 100.757767 
L 313.365665 98.471482 
L 305.802536 96.242256 
L 297.791757 94.073704 
L 289.383969 91.969127 
L 280.646818 89.931363 
L 271.659672 87.962673 
L 262.508174 86.064672 
L 253.279188 84.238301 
L 244.056494 82.483835 
L 234.917453 80.800917 
L 225.930689 79.188624 
L 217.154723 77.645534 
L 208.637438 76.169812 
L 200.416201 74.759292 
L 192.518469 73.411554 
L 184.962716 72.124002 
L 177.759543 70.893927 
L 170.91286 69.718564 
L 164.421054 68.595138 
L 158.278091 67.520907 
L 152.47451 66.49319 
L 146.998299 65.509388 
L 141.835644 64.567005 
L 136.971552 63.663656 
L 132.39036 62.797076 
L 128.076142 61.965125 
L 124.013023 61.165785 
L 120.185421 60.397161 
L 116.578221 59.657477 
L 113.176903 58.945075 
L 109.967617 58.258405 
L 106.937238 57.596023 
L 104.07338 56.956584 
L 101.364409 56.338837 
L 98.79942 55.741617 
L 96.368219 55.163844 
L 94.061291 54.604513 
L 91.869765 54.06269 
L 89.78537 53.537509 
L 87.800402 53.028165 
L 85.907678 52.533912 
" clip-path="url(#p0771f646c6)" style="fill: none; stroke: #ff2c00; stroke-width: 1.5; stroke-linecap: square"/>
   </g>
   <g id="line2d_95">
    <path d="M 441.228565 192.479009 
L 439.739825 189.231243 
L 438.041829 185.995645 
L 436.128841 182.773937 
L 433.993085 179.567873 
L 431.528778 176.379361 
L 428.576314 173.212162 
L 425.388182 170.068833 
L 421.963132 166.95123 
L 418.304206 163.861197 
L 414.419708 160.800534 
L 410.323959 157.77095 
L 406.037701 154.774016 
L 401.588008 151.811117 
L 397.00753 148.883403 
L 392.332933 145.991753 
L 387.602448 143.136752 
L 382.852546 140.318691 
L 378.11392 137.537598 
L 373.407117 134.793297 
L 368.738371 132.085507 
L 364.096298 129.413963 
L 359.450169 126.778566 
L 354.750327 124.179529 
L 349.931093 121.61752 
L 344.916037 119.09376 
L 339.625079 116.610089 
L 333.982516 114.168955 
L 327.924839 111.773356 
L 321.407276 109.426713 
L 314.408222 107.132707 
L 306.931116 104.895089 
L 299.003784 102.717487 
L 290.675606 100.603227 
L 282.013125 98.555178 
L 273.094808 96.575643 
L 264.005618 94.666283 
L 254.83197 92.828093 
L 245.657411 91.061401 
L 236.559272 89.365908 
L 227.60632 87.740745 
L 218.857361 86.184546 
L 210.360675 84.695528 
L 202.154102 83.271572 
L 194.265625 81.910304 
L 186.714266 80.609167 
L 179.511181 79.365489 
L 172.660821 78.176534 
L 166.162089 77.039558 
L 160.009431 75.951842 
L 154.19383 74.910722 
L 148.703675 73.913618 
L 143.525509 72.958048 
L 138.644656 72.041636 
L 134.045729 71.162129 
L 129.713041 70.317391 
L 125.630921 69.505409 
L 121.783962 68.724292 
L 118.157196 67.972268 
L 114.736222 67.247678 
L 111.507291 66.548973 
L 108.457355 65.874708 
L 105.574092 65.223538 
L 102.845912 64.59421 
L 100.261942 63.985559 
L 97.812008 63.396502 
L 95.486599 62.826031 
L 93.276838 62.273211 
L 91.174439 61.737174 
L 89.171668 61.217115 
L 87.261299 60.712283 
" clip-path="url(#p0771f646c6)" style="fill: none; stroke: #845b97; stroke-width: 1.5; stroke-linecap: square"/>
   </g>
   <g id="line2d_96">
    <path d="M 440.956713 201.087644 
L 439.556519 197.842435 
L 437.919107 194.608577 
L 436.047617 191.388046 
L 433.940416 188.18277 
L 431.495977 184.994778 
L 428.557631 181.827909 
L 425.379898 178.684778 
L 421.962979 175.567274 
L 418.310952 172.477264 
L 414.432881 169.416561 
L 410.343668 166.386878 
L 406.064522 163.389788 
L 401.622914 160.426671 
L 397.051844 157.498672 
L 392.388304 154.606657 
L 387.670826 151.7512 
L 382.936166 148.932578 
L 378.215274 146.150799 
L 373.528923 143.405671 
L 368.883526 140.696889 
L 364.267823 138.02417 
L 359.651143 135.387391 
L 354.983799 132.786746 
L 350.199994 130.222878 
L 345.223081 127.696993 
L 339.972667 125.210911 
L 334.372631 122.767066 
L 328.358949 120.368445 
L 321.886245 118.018458 
L 314.932237 115.720781 
L 307.499644 113.479164 
L 299.615573 111.297234 
L 291.328735 109.178323 
L 282.705096 107.125311 
L 273.822666 105.140516 
L 264.766085 103.225621 
L 255.621566 101.381643 
L 246.47257 99.608937 
L 237.396432 97.907233 
L 228.462002 96.275689 
L 219.728231 94.712966 
L 211.24359 93.217308 
L 203.046145 91.78662 
L 195.164124 90.418552 
L 187.616808 89.110567 
L 180.415612 87.86001 
L 173.565243 86.664165 
L 167.064847 85.520301 
L 160.909103 84.425709 
L 155.089203 83.37774 
L 149.593734 82.373821 
L 144.409412 81.411477 
L 139.521718 80.488341 
L 134.915403 79.602162 
L 130.574899 78.750809 
L 126.484642 77.932274 
L 122.629313 77.144667 
L 118.994021 76.386218 
L 115.564428 75.655269 
L 112.326838 74.950271 
L 109.268247 74.269781 
L 106.376367 73.612453 
L 103.639635 72.977034 
L 101.047197 72.362358 
L 98.588888 71.767341 
L 96.255205 71.190976 
L 94.037268 70.632327 
L 91.926783 70.090525 
L 89.915999 69.564764 
L 87.997669 69.054294 
" clip-path="url(#p0771f646c6)" style="fill: none; stroke: #474747; stroke-width: 1.5; stroke-linecap: square"/>
   </g>
   <g id="line2d_97">
    <path d="M 440.41168 209.636616 
L 439.187793 206.396538 
L 437.670784 203.166184 
L 435.881361 199.948037 
L 433.830056 196.744379 
L 431.423755 193.557478 
L 428.511564 190.391341 
L 425.351942 187.248692 
L 421.947847 184.1315 
L 418.305257 181.041681 
L 414.434559 177.981082 
L 410.351585 174.951438 
L 406.078217 171.954336 
L 401.642423 168.991161 
L 397.077593 166.063061 
L 392.421031 163.170903 
L 387.711536 160.315256 
L 382.986099 157.496393 
L 378.275877 154.714316 
L 373.601831 151.968824 
L 368.970533 149.259607 
L 364.37087 146.586373 
L 359.772283 143.948992 
L 355.125153 141.347649 
L 350.363701 138.782982 
L 345.411247 136.256191 
L 340.187282 133.769091 
L 334.615469 131.324111 
L 328.631441 128.924231 
L 322.189323 126.572854 
L 315.266177 124.273643 
L 307.863948 122.030331 
L 300.008935 119.846532 
L 291.749112 117.72556 
L 283.149885 115.670288 
L 274.288928 113.683033 
L 265.250766 111.765485 
L 256.121669 109.918676 
L 246.985273 108.142979 
L 237.91915 106.438144 
L 228.992409 104.803352 
L 220.264263 103.237283 
L 211.783431 101.738201 
L 203.588209 100.304028 
L 195.707039 98.932429 
L 188.159393 97.620883 
L 180.95686 96.366745 
L 174.104303 95.167309 
L 167.601008 94.019854 
L 161.441778 92.921679 
L 155.617916 91.870141 
L 150.118104 90.862671 
L 144.929144 89.8968 
L 140.03659 88.970164 
L 135.425256 88.080514 
L 131.079627 87.225724 
L 126.984186 86.403785 
L 123.123651 85.61281 
L 119.483162 84.851028 
L 116.048409 84.116784 
L 112.805715 83.40853 
L 109.742093 82.724821 
L 106.845267 82.064312 
L 104.10368 81.42575 
L 101.506484 80.807969 
L 99.043517 80.209885 
L 96.705271 79.630491 
L 94.482863 79.068851 
L 92.367988 78.524094 
L 90.352884 77.995416 
L 88.43029 77.482066 
" clip-path="url(#p0771f646c6)" style="fill: none; stroke: #9e9e9e; stroke-width: 1.5; stroke-linecap: square"/>
   </g>
   <g id="line2d_98">
    <path d="M 439.325363 218.13752 
L 438.451991 214.907691 
L 437.174767 211.68435 
L 435.548879 208.470991 
L 433.608873 205.270595 
L 431.278299 202.085912 
L 428.417709 198.92128 
L 425.293362 195.779654 
L 421.913659 192.663157 
L 418.288301 189.573813 
L 414.430227 186.513539 
L 410.357032 183.484122 
L 406.091827 180.487178 
L 401.663456 177.524119 
L 397.105956 174.596105 
L 392.457129 171.704016 
L 387.756186 168.848427 
L 383.040474 166.029618 
L 378.341489 163.247596 
L 373.680522 160.502167 
L 369.064483 157.793026 
L 364.482618 155.11989 
L 359.904745 152.482638 
L 355.281603 149.881469 
L 350.547751 147.317034 
L 345.626779 144.790546 
L 340.438309 142.303835 
L 334.905882 139.859338 
L 328.964622 137.460032 
L 322.567633 135.109299 
L 315.690401 132.810761 
L 308.33284 130.568088 
L 300.519054 128.384815 
L 292.295062 126.264184 
L 283.724915 124.209004 
L 274.885708 122.221558 
L 265.862119 120.303529 
L 256.741108 118.455962 
L 247.607298 116.679262 
L 238.539336 114.973214 
L 229.607359 113.33704 
L 220.87148 111.769455 
L 212.381167 110.268757 
L 204.175316 108.832896 
L 196.28283 107.459561 
L 188.723534 106.146248 
L 181.509275 104.89033 
L 174.645104 103.689113 
L 168.130441 102.539885 
L 161.960179 101.439953 
L 156.125685 100.38668 
L 150.615675 99.377503 
L 145.416976 98.409955 
L 140.515146 97.481676 
L 135.895002 96.59042 
L 131.541022 95.73406 
L 127.437676 94.91059 
L 123.569669 94.118124 
L 119.922126 93.354891 
L 116.480717 92.619237 
L 113.23175 91.909613 
L 110.162216 91.224576 
L 107.259823 90.56278 
L 104.512994 89.922973 
L 101.910863 89.303989 
L 99.443247 88.704744 
L 97.100623 88.12423 
L 94.874085 87.561513 
L 92.75531 87.015723 
L 90.736516 86.486053 
L 88.810419 85.971757 
" clip-path="url(#p0771f646c6)" style="fill: none; stroke: #daa520; stroke-width: 1.5; stroke-linecap: square"/>
   </g>
   <g id="patch_3">
    <path d="M 51.526495 227.514399 
L 51.526495 21.223055 
" style="fill: none; stroke: #000000; stroke-width: 0.5; stroke-linejoin: miter; stroke-linecap: square"/>
   </g>
   <g id="patch_4">
    <path d="M 459.916163 227.514399 
L 459.916163 21.223055 
" style="fill: none; stroke: #000000; stroke-width: 0.5; stroke-linejoin: miter; stroke-linecap: square"/>
   </g>
   <g id="patch_5">
    <path d="M 51.526495 227.514399 
L 459.916163 227.514399 
" style="fill: none; stroke: #000000; stroke-width: 0.5; stroke-linejoin: miter; stroke-linecap: square"/>
   </g>
   <g id="patch_6">
    <path d="M 51.526495 21.223055 
L 459.916163 21.223055 
" style="fill: none; stroke: #000000; stroke-width: 0.5; stroke-linejoin: miter; stroke-linecap: square"/>
   </g>
   <g id="text_12">
    <!-- NMOS_VTH, $V_{ \mathrm{ SB } }=0.00$, $V_{ \mathrm{ DS } }=0.50$ -->
    <g transform="translate(126.195006 15.223055) scale(0.168 -0.168)">
     <defs>
      <path id="CMSS17-4e" d="M 1466 4180 
L 1350 4416 
L 563 4416 
L 563 0 
L 1062 0 
L 1062 3926 
L 1069 3932 
C 1114 3817 1139 3760 1402 3194 
L 2771 236 
L 2886 0 
L 3674 0 
L 3674 4416 
L 3174 4416 
L 3174 490 
L 3168 483 
C 3123 598 3098 655 2835 1221 
L 1466 4180 
z
" transform="scale(0.015625)"/>
      <path id="CMSS17-4d" d="M 3194 2371 
L 2886 1473 
C 2835 1307 2662 791 2624 587 
L 2618 587 
C 2598 715 2560 849 2458 1174 
C 2400 1365 2336 1562 2272 1741 
L 1325 4416 
L 576 4416 
L 576 0 
L 1075 0 
L 1075 3900 
L 1082 3900 
C 1082 3894 1139 3613 1530 2499 
L 2374 96 
L 2848 96 
L 3610 2231 
C 3661 2378 3821 2843 3891 3066 
C 3955 3257 4115 3728 4154 3913 
L 4160 3913 
L 4160 0 
L 4666 0 
L 4666 4416 
L 3923 4416 
L 3194 2371 
z
" transform="scale(0.015625)"/>
      <path id="CMSS17-4f" d="M 4096 2178 
C 4096 3503 3219 4497 2214 4497 
C 1210 4497 333 3497 333 2178 
C 333 847 1222 -128 2214 -128 
C 3206 -128 4096 847 4096 2178 
z
M 2214 273 
C 1510 273 870 1057 870 2261 
C 870 3433 1549 4096 2214 4096 
C 2880 4096 3558 3433 3558 2261 
C 3558 1051 2912 273 2214 273 
z
" transform="scale(0.015625)"/>
      <path id="CMSS17-53" d="M 2797 4169 
C 2515 4334 2208 4480 1690 4480 
C 864 4480 333 3879 333 3266 
C 333 3025 403 2753 653 2475 
C 902 2196 1184 2121 1542 2033 
C 1690 1994 1939 1924 1984 1906 
C 2342 1767 2515 1444 2515 1140 
C 2515 742 2202 318 1645 318 
C 1453 318 890 318 358 819 
L 269 318 
C 794 -64 1363 -128 1651 -128 
C 2438 -128 3002 488 3002 1186 
C 3002 1440 2925 1763 2656 2061 
C 2394 2347 2163 2410 1638 2549 
C 1338 2626 1146 2677 986 2873 
C 877 3013 819 3146 819 3317 
C 819 3673 1126 4060 1690 4060 
C 1971 4060 2336 4002 2707 3660 
L 2797 4169 
z
" transform="scale(0.015625)"/>
      <path id="CMSS17-56" d="M 3910 4416 
L 3411 4416 
L 2304 1362 
C 2272 1273 2074 688 2035 484 
L 2029 484 
C 1978 726 1773 1292 1664 1604 
L 922 3672 
L 646 4416 
L 83 4416 
L 1715 0 
L 2278 0 
L 3910 4416 
z
" transform="scale(0.015625)"/>
      <path id="CMSS17-54" d="M 2317 3968 
L 2848 3968 
C 2925 3968 3002 3968 3078 3968 
L 3878 3968 
L 3878 4376 
L 218 4376 
L 218 3968 
L 1018 3968 
C 1094 3968 1171 3968 1248 3968 
L 1779 3968 
L 1779 -32 
L 2317 -32 
L 2317 3968 
z
" transform="scale(0.015625)"/>
      <path id="CMSS17-48" d="M 3674 4416 
L 3136 4416 
L 3136 2501 
L 1101 2501 
L 1101 4416 
L 563 4416 
L 563 0 
L 1101 0 
L 1101 2112 
L 3136 2112 
L 3136 0 
L 3674 0 
L 3674 4416 
z
" transform="scale(0.015625)"/>
      <path id="CMSS17-2c" d="M 1088 6 
L 1088 510 
L 576 510 
L 576 0 
L 736 0 
L 570 -800 
L 826 -800 
L 1088 6 
z
" transform="scale(0.015625)"/>
      <path id="CMMI12-56" d="M 3962 3640 
C 4179 3984 4378 4136 4704 4162 
C 4768 4168 4819 4168 4819 4282 
C 4819 4308 4806 4346 4749 4346 
C 4634 4346 4358 4346 4243 4346 
C 4058 4346 3866 4346 3686 4346 
C 3635 4346 3571 4346 3571 4226 
C 3571 4168 3629 4162 3654 4162 
C 3891 4143 3917 4029 3917 3952 
C 3917 3857 3827 3710 3821 3704 
L 1811 540 
L 1363 3969 
C 1363 4160 1696 4160 1766 4160 
C 1862 4160 1920 4160 1920 4282 
C 1920 4346 1850 4346 1830 4346 
C 1722 4346 1594 4346 1485 4346 
L 1126 4346 
C 659 4346 467 4346 461 4346 
C 422 4346 346 4346 346 4230 
C 346 4160 390 4160 493 4160 
C 819 4160 838 4102 858 3944 
L 1370 24 
C 1389 -109 1389 -128 1478 -128 
C 1555 -128 1587 -109 1651 -8 
L 3962 3640 
z
" transform="scale(0.015625)"/>
      <path id="CMR17-53" d="M 2803 4290 
C 2803 4404 2797 4411 2758 4411 
C 2720 4411 2707 4385 2682 4328 
L 2490 3907 
C 2246 4257 1875 4416 1472 4416 
C 819 4416 294 3901 294 3253 
C 294 3056 339 2776 557 2510 
C 794 2218 1018 2167 1530 2033 
C 1722 1982 2042 1899 2106 1874 
C 2470 1722 2662 1341 2662 985 
C 2662 527 2336 38 1779 38 
C 1094 38 454 419 410 1311 
C 403 1413 397 1419 352 1419 
C 301 1419 294 1413 294 1285 
L 294 -1 
C 294 -115 301 -122 339 -122 
C 384 -122 397 -90 486 108 
C 493 127 493 140 614 381 
C 934 -39 1472 -128 1779 -128 
C 2477 -128 2970 451 2970 1124 
C 2970 1454 2848 1708 2778 1823 
C 2509 2230 2221 2306 1914 2382 
C 1869 2402 1856 2402 1498 2490 
C 1152 2579 1005 2624 845 2796 
C 666 2992 602 3196 602 3399 
C 602 3812 934 4263 1478 4263 
C 2157 4263 2579 3786 2675 2993 
C 2694 2878 2701 2872 2746 2872 
C 2803 2872 2803 2891 2803 2999 
L 2803 4290 
z
" transform="scale(0.015625)"/>
      <path id="CMR17-42" d="M 333 4352 
L 333 4186 
C 774 4186 845 4186 845 3900 
L 845 452 
C 845 166 774 166 333 166 
L 333 0 
L 2534 0 
C 3354 0 3885 583 3885 1164 
C 3885 1741 3360 2233 2675 2233 
C 3290 2356 3718 2771 3718 3264 
C 3718 3802 3194 4352 2368 4352 
L 333 4352 
z
M 1248 2304 
L 1248 3937 
C 1248 4155 1261 4186 1517 4186 
L 2336 4186 
C 2970 4186 3251 3674 3251 3277 
C 3251 2791 2861 2304 2170 2304 
L 1248 2304 
z
M 1517 166 
C 1261 166 1248 197 1248 413 
L 1248 2202 
L 2432 2202 
C 3091 2202 3411 1625 3411 1162 
C 3411 699 3046 166 2349 166 
L 1517 166 
z
" transform="scale(0.015625)"/>
      <path id="CMR17-3d" d="M 4115 2017 
C 4211 2017 4307 2017 4307 2125 
C 4307 2240 4198 2240 4090 2240 
L 512 2240 
C 403 2240 294 2240 294 2125 
C 294 2017 390 2017 486 2017 
L 4115 2017 
z
M 4090 896 
C 4198 896 4307 896 4307 1011 
C 4307 1119 4211 1119 4115 1119 
L 486 1119 
C 390 1119 294 1119 294 1011 
C 294 896 403 896 512 896 
L 4090 896 
z
" transform="scale(0.015625)"/>
      <path id="CMMI12-3a" d="M 1178 307 
C 1178 492 1024 619 870 619 
C 685 619 557 466 557 313 
C 557 128 710 0 864 0 
C 1050 0 1178 153 1178 307 
z
" transform="scale(0.015625)"/>
      <path id="CMR17-44" d="M 333 4352 
L 333 4186 
C 774 4186 845 4186 845 3900 
L 845 452 
C 845 166 774 166 333 166 
L 333 0 
L 2368 0 
C 3398 0 4224 943 4224 2141 
C 4224 3346 3411 4352 2368 4352 
L 333 4352 
z
M 1523 166 
C 1267 166 1254 197 1254 414 
L 1254 3938 
C 1254 4155 1267 4186 1523 4186 
L 2240 4186 
C 2771 4186 3750 3874 3750 2141 
C 3750 1242 3488 879 3366 707 
C 3213 510 2848 166 2240 166 
L 1523 166 
z
" transform="scale(0.015625)"/>
     </defs>
     <use xlink:href="#CMSS17-4e" transform="scale(0.996264)"/>
     <use xlink:href="#CMSS17-4d" transform="translate(66.061519 0) scale(0.996264)"/>
     <use xlink:href="#CMSS17-4f" transform="translate(147.737549 0) scale(0.996264)"/>
     <use xlink:href="#CMSS17-53" transform="translate(216.761804 0) scale(0.996264)"/>
     <use xlink:href="#CMSS17-56" transform="translate(302.537816 0) scale(0.996264)"/>
     <use xlink:href="#CMSS17-54" transform="translate(364.755671 0) scale(0.996264)"/>
     <use xlink:href="#CMSS17-48" transform="translate(428.575125 0) scale(0.996264)"/>
     <use xlink:href="#CMSS17-2c" transform="translate(494.636644 0) scale(0.996264)"/>
     <use xlink:href="#CMMI12-56" transform="translate(551.889962 0) scale(0.996264)"/>
     <use xlink:href="#CMR17-53" transform="translate(608.759541 -14.943915) scale(0.697382)"/>
     <use xlink:href="#CMR17-42" transform="translate(644.386149 -14.943915) scale(0.697382)"/>
     <use xlink:href="#CMR17-3d" transform="translate(718.19021 0) scale(0.996264)"/>
     <use xlink:href="#CMR17-30" transform="translate(817.579007 0) scale(0.996264)"/>
     <use xlink:href="#CMMI12-3a" transform="translate(863.269484 0) scale(0.996264)"/>
     <use xlink:href="#CMR17-30" transform="translate(890.366661 0) scale(0.996264)"/>
     <use xlink:href="#CMR17-30" transform="translate(936.057138 0) scale(0.996264)"/>
     <use xlink:href="#CMSS17-2c" transform="translate(981.747615 0) scale(0.996264)"/>
     <use xlink:href="#CMMI12-56" transform="translate(1039.000933 0) scale(0.996264)"/>
     <use xlink:href="#CMR17-44" transform="translate(1095.870512 -14.943915) scale(0.697382)"/>
     <use xlink:href="#CMR17-53" transform="translate(1145.145782 -14.943915) scale(0.697382)"/>
     <use xlink:href="#CMR17-3d" transform="translate(1208.944531 0) scale(0.996264)"/>
     <use xlink:href="#CMR17-30" transform="translate(1308.333328 0) scale(0.996264)"/>
     <use xlink:href="#CMMI12-3a" transform="translate(1354.023805 0) scale(0.996264)"/>
     <use xlink:href="#CMR17-35" transform="translate(1381.120982 0) scale(0.996264)"/>
     <use xlink:href="#CMR17-30" transform="translate(1426.81146 0) scale(0.996264)"/>
     <path d="M 274.431332 0 
L 302.537816 0 
L 302.537816 0.3985 
L 274.431332 0.3985 
L 274.431332 0 
z
"/>
    </g>
   </g>
   <g id="legend_1">
    <g id="line2d_99">
     <path d="M 472.516163 54.720613 
L 486.516163 54.720613 
L 500.516163 54.720613 
" style="fill: none; stroke: #0c5da5; stroke-width: 1.5; stroke-linecap: square"/>
    </g>
    <g id="text_13">
     <!-- $50$ n -->
     <g transform="translate(511.716163 59.620613) scale(0.14 -0.14)">
      <defs>
       <path id="CMSS17-6e" d="M 2618 1877 
C 2618 2283 2522 2816 1798 2816 
C 1389 2816 1120 2606 941 2389 
L 941 2758 
L 474 2758 
L 474 0 
L 960 0 
L 960 1559 
C 960 1964 1114 2428 1549 2428 
C 2112 2428 2131 2048 2131 1829 
L 2131 0 
L 2618 0 
L 2618 1877 
z
" transform="scale(0.015625)"/>
      </defs>
      <use xlink:href="#CMR17-35" transform="scale(0.996264)"/>
      <use xlink:href="#CMR17-30" transform="translate(45.690477 0) scale(0.996264)"/>
      <use xlink:href="#CMSS17-6e" transform="translate(122.610067 0) scale(0.996264)"/>
     </g>
    </g>
    <g id="line2d_100">
     <path d="M 472.516163 74.232642 
L 486.516163 74.232642 
L 500.516163 74.232642 
" style="fill: none; stroke: #00b945; stroke-width: 1.5; stroke-linecap: square"/>
    </g>
    <g id="text_14">
     <!-- $100$ n -->
     <g transform="translate(511.716163 79.132642) scale(0.14 -0.14)">
      <use xlink:href="#CMR17-31" transform="scale(0.996264)"/>
      <use xlink:href="#CMR17-30" transform="translate(45.690477 0) scale(0.996264)"/>
      <use xlink:href="#CMR17-30" transform="translate(91.380954 0) scale(0.996264)"/>
      <use xlink:href="#CMSS17-6e" transform="translate(168.300544 0) scale(0.996264)"/>
     </g>
    </g>
    <g id="line2d_101">
     <path d="M 472.516163 93.74467 
L 486.516163 93.74467 
L 500.516163 93.74467 
" style="fill: none; stroke: #ff9500; stroke-width: 1.5; stroke-linecap: square"/>
    </g>
    <g id="text_15">
     <!-- $200$ n -->
     <g transform="translate(511.716163 98.64467) scale(0.14 -0.14)">
      <use xlink:href="#CMR17-32" transform="scale(0.996264)"/>
      <use xlink:href="#CMR17-30" transform="translate(45.690477 0) scale(0.996264)"/>
      <use xlink:href="#CMR17-30" transform="translate(91.380954 0) scale(0.996264)"/>
      <use xlink:href="#CMSS17-6e" transform="translate(168.300544 0) scale(0.996264)"/>
     </g>
    </g>
    <g id="line2d_102">
     <path d="M 472.516163 113.256699 
L 486.516163 113.256699 
L 500.516163 113.256699 
" style="fill: none; stroke: #ff2c00; stroke-width: 1.5; stroke-linecap: square"/>
    </g>
    <g id="text_16">
     <!-- $400$ n -->
     <g transform="translate(511.716163 118.156699) scale(0.14 -0.14)">
      <defs>
       <path id="CMR17-34" d="M 2150 4122 
C 2150 4256 2144 4256 2029 4256 
L 128 1254 
L 128 1088 
L 1779 1088 
L 1779 457 
C 1779 224 1766 160 1318 160 
L 1197 160 
L 1197 0 
C 1402 0 1747 0 1965 0 
C 2182 0 2528 0 2733 0 
L 2733 160 
L 2611 160 
C 2163 160 2150 224 2150 457 
L 2150 1088 
L 2803 1088 
L 2803 1254 
L 2150 1254 
L 2150 4122 
z
M 1798 3703 
L 1798 1254 
L 256 1254 
L 1798 3703 
z
" transform="scale(0.015625)"/>
      </defs>
      <use xlink:href="#CMR17-34" transform="scale(0.996264)"/>
      <use xlink:href="#CMR17-30" transform="translate(45.690477 0) scale(0.996264)"/>
      <use xlink:href="#CMR17-30" transform="translate(91.380954 0) scale(0.996264)"/>
      <use xlink:href="#CMSS17-6e" transform="translate(168.300544 0) scale(0.996264)"/>
     </g>
    </g>
    <g id="line2d_103">
     <path d="M 472.516163 132.768727 
L 486.516163 132.768727 
L 500.516163 132.768727 
" style="fill: none; stroke: #845b97; stroke-width: 1.5; stroke-linecap: square"/>
    </g>
    <g id="text_17">
     <!-- $800$ n -->
     <g transform="translate(511.716163 137.668727) scale(0.14 -0.14)">
      <defs>
       <path id="CMR17-38" d="M 1741 2264 
C 2144 2467 2554 2773 2554 3263 
C 2554 3841 1990 4179 1472 4179 
C 890 4179 378 3759 378 3180 
C 378 3021 416 2747 666 2505 
C 730 2442 998 2251 1171 2130 
C 883 1983 211 1634 211 934 
C 211 279 838 -128 1459 -128 
C 2144 -128 2720 362 2720 1010 
C 2720 1590 2330 1857 2074 2029 
L 1741 2264 
z
M 902 2822 
C 851 2854 595 3051 595 3351 
C 595 3739 998 4032 1459 4032 
C 1965 4032 2336 3676 2336 3262 
C 2336 2669 1670 2331 1638 2331 
C 1632 2331 1626 2331 1574 2370 
L 902 2822 
z
M 2080 1519 
C 2176 1449 2483 1240 2483 851 
C 2483 381 2010 25 1472 25 
C 890 25 448 438 448 940 
C 448 1443 838 1862 1280 2060 
L 2080 1519 
z
" transform="scale(0.015625)"/>
      </defs>
      <use xlink:href="#CMR17-38" transform="scale(0.996264)"/>
      <use xlink:href="#CMR17-30" transform="translate(45.690477 0) scale(0.996264)"/>
      <use xlink:href="#CMR17-30" transform="translate(91.380954 0) scale(0.996264)"/>
      <use xlink:href="#CMSS17-6e" transform="translate(168.300544 0) scale(0.996264)"/>
     </g>
    </g>
    <g id="line2d_104">
     <path d="M 472.516163 152.280755 
L 486.516163 152.280755 
L 500.516163 152.280755 
" style="fill: none; stroke: #474747; stroke-width: 1.5; stroke-linecap: square"/>
    </g>
    <g id="text_18">
     <!-- $1.6$  -->
     <g transform="translate(511.716163 157.180755) scale(0.14 -0.14)">
      <defs>
       <path id="CMR17-36" d="M 678 2176 
C 678 3690 1395 4032 1811 4032 
C 1946 4032 2272 4009 2400 3776 
C 2298 3776 2106 3776 2106 3553 
C 2106 3381 2246 3323 2336 3323 
C 2394 3323 2566 3348 2566 3560 
C 2566 3954 2246 4179 1805 4179 
C 1043 4179 243 3390 243 1984 
C 243 253 966 -128 1478 -128 
C 2099 -128 2688 427 2688 1283 
C 2688 2081 2170 2662 1517 2662 
C 1126 2662 838 2407 678 1960 
L 678 2176 
z
M 1478 25 
C 691 25 691 1200 691 1436 
C 691 1896 909 2560 1504 2560 
C 1613 2560 1926 2560 2138 2120 
C 2253 1870 2253 1609 2253 1289 
C 2253 944 2253 690 2118 434 
C 1978 171 1773 25 1478 25 
z
" transform="scale(0.015625)"/>
       <path id="SFSS3583-b5" d="M 544 2701 
L 544 -1216 
L 819 -1216 
L 819 65 
C 934 18 1056 0 1184 0 
C 1523 0 1971 160 2125 422 
L 2131 32 
L 2400 32 
L 2400 2701 
L 2125 2701 
L 2125 1341 
C 2125 1259 2131 1169 2131 1080 
C 2131 530 1786 243 1350 243 
C 1050 243 819 346 819 754 
L 819 2701 
L 544 2701 
z
" transform="scale(0.015625)"/>
      </defs>
      <use xlink:href="#CMR17-31" transform="scale(0.996264)"/>
      <use xlink:href="#CMMI12-3a" transform="translate(45.690477 0) scale(0.996264)"/>
      <use xlink:href="#CMR17-36" transform="translate(72.787654 0) scale(0.996264)"/>
      <use xlink:href="#SFSS3583-b5" transform="translate(149.707244 0) scale(0.996264)"/>
     </g>
    </g>
    <g id="line2d_105">
     <path d="M 472.516163 171.792784 
L 486.516163 171.792784 
L 500.516163 171.792784 
" style="fill: none; stroke: #9e9e9e; stroke-width: 1.5; stroke-linecap: square"/>
    </g>
    <g id="text_19">
     <!-- $3.2$  -->
     <g transform="translate(511.716163 176.692784) scale(0.14 -0.14)">
      <use xlink:href="#CMR17-33" transform="scale(0.996264)"/>
      <use xlink:href="#CMMI12-3a" transform="translate(45.690477 0) scale(0.996264)"/>
      <use xlink:href="#CMR17-32" transform="translate(72.787654 0) scale(0.996264)"/>
      <use xlink:href="#SFSS3583-b5" transform="translate(149.707244 0) scale(0.996264)"/>
     </g>
    </g>
    <g id="line2d_106">
     <path d="M 472.516163 191.304812 
L 486.516163 191.304812 
L 500.516163 191.304812 
" style="fill: none; stroke: #daa520; stroke-width: 1.5; stroke-linecap: square"/>
    </g>
    <g id="text_20">
     <!-- $6.4$  -->
     <g transform="translate(511.716163 196.204812) scale(0.14 -0.14)">
      <use xlink:href="#CMR17-36" transform="scale(0.996264)"/>
      <use xlink:href="#CMMI12-3a" transform="translate(45.690477 0) scale(0.996264)"/>
      <use xlink:href="#CMR17-34" transform="translate(72.787654 0) scale(0.996264)"/>
      <use xlink:href="#SFSS3583-b5" transform="translate(149.707244 0) scale(0.996264)"/>
     </g>
    </g>
   </g>
  </g>
 </g>
 <defs>
  <clipPath id="p0771f646c6">
   <rect x="51.526495" y="21.223055" width="408.389668" height="206.291344"/>
  </clipPath>
 </defs>
</svg>
