<?xml version="1.0" encoding="utf-8" standalone="no"?>
<!DOCTYPE svg PUBLIC "-//W3C//DTD SVG 1.1//EN"
  "http://www.w3.org/Graphics/SVG/1.1/DTD/svg11.dtd">
<svg xmlns:xlink="http://www.w3.org/1999/xlink" width="568.8pt" height="280.8pt" viewBox="0 0 568.8 280.8" xmlns="http://www.w3.org/2000/svg" version="1.1">
 <metadata>
  <rdf:RDF xmlns:dc="http://purl.org/dc/elements/1.1/" xmlns:cc="http://creativecommons.org/ns#" xmlns:rdf="http://www.w3.org/1999/02/22-rdf-syntax-ns#">
   <cc:Work>
    <dc:type rdf:resource="http://purl.org/dc/dcmitype/StillImage"/>
    <dc:date>2025-03-31T15:12:28.349716</dc:date>
    <dc:format>image/svg+xml</dc:format>
    <dc:creator>
     <cc:Agent>
      <dc:title>Matplotlib v3.10.0, https://matplotlib.org/</dc:title>
     </cc:Agent>
    </dc:creator>
   </cc:Work>
  </rdf:RDF>
 </metadata>
 <defs>
  <style type="text/css">*{stroke-linejoin: round; stroke-linecap: butt}</style>
 </defs>
 <g id="figure_1">
  <g id="patch_1">
   <path d="M 0 280.8 
L 568.8 280.8 
L 568.8 0 
L 0 0 
z
" style="fill: #ffffff"/>
  </g>
  <g id="axes_1">
   <g id="patch_2">
    <path d="M 56.50625 243.24375 
L 491.996875 243.24375 
L 491.996875 7.2 
L 56.50625 7.2 
z
" style="fill: #ffffff"/>
   </g>
   <g id="matplotlib.axis_1">
    <g id="xtick_1">
     <g id="line2d_1">
      <path d="M 72.974383 243.24375 
L 72.974383 7.2 
" clip-path="url(#pe2d10222d8)" style="fill: none; stroke-dasharray: 2.96,1.28; stroke-dashoffset: 0; stroke: #e6e6e6; stroke-width: 0.8"/>
     </g>
     <g id="line2d_2">
      <defs>
       <path id="m2856b4e48c" d="M 0 0 
L 0 3.5 
" style="stroke: #000000; stroke-width: 0.8"/>
      </defs>
      <g>
       <use xlink:href="#m2856b4e48c" x="72.974383" y="243.24375" style="stroke: #000000; stroke-width: 0.8"/>
      </g>
     </g>
     <g id="text_1">
      <!-- 0 -->
      <g transform="translate(69.793133 257.842187) scale(0.1 -0.1)">
       <defs>
        <path id="DejaVuSans-30" d="M 2034 4250 
Q 1547 4250 1301 3770 
Q 1056 3291 1056 2328 
Q 1056 1369 1301 889 
Q 1547 409 2034 409 
Q 2525 409 2770 889 
Q 3016 1369 3016 2328 
Q 3016 3291 2770 3770 
Q 2525 4250 2034 4250 
z
M 2034 4750 
Q 2819 4750 3233 4129 
Q 3647 3509 3647 2328 
Q 3647 1150 3233 529 
Q 2819 -91 2034 -91 
Q 1250 -91 836 529 
Q 422 1150 422 2328 
Q 422 3509 836 4129 
Q 1250 4750 2034 4750 
z
" transform="scale(0.015625)"/>
       </defs>
       <use xlink:href="#DejaVuSans-30"/>
      </g>
     </g>
    </g>
    <g id="xtick_2">
     <g id="line2d_3">
      <path d="M 139.512293 243.24375 
L 139.512293 7.2 
" clip-path="url(#pe2d10222d8)" style="fill: none; stroke-dasharray: 2.96,1.28; stroke-dashoffset: 0; stroke: #e6e6e6; stroke-width: 0.8"/>
     </g>
     <g id="line2d_4">
      <g>
       <use xlink:href="#m2856b4e48c" x="139.512293" y="243.24375" style="stroke: #000000; stroke-width: 0.8"/>
      </g>
     </g>
     <g id="text_2">
      <!-- 200 m -->
      <g transform="translate(123.509168 257.842187) scale(0.1 -0.1)">
       <defs>
        <path id="DejaVuSans-32" d="M 1228 531 
L 3431 531 
L 3431 0 
L 469 0 
L 469 531 
Q 828 903 1448 1529 
Q 2069 2156 2228 2338 
Q 2531 2678 2651 2914 
Q 2772 3150 2772 3378 
Q 2772 3750 2511 3984 
Q 2250 4219 1831 4219 
Q 1534 4219 1204 4116 
Q 875 4013 500 3803 
L 500 4441 
Q 881 4594 1212 4672 
Q 1544 4750 1819 4750 
Q 2544 4750 2975 4387 
Q 3406 4025 3406 3419 
Q 3406 3131 3298 2873 
Q 3191 2616 2906 2266 
Q 2828 2175 2409 1742 
Q 1991 1309 1228 531 
z
" transform="scale(0.015625)"/>
        <path id="DejaVuSans-20" transform="scale(0.015625)"/>
        <path id="DejaVuSans-6d" d="M 3328 2828 
Q 3544 3216 3844 3400 
Q 4144 3584 4550 3584 
Q 5097 3584 5394 3201 
Q 5691 2819 5691 2113 
L 5691 0 
L 5113 0 
L 5113 2094 
Q 5113 2597 4934 2840 
Q 4756 3084 4391 3084 
Q 3944 3084 3684 2787 
Q 3425 2491 3425 1978 
L 3425 0 
L 2847 0 
L 2847 2094 
Q 2847 2600 2669 2842 
Q 2491 3084 2119 3084 
Q 1678 3084 1418 2786 
Q 1159 2488 1159 1978 
L 1159 0 
L 581 0 
L 581 3500 
L 1159 3500 
L 1159 2956 
Q 1356 3278 1631 3431 
Q 1906 3584 2284 3584 
Q 2666 3584 2933 3390 
Q 3200 3197 3328 2828 
z
" transform="scale(0.015625)"/>
       </defs>
       <use xlink:href="#DejaVuSans-32"/>
       <use xlink:href="#DejaVuSans-30" transform="translate(63.623047 0)"/>
       <use xlink:href="#DejaVuSans-30" transform="translate(127.246094 0)"/>
       <use xlink:href="#DejaVuSans-20" transform="translate(190.869141 0)"/>
       <use xlink:href="#DejaVuSans-6d" transform="translate(222.65625 0)"/>
      </g>
     </g>
    </g>
    <g id="xtick_3">
     <g id="line2d_5">
      <path d="M 206.050204 243.24375 
L 206.050204 7.2 
" clip-path="url(#pe2d10222d8)" style="fill: none; stroke-dasharray: 2.96,1.28; stroke-dashoffset: 0; stroke: #e6e6e6; stroke-width: 0.8"/>
     </g>
     <g id="line2d_6">
      <g>
       <use xlink:href="#m2856b4e48c" x="206.050204" y="243.24375" style="stroke: #000000; stroke-width: 0.8"/>
      </g>
     </g>
     <g id="text_3">
      <!-- 400 m -->
      <g transform="translate(190.047079 257.842187) scale(0.1 -0.1)">
       <defs>
        <path id="DejaVuSans-34" d="M 2419 4116 
L 825 1625 
L 2419 1625 
L 2419 4116 
z
M 2253 4666 
L 3047 4666 
L 3047 1625 
L 3713 1625 
L 3713 1100 
L 3047 1100 
L 3047 0 
L 2419 0 
L 2419 1100 
L 313 1100 
L 313 1709 
L 2253 4666 
z
" transform="scale(0.015625)"/>
       </defs>
       <use xlink:href="#DejaVuSans-34"/>
       <use xlink:href="#DejaVuSans-30" transform="translate(63.623047 0)"/>
       <use xlink:href="#DejaVuSans-30" transform="translate(127.246094 0)"/>
       <use xlink:href="#DejaVuSans-20" transform="translate(190.869141 0)"/>
       <use xlink:href="#DejaVuSans-6d" transform="translate(222.65625 0)"/>
      </g>
     </g>
    </g>
    <g id="xtick_4">
     <g id="line2d_7">
      <path d="M 272.588115 243.24375 
L 272.588115 7.2 
" clip-path="url(#pe2d10222d8)" style="fill: none; stroke-dasharray: 2.96,1.28; stroke-dashoffset: 0; stroke: #e6e6e6; stroke-width: 0.8"/>
     </g>
     <g id="line2d_8">
      <g>
       <use xlink:href="#m2856b4e48c" x="272.588115" y="243.24375" style="stroke: #000000; stroke-width: 0.8"/>
      </g>
     </g>
     <g id="text_4">
      <!-- 600 m -->
      <g transform="translate(256.58499 257.842187) scale(0.1 -0.1)">
       <defs>
        <path id="DejaVuSans-36" d="M 2113 2584 
Q 1688 2584 1439 2293 
Q 1191 2003 1191 1497 
Q 1191 994 1439 701 
Q 1688 409 2113 409 
Q 2538 409 2786 701 
Q 3034 994 3034 1497 
Q 3034 2003 2786 2293 
Q 2538 2584 2113 2584 
z
M 3366 4563 
L 3366 3988 
Q 3128 4100 2886 4159 
Q 2644 4219 2406 4219 
Q 1781 4219 1451 3797 
Q 1122 3375 1075 2522 
Q 1259 2794 1537 2939 
Q 1816 3084 2150 3084 
Q 2853 3084 3261 2657 
Q 3669 2231 3669 1497 
Q 3669 778 3244 343 
Q 2819 -91 2113 -91 
Q 1303 -91 875 529 
Q 447 1150 447 2328 
Q 447 3434 972 4092 
Q 1497 4750 2381 4750 
Q 2619 4750 2861 4703 
Q 3103 4656 3366 4563 
z
" transform="scale(0.015625)"/>
       </defs>
       <use xlink:href="#DejaVuSans-36"/>
       <use xlink:href="#DejaVuSans-30" transform="translate(63.623047 0)"/>
       <use xlink:href="#DejaVuSans-30" transform="translate(127.246094 0)"/>
       <use xlink:href="#DejaVuSans-20" transform="translate(190.869141 0)"/>
       <use xlink:href="#DejaVuSans-6d" transform="translate(222.65625 0)"/>
      </g>
     </g>
    </g>
    <g id="xtick_5">
     <g id="line2d_9">
      <path d="M 339.126025 243.24375 
L 339.126025 7.2 
" clip-path="url(#pe2d10222d8)" style="fill: none; stroke-dasharray: 2.96,1.28; stroke-dashoffset: 0; stroke: #e6e6e6; stroke-width: 0.8"/>
     </g>
     <g id="line2d_10">
      <g>
       <use xlink:href="#m2856b4e48c" x="339.126025" y="243.24375" style="stroke: #000000; stroke-width: 0.8"/>
      </g>
     </g>
     <g id="text_5">
      <!-- 800 m -->
      <g transform="translate(323.1229 257.842187) scale(0.1 -0.1)">
       <defs>
        <path id="DejaVuSans-38" d="M 2034 2216 
Q 1584 2216 1326 1975 
Q 1069 1734 1069 1313 
Q 1069 891 1326 650 
Q 1584 409 2034 409 
Q 2484 409 2743 651 
Q 3003 894 3003 1313 
Q 3003 1734 2745 1975 
Q 2488 2216 2034 2216 
z
M 1403 2484 
Q 997 2584 770 2862 
Q 544 3141 544 3541 
Q 544 4100 942 4425 
Q 1341 4750 2034 4750 
Q 2731 4750 3128 4425 
Q 3525 4100 3525 3541 
Q 3525 3141 3298 2862 
Q 3072 2584 2669 2484 
Q 3125 2378 3379 2068 
Q 3634 1759 3634 1313 
Q 3634 634 3220 271 
Q 2806 -91 2034 -91 
Q 1263 -91 848 271 
Q 434 634 434 1313 
Q 434 1759 690 2068 
Q 947 2378 1403 2484 
z
M 1172 3481 
Q 1172 3119 1398 2916 
Q 1625 2713 2034 2713 
Q 2441 2713 2670 2916 
Q 2900 3119 2900 3481 
Q 2900 3844 2670 4047 
Q 2441 4250 2034 4250 
Q 1625 4250 1398 4047 
Q 1172 3844 1172 3481 
z
" transform="scale(0.015625)"/>
       </defs>
       <use xlink:href="#DejaVuSans-38"/>
       <use xlink:href="#DejaVuSans-30" transform="translate(63.623047 0)"/>
       <use xlink:href="#DejaVuSans-30" transform="translate(127.246094 0)"/>
       <use xlink:href="#DejaVuSans-20" transform="translate(190.869141 0)"/>
       <use xlink:href="#DejaVuSans-6d" transform="translate(222.65625 0)"/>
      </g>
     </g>
    </g>
    <g id="xtick_6">
     <g id="line2d_11">
      <path d="M 405.663936 243.24375 
L 405.663936 7.2 
" clip-path="url(#pe2d10222d8)" style="fill: none; stroke-dasharray: 2.96,1.28; stroke-dashoffset: 0; stroke: #e6e6e6; stroke-width: 0.8"/>
     </g>
     <g id="line2d_12">
      <g>
       <use xlink:href="#m2856b4e48c" x="405.663936" y="243.24375" style="stroke: #000000; stroke-width: 0.8"/>
      </g>
     </g>
     <g id="text_6">
      <!-- 1 -->
      <g transform="translate(402.482686 257.842187) scale(0.1 -0.1)">
       <defs>
        <path id="DejaVuSans-31" d="M 794 531 
L 1825 531 
L 1825 4091 
L 703 3866 
L 703 4441 
L 1819 4666 
L 2450 4666 
L 2450 531 
L 3481 531 
L 3481 0 
L 794 0 
L 794 531 
z
" transform="scale(0.015625)"/>
       </defs>
       <use xlink:href="#DejaVuSans-31"/>
      </g>
     </g>
    </g>
    <g id="xtick_7">
     <g id="line2d_13">
      <path d="M 472.201847 243.24375 
L 472.201847 7.2 
" clip-path="url(#pe2d10222d8)" style="fill: none; stroke-dasharray: 2.96,1.28; stroke-dashoffset: 0; stroke: #e6e6e6; stroke-width: 0.8"/>
     </g>
     <g id="line2d_14">
      <g>
       <use xlink:href="#m2856b4e48c" x="472.201847" y="243.24375" style="stroke: #000000; stroke-width: 0.8"/>
      </g>
     </g>
     <g id="text_7">
      <!-- 1.2 -->
      <g transform="translate(464.250284 257.842187) scale(0.1 -0.1)">
       <defs>
        <path id="DejaVuSans-2e" d="M 684 794 
L 1344 794 
L 1344 0 
L 684 0 
L 684 794 
z
" transform="scale(0.015625)"/>
       </defs>
       <use xlink:href="#DejaVuSans-31"/>
       <use xlink:href="#DejaVuSans-2e" transform="translate(63.623047 0)"/>
       <use xlink:href="#DejaVuSans-32" transform="translate(95.410156 0)"/>
      </g>
     </g>
    </g>
    <g id="text_8">
     <!-- $V_{\mathrm{GS}}\ (V)$ -->
     <g transform="translate(256.801563 271.520312) scale(0.1 -0.1)">
      <defs>
       <path id="DejaVuSans-Oblique-56" d="M 1319 0 
L 500 4666 
L 1119 4666 
L 1797 653 
L 4063 4666 
L 4750 4666 
L 2053 0 
L 1319 0 
z
" transform="scale(0.015625)"/>
       <path id="DejaVuSans-47" d="M 3809 666 
L 3809 1919 
L 2778 1919 
L 2778 2438 
L 4434 2438 
L 4434 434 
Q 4069 175 3628 42 
Q 3188 -91 2688 -91 
Q 1594 -91 976 548 
Q 359 1188 359 2328 
Q 359 3472 976 4111 
Q 1594 4750 2688 4750 
Q 3144 4750 3555 4637 
Q 3966 4525 4313 4306 
L 4313 3634 
Q 3963 3931 3569 4081 
Q 3175 4231 2741 4231 
Q 1884 4231 1454 3753 
Q 1025 3275 1025 2328 
Q 1025 1384 1454 906 
Q 1884 428 2741 428 
Q 3075 428 3337 486 
Q 3600 544 3809 666 
z
" transform="scale(0.015625)"/>
       <path id="DejaVuSans-53" d="M 3425 4513 
L 3425 3897 
Q 3066 4069 2747 4153 
Q 2428 4238 2131 4238 
Q 1616 4238 1336 4038 
Q 1056 3838 1056 3469 
Q 1056 3159 1242 3001 
Q 1428 2844 1947 2747 
L 2328 2669 
Q 3034 2534 3370 2195 
Q 3706 1856 3706 1288 
Q 3706 609 3251 259 
Q 2797 -91 1919 -91 
Q 1588 -91 1214 -16 
Q 841 59 441 206 
L 441 856 
Q 825 641 1194 531 
Q 1563 422 1919 422 
Q 2459 422 2753 634 
Q 3047 847 3047 1241 
Q 3047 1584 2836 1778 
Q 2625 1972 2144 2069 
L 1759 2144 
Q 1053 2284 737 2584 
Q 422 2884 422 3419 
Q 422 4038 858 4394 
Q 1294 4750 2059 4750 
Q 2388 4750 2728 4690 
Q 3069 4631 3425 4513 
z
" transform="scale(0.015625)"/>
       <path id="DejaVuSans-28" d="M 1984 4856 
Q 1566 4138 1362 3434 
Q 1159 2731 1159 2009 
Q 1159 1288 1364 580 
Q 1569 -128 1984 -844 
L 1484 -844 
Q 1016 -109 783 600 
Q 550 1309 550 2009 
Q 550 2706 781 3412 
Q 1013 4119 1484 4856 
L 1984 4856 
z
" transform="scale(0.015625)"/>
       <path id="DejaVuSans-29" d="M 513 4856 
L 1013 4856 
Q 1481 4119 1714 3412 
Q 1947 2706 1947 2009 
Q 1947 1309 1714 600 
Q 1481 -109 1013 -844 
L 513 -844 
Q 928 -128 1133 580 
Q 1338 1288 1338 2009 
Q 1338 2731 1133 3434 
Q 928 4138 513 4856 
z
" transform="scale(0.015625)"/>
      </defs>
      <use xlink:href="#DejaVuSans-Oblique-56" transform="translate(0 0.125)"/>
      <use xlink:href="#DejaVuSans-47" transform="translate(68.408203 -16.28125) scale(0.7)"/>
      <use xlink:href="#DejaVuSans-53" transform="translate(122.651367 -16.28125) scale(0.7)"/>
      <use xlink:href="#DejaVuSans-28" transform="translate(202.289714 0.125)"/>
      <use xlink:href="#DejaVuSans-Oblique-56" transform="translate(241.303386 0.125)"/>
      <use xlink:href="#DejaVuSans-29" transform="translate(309.711589 0.125)"/>
     </g>
    </g>
   </g>
   <g id="matplotlib.axis_2">
    <g id="ytick_1">
     <g id="line2d_15">
      <path d="M 56.50625 229.460574 
L 491.996875 229.460574 
" clip-path="url(#pe2d10222d8)" style="fill: none; stroke-dasharray: 2.96,1.28; stroke-dashoffset: 0; stroke: #e6e6e6; stroke-width: 0.8"/>
     </g>
     <g id="line2d_16">
      <defs>
       <path id="mce6c7fe769" d="M 0 0 
L -3.5 0 
" style="stroke: #000000; stroke-width: 0.8"/>
      </defs>
      <g>
       <use xlink:href="#mce6c7fe769" x="56.50625" y="229.460574" style="stroke: #000000; stroke-width: 0.8"/>
      </g>
     </g>
     <g id="text_9">
      <!-- 1 n -->
      <g transform="translate(33.628125 233.259793) scale(0.1 -0.1)">
       <defs>
        <path id="DejaVuSans-6e" d="M 3513 2113 
L 3513 0 
L 2938 0 
L 2938 2094 
Q 2938 2591 2744 2837 
Q 2550 3084 2163 3084 
Q 1697 3084 1428 2787 
Q 1159 2491 1159 1978 
L 1159 0 
L 581 0 
L 581 3500 
L 1159 3500 
L 1159 2956 
Q 1366 3272 1645 3428 
Q 1925 3584 2291 3584 
Q 2894 3584 3203 3211 
Q 3513 2838 3513 2113 
z
" transform="scale(0.015625)"/>
       </defs>
       <use xlink:href="#DejaVuSans-31"/>
       <use xlink:href="#DejaVuSans-20" transform="translate(63.623047 0)"/>
       <use xlink:href="#DejaVuSans-6e" transform="translate(95.410156 0)"/>
      </g>
     </g>
    </g>
    <g id="ytick_2">
     <g id="line2d_17">
      <path d="M 56.50625 198.305407 
L 491.996875 198.305407 
" clip-path="url(#pe2d10222d8)" style="fill: none; stroke-dasharray: 2.96,1.28; stroke-dashoffset: 0; stroke: #e6e6e6; stroke-width: 0.8"/>
     </g>
     <g id="line2d_18">
      <g>
       <use xlink:href="#mce6c7fe769" x="56.50625" y="198.305407" style="stroke: #000000; stroke-width: 0.8"/>
      </g>
     </g>
     <g id="text_10">
      <!-- 10 n -->
      <g transform="translate(27.265625 202.104625) scale(0.1 -0.1)">
       <use xlink:href="#DejaVuSans-31"/>
       <use xlink:href="#DejaVuSans-30" transform="translate(63.623047 0)"/>
       <use xlink:href="#DejaVuSans-20" transform="translate(127.246094 0)"/>
       <use xlink:href="#DejaVuSans-6e" transform="translate(159.033203 0)"/>
      </g>
     </g>
    </g>
    <g id="ytick_3">
     <g id="line2d_19">
      <path d="M 56.50625 167.150239 
L 491.996875 167.150239 
" clip-path="url(#pe2d10222d8)" style="fill: none; stroke-dasharray: 2.96,1.28; stroke-dashoffset: 0; stroke: #e6e6e6; stroke-width: 0.8"/>
     </g>
     <g id="line2d_20">
      <g>
       <use xlink:href="#mce6c7fe769" x="56.50625" y="167.150239" style="stroke: #000000; stroke-width: 0.8"/>
      </g>
     </g>
     <g id="text_11">
      <!-- 100 n -->
      <g transform="translate(20.903125 170.949458) scale(0.1 -0.1)">
       <use xlink:href="#DejaVuSans-31"/>
       <use xlink:href="#DejaVuSans-30" transform="translate(63.623047 0)"/>
       <use xlink:href="#DejaVuSans-30" transform="translate(127.246094 0)"/>
       <use xlink:href="#DejaVuSans-20" transform="translate(190.869141 0)"/>
       <use xlink:href="#DejaVuSans-6e" transform="translate(222.65625 0)"/>
      </g>
     </g>
    </g>
    <g id="ytick_4">
     <g id="line2d_21">
      <path d="M 56.50625 135.995072 
L 491.996875 135.995072 
" clip-path="url(#pe2d10222d8)" style="fill: none; stroke-dasharray: 2.96,1.28; stroke-dashoffset: 0; stroke: #e6e6e6; stroke-width: 0.8"/>
     </g>
     <g id="line2d_22">
      <g>
       <use xlink:href="#mce6c7fe769" x="56.50625" y="135.995072" style="stroke: #000000; stroke-width: 0.8"/>
      </g>
     </g>
     <g id="text_12">
      <!-- 1 µ -->
      <g transform="translate(33.603125 139.79429) scale(0.1 -0.1)">
       <defs>
        <path id="DejaVuSans-b5" d="M 544 -1331 
L 544 3500 
L 1119 3500 
L 1119 1325 
Q 1119 872 1334 640 
Q 1550 409 1972 409 
Q 2434 409 2667 671 
Q 2900 934 2900 1459 
L 2900 3500 
L 3475 3500 
L 3475 806 
Q 3475 619 3529 530 
Q 3584 441 3700 441 
Q 3728 441 3778 458 
Q 3828 475 3916 513 
L 3916 50 
Q 3788 -22 3673 -56 
Q 3559 -91 3450 -91 
Q 3234 -91 3106 31 
Q 2978 153 2931 403 
Q 2775 156 2548 32 
Q 2322 -91 2016 -91 
Q 1697 -91 1473 31 
Q 1250 153 1119 397 
L 1119 -1331 
L 544 -1331 
z
" transform="scale(0.015625)"/>
       </defs>
       <use xlink:href="#DejaVuSans-31"/>
       <use xlink:href="#DejaVuSans-20" transform="translate(63.623047 0)"/>
       <use xlink:href="#DejaVuSans-b5" transform="translate(95.410156 0)"/>
      </g>
     </g>
    </g>
    <g id="ytick_5">
     <g id="line2d_23">
      <path d="M 56.50625 104.839904 
L 491.996875 104.839904 
" clip-path="url(#pe2d10222d8)" style="fill: none; stroke-dasharray: 2.96,1.28; stroke-dashoffset: 0; stroke: #e6e6e6; stroke-width: 0.8"/>
     </g>
     <g id="line2d_24">
      <g>
       <use xlink:href="#mce6c7fe769" x="56.50625" y="104.839904" style="stroke: #000000; stroke-width: 0.8"/>
      </g>
     </g>
     <g id="text_13">
      <!-- 10 µ -->
      <g transform="translate(27.240625 108.639123) scale(0.1 -0.1)">
       <use xlink:href="#DejaVuSans-31"/>
       <use xlink:href="#DejaVuSans-30" transform="translate(63.623047 0)"/>
       <use xlink:href="#DejaVuSans-20" transform="translate(127.246094 0)"/>
       <use xlink:href="#DejaVuSans-b5" transform="translate(159.033203 0)"/>
      </g>
     </g>
    </g>
    <g id="ytick_6">
     <g id="line2d_25">
      <path d="M 56.50625 73.684737 
L 491.996875 73.684737 
" clip-path="url(#pe2d10222d8)" style="fill: none; stroke-dasharray: 2.96,1.28; stroke-dashoffset: 0; stroke: #e6e6e6; stroke-width: 0.8"/>
     </g>
     <g id="line2d_26">
      <g>
       <use xlink:href="#mce6c7fe769" x="56.50625" y="73.684737" style="stroke: #000000; stroke-width: 0.8"/>
      </g>
     </g>
     <g id="text_14">
      <!-- 100 µ -->
      <g transform="translate(20.878125 77.483955) scale(0.1 -0.1)">
       <use xlink:href="#DejaVuSans-31"/>
       <use xlink:href="#DejaVuSans-30" transform="translate(63.623047 0)"/>
       <use xlink:href="#DejaVuSans-30" transform="translate(127.246094 0)"/>
       <use xlink:href="#DejaVuSans-20" transform="translate(190.869141 0)"/>
       <use xlink:href="#DejaVuSans-b5" transform="translate(222.65625 0)"/>
      </g>
     </g>
    </g>
    <g id="ytick_7">
     <g id="line2d_27">
      <path d="M 56.50625 42.529569 
L 491.996875 42.529569 
" clip-path="url(#pe2d10222d8)" style="fill: none; stroke-dasharray: 2.96,1.28; stroke-dashoffset: 0; stroke: #e6e6e6; stroke-width: 0.8"/>
     </g>
     <g id="line2d_28">
      <g>
       <use xlink:href="#mce6c7fe769" x="56.50625" y="42.529569" style="stroke: #000000; stroke-width: 0.8"/>
      </g>
     </g>
     <g id="text_15">
      <!-- 1 m -->
      <g transform="translate(30.225 46.328788) scale(0.1 -0.1)">
       <use xlink:href="#DejaVuSans-31"/>
       <use xlink:href="#DejaVuSans-20" transform="translate(63.623047 0)"/>
       <use xlink:href="#DejaVuSans-6d" transform="translate(95.410156 0)"/>
      </g>
     </g>
    </g>
    <g id="ytick_8">
     <g id="line2d_29">
      <path d="M 56.50625 11.374402 
L 491.996875 11.374402 
" clip-path="url(#pe2d10222d8)" style="fill: none; stroke-dasharray: 2.96,1.28; stroke-dashoffset: 0; stroke: #e6e6e6; stroke-width: 0.8"/>
     </g>
     <g id="line2d_30">
      <g>
       <use xlink:href="#mce6c7fe769" x="56.50625" y="11.374402" style="stroke: #000000; stroke-width: 0.8"/>
      </g>
     </g>
     <g id="text_16">
      <!-- 10 m -->
      <g transform="translate(23.8625 15.17362) scale(0.1 -0.1)">
       <use xlink:href="#DejaVuSans-31"/>
       <use xlink:href="#DejaVuSans-30" transform="translate(63.623047 0)"/>
       <use xlink:href="#DejaVuSans-20" transform="translate(127.246094 0)"/>
       <use xlink:href="#DejaVuSans-6d" transform="translate(159.033203 0)"/>
      </g>
     </g>
    </g>
    <g id="ytick_9">
     <g id="line2d_31">
      <path d="M 56.50625 241.858462 
L 491.996875 241.858462 
" clip-path="url(#pe2d10222d8)" style="fill: none; stroke-dasharray: 2.96,1.28; stroke-dashoffset: 0; stroke: #e6e6e6; stroke-width: 0.8"/>
     </g>
     <g id="line2d_32">
      <defs>
       <path id="m281a027a15" d="M 0 0 
L -2 0 
" style="stroke: #000000; stroke-width: 0.6"/>
      </defs>
      <g>
       <use xlink:href="#m281a027a15" x="56.50625" y="241.858462" style="stroke: #000000; stroke-width: 0.6"/>
      </g>
     </g>
    </g>
    <g id="ytick_10">
     <g id="line2d_33">
      <path d="M 56.50625 238.839214 
L 491.996875 238.839214 
" clip-path="url(#pe2d10222d8)" style="fill: none; stroke-dasharray: 2.96,1.28; stroke-dashoffset: 0; stroke: #e6e6e6; stroke-width: 0.8"/>
     </g>
     <g id="line2d_34">
      <g>
       <use xlink:href="#m281a027a15" x="56.50625" y="238.839214" style="stroke: #000000; stroke-width: 0.6"/>
      </g>
     </g>
    </g>
    <g id="ytick_11">
     <g id="line2d_35">
      <path d="M 56.50625 236.372309 
L 491.996875 236.372309 
" clip-path="url(#pe2d10222d8)" style="fill: none; stroke-dasharray: 2.96,1.28; stroke-dashoffset: 0; stroke: #e6e6e6; stroke-width: 0.8"/>
     </g>
     <g id="line2d_36">
      <g>
       <use xlink:href="#m281a027a15" x="56.50625" y="236.372309" style="stroke: #000000; stroke-width: 0.6"/>
      </g>
     </g>
    </g>
    <g id="ytick_12">
     <g id="line2d_37">
      <path d="M 56.50625 234.286571 
L 491.996875 234.286571 
" clip-path="url(#pe2d10222d8)" style="fill: none; stroke-dasharray: 2.96,1.28; stroke-dashoffset: 0; stroke: #e6e6e6; stroke-width: 0.8"/>
     </g>
     <g id="line2d_38">
      <g>
       <use xlink:href="#m281a027a15" x="56.50625" y="234.286571" style="stroke: #000000; stroke-width: 0.6"/>
      </g>
     </g>
    </g>
    <g id="ytick_13">
     <g id="line2d_39">
      <path d="M 56.50625 232.479822 
L 491.996875 232.479822 
" clip-path="url(#pe2d10222d8)" style="fill: none; stroke-dasharray: 2.96,1.28; stroke-dashoffset: 0; stroke: #e6e6e6; stroke-width: 0.8"/>
     </g>
     <g id="line2d_40">
      <g>
       <use xlink:href="#m281a027a15" x="56.50625" y="232.479822" style="stroke: #000000; stroke-width: 0.6"/>
      </g>
     </g>
    </g>
    <g id="ytick_14">
     <g id="line2d_41">
      <path d="M 56.50625 230.886156 
L 491.996875 230.886156 
" clip-path="url(#pe2d10222d8)" style="fill: none; stroke-dasharray: 2.96,1.28; stroke-dashoffset: 0; stroke: #e6e6e6; stroke-width: 0.8"/>
     </g>
     <g id="line2d_42">
      <g>
       <use xlink:href="#m281a027a15" x="56.50625" y="230.886156" style="stroke: #000000; stroke-width: 0.6"/>
      </g>
     </g>
    </g>
    <g id="ytick_15">
     <g id="line2d_43">
      <path d="M 56.50625 220.081934 
L 491.996875 220.081934 
" clip-path="url(#pe2d10222d8)" style="fill: none; stroke-dasharray: 2.96,1.28; stroke-dashoffset: 0; stroke: #e6e6e6; stroke-width: 0.8"/>
     </g>
     <g id="line2d_44">
      <g>
       <use xlink:href="#m281a027a15" x="56.50625" y="220.081934" style="stroke: #000000; stroke-width: 0.6"/>
      </g>
     </g>
    </g>
    <g id="ytick_16">
     <g id="line2d_45">
      <path d="M 56.50625 214.595781 
L 491.996875 214.595781 
" clip-path="url(#pe2d10222d8)" style="fill: none; stroke-dasharray: 2.96,1.28; stroke-dashoffset: 0; stroke: #e6e6e6; stroke-width: 0.8"/>
     </g>
     <g id="line2d_46">
      <g>
       <use xlink:href="#m281a027a15" x="56.50625" y="214.595781" style="stroke: #000000; stroke-width: 0.6"/>
      </g>
     </g>
    </g>
    <g id="ytick_17">
     <g id="line2d_47">
      <path d="M 56.50625 210.703294 
L 491.996875 210.703294 
" clip-path="url(#pe2d10222d8)" style="fill: none; stroke-dasharray: 2.96,1.28; stroke-dashoffset: 0; stroke: #e6e6e6; stroke-width: 0.8"/>
     </g>
     <g id="line2d_48">
      <g>
       <use xlink:href="#m281a027a15" x="56.50625" y="210.703294" style="stroke: #000000; stroke-width: 0.6"/>
      </g>
     </g>
    </g>
    <g id="ytick_18">
     <g id="line2d_49">
      <path d="M 56.50625 207.684047 
L 491.996875 207.684047 
" clip-path="url(#pe2d10222d8)" style="fill: none; stroke-dasharray: 2.96,1.28; stroke-dashoffset: 0; stroke: #e6e6e6; stroke-width: 0.8"/>
     </g>
     <g id="line2d_50">
      <g>
       <use xlink:href="#m281a027a15" x="56.50625" y="207.684047" style="stroke: #000000; stroke-width: 0.6"/>
      </g>
     </g>
    </g>
    <g id="ytick_19">
     <g id="line2d_51">
      <path d="M 56.50625 205.217142 
L 491.996875 205.217142 
" clip-path="url(#pe2d10222d8)" style="fill: none; stroke-dasharray: 2.96,1.28; stroke-dashoffset: 0; stroke: #e6e6e6; stroke-width: 0.8"/>
     </g>
     <g id="line2d_52">
      <g>
       <use xlink:href="#m281a027a15" x="56.50625" y="205.217142" style="stroke: #000000; stroke-width: 0.6"/>
      </g>
     </g>
    </g>
    <g id="ytick_20">
     <g id="line2d_53">
      <path d="M 56.50625 203.131403 
L 491.996875 203.131403 
" clip-path="url(#pe2d10222d8)" style="fill: none; stroke-dasharray: 2.96,1.28; stroke-dashoffset: 0; stroke: #e6e6e6; stroke-width: 0.8"/>
     </g>
     <g id="line2d_54">
      <g>
       <use xlink:href="#m281a027a15" x="56.50625" y="203.131403" style="stroke: #000000; stroke-width: 0.6"/>
      </g>
     </g>
    </g>
    <g id="ytick_21">
     <g id="line2d_55">
      <path d="M 56.50625 201.324654 
L 491.996875 201.324654 
" clip-path="url(#pe2d10222d8)" style="fill: none; stroke-dasharray: 2.96,1.28; stroke-dashoffset: 0; stroke: #e6e6e6; stroke-width: 0.8"/>
     </g>
     <g id="line2d_56">
      <g>
       <use xlink:href="#m281a027a15" x="56.50625" y="201.324654" style="stroke: #000000; stroke-width: 0.6"/>
      </g>
     </g>
    </g>
    <g id="ytick_22">
     <g id="line2d_57">
      <path d="M 56.50625 199.730989 
L 491.996875 199.730989 
" clip-path="url(#pe2d10222d8)" style="fill: none; stroke-dasharray: 2.96,1.28; stroke-dashoffset: 0; stroke: #e6e6e6; stroke-width: 0.8"/>
     </g>
     <g id="line2d_58">
      <g>
       <use xlink:href="#m281a027a15" x="56.50625" y="199.730989" style="stroke: #000000; stroke-width: 0.6"/>
      </g>
     </g>
    </g>
    <g id="ytick_23">
     <g id="line2d_59">
      <path d="M 56.50625 188.926767 
L 491.996875 188.926767 
" clip-path="url(#pe2d10222d8)" style="fill: none; stroke-dasharray: 2.96,1.28; stroke-dashoffset: 0; stroke: #e6e6e6; stroke-width: 0.8"/>
     </g>
     <g id="line2d_60">
      <g>
       <use xlink:href="#m281a027a15" x="56.50625" y="188.926767" style="stroke: #000000; stroke-width: 0.6"/>
      </g>
     </g>
    </g>
    <g id="ytick_24">
     <g id="line2d_61">
      <path d="M 56.50625 183.440614 
L 491.996875 183.440614 
" clip-path="url(#pe2d10222d8)" style="fill: none; stroke-dasharray: 2.96,1.28; stroke-dashoffset: 0; stroke: #e6e6e6; stroke-width: 0.8"/>
     </g>
     <g id="line2d_62">
      <g>
       <use xlink:href="#m281a027a15" x="56.50625" y="183.440614" style="stroke: #000000; stroke-width: 0.6"/>
      </g>
     </g>
    </g>
    <g id="ytick_25">
     <g id="line2d_63">
      <path d="M 56.50625 179.548127 
L 491.996875 179.548127 
" clip-path="url(#pe2d10222d8)" style="fill: none; stroke-dasharray: 2.96,1.28; stroke-dashoffset: 0; stroke: #e6e6e6; stroke-width: 0.8"/>
     </g>
     <g id="line2d_64">
      <g>
       <use xlink:href="#m281a027a15" x="56.50625" y="179.548127" style="stroke: #000000; stroke-width: 0.6"/>
      </g>
     </g>
    </g>
    <g id="ytick_26">
     <g id="line2d_65">
      <path d="M 56.50625 176.528879 
L 491.996875 176.528879 
" clip-path="url(#pe2d10222d8)" style="fill: none; stroke-dasharray: 2.96,1.28; stroke-dashoffset: 0; stroke: #e6e6e6; stroke-width: 0.8"/>
     </g>
     <g id="line2d_66">
      <g>
       <use xlink:href="#m281a027a15" x="56.50625" y="176.528879" style="stroke: #000000; stroke-width: 0.6"/>
      </g>
     </g>
    </g>
    <g id="ytick_27">
     <g id="line2d_67">
      <path d="M 56.50625 174.061974 
L 491.996875 174.061974 
" clip-path="url(#pe2d10222d8)" style="fill: none; stroke-dasharray: 2.96,1.28; stroke-dashoffset: 0; stroke: #e6e6e6; stroke-width: 0.8"/>
     </g>
     <g id="line2d_68">
      <g>
       <use xlink:href="#m281a027a15" x="56.50625" y="174.061974" style="stroke: #000000; stroke-width: 0.6"/>
      </g>
     </g>
    </g>
    <g id="ytick_28">
     <g id="line2d_69">
      <path d="M 56.50625 171.976236 
L 491.996875 171.976236 
" clip-path="url(#pe2d10222d8)" style="fill: none; stroke-dasharray: 2.96,1.28; stroke-dashoffset: 0; stroke: #e6e6e6; stroke-width: 0.8"/>
     </g>
     <g id="line2d_70">
      <g>
       <use xlink:href="#m281a027a15" x="56.50625" y="171.976236" style="stroke: #000000; stroke-width: 0.6"/>
      </g>
     </g>
    </g>
    <g id="ytick_29">
     <g id="line2d_71">
      <path d="M 56.50625 170.169487 
L 491.996875 170.169487 
" clip-path="url(#pe2d10222d8)" style="fill: none; stroke-dasharray: 2.96,1.28; stroke-dashoffset: 0; stroke: #e6e6e6; stroke-width: 0.8"/>
     </g>
     <g id="line2d_72">
      <g>
       <use xlink:href="#m281a027a15" x="56.50625" y="170.169487" style="stroke: #000000; stroke-width: 0.6"/>
      </g>
     </g>
    </g>
    <g id="ytick_30">
     <g id="line2d_73">
      <path d="M 56.50625 168.575821 
L 491.996875 168.575821 
" clip-path="url(#pe2d10222d8)" style="fill: none; stroke-dasharray: 2.96,1.28; stroke-dashoffset: 0; stroke: #e6e6e6; stroke-width: 0.8"/>
     </g>
     <g id="line2d_74">
      <g>
       <use xlink:href="#m281a027a15" x="56.50625" y="168.575821" style="stroke: #000000; stroke-width: 0.6"/>
      </g>
     </g>
    </g>
    <g id="ytick_31">
     <g id="line2d_75">
      <path d="M 56.50625 157.771599 
L 491.996875 157.771599 
" clip-path="url(#pe2d10222d8)" style="fill: none; stroke-dasharray: 2.96,1.28; stroke-dashoffset: 0; stroke: #e6e6e6; stroke-width: 0.8"/>
     </g>
     <g id="line2d_76">
      <g>
       <use xlink:href="#m281a027a15" x="56.50625" y="157.771599" style="stroke: #000000; stroke-width: 0.6"/>
      </g>
     </g>
    </g>
    <g id="ytick_32">
     <g id="line2d_77">
      <path d="M 56.50625 152.285446 
L 491.996875 152.285446 
" clip-path="url(#pe2d10222d8)" style="fill: none; stroke-dasharray: 2.96,1.28; stroke-dashoffset: 0; stroke: #e6e6e6; stroke-width: 0.8"/>
     </g>
     <g id="line2d_78">
      <g>
       <use xlink:href="#m281a027a15" x="56.50625" y="152.285446" style="stroke: #000000; stroke-width: 0.6"/>
      </g>
     </g>
    </g>
    <g id="ytick_33">
     <g id="line2d_79">
      <path d="M 56.50625 148.392959 
L 491.996875 148.392959 
" clip-path="url(#pe2d10222d8)" style="fill: none; stroke-dasharray: 2.96,1.28; stroke-dashoffset: 0; stroke: #e6e6e6; stroke-width: 0.8"/>
     </g>
     <g id="line2d_80">
      <g>
       <use xlink:href="#m281a027a15" x="56.50625" y="148.392959" style="stroke: #000000; stroke-width: 0.6"/>
      </g>
     </g>
    </g>
    <g id="ytick_34">
     <g id="line2d_81">
      <path d="M 56.50625 145.373712 
L 491.996875 145.373712 
" clip-path="url(#pe2d10222d8)" style="fill: none; stroke-dasharray: 2.96,1.28; stroke-dashoffset: 0; stroke: #e6e6e6; stroke-width: 0.8"/>
     </g>
     <g id="line2d_82">
      <g>
       <use xlink:href="#m281a027a15" x="56.50625" y="145.373712" style="stroke: #000000; stroke-width: 0.6"/>
      </g>
     </g>
    </g>
    <g id="ytick_35">
     <g id="line2d_83">
      <path d="M 56.50625 142.906807 
L 491.996875 142.906807 
" clip-path="url(#pe2d10222d8)" style="fill: none; stroke-dasharray: 2.96,1.28; stroke-dashoffset: 0; stroke: #e6e6e6; stroke-width: 0.8"/>
     </g>
     <g id="line2d_84">
      <g>
       <use xlink:href="#m281a027a15" x="56.50625" y="142.906807" style="stroke: #000000; stroke-width: 0.6"/>
      </g>
     </g>
    </g>
    <g id="ytick_36">
     <g id="line2d_85">
      <path d="M 56.50625 140.821068 
L 491.996875 140.821068 
" clip-path="url(#pe2d10222d8)" style="fill: none; stroke-dasharray: 2.96,1.28; stroke-dashoffset: 0; stroke: #e6e6e6; stroke-width: 0.8"/>
     </g>
     <g id="line2d_86">
      <g>
       <use xlink:href="#m281a027a15" x="56.50625" y="140.821068" style="stroke: #000000; stroke-width: 0.6"/>
      </g>
     </g>
    </g>
    <g id="ytick_37">
     <g id="line2d_87">
      <path d="M 56.50625 139.014319 
L 491.996875 139.014319 
" clip-path="url(#pe2d10222d8)" style="fill: none; stroke-dasharray: 2.96,1.28; stroke-dashoffset: 0; stroke: #e6e6e6; stroke-width: 0.8"/>
     </g>
     <g id="line2d_88">
      <g>
       <use xlink:href="#m281a027a15" x="56.50625" y="139.014319" style="stroke: #000000; stroke-width: 0.6"/>
      </g>
     </g>
    </g>
    <g id="ytick_38">
     <g id="line2d_89">
      <path d="M 56.50625 137.420654 
L 491.996875 137.420654 
" clip-path="url(#pe2d10222d8)" style="fill: none; stroke-dasharray: 2.96,1.28; stroke-dashoffset: 0; stroke: #e6e6e6; stroke-width: 0.8"/>
     </g>
     <g id="line2d_90">
      <g>
       <use xlink:href="#m281a027a15" x="56.50625" y="137.420654" style="stroke: #000000; stroke-width: 0.6"/>
      </g>
     </g>
    </g>
    <g id="ytick_39">
     <g id="line2d_91">
      <path d="M 56.50625 126.616432 
L 491.996875 126.616432 
" clip-path="url(#pe2d10222d8)" style="fill: none; stroke-dasharray: 2.96,1.28; stroke-dashoffset: 0; stroke: #e6e6e6; stroke-width: 0.8"/>
     </g>
     <g id="line2d_92">
      <g>
       <use xlink:href="#m281a027a15" x="56.50625" y="126.616432" style="stroke: #000000; stroke-width: 0.6"/>
      </g>
     </g>
    </g>
    <g id="ytick_40">
     <g id="line2d_93">
      <path d="M 56.50625 121.130279 
L 491.996875 121.130279 
" clip-path="url(#pe2d10222d8)" style="fill: none; stroke-dasharray: 2.96,1.28; stroke-dashoffset: 0; stroke: #e6e6e6; stroke-width: 0.8"/>
     </g>
     <g id="line2d_94">
      <g>
       <use xlink:href="#m281a027a15" x="56.50625" y="121.130279" style="stroke: #000000; stroke-width: 0.6"/>
      </g>
     </g>
    </g>
    <g id="ytick_41">
     <g id="line2d_95">
      <path d="M 56.50625 117.237792 
L 491.996875 117.237792 
" clip-path="url(#pe2d10222d8)" style="fill: none; stroke-dasharray: 2.96,1.28; stroke-dashoffset: 0; stroke: #e6e6e6; stroke-width: 0.8"/>
     </g>
     <g id="line2d_96">
      <g>
       <use xlink:href="#m281a027a15" x="56.50625" y="117.237792" style="stroke: #000000; stroke-width: 0.6"/>
      </g>
     </g>
    </g>
    <g id="ytick_42">
     <g id="line2d_97">
      <path d="M 56.50625 114.218544 
L 491.996875 114.218544 
" clip-path="url(#pe2d10222d8)" style="fill: none; stroke-dasharray: 2.96,1.28; stroke-dashoffset: 0; stroke: #e6e6e6; stroke-width: 0.8"/>
     </g>
     <g id="line2d_98">
      <g>
       <use xlink:href="#m281a027a15" x="56.50625" y="114.218544" style="stroke: #000000; stroke-width: 0.6"/>
      </g>
     </g>
    </g>
    <g id="ytick_43">
     <g id="line2d_99">
      <path d="M 56.50625 111.751639 
L 491.996875 111.751639 
" clip-path="url(#pe2d10222d8)" style="fill: none; stroke-dasharray: 2.96,1.28; stroke-dashoffset: 0; stroke: #e6e6e6; stroke-width: 0.8"/>
     </g>
     <g id="line2d_100">
      <g>
       <use xlink:href="#m281a027a15" x="56.50625" y="111.751639" style="stroke: #000000; stroke-width: 0.6"/>
      </g>
     </g>
    </g>
    <g id="ytick_44">
     <g id="line2d_101">
      <path d="M 56.50625 109.665901 
L 491.996875 109.665901 
" clip-path="url(#pe2d10222d8)" style="fill: none; stroke-dasharray: 2.96,1.28; stroke-dashoffset: 0; stroke: #e6e6e6; stroke-width: 0.8"/>
     </g>
     <g id="line2d_102">
      <g>
       <use xlink:href="#m281a027a15" x="56.50625" y="109.665901" style="stroke: #000000; stroke-width: 0.6"/>
      </g>
     </g>
    </g>
    <g id="ytick_45">
     <g id="line2d_103">
      <path d="M 56.50625 107.859152 
L 491.996875 107.859152 
" clip-path="url(#pe2d10222d8)" style="fill: none; stroke-dasharray: 2.96,1.28; stroke-dashoffset: 0; stroke: #e6e6e6; stroke-width: 0.8"/>
     </g>
     <g id="line2d_104">
      <g>
       <use xlink:href="#m281a027a15" x="56.50625" y="107.859152" style="stroke: #000000; stroke-width: 0.6"/>
      </g>
     </g>
    </g>
    <g id="ytick_46">
     <g id="line2d_105">
      <path d="M 56.50625 106.265486 
L 491.996875 106.265486 
" clip-path="url(#pe2d10222d8)" style="fill: none; stroke-dasharray: 2.96,1.28; stroke-dashoffset: 0; stroke: #e6e6e6; stroke-width: 0.8"/>
     </g>
     <g id="line2d_106">
      <g>
       <use xlink:href="#m281a027a15" x="56.50625" y="106.265486" style="stroke: #000000; stroke-width: 0.6"/>
      </g>
     </g>
    </g>
    <g id="ytick_47">
     <g id="line2d_107">
      <path d="M 56.50625 95.461264 
L 491.996875 95.461264 
" clip-path="url(#pe2d10222d8)" style="fill: none; stroke-dasharray: 2.96,1.28; stroke-dashoffset: 0; stroke: #e6e6e6; stroke-width: 0.8"/>
     </g>
     <g id="line2d_108">
      <g>
       <use xlink:href="#m281a027a15" x="56.50625" y="95.461264" style="stroke: #000000; stroke-width: 0.6"/>
      </g>
     </g>
    </g>
    <g id="ytick_48">
     <g id="line2d_109">
      <path d="M 56.50625 89.975111 
L 491.996875 89.975111 
" clip-path="url(#pe2d10222d8)" style="fill: none; stroke-dasharray: 2.96,1.28; stroke-dashoffset: 0; stroke: #e6e6e6; stroke-width: 0.8"/>
     </g>
     <g id="line2d_110">
      <g>
       <use xlink:href="#m281a027a15" x="56.50625" y="89.975111" style="stroke: #000000; stroke-width: 0.6"/>
      </g>
     </g>
    </g>
    <g id="ytick_49">
     <g id="line2d_111">
      <path d="M 56.50625 86.082624 
L 491.996875 86.082624 
" clip-path="url(#pe2d10222d8)" style="fill: none; stroke-dasharray: 2.96,1.28; stroke-dashoffset: 0; stroke: #e6e6e6; stroke-width: 0.8"/>
     </g>
     <g id="line2d_112">
      <g>
       <use xlink:href="#m281a027a15" x="56.50625" y="86.082624" style="stroke: #000000; stroke-width: 0.6"/>
      </g>
     </g>
    </g>
    <g id="ytick_50">
     <g id="line2d_113">
      <path d="M 56.50625 83.063376 
L 491.996875 83.063376 
" clip-path="url(#pe2d10222d8)" style="fill: none; stroke-dasharray: 2.96,1.28; stroke-dashoffset: 0; stroke: #e6e6e6; stroke-width: 0.8"/>
     </g>
     <g id="line2d_114">
      <g>
       <use xlink:href="#m281a027a15" x="56.50625" y="83.063376" style="stroke: #000000; stroke-width: 0.6"/>
      </g>
     </g>
    </g>
    <g id="ytick_51">
     <g id="line2d_115">
      <path d="M 56.50625 80.596471 
L 491.996875 80.596471 
" clip-path="url(#pe2d10222d8)" style="fill: none; stroke-dasharray: 2.96,1.28; stroke-dashoffset: 0; stroke: #e6e6e6; stroke-width: 0.8"/>
     </g>
     <g id="line2d_116">
      <g>
       <use xlink:href="#m281a027a15" x="56.50625" y="80.596471" style="stroke: #000000; stroke-width: 0.6"/>
      </g>
     </g>
    </g>
    <g id="ytick_52">
     <g id="line2d_117">
      <path d="M 56.50625 78.510733 
L 491.996875 78.510733 
" clip-path="url(#pe2d10222d8)" style="fill: none; stroke-dasharray: 2.96,1.28; stroke-dashoffset: 0; stroke: #e6e6e6; stroke-width: 0.8"/>
     </g>
     <g id="line2d_118">
      <g>
       <use xlink:href="#m281a027a15" x="56.50625" y="78.510733" style="stroke: #000000; stroke-width: 0.6"/>
      </g>
     </g>
    </g>
    <g id="ytick_53">
     <g id="line2d_119">
      <path d="M 56.50625 76.703984 
L 491.996875 76.703984 
" clip-path="url(#pe2d10222d8)" style="fill: none; stroke-dasharray: 2.96,1.28; stroke-dashoffset: 0; stroke: #e6e6e6; stroke-width: 0.8"/>
     </g>
     <g id="line2d_120">
      <g>
       <use xlink:href="#m281a027a15" x="56.50625" y="76.703984" style="stroke: #000000; stroke-width: 0.6"/>
      </g>
     </g>
    </g>
    <g id="ytick_54">
     <g id="line2d_121">
      <path d="M 56.50625 75.110319 
L 491.996875 75.110319 
" clip-path="url(#pe2d10222d8)" style="fill: none; stroke-dasharray: 2.96,1.28; stroke-dashoffset: 0; stroke: #e6e6e6; stroke-width: 0.8"/>
     </g>
     <g id="line2d_122">
      <g>
       <use xlink:href="#m281a027a15" x="56.50625" y="75.110319" style="stroke: #000000; stroke-width: 0.6"/>
      </g>
     </g>
    </g>
    <g id="ytick_55">
     <g id="line2d_123">
      <path d="M 56.50625 64.306097 
L 491.996875 64.306097 
" clip-path="url(#pe2d10222d8)" style="fill: none; stroke-dasharray: 2.96,1.28; stroke-dashoffset: 0; stroke: #e6e6e6; stroke-width: 0.8"/>
     </g>
     <g id="line2d_124">
      <g>
       <use xlink:href="#m281a027a15" x="56.50625" y="64.306097" style="stroke: #000000; stroke-width: 0.6"/>
      </g>
     </g>
    </g>
    <g id="ytick_56">
     <g id="line2d_125">
      <path d="M 56.50625 58.819944 
L 491.996875 58.819944 
" clip-path="url(#pe2d10222d8)" style="fill: none; stroke-dasharray: 2.96,1.28; stroke-dashoffset: 0; stroke: #e6e6e6; stroke-width: 0.8"/>
     </g>
     <g id="line2d_126">
      <g>
       <use xlink:href="#m281a027a15" x="56.50625" y="58.819944" style="stroke: #000000; stroke-width: 0.6"/>
      </g>
     </g>
    </g>
    <g id="ytick_57">
     <g id="line2d_127">
      <path d="M 56.50625 54.927457 
L 491.996875 54.927457 
" clip-path="url(#pe2d10222d8)" style="fill: none; stroke-dasharray: 2.96,1.28; stroke-dashoffset: 0; stroke: #e6e6e6; stroke-width: 0.8"/>
     </g>
     <g id="line2d_128">
      <g>
       <use xlink:href="#m281a027a15" x="56.50625" y="54.927457" style="stroke: #000000; stroke-width: 0.6"/>
      </g>
     </g>
    </g>
    <g id="ytick_58">
     <g id="line2d_129">
      <path d="M 56.50625 51.908209 
L 491.996875 51.908209 
" clip-path="url(#pe2d10222d8)" style="fill: none; stroke-dasharray: 2.96,1.28; stroke-dashoffset: 0; stroke: #e6e6e6; stroke-width: 0.8"/>
     </g>
     <g id="line2d_130">
      <g>
       <use xlink:href="#m281a027a15" x="56.50625" y="51.908209" style="stroke: #000000; stroke-width: 0.6"/>
      </g>
     </g>
    </g>
    <g id="ytick_59">
     <g id="line2d_131">
      <path d="M 56.50625 49.441304 
L 491.996875 49.441304 
" clip-path="url(#pe2d10222d8)" style="fill: none; stroke-dasharray: 2.96,1.28; stroke-dashoffset: 0; stroke: #e6e6e6; stroke-width: 0.8"/>
     </g>
     <g id="line2d_132">
      <g>
       <use xlink:href="#m281a027a15" x="56.50625" y="49.441304" style="stroke: #000000; stroke-width: 0.6"/>
      </g>
     </g>
    </g>
    <g id="ytick_60">
     <g id="line2d_133">
      <path d="M 56.50625 47.355566 
L 491.996875 47.355566 
" clip-path="url(#pe2d10222d8)" style="fill: none; stroke-dasharray: 2.96,1.28; stroke-dashoffset: 0; stroke: #e6e6e6; stroke-width: 0.8"/>
     </g>
     <g id="line2d_134">
      <g>
       <use xlink:href="#m281a027a15" x="56.50625" y="47.355566" style="stroke: #000000; stroke-width: 0.6"/>
      </g>
     </g>
    </g>
    <g id="ytick_61">
     <g id="line2d_135">
      <path d="M 56.50625 45.548817 
L 491.996875 45.548817 
" clip-path="url(#pe2d10222d8)" style="fill: none; stroke-dasharray: 2.96,1.28; stroke-dashoffset: 0; stroke: #e6e6e6; stroke-width: 0.8"/>
     </g>
     <g id="line2d_136">
      <g>
       <use xlink:href="#m281a027a15" x="56.50625" y="45.548817" style="stroke: #000000; stroke-width: 0.6"/>
      </g>
     </g>
    </g>
    <g id="ytick_62">
     <g id="line2d_137">
      <path d="M 56.50625 43.955151 
L 491.996875 43.955151 
" clip-path="url(#pe2d10222d8)" style="fill: none; stroke-dasharray: 2.96,1.28; stroke-dashoffset: 0; stroke: #e6e6e6; stroke-width: 0.8"/>
     </g>
     <g id="line2d_138">
      <g>
       <use xlink:href="#m281a027a15" x="56.50625" y="43.955151" style="stroke: #000000; stroke-width: 0.6"/>
      </g>
     </g>
    </g>
    <g id="ytick_63">
     <g id="line2d_139">
      <path d="M 56.50625 33.150929 
L 491.996875 33.150929 
" clip-path="url(#pe2d10222d8)" style="fill: none; stroke-dasharray: 2.96,1.28; stroke-dashoffset: 0; stroke: #e6e6e6; stroke-width: 0.8"/>
     </g>
     <g id="line2d_140">
      <g>
       <use xlink:href="#m281a027a15" x="56.50625" y="33.150929" style="stroke: #000000; stroke-width: 0.6"/>
      </g>
     </g>
    </g>
    <g id="ytick_64">
     <g id="line2d_141">
      <path d="M 56.50625 27.664776 
L 491.996875 27.664776 
" clip-path="url(#pe2d10222d8)" style="fill: none; stroke-dasharray: 2.96,1.28; stroke-dashoffset: 0; stroke: #e6e6e6; stroke-width: 0.8"/>
     </g>
     <g id="line2d_142">
      <g>
       <use xlink:href="#m281a027a15" x="56.50625" y="27.664776" style="stroke: #000000; stroke-width: 0.6"/>
      </g>
     </g>
    </g>
    <g id="ytick_65">
     <g id="line2d_143">
      <path d="M 56.50625 23.772289 
L 491.996875 23.772289 
" clip-path="url(#pe2d10222d8)" style="fill: none; stroke-dasharray: 2.96,1.28; stroke-dashoffset: 0; stroke: #e6e6e6; stroke-width: 0.8"/>
     </g>
     <g id="line2d_144">
      <g>
       <use xlink:href="#m281a027a15" x="56.50625" y="23.772289" style="stroke: #000000; stroke-width: 0.6"/>
      </g>
     </g>
    </g>
    <g id="ytick_66">
     <g id="line2d_145">
      <path d="M 56.50625 20.753041 
L 491.996875 20.753041 
" clip-path="url(#pe2d10222d8)" style="fill: none; stroke-dasharray: 2.96,1.28; stroke-dashoffset: 0; stroke: #e6e6e6; stroke-width: 0.8"/>
     </g>
     <g id="line2d_146">
      <g>
       <use xlink:href="#m281a027a15" x="56.50625" y="20.753041" style="stroke: #000000; stroke-width: 0.6"/>
      </g>
     </g>
    </g>
    <g id="ytick_67">
     <g id="line2d_147">
      <path d="M 56.50625 18.286136 
L 491.996875 18.286136 
" clip-path="url(#pe2d10222d8)" style="fill: none; stroke-dasharray: 2.96,1.28; stroke-dashoffset: 0; stroke: #e6e6e6; stroke-width: 0.8"/>
     </g>
     <g id="line2d_148">
      <g>
       <use xlink:href="#m281a027a15" x="56.50625" y="18.286136" style="stroke: #000000; stroke-width: 0.6"/>
      </g>
     </g>
    </g>
    <g id="ytick_68">
     <g id="line2d_149">
      <path d="M 56.50625 16.200398 
L 491.996875 16.200398 
" clip-path="url(#pe2d10222d8)" style="fill: none; stroke-dasharray: 2.96,1.28; stroke-dashoffset: 0; stroke: #e6e6e6; stroke-width: 0.8"/>
     </g>
     <g id="line2d_150">
      <g>
       <use xlink:href="#m281a027a15" x="56.50625" y="16.200398" style="stroke: #000000; stroke-width: 0.6"/>
      </g>
     </g>
    </g>
    <g id="ytick_69">
     <g id="line2d_151">
      <path d="M 56.50625 14.393649 
L 491.996875 14.393649 
" clip-path="url(#pe2d10222d8)" style="fill: none; stroke-dasharray: 2.96,1.28; stroke-dashoffset: 0; stroke: #e6e6e6; stroke-width: 0.8"/>
     </g>
     <g id="line2d_152">
      <g>
       <use xlink:href="#m281a027a15" x="56.50625" y="14.393649" style="stroke: #000000; stroke-width: 0.6"/>
      </g>
     </g>
    </g>
    <g id="ytick_70">
     <g id="line2d_153">
      <path d="M 56.50625 12.799984 
L 491.996875 12.799984 
" clip-path="url(#pe2d10222d8)" style="fill: none; stroke-dasharray: 2.96,1.28; stroke-dashoffset: 0; stroke: #e6e6e6; stroke-width: 0.8"/>
     </g>
     <g id="line2d_154">
      <g>
       <use xlink:href="#m281a027a15" x="56.50625" y="12.799984" style="stroke: #000000; stroke-width: 0.6"/>
      </g>
     </g>
    </g>
    <g id="text_17">
     <!-- $I_{D}\ (A)$ -->
     <g transform="translate(14.798438 138.521875) rotate(-90) scale(0.1 -0.1)">
      <defs>
       <path id="DejaVuSans-Oblique-49" d="M 1081 4666 
L 1716 4666 
L 806 0 
L 172 0 
L 1081 4666 
z
" transform="scale(0.015625)"/>
       <path id="DejaVuSans-Oblique-44" d="M 1081 4666 
L 2438 4666 
Q 3519 4666 4070 4208 
Q 4622 3750 4622 2847 
Q 4622 2250 4412 1698 
Q 4203 1147 3834 769 
Q 3463 381 2891 190 
Q 2319 0 1538 0 
L 172 0 
L 1081 4666 
z
M 1613 4147 
L 909 519 
L 1734 519 
Q 2794 519 3375 1128 
Q 3956 1738 3956 2847 
Q 3956 3519 3581 3833 
Q 3206 4147 2406 4147 
L 1613 4147 
z
" transform="scale(0.015625)"/>
       <path id="DejaVuSans-Oblique-41" d="M 2356 4666 
L 3072 4666 
L 3938 0 
L 3278 0 
L 3084 1197 
L 984 1197 
L 325 0 
L -341 0 
L 2356 4666 
z
M 2584 4044 
L 1275 1722 
L 2988 1722 
L 2584 4044 
z
" transform="scale(0.015625)"/>
      </defs>
      <use xlink:href="#DejaVuSans-Oblique-49" transform="translate(0 0.125)"/>
      <use xlink:href="#DejaVuSans-Oblique-44" transform="translate(29.492188 -16.28125) scale(0.7)"/>
      <use xlink:href="#DejaVuSans-28" transform="translate(118.598308 0.125)"/>
      <use xlink:href="#DejaVuSans-Oblique-41" transform="translate(157.61198 0.125)"/>
      <use xlink:href="#DejaVuSans-29" transform="translate(226.020183 0.125)"/>
     </g>
    </g>
   </g>
   <g id="line2d_155">
    <path d="M 76.301278 188.680041 
L 79.628174 184.843739 
L 82.955069 181.018038 
L 86.281965 177.204577 
L 89.608861 173.405456 
L 92.935756 169.622629 
L 96.262652 165.85822 
L 99.589547 162.114583 
L 102.916443 158.394278 
L 106.243338 154.700128 
L 109.570234 151.035155 
L 112.897129 147.40261 
L 116.224025 143.805939 
L 119.55092 140.248735 
L 122.877816 136.734701 
L 126.204711 133.267591 
L 129.531607 129.851117 
L 132.858502 126.488873 
L 136.185398 123.184255 
L 139.512293 119.940322 
L 142.839189 116.759736 
L 146.166085 113.644662 
L 149.49298 110.596701 
L 152.819876 107.616848 
L 156.146771 104.705485 
L 159.473667 101.862417 
L 162.800562 99.086917 
L 166.127458 96.37782 
L 169.454353 93.73368 
L 172.781249 91.152858 
L 176.108144 88.633715 
L 179.43504 86.174725 
L 182.761935 83.774612 
L 186.088831 81.43245 
L 189.415726 79.147723 
L 192.742622 76.920352 
L 196.069518 74.750671 
L 199.396413 72.63938 
L 202.723309 70.587442 
L 206.050204 68.595991 
L 209.3771 66.666203 
L 212.703995 64.799148 
L 216.030891 62.995735 
L 219.357786 61.256564 
L 222.684682 59.5819 
L 226.011577 57.971627 
L 229.338473 56.425213 
L 232.665368 54.941752 
L 235.992264 53.519983 
L 239.319159 52.158323 
L 242.646055 50.854933 
L 245.97295 49.607763 
L 249.299846 48.414614 
L 252.626742 47.273178 
L 255.953637 46.181096 
L 259.280533 45.135985 
L 262.607428 44.135481 
L 265.934324 43.177258 
L 269.261219 42.259056 
L 272.588115 41.378693 
L 275.91501 40.534077 
L 279.241906 39.723215 
L 282.568801 38.94421 
L 285.895697 38.195263 
L 289.222592 37.474678 
L 292.549488 36.780881 
L 295.876383 36.112373 
L 299.203279 35.467748 
L 302.530175 34.8457 
L 305.85707 34.244997 
L 309.183966 33.664505 
L 312.510861 33.103142 
L 315.837757 32.55991 
L 319.164652 32.033872 
L 322.491548 31.524158 
L 325.818443 31.029953 
L 329.145339 30.550485 
L 332.472234 30.085044 
L 335.79913 29.63297 
L 339.126025 29.193623 
L 342.452921 28.766423 
L 345.779816 28.350823 
L 349.106712 27.946305 
L 352.433607 27.552386 
L 355.760503 27.168607 
L 359.087399 26.794543 
L 362.414294 26.429794 
L 365.74119 26.073978 
L 369.068085 25.72674 
L 372.394981 25.387737 
L 375.721876 25.05666 
L 379.048772 24.733201 
L 382.375667 24.417081 
L 385.702563 24.108029 
L 389.029458 23.805791 
L 392.356354 23.510128 
L 395.683249 23.220809 
L 399.010145 22.937621 
L 402.33704 22.660351 
L 405.663936 22.388811 
L 408.990832 22.122812 
L 412.317727 21.862179 
L 415.644623 21.606741 
L 418.971518 21.356341 
L 422.298414 21.110826 
L 425.625309 20.870049 
L 428.952205 20.633871 
L 432.2791 20.402163 
L 435.605996 20.174795 
L 438.932891 19.951647 
L 442.259787 19.732605 
L 445.586682 19.517557 
L 448.913578 19.306402 
L 452.240473 19.099033 
L 455.567369 18.895359 
L 458.894264 18.695283 
L 462.22116 18.498718 
L 465.548056 18.30558 
L 468.874951 18.115787 
L 472.201847 17.929261 
" clip-path="url(#pe2d10222d8)" style="fill: none; stroke: #1f77b4; stroke-width: 1.5; stroke-linecap: square"/>
   </g>
   <g id="line2d_156">
    <path d="M 76.301278 213.424888 
L 79.628174 209.190001 
L 82.955069 204.961568 
L 86.281965 200.741108 
L 89.608861 196.530236 
L 92.935756 192.330909 
L 96.262652 188.145394 
L 99.589547 183.975824 
L 102.916443 179.824583 
L 106.243338 175.694326 
L 109.570234 171.588003 
L 112.897129 167.508858 
L 116.224025 163.460448 
L 119.55092 159.446601 
L 122.877816 155.471426 
L 126.204711 151.539249 
L 129.531607 147.654514 
L 132.858502 143.821744 
L 136.185398 140.045377 
L 139.512293 136.329672 
L 142.839189 132.678542 
L 146.166085 129.095411 
L 149.49298 125.583111 
L 152.819876 122.143752 
L 156.146771 118.778697 
L 159.473667 115.488569 
L 162.800562 112.273321 
L 166.127458 109.132377 
L 169.454353 106.064841 
L 172.781249 103.069706 
L 176.108144 100.146122 
L 179.43504 97.29352 
L 182.761935 94.511885 
L 186.088831 91.801725 
L 189.415726 89.164146 
L 192.742622 86.600726 
L 196.069518 84.113396 
L 199.396413 81.704233 
L 202.723309 79.37526 
L 206.050204 77.128241 
L 209.3771 74.964514 
L 212.703995 72.884857 
L 216.030891 70.889416 
L 219.357786 68.977696 
L 222.684682 67.148544 
L 226.011577 65.40023 
L 229.338473 63.730538 
L 232.665368 62.136814 
L 235.992264 60.616115 
L 239.319159 59.165264 
L 242.646055 57.780943 
L 245.97295 56.459786 
L 249.299846 55.198422 
L 252.626742 53.993531 
L 255.953637 52.841886 
L 259.280533 51.740374 
L 262.607428 50.68603 
L 265.934324 49.676029 
L 269.261219 48.707712 
L 272.588115 47.778575 
L 275.91501 46.886276 
L 279.241906 46.028625 
L 282.568801 45.20358 
L 285.895697 44.40924 
L 289.222592 43.643842 
L 292.549488 42.905742 
L 295.876383 42.19342 
L 299.203279 41.505446 
L 302.530175 40.840529 
L 305.85707 40.197443 
L 309.183966 39.575032 
L 312.510861 38.972277 
L 315.837757 38.388167 
L 319.164652 37.821811 
L 322.491548 37.272339 
L 325.818443 36.738976 
L 329.145339 36.220978 
L 332.472234 35.717648 
L 335.79913 35.228349 
L 339.126025 34.752465 
L 342.452921 34.289432 
L 345.779816 33.838724 
L 349.106712 33.399839 
L 352.433607 32.972313 
L 355.760503 32.555701 
L 359.087399 32.149586 
L 362.414294 31.753574 
L 365.74119 31.367312 
L 369.068085 30.990438 
L 372.394981 30.622628 
L 375.721876 30.263574 
L 379.048772 29.912976 
L 382.375667 29.570565 
L 385.702563 29.236068 
L 389.029458 28.909245 
L 392.356354 28.589852 
L 395.683249 28.277667 
L 399.010145 27.972478 
L 402.33704 27.674079 
L 405.663936 27.382279 
L 408.990832 27.096894 
L 412.317727 26.817756 
L 415.644623 26.544693 
L 418.971518 26.277548 
L 422.298414 26.016171 
L 425.625309 25.760416 
L 428.952205 25.51015 
L 432.2791 25.265244 
L 435.605996 25.025572 
L 438.932891 24.791012 
L 442.259787 24.56145 
L 445.586682 24.336787 
L 448.913578 24.116906 
L 452.240473 23.901713 
L 455.567369 23.691117 
L 458.894264 23.485018 
L 462.22116 23.283332 
L 465.548056 23.085971 
L 468.874951 22.892853 
L 472.201847 22.703898 
" clip-path="url(#pe2d10222d8)" style="fill: none; stroke: #ff7f0e; stroke-width: 1.5; stroke-linecap: square"/>
   </g>
   <g id="line2d_157">
    <path d="M 76.301278 224.338169 
L 79.628174 220.045262 
L 82.955069 215.759975 
L 86.281965 211.484615 
L 89.608861 207.221517 
L 92.935756 202.973084 
L 96.262652 198.741892 
L 99.589547 194.531061 
L 102.916443 190.343737 
L 106.243338 186.183147 
L 109.570234 182.052726 
L 112.897129 177.956112 
L 116.224025 173.897101 
L 119.55092 169.879568 
L 122.877816 165.907379 
L 126.204711 161.984252 
L 129.531607 158.113669 
L 132.858502 154.298711 
L 136.185398 150.541962 
L 139.512293 146.84543 
L 142.839189 143.210543 
L 146.166085 139.638216 
L 149.49298 136.129023 
L 152.819876 132.683435 
L 156.146771 129.302112 
L 159.473667 125.986236 
L 162.800562 122.737715 
L 166.127458 119.55934 
L 169.454353 116.454791 
L 172.781249 113.428463 
L 176.108144 110.4852 
L 179.43504 107.629921 
L 182.761935 104.867256 
L 186.088831 102.201197 
L 189.415726 99.634829 
L 192.742622 97.170144 
L 196.069518 94.808003 
L 199.396413 92.548126 
L 202.723309 90.389175 
L 206.050204 88.328905 
L 209.3771 86.364326 
L 212.703995 84.491849 
L 216.030891 82.70747 
L 219.357786 81.006912 
L 222.684682 79.385757 
L 226.011577 77.839545 
L 229.338473 76.363871 
L 232.665368 74.954438 
L 235.992264 73.607119 
L 239.319159 72.317967 
L 242.646055 71.083265 
L 245.97295 69.899524 
L 249.299846 68.763476 
L 252.626742 67.672062 
L 255.953637 66.622465 
L 259.280533 65.612081 
L 262.607428 64.638477 
L 265.934324 63.69944 
L 269.261219 62.792897 
L 272.588115 61.916967 
L 275.91501 61.069896 
L 279.241906 60.250072 
L 282.568801 59.456006 
L 285.895697 58.686338 
L 289.222592 57.939788 
L 292.549488 57.215198 
L 295.876383 56.511477 
L 299.203279 55.827629 
L 302.530175 55.162715 
L 305.85707 54.515884 
L 309.183966 53.886328 
L 312.510861 53.273304 
L 315.837757 52.676115 
L 319.164652 52.094115 
L 322.491548 51.526703 
L 325.818443 50.973312 
L 329.145339 50.433416 
L 332.472234 49.90652 
L 335.79913 49.392168 
L 339.126025 48.889921 
L 342.452921 48.399376 
L 345.779816 47.920155 
L 349.106712 47.451905 
L 352.433607 46.99429 
L 355.760503 46.547002 
L 359.087399 46.109749 
L 362.414294 45.682263 
L 365.74119 45.264289 
L 369.068085 44.855596 
L 372.394981 44.455969 
L 375.721876 44.065212 
L 379.048772 43.683139 
L 382.375667 43.309587 
L 385.702563 42.944407 
L 389.029458 42.587464 
L 392.356354 42.238633 
L 395.683249 41.897819 
L 399.010145 41.564898 
L 402.33704 41.239801 
L 405.663936 40.922428 
L 408.990832 40.612705 
L 412.317727 40.310545 
L 415.644623 40.015885 
L 418.971518 39.728604 
L 422.298414 39.448633 
L 425.625309 39.175848 
L 428.952205 38.910152 
L 432.2791 38.651422 
L 435.605996 38.39953 
L 438.932891 38.154329 
L 442.259787 37.915674 
L 445.586682 37.683436 
L 448.913578 37.457452 
L 452.240473 37.237558 
L 455.567369 37.023613 
L 458.894264 36.815455 
L 462.22116 36.612933 
L 465.548056 36.415885 
L 468.874951 36.224178 
L 472.201847 36.037653 
" clip-path="url(#pe2d10222d8)" style="fill: none; stroke: #2ca02c; stroke-width: 1.5; stroke-linecap: square"/>
   </g>
   <g id="line2d_158">
    <path d="M 76.301278 228.497756 
L 79.628174 224.21478 
L 82.955069 219.941428 
L 86.281965 215.680667 
L 89.608861 211.435397 
L 92.935756 207.208583 
L 96.262652 203.003611 
L 99.589547 198.82392 
L 102.916443 194.672876 
L 106.243338 190.553968 
L 109.570234 186.470803 
L 112.897129 182.426994 
L 116.224025 178.426087 
L 119.55092 174.471446 
L 122.877816 170.566122 
L 126.204711 166.712749 
L 129.531607 162.913451 
L 132.858502 159.16981 
L 136.185398 155.482938 
L 139.512293 151.853608 
L 142.839189 148.282512 
L 146.166085 144.770594 
L 149.49298 141.319407 
L 152.819876 137.931424 
L 156.146771 134.610237 
L 159.473667 131.360565 
L 162.800562 128.188102 
L 166.127458 125.099155 
L 169.454353 122.100181 
L 172.781249 119.197308 
L 176.108144 116.395852 
L 179.43504 113.700001 
L 182.761935 111.112566 
L 186.088831 108.634912 
L 189.415726 106.266986 
L 192.742622 104.00744 
L 196.069518 101.853809 
L 199.396413 99.802737 
L 202.723309 97.850164 
L 206.050204 95.991561 
L 209.3771 94.222102 
L 212.703995 92.536807 
L 216.030891 90.930674 
L 219.357786 89.398795 
L 222.684682 87.936394 
L 226.011577 86.53891 
L 229.338473 85.202025 
L 232.665368 83.921663 
L 235.992264 82.694026 
L 239.319159 81.515578 
L 242.646055 80.38304 
L 245.97295 79.293389 
L 249.299846 78.243836 
L 252.626742 77.231812 
L 255.953637 76.254966 
L 259.280533 75.311129 
L 262.607428 74.398312 
L 265.934324 73.51469 
L 269.261219 72.658594 
L 272.588115 71.828486 
L 275.91501 71.022926 
L 279.241906 70.240638 
L 282.568801 69.480416 
L 285.895697 68.74114 
L 289.222592 68.0218 
L 292.549488 67.321455 
L 295.876383 66.639215 
L 299.203279 65.974286 
L 302.530175 65.325903 
L 305.85707 64.69337 
L 309.183966 64.076049 
L 312.510861 63.473327 
L 315.837757 62.884645 
L 319.164652 62.309473 
L 322.491548 61.747327 
L 325.818443 61.197755 
L 329.145339 60.660326 
L 332.472234 60.134651 
L 335.79913 59.620356 
L 339.126025 59.117106 
L 342.452921 58.624586 
L 345.779816 58.142505 
L 349.106712 57.670596 
L 352.433607 57.208626 
L 355.760503 56.756371 
L 359.087399 56.313647 
L 362.414294 55.880287 
L 365.74119 55.456152 
L 369.068085 55.041129 
L 372.394981 54.635134 
L 375.721876 54.2381 
L 379.048772 53.849988 
L 382.375667 53.470774 
L 385.702563 53.100447 
L 389.029458 52.739008 
L 392.356354 52.386455 
L 395.683249 52.04278 
L 399.010145 51.707957 
L 402.33704 51.381954 
L 405.663936 51.0647 
L 408.990832 50.75611 
L 412.317727 50.456069 
L 415.644623 50.164433 
L 418.971518 49.881055 
L 422.298414 49.60575 
L 425.625309 49.338333 
L 428.952205 49.078605 
L 432.2791 48.82636 
L 435.605996 48.58139 
L 438.932891 48.343486 
L 442.259787 48.11244 
L 445.586682 47.888048 
L 448.913578 47.670107 
L 452.240473 47.458423 
L 455.567369 47.252803 
L 458.894264 47.053064 
L 462.22116 46.859026 
L 465.548056 46.670514 
L 468.874951 46.487364 
L 472.201847 46.309416 
" clip-path="url(#pe2d10222d8)" style="fill: none; stroke: #d62728; stroke-width: 1.5; stroke-linecap: square"/>
   </g>
   <g id="line2d_159">
    <path d="M 76.301278 232.514489 
L 79.628174 228.250117 
L 82.955069 223.996368 
L 86.281965 219.756823 
L 89.608861 215.534859 
L 92.935756 211.334165 
L 96.262652 207.158359 
L 99.589547 203.010891 
L 102.916443 198.895262 
L 106.243338 194.814991 
L 109.570234 190.77354 
L 112.897129 186.774219 
L 116.224025 182.820093 
L 119.55092 178.913839 
L 122.877816 175.057673 
L 126.204711 171.253291 
L 129.531607 167.501892 
L 132.858502 163.804293 
L 136.185398 160.161184 
L 139.512293 156.573415 
L 142.839189 153.042432 
L 146.166085 149.570614 
L 149.49298 146.16157 
L 152.819876 142.820238 
L 156.146771 139.552778 
L 159.473667 136.36622 
L 162.800562 133.268 
L 166.127458 130.265365 
L 169.454353 127.364837 
L 172.781249 124.571767 
L 176.108144 121.890012 
L 179.43504 119.321812 
L 182.761935 116.867777 
L 186.088831 114.527012 
L 189.415726 112.297307 
L 192.742622 110.175376 
L 196.069518 108.157106 
L 199.396413 106.23779 
L 202.723309 104.412348 
L 206.050204 102.675481 
L 209.3771 101.021877 
L 212.703995 99.446255 
L 216.030891 97.94351 
L 219.357786 96.508746 
L 222.684682 95.137315 
L 226.011577 93.82485 
L 229.338473 92.567286 
L 232.665368 91.360827 
L 235.992264 90.201974 
L 239.319159 89.087503 
L 242.646055 88.014441 
L 245.97295 86.980063 
L 249.299846 85.981873 
L 252.626742 85.017582 
L 255.953637 84.085084 
L 259.280533 83.182467 
L 262.607428 82.307964 
L 265.934324 81.459965 
L 269.261219 80.636989 
L 272.588115 79.837674 
L 275.91501 79.060771 
L 279.241906 78.30513 
L 282.568801 77.569692 
L 285.895697 76.853477 
L 289.222592 76.155583 
L 292.549488 75.475174 
L 295.876383 74.811475 
L 299.203279 74.163768 
L 302.530175 73.531388 
L 305.85707 72.913712 
L 309.183966 72.310166 
L 312.510861 71.720208 
L 315.837757 71.143337 
L 319.164652 70.579095 
L 322.491548 70.02705 
L 325.818443 69.486785 
L 329.145339 68.957922 
L 332.472234 68.440127 
L 335.79913 67.933067 
L 339.126025 67.436445 
L 342.452921 66.949994 
L 345.779816 66.473461 
L 349.106712 66.006628 
L 352.433607 65.549297 
L 355.760503 65.101309 
L 359.087399 64.66251 
L 362.414294 64.232805 
L 365.74119 63.812093 
L 369.068085 63.400337 
L 372.394981 62.997504 
L 375.721876 62.603592 
L 379.048772 62.218626 
L 382.375667 61.842636 
L 385.702563 61.475667 
L 389.029458 61.11775 
L 392.356354 60.768917 
L 395.683249 60.429174 
L 399.010145 60.0985 
L 402.33704 59.776843 
L 405.663936 59.464126 
L 408.990832 59.160241 
L 412.317727 58.865035 
L 415.644623 58.578357 
L 418.971518 58.300009 
L 422.298414 58.029804 
L 425.625309 57.767522 
L 428.952205 57.512954 
L 432.2791 57.265874 
L 435.605996 57.026065 
L 438.932891 56.793312 
L 442.259787 56.56739 
L 445.586682 56.348098 
L 448.913578 56.135227 
L 452.240473 55.928576 
L 455.567369 55.727954 
L 458.894264 55.533174 
L 462.22116 55.344053 
L 465.548056 55.160427 
L 468.874951 54.982119 
L 472.201847 54.808976 
" clip-path="url(#pe2d10222d8)" style="fill: none; stroke: #9467bd; stroke-width: 1.5; stroke-linecap: square"/>
   </g>
   <g id="patch_3">
    <path d="M 56.50625 243.24375 
L 56.50625 7.2 
" style="fill: none; stroke: #000000; stroke-width: 0.8; stroke-linejoin: miter; stroke-linecap: square"/>
   </g>
   <g id="patch_4">
    <path d="M 491.996875 243.24375 
L 491.996875 7.2 
" style="fill: none; stroke: #000000; stroke-width: 0.8; stroke-linejoin: miter; stroke-linecap: square"/>
   </g>
   <g id="patch_5">
    <path d="M 56.50625 243.24375 
L 491.996875 243.24375 
" style="fill: none; stroke: #000000; stroke-width: 0.8; stroke-linejoin: miter; stroke-linecap: square"/>
   </g>
   <g id="patch_6">
    <path d="M 56.50625 7.2 
L 491.996875 7.2 
" style="fill: none; stroke: #000000; stroke-width: 0.8; stroke-linejoin: miter; stroke-linecap: square"/>
   </g>
   <g id="legend_1">
    <g id="patch_7">
     <path d="M 498.996875 171.724062 
L 559.6 171.724062 
Q 561.6 171.724062 561.6 169.724062 
L 561.6 80.719687 
Q 561.6 78.719687 559.6 78.719687 
L 498.996875 78.719687 
Q 496.996875 78.719687 496.996875 80.719687 
L 496.996875 169.724062 
Q 496.996875 171.724062 498.996875 171.724062 
z
" style="fill: #ffffff; opacity: 0.8; stroke: #cccccc; stroke-linejoin: miter"/>
    </g>
    <g id="text_18">
     <!-- Length -->
     <g transform="translate(508.602188 91.837812) scale(0.12 -0.12)">
      <defs>
       <path id="DejaVuSans-4c" d="M 628 4666 
L 1259 4666 
L 1259 531 
L 3531 531 
L 3531 0 
L 628 0 
L 628 4666 
z
" transform="scale(0.015625)"/>
       <path id="DejaVuSans-65" d="M 3597 1894 
L 3597 1613 
L 953 1613 
Q 991 1019 1311 708 
Q 1631 397 2203 397 
Q 2534 397 2845 478 
Q 3156 559 3463 722 
L 3463 178 
Q 3153 47 2828 -22 
Q 2503 -91 2169 -91 
Q 1331 -91 842 396 
Q 353 884 353 1716 
Q 353 2575 817 3079 
Q 1281 3584 2069 3584 
Q 2775 3584 3186 3129 
Q 3597 2675 3597 1894 
z
M 3022 2063 
Q 3016 2534 2758 2815 
Q 2500 3097 2075 3097 
Q 1594 3097 1305 2825 
Q 1016 2553 972 2059 
L 3022 2063 
z
" transform="scale(0.015625)"/>
       <path id="DejaVuSans-67" d="M 2906 1791 
Q 2906 2416 2648 2759 
Q 2391 3103 1925 3103 
Q 1463 3103 1205 2759 
Q 947 2416 947 1791 
Q 947 1169 1205 825 
Q 1463 481 1925 481 
Q 2391 481 2648 825 
Q 2906 1169 2906 1791 
z
M 3481 434 
Q 3481 -459 3084 -895 
Q 2688 -1331 1869 -1331 
Q 1566 -1331 1297 -1286 
Q 1028 -1241 775 -1147 
L 775 -588 
Q 1028 -725 1275 -790 
Q 1522 -856 1778 -856 
Q 2344 -856 2625 -561 
Q 2906 -266 2906 331 
L 2906 616 
Q 2728 306 2450 153 
Q 2172 0 1784 0 
Q 1141 0 747 490 
Q 353 981 353 1791 
Q 353 2603 747 3093 
Q 1141 3584 1784 3584 
Q 2172 3584 2450 3431 
Q 2728 3278 2906 2969 
L 2906 3500 
L 3481 3500 
L 3481 434 
z
" transform="scale(0.015625)"/>
       <path id="DejaVuSans-74" d="M 1172 4494 
L 1172 3500 
L 2356 3500 
L 2356 3053 
L 1172 3053 
L 1172 1153 
Q 1172 725 1289 603 
Q 1406 481 1766 481 
L 2356 481 
L 2356 0 
L 1766 0 
Q 1100 0 847 248 
Q 594 497 594 1153 
L 594 3053 
L 172 3053 
L 172 3500 
L 594 3500 
L 594 4494 
L 1172 4494 
z
" transform="scale(0.015625)"/>
       <path id="DejaVuSans-68" d="M 3513 2113 
L 3513 0 
L 2938 0 
L 2938 2094 
Q 2938 2591 2744 2837 
Q 2550 3084 2163 3084 
Q 1697 3084 1428 2787 
Q 1159 2491 1159 1978 
L 1159 0 
L 581 0 
L 581 4863 
L 1159 4863 
L 1159 2956 
Q 1366 3272 1645 3428 
Q 1925 3584 2291 3584 
Q 2894 3584 3203 3211 
Q 3513 2838 3513 2113 
z
" transform="scale(0.015625)"/>
      </defs>
      <use xlink:href="#DejaVuSans-4c"/>
      <use xlink:href="#DejaVuSans-65" transform="translate(53.962891 0)"/>
      <use xlink:href="#DejaVuSans-6e" transform="translate(115.486328 0)"/>
      <use xlink:href="#DejaVuSans-67" transform="translate(178.865234 0)"/>
      <use xlink:href="#DejaVuSans-74" transform="translate(242.341797 0)"/>
      <use xlink:href="#DejaVuSans-68" transform="translate(281.550781 0)"/>
     </g>
    </g>
    <g id="line2d_160">
     <path d="M 500.996875 103.431875 
L 510.996875 103.431875 
L 520.996875 103.431875 
" style="fill: none; stroke: #1f77b4; stroke-width: 1.5; stroke-linecap: square"/>
    </g>
    <g id="text_19">
     <!-- 65 n -->
     <g transform="translate(528.996875 106.931875) scale(0.1 -0.1)">
      <defs>
       <path id="DejaVuSans-35" d="M 691 4666 
L 3169 4666 
L 3169 4134 
L 1269 4134 
L 1269 2991 
Q 1406 3038 1543 3061 
Q 1681 3084 1819 3084 
Q 2600 3084 3056 2656 
Q 3513 2228 3513 1497 
Q 3513 744 3044 326 
Q 2575 -91 1722 -91 
Q 1428 -91 1123 -41 
Q 819 9 494 109 
L 494 744 
Q 775 591 1075 516 
Q 1375 441 1709 441 
Q 2250 441 2565 725 
Q 2881 1009 2881 1497 
Q 2881 1984 2565 2268 
Q 2250 2553 1709 2553 
Q 1456 2553 1204 2497 
Q 953 2441 691 2322 
L 691 4666 
z
" transform="scale(0.015625)"/>
      </defs>
      <use xlink:href="#DejaVuSans-36"/>
      <use xlink:href="#DejaVuSans-35" transform="translate(63.623047 0)"/>
      <use xlink:href="#DejaVuSans-20" transform="translate(127.246094 0)"/>
      <use xlink:href="#DejaVuSans-6e" transform="translate(159.033203 0)"/>
     </g>
    </g>
    <g id="line2d_161">
     <path d="M 500.996875 118.11 
L 510.996875 118.11 
L 520.996875 118.11 
" style="fill: none; stroke: #ff7f0e; stroke-width: 1.5; stroke-linecap: square"/>
    </g>
    <g id="text_20">
     <!-- 150 n -->
     <g transform="translate(528.996875 121.61) scale(0.1 -0.1)">
      <use xlink:href="#DejaVuSans-31"/>
      <use xlink:href="#DejaVuSans-35" transform="translate(63.623047 0)"/>
      <use xlink:href="#DejaVuSans-30" transform="translate(127.246094 0)"/>
      <use xlink:href="#DejaVuSans-20" transform="translate(190.869141 0)"/>
      <use xlink:href="#DejaVuSans-6e" transform="translate(222.65625 0)"/>
     </g>
    </g>
    <g id="line2d_162">
     <path d="M 500.996875 132.788125 
L 510.996875 132.788125 
L 520.996875 132.788125 
" style="fill: none; stroke: #2ca02c; stroke-width: 1.5; stroke-linecap: square"/>
    </g>
    <g id="text_21">
     <!-- 600 n -->
     <g transform="translate(528.996875 136.288125) scale(0.1 -0.1)">
      <use xlink:href="#DejaVuSans-36"/>
      <use xlink:href="#DejaVuSans-30" transform="translate(63.623047 0)"/>
      <use xlink:href="#DejaVuSans-30" transform="translate(127.246094 0)"/>
      <use xlink:href="#DejaVuSans-20" transform="translate(190.869141 0)"/>
      <use xlink:href="#DejaVuSans-6e" transform="translate(222.65625 0)"/>
     </g>
    </g>
    <g id="line2d_163">
     <path d="M 500.996875 147.46625 
L 510.996875 147.46625 
L 520.996875 147.46625 
" style="fill: none; stroke: #d62728; stroke-width: 1.5; stroke-linecap: square"/>
    </g>
    <g id="text_22">
     <!-- 1.5 µ -->
     <g transform="translate(528.996875 150.96625) scale(0.1 -0.1)">
      <use xlink:href="#DejaVuSans-31"/>
      <use xlink:href="#DejaVuSans-2e" transform="translate(63.623047 0)"/>
      <use xlink:href="#DejaVuSans-35" transform="translate(95.410156 0)"/>
      <use xlink:href="#DejaVuSans-20" transform="translate(159.033203 0)"/>
      <use xlink:href="#DejaVuSans-b5" transform="translate(190.820312 0)"/>
     </g>
    </g>
    <g id="line2d_164">
     <path d="M 500.996875 162.144375 
L 510.996875 162.144375 
L 520.996875 162.144375 
" style="fill: none; stroke: #9467bd; stroke-width: 1.5; stroke-linecap: square"/>
    </g>
    <g id="text_23">
     <!-- 3 µ -->
     <g transform="translate(528.996875 165.644375) scale(0.1 -0.1)">
      <defs>
       <path id="DejaVuSans-33" d="M 2597 2516 
Q 3050 2419 3304 2112 
Q 3559 1806 3559 1356 
Q 3559 666 3084 287 
Q 2609 -91 1734 -91 
Q 1441 -91 1130 -33 
Q 819 25 488 141 
L 488 750 
Q 750 597 1062 519 
Q 1375 441 1716 441 
Q 2309 441 2620 675 
Q 2931 909 2931 1356 
Q 2931 1769 2642 2001 
Q 2353 2234 1838 2234 
L 1294 2234 
L 1294 2753 
L 1863 2753 
Q 2328 2753 2575 2939 
Q 2822 3125 2822 3475 
Q 2822 3834 2567 4026 
Q 2313 4219 1838 4219 
Q 1578 4219 1281 4162 
Q 984 4106 628 3988 
L 628 4550 
Q 988 4650 1302 4700 
Q 1616 4750 1894 4750 
Q 2613 4750 3031 4423 
Q 3450 4097 3450 3541 
Q 3450 3153 3228 2886 
Q 3006 2619 2597 2516 
z
" transform="scale(0.015625)"/>
      </defs>
      <use xlink:href="#DejaVuSans-33"/>
      <use xlink:href="#DejaVuSans-20" transform="translate(63.623047 0)"/>
      <use xlink:href="#DejaVuSans-b5" transform="translate(95.410156 0)"/>
     </g>
    </g>
   </g>
  </g>
 </g>
 <defs>
  <clipPath id="pe2d10222d8">
   <rect x="56.50625" y="7.2" width="435.490625" height="236.04375"/>
  </clipPath>
 </defs>
</svg>
