<?xml version="1.0" encoding="utf-8" standalone="no"?>
<!DOCTYPE svg PUBLIC "-//W3C//DTD SVG 1.1//EN"
  "http://www.w3.org/Graphics/SVG/1.1/DTD/svg11.dtd">
<svg xmlns:xlink="http://www.w3.org/1999/xlink" width="568.8pt" height="280.8pt" viewBox="0 0 568.8 280.8" xmlns="http://www.w3.org/2000/svg" version="1.1">
 <metadata>
  <rdf:RDF xmlns:dc="http://purl.org/dc/elements/1.1/" xmlns:cc="http://creativecommons.org/ns#" xmlns:rdf="http://www.w3.org/1999/02/22-rdf-syntax-ns#">
   <cc:Work>
    <dc:type rdf:resource="http://purl.org/dc/dcmitype/StillImage"/>
    <dc:date>2025-03-31T16:35:53.242770</dc:date>
    <dc:format>image/svg+xml</dc:format>
    <dc:creator>
     <cc:Agent>
      <dc:title>Matplotlib v3.10.0, https://matplotlib.org/</dc:title>
     </cc:Agent>
    </dc:creator>
   </cc:Work>
  </rdf:RDF>
 </metadata>
 <defs>
  <style type="text/css">*{stroke-linejoin: round; stroke-linecap: butt}</style>
 </defs>
 <g id="figure_1">
  <g id="patch_1">
   <path d="M 0 280.8 
L 568.8 280.8 
L 568.8 0 
L 0 0 
z
" style="fill: #ffffff"/>
  </g>
  <g id="axes_1">
   <g id="patch_2">
    <path d="M 47.159375 243.24375 
L 488.59375 243.24375 
L 488.59375 7.2 
L 47.159375 7.2 
z
" style="fill: #ffffff"/>
   </g>
   <g id="matplotlib.axis_1">
    <g id="xtick_1">
     <g id="line2d_1">
      <path d="M 67.224574 243.24375 
L 67.224574 7.2 
" clip-path="url(#p072d910507)" style="fill: none; stroke-dasharray: 2.96,1.28; stroke-dashoffset: 0; stroke: #e6e6e6; stroke-width: 0.8"/>
     </g>
     <g id="line2d_2">
      <defs>
       <path id="mc60ac3263c" d="M 0 0 
L 0 3.5 
" style="stroke: #000000; stroke-width: 0.8"/>
      </defs>
      <g>
       <use xlink:href="#mc60ac3263c" x="67.224574" y="243.24375" style="stroke: #000000; stroke-width: 0.8"/>
      </g>
     </g>
     <g id="text_1">
      <!-- 0 -->
      <g transform="translate(64.043324 257.842187) scale(0.1 -0.1)">
       <defs>
        <path id="DejaVuSans-30" d="M 2034 4250 
Q 1547 4250 1301 3770 
Q 1056 3291 1056 2328 
Q 1056 1369 1301 889 
Q 1547 409 2034 409 
Q 2525 409 2770 889 
Q 3016 1369 3016 2328 
Q 3016 3291 2770 3770 
Q 2525 4250 2034 4250 
z
M 2034 4750 
Q 2819 4750 3233 4129 
Q 3647 3509 3647 2328 
Q 3647 1150 3233 529 
Q 2819 -91 2034 -91 
Q 1250 -91 836 529 
Q 422 1150 422 2328 
Q 422 3509 836 4129 
Q 1250 4750 2034 4750 
z
" transform="scale(0.015625)"/>
       </defs>
       <use xlink:href="#DejaVuSans-30"/>
      </g>
     </g>
    </g>
    <g id="xtick_2">
     <g id="line2d_3">
      <path d="M 134.10857 243.24375 
L 134.10857 7.2 
" clip-path="url(#p072d910507)" style="fill: none; stroke-dasharray: 2.96,1.28; stroke-dashoffset: 0; stroke: #e6e6e6; stroke-width: 0.8"/>
     </g>
     <g id="line2d_4">
      <g>
       <use xlink:href="#mc60ac3263c" x="134.10857" y="243.24375" style="stroke: #000000; stroke-width: 0.8"/>
      </g>
     </g>
     <g id="text_2">
      <!-- 200 m -->
      <g transform="translate(118.105445 257.842187) scale(0.1 -0.1)">
       <defs>
        <path id="DejaVuSans-32" d="M 1228 531 
L 3431 531 
L 3431 0 
L 469 0 
L 469 531 
Q 828 903 1448 1529 
Q 2069 2156 2228 2338 
Q 2531 2678 2651 2914 
Q 2772 3150 2772 3378 
Q 2772 3750 2511 3984 
Q 2250 4219 1831 4219 
Q 1534 4219 1204 4116 
Q 875 4013 500 3803 
L 500 4441 
Q 881 4594 1212 4672 
Q 1544 4750 1819 4750 
Q 2544 4750 2975 4387 
Q 3406 4025 3406 3419 
Q 3406 3131 3298 2873 
Q 3191 2616 2906 2266 
Q 2828 2175 2409 1742 
Q 1991 1309 1228 531 
z
" transform="scale(0.015625)"/>
        <path id="DejaVuSans-20" transform="scale(0.015625)"/>
        <path id="DejaVuSans-6d" d="M 3328 2828 
Q 3544 3216 3844 3400 
Q 4144 3584 4550 3584 
Q 5097 3584 5394 3201 
Q 5691 2819 5691 2113 
L 5691 0 
L 5113 0 
L 5113 2094 
Q 5113 2597 4934 2840 
Q 4756 3084 4391 3084 
Q 3944 3084 3684 2787 
Q 3425 2491 3425 1978 
L 3425 0 
L 2847 0 
L 2847 2094 
Q 2847 2600 2669 2842 
Q 2491 3084 2119 3084 
Q 1678 3084 1418 2786 
Q 1159 2488 1159 1978 
L 1159 0 
L 581 0 
L 581 3500 
L 1159 3500 
L 1159 2956 
Q 1356 3278 1631 3431 
Q 1906 3584 2284 3584 
Q 2666 3584 2933 3390 
Q 3200 3197 3328 2828 
z
" transform="scale(0.015625)"/>
       </defs>
       <use xlink:href="#DejaVuSans-32"/>
       <use xlink:href="#DejaVuSans-30" transform="translate(63.623047 0)"/>
       <use xlink:href="#DejaVuSans-30" transform="translate(127.246094 0)"/>
       <use xlink:href="#DejaVuSans-20" transform="translate(190.869141 0)"/>
       <use xlink:href="#DejaVuSans-6d" transform="translate(222.65625 0)"/>
      </g>
     </g>
    </g>
    <g id="xtick_3">
     <g id="line2d_5">
      <path d="M 200.992566 243.24375 
L 200.992566 7.2 
" clip-path="url(#p072d910507)" style="fill: none; stroke-dasharray: 2.96,1.28; stroke-dashoffset: 0; stroke: #e6e6e6; stroke-width: 0.8"/>
     </g>
     <g id="line2d_6">
      <g>
       <use xlink:href="#mc60ac3263c" x="200.992566" y="243.24375" style="stroke: #000000; stroke-width: 0.8"/>
      </g>
     </g>
     <g id="text_3">
      <!-- 400 m -->
      <g transform="translate(184.989441 257.842187) scale(0.1 -0.1)">
       <defs>
        <path id="DejaVuSans-34" d="M 2419 4116 
L 825 1625 
L 2419 1625 
L 2419 4116 
z
M 2253 4666 
L 3047 4666 
L 3047 1625 
L 3713 1625 
L 3713 1100 
L 3047 1100 
L 3047 0 
L 2419 0 
L 2419 1100 
L 313 1100 
L 313 1709 
L 2253 4666 
z
" transform="scale(0.015625)"/>
       </defs>
       <use xlink:href="#DejaVuSans-34"/>
       <use xlink:href="#DejaVuSans-30" transform="translate(63.623047 0)"/>
       <use xlink:href="#DejaVuSans-30" transform="translate(127.246094 0)"/>
       <use xlink:href="#DejaVuSans-20" transform="translate(190.869141 0)"/>
       <use xlink:href="#DejaVuSans-6d" transform="translate(222.65625 0)"/>
      </g>
     </g>
    </g>
    <g id="xtick_4">
     <g id="line2d_7">
      <path d="M 267.876563 243.24375 
L 267.876563 7.2 
" clip-path="url(#p072d910507)" style="fill: none; stroke-dasharray: 2.96,1.28; stroke-dashoffset: 0; stroke: #e6e6e6; stroke-width: 0.8"/>
     </g>
     <g id="line2d_8">
      <g>
       <use xlink:href="#mc60ac3263c" x="267.876563" y="243.24375" style="stroke: #000000; stroke-width: 0.8"/>
      </g>
     </g>
     <g id="text_4">
      <!-- 600 m -->
      <g transform="translate(251.873438 257.842187) scale(0.1 -0.1)">
       <defs>
        <path id="DejaVuSans-36" d="M 2113 2584 
Q 1688 2584 1439 2293 
Q 1191 2003 1191 1497 
Q 1191 994 1439 701 
Q 1688 409 2113 409 
Q 2538 409 2786 701 
Q 3034 994 3034 1497 
Q 3034 2003 2786 2293 
Q 2538 2584 2113 2584 
z
M 3366 4563 
L 3366 3988 
Q 3128 4100 2886 4159 
Q 2644 4219 2406 4219 
Q 1781 4219 1451 3797 
Q 1122 3375 1075 2522 
Q 1259 2794 1537 2939 
Q 1816 3084 2150 3084 
Q 2853 3084 3261 2657 
Q 3669 2231 3669 1497 
Q 3669 778 3244 343 
Q 2819 -91 2113 -91 
Q 1303 -91 875 529 
Q 447 1150 447 2328 
Q 447 3434 972 4092 
Q 1497 4750 2381 4750 
Q 2619 4750 2861 4703 
Q 3103 4656 3366 4563 
z
" transform="scale(0.015625)"/>
       </defs>
       <use xlink:href="#DejaVuSans-36"/>
       <use xlink:href="#DejaVuSans-30" transform="translate(63.623047 0)"/>
       <use xlink:href="#DejaVuSans-30" transform="translate(127.246094 0)"/>
       <use xlink:href="#DejaVuSans-20" transform="translate(190.869141 0)"/>
       <use xlink:href="#DejaVuSans-6d" transform="translate(222.65625 0)"/>
      </g>
     </g>
    </g>
    <g id="xtick_5">
     <g id="line2d_9">
      <path d="M 334.760559 243.24375 
L 334.760559 7.2 
" clip-path="url(#p072d910507)" style="fill: none; stroke-dasharray: 2.96,1.28; stroke-dashoffset: 0; stroke: #e6e6e6; stroke-width: 0.8"/>
     </g>
     <g id="line2d_10">
      <g>
       <use xlink:href="#mc60ac3263c" x="334.760559" y="243.24375" style="stroke: #000000; stroke-width: 0.8"/>
      </g>
     </g>
     <g id="text_5">
      <!-- 800 m -->
      <g transform="translate(318.757434 257.842187) scale(0.1 -0.1)">
       <defs>
        <path id="DejaVuSans-38" d="M 2034 2216 
Q 1584 2216 1326 1975 
Q 1069 1734 1069 1313 
Q 1069 891 1326 650 
Q 1584 409 2034 409 
Q 2484 409 2743 651 
Q 3003 894 3003 1313 
Q 3003 1734 2745 1975 
Q 2488 2216 2034 2216 
z
M 1403 2484 
Q 997 2584 770 2862 
Q 544 3141 544 3541 
Q 544 4100 942 4425 
Q 1341 4750 2034 4750 
Q 2731 4750 3128 4425 
Q 3525 4100 3525 3541 
Q 3525 3141 3298 2862 
Q 3072 2584 2669 2484 
Q 3125 2378 3379 2068 
Q 3634 1759 3634 1313 
Q 3634 634 3220 271 
Q 2806 -91 2034 -91 
Q 1263 -91 848 271 
Q 434 634 434 1313 
Q 434 1759 690 2068 
Q 947 2378 1403 2484 
z
M 1172 3481 
Q 1172 3119 1398 2916 
Q 1625 2713 2034 2713 
Q 2441 2713 2670 2916 
Q 2900 3119 2900 3481 
Q 2900 3844 2670 4047 
Q 2441 4250 2034 4250 
Q 1625 4250 1398 4047 
Q 1172 3844 1172 3481 
z
" transform="scale(0.015625)"/>
       </defs>
       <use xlink:href="#DejaVuSans-38"/>
       <use xlink:href="#DejaVuSans-30" transform="translate(63.623047 0)"/>
       <use xlink:href="#DejaVuSans-30" transform="translate(127.246094 0)"/>
       <use xlink:href="#DejaVuSans-20" transform="translate(190.869141 0)"/>
       <use xlink:href="#DejaVuSans-6d" transform="translate(222.65625 0)"/>
      </g>
     </g>
    </g>
    <g id="xtick_6">
     <g id="line2d_11">
      <path d="M 401.644555 243.24375 
L 401.644555 7.2 
" clip-path="url(#p072d910507)" style="fill: none; stroke-dasharray: 2.96,1.28; stroke-dashoffset: 0; stroke: #e6e6e6; stroke-width: 0.8"/>
     </g>
     <g id="line2d_12">
      <g>
       <use xlink:href="#mc60ac3263c" x="401.644555" y="243.24375" style="stroke: #000000; stroke-width: 0.8"/>
      </g>
     </g>
     <g id="text_6">
      <!-- 1 -->
      <g transform="translate(398.463305 257.842187) scale(0.1 -0.1)">
       <defs>
        <path id="DejaVuSans-31" d="M 794 531 
L 1825 531 
L 1825 4091 
L 703 3866 
L 703 4441 
L 1819 4666 
L 2450 4666 
L 2450 531 
L 3481 531 
L 3481 0 
L 794 0 
L 794 531 
z
" transform="scale(0.015625)"/>
       </defs>
       <use xlink:href="#DejaVuSans-31"/>
      </g>
     </g>
    </g>
    <g id="xtick_7">
     <g id="line2d_13">
      <path d="M 468.528551 243.24375 
L 468.528551 7.2 
" clip-path="url(#p072d910507)" style="fill: none; stroke-dasharray: 2.96,1.28; stroke-dashoffset: 0; stroke: #e6e6e6; stroke-width: 0.8"/>
     </g>
     <g id="line2d_14">
      <g>
       <use xlink:href="#mc60ac3263c" x="468.528551" y="243.24375" style="stroke: #000000; stroke-width: 0.8"/>
      </g>
     </g>
     <g id="text_7">
      <!-- 1.2 -->
      <g transform="translate(460.576989 257.842187) scale(0.1 -0.1)">
       <defs>
        <path id="DejaVuSans-2e" d="M 684 794 
L 1344 794 
L 1344 0 
L 684 0 
L 684 794 
z
" transform="scale(0.015625)"/>
       </defs>
       <use xlink:href="#DejaVuSans-31"/>
       <use xlink:href="#DejaVuSans-2e" transform="translate(63.623047 0)"/>
       <use xlink:href="#DejaVuSans-32" transform="translate(95.410156 0)"/>
      </g>
     </g>
    </g>
    <g id="text_8">
     <!-- $V_{\mathrm{DS}}\ (V)$ -->
     <g transform="translate(250.426562 271.520312) scale(0.1 -0.1)">
      <defs>
       <path id="DejaVuSans-Oblique-56" d="M 1319 0 
L 500 4666 
L 1119 4666 
L 1797 653 
L 4063 4666 
L 4750 4666 
L 2053 0 
L 1319 0 
z
" transform="scale(0.015625)"/>
       <path id="DejaVuSans-44" d="M 1259 4147 
L 1259 519 
L 2022 519 
Q 2988 519 3436 956 
Q 3884 1394 3884 2338 
Q 3884 3275 3436 3711 
Q 2988 4147 2022 4147 
L 1259 4147 
z
M 628 4666 
L 1925 4666 
Q 3281 4666 3915 4102 
Q 4550 3538 4550 2338 
Q 4550 1131 3912 565 
Q 3275 0 1925 0 
L 628 0 
L 628 4666 
z
" transform="scale(0.015625)"/>
       <path id="DejaVuSans-53" d="M 3425 4513 
L 3425 3897 
Q 3066 4069 2747 4153 
Q 2428 4238 2131 4238 
Q 1616 4238 1336 4038 
Q 1056 3838 1056 3469 
Q 1056 3159 1242 3001 
Q 1428 2844 1947 2747 
L 2328 2669 
Q 3034 2534 3370 2195 
Q 3706 1856 3706 1288 
Q 3706 609 3251 259 
Q 2797 -91 1919 -91 
Q 1588 -91 1214 -16 
Q 841 59 441 206 
L 441 856 
Q 825 641 1194 531 
Q 1563 422 1919 422 
Q 2459 422 2753 634 
Q 3047 847 3047 1241 
Q 3047 1584 2836 1778 
Q 2625 1972 2144 2069 
L 1759 2144 
Q 1053 2284 737 2584 
Q 422 2884 422 3419 
Q 422 4038 858 4394 
Q 1294 4750 2059 4750 
Q 2388 4750 2728 4690 
Q 3069 4631 3425 4513 
z
" transform="scale(0.015625)"/>
       <path id="DejaVuSans-28" d="M 1984 4856 
Q 1566 4138 1362 3434 
Q 1159 2731 1159 2009 
Q 1159 1288 1364 580 
Q 1569 -128 1984 -844 
L 1484 -844 
Q 1016 -109 783 600 
Q 550 1309 550 2009 
Q 550 2706 781 3412 
Q 1013 4119 1484 4856 
L 1984 4856 
z
" transform="scale(0.015625)"/>
       <path id="DejaVuSans-29" d="M 513 4856 
L 1013 4856 
Q 1481 4119 1714 3412 
Q 1947 2706 1947 2009 
Q 1947 1309 1714 600 
Q 1481 -109 1013 -844 
L 513 -844 
Q 928 -128 1133 580 
Q 1338 1288 1338 2009 
Q 1338 2731 1133 3434 
Q 928 4138 513 4856 
z
" transform="scale(0.015625)"/>
      </defs>
      <use xlink:href="#DejaVuSans-Oblique-56" transform="translate(0 0.125)"/>
      <use xlink:href="#DejaVuSans-44" transform="translate(68.408203 -16.28125) scale(0.7)"/>
      <use xlink:href="#DejaVuSans-53" transform="translate(122.30957 -16.28125) scale(0.7)"/>
      <use xlink:href="#DejaVuSans-28" transform="translate(201.947917 0.125)"/>
      <use xlink:href="#DejaVuSans-Oblique-56" transform="translate(240.961589 0.125)"/>
      <use xlink:href="#DejaVuSans-29" transform="translate(309.369792 0.125)"/>
     </g>
    </g>
   </g>
   <g id="matplotlib.axis_2">
    <g id="ytick_1">
     <g id="line2d_15">
      <path d="M 47.159375 232.514489 
L 488.59375 232.514489 
" clip-path="url(#p072d910507)" style="fill: none; stroke-dasharray: 2.96,1.28; stroke-dashoffset: 0; stroke: #e6e6e6; stroke-width: 0.8"/>
     </g>
     <g id="line2d_16">
      <defs>
       <path id="m47d3b6abff" d="M 0 0 
L -3.5 0 
" style="stroke: #000000; stroke-width: 0.8"/>
      </defs>
      <g>
       <use xlink:href="#m47d3b6abff" x="47.159375" y="232.514489" style="stroke: #000000; stroke-width: 0.8"/>
      </g>
     </g>
     <g id="text_9">
      <!-- 0 -->
      <g transform="translate(33.796875 236.313707) scale(0.1 -0.1)">
       <use xlink:href="#DejaVuSans-30"/>
      </g>
     </g>
    </g>
    <g id="ytick_2">
     <g id="line2d_17">
      <path d="M 47.159375 202.791176 
L 488.59375 202.791176 
" clip-path="url(#p072d910507)" style="fill: none; stroke-dasharray: 2.96,1.28; stroke-dashoffset: 0; stroke: #e6e6e6; stroke-width: 0.8"/>
     </g>
     <g id="line2d_18">
      <g>
       <use xlink:href="#m47d3b6abff" x="47.159375" y="202.791176" style="stroke: #000000; stroke-width: 0.8"/>
      </g>
     </g>
     <g id="text_10">
      <!-- 1 m -->
      <g transform="translate(20.878125 206.590394) scale(0.1 -0.1)">
       <use xlink:href="#DejaVuSans-31"/>
       <use xlink:href="#DejaVuSans-20" transform="translate(63.623047 0)"/>
       <use xlink:href="#DejaVuSans-6d" transform="translate(95.410156 0)"/>
      </g>
     </g>
    </g>
    <g id="ytick_3">
     <g id="line2d_19">
      <path d="M 47.159375 173.067863 
L 488.59375 173.067863 
" clip-path="url(#p072d910507)" style="fill: none; stroke-dasharray: 2.96,1.28; stroke-dashoffset: 0; stroke: #e6e6e6; stroke-width: 0.8"/>
     </g>
     <g id="line2d_20">
      <g>
       <use xlink:href="#m47d3b6abff" x="47.159375" y="173.067863" style="stroke: #000000; stroke-width: 0.8"/>
      </g>
     </g>
     <g id="text_11">
      <!-- 2 m -->
      <g transform="translate(20.878125 176.867081) scale(0.1 -0.1)">
       <use xlink:href="#DejaVuSans-32"/>
       <use xlink:href="#DejaVuSans-20" transform="translate(63.623047 0)"/>
       <use xlink:href="#DejaVuSans-6d" transform="translate(95.410156 0)"/>
      </g>
     </g>
    </g>
    <g id="ytick_4">
     <g id="line2d_21">
      <path d="M 47.159375 143.34455 
L 488.59375 143.34455 
" clip-path="url(#p072d910507)" style="fill: none; stroke-dasharray: 2.96,1.28; stroke-dashoffset: 0; stroke: #e6e6e6; stroke-width: 0.8"/>
     </g>
     <g id="line2d_22">
      <g>
       <use xlink:href="#m47d3b6abff" x="47.159375" y="143.34455" style="stroke: #000000; stroke-width: 0.8"/>
      </g>
     </g>
     <g id="text_12">
      <!-- 3 m -->
      <g transform="translate(20.878125 147.143768) scale(0.1 -0.1)">
       <defs>
        <path id="DejaVuSans-33" d="M 2597 2516 
Q 3050 2419 3304 2112 
Q 3559 1806 3559 1356 
Q 3559 666 3084 287 
Q 2609 -91 1734 -91 
Q 1441 -91 1130 -33 
Q 819 25 488 141 
L 488 750 
Q 750 597 1062 519 
Q 1375 441 1716 441 
Q 2309 441 2620 675 
Q 2931 909 2931 1356 
Q 2931 1769 2642 2001 
Q 2353 2234 1838 2234 
L 1294 2234 
L 1294 2753 
L 1863 2753 
Q 2328 2753 2575 2939 
Q 2822 3125 2822 3475 
Q 2822 3834 2567 4026 
Q 2313 4219 1838 4219 
Q 1578 4219 1281 4162 
Q 984 4106 628 3988 
L 628 4550 
Q 988 4650 1302 4700 
Q 1616 4750 1894 4750 
Q 2613 4750 3031 4423 
Q 3450 4097 3450 3541 
Q 3450 3153 3228 2886 
Q 3006 2619 2597 2516 
z
" transform="scale(0.015625)"/>
       </defs>
       <use xlink:href="#DejaVuSans-33"/>
       <use xlink:href="#DejaVuSans-20" transform="translate(63.623047 0)"/>
       <use xlink:href="#DejaVuSans-6d" transform="translate(95.410156 0)"/>
      </g>
     </g>
    </g>
    <g id="ytick_5">
     <g id="line2d_23">
      <path d="M 47.159375 113.621237 
L 488.59375 113.621237 
" clip-path="url(#p072d910507)" style="fill: none; stroke-dasharray: 2.96,1.28; stroke-dashoffset: 0; stroke: #e6e6e6; stroke-width: 0.8"/>
     </g>
     <g id="line2d_24">
      <g>
       <use xlink:href="#m47d3b6abff" x="47.159375" y="113.621237" style="stroke: #000000; stroke-width: 0.8"/>
      </g>
     </g>
     <g id="text_13">
      <!-- 4 m -->
      <g transform="translate(20.878125 117.420455) scale(0.1 -0.1)">
       <use xlink:href="#DejaVuSans-34"/>
       <use xlink:href="#DejaVuSans-20" transform="translate(63.623047 0)"/>
       <use xlink:href="#DejaVuSans-6d" transform="translate(95.410156 0)"/>
      </g>
     </g>
    </g>
    <g id="ytick_6">
     <g id="line2d_25">
      <path d="M 47.159375 83.897924 
L 488.59375 83.897924 
" clip-path="url(#p072d910507)" style="fill: none; stroke-dasharray: 2.96,1.28; stroke-dashoffset: 0; stroke: #e6e6e6; stroke-width: 0.8"/>
     </g>
     <g id="line2d_26">
      <g>
       <use xlink:href="#m47d3b6abff" x="47.159375" y="83.897924" style="stroke: #000000; stroke-width: 0.8"/>
      </g>
     </g>
     <g id="text_14">
      <!-- 5 m -->
      <g transform="translate(20.878125 87.697142) scale(0.1 -0.1)">
       <defs>
        <path id="DejaVuSans-35" d="M 691 4666 
L 3169 4666 
L 3169 4134 
L 1269 4134 
L 1269 2991 
Q 1406 3038 1543 3061 
Q 1681 3084 1819 3084 
Q 2600 3084 3056 2656 
Q 3513 2228 3513 1497 
Q 3513 744 3044 326 
Q 2575 -91 1722 -91 
Q 1428 -91 1123 -41 
Q 819 9 494 109 
L 494 744 
Q 775 591 1075 516 
Q 1375 441 1709 441 
Q 2250 441 2565 725 
Q 2881 1009 2881 1497 
Q 2881 1984 2565 2268 
Q 2250 2553 1709 2553 
Q 1456 2553 1204 2497 
Q 953 2441 691 2322 
L 691 4666 
z
" transform="scale(0.015625)"/>
       </defs>
       <use xlink:href="#DejaVuSans-35"/>
       <use xlink:href="#DejaVuSans-20" transform="translate(63.623047 0)"/>
       <use xlink:href="#DejaVuSans-6d" transform="translate(95.410156 0)"/>
      </g>
     </g>
    </g>
    <g id="ytick_7">
     <g id="line2d_27">
      <path d="M 47.159375 54.17461 
L 488.59375 54.17461 
" clip-path="url(#p072d910507)" style="fill: none; stroke-dasharray: 2.96,1.28; stroke-dashoffset: 0; stroke: #e6e6e6; stroke-width: 0.8"/>
     </g>
     <g id="line2d_28">
      <g>
       <use xlink:href="#m47d3b6abff" x="47.159375" y="54.17461" style="stroke: #000000; stroke-width: 0.8"/>
      </g>
     </g>
     <g id="text_15">
      <!-- 6 m -->
      <g transform="translate(20.878125 57.973829) scale(0.1 -0.1)">
       <use xlink:href="#DejaVuSans-36"/>
       <use xlink:href="#DejaVuSans-20" transform="translate(63.623047 0)"/>
       <use xlink:href="#DejaVuSans-6d" transform="translate(95.410156 0)"/>
      </g>
     </g>
    </g>
    <g id="ytick_8">
     <g id="line2d_29">
      <path d="M 47.159375 24.451297 
L 488.59375 24.451297 
" clip-path="url(#p072d910507)" style="fill: none; stroke-dasharray: 2.96,1.28; stroke-dashoffset: 0; stroke: #e6e6e6; stroke-width: 0.8"/>
     </g>
     <g id="line2d_30">
      <g>
       <use xlink:href="#m47d3b6abff" x="47.159375" y="24.451297" style="stroke: #000000; stroke-width: 0.8"/>
      </g>
     </g>
     <g id="text_16">
      <!-- 7 m -->
      <g transform="translate(20.878125 28.250516) scale(0.1 -0.1)">
       <defs>
        <path id="DejaVuSans-37" d="M 525 4666 
L 3525 4666 
L 3525 4397 
L 1831 0 
L 1172 0 
L 2766 4134 
L 525 4134 
L 525 4666 
z
" transform="scale(0.015625)"/>
       </defs>
       <use xlink:href="#DejaVuSans-37"/>
       <use xlink:href="#DejaVuSans-20" transform="translate(63.623047 0)"/>
       <use xlink:href="#DejaVuSans-6d" transform="translate(95.410156 0)"/>
      </g>
     </g>
    </g>
    <g id="text_17">
     <!-- $I_{D}\ (A)$ -->
     <g transform="translate(14.798438 138.521875) rotate(-90) scale(0.1 -0.1)">
      <defs>
       <path id="DejaVuSans-Oblique-49" d="M 1081 4666 
L 1716 4666 
L 806 0 
L 172 0 
L 1081 4666 
z
" transform="scale(0.015625)"/>
       <path id="DejaVuSans-Oblique-44" d="M 1081 4666 
L 2438 4666 
Q 3519 4666 4070 4208 
Q 4622 3750 4622 2847 
Q 4622 2250 4412 1698 
Q 4203 1147 3834 769 
Q 3463 381 2891 190 
Q 2319 0 1538 0 
L 172 0 
L 1081 4666 
z
M 1613 4147 
L 909 519 
L 1734 519 
Q 2794 519 3375 1128 
Q 3956 1738 3956 2847 
Q 3956 3519 3581 3833 
Q 3206 4147 2406 4147 
L 1613 4147 
z
" transform="scale(0.015625)"/>
       <path id="DejaVuSans-Oblique-41" d="M 2356 4666 
L 3072 4666 
L 3938 0 
L 3278 0 
L 3084 1197 
L 984 1197 
L 325 0 
L -341 0 
L 2356 4666 
z
M 2584 4044 
L 1275 1722 
L 2988 1722 
L 2584 4044 
z
" transform="scale(0.015625)"/>
      </defs>
      <use xlink:href="#DejaVuSans-Oblique-49" transform="translate(0 0.125)"/>
      <use xlink:href="#DejaVuSans-Oblique-44" transform="translate(29.492188 -16.28125) scale(0.7)"/>
      <use xlink:href="#DejaVuSans-28" transform="translate(118.598308 0.125)"/>
      <use xlink:href="#DejaVuSans-Oblique-41" transform="translate(157.61198 0.125)"/>
      <use xlink:href="#DejaVuSans-29" transform="translate(226.020183 0.125)"/>
     </g>
    </g>
   </g>
   <g id="line2d_31">
    <path d="M 67.224574 232.514489 
L 70.568774 232.514466 
L 73.912973 232.514448 
L 77.257173 232.514433 
L 80.601373 232.514422 
L 83.945573 232.514413 
L 87.289773 232.514406 
L 90.633973 232.514401 
L 93.978172 232.514396 
L 97.322372 232.514391 
L 100.666572 232.514387 
L 104.010772 232.514383 
L 107.354972 232.514378 
L 110.699171 232.514374 
L 114.043371 232.51437 
L 117.387571 232.514366 
L 120.731771 232.514361 
L 124.075971 232.514357 
L 127.42017 232.514353 
L 130.76437 232.514348 
L 134.10857 232.514343 
L 137.45277 232.514338 
L 140.79697 232.514334 
L 144.14117 232.514329 
L 147.485369 232.514324 
L 150.829569 232.514318 
L 154.173769 232.514313 
L 157.517969 232.514308 
L 160.862169 232.514302 
L 164.206368 232.514296 
L 167.550568 232.514291 
L 170.894768 232.514285 
L 174.238968 232.514278 
L 177.583168 232.514272 
L 180.927367 232.514266 
L 184.271567 232.514259 
L 187.615767 232.514253 
L 190.959967 232.514246 
L 194.304167 232.514239 
L 197.648366 232.514231 
L 200.992566 232.514224 
L 204.336766 232.514216 
L 207.680966 232.514209 
L 211.025166 232.514201 
L 214.369366 232.514193 
L 217.713565 232.514184 
L 221.057765 232.514176 
L 224.401965 232.514167 
L 227.746165 232.514158 
L 231.090365 232.514149 
L 234.434564 232.51414 
L 237.778764 232.51413 
L 241.122964 232.51412 
L 244.467164 232.51411 
L 247.811364 232.5141 
L 251.155563 232.51409 
L 254.499763 232.514079 
L 257.843963 232.514068 
L 261.188163 232.514056 
L 264.532363 232.514045 
L 267.876562 232.514033 
L 271.220762 232.514021 
L 274.564962 232.514008 
L 277.909162 232.513996 
L 281.253362 232.513983 
L 284.597562 232.513969 
L 287.941761 232.513956 
L 291.285961 232.513942 
L 294.630161 232.513928 
L 297.974361 232.513913 
L 301.318561 232.513898 
L 304.66276 232.513883 
L 308.00696 232.513867 
L 311.35116 232.513851 
L 314.69536 232.513835 
L 318.03956 232.513818 
L 321.383759 232.513801 
L 324.727959 232.513783 
L 328.072159 232.513765 
L 331.416359 232.513747 
L 334.760559 232.513728 
L 338.104759 232.513709 
L 341.448958 232.513689 
L 344.793158 232.513669 
L 348.137358 232.513648 
L 351.481558 232.513627 
L 354.825758 232.513606 
L 358.169957 232.513584 
L 361.514157 232.513561 
L 364.858357 232.513538 
L 368.202557 232.513515 
L 371.546757 232.51349 
L 374.890956 232.513466 
L 378.235156 232.51344 
L 381.579356 232.513415 
L 384.923556 232.513388 
L 388.267756 232.513361 
L 391.611955 232.513334 
L 394.956155 232.513305 
L 398.300355 232.513277 
L 401.644555 232.513247 
L 404.988755 232.513217 
L 408.332955 232.513186 
L 411.677154 232.513154 
L 415.021354 232.513122 
L 418.365554 232.513089 
L 421.709754 232.513055 
L 425.053954 232.513021 
L 428.398153 232.512986 
L 431.742353 232.51295 
L 435.086553 232.512913 
L 438.430753 232.512875 
L 441.774953 232.512837 
L 445.119152 232.512797 
L 448.463352 232.512757 
L 451.807552 232.512716 
L 455.151752 232.512674 
L 458.495952 232.512631 
L 461.840152 232.512587 
L 465.184351 232.512543 
L 468.528551 232.512497 
" clip-path="url(#p072d910507)" style="fill: none; stroke: #1f77b4; stroke-width: 1.5; stroke-linecap: square"/>
   </g>
   <g id="line2d_32">
    <path d="M 67.224574 232.514489 
L 70.568774 232.508874 
L 73.912973 232.50429 
L 77.257173 232.500659 
L 80.601373 232.497864 
L 83.945573 232.49574 
L 87.289773 232.494097 
L 90.633973 232.492761 
L 93.978172 232.491604 
L 97.322372 232.490546 
L 100.666572 232.489543 
L 104.010772 232.488567 
L 107.354972 232.487605 
L 110.699171 232.486645 
L 114.043371 232.485683 
L 117.387571 232.484714 
L 120.731771 232.483735 
L 124.075971 232.482745 
L 127.42017 232.481741 
L 130.76437 232.480722 
L 134.10857 232.479687 
L 137.45277 232.478635 
L 140.79697 232.477564 
L 144.14117 232.476475 
L 147.485369 232.475366 
L 150.829569 232.474237 
L 154.173769 232.473086 
L 157.517969 232.471914 
L 160.862169 232.470719 
L 164.206368 232.469502 
L 167.550568 232.46826 
L 170.894768 232.466994 
L 174.238968 232.465704 
L 177.583168 232.464388 
L 180.927367 232.463046 
L 184.271567 232.461678 
L 187.615767 232.460282 
L 190.959967 232.458859 
L 194.304167 232.457408 
L 197.648366 232.455927 
L 200.992566 232.454418 
L 204.336766 232.452878 
L 207.680966 232.451308 
L 211.025166 232.449706 
L 214.369366 232.448073 
L 217.713565 232.446407 
L 221.057765 232.444709 
L 224.401965 232.442977 
L 227.746165 232.44121 
L 231.090365 232.439409 
L 234.434564 232.437573 
L 237.778764 232.435701 
L 241.122964 232.433792 
L 244.467164 232.431845 
L 247.811364 232.429861 
L 251.155563 232.427838 
L 254.499763 232.425776 
L 257.843963 232.423674 
L 261.188163 232.421531 
L 264.532363 232.419347 
L 267.876562 232.417121 
L 271.220762 232.414853 
L 274.564962 232.412541 
L 277.909162 232.410185 
L 281.253362 232.407784 
L 284.597562 232.405338 
L 287.941761 232.402845 
L 291.285961 232.400306 
L 294.630161 232.397719 
L 297.974361 232.395083 
L 301.318561 232.392398 
L 304.66276 232.389663 
L 308.00696 232.386877 
L 311.35116 232.384039 
L 314.69536 232.381149 
L 318.03956 232.378206 
L 321.383759 232.375208 
L 324.727959 232.372156 
L 328.072159 232.369048 
L 331.416359 232.365884 
L 334.760559 232.362662 
L 338.104759 232.359381 
L 341.448958 232.356042 
L 344.793158 232.352642 
L 348.137358 232.349182 
L 351.481558 232.345659 
L 354.825758 232.342074 
L 358.169957 232.338425 
L 361.514157 232.334712 
L 364.858357 232.330933 
L 368.202557 232.327087 
L 371.546757 232.323174 
L 374.890956 232.319192 
L 378.235156 232.315141 
L 381.579356 232.31102 
L 384.923556 232.306827 
L 388.267756 232.302562 
L 391.611955 232.298224 
L 394.956155 232.29381 
L 398.300355 232.289322 
L 401.644555 232.284757 
L 404.988755 232.280114 
L 408.332955 232.275392 
L 411.677154 232.270591 
L 415.021354 232.265709 
L 418.365554 232.260745 
L 421.709754 232.255698 
L 425.053954 232.250567 
L 428.398153 232.24535 
L 431.742353 232.240047 
L 435.086553 232.234657 
L 438.430753 232.229177 
L 441.774953 232.223608 
L 445.119152 232.217948 
L 448.463352 232.212195 
L 451.807552 232.206349 
L 455.151752 232.200407 
L 458.495952 232.19437 
L 461.840152 232.188236 
L 465.184351 232.182004 
L 468.528551 232.175671 
" clip-path="url(#p072d910507)" style="fill: none; stroke: #ff7f0e; stroke-width: 1.5; stroke-linecap: square"/>
   </g>
   <g id="line2d_33">
    <path d="M 67.224574 232.514489 
L 70.568774 232.201344 
L 73.912973 231.930197 
L 77.257173 231.698604 
L 80.601373 231.503813 
L 83.945573 231.342525 
L 87.289773 231.210657 
L 90.633973 231.103269 
L 93.978172 231.014901 
L 97.322372 230.940277 
L 100.666572 230.875007 
L 104.010772 230.81588 
L 107.354972 230.760745 
L 110.699171 230.708216 
L 114.043371 230.657412 
L 117.387571 230.607761 
L 120.731771 230.558882 
L 124.075971 230.510514 
L 127.42017 230.462468 
L 130.76437 230.414607 
L 134.10857 230.366825 
L 137.45277 230.31904 
L 140.79697 230.271188 
L 144.14117 230.223213 
L 147.485369 230.175073 
L 150.829569 230.12673 
L 154.173769 230.078151 
L 157.517969 230.029309 
L 160.862169 229.980181 
L 164.206368 229.930743 
L 167.550568 229.880979 
L 170.894768 229.83087 
L 174.238968 229.780402 
L 177.583168 229.72956 
L 180.927367 229.678333 
L 184.271567 229.626707 
L 187.615767 229.574674 
L 190.959967 229.522222 
L 194.304167 229.469344 
L 197.648366 229.416032 
L 200.992566 229.362275 
L 204.336766 229.308066 
L 207.680966 229.253401 
L 211.025166 229.198271 
L 214.369366 229.14267 
L 217.713565 229.086591 
L 221.057765 229.030034 
L 224.401965 228.972989 
L 227.746165 228.91545 
L 231.090365 228.857412 
L 234.434564 228.798875 
L 237.778764 228.739833 
L 241.122964 228.680279 
L 244.467164 228.620211 
L 247.811364 228.559626 
L 251.155563 228.498521 
L 254.499763 228.436887 
L 257.843963 228.374727 
L 261.188163 228.312034 
L 264.532363 228.248807 
L 267.876562 228.185038 
L 271.220762 228.120732 
L 274.564962 228.055882 
L 277.909162 227.990482 
L 281.253362 227.924534 
L 284.597562 227.858035 
L 287.941761 227.790979 
L 291.285961 227.723367 
L 294.630161 227.655196 
L 297.974361 227.586464 
L 301.318561 227.517171 
L 304.66276 227.447309 
L 308.00696 227.376877 
L 311.35116 227.305879 
L 314.69536 227.234306 
L 318.03956 227.162161 
L 321.383759 227.08944 
L 324.727959 227.016143 
L 328.072159 226.942268 
L 331.416359 226.867811 
L 334.760559 226.792772 
L 338.104759 226.71715 
L 341.448958 226.640942 
L 344.793158 226.564146 
L 348.137358 226.486764 
L 351.481558 226.408794 
L 354.825758 226.330232 
L 358.169957 226.251082 
L 361.514157 226.171334 
L 364.858357 226.090998 
L 368.202557 226.010065 
L 371.546757 225.928533 
L 374.890956 225.846408 
L 378.235156 225.763682 
L 381.579356 225.680362 
L 384.923556 225.596438 
L 388.267756 225.511917 
L 391.611955 225.426792 
L 394.956155 225.341067 
L 398.300355 225.254739 
L 401.644555 225.167807 
L 404.988755 225.080272 
L 408.332955 224.992133 
L 411.677154 224.903389 
L 415.021354 224.81404 
L 418.365554 224.724086 
L 421.709754 224.633525 
L 425.053954 224.542354 
L 428.398153 224.450581 
L 431.742353 224.358197 
L 435.086553 224.265206 
L 438.430753 224.171607 
L 441.774953 224.077401 
L 445.119152 223.982584 
L 448.463352 223.88716 
L 451.807552 223.791127 
L 455.151752 223.694488 
L 458.495952 223.597237 
L 461.840152 223.499375 
L 465.184351 223.400905 
L 468.528551 223.301825 
" clip-path="url(#p072d910507)" style="fill: none; stroke: #2ca02c; stroke-width: 1.5; stroke-linecap: square"/>
   </g>
   <g id="line2d_34">
    <path d="M 67.224574 232.514488 
L 70.568774 230.499813 
L 73.912973 228.614112 
L 77.257173 226.851993 
L 80.601373 225.208264 
L 83.945573 223.67792 
L 87.289773 222.256132 
L 90.633973 220.9382 
L 93.978172 219.719539 
L 97.322372 218.595623 
L 100.666572 217.561941 
L 104.010772 216.613916 
L 107.354972 215.746812 
L 110.699171 214.95564 
L 114.043371 214.235041 
L 117.387571 213.579196 
L 120.731771 212.981829 
L 124.075971 212.436281 
L 127.42017 211.935758 
L 130.76437 211.473652 
L 134.10857 211.043851 
L 137.45277 210.640972 
L 140.79697 210.260463 
L 144.14117 209.898569 
L 147.485369 209.552245 
L 150.829569 209.219038 
L 154.173769 208.896974 
L 157.517969 208.584448 
L 160.862169 208.280162 
L 164.206368 207.983032 
L 167.550568 207.692172 
L 170.894768 207.406837 
L 174.238968 207.126392 
L 177.583168 206.850299 
L 180.927367 206.578098 
L 184.271567 206.309391 
L 187.615767 206.043831 
L 190.959967 205.781111 
L 194.304167 205.520977 
L 197.648366 205.26318 
L 200.992566 205.007519 
L 204.336766 204.753803 
L 207.680966 204.501871 
L 211.025166 204.251569 
L 214.369366 204.002763 
L 217.713565 203.755335 
L 221.057765 203.509172 
L 224.401965 203.264173 
L 227.746165 203.020246 
L 231.090365 202.777323 
L 234.434564 202.535289 
L 237.778764 202.294113 
L 241.122964 202.053712 
L 244.467164 201.814052 
L 247.811364 201.575018 
L 251.155563 201.336634 
L 254.499763 201.098791 
L 257.843963 200.861507 
L 261.188163 200.624674 
L 264.532363 200.388315 
L 267.876562 200.15234 
L 271.220762 199.916783 
L 274.564962 199.681552 
L 277.909162 199.446619 
L 281.253362 199.212014 
L 284.597562 198.977675 
L 287.941761 198.743572 
L 291.285961 198.509711 
L 294.630161 198.276027 
L 297.974361 198.04255 
L 301.318561 197.809249 
L 304.66276 197.57607 
L 308.00696 197.343071 
L 311.35116 197.110158 
L 314.69536 196.877366 
L 318.03956 196.644633 
L 321.383759 196.412018 
L 324.727959 196.179462 
L 328.072159 195.946968 
L 331.416359 195.714501 
L 334.760559 195.482094 
L 338.104759 195.249686 
L 341.448958 195.017309 
L 344.793158 194.784964 
L 348.137358 194.552588 
L 351.481558 194.320211 
L 354.825758 194.087831 
L 358.169957 193.855427 
L 361.514157 193.623019 
L 364.858357 193.390553 
L 368.202557 193.158059 
L 371.546757 192.925502 
L 374.890956 192.692918 
L 378.235156 192.460272 
L 381.579356 192.22757 
L 384.923556 191.994806 
L 388.267756 191.761983 
L 391.611955 191.52907 
L 394.956155 191.296099 
L 398.300355 191.063041 
L 401.644555 190.829889 
L 404.988755 190.596682 
L 408.332955 190.363354 
L 411.677154 190.129967 
L 415.021354 189.896459 
L 418.365554 189.662865 
L 421.709754 189.42918 
L 425.053954 189.195406 
L 428.398153 188.961514 
L 431.742353 188.727501 
L 435.086553 188.493401 
L 438.430753 188.25918 
L 441.774953 188.024873 
L 445.119152 187.790413 
L 448.463352 187.555867 
L 451.807552 187.321203 
L 455.151752 187.086419 
L 458.495952 186.851485 
L 461.840152 186.616461 
L 465.184351 186.38132 
L 468.528551 186.14603 
" clip-path="url(#p072d910507)" style="fill: none; stroke: #d62728; stroke-width: 1.5; stroke-linecap: square"/>
   </g>
   <g id="line2d_35">
    <path d="M 67.224574 232.514488 
L 70.568774 228.498251 
L 73.912973 224.649349 
L 77.257173 220.963263 
L 80.601373 217.43551 
L 83.945573 214.061667 
L 87.289773 210.837366 
L 90.633973 207.758294 
L 93.978172 204.820226 
L 97.322372 202.018992 
L 100.666572 199.350493 
L 104.010772 196.810757 
L 107.354972 194.395797 
L 110.699171 192.10178 
L 114.043371 189.924906 
L 117.387571 187.861483 
L 120.731771 185.90783 
L 124.075971 184.060348 
L 127.42017 182.315469 
L 130.76437 180.669629 
L 134.10857 179.119292 
L 137.45277 177.660828 
L 140.79697 176.290552 
L 144.14117 175.004665 
L 147.485369 173.799087 
L 150.829569 172.669544 
L 154.173769 171.61142 
L 157.517969 170.619851 
L 160.862169 169.689715 
L 164.206368 168.815733 
L 167.550568 167.992609 
L 170.894768 167.21525 
L 174.238968 166.47886 
L 177.583168 165.778935 
L 180.927367 165.111467 
L 184.271567 164.472864 
L 187.615767 163.859964 
L 190.959967 163.269992 
L 194.304167 162.700518 
L 197.648366 162.149452 
L 200.992566 161.614906 
L 204.336766 161.095315 
L 207.680966 160.589212 
L 211.025166 160.095421 
L 214.369366 159.612834 
L 217.713565 159.140468 
L 221.057765 158.677501 
L 224.401965 158.223177 
L 227.746165 157.776825 
L 231.090365 157.33781 
L 234.434564 156.905632 
L 237.778764 156.479786 
L 241.122964 156.059857 
L 244.467164 155.645395 
L 247.811364 155.236075 
L 251.155563 154.8316 
L 254.499763 154.431616 
L 257.843963 154.035874 
L 261.188163 153.644125 
L 264.532363 153.256114 
L 267.876562 152.871701 
L 271.220762 152.490624 
L 274.564962 152.112688 
L 277.909162 151.737791 
L 281.253362 151.365773 
L 284.597562 150.996433 
L 287.941761 150.629674 
L 291.285961 150.265358 
L 294.630161 149.903416 
L 297.974361 149.543675 
L 301.318561 149.186044 
L 304.66276 148.830462 
L 308.00696 148.476846 
L 311.35116 148.12507 
L 314.69536 147.775079 
L 318.03956 147.426812 
L 321.383759 147.080144 
L 324.727959 146.735088 
L 328.072159 146.39152 
L 331.416359 146.049398 
L 334.760559 145.708681 
L 338.104759 145.369334 
L 341.448958 145.031261 
L 344.793158 144.694406 
L 348.137358 144.358796 
L 351.481558 144.024322 
L 354.825758 143.690975 
L 358.169957 143.358701 
L 361.514157 143.027493 
L 364.858357 142.697268 
L 368.202557 142.368018 
L 371.546757 142.039723 
L 374.890956 141.712356 
L 378.235156 141.385875 
L 381.579356 141.060224 
L 384.923556 140.735438 
L 388.267756 140.41142 
L 391.611955 140.088212 
L 394.956155 139.765745 
L 398.300355 139.444018 
L 401.644555 139.123003 
L 404.988755 138.802709 
L 408.332955 138.483065 
L 411.677154 138.164072 
L 415.021354 137.845736 
L 418.365554 137.528022 
L 421.709754 137.210877 
L 425.053954 136.894354 
L 428.398153 136.578392 
L 431.742353 136.262997 
L 435.086553 135.948142 
L 438.430753 135.633785 
L 441.774953 135.319968 
L 445.119152 135.006657 
L 448.463352 134.693815 
L 451.807552 134.381486 
L 455.151752 134.0696 
L 458.495952 133.758157 
L 461.840152 133.447191 
L 465.184351 133.136641 
L 468.528551 132.826513 
" clip-path="url(#p072d910507)" style="fill: none; stroke: #9467bd; stroke-width: 1.5; stroke-linecap: square"/>
   </g>
   <g id="line2d_36">
    <path d="M 67.224574 232.514487 
L 70.568774 226.97958 
L 73.912973 221.613666 
L 77.257173 216.414007 
L 80.601373 211.377806 
L 83.945573 206.502226 
L 87.289773 201.784387 
L 90.633973 197.221384 
L 93.978172 192.810266 
L 97.322372 188.548121 
L 100.666572 184.431979 
L 104.010772 180.458862 
L 107.354972 176.625802 
L 110.699171 172.929886 
L 114.043371 169.368141 
L 117.387571 165.937657 
L 120.731771 162.635576 
L 124.075971 159.458984 
L 127.42017 156.405093 
L 130.76437 153.471071 
L 134.10857 150.654193 
L 137.45277 147.95178 
L 140.79697 145.361154 
L 144.14117 142.879796 
L 147.485369 140.505138 
L 150.829569 138.234757 
L 154.173769 136.066323 
L 157.517969 133.997516 
L 160.862169 132.02615 
L 164.206368 130.150045 
L 167.550568 128.367034 
L 170.894768 126.674792 
L 174.238968 125.07098 
L 177.583168 123.552838 
L 180.927367 122.117319 
L 184.271567 120.760804 
L 187.615767 119.479287 
L 190.959967 118.268242 
L 194.304167 117.122823 
L 197.648366 116.038104 
L 200.992566 115.008985 
L 204.336766 114.03062 
L 207.680966 113.098373 
L 211.025166 112.207954 
L 214.369366 111.355363 
L 217.713565 110.537056 
L 221.057765 109.749807 
L 224.401965 108.990726 
L 227.746165 108.257222 
L 231.090365 107.547013 
L 234.434564 106.858077 
L 237.778764 106.188588 
L 241.122964 105.536968 
L 244.467164 104.901749 
L 247.811364 104.281631 
L 251.155563 103.675492 
L 254.499763 103.082267 
L 257.843963 102.501029 
L 261.188163 101.930973 
L 264.532363 101.371285 
L 267.876562 100.821313 
L 271.220762 100.280434 
L 274.564962 99.748027 
L 277.909162 99.223647 
L 281.253362 98.706769 
L 284.597562 98.196949 
L 287.941761 97.693815 
L 291.285961 97.196965 
L 294.630161 96.706122 
L 297.974361 96.220884 
L 301.318561 95.741031 
L 304.66276 95.266257 
L 308.00696 94.796327 
L 311.35116 94.331021 
L 314.69536 93.87006 
L 318.03956 93.413307 
L 321.383759 92.960568 
L 324.727959 92.511622 
L 328.072159 92.066371 
L 331.416359 91.624594 
L 334.760559 91.186166 
L 338.104759 90.750964 
L 341.448958 90.318806 
L 344.793158 89.889666 
L 348.137358 89.463378 
L 351.481558 89.039815 
L 354.825758 88.618883 
L 358.169957 88.200525 
L 361.514157 87.784603 
L 364.858357 87.371034 
L 368.202557 86.959749 
L 371.546757 86.550706 
L 374.890956 86.143753 
L 378.235156 85.738862 
L 381.579356 85.335965 
L 384.923556 84.935033 
L 388.267756 84.535928 
L 391.611955 84.138649 
L 394.956155 83.743129 
L 398.300355 83.349297 
L 401.644555 82.957127 
L 404.988755 82.566534 
L 408.332955 82.177505 
L 411.677154 81.790012 
L 415.021354 81.403959 
L 418.365554 81.019346 
L 421.709754 80.636116 
L 425.053954 80.254257 
L 428.398153 79.873685 
L 431.742353 79.494414 
L 435.086553 79.116361 
L 438.430753 78.739567 
L 441.774953 78.363923 
L 445.119152 77.989469 
L 448.463352 77.616108 
L 451.807552 77.243854 
L 455.151752 76.872666 
L 458.495952 76.50253 
L 461.840152 76.133419 
L 465.184351 75.765303 
L 468.528551 75.398185 
" clip-path="url(#p072d910507)" style="fill: none; stroke: #8c564b; stroke-width: 1.5; stroke-linecap: square"/>
   </g>
   <g id="line2d_37">
    <path d="M 67.224574 232.514486 
L 70.568774 225.921151 
L 73.912973 219.483205 
L 77.257173 213.199249 
L 80.601373 207.067796 
L 83.945573 201.087285 
L 87.289773 195.256136 
L 90.633973 189.572653 
L 93.978172 184.03514 
L 97.322372 178.641785 
L 100.666572 173.390777 
L 104.010772 168.280301 
L 107.354972 163.308421 
L 110.699171 158.473207 
L 114.043371 153.772736 
L 117.387571 149.205007 
L 120.731771 144.768026 
L 124.075971 140.459815 
L 127.42017 136.278305 
L 130.76437 132.221523 
L 134.10857 128.2874 
L 137.45277 124.473963 
L 140.79697 120.779144 
L 144.14117 117.201025 
L 147.485369 113.737578 
L 150.829569 110.386867 
L 154.173769 107.146994 
L 157.517969 104.016147 
L 160.862169 100.992484 
L 164.206368 98.074277 
L 167.550568 95.259959 
L 170.894768 92.547913 
L 174.238968 89.936753 
L 177.583168 87.425152 
L 180.927367 85.011989 
L 184.271567 82.696155 
L 187.615767 80.476737 
L 190.959967 78.352767 
L 194.304167 76.323317 
L 197.648366 74.387294 
L 200.992566 72.543203 
L 204.336766 70.78923 
L 207.680966 69.122857 
L 211.025166 67.541039 
L 214.369366 66.040066 
L 217.713565 64.615661 
L 221.057765 63.26323 
L 224.401965 61.977789 
L 227.746165 60.754425 
L 231.090365 59.588265 
L 234.434564 58.474591 
L 237.778764 57.408959 
L 241.122964 56.387272 
L 244.467164 55.405779 
L 247.811364 54.460993 
L 251.155563 53.549799 
L 254.499763 52.669359 
L 257.843963 51.817169 
L 261.188163 50.990917 
L 264.532363 50.18854 
L 267.876562 49.408213 
L 271.220762 48.648273 
L 274.564962 47.907184 
L 277.909162 47.183605 
L 281.253362 46.476302 
L 284.597562 45.784197 
L 287.941761 45.106237 
L 291.285961 44.441537 
L 294.630161 43.789225 
L 297.974361 43.148567 
L 301.318561 42.518857 
L 304.66276 41.899445 
L 308.00696 41.289763 
L 311.35116 40.689257 
L 314.69536 40.097416 
L 318.03956 39.513797 
L 321.383759 38.93797 
L 324.727959 38.369506 
L 328.072159 37.808088 
L 331.416359 37.253341 
L 334.760559 36.704974 
L 338.104759 36.16267 
L 341.448958 35.626165 
L 344.793158 35.095183 
L 348.137358 34.569502 
L 351.481558 34.048901 
L 354.825758 33.533144 
L 358.169957 33.022051 
L 361.514157 32.515415 
L 364.858357 32.013084 
L 368.202557 31.514864 
L 371.546757 31.020602 
L 374.890956 30.53016 
L 378.235156 30.043413 
L 381.579356 29.560197 
L 384.923556 29.080412 
L 388.267756 28.603908 
L 391.611955 28.130602 
L 394.956155 27.660381 
L 398.300355 27.193123 
L 401.644555 26.728758 
L 404.988755 26.267161 
L 408.332955 25.808262 
L 411.677154 25.35198 
L 415.021354 24.898244 
L 418.365554 24.446931 
L 421.709754 23.99804 
L 425.053954 23.55146 
L 428.398153 23.107095 
L 431.742353 22.664931 
L 435.086553 22.22487 
L 438.430753 21.786899 
L 441.774953 21.350922 
L 445.119152 20.916896 
L 448.463352 20.48478 
L 451.807552 20.054505 
L 455.151752 19.626015 
L 458.495952 19.199311 
L 461.840152 18.774296 
L 465.184351 18.350969 
L 468.528551 17.929261 
" clip-path="url(#p072d910507)" style="fill: none; stroke: #e377c2; stroke-width: 1.5; stroke-linecap: square"/>
   </g>
   <g id="patch_3">
    <path d="M 47.159375 243.24375 
L 47.159375 7.2 
" style="fill: none; stroke: #000000; stroke-width: 0.8; stroke-linejoin: miter; stroke-linecap: square"/>
   </g>
   <g id="patch_4">
    <path d="M 488.59375 243.24375 
L 488.59375 7.2 
" style="fill: none; stroke: #000000; stroke-width: 0.8; stroke-linejoin: miter; stroke-linecap: square"/>
   </g>
   <g id="patch_5">
    <path d="M 47.159375 243.24375 
L 488.59375 243.24375 
" style="fill: none; stroke: #000000; stroke-width: 0.8; stroke-linejoin: miter; stroke-linecap: square"/>
   </g>
   <g id="patch_6">
    <path d="M 47.159375 7.2 
L 488.59375 7.2 
" style="fill: none; stroke: #000000; stroke-width: 0.8; stroke-linejoin: miter; stroke-linecap: square"/>
   </g>
   <g id="legend_1">
    <g id="patch_7">
     <path d="M 495.59375 186.402187 
L 559.6 186.402187 
Q 561.6 186.402187 561.6 184.402187 
L 561.6 66.041562 
Q 561.6 64.041562 559.6 64.041562 
L 495.59375 64.041562 
Q 493.59375 64.041562 493.59375 66.041562 
L 493.59375 184.402187 
Q 493.59375 186.402187 495.59375 186.402187 
z
" style="fill: #ffffff; opacity: 0.8; stroke: #cccccc; stroke-linejoin: miter"/>
    </g>
    <g id="text_18">
     <!-- $V_{\mathrm{GS}}$ -->
     <g transform="translate(517.396875 77.159687) scale(0.12 -0.12)">
      <defs>
       <path id="DejaVuSans-47" d="M 3809 666 
L 3809 1919 
L 2778 1919 
L 2778 2438 
L 4434 2438 
L 4434 434 
Q 4069 175 3628 42 
Q 3188 -91 2688 -91 
Q 1594 -91 976 548 
Q 359 1188 359 2328 
Q 359 3472 976 4111 
Q 1594 4750 2688 4750 
Q 3144 4750 3555 4637 
Q 3966 4525 4313 4306 
L 4313 3634 
Q 3963 3931 3569 4081 
Q 3175 4231 2741 4231 
Q 1884 4231 1454 3753 
Q 1025 3275 1025 2328 
Q 1025 1384 1454 906 
Q 1884 428 2741 428 
Q 3075 428 3337 486 
Q 3600 544 3809 666 
z
" transform="scale(0.015625)"/>
      </defs>
      <use xlink:href="#DejaVuSans-Oblique-56" transform="translate(0 0.09375)"/>
      <use xlink:href="#DejaVuSans-47" transform="translate(68.408203 -16.3125) scale(0.7)"/>
      <use xlink:href="#DejaVuSans-53" transform="translate(122.651367 -16.3125) scale(0.7)"/>
     </g>
    </g>
    <g id="line2d_38">
     <path d="M 497.59375 88.75375 
L 507.59375 88.75375 
L 517.59375 88.75375 
" style="fill: none; stroke: #1f77b4; stroke-width: 1.5; stroke-linecap: square"/>
    </g>
    <g id="text_19">
     <!-- 0 -->
     <g transform="translate(525.59375 92.25375) scale(0.1 -0.1)">
      <use xlink:href="#DejaVuSans-30"/>
     </g>
    </g>
    <g id="line2d_39">
     <path d="M 497.59375 103.431875 
L 507.59375 103.431875 
L 517.59375 103.431875 
" style="fill: none; stroke: #ff7f0e; stroke-width: 1.5; stroke-linecap: square"/>
    </g>
    <g id="text_20">
     <!-- 200 m -->
     <g transform="translate(525.59375 106.931875) scale(0.1 -0.1)">
      <use xlink:href="#DejaVuSans-32"/>
      <use xlink:href="#DejaVuSans-30" transform="translate(63.623047 0)"/>
      <use xlink:href="#DejaVuSans-30" transform="translate(127.246094 0)"/>
      <use xlink:href="#DejaVuSans-20" transform="translate(190.869141 0)"/>
      <use xlink:href="#DejaVuSans-6d" transform="translate(222.65625 0)"/>
     </g>
    </g>
    <g id="line2d_40">
     <path d="M 497.59375 118.11 
L 507.59375 118.11 
L 517.59375 118.11 
" style="fill: none; stroke: #2ca02c; stroke-width: 1.5; stroke-linecap: square"/>
    </g>
    <g id="text_21">
     <!-- 400 m -->
     <g transform="translate(525.59375 121.61) scale(0.1 -0.1)">
      <use xlink:href="#DejaVuSans-34"/>
      <use xlink:href="#DejaVuSans-30" transform="translate(63.623047 0)"/>
      <use xlink:href="#DejaVuSans-30" transform="translate(127.246094 0)"/>
      <use xlink:href="#DejaVuSans-20" transform="translate(190.869141 0)"/>
      <use xlink:href="#DejaVuSans-6d" transform="translate(222.65625 0)"/>
     </g>
    </g>
    <g id="line2d_41">
     <path d="M 497.59375 132.788125 
L 507.59375 132.788125 
L 517.59375 132.788125 
" style="fill: none; stroke: #d62728; stroke-width: 1.5; stroke-linecap: square"/>
    </g>
    <g id="text_22">
     <!-- 600 m -->
     <g transform="translate(525.59375 136.288125) scale(0.1 -0.1)">
      <use xlink:href="#DejaVuSans-36"/>
      <use xlink:href="#DejaVuSans-30" transform="translate(63.623047 0)"/>
      <use xlink:href="#DejaVuSans-30" transform="translate(127.246094 0)"/>
      <use xlink:href="#DejaVuSans-20" transform="translate(190.869141 0)"/>
      <use xlink:href="#DejaVuSans-6d" transform="translate(222.65625 0)"/>
     </g>
    </g>
    <g id="line2d_42">
     <path d="M 497.59375 147.46625 
L 507.59375 147.46625 
L 517.59375 147.46625 
" style="fill: none; stroke: #9467bd; stroke-width: 1.5; stroke-linecap: square"/>
    </g>
    <g id="text_23">
     <!-- 800 m -->
     <g transform="translate(525.59375 150.96625) scale(0.1 -0.1)">
      <use xlink:href="#DejaVuSans-38"/>
      <use xlink:href="#DejaVuSans-30" transform="translate(63.623047 0)"/>
      <use xlink:href="#DejaVuSans-30" transform="translate(127.246094 0)"/>
      <use xlink:href="#DejaVuSans-20" transform="translate(190.869141 0)"/>
      <use xlink:href="#DejaVuSans-6d" transform="translate(222.65625 0)"/>
     </g>
    </g>
    <g id="line2d_43">
     <path d="M 497.59375 162.144375 
L 507.59375 162.144375 
L 517.59375 162.144375 
" style="fill: none; stroke: #8c564b; stroke-width: 1.5; stroke-linecap: square"/>
    </g>
    <g id="text_24">
     <!-- 1 -->
     <g transform="translate(525.59375 165.644375) scale(0.1 -0.1)">
      <use xlink:href="#DejaVuSans-31"/>
     </g>
    </g>
    <g id="line2d_44">
     <path d="M 497.59375 176.8225 
L 507.59375 176.8225 
L 517.59375 176.8225 
" style="fill: none; stroke: #e377c2; stroke-width: 1.5; stroke-linecap: square"/>
    </g>
    <g id="text_25">
     <!-- 1.2 -->
     <g transform="translate(525.59375 180.3225) scale(0.1 -0.1)">
      <use xlink:href="#DejaVuSans-31"/>
      <use xlink:href="#DejaVuSans-2e" transform="translate(63.623047 0)"/>
      <use xlink:href="#DejaVuSans-32" transform="translate(95.410156 0)"/>
     </g>
    </g>
   </g>
  </g>
 </g>
 <defs>
  <clipPath id="p072d910507">
   <rect x="47.159375" y="7.2" width="441.434375" height="236.04375"/>
  </clipPath>
 </defs>
</svg>
