<?xml version="1.0" encoding="utf-8" standalone="no"?>
<!DOCTYPE svg PUBLIC "-//W3C//DTD SVG 1.1//EN"
  "http://www.w3.org/Graphics/SVG/1.1/DTD/svg11.dtd">
<svg xmlns:xlink="http://www.w3.org/1999/xlink" width="568.8pt" height="280.662679pt" viewBox="0 0 568.8 280.662679" xmlns="http://www.w3.org/2000/svg" version="1.1">
 <metadata>
  <rdf:RDF xmlns:dc="http://purl.org/dc/elements/1.1/" xmlns:cc="http://creativecommons.org/ns#" xmlns:rdf="http://www.w3.org/1999/02/22-rdf-syntax-ns#">
   <cc:Work>
    <dc:type rdf:resource="http://purl.org/dc/dcmitype/StillImage"/>
    <dc:date>2025-03-31T14:42:27.299797</dc:date>
    <dc:format>image/svg+xml</dc:format>
    <dc:creator>
     <cc:Agent>
      <dc:title>Matplotlib v3.10.0, https://matplotlib.org/</dc:title>
     </cc:Agent>
    </dc:creator>
   </cc:Work>
  </rdf:RDF>
 </metadata>
 <defs>
  <style type="text/css">*{stroke-linejoin: round; stroke-linecap: butt}</style>
 </defs>
 <g id="figure_1">
  <g id="patch_1">
   <path d="M 0 280.662679 
L 568.8 280.662679 
L 568.8 0 
L 0 0 
z
" style="fill: #ffffff"/>
  </g>
  <g id="axes_1">
   <g id="patch_2">
    <path d="M 51.378125 243.084554 
L 491.996875 243.084554 
L 491.996875 8.489333 
L 51.378125 8.489333 
z
" style="fill: #ffffff"/>
   </g>
   <g id="matplotlib.axis_1">
    <g id="xtick_1">
     <g id="line2d_1">
      <path d="M 116.460886 243.084554 
L 116.460886 8.489333 
" clip-path="url(#p5cfa50b01a)" style="fill: none; stroke-dasharray: 2.96,1.28; stroke-dashoffset: 0; stroke: #e6e6e6; stroke-width: 0.8"/>
     </g>
     <g id="line2d_2">
      <defs>
       <path id="m46bed23f75" d="M 0 0 
L 0 3.5 
" style="stroke: #000000; stroke-width: 0.8"/>
      </defs>
      <g>
       <use xlink:href="#m46bed23f75" x="116.460886" y="243.084554" style="stroke: #000000; stroke-width: 0.8"/>
      </g>
     </g>
     <g id="text_1">
      <!-- 5 -->
      <g transform="translate(113.279636 257.682991) scale(0.1 -0.1)">
       <defs>
        <path id="DejaVuSans-35" d="M 691 4666 
L 3169 4666 
L 3169 4134 
L 1269 4134 
L 1269 2991 
Q 1406 3038 1543 3061 
Q 1681 3084 1819 3084 
Q 2600 3084 3056 2656 
Q 3513 2228 3513 1497 
Q 3513 744 3044 326 
Q 2575 -91 1722 -91 
Q 1428 -91 1123 -41 
Q 819 9 494 109 
L 494 744 
Q 775 591 1075 516 
Q 1375 441 1709 441 
Q 2250 441 2565 725 
Q 2881 1009 2881 1497 
Q 2881 1984 2565 2268 
Q 2250 2553 1709 2553 
Q 1456 2553 1204 2497 
Q 953 2441 691 2322 
L 691 4666 
z
" transform="scale(0.015625)"/>
       </defs>
       <use xlink:href="#DejaVuSans-35"/>
      </g>
     </g>
    </g>
    <g id="xtick_2">
     <g id="line2d_3">
      <path d="M 182.892997 243.084554 
L 182.892997 8.489333 
" clip-path="url(#p5cfa50b01a)" style="fill: none; stroke-dasharray: 2.96,1.28; stroke-dashoffset: 0; stroke: #e6e6e6; stroke-width: 0.8"/>
     </g>
     <g id="line2d_4">
      <g>
       <use xlink:href="#m46bed23f75" x="182.892997" y="243.084554" style="stroke: #000000; stroke-width: 0.8"/>
      </g>
     </g>
     <g id="text_2">
      <!-- 10 -->
      <g transform="translate(176.530497 257.682991) scale(0.1 -0.1)">
       <defs>
        <path id="DejaVuSans-31" d="M 794 531 
L 1825 531 
L 1825 4091 
L 703 3866 
L 703 4441 
L 1819 4666 
L 2450 4666 
L 2450 531 
L 3481 531 
L 3481 0 
L 794 0 
L 794 531 
z
" transform="scale(0.015625)"/>
        <path id="DejaVuSans-30" d="M 2034 4250 
Q 1547 4250 1301 3770 
Q 1056 3291 1056 2328 
Q 1056 1369 1301 889 
Q 1547 409 2034 409 
Q 2525 409 2770 889 
Q 3016 1369 3016 2328 
Q 3016 3291 2770 3770 
Q 2525 4250 2034 4250 
z
M 2034 4750 
Q 2819 4750 3233 4129 
Q 3647 3509 3647 2328 
Q 3647 1150 3233 529 
Q 2819 -91 2034 -91 
Q 1250 -91 836 529 
Q 422 1150 422 2328 
Q 422 3509 836 4129 
Q 1250 4750 2034 4750 
z
" transform="scale(0.015625)"/>
       </defs>
       <use xlink:href="#DejaVuSans-31"/>
       <use xlink:href="#DejaVuSans-30" transform="translate(63.623047 0)"/>
      </g>
     </g>
    </g>
    <g id="xtick_3">
     <g id="line2d_5">
      <path d="M 249.325108 243.084554 
L 249.325108 8.489333 
" clip-path="url(#p5cfa50b01a)" style="fill: none; stroke-dasharray: 2.96,1.28; stroke-dashoffset: 0; stroke: #e6e6e6; stroke-width: 0.8"/>
     </g>
     <g id="line2d_6">
      <g>
       <use xlink:href="#m46bed23f75" x="249.325108" y="243.084554" style="stroke: #000000; stroke-width: 0.8"/>
      </g>
     </g>
     <g id="text_3">
      <!-- 15 -->
      <g transform="translate(242.962608 257.682991) scale(0.1 -0.1)">
       <use xlink:href="#DejaVuSans-31"/>
       <use xlink:href="#DejaVuSans-35" transform="translate(63.623047 0)"/>
      </g>
     </g>
    </g>
    <g id="xtick_4">
     <g id="line2d_7">
      <path d="M 315.757219 243.084554 
L 315.757219 8.489333 
" clip-path="url(#p5cfa50b01a)" style="fill: none; stroke-dasharray: 2.96,1.28; stroke-dashoffset: 0; stroke: #e6e6e6; stroke-width: 0.8"/>
     </g>
     <g id="line2d_8">
      <g>
       <use xlink:href="#m46bed23f75" x="315.757219" y="243.084554" style="stroke: #000000; stroke-width: 0.8"/>
      </g>
     </g>
     <g id="text_4">
      <!-- 20 -->
      <g transform="translate(309.394719 257.682991) scale(0.1 -0.1)">
       <defs>
        <path id="DejaVuSans-32" d="M 1228 531 
L 3431 531 
L 3431 0 
L 469 0 
L 469 531 
Q 828 903 1448 1529 
Q 2069 2156 2228 2338 
Q 2531 2678 2651 2914 
Q 2772 3150 2772 3378 
Q 2772 3750 2511 3984 
Q 2250 4219 1831 4219 
Q 1534 4219 1204 4116 
Q 875 4013 500 3803 
L 500 4441 
Q 881 4594 1212 4672 
Q 1544 4750 1819 4750 
Q 2544 4750 2975 4387 
Q 3406 4025 3406 3419 
Q 3406 3131 3298 2873 
Q 3191 2616 2906 2266 
Q 2828 2175 2409 1742 
Q 1991 1309 1228 531 
z
" transform="scale(0.015625)"/>
       </defs>
       <use xlink:href="#DejaVuSans-32"/>
       <use xlink:href="#DejaVuSans-30" transform="translate(63.623047 0)"/>
      </g>
     </g>
    </g>
    <g id="xtick_5">
     <g id="line2d_9">
      <path d="M 382.18933 243.084554 
L 382.18933 8.489333 
" clip-path="url(#p5cfa50b01a)" style="fill: none; stroke-dasharray: 2.96,1.28; stroke-dashoffset: 0; stroke: #e6e6e6; stroke-width: 0.8"/>
     </g>
     <g id="line2d_10">
      <g>
       <use xlink:href="#m46bed23f75" x="382.18933" y="243.084554" style="stroke: #000000; stroke-width: 0.8"/>
      </g>
     </g>
     <g id="text_5">
      <!-- 25 -->
      <g transform="translate(375.82683 257.682991) scale(0.1 -0.1)">
       <use xlink:href="#DejaVuSans-32"/>
       <use xlink:href="#DejaVuSans-35" transform="translate(63.623047 0)"/>
      </g>
     </g>
    </g>
    <g id="xtick_6">
     <g id="line2d_11">
      <path d="M 448.62144 243.084554 
L 448.62144 8.489333 
" clip-path="url(#p5cfa50b01a)" style="fill: none; stroke-dasharray: 2.96,1.28; stroke-dashoffset: 0; stroke: #e6e6e6; stroke-width: 0.8"/>
     </g>
     <g id="line2d_12">
      <g>
       <use xlink:href="#m46bed23f75" x="448.62144" y="243.084554" style="stroke: #000000; stroke-width: 0.8"/>
      </g>
     </g>
     <g id="text_6">
      <!-- 30 -->
      <g transform="translate(442.25894 257.682991) scale(0.1 -0.1)">
       <defs>
        <path id="DejaVuSans-33" d="M 2597 2516 
Q 3050 2419 3304 2112 
Q 3559 1806 3559 1356 
Q 3559 666 3084 287 
Q 2609 -91 1734 -91 
Q 1441 -91 1130 -33 
Q 819 25 488 141 
L 488 750 
Q 750 597 1062 519 
Q 1375 441 1716 441 
Q 2309 441 2620 675 
Q 2931 909 2931 1356 
Q 2931 1769 2642 2001 
Q 2353 2234 1838 2234 
L 1294 2234 
L 1294 2753 
L 1863 2753 
Q 2328 2753 2575 2939 
Q 2822 3125 2822 3475 
Q 2822 3834 2567 4026 
Q 2313 4219 1838 4219 
Q 1578 4219 1281 4162 
Q 984 4106 628 3988 
L 628 4550 
Q 988 4650 1302 4700 
Q 1616 4750 1894 4750 
Q 2613 4750 3031 4423 
Q 3450 4097 3450 3541 
Q 3450 3153 3228 2886 
Q 3006 2619 2597 2516 
z
" transform="scale(0.015625)"/>
       </defs>
       <use xlink:href="#DejaVuSans-33"/>
       <use xlink:href="#DejaVuSans-30" transform="translate(63.623047 0)"/>
      </g>
     </g>
    </g>
    <g id="text_7">
     <!-- $g_m/I_D\ (S/A)$ -->
     <g transform="translate(245.1375 271.362679) scale(0.1 -0.1)">
      <defs>
       <path id="DejaVuSans-Oblique-67" d="M 3816 3500 
L 3219 434 
Q 3047 -456 2561 -893 
Q 2075 -1331 1253 -1331 
Q 950 -1331 690 -1286 
Q 431 -1241 206 -1147 
L 313 -588 
Q 525 -725 762 -790 
Q 1000 -856 1269 -856 
Q 1816 -856 2167 -557 
Q 2519 -259 2631 300 
L 2681 563 
Q 2441 288 2122 144 
Q 1803 0 1434 0 
Q 903 0 598 351 
Q 294 703 294 1319 
Q 294 1803 478 2267 
Q 663 2731 997 3091 
Q 1219 3328 1514 3456 
Q 1809 3584 2131 3584 
Q 2484 3584 2746 3420 
Q 3009 3256 3138 2956 
L 3238 3500 
L 3816 3500 
z
M 2950 2216 
Q 2950 2641 2750 2872 
Q 2550 3103 2181 3103 
Q 1953 3103 1747 3012 
Q 1541 2922 1394 2759 
Q 1156 2491 1023 2127 
Q 891 1763 891 1375 
Q 891 944 1092 712 
Q 1294 481 1672 481 
Q 2219 481 2584 976 
Q 2950 1472 2950 2216 
z
" transform="scale(0.015625)"/>
       <path id="DejaVuSans-Oblique-6d" d="M 5747 2113 
L 5338 0 
L 4763 0 
L 5166 2094 
Q 5191 2228 5203 2325 
Q 5216 2422 5216 2491 
Q 5216 2772 5059 2928 
Q 4903 3084 4622 3084 
Q 4203 3084 3875 2770 
Q 3547 2456 3450 1953 
L 3066 0 
L 2491 0 
L 2900 2094 
Q 2925 2209 2937 2307 
Q 2950 2406 2950 2484 
Q 2950 2769 2794 2926 
Q 2638 3084 2363 3084 
Q 1938 3084 1609 2770 
Q 1281 2456 1184 1953 
L 800 0 
L 225 0 
L 909 3500 
L 1484 3500 
L 1375 2956 
Q 1609 3263 1923 3423 
Q 2238 3584 2597 3584 
Q 2978 3584 3223 3384 
Q 3469 3184 3519 2828 
Q 3781 3197 4126 3390 
Q 4472 3584 4856 3584 
Q 5306 3584 5551 3325 
Q 5797 3066 5797 2591 
Q 5797 2488 5784 2364 
Q 5772 2241 5747 2113 
z
" transform="scale(0.015625)"/>
       <path id="DejaVuSans-2f" d="M 1625 4666 
L 2156 4666 
L 531 -594 
L 0 -594 
L 1625 4666 
z
" transform="scale(0.015625)"/>
       <path id="DejaVuSans-Oblique-49" d="M 1081 4666 
L 1716 4666 
L 806 0 
L 172 0 
L 1081 4666 
z
" transform="scale(0.015625)"/>
       <path id="DejaVuSans-Oblique-44" d="M 1081 4666 
L 2438 4666 
Q 3519 4666 4070 4208 
Q 4622 3750 4622 2847 
Q 4622 2250 4412 1698 
Q 4203 1147 3834 769 
Q 3463 381 2891 190 
Q 2319 0 1538 0 
L 172 0 
L 1081 4666 
z
M 1613 4147 
L 909 519 
L 1734 519 
Q 2794 519 3375 1128 
Q 3956 1738 3956 2847 
Q 3956 3519 3581 3833 
Q 3206 4147 2406 4147 
L 1613 4147 
z
" transform="scale(0.015625)"/>
       <path id="DejaVuSans-28" d="M 1984 4856 
Q 1566 4138 1362 3434 
Q 1159 2731 1159 2009 
Q 1159 1288 1364 580 
Q 1569 -128 1984 -844 
L 1484 -844 
Q 1016 -109 783 600 
Q 550 1309 550 2009 
Q 550 2706 781 3412 
Q 1013 4119 1484 4856 
L 1984 4856 
z
" transform="scale(0.015625)"/>
       <path id="DejaVuSans-Oblique-53" d="M 3859 4513 
L 3738 3897 
Q 3422 4066 3111 4152 
Q 2800 4238 2509 4238 
Q 1944 4238 1609 3991 
Q 1275 3744 1275 3334 
Q 1275 3109 1398 2989 
Q 1522 2869 2034 2731 
L 2413 2638 
Q 3053 2472 3303 2217 
Q 3553 1963 3553 1503 
Q 3553 797 2998 353 
Q 2444 -91 1538 -91 
Q 1166 -91 791 -17 
Q 416 56 38 206 
L 166 856 
Q 513 641 861 531 
Q 1209 422 1556 422 
Q 2147 422 2503 684 
Q 2859 947 2859 1369 
Q 2859 1650 2717 1795 
Q 2575 1941 2106 2059 
L 1728 2156 
Q 1081 2325 845 2545 
Q 609 2766 609 3163 
Q 609 3859 1145 4304 
Q 1681 4750 2541 4750 
Q 2875 4750 3203 4690 
Q 3531 4631 3859 4513 
z
" transform="scale(0.015625)"/>
       <path id="DejaVuSans-Oblique-41" d="M 2356 4666 
L 3072 4666 
L 3938 0 
L 3278 0 
L 3084 1197 
L 984 1197 
L 325 0 
L -341 0 
L 2356 4666 
z
M 2584 4044 
L 1275 1722 
L 2988 1722 
L 2584 4044 
z
" transform="scale(0.015625)"/>
       <path id="DejaVuSans-29" d="M 513 4856 
L 1013 4856 
Q 1481 4119 1714 3412 
Q 1947 2706 1947 2009 
Q 1947 1309 1714 600 
Q 1481 -109 1013 -844 
L 513 -844 
Q 928 -128 1133 580 
Q 1338 1288 1338 2009 
Q 1338 2731 1133 3434 
Q 928 4138 513 4856 
z
" transform="scale(0.015625)"/>
      </defs>
      <use xlink:href="#DejaVuSans-Oblique-67" transform="translate(0 0.125)"/>
      <use xlink:href="#DejaVuSans-Oblique-6d" transform="translate(63.476562 -16.28125) scale(0.7)"/>
      <use xlink:href="#DejaVuSans-2f" transform="translate(134.399414 0.125)"/>
      <use xlink:href="#DejaVuSans-Oblique-49" transform="translate(168.09082 0.125)"/>
      <use xlink:href="#DejaVuSans-Oblique-44" transform="translate(197.583008 -16.28125) scale(0.7)"/>
      <use xlink:href="#DejaVuSans-28" transform="translate(286.689128 0.125)"/>
      <use xlink:href="#DejaVuSans-Oblique-53" transform="translate(325.7028 0.125)"/>
      <use xlink:href="#DejaVuSans-2f" transform="translate(389.179363 0.125)"/>
      <use xlink:href="#DejaVuSans-Oblique-41" transform="translate(422.870769 0.125)"/>
      <use xlink:href="#DejaVuSans-29" transform="translate(491.278972 0.125)"/>
     </g>
    </g>
   </g>
   <g id="matplotlib.axis_2">
    <g id="ytick_1">
     <g id="line2d_13">
      <path d="M 51.378125 229.363329 
L 491.996875 229.363329 
" clip-path="url(#p5cfa50b01a)" style="fill: none; stroke-dasharray: 2.96,1.28; stroke-dashoffset: 0; stroke: #e6e6e6; stroke-width: 0.8"/>
     </g>
     <g id="line2d_14">
      <defs>
       <path id="m062b33800e" d="M 0 0 
L -3.5 0 
" style="stroke: #000000; stroke-width: 0.8"/>
      </defs>
      <g>
       <use xlink:href="#m062b33800e" x="51.378125" y="229.363329" style="stroke: #000000; stroke-width: 0.8"/>
      </g>
     </g>
     <g id="text_8">
      <!-- $\mathdefault{10^{-4}}$ -->
      <g transform="translate(20.878125 233.162547) scale(0.1 -0.1)">
       <defs>
        <path id="DejaVuSans-2212" d="M 678 2272 
L 4684 2272 
L 4684 1741 
L 678 1741 
L 678 2272 
z
" transform="scale(0.015625)"/>
        <path id="DejaVuSans-34" d="M 2419 4116 
L 825 1625 
L 2419 1625 
L 2419 4116 
z
M 2253 4666 
L 3047 4666 
L 3047 1625 
L 3713 1625 
L 3713 1100 
L 3047 1100 
L 3047 0 
L 2419 0 
L 2419 1100 
L 313 1100 
L 313 1709 
L 2253 4666 
z
" transform="scale(0.015625)"/>
       </defs>
       <use xlink:href="#DejaVuSans-31" transform="translate(0 0.684375)"/>
       <use xlink:href="#DejaVuSans-30" transform="translate(63.623047 0.684375)"/>
       <use xlink:href="#DejaVuSans-2212" transform="translate(128.203125 38.965625) scale(0.7)"/>
       <use xlink:href="#DejaVuSans-34" transform="translate(186.855469 38.965625) scale(0.7)"/>
      </g>
     </g>
    </g>
    <g id="ytick_2">
     <g id="line2d_15">
      <path d="M 51.378125 198.168456 
L 491.996875 198.168456 
" clip-path="url(#p5cfa50b01a)" style="fill: none; stroke-dasharray: 2.96,1.28; stroke-dashoffset: 0; stroke: #e6e6e6; stroke-width: 0.8"/>
     </g>
     <g id="line2d_16">
      <g>
       <use xlink:href="#m062b33800e" x="51.378125" y="198.168456" style="stroke: #000000; stroke-width: 0.8"/>
      </g>
     </g>
     <g id="text_9">
      <!-- $\mathdefault{10^{-3}}$ -->
      <g transform="translate(20.878125 201.967675) scale(0.1 -0.1)">
       <use xlink:href="#DejaVuSans-31" transform="translate(0 0.765625)"/>
       <use xlink:href="#DejaVuSans-30" transform="translate(63.623047 0.765625)"/>
       <use xlink:href="#DejaVuSans-2212" transform="translate(128.203125 39.046875) scale(0.7)"/>
       <use xlink:href="#DejaVuSans-33" transform="translate(186.855469 39.046875) scale(0.7)"/>
      </g>
     </g>
    </g>
    <g id="ytick_3">
     <g id="line2d_17">
      <path d="M 51.378125 166.973583 
L 491.996875 166.973583 
" clip-path="url(#p5cfa50b01a)" style="fill: none; stroke-dasharray: 2.96,1.28; stroke-dashoffset: 0; stroke: #e6e6e6; stroke-width: 0.8"/>
     </g>
     <g id="line2d_18">
      <g>
       <use xlink:href="#m062b33800e" x="51.378125" y="166.973583" style="stroke: #000000; stroke-width: 0.8"/>
      </g>
     </g>
     <g id="text_10">
      <!-- $\mathdefault{10^{-2}}$ -->
      <g transform="translate(20.878125 170.772802) scale(0.1 -0.1)">
       <use xlink:href="#DejaVuSans-31" transform="translate(0 0.765625)"/>
       <use xlink:href="#DejaVuSans-30" transform="translate(63.623047 0.765625)"/>
       <use xlink:href="#DejaVuSans-2212" transform="translate(128.203125 39.046875) scale(0.7)"/>
       <use xlink:href="#DejaVuSans-32" transform="translate(186.855469 39.046875) scale(0.7)"/>
      </g>
     </g>
    </g>
    <g id="ytick_4">
     <g id="line2d_19">
      <path d="M 51.378125 135.77871 
L 491.996875 135.77871 
" clip-path="url(#p5cfa50b01a)" style="fill: none; stroke-dasharray: 2.96,1.28; stroke-dashoffset: 0; stroke: #e6e6e6; stroke-width: 0.8"/>
     </g>
     <g id="line2d_20">
      <g>
       <use xlink:href="#m062b33800e" x="51.378125" y="135.77871" style="stroke: #000000; stroke-width: 0.8"/>
      </g>
     </g>
     <g id="text_11">
      <!-- $\mathdefault{10^{-1}}$ -->
      <g transform="translate(20.878125 139.577929) scale(0.1 -0.1)">
       <use xlink:href="#DejaVuSans-31" transform="translate(0 0.684375)"/>
       <use xlink:href="#DejaVuSans-30" transform="translate(63.623047 0.684375)"/>
       <use xlink:href="#DejaVuSans-2212" transform="translate(128.203125 38.965625) scale(0.7)"/>
       <use xlink:href="#DejaVuSans-31" transform="translate(186.855469 38.965625) scale(0.7)"/>
      </g>
     </g>
    </g>
    <g id="ytick_5">
     <g id="line2d_21">
      <path d="M 51.378125 104.583837 
L 491.996875 104.583837 
" clip-path="url(#p5cfa50b01a)" style="fill: none; stroke-dasharray: 2.96,1.28; stroke-dashoffset: 0; stroke: #e6e6e6; stroke-width: 0.8"/>
     </g>
     <g id="line2d_22">
      <g>
       <use xlink:href="#m062b33800e" x="51.378125" y="104.583837" style="stroke: #000000; stroke-width: 0.8"/>
      </g>
     </g>
     <g id="text_12">
      <!-- $\mathdefault{10^{0}}$ -->
      <g transform="translate(26.778125 108.383056) scale(0.1 -0.1)">
       <use xlink:href="#DejaVuSans-31" transform="translate(0 0.765625)"/>
       <use xlink:href="#DejaVuSans-30" transform="translate(63.623047 0.765625)"/>
       <use xlink:href="#DejaVuSans-30" transform="translate(128.203125 39.046875) scale(0.7)"/>
      </g>
     </g>
    </g>
    <g id="ytick_6">
     <g id="line2d_23">
      <path d="M 51.378125 73.388964 
L 491.996875 73.388964 
" clip-path="url(#p5cfa50b01a)" style="fill: none; stroke-dasharray: 2.96,1.28; stroke-dashoffset: 0; stroke: #e6e6e6; stroke-width: 0.8"/>
     </g>
     <g id="line2d_24">
      <g>
       <use xlink:href="#m062b33800e" x="51.378125" y="73.388964" style="stroke: #000000; stroke-width: 0.8"/>
      </g>
     </g>
     <g id="text_13">
      <!-- $\mathdefault{10^{1}}$ -->
      <g transform="translate(26.778125 77.188183) scale(0.1 -0.1)">
       <use xlink:href="#DejaVuSans-31" transform="translate(0 0.684375)"/>
       <use xlink:href="#DejaVuSans-30" transform="translate(63.623047 0.684375)"/>
       <use xlink:href="#DejaVuSans-31" transform="translate(128.203125 38.965625) scale(0.7)"/>
      </g>
     </g>
    </g>
    <g id="ytick_7">
     <g id="line2d_25">
      <path d="M 51.378125 42.194092 
L 491.996875 42.194092 
" clip-path="url(#p5cfa50b01a)" style="fill: none; stroke-dasharray: 2.96,1.28; stroke-dashoffset: 0; stroke: #e6e6e6; stroke-width: 0.8"/>
     </g>
     <g id="line2d_26">
      <g>
       <use xlink:href="#m062b33800e" x="51.378125" y="42.194092" style="stroke: #000000; stroke-width: 0.8"/>
      </g>
     </g>
     <g id="text_14">
      <!-- $\mathdefault{10^{2}}$ -->
      <g transform="translate(26.778125 45.99331) scale(0.1 -0.1)">
       <use xlink:href="#DejaVuSans-31" transform="translate(0 0.765625)"/>
       <use xlink:href="#DejaVuSans-30" transform="translate(63.623047 0.765625)"/>
       <use xlink:href="#DejaVuSans-32" transform="translate(128.203125 39.046875) scale(0.7)"/>
      </g>
     </g>
    </g>
    <g id="ytick_8">
     <g id="line2d_27">
      <path d="M 51.378125 10.999219 
L 491.996875 10.999219 
" clip-path="url(#p5cfa50b01a)" style="fill: none; stroke-dasharray: 2.96,1.28; stroke-dashoffset: 0; stroke: #e6e6e6; stroke-width: 0.8"/>
     </g>
     <g id="line2d_28">
      <g>
       <use xlink:href="#m062b33800e" x="51.378125" y="10.999219" style="stroke: #000000; stroke-width: 0.8"/>
      </g>
     </g>
     <g id="text_15">
      <!-- $\mathdefault{10^{3}}$ -->
      <g transform="translate(26.778125 14.798438) scale(0.1 -0.1)">
       <use xlink:href="#DejaVuSans-31" transform="translate(0 0.765625)"/>
       <use xlink:href="#DejaVuSans-30" transform="translate(63.623047 0.765625)"/>
       <use xlink:href="#DejaVuSans-33" transform="translate(128.203125 39.046875) scale(0.7)"/>
      </g>
     </g>
    </g>
    <g id="ytick_9">
     <g id="line2d_29">
      <path d="M 51.378125 241.777017 
L 491.996875 241.777017 
" clip-path="url(#p5cfa50b01a)" style="fill: none; stroke-dasharray: 2.96,1.28; stroke-dashoffset: 0; stroke: #e6e6e6; stroke-width: 0.8"/>
     </g>
     <g id="line2d_30">
      <defs>
       <path id="m836e58db4c" d="M 0 0 
L -2 0 
" style="stroke: #000000; stroke-width: 0.6"/>
      </defs>
      <g>
       <use xlink:href="#m836e58db4c" x="51.378125" y="241.777017" style="stroke: #000000; stroke-width: 0.6"/>
      </g>
     </g>
    </g>
    <g id="ytick_10">
     <g id="line2d_31">
      <path d="M 51.378125 238.753921 
L 491.996875 238.753921 
" clip-path="url(#p5cfa50b01a)" style="fill: none; stroke-dasharray: 2.96,1.28; stroke-dashoffset: 0; stroke: #e6e6e6; stroke-width: 0.8"/>
     </g>
     <g id="line2d_32">
      <g>
       <use xlink:href="#m836e58db4c" x="51.378125" y="238.753921" style="stroke: #000000; stroke-width: 0.6"/>
      </g>
     </g>
    </g>
    <g id="ytick_11">
     <g id="line2d_33">
      <path d="M 51.378125 236.283872 
L 491.996875 236.283872 
" clip-path="url(#p5cfa50b01a)" style="fill: none; stroke-dasharray: 2.96,1.28; stroke-dashoffset: 0; stroke: #e6e6e6; stroke-width: 0.8"/>
     </g>
     <g id="line2d_34">
      <g>
       <use xlink:href="#m836e58db4c" x="51.378125" y="236.283872" style="stroke: #000000; stroke-width: 0.6"/>
      </g>
     </g>
    </g>
    <g id="ytick_12">
     <g id="line2d_35">
      <path d="M 51.378125 234.195476 
L 491.996875 234.195476 
" clip-path="url(#p5cfa50b01a)" style="fill: none; stroke-dasharray: 2.96,1.28; stroke-dashoffset: 0; stroke: #e6e6e6; stroke-width: 0.8"/>
     </g>
     <g id="line2d_36">
      <g>
       <use xlink:href="#m836e58db4c" x="51.378125" y="234.195476" style="stroke: #000000; stroke-width: 0.6"/>
      </g>
     </g>
    </g>
    <g id="ytick_13">
     <g id="line2d_37">
      <path d="M 51.378125 232.386424 
L 491.996875 232.386424 
" clip-path="url(#p5cfa50b01a)" style="fill: none; stroke-dasharray: 2.96,1.28; stroke-dashoffset: 0; stroke: #e6e6e6; stroke-width: 0.8"/>
     </g>
     <g id="line2d_38">
      <g>
       <use xlink:href="#m836e58db4c" x="51.378125" y="232.386424" style="stroke: #000000; stroke-width: 0.6"/>
      </g>
     </g>
    </g>
    <g id="ytick_14">
     <g id="line2d_39">
      <path d="M 51.378125 230.790728 
L 491.996875 230.790728 
" clip-path="url(#p5cfa50b01a)" style="fill: none; stroke-dasharray: 2.96,1.28; stroke-dashoffset: 0; stroke: #e6e6e6; stroke-width: 0.8"/>
     </g>
     <g id="line2d_40">
      <g>
       <use xlink:href="#m836e58db4c" x="51.378125" y="230.790728" style="stroke: #000000; stroke-width: 0.6"/>
      </g>
     </g>
    </g>
    <g id="ytick_15">
     <g id="line2d_41">
      <path d="M 51.378125 219.972736 
L 491.996875 219.972736 
" clip-path="url(#p5cfa50b01a)" style="fill: none; stroke-dasharray: 2.96,1.28; stroke-dashoffset: 0; stroke: #e6e6e6; stroke-width: 0.8"/>
     </g>
     <g id="line2d_42">
      <g>
       <use xlink:href="#m836e58db4c" x="51.378125" y="219.972736" style="stroke: #000000; stroke-width: 0.6"/>
      </g>
     </g>
    </g>
    <g id="ytick_16">
     <g id="line2d_43">
      <path d="M 51.378125 214.479592 
L 491.996875 214.479592 
" clip-path="url(#p5cfa50b01a)" style="fill: none; stroke-dasharray: 2.96,1.28; stroke-dashoffset: 0; stroke: #e6e6e6; stroke-width: 0.8"/>
     </g>
     <g id="line2d_44">
      <g>
       <use xlink:href="#m836e58db4c" x="51.378125" y="214.479592" style="stroke: #000000; stroke-width: 0.6"/>
      </g>
     </g>
    </g>
    <g id="ytick_17">
     <g id="line2d_45">
      <path d="M 51.378125 210.582144 
L 491.996875 210.582144 
" clip-path="url(#p5cfa50b01a)" style="fill: none; stroke-dasharray: 2.96,1.28; stroke-dashoffset: 0; stroke: #e6e6e6; stroke-width: 0.8"/>
     </g>
     <g id="line2d_46">
      <g>
       <use xlink:href="#m836e58db4c" x="51.378125" y="210.582144" style="stroke: #000000; stroke-width: 0.6"/>
      </g>
     </g>
    </g>
    <g id="ytick_18">
     <g id="line2d_47">
      <path d="M 51.378125 207.559048 
L 491.996875 207.559048 
" clip-path="url(#p5cfa50b01a)" style="fill: none; stroke-dasharray: 2.96,1.28; stroke-dashoffset: 0; stroke: #e6e6e6; stroke-width: 0.8"/>
     </g>
     <g id="line2d_48">
      <g>
       <use xlink:href="#m836e58db4c" x="51.378125" y="207.559048" style="stroke: #000000; stroke-width: 0.6"/>
      </g>
     </g>
    </g>
    <g id="ytick_19">
     <g id="line2d_49">
      <path d="M 51.378125 205.088999 
L 491.996875 205.088999 
" clip-path="url(#p5cfa50b01a)" style="fill: none; stroke-dasharray: 2.96,1.28; stroke-dashoffset: 0; stroke: #e6e6e6; stroke-width: 0.8"/>
     </g>
     <g id="line2d_50">
      <g>
       <use xlink:href="#m836e58db4c" x="51.378125" y="205.088999" style="stroke: #000000; stroke-width: 0.6"/>
      </g>
     </g>
    </g>
    <g id="ytick_20">
     <g id="line2d_51">
      <path d="M 51.378125 203.000603 
L 491.996875 203.000603 
" clip-path="url(#p5cfa50b01a)" style="fill: none; stroke-dasharray: 2.96,1.28; stroke-dashoffset: 0; stroke: #e6e6e6; stroke-width: 0.8"/>
     </g>
     <g id="line2d_52">
      <g>
       <use xlink:href="#m836e58db4c" x="51.378125" y="203.000603" style="stroke: #000000; stroke-width: 0.6"/>
      </g>
     </g>
    </g>
    <g id="ytick_21">
     <g id="line2d_53">
      <path d="M 51.378125 201.191551 
L 491.996875 201.191551 
" clip-path="url(#p5cfa50b01a)" style="fill: none; stroke-dasharray: 2.96,1.28; stroke-dashoffset: 0; stroke: #e6e6e6; stroke-width: 0.8"/>
     </g>
     <g id="line2d_54">
      <g>
       <use xlink:href="#m836e58db4c" x="51.378125" y="201.191551" style="stroke: #000000; stroke-width: 0.6"/>
      </g>
     </g>
    </g>
    <g id="ytick_22">
     <g id="line2d_55">
      <path d="M 51.378125 199.595855 
L 491.996875 199.595855 
" clip-path="url(#p5cfa50b01a)" style="fill: none; stroke-dasharray: 2.96,1.28; stroke-dashoffset: 0; stroke: #e6e6e6; stroke-width: 0.8"/>
     </g>
     <g id="line2d_56">
      <g>
       <use xlink:href="#m836e58db4c" x="51.378125" y="199.595855" style="stroke: #000000; stroke-width: 0.6"/>
      </g>
     </g>
    </g>
    <g id="ytick_23">
     <g id="line2d_57">
      <path d="M 51.378125 188.777863 
L 491.996875 188.777863 
" clip-path="url(#p5cfa50b01a)" style="fill: none; stroke-dasharray: 2.96,1.28; stroke-dashoffset: 0; stroke: #e6e6e6; stroke-width: 0.8"/>
     </g>
     <g id="line2d_58">
      <g>
       <use xlink:href="#m836e58db4c" x="51.378125" y="188.777863" style="stroke: #000000; stroke-width: 0.6"/>
      </g>
     </g>
    </g>
    <g id="ytick_24">
     <g id="line2d_59">
      <path d="M 51.378125 183.284719 
L 491.996875 183.284719 
" clip-path="url(#p5cfa50b01a)" style="fill: none; stroke-dasharray: 2.96,1.28; stroke-dashoffset: 0; stroke: #e6e6e6; stroke-width: 0.8"/>
     </g>
     <g id="line2d_60">
      <g>
       <use xlink:href="#m836e58db4c" x="51.378125" y="183.284719" style="stroke: #000000; stroke-width: 0.6"/>
      </g>
     </g>
    </g>
    <g id="ytick_25">
     <g id="line2d_61">
      <path d="M 51.378125 179.387271 
L 491.996875 179.387271 
" clip-path="url(#p5cfa50b01a)" style="fill: none; stroke-dasharray: 2.96,1.28; stroke-dashoffset: 0; stroke: #e6e6e6; stroke-width: 0.8"/>
     </g>
     <g id="line2d_62">
      <g>
       <use xlink:href="#m836e58db4c" x="51.378125" y="179.387271" style="stroke: #000000; stroke-width: 0.6"/>
      </g>
     </g>
    </g>
    <g id="ytick_26">
     <g id="line2d_63">
      <path d="M 51.378125 176.364175 
L 491.996875 176.364175 
" clip-path="url(#p5cfa50b01a)" style="fill: none; stroke-dasharray: 2.96,1.28; stroke-dashoffset: 0; stroke: #e6e6e6; stroke-width: 0.8"/>
     </g>
     <g id="line2d_64">
      <g>
       <use xlink:href="#m836e58db4c" x="51.378125" y="176.364175" style="stroke: #000000; stroke-width: 0.6"/>
      </g>
     </g>
    </g>
    <g id="ytick_27">
     <g id="line2d_65">
      <path d="M 51.378125 173.894126 
L 491.996875 173.894126 
" clip-path="url(#p5cfa50b01a)" style="fill: none; stroke-dasharray: 2.96,1.28; stroke-dashoffset: 0; stroke: #e6e6e6; stroke-width: 0.8"/>
     </g>
     <g id="line2d_66">
      <g>
       <use xlink:href="#m836e58db4c" x="51.378125" y="173.894126" style="stroke: #000000; stroke-width: 0.6"/>
      </g>
     </g>
    </g>
    <g id="ytick_28">
     <g id="line2d_67">
      <path d="M 51.378125 171.80573 
L 491.996875 171.80573 
" clip-path="url(#p5cfa50b01a)" style="fill: none; stroke-dasharray: 2.96,1.28; stroke-dashoffset: 0; stroke: #e6e6e6; stroke-width: 0.8"/>
     </g>
     <g id="line2d_68">
      <g>
       <use xlink:href="#m836e58db4c" x="51.378125" y="171.80573" style="stroke: #000000; stroke-width: 0.6"/>
      </g>
     </g>
    </g>
    <g id="ytick_29">
     <g id="line2d_69">
      <path d="M 51.378125 169.996678 
L 491.996875 169.996678 
" clip-path="url(#p5cfa50b01a)" style="fill: none; stroke-dasharray: 2.96,1.28; stroke-dashoffset: 0; stroke: #e6e6e6; stroke-width: 0.8"/>
     </g>
     <g id="line2d_70">
      <g>
       <use xlink:href="#m836e58db4c" x="51.378125" y="169.996678" style="stroke: #000000; stroke-width: 0.6"/>
      </g>
     </g>
    </g>
    <g id="ytick_30">
     <g id="line2d_71">
      <path d="M 51.378125 168.400982 
L 491.996875 168.400982 
" clip-path="url(#p5cfa50b01a)" style="fill: none; stroke-dasharray: 2.96,1.28; stroke-dashoffset: 0; stroke: #e6e6e6; stroke-width: 0.8"/>
     </g>
     <g id="line2d_72">
      <g>
       <use xlink:href="#m836e58db4c" x="51.378125" y="168.400982" style="stroke: #000000; stroke-width: 0.6"/>
      </g>
     </g>
    </g>
    <g id="ytick_31">
     <g id="line2d_73">
      <path d="M 51.378125 157.58299 
L 491.996875 157.58299 
" clip-path="url(#p5cfa50b01a)" style="fill: none; stroke-dasharray: 2.96,1.28; stroke-dashoffset: 0; stroke: #e6e6e6; stroke-width: 0.8"/>
     </g>
     <g id="line2d_74">
      <g>
       <use xlink:href="#m836e58db4c" x="51.378125" y="157.58299" style="stroke: #000000; stroke-width: 0.6"/>
      </g>
     </g>
    </g>
    <g id="ytick_32">
     <g id="line2d_75">
      <path d="M 51.378125 152.089846 
L 491.996875 152.089846 
" clip-path="url(#p5cfa50b01a)" style="fill: none; stroke-dasharray: 2.96,1.28; stroke-dashoffset: 0; stroke: #e6e6e6; stroke-width: 0.8"/>
     </g>
     <g id="line2d_76">
      <g>
       <use xlink:href="#m836e58db4c" x="51.378125" y="152.089846" style="stroke: #000000; stroke-width: 0.6"/>
      </g>
     </g>
    </g>
    <g id="ytick_33">
     <g id="line2d_77">
      <path d="M 51.378125 148.192398 
L 491.996875 148.192398 
" clip-path="url(#p5cfa50b01a)" style="fill: none; stroke-dasharray: 2.96,1.28; stroke-dashoffset: 0; stroke: #e6e6e6; stroke-width: 0.8"/>
     </g>
     <g id="line2d_78">
      <g>
       <use xlink:href="#m836e58db4c" x="51.378125" y="148.192398" style="stroke: #000000; stroke-width: 0.6"/>
      </g>
     </g>
    </g>
    <g id="ytick_34">
     <g id="line2d_79">
      <path d="M 51.378125 145.169303 
L 491.996875 145.169303 
" clip-path="url(#p5cfa50b01a)" style="fill: none; stroke-dasharray: 2.96,1.28; stroke-dashoffset: 0; stroke: #e6e6e6; stroke-width: 0.8"/>
     </g>
     <g id="line2d_80">
      <g>
       <use xlink:href="#m836e58db4c" x="51.378125" y="145.169303" style="stroke: #000000; stroke-width: 0.6"/>
      </g>
     </g>
    </g>
    <g id="ytick_35">
     <g id="line2d_81">
      <path d="M 51.378125 142.699254 
L 491.996875 142.699254 
" clip-path="url(#p5cfa50b01a)" style="fill: none; stroke-dasharray: 2.96,1.28; stroke-dashoffset: 0; stroke: #e6e6e6; stroke-width: 0.8"/>
     </g>
     <g id="line2d_82">
      <g>
       <use xlink:href="#m836e58db4c" x="51.378125" y="142.699254" style="stroke: #000000; stroke-width: 0.6"/>
      </g>
     </g>
    </g>
    <g id="ytick_36">
     <g id="line2d_83">
      <path d="M 51.378125 140.610857 
L 491.996875 140.610857 
" clip-path="url(#p5cfa50b01a)" style="fill: none; stroke-dasharray: 2.96,1.28; stroke-dashoffset: 0; stroke: #e6e6e6; stroke-width: 0.8"/>
     </g>
     <g id="line2d_84">
      <g>
       <use xlink:href="#m836e58db4c" x="51.378125" y="140.610857" style="stroke: #000000; stroke-width: 0.6"/>
      </g>
     </g>
    </g>
    <g id="ytick_37">
     <g id="line2d_85">
      <path d="M 51.378125 138.801806 
L 491.996875 138.801806 
" clip-path="url(#p5cfa50b01a)" style="fill: none; stroke-dasharray: 2.96,1.28; stroke-dashoffset: 0; stroke: #e6e6e6; stroke-width: 0.8"/>
     </g>
     <g id="line2d_86">
      <g>
       <use xlink:href="#m836e58db4c" x="51.378125" y="138.801806" style="stroke: #000000; stroke-width: 0.6"/>
      </g>
     </g>
    </g>
    <g id="ytick_38">
     <g id="line2d_87">
      <path d="M 51.378125 137.206109 
L 491.996875 137.206109 
" clip-path="url(#p5cfa50b01a)" style="fill: none; stroke-dasharray: 2.96,1.28; stroke-dashoffset: 0; stroke: #e6e6e6; stroke-width: 0.8"/>
     </g>
     <g id="line2d_88">
      <g>
       <use xlink:href="#m836e58db4c" x="51.378125" y="137.206109" style="stroke: #000000; stroke-width: 0.6"/>
      </g>
     </g>
    </g>
    <g id="ytick_39">
     <g id="line2d_89">
      <path d="M 51.378125 126.388118 
L 491.996875 126.388118 
" clip-path="url(#p5cfa50b01a)" style="fill: none; stroke-dasharray: 2.96,1.28; stroke-dashoffset: 0; stroke: #e6e6e6; stroke-width: 0.8"/>
     </g>
     <g id="line2d_90">
      <g>
       <use xlink:href="#m836e58db4c" x="51.378125" y="126.388118" style="stroke: #000000; stroke-width: 0.6"/>
      </g>
     </g>
    </g>
    <g id="ytick_40">
     <g id="line2d_91">
      <path d="M 51.378125 120.894973 
L 491.996875 120.894973 
" clip-path="url(#p5cfa50b01a)" style="fill: none; stroke-dasharray: 2.96,1.28; stroke-dashoffset: 0; stroke: #e6e6e6; stroke-width: 0.8"/>
     </g>
     <g id="line2d_92">
      <g>
       <use xlink:href="#m836e58db4c" x="51.378125" y="120.894973" style="stroke: #000000; stroke-width: 0.6"/>
      </g>
     </g>
    </g>
    <g id="ytick_41">
     <g id="line2d_93">
      <path d="M 51.378125 116.997525 
L 491.996875 116.997525 
" clip-path="url(#p5cfa50b01a)" style="fill: none; stroke-dasharray: 2.96,1.28; stroke-dashoffset: 0; stroke: #e6e6e6; stroke-width: 0.8"/>
     </g>
     <g id="line2d_94">
      <g>
       <use xlink:href="#m836e58db4c" x="51.378125" y="116.997525" style="stroke: #000000; stroke-width: 0.6"/>
      </g>
     </g>
    </g>
    <g id="ytick_42">
     <g id="line2d_95">
      <path d="M 51.378125 113.97443 
L 491.996875 113.97443 
" clip-path="url(#p5cfa50b01a)" style="fill: none; stroke-dasharray: 2.96,1.28; stroke-dashoffset: 0; stroke: #e6e6e6; stroke-width: 0.8"/>
     </g>
     <g id="line2d_96">
      <g>
       <use xlink:href="#m836e58db4c" x="51.378125" y="113.97443" style="stroke: #000000; stroke-width: 0.6"/>
      </g>
     </g>
    </g>
    <g id="ytick_43">
     <g id="line2d_97">
      <path d="M 51.378125 111.504381 
L 491.996875 111.504381 
" clip-path="url(#p5cfa50b01a)" style="fill: none; stroke-dasharray: 2.96,1.28; stroke-dashoffset: 0; stroke: #e6e6e6; stroke-width: 0.8"/>
     </g>
     <g id="line2d_98">
      <g>
       <use xlink:href="#m836e58db4c" x="51.378125" y="111.504381" style="stroke: #000000; stroke-width: 0.6"/>
      </g>
     </g>
    </g>
    <g id="ytick_44">
     <g id="line2d_99">
      <path d="M 51.378125 109.415984 
L 491.996875 109.415984 
" clip-path="url(#p5cfa50b01a)" style="fill: none; stroke-dasharray: 2.96,1.28; stroke-dashoffset: 0; stroke: #e6e6e6; stroke-width: 0.8"/>
     </g>
     <g id="line2d_100">
      <g>
       <use xlink:href="#m836e58db4c" x="51.378125" y="109.415984" style="stroke: #000000; stroke-width: 0.6"/>
      </g>
     </g>
    </g>
    <g id="ytick_45">
     <g id="line2d_101">
      <path d="M 51.378125 107.606933 
L 491.996875 107.606933 
" clip-path="url(#p5cfa50b01a)" style="fill: none; stroke-dasharray: 2.96,1.28; stroke-dashoffset: 0; stroke: #e6e6e6; stroke-width: 0.8"/>
     </g>
     <g id="line2d_102">
      <g>
       <use xlink:href="#m836e58db4c" x="51.378125" y="107.606933" style="stroke: #000000; stroke-width: 0.6"/>
      </g>
     </g>
    </g>
    <g id="ytick_46">
     <g id="line2d_103">
      <path d="M 51.378125 106.011236 
L 491.996875 106.011236 
" clip-path="url(#p5cfa50b01a)" style="fill: none; stroke-dasharray: 2.96,1.28; stroke-dashoffset: 0; stroke: #e6e6e6; stroke-width: 0.8"/>
     </g>
     <g id="line2d_104">
      <g>
       <use xlink:href="#m836e58db4c" x="51.378125" y="106.011236" style="stroke: #000000; stroke-width: 0.6"/>
      </g>
     </g>
    </g>
    <g id="ytick_47">
     <g id="line2d_105">
      <path d="M 51.378125 95.193245 
L 491.996875 95.193245 
" clip-path="url(#p5cfa50b01a)" style="fill: none; stroke-dasharray: 2.96,1.28; stroke-dashoffset: 0; stroke: #e6e6e6; stroke-width: 0.8"/>
     </g>
     <g id="line2d_106">
      <g>
       <use xlink:href="#m836e58db4c" x="51.378125" y="95.193245" style="stroke: #000000; stroke-width: 0.6"/>
      </g>
     </g>
    </g>
    <g id="ytick_48">
     <g id="line2d_107">
      <path d="M 51.378125 89.7001 
L 491.996875 89.7001 
" clip-path="url(#p5cfa50b01a)" style="fill: none; stroke-dasharray: 2.96,1.28; stroke-dashoffset: 0; stroke: #e6e6e6; stroke-width: 0.8"/>
     </g>
     <g id="line2d_108">
      <g>
       <use xlink:href="#m836e58db4c" x="51.378125" y="89.7001" style="stroke: #000000; stroke-width: 0.6"/>
      </g>
     </g>
    </g>
    <g id="ytick_49">
     <g id="line2d_109">
      <path d="M 51.378125 85.802652 
L 491.996875 85.802652 
" clip-path="url(#p5cfa50b01a)" style="fill: none; stroke-dasharray: 2.96,1.28; stroke-dashoffset: 0; stroke: #e6e6e6; stroke-width: 0.8"/>
     </g>
     <g id="line2d_110">
      <g>
       <use xlink:href="#m836e58db4c" x="51.378125" y="85.802652" style="stroke: #000000; stroke-width: 0.6"/>
      </g>
     </g>
    </g>
    <g id="ytick_50">
     <g id="line2d_111">
      <path d="M 51.378125 82.779557 
L 491.996875 82.779557 
" clip-path="url(#p5cfa50b01a)" style="fill: none; stroke-dasharray: 2.96,1.28; stroke-dashoffset: 0; stroke: #e6e6e6; stroke-width: 0.8"/>
     </g>
     <g id="line2d_112">
      <g>
       <use xlink:href="#m836e58db4c" x="51.378125" y="82.779557" style="stroke: #000000; stroke-width: 0.6"/>
      </g>
     </g>
    </g>
    <g id="ytick_51">
     <g id="line2d_113">
      <path d="M 51.378125 80.309508 
L 491.996875 80.309508 
" clip-path="url(#p5cfa50b01a)" style="fill: none; stroke-dasharray: 2.96,1.28; stroke-dashoffset: 0; stroke: #e6e6e6; stroke-width: 0.8"/>
     </g>
     <g id="line2d_114">
      <g>
       <use xlink:href="#m836e58db4c" x="51.378125" y="80.309508" style="stroke: #000000; stroke-width: 0.6"/>
      </g>
     </g>
    </g>
    <g id="ytick_52">
     <g id="line2d_115">
      <path d="M 51.378125 78.221111 
L 491.996875 78.221111 
" clip-path="url(#p5cfa50b01a)" style="fill: none; stroke-dasharray: 2.96,1.28; stroke-dashoffset: 0; stroke: #e6e6e6; stroke-width: 0.8"/>
     </g>
     <g id="line2d_116">
      <g>
       <use xlink:href="#m836e58db4c" x="51.378125" y="78.221111" style="stroke: #000000; stroke-width: 0.6"/>
      </g>
     </g>
    </g>
    <g id="ytick_53">
     <g id="line2d_117">
      <path d="M 51.378125 76.41206 
L 491.996875 76.41206 
" clip-path="url(#p5cfa50b01a)" style="fill: none; stroke-dasharray: 2.96,1.28; stroke-dashoffset: 0; stroke: #e6e6e6; stroke-width: 0.8"/>
     </g>
     <g id="line2d_118">
      <g>
       <use xlink:href="#m836e58db4c" x="51.378125" y="76.41206" style="stroke: #000000; stroke-width: 0.6"/>
      </g>
     </g>
    </g>
    <g id="ytick_54">
     <g id="line2d_119">
      <path d="M 51.378125 74.816364 
L 491.996875 74.816364 
" clip-path="url(#p5cfa50b01a)" style="fill: none; stroke-dasharray: 2.96,1.28; stroke-dashoffset: 0; stroke: #e6e6e6; stroke-width: 0.8"/>
     </g>
     <g id="line2d_120">
      <g>
       <use xlink:href="#m836e58db4c" x="51.378125" y="74.816364" style="stroke: #000000; stroke-width: 0.6"/>
      </g>
     </g>
    </g>
    <g id="ytick_55">
     <g id="line2d_121">
      <path d="M 51.378125 63.998372 
L 491.996875 63.998372 
" clip-path="url(#p5cfa50b01a)" style="fill: none; stroke-dasharray: 2.96,1.28; stroke-dashoffset: 0; stroke: #e6e6e6; stroke-width: 0.8"/>
     </g>
     <g id="line2d_122">
      <g>
       <use xlink:href="#m836e58db4c" x="51.378125" y="63.998372" style="stroke: #000000; stroke-width: 0.6"/>
      </g>
     </g>
    </g>
    <g id="ytick_56">
     <g id="line2d_123">
      <path d="M 51.378125 58.505228 
L 491.996875 58.505228 
" clip-path="url(#p5cfa50b01a)" style="fill: none; stroke-dasharray: 2.96,1.28; stroke-dashoffset: 0; stroke: #e6e6e6; stroke-width: 0.8"/>
     </g>
     <g id="line2d_124">
      <g>
       <use xlink:href="#m836e58db4c" x="51.378125" y="58.505228" style="stroke: #000000; stroke-width: 0.6"/>
      </g>
     </g>
    </g>
    <g id="ytick_57">
     <g id="line2d_125">
      <path d="M 51.378125 54.60778 
L 491.996875 54.60778 
" clip-path="url(#p5cfa50b01a)" style="fill: none; stroke-dasharray: 2.96,1.28; stroke-dashoffset: 0; stroke: #e6e6e6; stroke-width: 0.8"/>
     </g>
     <g id="line2d_126">
      <g>
       <use xlink:href="#m836e58db4c" x="51.378125" y="54.60778" style="stroke: #000000; stroke-width: 0.6"/>
      </g>
     </g>
    </g>
    <g id="ytick_58">
     <g id="line2d_127">
      <path d="M 51.378125 51.584684 
L 491.996875 51.584684 
" clip-path="url(#p5cfa50b01a)" style="fill: none; stroke-dasharray: 2.96,1.28; stroke-dashoffset: 0; stroke: #e6e6e6; stroke-width: 0.8"/>
     </g>
     <g id="line2d_128">
      <g>
       <use xlink:href="#m836e58db4c" x="51.378125" y="51.584684" style="stroke: #000000; stroke-width: 0.6"/>
      </g>
     </g>
    </g>
    <g id="ytick_59">
     <g id="line2d_129">
      <path d="M 51.378125 49.114635 
L 491.996875 49.114635 
" clip-path="url(#p5cfa50b01a)" style="fill: none; stroke-dasharray: 2.96,1.28; stroke-dashoffset: 0; stroke: #e6e6e6; stroke-width: 0.8"/>
     </g>
     <g id="line2d_130">
      <g>
       <use xlink:href="#m836e58db4c" x="51.378125" y="49.114635" style="stroke: #000000; stroke-width: 0.6"/>
      </g>
     </g>
    </g>
    <g id="ytick_60">
     <g id="line2d_131">
      <path d="M 51.378125 47.026239 
L 491.996875 47.026239 
" clip-path="url(#p5cfa50b01a)" style="fill: none; stroke-dasharray: 2.96,1.28; stroke-dashoffset: 0; stroke: #e6e6e6; stroke-width: 0.8"/>
     </g>
     <g id="line2d_132">
      <g>
       <use xlink:href="#m836e58db4c" x="51.378125" y="47.026239" style="stroke: #000000; stroke-width: 0.6"/>
      </g>
     </g>
    </g>
    <g id="ytick_61">
     <g id="line2d_133">
      <path d="M 51.378125 45.217187 
L 491.996875 45.217187 
" clip-path="url(#p5cfa50b01a)" style="fill: none; stroke-dasharray: 2.96,1.28; stroke-dashoffset: 0; stroke: #e6e6e6; stroke-width: 0.8"/>
     </g>
     <g id="line2d_134">
      <g>
       <use xlink:href="#m836e58db4c" x="51.378125" y="45.217187" style="stroke: #000000; stroke-width: 0.6"/>
      </g>
     </g>
    </g>
    <g id="ytick_62">
     <g id="line2d_135">
      <path d="M 51.378125 43.621491 
L 491.996875 43.621491 
" clip-path="url(#p5cfa50b01a)" style="fill: none; stroke-dasharray: 2.96,1.28; stroke-dashoffset: 0; stroke: #e6e6e6; stroke-width: 0.8"/>
     </g>
     <g id="line2d_136">
      <g>
       <use xlink:href="#m836e58db4c" x="51.378125" y="43.621491" style="stroke: #000000; stroke-width: 0.6"/>
      </g>
     </g>
    </g>
    <g id="ytick_63">
     <g id="line2d_137">
      <path d="M 51.378125 32.803499 
L 491.996875 32.803499 
" clip-path="url(#p5cfa50b01a)" style="fill: none; stroke-dasharray: 2.96,1.28; stroke-dashoffset: 0; stroke: #e6e6e6; stroke-width: 0.8"/>
     </g>
     <g id="line2d_138">
      <g>
       <use xlink:href="#m836e58db4c" x="51.378125" y="32.803499" style="stroke: #000000; stroke-width: 0.6"/>
      </g>
     </g>
    </g>
    <g id="ytick_64">
     <g id="line2d_139">
      <path d="M 51.378125 27.310355 
L 491.996875 27.310355 
" clip-path="url(#p5cfa50b01a)" style="fill: none; stroke-dasharray: 2.96,1.28; stroke-dashoffset: 0; stroke: #e6e6e6; stroke-width: 0.8"/>
     </g>
     <g id="line2d_140">
      <g>
       <use xlink:href="#m836e58db4c" x="51.378125" y="27.310355" style="stroke: #000000; stroke-width: 0.6"/>
      </g>
     </g>
    </g>
    <g id="ytick_65">
     <g id="line2d_141">
      <path d="M 51.378125 23.412907 
L 491.996875 23.412907 
" clip-path="url(#p5cfa50b01a)" style="fill: none; stroke-dasharray: 2.96,1.28; stroke-dashoffset: 0; stroke: #e6e6e6; stroke-width: 0.8"/>
     </g>
     <g id="line2d_142">
      <g>
       <use xlink:href="#m836e58db4c" x="51.378125" y="23.412907" style="stroke: #000000; stroke-width: 0.6"/>
      </g>
     </g>
    </g>
    <g id="ytick_66">
     <g id="line2d_143">
      <path d="M 51.378125 20.389811 
L 491.996875 20.389811 
" clip-path="url(#p5cfa50b01a)" style="fill: none; stroke-dasharray: 2.96,1.28; stroke-dashoffset: 0; stroke: #e6e6e6; stroke-width: 0.8"/>
     </g>
     <g id="line2d_144">
      <g>
       <use xlink:href="#m836e58db4c" x="51.378125" y="20.389811" style="stroke: #000000; stroke-width: 0.6"/>
      </g>
     </g>
    </g>
    <g id="ytick_67">
     <g id="line2d_145">
      <path d="M 51.378125 17.919762 
L 491.996875 17.919762 
" clip-path="url(#p5cfa50b01a)" style="fill: none; stroke-dasharray: 2.96,1.28; stroke-dashoffset: 0; stroke: #e6e6e6; stroke-width: 0.8"/>
     </g>
     <g id="line2d_146">
      <g>
       <use xlink:href="#m836e58db4c" x="51.378125" y="17.919762" style="stroke: #000000; stroke-width: 0.6"/>
      </g>
     </g>
    </g>
    <g id="ytick_68">
     <g id="line2d_147">
      <path d="M 51.378125 15.831366 
L 491.996875 15.831366 
" clip-path="url(#p5cfa50b01a)" style="fill: none; stroke-dasharray: 2.96,1.28; stroke-dashoffset: 0; stroke: #e6e6e6; stroke-width: 0.8"/>
     </g>
     <g id="line2d_148">
      <g>
       <use xlink:href="#m836e58db4c" x="51.378125" y="15.831366" style="stroke: #000000; stroke-width: 0.6"/>
      </g>
     </g>
    </g>
    <g id="ytick_69">
     <g id="line2d_149">
      <path d="M 51.378125 14.022314 
L 491.996875 14.022314 
" clip-path="url(#p5cfa50b01a)" style="fill: none; stroke-dasharray: 2.96,1.28; stroke-dashoffset: 0; stroke: #e6e6e6; stroke-width: 0.8"/>
     </g>
     <g id="line2d_150">
      <g>
       <use xlink:href="#m836e58db4c" x="51.378125" y="14.022314" style="stroke: #000000; stroke-width: 0.6"/>
      </g>
     </g>
    </g>
    <g id="ytick_70">
     <g id="line2d_151">
      <path d="M 51.378125 12.426618 
L 491.996875 12.426618 
" clip-path="url(#p5cfa50b01a)" style="fill: none; stroke-dasharray: 2.96,1.28; stroke-dashoffset: 0; stroke: #e6e6e6; stroke-width: 0.8"/>
     </g>
     <g id="line2d_152">
      <g>
       <use xlink:href="#m836e58db4c" x="51.378125" y="12.426618" style="stroke: #000000; stroke-width: 0.6"/>
      </g>
     </g>
    </g>
    <g id="text_16">
     <!-- $I_{D}/W\ (A/m)$ -->
     <g transform="translate(14.798438 152.236943) rotate(-90) scale(0.1 -0.1)">
      <defs>
       <path id="DejaVuSans-Oblique-57" d="M 616 4666 
L 1228 4666 
L 1453 697 
L 3213 4666 
L 3916 4666 
L 4147 697 
L 5888 4666 
L 6528 4666 
L 4453 0 
L 3659 0 
L 3444 3891 
L 1697 0 
L 903 0 
L 616 4666 
z
" transform="scale(0.015625)"/>
      </defs>
      <use xlink:href="#DejaVuSans-Oblique-49" transform="translate(0 0.125)"/>
      <use xlink:href="#DejaVuSans-Oblique-44" transform="translate(29.492188 -16.28125) scale(0.7)"/>
      <use xlink:href="#DejaVuSans-2f" transform="translate(86.12793 0.125)"/>
      <use xlink:href="#DejaVuSans-Oblique-57" transform="translate(119.819336 0.125)"/>
      <use xlink:href="#DejaVuSans-28" transform="translate(251.166667 0.125)"/>
      <use xlink:href="#DejaVuSans-Oblique-41" transform="translate(290.180339 0.125)"/>
      <use xlink:href="#DejaVuSans-2f" transform="translate(358.588542 0.125)"/>
      <use xlink:href="#DejaVuSans-Oblique-6d" transform="translate(392.279949 0.125)"/>
      <use xlink:href="#DejaVuSans-29" transform="translate(489.692058 0.125)"/>
     </g>
    </g>
   </g>
   <g id="line2d_153">
    <path d="M 427.220637 188.530823 
L 426.249386 184.689632 
L 425.134142 180.859055 
L 423.830026 177.040735 
L 422.327964 173.236771 
L 420.628262 169.449124 
L 418.709885 165.679918 
L 416.550887 161.931509 
L 414.128486 158.206464 
L 411.420406 154.507605 
L 408.404879 150.837961 
L 405.062189 147.200786 
L 401.375104 143.599532 
L 397.331154 140.037793 
L 392.923018 136.519281 
L 388.150592 133.047753 
L 383.021429 129.626926 
L 377.552432 126.260396 
L 371.770438 122.951567 
L 365.711736 119.703499 
L 359.421841 116.51886 
L 352.953894 113.399816 
L 346.36641 110.347971 
L 339.720766 107.364319 
L 333.077048 104.449247 
L 326.491591 101.602555 
L 320.012772 98.823518 
L 313.678098 96.110968 
L 307.512429 93.463458 
L 301.525926 90.879348 
L 295.714586 88.356994 
L 290.060695 85.89487 
L 284.535009 83.491699 
L 279.099792 81.146551 
L 273.712345 78.858913 
L 268.329004 76.628702 
L 262.908638 74.456257 
L 257.416821 72.342275 
L 251.827767 70.287723 
L 246.126892 68.293733 
L 240.311497 66.361486 
L 234.389629 64.492051 
L 228.379799 62.68634 
L 222.308452 60.944952 
L 216.207886 59.268155 
L 210.11382 57.65583 
L 204.062607 56.107445 
L 198.089687 54.622094 
L 192.227803 53.198512 
L 186.505781 51.835116 
L 180.947998 50.530065 
L 175.573894 49.281306 
L 170.398229 48.086637 
L 165.431216 46.943745 
L 160.678975 45.850271 
L 156.144065 44.80383 
L 151.825987 43.80205 
L 147.721794 42.842606 
L 143.826557 41.923233 
L 140.133839 41.041748 
L 136.636126 40.196057 
L 133.325152 39.384161 
L 130.192121 38.604164 
L 127.228032 37.854261 
L 124.423799 37.132758 
L 121.770559 36.438077 
L 119.259538 35.768717 
L 116.882239 35.123271 
L 114.630547 34.50043 
L 112.496688 33.89896 
L 110.473383 33.317729 
L 108.553612 32.755651 
L 106.730856 32.211726 
L 104.998969 31.685018 
L 103.352231 31.174655 
L 101.78525 30.67982 
L 100.293002 30.199741 
L 98.870812 29.733707 
L 97.514365 29.281056 
L 96.219552 28.84115 
L 94.98261 28.413405 
L 93.800059 27.997275 
L 92.668618 27.592242 
L 91.585245 27.197821 
L 90.547114 26.813553 
L 89.551594 26.439012 
L 88.596251 26.073798 
L 87.678791 25.717528 
L 86.797098 25.369848 
L 85.949173 25.030414 
L 85.133188 24.698914 
L 84.347404 24.375043 
L 83.590218 24.05852 
L 82.860123 23.749075 
L 82.155702 23.446451 
L 81.475648 23.150411 
L 80.818714 22.860724 
L 80.183756 22.577175 
L 79.569669 22.299551 
L 78.975444 22.027665 
L 78.400121 21.761328 
L 77.842797 21.500362 
L 77.302623 21.244599 
L 76.778801 20.99388 
L 76.270575 20.748051 
L 75.777241 20.506967 
L 75.298113 20.270489 
L 74.832573 20.038485 
L 74.380012 19.810827 
L 73.939861 19.587395 
L 73.511585 19.368073 
L 73.094672 19.152752 
" clip-path="url(#p5cfa50b01a)" style="fill: none; stroke: #1f77b4; stroke-width: 1.5; stroke-linecap: square"/>
   </g>
   <g id="line2d_154">
    <path d="M 466.188226 213.307206 
L 465.615703 209.066922 
L 464.9001 204.8331 
L 464.033713 200.60726 
L 463.005164 196.391022 
L 461.749983 192.186343 
L 460.291408 187.995494 
L 458.61203 183.82061 
L 456.686202 179.664079 
L 454.486074 175.528558 
L 451.982934 171.417003 
L 449.146549 167.332658 
L 445.947902 163.279089 
L 442.359371 159.260126 
L 438.357793 155.279886 
L 433.925733 151.342697 
L 429.053182 147.453011 
L 423.741076 143.615356 
L 418.00191 139.834177 
L 411.862875 136.113737 
L 405.364746 132.457953 
L 398.561805 128.870256 
L 391.520296 125.35348 
L 384.313406 121.909738 
L 377.016503 118.540394 
L 369.701125 115.246073 
L 362.427535 112.026727 
L 355.239272 108.88178 
L 348.159218 105.810335 
L 341.186639 102.811383 
L 334.299589 99.884073 
L 327.456482 97.027836 
L 320.604961 94.242656 
L 313.687272 91.529041 
L 306.64959 88.888102 
L 299.448504 86.321414 
L 292.057075 83.830914 
L 284.467599 81.418681 
L 276.692368 79.08674 
L 268.761741 76.836858 
L 260.72108 74.670373 
L 252.625807 72.588065 
L 244.536577 70.590081 
L 236.515163 68.675924 
L 228.619748 66.844441 
L 220.902778 65.093899 
L 213.408943 63.42208 
L 206.173696 61.826324 
L 199.224089 60.303688 
L 192.578382 58.850987 
L 186.247332 57.464903 
L 180.235006 56.142061 
L 174.540162 54.879089 
L 169.157049 53.672663 
L 164.076656 52.519551 
L 159.28748 51.416635 
L 154.776379 50.360947 
L 150.529118 49.349659 
L 146.531063 48.380108 
L 142.767331 47.449787 
L 139.223256 46.556351 
L 135.884576 45.697606 
L 132.737589 44.871509 
L 129.769179 44.076158 
L 126.96703 43.309785 
L 124.31953 42.570744 
L 121.815845 41.857514 
L 119.445781 41.168663 
L 117.200076 40.502899 
L 115.069981 39.858993 
L 113.047366 39.23579 
L 111.124947 38.632267 
L 109.295729 38.047411 
L 107.553471 37.480334 
L 105.89225 36.930161 
L 104.306788 36.396119 
L 102.792084 35.87746 
L 101.343561 35.373488 
L 99.957026 34.883567 
L 98.628528 34.407075 
L 97.354508 33.943452 
L 96.131644 33.49217 
L 94.956857 33.052726 
L 93.827289 32.624655 
L 92.740314 32.207512 
L 91.693461 31.80088 
L 90.684444 31.404363 
L 89.711201 31.017609 
L 88.771715 30.640255 
L 87.864164 30.271975 
L 86.986839 29.912464 
L 86.138131 29.561418 
L 85.316561 29.218571 
L 84.520717 28.883648 
L 83.749298 28.556409 
L 83.001065 28.236609 
L 82.274863 27.924026 
L 81.569609 27.618448 
L 80.884277 27.319669 
L 80.217904 27.027497 
L 79.569587 26.741749 
L 78.938473 26.462256 
L 78.323744 26.188843 
L 77.724647 25.921358 
L 77.140448 25.659648 
L 76.570472 25.403568 
L 76.014073 25.152982 
L 75.47065 24.907764 
L 74.939629 24.667786 
L 74.420457 24.432928 
L 73.912629 24.203074 
L 73.415679 23.978123 
" clip-path="url(#p5cfa50b01a)" style="fill: none; stroke: #ff7f0e; stroke-width: 1.5; stroke-linecap: square"/>
   </g>
   <g id="line2d_155">
    <path d="M 471.96875 224.234396 
L 471.308849 219.936017 
L 470.426674 215.645268 
L 469.324202 211.36446 
L 467.994364 207.095928 
L 466.424108 202.842082 
L 464.585608 198.605497 
L 462.423037 194.389299 
L 459.957555 190.196639 
L 457.166404 186.030747 
L 454.027843 181.895062 
L 450.523599 177.793227 
L 446.64242 173.729044 
L 442.379999 169.706389 
L 437.743659 165.729139 
L 432.752001 161.801011 
L 427.437335 157.925497 
L 421.843783 154.105676 
L 416.025373 150.34414 
L 410.040188 146.642896 
L 403.943626 143.003377 
L 397.779426 139.426497 
L 391.571183 135.912832 
L 385.314815 132.462853 
L 378.976187 129.07722 
L 372.493542 125.757119 
L 365.785101 122.504457 
L 358.761914 119.322032 
L 351.343294 116.213526 
L 343.470015 113.183341 
L 335.11547 110.236327 
L 326.289312 107.377409 
L 317.037412 104.611224 
L 307.436505 101.941767 
L 297.584485 99.372129 
L 287.591158 96.904301 
L 277.569221 94.539151 
L 267.626047 92.276394 
L 257.857629 90.114691 
L 248.34557 88.051796 
L 239.155441 86.084713 
L 230.336151 84.209849 
L 221.921647 82.423197 
L 213.932049 80.720471 
L 206.376165 79.09725 
L 199.253334 77.549067 
L 192.555536 76.071513 
L 186.269252 74.660283 
L 180.377135 73.311247 
L 174.859127 72.020453 
L 169.693776 70.784177 
L 164.85906 69.598927 
L 160.332856 68.461431 
L 156.093286 67.368627 
L 152.119477 66.317693 
L 148.391769 65.306021 
L 144.891098 64.331176 
L 141.600156 63.390943 
L 138.502509 62.483244 
L 135.583078 61.606198 
L 132.827983 60.758046 
L 130.224413 59.937178 
L 127.76054 59.1421 
L 125.425784 58.371452 
L 123.210172 57.62395 
L 121.104867 56.898437 
L 119.101544 56.193817 
L 117.192759 55.509099 
L 115.371625 54.843338 
L 113.631952 54.195682 
L 111.967918 53.565323 
L 110.374366 52.951519 
L 108.84638 52.353569 
L 107.379594 51.770827 
L 105.969929 51.202691 
L 104.61364 50.648596 
L 103.307256 50.108011 
L 102.047551 49.580443 
L 100.831567 49.065436 
L 99.656504 48.562549 
L 98.519793 48.071379 
L 97.418962 47.591547 
L 96.35176 47.122701 
L 95.315976 46.664502 
L 94.309582 46.216644 
L 93.330585 45.778835 
L 92.377114 45.350803 
L 91.447319 44.932296 
L 90.539451 44.523083 
L 89.651783 44.122946 
L 88.782682 43.731691 
L 87.930502 43.349131 
L 87.093724 42.975104 
L 86.270846 42.609458 
L 85.460506 42.25206 
L 84.66143 41.902784 
L 83.872545 41.561535 
L 83.092885 41.228191 
L 82.321789 40.90268 
L 81.558797 40.584902 
L 80.803753 40.274785 
L 80.056745 39.972239 
L 79.318142 39.677204 
L 78.588455 39.389557 
L 77.868478 39.109229 
L 77.158988 38.836097 
L 76.460884 38.570061 
L 75.77505 38.311002 
L 75.102256 38.058789 
L 74.44318 37.813276 
L 73.798385 37.574316 
L 73.168339 37.341783 
" clip-path="url(#p5cfa50b01a)" style="fill: none; stroke: #2ca02c; stroke-width: 1.5; stroke-linecap: square"/>
   </g>
   <g id="line2d_156">
    <path d="M 471.112753 228.399283 
L 470.278753 224.110848 
L 469.158669 219.832051 
L 467.760281 215.565859 
L 466.080523 211.315179 
L 464.105355 207.082978 
L 461.775679 202.872648 
L 459.125506 198.687629 
L 456.13935 194.531295 
L 452.804744 190.407137 
L 449.115885 186.318769 
L 445.074191 182.269807 
L 440.691979 178.263801 
L 435.993171 174.304119 
L 431.014285 170.393819 
L 425.801266 166.535536 
L 420.4068 162.731395 
L 414.882405 158.982984 
L 409.270075 155.291413 
L 403.591602 151.657457 
L 397.839588 148.08181 
L 391.972166 144.565417 
L 385.912882 141.10983 
L 379.559708 137.717531 
L 372.798987 134.39211 
L 365.524435 131.138297 
L 357.655946 127.961792 
L 349.154494 124.868906 
L 340.028948 121.866111 
L 330.336176 118.959538 
L 320.172578 116.154512 
L 309.663571 113.455226 
L 298.948788 110.864494 
L 288.170752 108.383681 
L 277.463039 106.012738 
L 266.944427 103.750312 
L 256.713813 101.593937 
L 246.849008 99.54025 
L 237.407107 97.585189 
L 228.425985 95.724217 
L 219.927232 93.952504 
L 211.918564 92.26506 
L 204.396599 90.65688 
L 197.349946 89.123049 
L 190.760878 87.658784 
L 184.607588 86.25952 
L 178.865875 84.920931 
L 173.509941 83.638937 
L 168.513645 82.409735 
L 163.85119 81.229786 
L 159.497551 80.095804 
L 155.428804 79.004764 
L 151.622391 77.953874 
L 148.05718 76.940561 
L 144.713546 75.962469 
L 141.573395 75.01743 
L 138.620012 74.103449 
L 135.838144 73.218701 
L 133.21387 72.361514 
L 130.734462 71.530348 
L 128.388169 70.723761 
L 126.164593 69.940476 
L 124.0541 69.179285 
L 122.047862 68.439066 
L 120.138019 67.718811 
L 118.317335 67.017573 
L 116.579119 66.334463 
L 114.917461 65.668687 
L 113.326798 65.019478 
L 111.802093 64.386139 
L 110.338786 63.76803 
L 108.932605 63.164541 
L 107.579643 62.575108 
L 106.276255 61.999204 
L 105.019065 61.436341 
L 103.804995 60.886068 
L 102.631018 60.347956 
L 101.494348 59.82161 
L 100.392336 59.306659 
L 99.322384 58.802768 
L 98.282004 58.30962 
L 97.26878 57.826925 
L 96.280214 57.354415 
L 95.313949 56.891855 
L 94.367459 56.439025 
L 93.438275 55.995736 
L 92.523948 55.561825 
L 91.621823 55.137149 
L 90.729442 54.721597 
L 89.844331 54.315084 
L 88.96419 53.917544 
L 88.087052 53.528938 
L 87.211307 53.149241 
L 86.335848 52.778441 
L 85.46031 52.416542 
L 84.584977 52.06354 
L 83.710868 51.719426 
L 82.83959 51.384177 
L 81.973282 51.057759 
L 81.11434 50.7401 
L 80.26529 50.431117 
L 79.428502 50.130692 
L 78.606201 49.838686 
L 77.80027 49.554946 
L 77.012218 49.27929 
L 76.243163 49.011533 
L 75.493908 48.751474 
L 74.764924 48.498907 
L 74.056385 48.253625 
L 73.368309 48.015419 
L 72.700481 47.784078 
L 72.052578 47.5594 
" clip-path="url(#p5cfa50b01a)" style="fill: none; stroke: #d62728; stroke-width: 1.5; stroke-linecap: square"/>
   </g>
   <g id="line2d_157">
    <path d="M 469.383654 232.421135 
L 468.468611 228.151328 
L 467.206664 223.892158 
L 465.616691 219.647211 
L 463.69948 215.419865 
L 461.407361 211.213818 
L 458.783721 207.03269 
L 455.821361 202.879937 
L 452.515543 198.759063 
L 448.867307 194.673591 
L 444.885825 190.62699 
L 440.590485 186.622572 
L 436.012482 182.663407 
L 431.193249 178.752175 
L 426.182407 174.891095 
L 421.031197 171.081864 
L 415.784271 167.325684 
L 410.468845 163.623372 
L 405.084566 159.975621 
L 399.594561 156.383279 
L 393.923513 152.847795 
L 387.96253 149.371553 
L 381.582849 145.958165 
L 374.655632 142.612575 
L 367.075051 139.340949 
L 358.776156 136.150331 
L 349.748101 133.048163 
L 340.036044 130.041701 
L 329.735549 127.137476 
L 318.979712 124.340846 
L 307.923296 121.655674 
L 296.728006 119.084201 
L 285.54891 116.627038 
L 274.525312 114.283291 
L 263.774771 112.050744 
L 253.390737 109.926109 
L 243.44252 107.905266 
L 233.977495 105.983505 
L 225.02345 104.155735 
L 216.591865 102.416656 
L 208.681575 100.760943 
L 201.281365 99.183315 
L 194.3728 97.678654 
L 187.932767 96.242061 
L 181.934873 94.868882 
L 176.351103 93.554746 
L 171.152972 92.295578 
L 166.312199 91.087582 
L 161.801403 89.927253 
L 157.594467 88.81136 
L 153.666672 87.736932 
L 149.994995 86.701235 
L 146.558109 85.701772 
L 143.3363 84.736252 
L 140.311472 83.802566 
L 137.467111 82.898798 
L 134.788162 82.023181 
L 132.260877 81.174102 
L 129.87282 80.350077 
L 127.612702 79.549743 
L 125.470208 78.77185 
L 123.436063 78.015246 
L 121.501815 77.278871 
L 119.659793 76.561743 
L 117.903046 75.86296 
L 116.225214 75.181683 
L 114.62053 74.517138 
L 113.083738 73.868607 
L 111.610021 73.23542 
L 110.194958 72.616957 
L 108.834507 72.012641 
L 107.524885 71.421932 
L 106.26264 70.844325 
L 105.044578 70.279365 
L 103.867665 69.726616 
L 102.728993 69.185663 
L 101.625866 68.656125 
L 100.555699 68.137671 
L 99.515933 67.629965 
L 98.504077 67.132709 
L 97.517672 66.645639 
L 96.554188 66.168498 
L 95.611091 65.70107 
L 94.685772 65.243157 
L 93.775553 64.794597 
L 92.877603 64.35524 
L 91.989134 63.924987 
L 91.10721 63.503739 
L 90.229093 63.091457 
L 89.352141 62.688111 
L 88.474088 62.293697 
L 87.593209 61.908241 
L 86.708449 61.531772 
L 85.8196 61.164335 
L 84.927323 60.805961 
L 84.033206 60.456685 
L 83.139514 60.116508 
L 82.249077 59.785412 
L 81.36497 59.463346 
L 80.490332 59.15023 
L 79.628104 58.845958 
L 78.78086 58.550376 
L 77.950788 58.263332 
L 77.139573 57.98463 
L 76.348476 57.714081 
L 75.578315 57.451464 
L 74.82959 57.196572 
L 74.102462 56.949177 
L 73.39688 56.709062 
L 72.712596 56.476013 
L 72.04921 56.249802 
L 71.40625 56.030231 
" clip-path="url(#p5cfa50b01a)" style="fill: none; stroke: #9467bd; stroke-width: 1.5; stroke-linecap: square"/>
   </g>
   <g id="patch_3">
    <path d="M 51.378125 243.084554 
L 51.378125 8.489333 
" style="fill: none; stroke: #000000; stroke-width: 0.8; stroke-linejoin: miter; stroke-linecap: square"/>
   </g>
   <g id="patch_4">
    <path d="M 491.996875 243.084554 
L 491.996875 8.489333 
" style="fill: none; stroke: #000000; stroke-width: 0.8; stroke-linejoin: miter; stroke-linecap: square"/>
   </g>
   <g id="patch_5">
    <path d="M 51.378125 243.084554 
L 491.996875 243.084554 
" style="fill: none; stroke: #000000; stroke-width: 0.8; stroke-linejoin: miter; stroke-linecap: square"/>
   </g>
   <g id="patch_6">
    <path d="M 51.378125 8.489333 
L 491.996875 8.489333 
" style="fill: none; stroke: #000000; stroke-width: 0.8; stroke-linejoin: miter; stroke-linecap: square"/>
   </g>
   <g id="legend_1">
    <g id="patch_7">
     <path d="M 498.996875 172.289131 
L 559.6 172.289131 
Q 561.6 172.289131 561.6 170.289131 
L 561.6 81.284756 
Q 561.6 79.284756 559.6 79.284756 
L 498.996875 79.284756 
Q 496.996875 79.284756 496.996875 81.284756 
L 496.996875 170.289131 
Q 496.996875 172.289131 498.996875 172.289131 
z
" style="fill: #ffffff; opacity: 0.8; stroke: #cccccc; stroke-linejoin: miter"/>
    </g>
    <g id="text_17">
     <!-- Length -->
     <g transform="translate(508.602188 92.402881) scale(0.12 -0.12)">
      <defs>
       <path id="DejaVuSans-4c" d="M 628 4666 
L 1259 4666 
L 1259 531 
L 3531 531 
L 3531 0 
L 628 0 
L 628 4666 
z
" transform="scale(0.015625)"/>
       <path id="DejaVuSans-65" d="M 3597 1894 
L 3597 1613 
L 953 1613 
Q 991 1019 1311 708 
Q 1631 397 2203 397 
Q 2534 397 2845 478 
Q 3156 559 3463 722 
L 3463 178 
Q 3153 47 2828 -22 
Q 2503 -91 2169 -91 
Q 1331 -91 842 396 
Q 353 884 353 1716 
Q 353 2575 817 3079 
Q 1281 3584 2069 3584 
Q 2775 3584 3186 3129 
Q 3597 2675 3597 1894 
z
M 3022 2063 
Q 3016 2534 2758 2815 
Q 2500 3097 2075 3097 
Q 1594 3097 1305 2825 
Q 1016 2553 972 2059 
L 3022 2063 
z
" transform="scale(0.015625)"/>
       <path id="DejaVuSans-6e" d="M 3513 2113 
L 3513 0 
L 2938 0 
L 2938 2094 
Q 2938 2591 2744 2837 
Q 2550 3084 2163 3084 
Q 1697 3084 1428 2787 
Q 1159 2491 1159 1978 
L 1159 0 
L 581 0 
L 581 3500 
L 1159 3500 
L 1159 2956 
Q 1366 3272 1645 3428 
Q 1925 3584 2291 3584 
Q 2894 3584 3203 3211 
Q 3513 2838 3513 2113 
z
" transform="scale(0.015625)"/>
       <path id="DejaVuSans-67" d="M 2906 1791 
Q 2906 2416 2648 2759 
Q 2391 3103 1925 3103 
Q 1463 3103 1205 2759 
Q 947 2416 947 1791 
Q 947 1169 1205 825 
Q 1463 481 1925 481 
Q 2391 481 2648 825 
Q 2906 1169 2906 1791 
z
M 3481 434 
Q 3481 -459 3084 -895 
Q 2688 -1331 1869 -1331 
Q 1566 -1331 1297 -1286 
Q 1028 -1241 775 -1147 
L 775 -588 
Q 1028 -725 1275 -790 
Q 1522 -856 1778 -856 
Q 2344 -856 2625 -561 
Q 2906 -266 2906 331 
L 2906 616 
Q 2728 306 2450 153 
Q 2172 0 1784 0 
Q 1141 0 747 490 
Q 353 981 353 1791 
Q 353 2603 747 3093 
Q 1141 3584 1784 3584 
Q 2172 3584 2450 3431 
Q 2728 3278 2906 2969 
L 2906 3500 
L 3481 3500 
L 3481 434 
z
" transform="scale(0.015625)"/>
       <path id="DejaVuSans-74" d="M 1172 4494 
L 1172 3500 
L 2356 3500 
L 2356 3053 
L 1172 3053 
L 1172 1153 
Q 1172 725 1289 603 
Q 1406 481 1766 481 
L 2356 481 
L 2356 0 
L 1766 0 
Q 1100 0 847 248 
Q 594 497 594 1153 
L 594 3053 
L 172 3053 
L 172 3500 
L 594 3500 
L 594 4494 
L 1172 4494 
z
" transform="scale(0.015625)"/>
       <path id="DejaVuSans-68" d="M 3513 2113 
L 3513 0 
L 2938 0 
L 2938 2094 
Q 2938 2591 2744 2837 
Q 2550 3084 2163 3084 
Q 1697 3084 1428 2787 
Q 1159 2491 1159 1978 
L 1159 0 
L 581 0 
L 581 4863 
L 1159 4863 
L 1159 2956 
Q 1366 3272 1645 3428 
Q 1925 3584 2291 3584 
Q 2894 3584 3203 3211 
Q 3513 2838 3513 2113 
z
" transform="scale(0.015625)"/>
      </defs>
      <use xlink:href="#DejaVuSans-4c"/>
      <use xlink:href="#DejaVuSans-65" transform="translate(53.962891 0)"/>
      <use xlink:href="#DejaVuSans-6e" transform="translate(115.486328 0)"/>
      <use xlink:href="#DejaVuSans-67" transform="translate(178.865234 0)"/>
      <use xlink:href="#DejaVuSans-74" transform="translate(242.341797 0)"/>
      <use xlink:href="#DejaVuSans-68" transform="translate(281.550781 0)"/>
     </g>
    </g>
    <g id="line2d_158">
     <path d="M 500.996875 103.996943 
L 510.996875 103.996943 
L 520.996875 103.996943 
" style="fill: none; stroke: #1f77b4; stroke-width: 1.5; stroke-linecap: square"/>
    </g>
    <g id="text_18">
     <!-- 65 n -->
     <g transform="translate(528.996875 107.496943) scale(0.1 -0.1)">
      <defs>
       <path id="DejaVuSans-36" d="M 2113 2584 
Q 1688 2584 1439 2293 
Q 1191 2003 1191 1497 
Q 1191 994 1439 701 
Q 1688 409 2113 409 
Q 2538 409 2786 701 
Q 3034 994 3034 1497 
Q 3034 2003 2786 2293 
Q 2538 2584 2113 2584 
z
M 3366 4563 
L 3366 3988 
Q 3128 4100 2886 4159 
Q 2644 4219 2406 4219 
Q 1781 4219 1451 3797 
Q 1122 3375 1075 2522 
Q 1259 2794 1537 2939 
Q 1816 3084 2150 3084 
Q 2853 3084 3261 2657 
Q 3669 2231 3669 1497 
Q 3669 778 3244 343 
Q 2819 -91 2113 -91 
Q 1303 -91 875 529 
Q 447 1150 447 2328 
Q 447 3434 972 4092 
Q 1497 4750 2381 4750 
Q 2619 4750 2861 4703 
Q 3103 4656 3366 4563 
z
" transform="scale(0.015625)"/>
       <path id="DejaVuSans-20" transform="scale(0.015625)"/>
      </defs>
      <use xlink:href="#DejaVuSans-36"/>
      <use xlink:href="#DejaVuSans-35" transform="translate(63.623047 0)"/>
      <use xlink:href="#DejaVuSans-20" transform="translate(127.246094 0)"/>
      <use xlink:href="#DejaVuSans-6e" transform="translate(159.033203 0)"/>
     </g>
    </g>
    <g id="line2d_159">
     <path d="M 500.996875 118.675068 
L 510.996875 118.675068 
L 520.996875 118.675068 
" style="fill: none; stroke: #ff7f0e; stroke-width: 1.5; stroke-linecap: square"/>
    </g>
    <g id="text_19">
     <!-- 150 n -->
     <g transform="translate(528.996875 122.175068) scale(0.1 -0.1)">
      <use xlink:href="#DejaVuSans-31"/>
      <use xlink:href="#DejaVuSans-35" transform="translate(63.623047 0)"/>
      <use xlink:href="#DejaVuSans-30" transform="translate(127.246094 0)"/>
      <use xlink:href="#DejaVuSans-20" transform="translate(190.869141 0)"/>
      <use xlink:href="#DejaVuSans-6e" transform="translate(222.65625 0)"/>
     </g>
    </g>
    <g id="line2d_160">
     <path d="M 500.996875 133.353193 
L 510.996875 133.353193 
L 520.996875 133.353193 
" style="fill: none; stroke: #2ca02c; stroke-width: 1.5; stroke-linecap: square"/>
    </g>
    <g id="text_20">
     <!-- 600 n -->
     <g transform="translate(528.996875 136.853193) scale(0.1 -0.1)">
      <use xlink:href="#DejaVuSans-36"/>
      <use xlink:href="#DejaVuSans-30" transform="translate(63.623047 0)"/>
      <use xlink:href="#DejaVuSans-30" transform="translate(127.246094 0)"/>
      <use xlink:href="#DejaVuSans-20" transform="translate(190.869141 0)"/>
      <use xlink:href="#DejaVuSans-6e" transform="translate(222.65625 0)"/>
     </g>
    </g>
    <g id="line2d_161">
     <path d="M 500.996875 148.031318 
L 510.996875 148.031318 
L 520.996875 148.031318 
" style="fill: none; stroke: #d62728; stroke-width: 1.5; stroke-linecap: square"/>
    </g>
    <g id="text_21">
     <!-- 1.5  -->
     <g transform="translate(528.996875 151.531318) scale(0.1 -0.1)">
      <defs>
       <path id="DejaVuSans-2e" d="M 684 794 
L 1344 794 
L 1344 0 
L 684 0 
L 684 794 
z
" transform="scale(0.015625)"/>
       <path id="DejaVuSans-b5" d="M 544 -1331 
L 544 3500 
L 1119 3500 
L 1119 1325 
Q 1119 872 1334 640 
Q 1550 409 1972 409 
Q 2434 409 2667 671 
Q 2900 934 2900 1459 
L 2900 3500 
L 3475 3500 
L 3475 806 
Q 3475 619 3529 530 
Q 3584 441 3700 441 
Q 3728 441 3778 458 
Q 3828 475 3916 513 
L 3916 50 
Q 3788 -22 3673 -56 
Q 3559 -91 3450 -91 
Q 3234 -91 3106 31 
Q 2978 153 2931 403 
Q 2775 156 2548 32 
Q 2322 -91 2016 -91 
Q 1697 -91 1473 31 
Q 1250 153 1119 397 
L 1119 -1331 
L 544 -1331 
z
" transform="scale(0.015625)"/>
      </defs>
      <use xlink:href="#DejaVuSans-31"/>
      <use xlink:href="#DejaVuSans-2e" transform="translate(63.623047 0)"/>
      <use xlink:href="#DejaVuSans-35" transform="translate(95.410156 0)"/>
      <use xlink:href="#DejaVuSans-20" transform="translate(159.033203 0)"/>
      <use xlink:href="#DejaVuSans-b5" transform="translate(190.820312 0)"/>
     </g>
    </g>
    <g id="line2d_162">
     <path d="M 500.996875 162.709443 
L 510.996875 162.709443 
L 520.996875 162.709443 
" style="fill: none; stroke: #9467bd; stroke-width: 1.5; stroke-linecap: square"/>
    </g>
    <g id="text_22">
     <!-- 3  -->
     <g transform="translate(528.996875 166.209443) scale(0.1 -0.1)">
      <use xlink:href="#DejaVuSans-33"/>
      <use xlink:href="#DejaVuSans-20" transform="translate(63.623047 0)"/>
      <use xlink:href="#DejaVuSans-b5" transform="translate(95.410156 0)"/>
     </g>
    </g>
   </g>
  </g>
 </g>
 <defs>
  <clipPath id="p5cfa50b01a">
   <rect x="51.378125" y="8.489333" width="440.61875" height="234.59522"/>
  </clipPath>
 </defs>
</svg>
