<?xml version="1.0" encoding="utf-8" standalone="no"?>
<!DOCTYPE svg PUBLIC "-//W3C//DTD SVG 1.1//EN"
  "http://www.w3.org/Graphics/SVG/1.1/DTD/svg11.dtd">
<svg xmlns:xlink="http://www.w3.org/1999/xlink" width="568.8pt" height="280.8pt" viewBox="0 0 568.8 280.8" xmlns="http://www.w3.org/2000/svg" version="1.1">
 <metadata>
  <rdf:RDF xmlns:dc="http://purl.org/dc/elements/1.1/" xmlns:cc="http://creativecommons.org/ns#" xmlns:rdf="http://www.w3.org/1999/02/22-rdf-syntax-ns#">
   <cc:Work>
    <dc:type rdf:resource="http://purl.org/dc/dcmitype/StillImage"/>
    <dc:date>2025-03-31T14:46:27.224697</dc:date>
    <dc:format>image/svg+xml</dc:format>
    <dc:creator>
     <cc:Agent>
      <dc:title>Matplotlib v3.10.0, https://matplotlib.org/</dc:title>
     </cc:Agent>
    </dc:creator>
   </cc:Work>
  </rdf:RDF>
 </metadata>
 <defs>
  <style type="text/css">*{stroke-linejoin: round; stroke-linecap: butt}</style>
 </defs>
 <g id="figure_1">
  <g id="patch_1">
   <path d="M 0 280.8 
L 568.8 280.8 
L 568.8 0 
L 0 0 
z
" style="fill: #ffffff"/>
  </g>
  <g id="axes_1">
   <g id="patch_2">
    <path d="M 43.78125 243.24375 
L 493.9 243.24375 
L 493.9 10.999219 
L 43.78125 10.999219 
z
" style="fill: #ffffff"/>
   </g>
   <g id="matplotlib.axis_1">
    <g id="xtick_1">
     <g id="line2d_1">
      <path d="M 43.78125 243.24375 
L 43.78125 10.999219 
" clip-path="url(#pe110b786ac)" style="fill: none; stroke-dasharray: 2.96,1.28; stroke-dashoffset: 0; stroke: #e6e6e6; stroke-width: 0.8"/>
     </g>
     <g id="line2d_2">
      <defs>
       <path id="m938022de61" d="M 0 0 
L 0 3.5 
" style="stroke: #000000; stroke-width: 0.8"/>
      </defs>
      <g>
       <use xlink:href="#m938022de61" x="43.78125" y="243.24375" style="stroke: #000000; stroke-width: 0.8"/>
      </g>
     </g>
     <g id="text_1">
      <!-- 0.1 -->
      <g transform="translate(35.829688 257.842188) scale(0.1 -0.1)">
       <defs>
        <path id="DejaVuSans-30" d="M 2034 4250 
Q 1547 4250 1301 3770 
Q 1056 3291 1056 2328 
Q 1056 1369 1301 889 
Q 1547 409 2034 409 
Q 2525 409 2770 889 
Q 3016 1369 3016 2328 
Q 3016 3291 2770 3770 
Q 2525 4250 2034 4250 
z
M 2034 4750 
Q 2819 4750 3233 4129 
Q 3647 3509 3647 2328 
Q 3647 1150 3233 529 
Q 2819 -91 2034 -91 
Q 1250 -91 836 529 
Q 422 1150 422 2328 
Q 422 3509 836 4129 
Q 1250 4750 2034 4750 
z
" transform="scale(0.015625)"/>
        <path id="DejaVuSans-2e" d="M 684 794 
L 1344 794 
L 1344 0 
L 684 0 
L 684 794 
z
" transform="scale(0.015625)"/>
        <path id="DejaVuSans-31" d="M 794 531 
L 1825 531 
L 1825 4091 
L 703 3866 
L 703 4441 
L 1819 4666 
L 2450 4666 
L 2450 531 
L 3481 531 
L 3481 0 
L 794 0 
L 794 531 
z
" transform="scale(0.015625)"/>
       </defs>
       <use xlink:href="#DejaVuSans-30"/>
       <use xlink:href="#DejaVuSans-2e" transform="translate(63.623047 0)"/>
       <use xlink:href="#DejaVuSans-31" transform="translate(95.410156 0)"/>
      </g>
     </g>
    </g>
    <g id="xtick_2">
     <g id="line2d_3">
      <path d="M 93.794444 243.24375 
L 93.794444 10.999219 
" clip-path="url(#pe110b786ac)" style="fill: none; stroke-dasharray: 2.96,1.28; stroke-dashoffset: 0; stroke: #e6e6e6; stroke-width: 0.8"/>
     </g>
     <g id="line2d_4">
      <g>
       <use xlink:href="#m938022de61" x="93.794444" y="243.24375" style="stroke: #000000; stroke-width: 0.8"/>
      </g>
     </g>
     <g id="text_2">
      <!-- 0.2 -->
      <g transform="translate(85.842882 257.842188) scale(0.1 -0.1)">
       <defs>
        <path id="DejaVuSans-32" d="M 1228 531 
L 3431 531 
L 3431 0 
L 469 0 
L 469 531 
Q 828 903 1448 1529 
Q 2069 2156 2228 2338 
Q 2531 2678 2651 2914 
Q 2772 3150 2772 3378 
Q 2772 3750 2511 3984 
Q 2250 4219 1831 4219 
Q 1534 4219 1204 4116 
Q 875 4013 500 3803 
L 500 4441 
Q 881 4594 1212 4672 
Q 1544 4750 1819 4750 
Q 2544 4750 2975 4387 
Q 3406 4025 3406 3419 
Q 3406 3131 3298 2873 
Q 3191 2616 2906 2266 
Q 2828 2175 2409 1742 
Q 1991 1309 1228 531 
z
" transform="scale(0.015625)"/>
       </defs>
       <use xlink:href="#DejaVuSans-30"/>
       <use xlink:href="#DejaVuSans-2e" transform="translate(63.623047 0)"/>
       <use xlink:href="#DejaVuSans-32" transform="translate(95.410156 0)"/>
      </g>
     </g>
    </g>
    <g id="xtick_3">
     <g id="line2d_5">
      <path d="M 143.807639 243.24375 
L 143.807639 10.999219 
" clip-path="url(#pe110b786ac)" style="fill: none; stroke-dasharray: 2.96,1.28; stroke-dashoffset: 0; stroke: #e6e6e6; stroke-width: 0.8"/>
     </g>
     <g id="line2d_6">
      <g>
       <use xlink:href="#m938022de61" x="143.807639" y="243.24375" style="stroke: #000000; stroke-width: 0.8"/>
      </g>
     </g>
     <g id="text_3">
      <!-- 0.3 -->
      <g transform="translate(135.856076 257.842188) scale(0.1 -0.1)">
       <defs>
        <path id="DejaVuSans-33" d="M 2597 2516 
Q 3050 2419 3304 2112 
Q 3559 1806 3559 1356 
Q 3559 666 3084 287 
Q 2609 -91 1734 -91 
Q 1441 -91 1130 -33 
Q 819 25 488 141 
L 488 750 
Q 750 597 1062 519 
Q 1375 441 1716 441 
Q 2309 441 2620 675 
Q 2931 909 2931 1356 
Q 2931 1769 2642 2001 
Q 2353 2234 1838 2234 
L 1294 2234 
L 1294 2753 
L 1863 2753 
Q 2328 2753 2575 2939 
Q 2822 3125 2822 3475 
Q 2822 3834 2567 4026 
Q 2313 4219 1838 4219 
Q 1578 4219 1281 4162 
Q 984 4106 628 3988 
L 628 4550 
Q 988 4650 1302 4700 
Q 1616 4750 1894 4750 
Q 2613 4750 3031 4423 
Q 3450 4097 3450 3541 
Q 3450 3153 3228 2886 
Q 3006 2619 2597 2516 
z
" transform="scale(0.015625)"/>
       </defs>
       <use xlink:href="#DejaVuSans-30"/>
       <use xlink:href="#DejaVuSans-2e" transform="translate(63.623047 0)"/>
       <use xlink:href="#DejaVuSans-33" transform="translate(95.410156 0)"/>
      </g>
     </g>
    </g>
    <g id="xtick_4">
     <g id="line2d_7">
      <path d="M 193.820833 243.24375 
L 193.820833 10.999219 
" clip-path="url(#pe110b786ac)" style="fill: none; stroke-dasharray: 2.96,1.28; stroke-dashoffset: 0; stroke: #e6e6e6; stroke-width: 0.8"/>
     </g>
     <g id="line2d_8">
      <g>
       <use xlink:href="#m938022de61" x="193.820833" y="243.24375" style="stroke: #000000; stroke-width: 0.8"/>
      </g>
     </g>
     <g id="text_4">
      <!-- 0.4 -->
      <g transform="translate(185.869271 257.842188) scale(0.1 -0.1)">
       <defs>
        <path id="DejaVuSans-34" d="M 2419 4116 
L 825 1625 
L 2419 1625 
L 2419 4116 
z
M 2253 4666 
L 3047 4666 
L 3047 1625 
L 3713 1625 
L 3713 1100 
L 3047 1100 
L 3047 0 
L 2419 0 
L 2419 1100 
L 313 1100 
L 313 1709 
L 2253 4666 
z
" transform="scale(0.015625)"/>
       </defs>
       <use xlink:href="#DejaVuSans-30"/>
       <use xlink:href="#DejaVuSans-2e" transform="translate(63.623047 0)"/>
       <use xlink:href="#DejaVuSans-34" transform="translate(95.410156 0)"/>
      </g>
     </g>
    </g>
    <g id="xtick_5">
     <g id="line2d_9">
      <path d="M 243.834028 243.24375 
L 243.834028 10.999219 
" clip-path="url(#pe110b786ac)" style="fill: none; stroke-dasharray: 2.96,1.28; stroke-dashoffset: 0; stroke: #e6e6e6; stroke-width: 0.8"/>
     </g>
     <g id="line2d_10">
      <g>
       <use xlink:href="#m938022de61" x="243.834028" y="243.24375" style="stroke: #000000; stroke-width: 0.8"/>
      </g>
     </g>
     <g id="text_5">
      <!-- 0.5 -->
      <g transform="translate(235.882465 257.842188) scale(0.1 -0.1)">
       <defs>
        <path id="DejaVuSans-35" d="M 691 4666 
L 3169 4666 
L 3169 4134 
L 1269 4134 
L 1269 2991 
Q 1406 3038 1543 3061 
Q 1681 3084 1819 3084 
Q 2600 3084 3056 2656 
Q 3513 2228 3513 1497 
Q 3513 744 3044 326 
Q 2575 -91 1722 -91 
Q 1428 -91 1123 -41 
Q 819 9 494 109 
L 494 744 
Q 775 591 1075 516 
Q 1375 441 1709 441 
Q 2250 441 2565 725 
Q 2881 1009 2881 1497 
Q 2881 1984 2565 2268 
Q 2250 2553 1709 2553 
Q 1456 2553 1204 2497 
Q 953 2441 691 2322 
L 691 4666 
z
" transform="scale(0.015625)"/>
       </defs>
       <use xlink:href="#DejaVuSans-30"/>
       <use xlink:href="#DejaVuSans-2e" transform="translate(63.623047 0)"/>
       <use xlink:href="#DejaVuSans-35" transform="translate(95.410156 0)"/>
      </g>
     </g>
    </g>
    <g id="xtick_6">
     <g id="line2d_11">
      <path d="M 293.847222 243.24375 
L 293.847222 10.999219 
" clip-path="url(#pe110b786ac)" style="fill: none; stroke-dasharray: 2.96,1.28; stroke-dashoffset: 0; stroke: #e6e6e6; stroke-width: 0.8"/>
     </g>
     <g id="line2d_12">
      <g>
       <use xlink:href="#m938022de61" x="293.847222" y="243.24375" style="stroke: #000000; stroke-width: 0.8"/>
      </g>
     </g>
     <g id="text_6">
      <!-- 0.6 -->
      <g transform="translate(285.89566 257.842188) scale(0.1 -0.1)">
       <defs>
        <path id="DejaVuSans-36" d="M 2113 2584 
Q 1688 2584 1439 2293 
Q 1191 2003 1191 1497 
Q 1191 994 1439 701 
Q 1688 409 2113 409 
Q 2538 409 2786 701 
Q 3034 994 3034 1497 
Q 3034 2003 2786 2293 
Q 2538 2584 2113 2584 
z
M 3366 4563 
L 3366 3988 
Q 3128 4100 2886 4159 
Q 2644 4219 2406 4219 
Q 1781 4219 1451 3797 
Q 1122 3375 1075 2522 
Q 1259 2794 1537 2939 
Q 1816 3084 2150 3084 
Q 2853 3084 3261 2657 
Q 3669 2231 3669 1497 
Q 3669 778 3244 343 
Q 2819 -91 2113 -91 
Q 1303 -91 875 529 
Q 447 1150 447 2328 
Q 447 3434 972 4092 
Q 1497 4750 2381 4750 
Q 2619 4750 2861 4703 
Q 3103 4656 3366 4563 
z
" transform="scale(0.015625)"/>
       </defs>
       <use xlink:href="#DejaVuSans-30"/>
       <use xlink:href="#DejaVuSans-2e" transform="translate(63.623047 0)"/>
       <use xlink:href="#DejaVuSans-36" transform="translate(95.410156 0)"/>
      </g>
     </g>
    </g>
    <g id="xtick_7">
     <g id="line2d_13">
      <path d="M 343.860417 243.24375 
L 343.860417 10.999219 
" clip-path="url(#pe110b786ac)" style="fill: none; stroke-dasharray: 2.96,1.28; stroke-dashoffset: 0; stroke: #e6e6e6; stroke-width: 0.8"/>
     </g>
     <g id="line2d_14">
      <g>
       <use xlink:href="#m938022de61" x="343.860417" y="243.24375" style="stroke: #000000; stroke-width: 0.8"/>
      </g>
     </g>
     <g id="text_7">
      <!-- 0.7 -->
      <g transform="translate(335.908854 257.842188) scale(0.1 -0.1)">
       <defs>
        <path id="DejaVuSans-37" d="M 525 4666 
L 3525 4666 
L 3525 4397 
L 1831 0 
L 1172 0 
L 2766 4134 
L 525 4134 
L 525 4666 
z
" transform="scale(0.015625)"/>
       </defs>
       <use xlink:href="#DejaVuSans-30"/>
       <use xlink:href="#DejaVuSans-2e" transform="translate(63.623047 0)"/>
       <use xlink:href="#DejaVuSans-37" transform="translate(95.410156 0)"/>
      </g>
     </g>
    </g>
    <g id="xtick_8">
     <g id="line2d_15">
      <path d="M 393.873611 243.24375 
L 393.873611 10.999219 
" clip-path="url(#pe110b786ac)" style="fill: none; stroke-dasharray: 2.96,1.28; stroke-dashoffset: 0; stroke: #e6e6e6; stroke-width: 0.8"/>
     </g>
     <g id="line2d_16">
      <g>
       <use xlink:href="#m938022de61" x="393.873611" y="243.24375" style="stroke: #000000; stroke-width: 0.8"/>
      </g>
     </g>
     <g id="text_8">
      <!-- 0.8 -->
      <g transform="translate(385.922049 257.842188) scale(0.1 -0.1)">
       <defs>
        <path id="DejaVuSans-38" d="M 2034 2216 
Q 1584 2216 1326 1975 
Q 1069 1734 1069 1313 
Q 1069 891 1326 650 
Q 1584 409 2034 409 
Q 2484 409 2743 651 
Q 3003 894 3003 1313 
Q 3003 1734 2745 1975 
Q 2488 2216 2034 2216 
z
M 1403 2484 
Q 997 2584 770 2862 
Q 544 3141 544 3541 
Q 544 4100 942 4425 
Q 1341 4750 2034 4750 
Q 2731 4750 3128 4425 
Q 3525 4100 3525 3541 
Q 3525 3141 3298 2862 
Q 3072 2584 2669 2484 
Q 3125 2378 3379 2068 
Q 3634 1759 3634 1313 
Q 3634 634 3220 271 
Q 2806 -91 2034 -91 
Q 1263 -91 848 271 
Q 434 634 434 1313 
Q 434 1759 690 2068 
Q 947 2378 1403 2484 
z
M 1172 3481 
Q 1172 3119 1398 2916 
Q 1625 2713 2034 2713 
Q 2441 2713 2670 2916 
Q 2900 3119 2900 3481 
Q 2900 3844 2670 4047 
Q 2441 4250 2034 4250 
Q 1625 4250 1398 4047 
Q 1172 3844 1172 3481 
z
" transform="scale(0.015625)"/>
       </defs>
       <use xlink:href="#DejaVuSans-30"/>
       <use xlink:href="#DejaVuSans-2e" transform="translate(63.623047 0)"/>
       <use xlink:href="#DejaVuSans-38" transform="translate(95.410156 0)"/>
      </g>
     </g>
    </g>
    <g id="xtick_9">
     <g id="line2d_17">
      <path d="M 443.886806 243.24375 
L 443.886806 10.999219 
" clip-path="url(#pe110b786ac)" style="fill: none; stroke-dasharray: 2.96,1.28; stroke-dashoffset: 0; stroke: #e6e6e6; stroke-width: 0.8"/>
     </g>
     <g id="line2d_18">
      <g>
       <use xlink:href="#m938022de61" x="443.886806" y="243.24375" style="stroke: #000000; stroke-width: 0.8"/>
      </g>
     </g>
     <g id="text_9">
      <!-- 0.9 -->
      <g transform="translate(435.935243 257.842188) scale(0.1 -0.1)">
       <defs>
        <path id="DejaVuSans-39" d="M 703 97 
L 703 672 
Q 941 559 1184 500 
Q 1428 441 1663 441 
Q 2288 441 2617 861 
Q 2947 1281 2994 2138 
Q 2813 1869 2534 1725 
Q 2256 1581 1919 1581 
Q 1219 1581 811 2004 
Q 403 2428 403 3163 
Q 403 3881 828 4315 
Q 1253 4750 1959 4750 
Q 2769 4750 3195 4129 
Q 3622 3509 3622 2328 
Q 3622 1225 3098 567 
Q 2575 -91 1691 -91 
Q 1453 -91 1209 -44 
Q 966 3 703 97 
z
M 1959 2075 
Q 2384 2075 2632 2365 
Q 2881 2656 2881 3163 
Q 2881 3666 2632 3958 
Q 2384 4250 1959 4250 
Q 1534 4250 1286 3958 
Q 1038 3666 1038 3163 
Q 1038 2656 1286 2365 
Q 1534 2075 1959 2075 
z
" transform="scale(0.015625)"/>
       </defs>
       <use xlink:href="#DejaVuSans-30"/>
       <use xlink:href="#DejaVuSans-2e" transform="translate(63.623047 0)"/>
       <use xlink:href="#DejaVuSans-39" transform="translate(95.410156 0)"/>
      </g>
     </g>
    </g>
    <g id="xtick_10">
     <g id="line2d_19">
      <path d="M 493.9 243.24375 
L 493.9 10.999219 
" clip-path="url(#pe110b786ac)" style="fill: none; stroke-dasharray: 2.96,1.28; stroke-dashoffset: 0; stroke: #e6e6e6; stroke-width: 0.8"/>
     </g>
     <g id="line2d_20">
      <g>
       <use xlink:href="#m938022de61" x="493.9" y="243.24375" style="stroke: #000000; stroke-width: 0.8"/>
      </g>
     </g>
     <g id="text_10">
      <!-- 1.0 -->
      <g transform="translate(485.948438 257.842188) scale(0.1 -0.1)">
       <use xlink:href="#DejaVuSans-31"/>
       <use xlink:href="#DejaVuSans-2e" transform="translate(63.623047 0)"/>
       <use xlink:href="#DejaVuSans-30" transform="translate(95.410156 0)"/>
      </g>
     </g>
    </g>
    <g id="text_11">
     <!-- $V_{\mathrm{GS}}$ -->
     <g transform="translate(260.340625 271.520312) scale(0.1 -0.1)">
      <defs>
       <path id="DejaVuSans-Oblique-56" d="M 1319 0 
L 500 4666 
L 1119 4666 
L 1797 653 
L 4063 4666 
L 4750 4666 
L 2053 0 
L 1319 0 
z
" transform="scale(0.015625)"/>
       <path id="DejaVuSans-47" d="M 3809 666 
L 3809 1919 
L 2778 1919 
L 2778 2438 
L 4434 2438 
L 4434 434 
Q 4069 175 3628 42 
Q 3188 -91 2688 -91 
Q 1594 -91 976 548 
Q 359 1188 359 2328 
Q 359 3472 976 4111 
Q 1594 4750 2688 4750 
Q 3144 4750 3555 4637 
Q 3966 4525 4313 4306 
L 4313 3634 
Q 3963 3931 3569 4081 
Q 3175 4231 2741 4231 
Q 1884 4231 1454 3753 
Q 1025 3275 1025 2328 
Q 1025 1384 1454 906 
Q 1884 428 2741 428 
Q 3075 428 3337 486 
Q 3600 544 3809 666 
z
" transform="scale(0.015625)"/>
       <path id="DejaVuSans-53" d="M 3425 4513 
L 3425 3897 
Q 3066 4069 2747 4153 
Q 2428 4238 2131 4238 
Q 1616 4238 1336 4038 
Q 1056 3838 1056 3469 
Q 1056 3159 1242 3001 
Q 1428 2844 1947 2747 
L 2328 2669 
Q 3034 2534 3370 2195 
Q 3706 1856 3706 1288 
Q 3706 609 3251 259 
Q 2797 -91 1919 -91 
Q 1588 -91 1214 -16 
Q 841 59 441 206 
L 441 856 
Q 825 641 1194 531 
Q 1563 422 1919 422 
Q 2459 422 2753 634 
Q 3047 847 3047 1241 
Q 3047 1584 2836 1778 
Q 2625 1972 2144 2069 
L 1759 2144 
Q 1053 2284 737 2584 
Q 422 2884 422 3419 
Q 422 4038 858 4394 
Q 1294 4750 2059 4750 
Q 2388 4750 2728 4690 
Q 3069 4631 3425 4513 
z
" transform="scale(0.015625)"/>
      </defs>
      <use xlink:href="#DejaVuSans-Oblique-56" transform="translate(0 0.09375)"/>
      <use xlink:href="#DejaVuSans-47" transform="translate(68.408203 -16.3125) scale(0.7)"/>
      <use xlink:href="#DejaVuSans-53" transform="translate(122.651367 -16.3125) scale(0.7)"/>
     </g>
    </g>
   </g>
   <g id="matplotlib.axis_2">
    <g id="ytick_1">
     <g id="line2d_21">
      <path d="M 43.78125 243.24375 
L 493.9 243.24375 
" clip-path="url(#pe110b786ac)" style="fill: none; stroke-dasharray: 2.96,1.28; stroke-dashoffset: 0; stroke: #e6e6e6; stroke-width: 0.8"/>
     </g>
     <g id="line2d_22">
      <defs>
       <path id="me6382b823c" d="M 0 0 
L -3.5 0 
" style="stroke: #000000; stroke-width: 0.8"/>
      </defs>
      <g>
       <use xlink:href="#me6382b823c" x="43.78125" y="243.24375" style="stroke: #000000; stroke-width: 0.8"/>
      </g>
     </g>
     <g id="text_12">
      <!-- 0.0 -->
      <g transform="translate(20.878125 247.042969) scale(0.1 -0.1)">
       <use xlink:href="#DejaVuSans-30"/>
       <use xlink:href="#DejaVuSans-2e" transform="translate(63.623047 0)"/>
       <use xlink:href="#DejaVuSans-30" transform="translate(95.410156 0)"/>
      </g>
     </g>
    </g>
    <g id="ytick_2">
     <g id="line2d_23">
      <path d="M 43.78125 204.536328 
L 493.9 204.536328 
" clip-path="url(#pe110b786ac)" style="fill: none; stroke-dasharray: 2.96,1.28; stroke-dashoffset: 0; stroke: #e6e6e6; stroke-width: 0.8"/>
     </g>
     <g id="line2d_24">
      <g>
       <use xlink:href="#me6382b823c" x="43.78125" y="204.536328" style="stroke: #000000; stroke-width: 0.8"/>
      </g>
     </g>
     <g id="text_13">
      <!-- 0.1 -->
      <g transform="translate(20.878125 208.335547) scale(0.1 -0.1)">
       <use xlink:href="#DejaVuSans-30"/>
       <use xlink:href="#DejaVuSans-2e" transform="translate(63.623047 0)"/>
       <use xlink:href="#DejaVuSans-31" transform="translate(95.410156 0)"/>
      </g>
     </g>
    </g>
    <g id="ytick_3">
     <g id="line2d_25">
      <path d="M 43.78125 165.828906 
L 493.9 165.828906 
" clip-path="url(#pe110b786ac)" style="fill: none; stroke-dasharray: 2.96,1.28; stroke-dashoffset: 0; stroke: #e6e6e6; stroke-width: 0.8"/>
     </g>
     <g id="line2d_26">
      <g>
       <use xlink:href="#me6382b823c" x="43.78125" y="165.828906" style="stroke: #000000; stroke-width: 0.8"/>
      </g>
     </g>
     <g id="text_14">
      <!-- 0.2 -->
      <g transform="translate(20.878125 169.628125) scale(0.1 -0.1)">
       <use xlink:href="#DejaVuSans-30"/>
       <use xlink:href="#DejaVuSans-2e" transform="translate(63.623047 0)"/>
       <use xlink:href="#DejaVuSans-32" transform="translate(95.410156 0)"/>
      </g>
     </g>
    </g>
    <g id="ytick_4">
     <g id="line2d_27">
      <path d="M 43.78125 127.121484 
L 493.9 127.121484 
" clip-path="url(#pe110b786ac)" style="fill: none; stroke-dasharray: 2.96,1.28; stroke-dashoffset: 0; stroke: #e6e6e6; stroke-width: 0.8"/>
     </g>
     <g id="line2d_28">
      <g>
       <use xlink:href="#me6382b823c" x="43.78125" y="127.121484" style="stroke: #000000; stroke-width: 0.8"/>
      </g>
     </g>
     <g id="text_15">
      <!-- 0.3 -->
      <g transform="translate(20.878125 130.920703) scale(0.1 -0.1)">
       <use xlink:href="#DejaVuSans-30"/>
       <use xlink:href="#DejaVuSans-2e" transform="translate(63.623047 0)"/>
       <use xlink:href="#DejaVuSans-33" transform="translate(95.410156 0)"/>
      </g>
     </g>
    </g>
    <g id="ytick_5">
     <g id="line2d_29">
      <path d="M 43.78125 88.414063 
L 493.9 88.414063 
" clip-path="url(#pe110b786ac)" style="fill: none; stroke-dasharray: 2.96,1.28; stroke-dashoffset: 0; stroke: #e6e6e6; stroke-width: 0.8"/>
     </g>
     <g id="line2d_30">
      <g>
       <use xlink:href="#me6382b823c" x="43.78125" y="88.414063" style="stroke: #000000; stroke-width: 0.8"/>
      </g>
     </g>
     <g id="text_16">
      <!-- 0.4 -->
      <g transform="translate(20.878125 92.213281) scale(0.1 -0.1)">
       <use xlink:href="#DejaVuSans-30"/>
       <use xlink:href="#DejaVuSans-2e" transform="translate(63.623047 0)"/>
       <use xlink:href="#DejaVuSans-34" transform="translate(95.410156 0)"/>
      </g>
     </g>
    </g>
    <g id="ytick_6">
     <g id="line2d_31">
      <path d="M 43.78125 49.706641 
L 493.9 49.706641 
" clip-path="url(#pe110b786ac)" style="fill: none; stroke-dasharray: 2.96,1.28; stroke-dashoffset: 0; stroke: #e6e6e6; stroke-width: 0.8"/>
     </g>
     <g id="line2d_32">
      <g>
       <use xlink:href="#me6382b823c" x="43.78125" y="49.706641" style="stroke: #000000; stroke-width: 0.8"/>
      </g>
     </g>
     <g id="text_17">
      <!-- 0.5 -->
      <g transform="translate(20.878125 53.505859) scale(0.1 -0.1)">
       <use xlink:href="#DejaVuSans-30"/>
       <use xlink:href="#DejaVuSans-2e" transform="translate(63.623047 0)"/>
       <use xlink:href="#DejaVuSans-35" transform="translate(95.410156 0)"/>
      </g>
     </g>
    </g>
    <g id="ytick_7">
     <g id="line2d_33">
      <path d="M 43.78125 10.999219 
L 493.9 10.999219 
" clip-path="url(#pe110b786ac)" style="fill: none; stroke-dasharray: 2.96,1.28; stroke-dashoffset: 0; stroke: #e6e6e6; stroke-width: 0.8"/>
     </g>
     <g id="line2d_34">
      <g>
       <use xlink:href="#me6382b823c" x="43.78125" y="10.999219" style="stroke: #000000; stroke-width: 0.8"/>
      </g>
     </g>
     <g id="text_18">
      <!-- 0.6 -->
      <g transform="translate(20.878125 14.798438) scale(0.1 -0.1)">
       <use xlink:href="#DejaVuSans-30"/>
       <use xlink:href="#DejaVuSans-2e" transform="translate(63.623047 0)"/>
       <use xlink:href="#DejaVuSans-36" transform="translate(95.410156 0)"/>
      </g>
     </g>
    </g>
    <g id="text_19">
     <!-- $V$ -->
     <g transform="translate(14.798438 130.571484) rotate(-90) scale(0.1 -0.1)">
      <use xlink:href="#DejaVuSans-Oblique-56" transform="translate(0 0.09375)"/>
     </g>
    </g>
   </g>
   <g id="line2d_35">
    <path d="M -1 221.161897 
L 3.770694 221.161398 
L 8.772014 221.160685 
L 13.773333 221.159718 
L 18.774653 221.158403 
L 23.775972 221.156625 
L 28.777292 221.154222 
L 33.778611 221.150974 
L 38.779931 221.146596 
L 43.78125 221.140713 
L 48.782569 221.132824 
L 53.783889 221.122284 
L 58.785208 221.108245 
L 63.786528 221.089615 
L 68.787847 221.065012 
L 73.789167 221.032676 
L 78.790486 220.990401 
L 83.791806 220.935471 
L 88.793125 220.864566 
L 93.794444 220.773697 
L 98.795764 220.658128 
L 103.797083 220.512352 
L 108.798403 220.330071 
L 113.799722 220.104213 
L 118.801042 219.826983 
L 123.802361 219.49 
L 128.803681 219.084428 
L 133.805 218.601168 
L 138.806319 218.031139 
L 143.807639 217.365511 
L 148.808958 216.596039 
L 153.810278 215.715377 
L 158.811597 214.717397 
L 163.812917 213.597542 
L 168.814236 212.353064 
L 173.815556 210.983293 
L 178.816875 209.489767 
L 183.818194 207.876291 
L 188.819514 206.148873 
L 193.820833 204.31554 
L 198.822153 202.386054 
L 203.823472 200.371604 
L 208.824792 198.284267 
L 213.826111 196.136663 
L 218.827431 193.94149 
L 223.82875 191.711164 
L 228.830069 189.457501 
L 233.831389 187.191415 
L 238.832708 184.922854 
L 243.834028 182.660597 
L 248.835347 180.412276 
L 253.836667 178.184395 
L 258.837986 175.982367 
L 263.839306 173.810533 
L 268.840625 171.672412 
L 273.841944 169.570634 
L 278.843264 167.507143 
L 283.844583 165.483324 
L 288.845903 163.49988 
L 293.847222 161.557272 
L 298.848542 159.6555 
L 303.849861 157.794213 
L 308.851181 155.972915 
L 313.8525 154.190902 
L 318.853819 152.447285 
L 323.855139 150.741061 
L 328.856458 149.071226 
L 333.857778 147.43657 
L 338.859097 145.835944 
L 343.860417 144.268218 
L 348.861736 142.732076 
L 353.863056 141.226355 
L 358.864375 139.749853 
L 363.865694 138.301383 
L 368.867014 136.879745 
L 373.868333 135.483797 
L 378.869653 134.112397 
L 383.870972 132.764484 
L 388.872292 131.438916 
L 393.873611 130.1347 
L 398.874931 128.850821 
L 403.87625 127.586242 
L 408.877569 126.340097 
L 413.878889 125.111371 
L 418.880208 123.89921 
L 423.881528 122.70276 
L 428.882847 121.521181 
L 433.884167 120.353605 
L 438.885486 119.199319 
L 443.886806 118.057526 
L 448.888125 116.927499 
L 453.889444 115.808581 
L 458.890764 114.7 
L 463.892083 113.601177 
L 468.893403 112.511445 
L 473.894722 111.430156 
L 478.896042 110.356758 
L 483.897361 109.290674 
L 488.898681 108.231338 
L 493.9 107.17822 
L 498.901319 106.130835 
L 503.902639 105.088642 
L 508.903958 104.051166 
L 513.905278 103.017947 
L 518.906597 101.988523 
L 523.907917 100.962502 
L 528.909236 99.939435 
L 533.910556 98.918951 
L 538.911875 97.90059 
L 543.913194 96.884098 
L 548.914514 95.86899 
L 553.915833 94.854978 
L 558.917153 93.841739 
L 563.918472 92.82888 
L 568.919792 91.816172 
L 569.8 91.637908 
" clip-path="url(#pe110b786ac)" style="fill: none; stroke: #1f77b4; stroke-width: 1.5; stroke-linecap: square"/>
   </g>
   <g id="line2d_36">
    <path d="M -1 218.24835 
L 3.770694 218.20836 
L 8.772014 218.157943 
L 13.773333 218.096163 
L 18.774653 218.022577 
L 23.775972 217.937054 
L 28.777292 217.837959 
L 33.778611 217.723378 
L 38.779931 217.591141 
L 43.78125 217.438807 
L 48.782569 217.263674 
L 53.783889 217.062751 
L 58.785208 216.83285 
L 63.786528 216.570589 
L 68.787847 216.272416 
L 73.789167 215.93474 
L 78.790486 215.55405 
L 83.791806 215.127111 
L 88.793125 214.651026 
L 93.794444 214.123553 
L 98.795764 213.543278 
L 103.797083 212.909863 
L 108.798403 212.224097 
L 113.799722 211.488064 
L 118.801042 210.705011 
L 123.802361 209.879202 
L 128.803681 209.015376 
L 133.805 208.118376 
L 138.806319 207.192235 
L 143.807639 206.239581 
L 148.808958 205.260909 
L 153.810278 204.254005 
L 158.811597 203.213666 
L 163.812917 202.131712 
L 168.814236 200.997261 
L 173.815556 199.797276 
L 178.816875 198.517256 
L 183.818194 197.142124 
L 188.819514 195.656899 
L 193.820833 194.047468 
L 198.822153 192.301181 
L 203.823472 190.407121 
L 208.824792 188.35662 
L 213.826111 186.142969 
L 218.827431 183.761888 
L 223.82875 181.21102 
L 228.830069 178.489924 
L 233.831389 175.599842 
L 238.832708 172.543467 
L 243.834028 169.324675 
L 248.835347 165.948271 
L 253.836667 162.419826 
L 258.837986 158.745344 
L 263.839306 154.931148 
L 268.840625 150.983812 
L 273.841944 146.909861 
L 278.843264 142.715673 
L 283.844583 138.407523 
L 288.845903 133.991411 
L 293.847222 129.472896 
L 298.848542 124.857354 
L 303.849861 120.149619 
L 308.851181 115.354305 
L 313.8525 110.47538 
L 318.853819 105.516743 
L 323.855139 100.48159 
L 328.856458 95.372897 
L 333.857778 90.193213 
L 338.859097 84.944845 
L 343.860417 79.629813 
L 348.861736 74.249557 
L 353.863056 68.805625 
L 358.864375 63.299134 
L 363.865694 57.730777 
L 368.867014 52.101489 
L 373.868333 46.41158 
L 378.869653 40.661328 
L 383.870972 34.851022 
L 388.872292 28.980383 
L 393.873611 23.049482 
L 398.874931 17.057811 
L 403.87625 11.00507 
L 408.877569 4.890774 
L 413.647512 -1 
" clip-path="url(#pe110b786ac)" style="fill: none; stroke: #ff7f0e; stroke-width: 1.5; stroke-linecap: square"/>
   </g>
   <g id="line2d_37">
    <path d="M 136.147333 281.8 
L 138.806319 279.742608 
L 143.807639 275.873066 
L 148.808958 272.003754 
L 153.810278 268.134673 
L 158.811597 264.26595 
L 163.812917 260.397607 
L 168.814236 256.529645 
L 173.815556 252.662156 
L 178.816875 248.795209 
L 183.818194 244.928804 
L 188.819514 241.063011 
L 193.820833 237.197921 
L 198.822153 233.33357 
L 203.823472 229.469945 
L 208.824792 225.607139 
L 213.826111 221.745141 
L 218.827431 217.883997 
L 223.82875 214.023671 
L 228.830069 210.164199 
L 233.831389 206.305524 
L 238.832708 202.447713 
L 243.834028 198.590675 
L 248.835347 194.73441 
L 253.836667 190.878884 
L 258.837986 187.024084 
L 263.839306 183.169988 
L 268.840625 179.316503 
L 273.841944 175.463687 
L 278.843264 171.611402 
L 283.844583 167.759752 
L 288.845903 163.908597 
L 293.847222 160.057904 
L 298.848542 156.207753 
L 303.849861 152.357983 
L 308.851181 148.508685 
L 313.8525 144.659734 
L 318.853819 140.811221 
L 323.855139 136.962997 
L 328.856458 133.115176 
L 333.857778 129.267621 
L 338.859097 125.420365 
L 343.860417 121.573398 
L 348.861736 117.726685 
L 353.863056 113.880214 
L 358.864375 110.033973 
L 363.865694 106.187964 
L 368.867014 102.34215 
L 373.868333 98.496533 
L 378.869653 94.651065 
L 383.870972 90.805794 
L 388.872292 86.960673 
L 393.873611 83.115678 
L 398.874931 79.270822 
L 403.87625 75.426093 
L 408.877569 71.581479 
L 413.878889 67.736946 
L 418.880208 63.892529 
L 423.881528 60.04818 
L 428.882847 56.203912 
L 433.884167 52.359691 
L 438.885486 48.515573 
L 443.886806 44.671467 
L 448.888125 40.827395 
L 453.889444 36.983393 
L 458.890764 33.139402 
L 463.892083 29.295399 
L 468.893403 25.451443 
L 473.894722 21.607487 
L 478.896042 17.763531 
L 483.897361 13.91954 
L 488.898681 10.075549 
L 493.9 6.231546 
L 498.901319 2.387509 
L 503.30863 -1 
" clip-path="url(#pe110b786ac)" style="fill: none; stroke: #2ca02c; stroke-width: 1.5; stroke-linecap: square"/>
   </g>
   <g id="patch_3">
    <path d="M 43.78125 243.24375 
L 43.78125 10.999219 
" style="fill: none; stroke: #000000; stroke-width: 0.8; stroke-linejoin: miter; stroke-linecap: square"/>
   </g>
   <g id="patch_4">
    <path d="M 493.9 243.24375 
L 493.9 10.999219 
" style="fill: none; stroke: #000000; stroke-width: 0.8; stroke-linejoin: miter; stroke-linecap: square"/>
   </g>
   <g id="patch_5">
    <path d="M 43.78125 243.24375 
L 493.9 243.24375 
" style="fill: none; stroke: #000000; stroke-width: 0.8; stroke-linejoin: miter; stroke-linecap: square"/>
   </g>
   <g id="patch_6">
    <path d="M 43.78125 10.999219 
L 493.9 10.999219 
" style="fill: none; stroke: #000000; stroke-width: 0.8; stroke-linejoin: miter; stroke-linecap: square"/>
   </g>
   <g id="legend_1">
    <g id="patch_7">
     <path d="M 500.9 151.048828 
L 559.6 151.048828 
Q 561.6 151.048828 561.6 149.048828 
L 561.6 105.194141 
Q 561.6 103.194141 559.6 103.194141 
L 500.9 103.194141 
Q 498.9 103.194141 498.9 105.194141 
L 498.9 149.048828 
Q 498.9 151.048828 500.9 151.048828 
z
" style="fill: #ffffff; opacity: 0.8; stroke: #cccccc; stroke-linejoin: miter"/>
    </g>
    <g id="line2d_38">
     <path d="M 502.9 111.292578 
L 512.9 111.292578 
L 522.9 111.292578 
" style="fill: none; stroke: #1f77b4; stroke-width: 1.5; stroke-linecap: square"/>
    </g>
    <g id="text_20">
     <!-- $V_{\mathrm{DS}_{\mathrm{SAT}}}$ -->
     <g transform="translate(530.9 114.792578) scale(0.1 -0.1)">
      <defs>
       <path id="DejaVuSans-44" d="M 1259 4147 
L 1259 519 
L 2022 519 
Q 2988 519 3436 956 
Q 3884 1394 3884 2338 
Q 3884 3275 3436 3711 
Q 2988 4147 2022 4147 
L 1259 4147 
z
M 628 4666 
L 1925 4666 
Q 3281 4666 3915 4102 
Q 4550 3538 4550 2338 
Q 4550 1131 3912 565 
Q 3275 0 1925 0 
L 628 0 
L 628 4666 
z
" transform="scale(0.015625)"/>
       <path id="DejaVuSans-41" d="M 2188 4044 
L 1331 1722 
L 3047 1722 
L 2188 4044 
z
M 1831 4666 
L 2547 4666 
L 4325 0 
L 3669 0 
L 3244 1197 
L 1141 1197 
L 716 0 
L 50 0 
L 1831 4666 
z
" transform="scale(0.015625)"/>
       <path id="DejaVuSans-54" d="M -19 4666 
L 3928 4666 
L 3928 4134 
L 2272 4134 
L 2272 0 
L 1638 0 
L 1638 4134 
L -19 4134 
L -19 4666 
z
" transform="scale(0.015625)"/>
      </defs>
      <use xlink:href="#DejaVuSans-Oblique-56" transform="translate(0 0.09375)"/>
      <use xlink:href="#DejaVuSans-44" transform="translate(68.408203 -16.3125) scale(0.7)"/>
      <use xlink:href="#DejaVuSans-53" transform="translate(122.30957 -16.3125) scale(0.7)"/>
      <use xlink:href="#DejaVuSans-53" transform="translate(167.413086 -27.796875) scale(0.49)"/>
      <use xlink:href="#DejaVuSans-41" transform="translate(198.516602 -27.796875) scale(0.49)"/>
      <use xlink:href="#DejaVuSans-54" transform="translate(232.036621 -27.796875) scale(0.49)"/>
     </g>
    </g>
    <g id="line2d_39">
     <path d="M 502.9 126.791016 
L 512.9 126.791016 
L 522.9 126.791016 
" style="fill: none; stroke: #ff7f0e; stroke-width: 1.5; stroke-linecap: square"/>
    </g>
    <g id="text_21">
     <!-- $V^{\star}$ -->
     <g transform="translate(530.9 130.291016) scale(0.1 -0.1)">
      <defs>
       <path id="DejaVuSans-22c6" d="M 778 2391 
L 1713 2391 
L 2003 3278 
L 2297 2391 
L 3228 2391 
L 2472 1841 
L 2766 953 
L 2003 1503 
L 1244 953 
L 1534 1841 
L 778 2391 
z
" transform="scale(0.015625)"/>
      </defs>
      <use xlink:href="#DejaVuSans-Oblique-56" transform="translate(0 0.865625)"/>
      <use xlink:href="#DejaVuSans-22c6" transform="translate(75.424974 39.146875) scale(0.7)"/>
     </g>
    </g>
    <g id="line2d_40">
     <path d="M 502.9 141.469141 
L 512.9 141.469141 
L 522.9 141.469141 
" style="fill: none; stroke: #2ca02c; stroke-width: 1.5; stroke-linecap: square"/>
    </g>
    <g id="text_22">
     <!-- $V_{\mathrm{OV}}$ -->
     <g transform="translate(530.9 144.969141) scale(0.1 -0.1)">
      <defs>
       <path id="DejaVuSans-4f" d="M 2522 4238 
Q 1834 4238 1429 3725 
Q 1025 3213 1025 2328 
Q 1025 1447 1429 934 
Q 1834 422 2522 422 
Q 3209 422 3611 934 
Q 4013 1447 4013 2328 
Q 4013 3213 3611 3725 
Q 3209 4238 2522 4238 
z
M 2522 4750 
Q 3503 4750 4090 4092 
Q 4678 3434 4678 2328 
Q 4678 1225 4090 567 
Q 3503 -91 2522 -91 
Q 1538 -91 948 565 
Q 359 1222 359 2328 
Q 359 3434 948 4092 
Q 1538 4750 2522 4750 
z
" transform="scale(0.015625)"/>
       <path id="DejaVuSans-56" d="M 1831 0 
L 50 4666 
L 709 4666 
L 2188 738 
L 3669 4666 
L 4325 4666 
L 2547 0 
L 1831 0 
z
" transform="scale(0.015625)"/>
      </defs>
      <use xlink:href="#DejaVuSans-Oblique-56" transform="translate(0 0.09375)"/>
      <use xlink:href="#DejaVuSans-4f" transform="translate(68.408203 -16.3125) scale(0.7)"/>
      <use xlink:href="#DejaVuSans-56" transform="translate(123.505859 -16.3125) scale(0.7)"/>
     </g>
    </g>
   </g>
  </g>
 </g>
 <defs>
  <clipPath id="pe110b786ac">
   <rect x="43.78125" y="10.999219" width="450.11875" height="232.244531"/>
  </clipPath>
 </defs>
</svg>
