<?xml version="1.0" encoding="utf-8" standalone="no"?>
<!DOCTYPE svg PUBLIC "-//W3C//DTD SVG 1.1//EN"
  "http://www.w3.org/Graphics/SVG/1.1/DTD/svg11.dtd">
<svg xmlns:xlink="http://www.w3.org/1999/xlink" width="568.8pt" height="280.8pt" viewBox="0 0 568.8 280.8" xmlns="http://www.w3.org/2000/svg" version="1.1">
 <metadata>
  <rdf:RDF xmlns:dc="http://purl.org/dc/elements/1.1/" xmlns:cc="http://creativecommons.org/ns#" xmlns:rdf="http://www.w3.org/1999/02/22-rdf-syntax-ns#">
   <cc:Work>
    <dc:type rdf:resource="http://purl.org/dc/dcmitype/StillImage"/>
    <dc:date>2025-03-31T14:42:33.088836</dc:date>
    <dc:format>image/svg+xml</dc:format>
    <dc:creator>
     <cc:Agent>
      <dc:title>Matplotlib v3.10.0, https://matplotlib.org/</dc:title>
     </cc:Agent>
    </dc:creator>
   </cc:Work>
  </rdf:RDF>
 </metadata>
 <defs>
  <style type="text/css">*{stroke-linejoin: round; stroke-linecap: butt}</style>
 </defs>
 <g id="figure_1">
  <g id="patch_1">
   <path d="M 0 280.8 
L 568.8 280.8 
L 568.8 0 
L 0 0 
z
" style="fill: #ffffff"/>
  </g>
  <g id="axes_1">
   <g id="patch_2">
    <path d="M 50.165625 243.24375 
L 491.996875 243.24375 
L 491.996875 7.2 
L 50.165625 7.2 
z
" style="fill: #ffffff"/>
   </g>
   <g id="matplotlib.axis_1">
    <g id="xtick_1">
     <g id="line2d_1">
      <path d="M 66.630262 243.24375 
L 66.630262 7.2 
" clip-path="url(#p6a27942c75)" style="fill: none; stroke-dasharray: 2.96,1.28; stroke-dashoffset: 0; stroke: #e6e6e6; stroke-width: 0.8"/>
     </g>
     <g id="line2d_2">
      <defs>
       <path id="mb5c7bb2223" d="M 0 0 
L 0 3.5 
" style="stroke: #000000; stroke-width: 0.8"/>
      </defs>
      <g>
       <use xlink:href="#mb5c7bb2223" x="66.630262" y="243.24375" style="stroke: #000000; stroke-width: 0.8"/>
      </g>
     </g>
     <g id="text_1">
      <!-- 0.0 -->
      <g transform="translate(58.6787 257.842187) scale(0.1 -0.1)">
       <defs>
        <path id="DejaVuSans-30" d="M 2034 4250 
Q 1547 4250 1301 3770 
Q 1056 3291 1056 2328 
Q 1056 1369 1301 889 
Q 1547 409 2034 409 
Q 2525 409 2770 889 
Q 3016 1369 3016 2328 
Q 3016 3291 2770 3770 
Q 2525 4250 2034 4250 
z
M 2034 4750 
Q 2819 4750 3233 4129 
Q 3647 3509 3647 2328 
Q 3647 1150 3233 529 
Q 2819 -91 2034 -91 
Q 1250 -91 836 529 
Q 422 1150 422 2328 
Q 422 3509 836 4129 
Q 1250 4750 2034 4750 
z
" transform="scale(0.015625)"/>
        <path id="DejaVuSans-2e" d="M 684 794 
L 1344 794 
L 1344 0 
L 684 0 
L 684 794 
z
" transform="scale(0.015625)"/>
       </defs>
       <use xlink:href="#DejaVuSans-30"/>
       <use xlink:href="#DejaVuSans-2e" transform="translate(63.623047 0)"/>
       <use xlink:href="#DejaVuSans-30" transform="translate(95.410156 0)"/>
      </g>
     </g>
    </g>
    <g id="xtick_2">
     <g id="line2d_3">
      <path d="M 139.002293 243.24375 
L 139.002293 7.2 
" clip-path="url(#p6a27942c75)" style="fill: none; stroke-dasharray: 2.96,1.28; stroke-dashoffset: 0; stroke: #e6e6e6; stroke-width: 0.8"/>
     </g>
     <g id="line2d_4">
      <g>
       <use xlink:href="#mb5c7bb2223" x="139.002293" y="243.24375" style="stroke: #000000; stroke-width: 0.8"/>
      </g>
     </g>
     <g id="text_2">
      <!-- 0.2 -->
      <g transform="translate(131.050731 257.842187) scale(0.1 -0.1)">
       <defs>
        <path id="DejaVuSans-32" d="M 1228 531 
L 3431 531 
L 3431 0 
L 469 0 
L 469 531 
Q 828 903 1448 1529 
Q 2069 2156 2228 2338 
Q 2531 2678 2651 2914 
Q 2772 3150 2772 3378 
Q 2772 3750 2511 3984 
Q 2250 4219 1831 4219 
Q 1534 4219 1204 4116 
Q 875 4013 500 3803 
L 500 4441 
Q 881 4594 1212 4672 
Q 1544 4750 1819 4750 
Q 2544 4750 2975 4387 
Q 3406 4025 3406 3419 
Q 3406 3131 3298 2873 
Q 3191 2616 2906 2266 
Q 2828 2175 2409 1742 
Q 1991 1309 1228 531 
z
" transform="scale(0.015625)"/>
       </defs>
       <use xlink:href="#DejaVuSans-30"/>
       <use xlink:href="#DejaVuSans-2e" transform="translate(63.623047 0)"/>
       <use xlink:href="#DejaVuSans-32" transform="translate(95.410156 0)"/>
      </g>
     </g>
    </g>
    <g id="xtick_3">
     <g id="line2d_5">
      <path d="M 211.374324 243.24375 
L 211.374324 7.2 
" clip-path="url(#p6a27942c75)" style="fill: none; stroke-dasharray: 2.96,1.28; stroke-dashoffset: 0; stroke: #e6e6e6; stroke-width: 0.8"/>
     </g>
     <g id="line2d_6">
      <g>
       <use xlink:href="#mb5c7bb2223" x="211.374324" y="243.24375" style="stroke: #000000; stroke-width: 0.8"/>
      </g>
     </g>
     <g id="text_3">
      <!-- 0.4 -->
      <g transform="translate(203.422762 257.842187) scale(0.1 -0.1)">
       <defs>
        <path id="DejaVuSans-34" d="M 2419 4116 
L 825 1625 
L 2419 1625 
L 2419 4116 
z
M 2253 4666 
L 3047 4666 
L 3047 1625 
L 3713 1625 
L 3713 1100 
L 3047 1100 
L 3047 0 
L 2419 0 
L 2419 1100 
L 313 1100 
L 313 1709 
L 2253 4666 
z
" transform="scale(0.015625)"/>
       </defs>
       <use xlink:href="#DejaVuSans-30"/>
       <use xlink:href="#DejaVuSans-2e" transform="translate(63.623047 0)"/>
       <use xlink:href="#DejaVuSans-34" transform="translate(95.410156 0)"/>
      </g>
     </g>
    </g>
    <g id="xtick_4">
     <g id="line2d_7">
      <path d="M 283.746355 243.24375 
L 283.746355 7.2 
" clip-path="url(#p6a27942c75)" style="fill: none; stroke-dasharray: 2.96,1.28; stroke-dashoffset: 0; stroke: #e6e6e6; stroke-width: 0.8"/>
     </g>
     <g id="line2d_8">
      <g>
       <use xlink:href="#mb5c7bb2223" x="283.746355" y="243.24375" style="stroke: #000000; stroke-width: 0.8"/>
      </g>
     </g>
     <g id="text_4">
      <!-- 0.6 -->
      <g transform="translate(275.794793 257.842187) scale(0.1 -0.1)">
       <defs>
        <path id="DejaVuSans-36" d="M 2113 2584 
Q 1688 2584 1439 2293 
Q 1191 2003 1191 1497 
Q 1191 994 1439 701 
Q 1688 409 2113 409 
Q 2538 409 2786 701 
Q 3034 994 3034 1497 
Q 3034 2003 2786 2293 
Q 2538 2584 2113 2584 
z
M 3366 4563 
L 3366 3988 
Q 3128 4100 2886 4159 
Q 2644 4219 2406 4219 
Q 1781 4219 1451 3797 
Q 1122 3375 1075 2522 
Q 1259 2794 1537 2939 
Q 1816 3084 2150 3084 
Q 2853 3084 3261 2657 
Q 3669 2231 3669 1497 
Q 3669 778 3244 343 
Q 2819 -91 2113 -91 
Q 1303 -91 875 529 
Q 447 1150 447 2328 
Q 447 3434 972 4092 
Q 1497 4750 2381 4750 
Q 2619 4750 2861 4703 
Q 3103 4656 3366 4563 
z
" transform="scale(0.015625)"/>
       </defs>
       <use xlink:href="#DejaVuSans-30"/>
       <use xlink:href="#DejaVuSans-2e" transform="translate(63.623047 0)"/>
       <use xlink:href="#DejaVuSans-36" transform="translate(95.410156 0)"/>
      </g>
     </g>
    </g>
    <g id="xtick_5">
     <g id="line2d_9">
      <path d="M 356.118387 243.24375 
L 356.118387 7.2 
" clip-path="url(#p6a27942c75)" style="fill: none; stroke-dasharray: 2.96,1.28; stroke-dashoffset: 0; stroke: #e6e6e6; stroke-width: 0.8"/>
     </g>
     <g id="line2d_10">
      <g>
       <use xlink:href="#mb5c7bb2223" x="356.118387" y="243.24375" style="stroke: #000000; stroke-width: 0.8"/>
      </g>
     </g>
     <g id="text_5">
      <!-- 0.8 -->
      <g transform="translate(348.166824 257.842187) scale(0.1 -0.1)">
       <defs>
        <path id="DejaVuSans-38" d="M 2034 2216 
Q 1584 2216 1326 1975 
Q 1069 1734 1069 1313 
Q 1069 891 1326 650 
Q 1584 409 2034 409 
Q 2484 409 2743 651 
Q 3003 894 3003 1313 
Q 3003 1734 2745 1975 
Q 2488 2216 2034 2216 
z
M 1403 2484 
Q 997 2584 770 2862 
Q 544 3141 544 3541 
Q 544 4100 942 4425 
Q 1341 4750 2034 4750 
Q 2731 4750 3128 4425 
Q 3525 4100 3525 3541 
Q 3525 3141 3298 2862 
Q 3072 2584 2669 2484 
Q 3125 2378 3379 2068 
Q 3634 1759 3634 1313 
Q 3634 634 3220 271 
Q 2806 -91 2034 -91 
Q 1263 -91 848 271 
Q 434 634 434 1313 
Q 434 1759 690 2068 
Q 947 2378 1403 2484 
z
M 1172 3481 
Q 1172 3119 1398 2916 
Q 1625 2713 2034 2713 
Q 2441 2713 2670 2916 
Q 2900 3119 2900 3481 
Q 2900 3844 2670 4047 
Q 2441 4250 2034 4250 
Q 1625 4250 1398 4047 
Q 1172 3844 1172 3481 
z
" transform="scale(0.015625)"/>
       </defs>
       <use xlink:href="#DejaVuSans-30"/>
       <use xlink:href="#DejaVuSans-2e" transform="translate(63.623047 0)"/>
       <use xlink:href="#DejaVuSans-38" transform="translate(95.410156 0)"/>
      </g>
     </g>
    </g>
    <g id="xtick_6">
     <g id="line2d_11">
      <path d="M 428.490418 243.24375 
L 428.490418 7.2 
" clip-path="url(#p6a27942c75)" style="fill: none; stroke-dasharray: 2.96,1.28; stroke-dashoffset: 0; stroke: #e6e6e6; stroke-width: 0.8"/>
     </g>
     <g id="line2d_12">
      <g>
       <use xlink:href="#mb5c7bb2223" x="428.490418" y="243.24375" style="stroke: #000000; stroke-width: 0.8"/>
      </g>
     </g>
     <g id="text_6">
      <!-- 1.0 -->
      <g transform="translate(420.538855 257.842187) scale(0.1 -0.1)">
       <defs>
        <path id="DejaVuSans-31" d="M 794 531 
L 1825 531 
L 1825 4091 
L 703 3866 
L 703 4441 
L 1819 4666 
L 2450 4666 
L 2450 531 
L 3481 531 
L 3481 0 
L 794 0 
L 794 531 
z
" transform="scale(0.015625)"/>
       </defs>
       <use xlink:href="#DejaVuSans-31"/>
       <use xlink:href="#DejaVuSans-2e" transform="translate(63.623047 0)"/>
       <use xlink:href="#DejaVuSans-30" transform="translate(95.410156 0)"/>
      </g>
     </g>
    </g>
    <g id="text_7">
     <!-- $V_{\mathrm{GS}}\ (V)$ -->
     <g transform="translate(253.63125 271.520312) scale(0.1 -0.1)">
      <defs>
       <path id="DejaVuSans-Oblique-56" d="M 1319 0 
L 500 4666 
L 1119 4666 
L 1797 653 
L 4063 4666 
L 4750 4666 
L 2053 0 
L 1319 0 
z
" transform="scale(0.015625)"/>
       <path id="DejaVuSans-47" d="M 3809 666 
L 3809 1919 
L 2778 1919 
L 2778 2438 
L 4434 2438 
L 4434 434 
Q 4069 175 3628 42 
Q 3188 -91 2688 -91 
Q 1594 -91 976 548 
Q 359 1188 359 2328 
Q 359 3472 976 4111 
Q 1594 4750 2688 4750 
Q 3144 4750 3555 4637 
Q 3966 4525 4313 4306 
L 4313 3634 
Q 3963 3931 3569 4081 
Q 3175 4231 2741 4231 
Q 1884 4231 1454 3753 
Q 1025 3275 1025 2328 
Q 1025 1384 1454 906 
Q 1884 428 2741 428 
Q 3075 428 3337 486 
Q 3600 544 3809 666 
z
" transform="scale(0.015625)"/>
       <path id="DejaVuSans-53" d="M 3425 4513 
L 3425 3897 
Q 3066 4069 2747 4153 
Q 2428 4238 2131 4238 
Q 1616 4238 1336 4038 
Q 1056 3838 1056 3469 
Q 1056 3159 1242 3001 
Q 1428 2844 1947 2747 
L 2328 2669 
Q 3034 2534 3370 2195 
Q 3706 1856 3706 1288 
Q 3706 609 3251 259 
Q 2797 -91 1919 -91 
Q 1588 -91 1214 -16 
Q 841 59 441 206 
L 441 856 
Q 825 641 1194 531 
Q 1563 422 1919 422 
Q 2459 422 2753 634 
Q 3047 847 3047 1241 
Q 3047 1584 2836 1778 
Q 2625 1972 2144 2069 
L 1759 2144 
Q 1053 2284 737 2584 
Q 422 2884 422 3419 
Q 422 4038 858 4394 
Q 1294 4750 2059 4750 
Q 2388 4750 2728 4690 
Q 3069 4631 3425 4513 
z
" transform="scale(0.015625)"/>
       <path id="DejaVuSans-28" d="M 1984 4856 
Q 1566 4138 1362 3434 
Q 1159 2731 1159 2009 
Q 1159 1288 1364 580 
Q 1569 -128 1984 -844 
L 1484 -844 
Q 1016 -109 783 600 
Q 550 1309 550 2009 
Q 550 2706 781 3412 
Q 1013 4119 1484 4856 
L 1984 4856 
z
" transform="scale(0.015625)"/>
       <path id="DejaVuSans-29" d="M 513 4856 
L 1013 4856 
Q 1481 4119 1714 3412 
Q 1947 2706 1947 2009 
Q 1947 1309 1714 600 
Q 1481 -109 1013 -844 
L 513 -844 
Q 928 -128 1133 580 
Q 1338 1288 1338 2009 
Q 1338 2731 1133 3434 
Q 928 4138 513 4856 
z
" transform="scale(0.015625)"/>
      </defs>
      <use xlink:href="#DejaVuSans-Oblique-56" transform="translate(0 0.125)"/>
      <use xlink:href="#DejaVuSans-47" transform="translate(68.408203 -16.28125) scale(0.7)"/>
      <use xlink:href="#DejaVuSans-53" transform="translate(122.651367 -16.28125) scale(0.7)"/>
      <use xlink:href="#DejaVuSans-28" transform="translate(202.289714 0.125)"/>
      <use xlink:href="#DejaVuSans-Oblique-56" transform="translate(241.303386 0.125)"/>
      <use xlink:href="#DejaVuSans-29" transform="translate(309.711589 0.125)"/>
     </g>
    </g>
   </g>
   <g id="matplotlib.axis_2">
    <g id="ytick_1">
     <g id="line2d_13">
      <path d="M 50.165625 236.569592 
L 491.996875 236.569592 
" clip-path="url(#p6a27942c75)" style="fill: none; stroke-dasharray: 2.96,1.28; stroke-dashoffset: 0; stroke: #e6e6e6; stroke-width: 0.8"/>
     </g>
     <g id="line2d_14">
      <defs>
       <path id="m5ebea4d4ec" d="M 0 0 
L -3.5 0 
" style="stroke: #000000; stroke-width: 0.8"/>
      </defs>
      <g>
       <use xlink:href="#m5ebea4d4ec" x="50.165625" y="236.569592" style="stroke: #000000; stroke-width: 0.8"/>
      </g>
     </g>
     <g id="text_8">
      <!-- 0.0 -->
      <g transform="translate(27.2625 240.368811) scale(0.1 -0.1)">
       <use xlink:href="#DejaVuSans-30"/>
       <use xlink:href="#DejaVuSans-2e" transform="translate(63.623047 0)"/>
       <use xlink:href="#DejaVuSans-30" transform="translate(95.410156 0)"/>
      </g>
     </g>
    </g>
    <g id="ytick_2">
     <g id="line2d_15">
      <path d="M 50.165625 209.96911 
L 491.996875 209.96911 
" clip-path="url(#p6a27942c75)" style="fill: none; stroke-dasharray: 2.96,1.28; stroke-dashoffset: 0; stroke: #e6e6e6; stroke-width: 0.8"/>
     </g>
     <g id="line2d_16">
      <g>
       <use xlink:href="#m5ebea4d4ec" x="50.165625" y="209.96911" style="stroke: #000000; stroke-width: 0.8"/>
      </g>
     </g>
     <g id="text_9">
      <!-- 2.5 -->
      <g transform="translate(27.2625 213.768329) scale(0.1 -0.1)">
       <defs>
        <path id="DejaVuSans-35" d="M 691 4666 
L 3169 4666 
L 3169 4134 
L 1269 4134 
L 1269 2991 
Q 1406 3038 1543 3061 
Q 1681 3084 1819 3084 
Q 2600 3084 3056 2656 
Q 3513 2228 3513 1497 
Q 3513 744 3044 326 
Q 2575 -91 1722 -91 
Q 1428 -91 1123 -41 
Q 819 9 494 109 
L 494 744 
Q 775 591 1075 516 
Q 1375 441 1709 441 
Q 2250 441 2565 725 
Q 2881 1009 2881 1497 
Q 2881 1984 2565 2268 
Q 2250 2553 1709 2553 
Q 1456 2553 1204 2497 
Q 953 2441 691 2322 
L 691 4666 
z
" transform="scale(0.015625)"/>
       </defs>
       <use xlink:href="#DejaVuSans-32"/>
       <use xlink:href="#DejaVuSans-2e" transform="translate(63.623047 0)"/>
       <use xlink:href="#DejaVuSans-35" transform="translate(95.410156 0)"/>
      </g>
     </g>
    </g>
    <g id="ytick_3">
     <g id="line2d_17">
      <path d="M 50.165625 183.368627 
L 491.996875 183.368627 
" clip-path="url(#p6a27942c75)" style="fill: none; stroke-dasharray: 2.96,1.28; stroke-dashoffset: 0; stroke: #e6e6e6; stroke-width: 0.8"/>
     </g>
     <g id="line2d_18">
      <g>
       <use xlink:href="#m5ebea4d4ec" x="50.165625" y="183.368627" style="stroke: #000000; stroke-width: 0.8"/>
      </g>
     </g>
     <g id="text_10">
      <!-- 5.0 -->
      <g transform="translate(27.2625 187.167846) scale(0.1 -0.1)">
       <use xlink:href="#DejaVuSans-35"/>
       <use xlink:href="#DejaVuSans-2e" transform="translate(63.623047 0)"/>
       <use xlink:href="#DejaVuSans-30" transform="translate(95.410156 0)"/>
      </g>
     </g>
    </g>
    <g id="ytick_4">
     <g id="line2d_19">
      <path d="M 50.165625 156.768145 
L 491.996875 156.768145 
" clip-path="url(#p6a27942c75)" style="fill: none; stroke-dasharray: 2.96,1.28; stroke-dashoffset: 0; stroke: #e6e6e6; stroke-width: 0.8"/>
     </g>
     <g id="line2d_20">
      <g>
       <use xlink:href="#m5ebea4d4ec" x="50.165625" y="156.768145" style="stroke: #000000; stroke-width: 0.8"/>
      </g>
     </g>
     <g id="text_11">
      <!-- 7.5 -->
      <g transform="translate(27.2625 160.567364) scale(0.1 -0.1)">
       <defs>
        <path id="DejaVuSans-37" d="M 525 4666 
L 3525 4666 
L 3525 4397 
L 1831 0 
L 1172 0 
L 2766 4134 
L 525 4134 
L 525 4666 
z
" transform="scale(0.015625)"/>
       </defs>
       <use xlink:href="#DejaVuSans-37"/>
       <use xlink:href="#DejaVuSans-2e" transform="translate(63.623047 0)"/>
       <use xlink:href="#DejaVuSans-35" transform="translate(95.410156 0)"/>
      </g>
     </g>
    </g>
    <g id="ytick_5">
     <g id="line2d_21">
      <path d="M 50.165625 130.167662 
L 491.996875 130.167662 
" clip-path="url(#p6a27942c75)" style="fill: none; stroke-dasharray: 2.96,1.28; stroke-dashoffset: 0; stroke: #e6e6e6; stroke-width: 0.8"/>
     </g>
     <g id="line2d_22">
      <g>
       <use xlink:href="#m5ebea4d4ec" x="50.165625" y="130.167662" style="stroke: #000000; stroke-width: 0.8"/>
      </g>
     </g>
     <g id="text_12">
      <!-- 10.0 -->
      <g transform="translate(20.9 133.966881) scale(0.1 -0.1)">
       <use xlink:href="#DejaVuSans-31"/>
       <use xlink:href="#DejaVuSans-30" transform="translate(63.623047 0)"/>
       <use xlink:href="#DejaVuSans-2e" transform="translate(127.246094 0)"/>
       <use xlink:href="#DejaVuSans-30" transform="translate(159.033203 0)"/>
      </g>
     </g>
    </g>
    <g id="ytick_6">
     <g id="line2d_23">
      <path d="M 50.165625 103.56718 
L 491.996875 103.56718 
" clip-path="url(#p6a27942c75)" style="fill: none; stroke-dasharray: 2.96,1.28; stroke-dashoffset: 0; stroke: #e6e6e6; stroke-width: 0.8"/>
     </g>
     <g id="line2d_24">
      <g>
       <use xlink:href="#m5ebea4d4ec" x="50.165625" y="103.56718" style="stroke: #000000; stroke-width: 0.8"/>
      </g>
     </g>
     <g id="text_13">
      <!-- 12.5 -->
      <g transform="translate(20.9 107.366399) scale(0.1 -0.1)">
       <use xlink:href="#DejaVuSans-31"/>
       <use xlink:href="#DejaVuSans-32" transform="translate(63.623047 0)"/>
       <use xlink:href="#DejaVuSans-2e" transform="translate(127.246094 0)"/>
       <use xlink:href="#DejaVuSans-35" transform="translate(159.033203 0)"/>
      </g>
     </g>
    </g>
    <g id="ytick_7">
     <g id="line2d_25">
      <path d="M 50.165625 76.966698 
L 491.996875 76.966698 
" clip-path="url(#p6a27942c75)" style="fill: none; stroke-dasharray: 2.96,1.28; stroke-dashoffset: 0; stroke: #e6e6e6; stroke-width: 0.8"/>
     </g>
     <g id="line2d_26">
      <g>
       <use xlink:href="#m5ebea4d4ec" x="50.165625" y="76.966698" style="stroke: #000000; stroke-width: 0.8"/>
      </g>
     </g>
     <g id="text_14">
      <!-- 15.0 -->
      <g transform="translate(20.9 80.765916) scale(0.1 -0.1)">
       <use xlink:href="#DejaVuSans-31"/>
       <use xlink:href="#DejaVuSans-35" transform="translate(63.623047 0)"/>
       <use xlink:href="#DejaVuSans-2e" transform="translate(127.246094 0)"/>
       <use xlink:href="#DejaVuSans-30" transform="translate(159.033203 0)"/>
      </g>
     </g>
    </g>
    <g id="ytick_8">
     <g id="line2d_27">
      <path d="M 50.165625 50.366215 
L 491.996875 50.366215 
" clip-path="url(#p6a27942c75)" style="fill: none; stroke-dasharray: 2.96,1.28; stroke-dashoffset: 0; stroke: #e6e6e6; stroke-width: 0.8"/>
     </g>
     <g id="line2d_28">
      <g>
       <use xlink:href="#m5ebea4d4ec" x="50.165625" y="50.366215" style="stroke: #000000; stroke-width: 0.8"/>
      </g>
     </g>
     <g id="text_15">
      <!-- 17.5 -->
      <g transform="translate(20.9 54.165434) scale(0.1 -0.1)">
       <use xlink:href="#DejaVuSans-31"/>
       <use xlink:href="#DejaVuSans-37" transform="translate(63.623047 0)"/>
       <use xlink:href="#DejaVuSans-2e" transform="translate(127.246094 0)"/>
       <use xlink:href="#DejaVuSans-35" transform="translate(159.033203 0)"/>
      </g>
     </g>
    </g>
    <g id="ytick_9">
     <g id="line2d_29">
      <path d="M 50.165625 23.765733 
L 491.996875 23.765733 
" clip-path="url(#p6a27942c75)" style="fill: none; stroke-dasharray: 2.96,1.28; stroke-dashoffset: 0; stroke: #e6e6e6; stroke-width: 0.8"/>
     </g>
     <g id="line2d_30">
      <g>
       <use xlink:href="#m5ebea4d4ec" x="50.165625" y="23.765733" style="stroke: #000000; stroke-width: 0.8"/>
      </g>
     </g>
     <g id="text_16">
      <!-- 20.0 -->
      <g transform="translate(20.9 27.564951) scale(0.1 -0.1)">
       <use xlink:href="#DejaVuSans-32"/>
       <use xlink:href="#DejaVuSans-30" transform="translate(63.623047 0)"/>
       <use xlink:href="#DejaVuSans-2e" transform="translate(127.246094 0)"/>
       <use xlink:href="#DejaVuSans-30" transform="translate(159.033203 0)"/>
      </g>
     </g>
    </g>
    <g id="text_17">
     <!-- $I_D / g_{ds} (A/S)$ -->
     <g transform="translate(14.8 150.771875) rotate(-90) scale(0.1 -0.1)">
      <defs>
       <path id="DejaVuSans-Oblique-49" d="M 1081 4666 
L 1716 4666 
L 806 0 
L 172 0 
L 1081 4666 
z
" transform="scale(0.015625)"/>
       <path id="DejaVuSans-Oblique-44" d="M 1081 4666 
L 2438 4666 
Q 3519 4666 4070 4208 
Q 4622 3750 4622 2847 
Q 4622 2250 4412 1698 
Q 4203 1147 3834 769 
Q 3463 381 2891 190 
Q 2319 0 1538 0 
L 172 0 
L 1081 4666 
z
M 1613 4147 
L 909 519 
L 1734 519 
Q 2794 519 3375 1128 
Q 3956 1738 3956 2847 
Q 3956 3519 3581 3833 
Q 3206 4147 2406 4147 
L 1613 4147 
z
" transform="scale(0.015625)"/>
       <path id="DejaVuSans-2f" d="M 1625 4666 
L 2156 4666 
L 531 -594 
L 0 -594 
L 1625 4666 
z
" transform="scale(0.015625)"/>
       <path id="DejaVuSans-Oblique-67" d="M 3816 3500 
L 3219 434 
Q 3047 -456 2561 -893 
Q 2075 -1331 1253 -1331 
Q 950 -1331 690 -1286 
Q 431 -1241 206 -1147 
L 313 -588 
Q 525 -725 762 -790 
Q 1000 -856 1269 -856 
Q 1816 -856 2167 -557 
Q 2519 -259 2631 300 
L 2681 563 
Q 2441 288 2122 144 
Q 1803 0 1434 0 
Q 903 0 598 351 
Q 294 703 294 1319 
Q 294 1803 478 2267 
Q 663 2731 997 3091 
Q 1219 3328 1514 3456 
Q 1809 3584 2131 3584 
Q 2484 3584 2746 3420 
Q 3009 3256 3138 2956 
L 3238 3500 
L 3816 3500 
z
M 2950 2216 
Q 2950 2641 2750 2872 
Q 2550 3103 2181 3103 
Q 1953 3103 1747 3012 
Q 1541 2922 1394 2759 
Q 1156 2491 1023 2127 
Q 891 1763 891 1375 
Q 891 944 1092 712 
Q 1294 481 1672 481 
Q 2219 481 2584 976 
Q 2950 1472 2950 2216 
z
" transform="scale(0.015625)"/>
       <path id="DejaVuSans-Oblique-64" d="M 2675 525 
Q 2444 222 2128 65 
Q 1813 -91 1428 -91 
Q 903 -91 598 267 
Q 294 625 294 1247 
Q 294 1766 478 2236 
Q 663 2706 1013 3078 
Q 1244 3325 1534 3454 
Q 1825 3584 2144 3584 
Q 2481 3584 2739 3421 
Q 2997 3259 3138 2956 
L 3513 4863 
L 4091 4863 
L 3144 0 
L 2566 0 
L 2675 525 
z
M 891 1350 
Q 891 897 1095 644 
Q 1300 391 1663 391 
Q 1931 391 2161 520 
Q 2391 650 2566 903 
Q 2750 1166 2856 1509 
Q 2963 1853 2963 2188 
Q 2963 2622 2758 2865 
Q 2553 3109 2194 3109 
Q 1922 3109 1687 2981 
Q 1453 2853 1288 2613 
Q 1106 2353 998 2009 
Q 891 1666 891 1350 
z
" transform="scale(0.015625)"/>
       <path id="DejaVuSans-Oblique-73" d="M 3200 3397 
L 3091 2853 
Q 2863 2978 2609 3040 
Q 2356 3103 2088 3103 
Q 1634 3103 1373 2948 
Q 1113 2794 1113 2528 
Q 1113 2219 1719 2053 
Q 1766 2041 1788 2034 
L 1972 1978 
Q 2547 1819 2739 1644 
Q 2931 1469 2931 1166 
Q 2931 609 2489 259 
Q 2047 -91 1331 -91 
Q 1053 -91 747 -37 
Q 441 16 72 128 
L 184 722 
Q 500 559 806 475 
Q 1113 391 1394 391 
Q 1816 391 2080 572 
Q 2344 753 2344 1031 
Q 2344 1331 1650 1516 
L 1591 1531 
L 1394 1581 
Q 956 1697 753 1886 
Q 550 2075 550 2369 
Q 550 2928 970 3256 
Q 1391 3584 2113 3584 
Q 2397 3584 2667 3537 
Q 2938 3491 3200 3397 
z
" transform="scale(0.015625)"/>
       <path id="DejaVuSans-Oblique-41" d="M 2356 4666 
L 3072 4666 
L 3938 0 
L 3278 0 
L 3084 1197 
L 984 1197 
L 325 0 
L -341 0 
L 2356 4666 
z
M 2584 4044 
L 1275 1722 
L 2988 1722 
L 2584 4044 
z
" transform="scale(0.015625)"/>
       <path id="DejaVuSans-Oblique-53" d="M 3859 4513 
L 3738 3897 
Q 3422 4066 3111 4152 
Q 2800 4238 2509 4238 
Q 1944 4238 1609 3991 
Q 1275 3744 1275 3334 
Q 1275 3109 1398 2989 
Q 1522 2869 2034 2731 
L 2413 2638 
Q 3053 2472 3303 2217 
Q 3553 1963 3553 1503 
Q 3553 797 2998 353 
Q 2444 -91 1538 -91 
Q 1166 -91 791 -17 
Q 416 56 38 206 
L 166 856 
Q 513 641 861 531 
Q 1209 422 1556 422 
Q 2147 422 2503 684 
Q 2859 947 2859 1369 
Q 2859 1650 2717 1795 
Q 2575 1941 2106 2059 
L 1728 2156 
Q 1081 2325 845 2545 
Q 609 2766 609 3163 
Q 609 3859 1145 4304 
Q 1681 4750 2541 4750 
Q 2875 4750 3203 4690 
Q 3531 4631 3859 4513 
z
" transform="scale(0.015625)"/>
      </defs>
      <use xlink:href="#DejaVuSans-Oblique-49" transform="translate(0 0.125)"/>
      <use xlink:href="#DejaVuSans-Oblique-44" transform="translate(29.492188 -16.28125) scale(0.7)"/>
      <use xlink:href="#DejaVuSans-2f" transform="translate(86.12793 0.125)"/>
      <use xlink:href="#DejaVuSans-Oblique-67" transform="translate(119.819336 0.125)"/>
      <use xlink:href="#DejaVuSans-Oblique-64" transform="translate(183.295898 -16.28125) scale(0.7)"/>
      <use xlink:href="#DejaVuSans-Oblique-73" transform="translate(227.729492 -16.28125) scale(0.7)"/>
      <use xlink:href="#DejaVuSans-28" transform="translate(266.933594 0.125)"/>
      <use xlink:href="#DejaVuSans-Oblique-41" transform="translate(305.947266 0.125)"/>
      <use xlink:href="#DejaVuSans-2f" transform="translate(374.355469 0.125)"/>
      <use xlink:href="#DejaVuSans-Oblique-53" transform="translate(408.046875 0.125)"/>
      <use xlink:href="#DejaVuSans-29" transform="translate(471.523438 0.125)"/>
     </g>
    </g>
   </g>
   <g id="line2d_31">
    <path d="M 70.248864 232.514489 
L 73.867465 232.506968 
L 77.486067 232.498273 
L 81.104668 232.48826 
L 84.72327 232.476769 
L 88.341871 232.463612 
L 91.960473 232.448583 
L 95.579075 232.431455 
L 99.197676 232.411978 
L 102.816278 232.389889 
L 106.434879 232.364903 
L 110.053481 232.336726 
L 113.672082 232.305058 
L 117.290684 232.269592 
L 120.909285 232.230034 
L 124.527887 232.186106 
L 128.146489 232.137551 
L 131.76509 232.084156 
L 135.383692 232.025756 
L 139.002293 231.962235 
L 142.620895 231.893546 
L 146.239496 231.8197 
L 149.858098 231.740762 
L 153.476699 231.656837 
L 157.095301 231.568056 
L 160.713903 231.474545 
L 164.332504 231.376382 
L 167.951106 231.273583 
L 171.569707 231.16606 
L 175.188309 231.053584 
L 178.80691 230.935785 
L 182.425512 230.812122 
L 186.044113 230.681898 
L 189.662715 230.544271 
L 193.281317 230.398281 
L 196.899918 230.242888 
L 200.51852 230.077015 
L 204.137121 229.899594 
L 207.755723 229.709619 
L 211.374324 229.5062 
L 214.992926 229.288588 
L 218.611527 229.056207 
L 222.230129 228.808717 
L 225.848731 228.545973 
L 229.467332 228.268069 
L 233.085934 227.975328 
L 236.704535 227.668271 
L 240.323137 227.347616 
L 243.941738 227.014251 
L 247.56034 226.669198 
L 251.178941 226.313598 
L 254.797543 225.948661 
L 258.416145 225.575672 
L 262.034746 225.195926 
L 265.653348 224.810738 
L 269.271949 224.421398 
L 272.890551 224.029173 
L 276.509152 223.63528 
L 280.127754 223.24088 
L 283.746355 222.847075 
L 287.364957 222.45489 
L 290.983559 222.065284 
L 294.60216 221.679136 
L 298.220762 221.297247 
L 301.839363 220.92034 
L 305.457965 220.549099 
L 309.076566 220.184101 
L 312.695168 219.825896 
L 316.313769 219.474936 
L 319.932371 219.131632 
L 323.550973 218.796363 
L 327.169574 218.469443 
L 330.788176 218.151137 
L 334.406777 217.841678 
L 338.025379 217.541277 
L 341.64398 217.250094 
L 345.262582 216.968279 
L 348.881183 216.695921 
L 352.499785 216.43314 
L 356.118387 216.17998 
L 359.736988 215.936508 
L 363.35559 215.702761 
L 366.974191 215.478779 
L 370.592793 215.264549 
L 374.211394 215.060076 
L 377.829996 214.865372 
L 381.448597 214.680403 
L 385.067199 214.505149 
L 388.685801 214.339591 
L 392.304402 214.183668 
L 395.923004 214.037367 
L 399.541605 213.900622 
L 403.160207 213.773396 
L 406.778808 213.655649 
L 410.39741 213.547314 
L 414.016011 213.448333 
L 417.634613 213.358631 
L 421.253215 213.278186 
L 424.871816 213.206899 
L 428.490418 213.144706 
L 432.109019 213.091562 
L 435.727621 213.047376 
L 439.346222 213.012078 
L 442.964824 212.985604 
L 446.583425 212.967872 
L 450.202027 212.958805 
L 453.820629 212.958321 
L 457.43923 212.966342 
L 461.057832 212.982783 
L 464.676433 213.007555 
L 468.295035 213.04058 
L 471.913636 213.081755 
" clip-path="url(#p6a27942c75)" style="fill: none; stroke: #1f77b4; stroke-width: 1.5; stroke-linecap: square"/>
   </g>
   <g id="line2d_32">
    <path d="M 70.248864 223.961581 
L 73.867465 223.958486 
L 77.486067 223.953336 
L 81.104668 223.946239 
L 84.72327 223.937206 
L 88.341871 223.926131 
L 91.960473 223.91287 
L 95.579075 223.897171 
L 99.197676 223.878733 
L 102.816278 223.857194 
L 106.434879 223.832133 
L 110.053481 223.803046 
L 113.672082 223.769377 
L 117.290684 223.730465 
L 120.909285 223.685605 
L 124.527887 223.633995 
L 128.146489 223.57472 
L 131.76509 223.506781 
L 135.383692 223.429049 
L 139.002293 223.340272 
L 142.620895 223.239053 
L 146.239496 223.123805 
L 149.858098 222.99281 
L 153.476699 222.844082 
L 157.095301 222.675493 
L 160.713903 222.484687 
L 164.332504 222.269161 
L 167.951106 222.026278 
L 171.569707 221.753369 
L 175.188309 221.447821 
L 178.80691 221.10722 
L 182.425512 220.729385 
L 186.044113 220.312673 
L 189.662715 219.855883 
L 193.281317 219.358554 
L 196.899918 218.820922 
L 200.51852 218.244005 
L 204.137121 217.629624 
L 207.755723 216.980359 
L 211.374324 216.299532 
L 214.992926 215.591066 
L 218.611527 214.859423 
L 222.230129 214.109438 
L 225.848731 213.346238 
L 229.467332 212.57502 
L 233.085934 211.800955 
L 236.704535 211.029112 
L 240.323137 210.264254 
L 243.941738 209.510856 
L 247.56034 208.772979 
L 251.178941 208.054258 
L 254.797543 207.357852 
L 258.416145 206.686518 
L 262.034746 206.042499 
L 265.653348 205.427685 
L 269.271949 204.843529 
L 272.890551 204.291195 
L 276.509152 203.771416 
L 280.127754 203.284775 
L 283.746355 202.831527 
L 287.364957 202.411734 
L 290.983559 202.025287 
L 294.60216 201.671936 
L 298.220762 201.35132 
L 301.839363 201.062937 
L 305.457965 200.806244 
L 309.076566 200.580632 
L 312.695168 200.385383 
L 316.313769 200.219868 
L 319.932371 200.083339 
L 323.550973 199.974999 
L 327.169574 199.894184 
L 330.788176 199.840045 
L 334.406777 199.811905 
L 338.025379 199.808944 
L 341.64398 199.830472 
L 345.262582 199.875733 
L 348.881183 199.943997 
L 352.499785 200.034564 
L 356.118387 200.146704 
L 359.736988 200.27974 
L 363.35559 200.432999 
L 366.974191 200.605815 
L 370.592793 200.797543 
L 374.211394 201.007528 
L 377.829996 201.235131 
L 381.448597 201.479721 
L 385.067199 201.740725 
L 388.685801 202.017492 
L 392.304402 202.309437 
L 395.923004 202.615958 
L 399.541605 202.936457 
L 403.160207 203.270364 
L 406.778808 203.617055 
L 410.39741 203.975967 
L 414.016011 204.346485 
L 417.634613 204.72802 
L 421.253215 205.119966 
L 424.871816 205.521695 
L 428.490418 205.932611 
L 432.109019 206.35209 
L 435.727621 206.779462 
L 439.346222 207.214063 
L 442.964824 207.655259 
L 446.583425 208.10234 
L 450.202027 208.554587 
L 453.820629 209.011311 
L 457.43923 209.471754 
L 461.057832 209.935134 
L 464.676433 210.400697 
L 468.295035 210.867621 
L 471.913636 211.335137 
" clip-path="url(#p6a27942c75)" style="fill: none; stroke: #ff7f0e; stroke-width: 1.5; stroke-linecap: square"/>
   </g>
   <g id="line2d_33">
    <path d="M 70.248864 210.159166 
L 73.867465 210.157832 
L 77.486067 210.148795 
L 81.104668 210.132943 
L 84.72327 210.110631 
L 88.341871 210.081861 
L 91.960473 210.046237 
L 95.579075 210.003119 
L 99.197676 209.951537 
L 102.816278 209.890291 
L 106.434879 209.817849 
L 110.053481 209.732326 
L 113.672082 209.631477 
L 117.290684 209.512591 
L 120.909285 209.372463 
L 124.527887 209.207214 
L 128.146489 209.012343 
L 131.76509 208.782502 
L 135.383692 208.511496 
L 139.002293 208.192189 
L 142.620895 207.816593 
L 146.239496 207.375831 
L 149.858098 206.860516 
L 153.476699 206.260947 
L 157.095301 205.567558 
L 160.713903 204.771557 
L 164.332504 203.865382 
L 167.951106 202.84329 
L 171.569707 201.701886 
L 175.188309 200.440391 
L 178.80691 199.060854 
L 182.425512 197.5681 
L 186.044113 195.969658 
L 189.662715 194.275417 
L 193.281317 192.497272 
L 196.899918 190.648574 
L 200.51852 188.74391 
L 204.137121 186.798433 
L 207.755723 184.827492 
L 211.374324 182.846246 
L 214.992926 180.869358 
L 218.611527 178.910613 
L 222.230129 176.982808 
L 225.848731 175.09754 
L 229.467332 173.265109 
L 233.085934 171.494596 
L 236.704535 169.793775 
L 240.323137 168.169064 
L 243.941738 166.625947 
L 247.56034 165.168605 
L 251.178941 163.800443 
L 254.797543 162.524113 
L 258.416145 161.341321 
L 262.034746 160.253258 
L 265.653348 159.260621 
L 269.271949 158.363718 
L 272.890551 157.562383 
L 276.509152 156.85636 
L 280.127754 156.244941 
L 283.746355 155.727562 
L 287.364957 155.303284 
L 290.983559 154.971204 
L 294.60216 154.730368 
L 298.220762 154.579823 
L 301.839363 154.518488 
L 305.457965 154.545515 
L 309.076566 154.659896 
L 312.695168 154.860776 
L 316.313769 155.147239 
L 319.932371 155.518543 
L 323.550973 155.973953 
L 327.169574 156.512794 
L 330.788176 157.134411 
L 334.406777 157.838292 
L 338.025379 158.62393 
L 341.64398 159.490858 
L 345.262582 160.438664 
L 348.881183 161.466944 
L 352.499785 162.575336 
L 356.118387 163.76339 
L 359.736988 165.030633 
L 363.35559 166.376497 
L 366.974191 167.80017 
L 370.592793 169.30075 
L 374.211394 170.876896 
L 377.829996 172.526844 
L 381.448597 174.248187 
L 385.067199 176.03798 
L 388.685801 177.892222 
L 392.304402 179.805948 
L 395.923004 181.772907 
L 399.541605 183.785376 
L 403.160207 185.834239 
L 406.778808 187.908703 
L 410.39741 189.996485 
L 414.016011 192.083882 
L 417.634613 194.156278 
L 421.253215 196.198314 
L 424.871816 198.194814 
L 428.490418 200.131171 
L 432.109019 201.994216 
L 435.727621 203.772717 
L 439.346222 205.457914 
L 442.964824 207.043632 
L 446.583425 208.526507 
L 450.202027 209.905702 
L 453.820629 211.182656 
L 457.43923 212.360646 
L 461.057832 213.44433 
L 464.676433 214.439313 
L 468.295035 215.351768 
L 471.913636 216.18813 
" clip-path="url(#p6a27942c75)" style="fill: none; stroke: #2ca02c; stroke-width: 1.5; stroke-linecap: square"/>
   </g>
   <g id="line2d_34">
    <path d="M 70.248864 199.112128 
L 73.867465 199.114624 
L 77.486067 199.102808 
L 81.104668 199.078419 
L 84.72327 199.042119 
L 88.341871 198.993806 
L 91.960473 198.9326 
L 95.579075 198.857015 
L 99.197676 198.76482 
L 102.816278 198.653047 
L 106.434879 198.517954 
L 110.053481 198.354781 
L 113.672082 198.157665 
L 117.290684 197.919432 
L 120.909285 197.631369 
L 124.527887 197.283096 
L 128.146489 196.862398 
L 131.76509 196.35513 
L 135.383692 195.745367 
L 139.002293 195.015606 
L 142.620895 194.147285 
L 146.239496 193.121537 
L 149.858098 191.920003 
L 153.476699 190.526056 
L 157.095301 188.925729 
L 160.713903 187.108803 
L 164.332504 185.069585 
L 167.951106 182.807315 
L 171.569707 180.326372 
L 175.188309 177.636125 
L 178.80691 174.750351 
L 182.425512 171.686842 
L 186.044113 168.466486 
L 189.662715 165.112491 
L 193.281317 161.649661 
L 196.899918 158.103583 
L 200.51852 154.499782 
L 204.137121 150.863606 
L 207.755723 147.219069 
L 211.374324 143.589032 
L 214.992926 139.994724 
L 218.611527 136.455485 
L 222.230129 132.988667 
L 225.848731 129.609968 
L 229.467332 126.332996 
L 233.085934 123.169683 
L 236.704535 120.130441 
L 240.323137 117.224129 
L 243.941738 114.458346 
L 247.56034 111.839566 
L 251.178941 109.373351 
L 254.797543 107.06446 
L 258.416145 104.917022 
L 262.034746 102.934588 
L 265.653348 101.120407 
L 269.271949 99.477441 
L 272.890551 98.008399 
L 276.509152 96.715961 
L 280.127754 95.602814 
L 283.746355 94.67167 
L 287.364957 93.925043 
L 290.983559 93.366111 
L 294.60216 92.997916 
L 298.220762 92.823637 
L 301.839363 92.847108 
L 305.457965 93.072002 
L 309.076566 93.502591 
L 312.695168 94.14324 
L 316.313769 94.998808 
L 319.932371 96.074267 
L 323.550973 97.375239 
L 327.169574 98.907194 
L 330.788176 100.675926 
L 334.406777 102.687188 
L 338.025379 104.946672 
L 341.64398 107.459828 
L 345.262582 110.231213 
L 348.881183 113.26463 
L 352.499785 116.562069 
L 356.118387 120.12351 
L 359.736988 123.946001 
L 363.35559 128.02266 
L 366.974191 132.341879 
L 370.592793 136.886176 
L 374.211394 141.631145 
L 377.829996 146.544812 
L 381.448597 151.587041 
L 385.067199 156.709722 
L 388.685801 161.857741 
L 392.304402 166.970767 
L 395.923004 171.985948 
L 399.541605 176.841568 
L 403.160207 181.480706 
L 406.778808 185.85501 
L 410.39741 189.927549 
L 414.016011 193.674518 
L 417.634613 197.085409 
L 421.253215 200.162082 
L 424.871816 202.91651 
L 428.490418 205.36823 
L 432.109019 207.541665 
L 435.727621 209.463638 
L 439.346222 211.161443 
L 442.964824 212.661513 
L 446.583425 213.988424 
L 450.202027 215.164468 
L 453.820629 216.209473 
L 457.43923 217.140803 
L 461.057832 217.97355 
L 464.676433 218.720702 
L 468.295035 219.393418 
L 471.913636 220.001251 
" clip-path="url(#p6a27942c75)" style="fill: none; stroke: #d62728; stroke-width: 1.5; stroke-linecap: square"/>
   </g>
   <g id="line2d_35">
    <path d="M 70.248864 186.75448 
L 73.867465 186.771122 
L 77.486067 186.763547 
L 81.104668 186.735094 
L 84.72327 186.687006 
L 88.341871 186.619141 
L 91.960473 186.529916 
L 95.579075 186.416363 
L 99.197676 186.27425 
L 102.816278 186.097738 
L 106.434879 185.879262 
L 110.053481 185.609284 
L 113.672082 185.275981 
L 117.290684 184.864854 
L 120.909285 184.358555 
L 124.527887 183.736659 
L 128.146489 182.97571 
L 131.76509 182.049425 
L 135.383692 180.929288 
L 139.002293 179.585468 
L 142.620895 177.98819 
L 146.239496 176.109193 
L 149.858098 173.923545 
L 153.476699 171.411211 
L 157.095301 168.558532 
L 160.713903 165.359171 
L 164.332504 161.81464 
L 167.951106 157.934367 
L 171.569707 153.734915 
L 175.188309 149.239554 
L 178.80691 144.476706 
L 182.425512 139.478948 
L 186.044113 134.281795 
L 189.662715 128.922267 
L 193.281317 123.438018 
L 196.899918 117.866279 
L 200.51852 112.243103 
L 204.137121 106.602809 
L 207.755723 100.977544 
L 211.374324 95.396814 
L 214.992926 89.887836 
L 218.611527 84.474811 
L 222.230129 79.179941 
L 225.848731 74.022272 
L 229.467332 69.01942 
L 233.085934 64.186464 
L 236.704535 59.537204 
L 240.323137 55.083644 
L 243.941738 50.836643 
L 247.56034 46.806063 
L 251.178941 43.001178 
L 254.797543 39.430614 
L 258.416145 36.102672 
L 262.034746 33.025267 
L 265.653348 30.206474 
L 269.271949 27.654413 
L 272.890551 25.377384 
L 276.509152 23.384175 
L 280.127754 21.683633 
L 283.746355 20.285439 
L 287.364957 19.199782 
L 290.983559 18.437417 
L 294.60216 18.009851 
L 298.220762 17.929261 
L 301.839363 18.208697 
L 305.457965 18.861735 
L 309.076566 19.902866 
L 312.695168 21.346987 
L 316.313769 23.209641 
L 319.932371 25.5066 
L 323.550973 28.25363 
L 327.169574 31.466036 
L 330.788176 35.158245 
L 334.406777 39.343267 
L 338.025379 44.031472 
L 341.64398 49.229476 
L 345.262582 54.939188 
L 348.881183 61.156283 
L 352.499785 67.867998 
L 356.118387 75.051591 
L 359.736988 82.672523 
L 363.35559 90.682551 
L 366.974191 99.018794 
L 370.592793 107.602925 
L 374.211394 116.3423 
L 377.829996 125.131396 
L 381.448597 133.85634 
L 385.067199 142.399355 
L 388.685801 150.645805 
L 392.304402 158.490909 
L 395.923004 165.846256 
L 399.541605 172.645298 
L 403.160207 178.846127 
L 406.778808 184.432154 
L 410.39741 189.409977 
L 414.016011 193.80552 
L 417.634613 197.65887 
L 421.253215 201.01907 
L 424.871816 203.939265 
L 428.490418 206.47289 
L 432.109019 208.670867 
L 435.727621 210.579915 
L 439.346222 212.241773 
L 442.964824 213.692814 
L 446.583425 214.964374 
L 450.202027 216.083146 
L 453.820629 217.071666 
L 457.43923 217.948906 
L 461.057832 218.730797 
L 464.676433 219.430732 
L 468.295035 220.059909 
L 471.913636 220.62781 
" clip-path="url(#p6a27942c75)" style="fill: none; stroke: #9467bd; stroke-width: 1.5; stroke-linecap: square"/>
   </g>
   <g id="patch_3">
    <path d="M 50.165625 243.24375 
L 50.165625 7.2 
" style="fill: none; stroke: #000000; stroke-width: 0.8; stroke-linejoin: miter; stroke-linecap: square"/>
   </g>
   <g id="patch_4">
    <path d="M 491.996875 243.24375 
L 491.996875 7.2 
" style="fill: none; stroke: #000000; stroke-width: 0.8; stroke-linejoin: miter; stroke-linecap: square"/>
   </g>
   <g id="patch_5">
    <path d="M 50.165625 243.24375 
L 491.996875 243.24375 
" style="fill: none; stroke: #000000; stroke-width: 0.8; stroke-linejoin: miter; stroke-linecap: square"/>
   </g>
   <g id="patch_6">
    <path d="M 50.165625 7.2 
L 491.996875 7.2 
" style="fill: none; stroke: #000000; stroke-width: 0.8; stroke-linejoin: miter; stroke-linecap: square"/>
   </g>
   <g id="legend_1">
    <g id="patch_7">
     <path d="M 498.996875 171.724062 
L 559.6 171.724062 
Q 561.6 171.724062 561.6 169.724062 
L 561.6 80.719687 
Q 561.6 78.719687 559.6 78.719687 
L 498.996875 78.719687 
Q 496.996875 78.719687 496.996875 80.719687 
L 496.996875 169.724062 
Q 496.996875 171.724062 498.996875 171.724062 
z
" style="fill: #ffffff; opacity: 0.8; stroke: #cccccc; stroke-linejoin: miter"/>
    </g>
    <g id="text_18">
     <!-- Length -->
     <g transform="translate(508.602188 91.837812) scale(0.12 -0.12)">
      <defs>
       <path id="DejaVuSans-4c" d="M 628 4666 
L 1259 4666 
L 1259 531 
L 3531 531 
L 3531 0 
L 628 0 
L 628 4666 
z
" transform="scale(0.015625)"/>
       <path id="DejaVuSans-65" d="M 3597 1894 
L 3597 1613 
L 953 1613 
Q 991 1019 1311 708 
Q 1631 397 2203 397 
Q 2534 397 2845 478 
Q 3156 559 3463 722 
L 3463 178 
Q 3153 47 2828 -22 
Q 2503 -91 2169 -91 
Q 1331 -91 842 396 
Q 353 884 353 1716 
Q 353 2575 817 3079 
Q 1281 3584 2069 3584 
Q 2775 3584 3186 3129 
Q 3597 2675 3597 1894 
z
M 3022 2063 
Q 3016 2534 2758 2815 
Q 2500 3097 2075 3097 
Q 1594 3097 1305 2825 
Q 1016 2553 972 2059 
L 3022 2063 
z
" transform="scale(0.015625)"/>
       <path id="DejaVuSans-6e" d="M 3513 2113 
L 3513 0 
L 2938 0 
L 2938 2094 
Q 2938 2591 2744 2837 
Q 2550 3084 2163 3084 
Q 1697 3084 1428 2787 
Q 1159 2491 1159 1978 
L 1159 0 
L 581 0 
L 581 3500 
L 1159 3500 
L 1159 2956 
Q 1366 3272 1645 3428 
Q 1925 3584 2291 3584 
Q 2894 3584 3203 3211 
Q 3513 2838 3513 2113 
z
" transform="scale(0.015625)"/>
       <path id="DejaVuSans-67" d="M 2906 1791 
Q 2906 2416 2648 2759 
Q 2391 3103 1925 3103 
Q 1463 3103 1205 2759 
Q 947 2416 947 1791 
Q 947 1169 1205 825 
Q 1463 481 1925 481 
Q 2391 481 2648 825 
Q 2906 1169 2906 1791 
z
M 3481 434 
Q 3481 -459 3084 -895 
Q 2688 -1331 1869 -1331 
Q 1566 -1331 1297 -1286 
Q 1028 -1241 775 -1147 
L 775 -588 
Q 1028 -725 1275 -790 
Q 1522 -856 1778 -856 
Q 2344 -856 2625 -561 
Q 2906 -266 2906 331 
L 2906 616 
Q 2728 306 2450 153 
Q 2172 0 1784 0 
Q 1141 0 747 490 
Q 353 981 353 1791 
Q 353 2603 747 3093 
Q 1141 3584 1784 3584 
Q 2172 3584 2450 3431 
Q 2728 3278 2906 2969 
L 2906 3500 
L 3481 3500 
L 3481 434 
z
" transform="scale(0.015625)"/>
       <path id="DejaVuSans-74" d="M 1172 4494 
L 1172 3500 
L 2356 3500 
L 2356 3053 
L 1172 3053 
L 1172 1153 
Q 1172 725 1289 603 
Q 1406 481 1766 481 
L 2356 481 
L 2356 0 
L 1766 0 
Q 1100 0 847 248 
Q 594 497 594 1153 
L 594 3053 
L 172 3053 
L 172 3500 
L 594 3500 
L 594 4494 
L 1172 4494 
z
" transform="scale(0.015625)"/>
       <path id="DejaVuSans-68" d="M 3513 2113 
L 3513 0 
L 2938 0 
L 2938 2094 
Q 2938 2591 2744 2837 
Q 2550 3084 2163 3084 
Q 1697 3084 1428 2787 
Q 1159 2491 1159 1978 
L 1159 0 
L 581 0 
L 581 4863 
L 1159 4863 
L 1159 2956 
Q 1366 3272 1645 3428 
Q 1925 3584 2291 3584 
Q 2894 3584 3203 3211 
Q 3513 2838 3513 2113 
z
" transform="scale(0.015625)"/>
      </defs>
      <use xlink:href="#DejaVuSans-4c"/>
      <use xlink:href="#DejaVuSans-65" transform="translate(53.962891 0)"/>
      <use xlink:href="#DejaVuSans-6e" transform="translate(115.486328 0)"/>
      <use xlink:href="#DejaVuSans-67" transform="translate(178.865234 0)"/>
      <use xlink:href="#DejaVuSans-74" transform="translate(242.341797 0)"/>
      <use xlink:href="#DejaVuSans-68" transform="translate(281.550781 0)"/>
     </g>
    </g>
    <g id="line2d_36">
     <path d="M 500.996875 103.431875 
L 510.996875 103.431875 
L 520.996875 103.431875 
" style="fill: none; stroke: #1f77b4; stroke-width: 1.5; stroke-linecap: square"/>
    </g>
    <g id="text_19">
     <!-- 65 n -->
     <g transform="translate(528.996875 106.931875) scale(0.1 -0.1)">
      <defs>
       <path id="DejaVuSans-20" transform="scale(0.015625)"/>
      </defs>
      <use xlink:href="#DejaVuSans-36"/>
      <use xlink:href="#DejaVuSans-35" transform="translate(63.623047 0)"/>
      <use xlink:href="#DejaVuSans-20" transform="translate(127.246094 0)"/>
      <use xlink:href="#DejaVuSans-6e" transform="translate(159.033203 0)"/>
     </g>
    </g>
    <g id="line2d_37">
     <path d="M 500.996875 118.11 
L 510.996875 118.11 
L 520.996875 118.11 
" style="fill: none; stroke: #ff7f0e; stroke-width: 1.5; stroke-linecap: square"/>
    </g>
    <g id="text_20">
     <!-- 150 n -->
     <g transform="translate(528.996875 121.61) scale(0.1 -0.1)">
      <use xlink:href="#DejaVuSans-31"/>
      <use xlink:href="#DejaVuSans-35" transform="translate(63.623047 0)"/>
      <use xlink:href="#DejaVuSans-30" transform="translate(127.246094 0)"/>
      <use xlink:href="#DejaVuSans-20" transform="translate(190.869141 0)"/>
      <use xlink:href="#DejaVuSans-6e" transform="translate(222.65625 0)"/>
     </g>
    </g>
    <g id="line2d_38">
     <path d="M 500.996875 132.788125 
L 510.996875 132.788125 
L 520.996875 132.788125 
" style="fill: none; stroke: #2ca02c; stroke-width: 1.5; stroke-linecap: square"/>
    </g>
    <g id="text_21">
     <!-- 600 n -->
     <g transform="translate(528.996875 136.288125) scale(0.1 -0.1)">
      <use xlink:href="#DejaVuSans-36"/>
      <use xlink:href="#DejaVuSans-30" transform="translate(63.623047 0)"/>
      <use xlink:href="#DejaVuSans-30" transform="translate(127.246094 0)"/>
      <use xlink:href="#DejaVuSans-20" transform="translate(190.869141 0)"/>
      <use xlink:href="#DejaVuSans-6e" transform="translate(222.65625 0)"/>
     </g>
    </g>
    <g id="line2d_39">
     <path d="M 500.996875 147.46625 
L 510.996875 147.46625 
L 520.996875 147.46625 
" style="fill: none; stroke: #d62728; stroke-width: 1.5; stroke-linecap: square"/>
    </g>
    <g id="text_22">
     <!-- 1.5 µ -->
     <g transform="translate(528.996875 150.96625) scale(0.1 -0.1)">
      <defs>
       <path id="DejaVuSans-b5" d="M 544 -1331 
L 544 3500 
L 1119 3500 
L 1119 1325 
Q 1119 872 1334 640 
Q 1550 409 1972 409 
Q 2434 409 2667 671 
Q 2900 934 2900 1459 
L 2900 3500 
L 3475 3500 
L 3475 806 
Q 3475 619 3529 530 
Q 3584 441 3700 441 
Q 3728 441 3778 458 
Q 3828 475 3916 513 
L 3916 50 
Q 3788 -22 3673 -56 
Q 3559 -91 3450 -91 
Q 3234 -91 3106 31 
Q 2978 153 2931 403 
Q 2775 156 2548 32 
Q 2322 -91 2016 -91 
Q 1697 -91 1473 31 
Q 1250 153 1119 397 
L 1119 -1331 
L 544 -1331 
z
" transform="scale(0.015625)"/>
      </defs>
      <use xlink:href="#DejaVuSans-31"/>
      <use xlink:href="#DejaVuSans-2e" transform="translate(63.623047 0)"/>
      <use xlink:href="#DejaVuSans-35" transform="translate(95.410156 0)"/>
      <use xlink:href="#DejaVuSans-20" transform="translate(159.033203 0)"/>
      <use xlink:href="#DejaVuSans-b5" transform="translate(190.820312 0)"/>
     </g>
    </g>
    <g id="line2d_40">
     <path d="M 500.996875 162.144375 
L 510.996875 162.144375 
L 520.996875 162.144375 
" style="fill: none; stroke: #9467bd; stroke-width: 1.5; stroke-linecap: square"/>
    </g>
    <g id="text_23">
     <!-- 3 µ -->
     <g transform="translate(528.996875 165.644375) scale(0.1 -0.1)">
      <defs>
       <path id="DejaVuSans-33" d="M 2597 2516 
Q 3050 2419 3304 2112 
Q 3559 1806 3559 1356 
Q 3559 666 3084 287 
Q 2609 -91 1734 -91 
Q 1441 -91 1130 -33 
Q 819 25 488 141 
L 488 750 
Q 750 597 1062 519 
Q 1375 441 1716 441 
Q 2309 441 2620 675 
Q 2931 909 2931 1356 
Q 2931 1769 2642 2001 
Q 2353 2234 1838 2234 
L 1294 2234 
L 1294 2753 
L 1863 2753 
Q 2328 2753 2575 2939 
Q 2822 3125 2822 3475 
Q 2822 3834 2567 4026 
Q 2313 4219 1838 4219 
Q 1578 4219 1281 4162 
Q 984 4106 628 3988 
L 628 4550 
Q 988 4650 1302 4700 
Q 1616 4750 1894 4750 
Q 2613 4750 3031 4423 
Q 3450 4097 3450 3541 
Q 3450 3153 3228 2886 
Q 3006 2619 2597 2516 
z
" transform="scale(0.015625)"/>
      </defs>
      <use xlink:href="#DejaVuSans-33"/>
      <use xlink:href="#DejaVuSans-20" transform="translate(63.623047 0)"/>
      <use xlink:href="#DejaVuSans-b5" transform="translate(95.410156 0)"/>
     </g>
    </g>
   </g>
  </g>
 </g>
 <defs>
  <clipPath id="p6a27942c75">
   <rect x="50.165625" y="7.2" width="441.83125" height="236.04375"/>
  </clipPath>
 </defs>
</svg>
